%TF.GenerationSoftware,KiCad,Pcbnew,10.0.4*%
%TF.CreationDate,2026-08-16T22:18:20+02:00*%
%TF.ProjectId,LO_PCB,4c4f5f50-4342-42e6-9b69-6361645f7063,rev?*%
%TF.SameCoordinates,Original*%
%TF.FileFunction,Drillmap*%
%TF.FilePolarity,Positive*%
%FSLAX45Y45*%
G04 Gerber Fmt 4.5, Leading zero omitted, Abs format (unit mm)*
G04 Created by KiCad (PCBNEW 10.0.4) date 2026-08-16 22:18:20*
%MOMM*%
%LPD*%
G01*
G04 APERTURE LIST*
%ADD10C,0.050000*%
%ADD11C,0.200000*%
%ADD12C,0.100000*%
%ADD13C,0.220000*%
G04 APERTURE END LIST*
D10*
X13500000Y-7750000D02*
X18500000Y-7750000D01*
X18500000Y-12000000D01*
X13500000Y-12000000D01*
X13500000Y-7750000D01*
D11*
D12*
X13575000Y-9820000D02*
X13605000Y-9850000D01*
X13605000Y-9820000D02*
X13575000Y-9850000D01*
X13575000Y-10040000D02*
X13605000Y-10070000D01*
X13605000Y-10040000D02*
X13575000Y-10070000D01*
X13585000Y-9660000D02*
X13615000Y-9690000D01*
X13615000Y-9660000D02*
X13585000Y-9690000D01*
X13595000Y-10205000D02*
X13625000Y-10235000D01*
X13625000Y-10205000D02*
X13595000Y-10235000D01*
X13665000Y-9842715D02*
X13695000Y-9872715D01*
X13695000Y-9842715D02*
X13665000Y-9872715D01*
X13665000Y-10018000D02*
X13695000Y-10048000D01*
X13695000Y-10018000D02*
X13665000Y-10048000D01*
X13750000Y-9864175D02*
X13780000Y-9894175D01*
X13780000Y-9864175D02*
X13750000Y-9894175D01*
X13750000Y-9998265D02*
X13780000Y-10028265D01*
X13780000Y-9998265D02*
X13750000Y-10028265D01*
X13755000Y-9660000D02*
X13785000Y-9690000D01*
X13785000Y-9660000D02*
X13755000Y-9690000D01*
X13765000Y-10205000D02*
X13795000Y-10235000D01*
X13795000Y-10205000D02*
X13765000Y-10235000D01*
X13850000Y-9864175D02*
X13880000Y-9894175D01*
X13880000Y-9864175D02*
X13850000Y-9894175D01*
X13850000Y-9998265D02*
X13880000Y-10028265D01*
X13880000Y-9998265D02*
X13850000Y-10028265D01*
X13920000Y-9660000D02*
X13950000Y-9690000D01*
X13950000Y-9660000D02*
X13920000Y-9690000D01*
X13930000Y-10205000D02*
X13960000Y-10235000D01*
X13960000Y-10205000D02*
X13930000Y-10235000D01*
X13950000Y-9864175D02*
X13980000Y-9894175D01*
X13980000Y-9864175D02*
X13950000Y-9894175D01*
X13950000Y-9998265D02*
X13980000Y-10028265D01*
X13980000Y-9998265D02*
X13950000Y-10028265D01*
X14063020Y-9824960D02*
X14093020Y-9854960D01*
X14093020Y-9824960D02*
X14063020Y-9854960D01*
X14063020Y-10035000D02*
X14093020Y-10065000D01*
X14093020Y-10035000D02*
X14063020Y-10065000D01*
X14165000Y-9430000D02*
X14195000Y-9460000D01*
X14195000Y-9430000D02*
X14165000Y-9460000D01*
X14165000Y-9630000D02*
X14195000Y-9660000D01*
X14195000Y-9630000D02*
X14165000Y-9660000D01*
X14193760Y-9825000D02*
X14223760Y-9855000D01*
X14223760Y-9825000D02*
X14193760Y-9855000D01*
X14193760Y-10035000D02*
X14223760Y-10065000D01*
X14223760Y-10035000D02*
X14193760Y-10065000D01*
X14215000Y-8824020D02*
X14245000Y-8854020D01*
X14245000Y-8824020D02*
X14215000Y-8854020D01*
X14252500Y-8250000D02*
X14282500Y-8280000D01*
X14282500Y-8250000D02*
X14252500Y-8280000D01*
X14297900Y-9256000D02*
X14327900Y-9286000D01*
X14327900Y-9256000D02*
X14297900Y-9286000D01*
X14304600Y-9824960D02*
X14334600Y-9854960D01*
X14334600Y-9824960D02*
X14304600Y-9854960D01*
X14304600Y-10034960D02*
X14334600Y-10064960D01*
X14334600Y-10034960D02*
X14304600Y-10064960D01*
X14372500Y-8375000D02*
X14402500Y-8405000D01*
X14402500Y-8375000D02*
X14372500Y-8405000D01*
X14377500Y-8125000D02*
X14407500Y-8155000D01*
X14407500Y-8125000D02*
X14377500Y-8155000D01*
X14409680Y-9824960D02*
X14439680Y-9854960D01*
X14439680Y-9824960D02*
X14409680Y-9854960D01*
X14412200Y-10038320D02*
X14442200Y-10068320D01*
X14442200Y-10038320D02*
X14412200Y-10068320D01*
X14495000Y-10110000D02*
X14525000Y-10140000D01*
X14525000Y-10110000D02*
X14495000Y-10140000D01*
X14515000Y-9680000D02*
X14545000Y-9710000D01*
X14545000Y-9680000D02*
X14515000Y-9710000D01*
X14515000Y-9755000D02*
X14545000Y-9785000D01*
X14545000Y-9755000D02*
X14515000Y-9785000D01*
X14515000Y-9825000D02*
X14545000Y-9855000D01*
X14545000Y-9825000D02*
X14515000Y-9855000D01*
X14610000Y-10025000D02*
X14640000Y-10055000D01*
X14640000Y-10025000D02*
X14610000Y-10055000D01*
X14610000Y-10110000D02*
X14640000Y-10140000D01*
X14640000Y-10110000D02*
X14610000Y-10140000D01*
X14610320Y-10203420D02*
X14640320Y-10233420D01*
X14640320Y-10203420D02*
X14610320Y-10233420D01*
X14654000Y-11526000D02*
X14684000Y-11556000D01*
X14684000Y-11526000D02*
X14654000Y-11556000D01*
X14705000Y-9455000D02*
X14735000Y-9485000D01*
X14735000Y-9455000D02*
X14705000Y-9485000D01*
X14705000Y-9530000D02*
X14735000Y-9560000D01*
X14735000Y-9530000D02*
X14705000Y-9560000D01*
X14705000Y-9605000D02*
X14735000Y-9635000D01*
X14735000Y-9605000D02*
X14705000Y-9635000D01*
X14705000Y-9680000D02*
X14735000Y-9710000D01*
X14735000Y-9680000D02*
X14705000Y-9710000D01*
X14705000Y-9755000D02*
X14735000Y-9785000D01*
X14735000Y-9755000D02*
X14705000Y-9785000D01*
X14705000Y-9825000D02*
X14735000Y-9855000D01*
X14735000Y-9825000D02*
X14705000Y-9855000D01*
X14717000Y-10316000D02*
X14747000Y-10346000D01*
X14747000Y-10316000D02*
X14717000Y-10346000D01*
X14823680Y-10203420D02*
X14853680Y-10233420D01*
X14853680Y-10203420D02*
X14823680Y-10233420D01*
X14825000Y-9825000D02*
X14855000Y-9855000D01*
X14855000Y-9825000D02*
X14825000Y-9855000D01*
X14825000Y-10125000D02*
X14855000Y-10155000D01*
X14855000Y-10125000D02*
X14825000Y-10155000D01*
X14830000Y-8825000D02*
X14860000Y-8855000D01*
X14860000Y-8825000D02*
X14830000Y-8855000D01*
X14846540Y-10442180D02*
X14876540Y-10472180D01*
X14876540Y-10442180D02*
X14846540Y-10472180D01*
X14935000Y-11145000D02*
X14965000Y-11175000D01*
X14965000Y-11145000D02*
X14935000Y-11175000D01*
X14940520Y-9730980D02*
X14970520Y-9760980D01*
X14970520Y-9730980D02*
X14940520Y-9760980D01*
X14942500Y-8520000D02*
X14972500Y-8550000D01*
X14972500Y-8520000D02*
X14942500Y-8550000D01*
X14960000Y-9620000D02*
X14990000Y-9650000D01*
X14990000Y-9620000D02*
X14960000Y-9650000D01*
X14975000Y-10380000D02*
X15005000Y-10410000D01*
X15005000Y-10380000D02*
X14975000Y-10410000D01*
X14995520Y-9830000D02*
X15025520Y-9860000D01*
X15025520Y-9830000D02*
X14995520Y-9860000D01*
X15000000Y-10225000D02*
X15030000Y-10255000D01*
X15030000Y-10225000D02*
X15000000Y-10255000D01*
X15030000Y-8609000D02*
X15060000Y-8639000D01*
X15060000Y-8609000D02*
X15030000Y-8639000D01*
X15034500Y-10124680D02*
X15064500Y-10154680D01*
X15064500Y-10124680D02*
X15034500Y-10154680D01*
X15045000Y-9530000D02*
X15075000Y-9560000D01*
X15075000Y-9530000D02*
X15045000Y-9560000D01*
X15072500Y-10940000D02*
X15102500Y-10970000D01*
X15102500Y-10940000D02*
X15072500Y-10970000D01*
X15095000Y-9840000D02*
X15125000Y-9870000D01*
X15125000Y-9840000D02*
X15095000Y-9870000D01*
X15160000Y-9165000D02*
X15190000Y-9195000D01*
X15190000Y-9165000D02*
X15160000Y-9195000D01*
X15165000Y-10460000D02*
X15195000Y-10490000D01*
X15195000Y-10460000D02*
X15165000Y-10490000D01*
X15175000Y-10825000D02*
X15205000Y-10855000D01*
X15205000Y-10825000D02*
X15175000Y-10855000D01*
X15175000Y-11050000D02*
X15205000Y-11080000D01*
X15205000Y-11050000D02*
X15175000Y-11080000D01*
X15186900Y-9840200D02*
X15216900Y-9870200D01*
X15216900Y-9840200D02*
X15186900Y-9870200D01*
X15245000Y-9082500D02*
X15275000Y-9112500D01*
X15275000Y-9082500D02*
X15245000Y-9112500D01*
X15262500Y-9710000D02*
X15292500Y-9740000D01*
X15292500Y-9710000D02*
X15262500Y-9740000D01*
X15265000Y-11245000D02*
X15295000Y-11275000D01*
X15295000Y-11245000D02*
X15265000Y-11275000D01*
X15298400Y-10447000D02*
X15328400Y-10477000D01*
X15328400Y-10447000D02*
X15298400Y-10477000D01*
X15317500Y-10090000D02*
X15347500Y-10120000D01*
X15347500Y-10090000D02*
X15317500Y-10120000D01*
X15318000Y-10361000D02*
X15348000Y-10391000D01*
X15348000Y-10361000D02*
X15318000Y-10391000D01*
X15327500Y-8470000D02*
X15357500Y-8500000D01*
X15357500Y-8470000D02*
X15327500Y-8500000D01*
X15335000Y-8171000D02*
X15365000Y-8201000D01*
X15365000Y-8171000D02*
X15335000Y-8201000D01*
X15345000Y-9182500D02*
X15375000Y-9212500D01*
X15375000Y-9182500D02*
X15345000Y-9212500D01*
X15400000Y-8010000D02*
X15430000Y-8040000D01*
X15430000Y-8010000D02*
X15400000Y-8040000D01*
X15430000Y-8565000D02*
X15460000Y-8595000D01*
X15460000Y-8565000D02*
X15430000Y-8595000D01*
X15517500Y-10707500D02*
X15547500Y-10737500D01*
X15547500Y-10707500D02*
X15517500Y-10737500D01*
X15575000Y-8010000D02*
X15605000Y-8040000D01*
X15605000Y-8010000D02*
X15575000Y-8040000D01*
X15592500Y-8565000D02*
X15622500Y-8595000D01*
X15622500Y-8565000D02*
X15592500Y-8595000D01*
X15612500Y-9077500D02*
X15642500Y-9107500D01*
X15642500Y-9077500D02*
X15612500Y-9107500D01*
X15637955Y-10505000D02*
X15667955Y-10535000D01*
X15667955Y-10505000D02*
X15637955Y-10535000D01*
X15637955Y-10605000D02*
X15667955Y-10635000D01*
X15667955Y-10605000D02*
X15637955Y-10635000D01*
X15637955Y-10705000D02*
X15667955Y-10735000D01*
X15667955Y-10705000D02*
X15637955Y-10735000D01*
X15638000Y-10408000D02*
X15668000Y-10438000D01*
X15668000Y-10408000D02*
X15638000Y-10438000D01*
X15640129Y-8128497D02*
X15670129Y-8158497D01*
X15670129Y-8128497D02*
X15640129Y-8158497D01*
X15675000Y-11245000D02*
X15705000Y-11275000D01*
X15705000Y-11245000D02*
X15675000Y-11275000D01*
X15685000Y-10835000D02*
X15715000Y-10865000D01*
X15715000Y-10835000D02*
X15685000Y-10865000D01*
X15690000Y-8470000D02*
X15720000Y-8500000D01*
X15720000Y-8470000D02*
X15690000Y-8500000D01*
X15715680Y-10198680D02*
X15745680Y-10228680D01*
X15745680Y-10198680D02*
X15715680Y-10228680D01*
X15740000Y-10905000D02*
X15770000Y-10935000D01*
X15770000Y-10905000D02*
X15740000Y-10935000D01*
X15740000Y-11015000D02*
X15770000Y-11045000D01*
X15770000Y-11015000D02*
X15740000Y-11045000D01*
X15753457Y-10047140D02*
X15783457Y-10077140D01*
X15783457Y-10047140D02*
X15753457Y-10077140D01*
X15765000Y-9077500D02*
X15795000Y-9107500D01*
X15795000Y-9077500D02*
X15765000Y-9107500D01*
X15765000Y-9440000D02*
X15795000Y-9470000D01*
X15795000Y-9440000D02*
X15765000Y-9470000D01*
X15775903Y-10281904D02*
X15805903Y-10311904D01*
X15805903Y-10281904D02*
X15775903Y-10311904D01*
X15777725Y-10555000D02*
X15807725Y-10585000D01*
X15807725Y-10555000D02*
X15777725Y-10585000D01*
X15777725Y-10637000D02*
X15807725Y-10667000D01*
X15807725Y-10637000D02*
X15777725Y-10667000D01*
X15797275Y-10215375D02*
X15827275Y-10245375D01*
X15827275Y-10215375D02*
X15797275Y-10245375D01*
X15835000Y-11295000D02*
X15865000Y-11325000D01*
X15865000Y-11295000D02*
X15835000Y-11325000D01*
X15850000Y-11020000D02*
X15880000Y-11050000D01*
X15880000Y-11020000D02*
X15850000Y-11050000D01*
X15860000Y-10040420D02*
X15890000Y-10070420D01*
X15890000Y-10040420D02*
X15860000Y-10070420D01*
X15890000Y-10755000D02*
X15920000Y-10785000D01*
X15920000Y-10755000D02*
X15890000Y-10785000D01*
X15891070Y-10360999D02*
X15921070Y-10390999D01*
X15921070Y-10360999D02*
X15891070Y-10390999D01*
X15917500Y-9077500D02*
X15947500Y-9107500D01*
X15947500Y-9077500D02*
X15917500Y-9107500D01*
X15926000Y-11536000D02*
X15956000Y-11566000D01*
X15956000Y-11536000D02*
X15926000Y-11566000D01*
X15940439Y-10041886D02*
X15970439Y-10071886D01*
X15970439Y-10041886D02*
X15940439Y-10071886D01*
X15950000Y-10835000D02*
X15980000Y-10865000D01*
X15980000Y-10835000D02*
X15950000Y-10865000D01*
X15956766Y-9916755D02*
X15986766Y-9946755D01*
X15986766Y-9916755D02*
X15956766Y-9946755D01*
X15962500Y-8537500D02*
X15992500Y-8567500D01*
X15992500Y-8537500D02*
X15962500Y-8567500D01*
X15984663Y-10214261D02*
X16014663Y-10244261D01*
X16014663Y-10214261D02*
X15984663Y-10244261D01*
X15992500Y-10755000D02*
X16022500Y-10785000D01*
X16022500Y-10755000D02*
X15992500Y-10785000D01*
X15994757Y-11021101D02*
X16024757Y-11051101D01*
X16024757Y-11021101D02*
X15994757Y-11051101D01*
X16005000Y-10280818D02*
X16035000Y-10310818D01*
X16035000Y-10280818D02*
X16005000Y-10310818D01*
X16040711Y-10508289D02*
X16070711Y-10538289D01*
X16070711Y-10508289D02*
X16040711Y-10538289D01*
X16045000Y-7985000D02*
X16075000Y-8015000D01*
X16075000Y-7985000D02*
X16045000Y-8015000D01*
X16047000Y-11665000D02*
X16077000Y-11695000D01*
X16077000Y-11665000D02*
X16047000Y-11695000D01*
X16060000Y-8632500D02*
X16090000Y-8662500D01*
X16090000Y-8632500D02*
X16060000Y-8662500D01*
X16060000Y-10835000D02*
X16090000Y-10865000D01*
X16090000Y-10835000D02*
X16060000Y-10865000D01*
X16065000Y-10945000D02*
X16095000Y-10975000D01*
X16095000Y-10945000D02*
X16065000Y-10975000D01*
X16078023Y-10341438D02*
X16108023Y-10371438D01*
X16108023Y-10341438D02*
X16078023Y-10371438D01*
X16108211Y-10575789D02*
X16138211Y-10605789D01*
X16138211Y-10575789D02*
X16108211Y-10605789D01*
X16129506Y-10079845D02*
X16159506Y-10109845D01*
X16159506Y-10079845D02*
X16129506Y-10109845D01*
X16129971Y-9887928D02*
X16159971Y-9917928D01*
X16159971Y-9887928D02*
X16129971Y-9917928D01*
X16132027Y-10409973D02*
X16162027Y-10439973D01*
X16162027Y-10409973D02*
X16132027Y-10439973D01*
X16178211Y-10645789D02*
X16208211Y-10675789D01*
X16208211Y-10645789D02*
X16178211Y-10675789D01*
X16200360Y-9799560D02*
X16230360Y-9829560D01*
X16230360Y-9799560D02*
X16200360Y-9829560D01*
X16200527Y-10478473D02*
X16230527Y-10508473D01*
X16230527Y-10478473D02*
X16200527Y-10508473D01*
X16208696Y-10169684D02*
X16238696Y-10199684D01*
X16238696Y-10169684D02*
X16208696Y-10199684D01*
X16220000Y-8632500D02*
X16250000Y-8662500D01*
X16250000Y-8632500D02*
X16220000Y-8662500D01*
X16229000Y-9983945D02*
X16259000Y-10013945D01*
X16259000Y-9983945D02*
X16229000Y-10013945D01*
X16232500Y-9215000D02*
X16262500Y-9245000D01*
X16262500Y-9215000D02*
X16232500Y-9245000D01*
X16251211Y-10718789D02*
X16281211Y-10748789D01*
X16281211Y-10718789D02*
X16251211Y-10748789D01*
X16272527Y-10550473D02*
X16302527Y-10580473D01*
X16302527Y-10550473D02*
X16272527Y-10580473D01*
X16284633Y-10232367D02*
X16314633Y-10262367D01*
X16314633Y-10232367D02*
X16284633Y-10262367D01*
X16292000Y-9729000D02*
X16322000Y-9759000D01*
X16322000Y-9729000D02*
X16292000Y-9759000D01*
X16344027Y-10621973D02*
X16374027Y-10651973D01*
X16374027Y-10621973D02*
X16344027Y-10651973D01*
X16349707Y-10297440D02*
X16379707Y-10327440D01*
X16379707Y-10297440D02*
X16349707Y-10327440D01*
X16350000Y-10935000D02*
X16380000Y-10965000D01*
X16380000Y-10935000D02*
X16350000Y-10965000D01*
X16365000Y-9217500D02*
X16395000Y-9247500D01*
X16395000Y-9217500D02*
X16365000Y-9247500D01*
X16370540Y-9680180D02*
X16400540Y-9710180D01*
X16400540Y-9680180D02*
X16370540Y-9710180D01*
X16371311Y-10831524D02*
X16401311Y-10861524D01*
X16401311Y-10831524D02*
X16371311Y-10861524D01*
X16389264Y-9824000D02*
X16419264Y-9854000D01*
X16419264Y-9824000D02*
X16389264Y-9854000D01*
X16395000Y-10480000D02*
X16425000Y-10510000D01*
X16425000Y-10480000D02*
X16395000Y-10510000D01*
X16420997Y-10176000D02*
X16450997Y-10206000D01*
X16450997Y-10176000D02*
X16420997Y-10206000D01*
X16436620Y-10704963D02*
X16466620Y-10734963D01*
X16466620Y-10704963D02*
X16436620Y-10734963D01*
X16480000Y-9327500D02*
X16510000Y-9357500D01*
X16510000Y-9327500D02*
X16480000Y-9357500D01*
X16480000Y-9672915D02*
X16510000Y-9702915D01*
X16510000Y-9672915D02*
X16480000Y-9702915D01*
X16480000Y-9809000D02*
X16510000Y-9839000D01*
X16510000Y-9809000D02*
X16480000Y-9839000D01*
X16485692Y-10874355D02*
X16515692Y-10904355D01*
X16515692Y-10874355D02*
X16485692Y-10904355D01*
X16495000Y-9895000D02*
X16525000Y-9925000D01*
X16525000Y-9895000D02*
X16495000Y-9925000D01*
X16517955Y-10743971D02*
X16547955Y-10773971D01*
X16547955Y-10743971D02*
X16517955Y-10773971D01*
X16522500Y-9470000D02*
X16552500Y-9500000D01*
X16552500Y-9470000D02*
X16522500Y-9500000D01*
X16545000Y-7982500D02*
X16575000Y-8012500D01*
X16575000Y-7982500D02*
X16545000Y-8012500D01*
X16580000Y-9672915D02*
X16610000Y-9702915D01*
X16610000Y-9672915D02*
X16580000Y-9702915D01*
X16580000Y-9809000D02*
X16610000Y-9839000D01*
X16610000Y-9809000D02*
X16580000Y-9839000D01*
X16612000Y-10007000D02*
X16642000Y-10037000D01*
X16642000Y-10007000D02*
X16612000Y-10037000D01*
X16612000Y-10089000D02*
X16642000Y-10119000D01*
X16642000Y-10089000D02*
X16612000Y-10119000D01*
X16615000Y-8300000D02*
X16645000Y-8330000D01*
X16645000Y-8300000D02*
X16615000Y-8330000D01*
X16642500Y-7902500D02*
X16672500Y-7932500D01*
X16672500Y-7902500D02*
X16642500Y-7932500D01*
X16650000Y-10370000D02*
X16680000Y-10400000D01*
X16680000Y-10370000D02*
X16650000Y-10400000D01*
X16653000Y-10756924D02*
X16683000Y-10786924D01*
X16683000Y-10756924D02*
X16653000Y-10786924D01*
X16653000Y-10896000D02*
X16683000Y-10926000D01*
X16683000Y-10896000D02*
X16653000Y-10926000D01*
X16680000Y-9672915D02*
X16710000Y-9702915D01*
X16710000Y-9672915D02*
X16680000Y-9702915D01*
X16680000Y-9809000D02*
X16710000Y-9839000D01*
X16710000Y-9809000D02*
X16680000Y-9839000D01*
X16721000Y-10434000D02*
X16751000Y-10464000D01*
X16751000Y-10434000D02*
X16721000Y-10464000D01*
X16753000Y-10757000D02*
X16783000Y-10787000D01*
X16783000Y-10757000D02*
X16753000Y-10787000D01*
X16753000Y-10895000D02*
X16783000Y-10925000D01*
X16783000Y-10895000D02*
X16753000Y-10925000D01*
X16756000Y-10166000D02*
X16786000Y-10196000D01*
X16786000Y-10166000D02*
X16756000Y-10196000D01*
X16760000Y-8300000D02*
X16790000Y-8330000D01*
X16790000Y-8300000D02*
X16760000Y-8330000D01*
X16780000Y-9672595D02*
X16810000Y-9702595D01*
X16810000Y-9672595D02*
X16780000Y-9702595D01*
X16780000Y-9809000D02*
X16810000Y-9839000D01*
X16810000Y-9809000D02*
X16780000Y-9839000D01*
X16793000Y-10371000D02*
X16823000Y-10401000D01*
X16823000Y-10371000D02*
X16793000Y-10401000D01*
X16807500Y-7905000D02*
X16837500Y-7935000D01*
X16837500Y-7905000D02*
X16807500Y-7935000D01*
X16828000Y-10100000D02*
X16858000Y-10130000D01*
X16858000Y-10100000D02*
X16828000Y-10130000D01*
X16853000Y-10757000D02*
X16883000Y-10787000D01*
X16883000Y-10757000D02*
X16853000Y-10787000D01*
X16853000Y-10895000D02*
X16883000Y-10925000D01*
X16883000Y-10895000D02*
X16853000Y-10925000D01*
X16860240Y-9625000D02*
X16890240Y-9655000D01*
X16890240Y-9625000D02*
X16860240Y-9655000D01*
X16860240Y-9855440D02*
X16890240Y-9885440D01*
X16890240Y-9855440D02*
X16860240Y-9885440D01*
X16899000Y-10166000D02*
X16929000Y-10196000D01*
X16929000Y-10166000D02*
X16899000Y-10196000D01*
X16918000Y-9085000D02*
X16948000Y-9115000D01*
X16948000Y-9085000D02*
X16918000Y-9115000D01*
X16920000Y-8368000D02*
X16950000Y-8398000D01*
X16950000Y-8368000D02*
X16920000Y-8398000D01*
X16945000Y-9430000D02*
X16975000Y-9460000D01*
X16975000Y-9430000D02*
X16945000Y-9460000D01*
X16953000Y-10757000D02*
X16983000Y-10787000D01*
X16983000Y-10757000D02*
X16953000Y-10787000D01*
X16953000Y-10895000D02*
X16983000Y-10925000D01*
X16983000Y-10895000D02*
X16953000Y-10925000D01*
X17009000Y-8984000D02*
X17039000Y-9014000D01*
X17039000Y-8984000D02*
X17009000Y-9014000D01*
X17012000Y-8819000D02*
X17042000Y-8849000D01*
X17042000Y-8819000D02*
X17012000Y-8849000D01*
X17012500Y-7902500D02*
X17042500Y-7932500D01*
X17042500Y-7902500D02*
X17012500Y-7932500D01*
X17013000Y-8466000D02*
X17043000Y-8496000D01*
X17043000Y-8466000D02*
X17013000Y-8496000D01*
X17014000Y-8629000D02*
X17044000Y-8659000D01*
X17044000Y-8629000D02*
X17014000Y-8659000D01*
X17020320Y-9625000D02*
X17050320Y-9655000D01*
X17050320Y-9625000D02*
X17020320Y-9655000D01*
X17020320Y-9855000D02*
X17050320Y-9885000D01*
X17050320Y-9855000D02*
X17020320Y-9885000D01*
X17045000Y-8305000D02*
X17075000Y-8335000D01*
X17075000Y-8305000D02*
X17045000Y-8335000D01*
X17053000Y-10757000D02*
X17083000Y-10787000D01*
X17083000Y-10757000D02*
X17053000Y-10787000D01*
X17053000Y-10895000D02*
X17083000Y-10925000D01*
X17083000Y-10895000D02*
X17053000Y-10925000D01*
X17117500Y-9565000D02*
X17147500Y-9595000D01*
X17147500Y-9565000D02*
X17117500Y-9595000D01*
X17117500Y-9855000D02*
X17147500Y-9885000D01*
X17147500Y-9855000D02*
X17117500Y-9885000D01*
X17153000Y-10757000D02*
X17183000Y-10787000D01*
X17183000Y-10757000D02*
X17153000Y-10787000D01*
X17153000Y-10895000D02*
X17183000Y-10925000D01*
X17183000Y-10895000D02*
X17153000Y-10925000D01*
X17175000Y-7902500D02*
X17205000Y-7932500D01*
X17205000Y-7902500D02*
X17175000Y-7932500D01*
X17212500Y-9625000D02*
X17242500Y-9655000D01*
X17242500Y-9625000D02*
X17212500Y-9655000D01*
X17212500Y-9855000D02*
X17242500Y-9885000D01*
X17242500Y-9855000D02*
X17212500Y-9885000D01*
X17253000Y-10757000D02*
X17283000Y-10787000D01*
X17283000Y-10757000D02*
X17253000Y-10787000D01*
X17253000Y-10895000D02*
X17283000Y-10925000D01*
X17283000Y-10895000D02*
X17253000Y-10925000D01*
X17270000Y-7982500D02*
X17300000Y-8012500D01*
X17300000Y-7982500D02*
X17270000Y-8012500D01*
X17310000Y-9625000D02*
X17340000Y-9655000D01*
X17340000Y-9625000D02*
X17310000Y-9655000D01*
X17310000Y-9855000D02*
X17340000Y-9885000D01*
X17340000Y-9855000D02*
X17310000Y-9885000D01*
X17353000Y-10757000D02*
X17383000Y-10787000D01*
X17383000Y-10757000D02*
X17353000Y-10787000D01*
X17353000Y-10895000D02*
X17383000Y-10925000D01*
X17383000Y-10895000D02*
X17353000Y-10925000D01*
X17417500Y-9540000D02*
X17447500Y-9570000D01*
X17447500Y-9540000D02*
X17417500Y-9570000D01*
X17417500Y-9622500D02*
X17447500Y-9652500D01*
X17447500Y-9622500D02*
X17417500Y-9652500D01*
X17417500Y-9917500D02*
X17447500Y-9947500D01*
X17447500Y-9917500D02*
X17417500Y-9947500D01*
X17453000Y-10757000D02*
X17483000Y-10787000D01*
X17483000Y-10757000D02*
X17453000Y-10787000D01*
X17453000Y-10895000D02*
X17483000Y-10925000D01*
X17483000Y-10895000D02*
X17453000Y-10925000D01*
X17525000Y-9465000D02*
X17555000Y-9495000D01*
X17555000Y-9465000D02*
X17525000Y-9495000D01*
X17525000Y-9540000D02*
X17555000Y-9570000D01*
X17555000Y-9540000D02*
X17525000Y-9570000D01*
X17525000Y-9840000D02*
X17555000Y-9870000D01*
X17555000Y-9840000D02*
X17525000Y-9870000D01*
X17553000Y-10757000D02*
X17583000Y-10787000D01*
X17583000Y-10757000D02*
X17553000Y-10787000D01*
X17553000Y-10895000D02*
X17583000Y-10925000D01*
X17583000Y-10895000D02*
X17553000Y-10925000D01*
X17637000Y-9464000D02*
X17667000Y-9494000D01*
X17667000Y-9464000D02*
X17637000Y-9494000D01*
X17637000Y-9735000D02*
X17667000Y-9765000D01*
X17667000Y-9735000D02*
X17637000Y-9765000D01*
X17637000Y-9839000D02*
X17667000Y-9869000D01*
X17667000Y-9839000D02*
X17637000Y-9869000D01*
X17653000Y-10757000D02*
X17683000Y-10787000D01*
X17683000Y-10757000D02*
X17653000Y-10787000D01*
X17653000Y-10895000D02*
X17683000Y-10925000D01*
X17683000Y-10895000D02*
X17653000Y-10925000D01*
X17743000Y-9465000D02*
X17773000Y-9495000D01*
X17773000Y-9465000D02*
X17743000Y-9495000D01*
X17743000Y-9540000D02*
X17773000Y-9570000D01*
X17773000Y-9540000D02*
X17743000Y-9570000D01*
X17743000Y-9735000D02*
X17773000Y-9765000D01*
X17773000Y-9735000D02*
X17743000Y-9765000D01*
X17765000Y-10935000D02*
X17795000Y-10965000D01*
X17795000Y-10935000D02*
X17765000Y-10965000D01*
X17765426Y-10714000D02*
X17795426Y-10744000D01*
X17795426Y-10714000D02*
X17765426Y-10744000D01*
X17850000Y-9540000D02*
X17880000Y-9570000D01*
X17880000Y-9540000D02*
X17850000Y-9570000D01*
X17850000Y-9735000D02*
X17880000Y-9765000D01*
X17880000Y-9735000D02*
X17850000Y-9765000D01*
X17875000Y-10714000D02*
X17905000Y-10744000D01*
X17905000Y-10714000D02*
X17875000Y-10744000D01*
X17875000Y-10936000D02*
X17905000Y-10966000D01*
X17905000Y-10936000D02*
X17875000Y-10966000D01*
X17965000Y-10757937D02*
X17995000Y-10787937D01*
X17995000Y-10757937D02*
X17965000Y-10787937D01*
X17965000Y-10896000D02*
X17995000Y-10926000D01*
X17995000Y-10896000D02*
X17965000Y-10926000D01*
X17966432Y-9575835D02*
X17996432Y-9605835D01*
X17996432Y-9575835D02*
X17966432Y-9605835D01*
X17966432Y-9712000D02*
X17996432Y-9742000D01*
X17996432Y-9712000D02*
X17966432Y-9742000D01*
X18040000Y-10565000D02*
X18070000Y-10595000D01*
X18070000Y-10565000D02*
X18040000Y-10595000D01*
X18040000Y-11105000D02*
X18070000Y-11135000D01*
X18070000Y-11105000D02*
X18040000Y-11135000D01*
X18045000Y-9920000D02*
X18075000Y-9950000D01*
X18075000Y-9920000D02*
X18045000Y-9950000D01*
X18050000Y-9375000D02*
X18080000Y-9405000D01*
X18080000Y-9375000D02*
X18050000Y-9405000D01*
X18065000Y-10758000D02*
X18095000Y-10788000D01*
X18095000Y-10758000D02*
X18065000Y-10788000D01*
X18065000Y-10896000D02*
X18095000Y-10926000D01*
X18095000Y-10896000D02*
X18065000Y-10926000D01*
X18073000Y-9575835D02*
X18103000Y-9605835D01*
X18103000Y-9575835D02*
X18073000Y-9605835D01*
X18073000Y-9712000D02*
X18103000Y-9742000D01*
X18103000Y-9712000D02*
X18073000Y-9742000D01*
X18165000Y-10758000D02*
X18195000Y-10788000D01*
X18195000Y-10758000D02*
X18165000Y-10788000D01*
X18165000Y-10896000D02*
X18195000Y-10926000D01*
X18195000Y-10896000D02*
X18165000Y-10926000D01*
X18179000Y-9576000D02*
X18209000Y-9606000D01*
X18209000Y-9576000D02*
X18179000Y-9606000D01*
X18179000Y-9712000D02*
X18209000Y-9742000D01*
X18209000Y-9712000D02*
X18179000Y-9742000D01*
X18205000Y-10565000D02*
X18235000Y-10595000D01*
X18235000Y-10565000D02*
X18205000Y-10595000D01*
X18205000Y-11105000D02*
X18235000Y-11135000D01*
X18235000Y-11105000D02*
X18205000Y-11135000D01*
X18210000Y-9920000D02*
X18240000Y-9950000D01*
X18240000Y-9920000D02*
X18210000Y-9950000D01*
X18215000Y-9375000D02*
X18245000Y-9405000D01*
X18245000Y-9375000D02*
X18215000Y-9405000D01*
X18265000Y-10758000D02*
X18295000Y-10788000D01*
X18295000Y-10758000D02*
X18265000Y-10788000D01*
X18265000Y-10896000D02*
X18295000Y-10926000D01*
X18295000Y-10896000D02*
X18265000Y-10926000D01*
X18285000Y-9576000D02*
X18315000Y-9606000D01*
X18315000Y-9576000D02*
X18285000Y-9606000D01*
X18285000Y-9712000D02*
X18315000Y-9742000D01*
X18315000Y-9712000D02*
X18285000Y-9742000D01*
X18365000Y-10732000D02*
X18395000Y-10762000D01*
X18395000Y-10732000D02*
X18365000Y-10762000D01*
X18365000Y-10925000D02*
X18395000Y-10955000D01*
X18395000Y-10925000D02*
X18365000Y-10955000D01*
X18375000Y-10565000D02*
X18405000Y-10595000D01*
X18405000Y-10565000D02*
X18375000Y-10595000D01*
X18375000Y-11105000D02*
X18405000Y-11135000D01*
X18405000Y-11105000D02*
X18375000Y-11135000D01*
X18380000Y-9920000D02*
X18410000Y-9950000D01*
X18410000Y-9920000D02*
X18380000Y-9950000D01*
X18385000Y-9375000D02*
X18415000Y-9405000D01*
X18415000Y-9375000D02*
X18385000Y-9405000D01*
X18385000Y-9552000D02*
X18415000Y-9582000D01*
X18415000Y-9552000D02*
X18385000Y-9582000D01*
X18385000Y-9737000D02*
X18415000Y-9767000D01*
X18415000Y-9737000D02*
X18385000Y-9767000D01*
X15691940Y-9770140D02*
G75*
G02*
X15661940Y-9770140I-15000J0D01*
G01*
X15661940Y-9770140D02*
G75*
G02*
X15691940Y-9770140I15000J0D01*
G01*
X15691940Y-9848880D02*
G75*
G02*
X15661940Y-9848880I-15000J0D01*
G01*
X15661940Y-9848880D02*
G75*
G02*
X15691940Y-9848880I15000J0D01*
G01*
X15691940Y-9927620D02*
G75*
G02*
X15661940Y-9927620I-15000J0D01*
G01*
X15661940Y-9927620D02*
G75*
G02*
X15691940Y-9927620I15000J0D01*
G01*
X15770680Y-9770140D02*
G75*
G02*
X15740680Y-9770140I-15000J0D01*
G01*
X15740680Y-9770140D02*
G75*
G02*
X15770680Y-9770140I15000J0D01*
G01*
X15770680Y-9848880D02*
G75*
G02*
X15740680Y-9848880I-15000J0D01*
G01*
X15740680Y-9848880D02*
G75*
G02*
X15770680Y-9848880I15000J0D01*
G01*
X15770680Y-9927620D02*
G75*
G02*
X15740680Y-9927620I-15000J0D01*
G01*
X15740680Y-9927620D02*
G75*
G02*
X15770680Y-9927620I15000J0D01*
G01*
X15828560Y-8179580D02*
G75*
G02*
X15798560Y-8179580I-15000J0D01*
G01*
X15798560Y-8179580D02*
G75*
G02*
X15828560Y-8179580I15000J0D01*
G01*
X15828560Y-8249580D02*
G75*
G02*
X15798560Y-8249580I-15000J0D01*
G01*
X15798560Y-8249580D02*
G75*
G02*
X15828560Y-8249580I15000J0D01*
G01*
X15828560Y-8319580D02*
G75*
G02*
X15798560Y-8319580I-15000J0D01*
G01*
X15798560Y-8319580D02*
G75*
G02*
X15828560Y-8319580I15000J0D01*
G01*
X15849420Y-9770140D02*
G75*
G02*
X15819420Y-9770140I-15000J0D01*
G01*
X15819420Y-9770140D02*
G75*
G02*
X15849420Y-9770140I15000J0D01*
G01*
X15849420Y-9848880D02*
G75*
G02*
X15819420Y-9848880I-15000J0D01*
G01*
X15819420Y-9848880D02*
G75*
G02*
X15849420Y-9848880I15000J0D01*
G01*
X15849420Y-9927620D02*
G75*
G02*
X15819420Y-9927620I-15000J0D01*
G01*
X15819420Y-9927620D02*
G75*
G02*
X15849420Y-9927620I15000J0D01*
G01*
X15888560Y-8179580D02*
G75*
G02*
X15858560Y-8179580I-15000J0D01*
G01*
X15858560Y-8179580D02*
G75*
G02*
X15888560Y-8179580I15000J0D01*
G01*
X15888560Y-8249580D02*
G75*
G02*
X15858560Y-8249580I-15000J0D01*
G01*
X15858560Y-8249580D02*
G75*
G02*
X15888560Y-8249580I15000J0D01*
G01*
X15888560Y-8319580D02*
G75*
G02*
X15858560Y-8319580I-15000J0D01*
G01*
X15858560Y-8319580D02*
G75*
G02*
X15888560Y-8319580I15000J0D01*
G01*
X13710000Y-8105000D02*
X13710000Y-8145000D01*
X13690000Y-8125000D02*
X13730000Y-8125000D01*
X13710000Y-11605000D02*
X13710000Y-11645000D01*
X13690000Y-11625000D02*
X13730000Y-11625000D01*
X13758327Y-7988327D02*
X13758327Y-8028327D01*
X13738327Y-8008327D02*
X13778327Y-8008327D01*
X13758327Y-8221673D02*
X13758327Y-8261673D01*
X13738327Y-8241673D02*
X13778327Y-8241673D01*
X13758327Y-11488327D02*
X13758327Y-11528327D01*
X13738327Y-11508327D02*
X13778327Y-11508327D01*
X13758327Y-11721673D02*
X13758327Y-11761673D01*
X13738327Y-11741673D02*
X13778327Y-11741673D01*
X13875000Y-7940000D02*
X13875000Y-7980000D01*
X13855000Y-7960000D02*
X13895000Y-7960000D01*
X13875000Y-8270000D02*
X13875000Y-8310000D01*
X13855000Y-8290000D02*
X13895000Y-8290000D01*
X13875000Y-11440000D02*
X13875000Y-11480000D01*
X13855000Y-11460000D02*
X13895000Y-11460000D01*
X13875000Y-11770000D02*
X13875000Y-11810000D01*
X13855000Y-11790000D02*
X13895000Y-11790000D01*
X13991673Y-7988327D02*
X13991673Y-8028327D01*
X13971673Y-8008327D02*
X14011673Y-8008327D01*
X13991673Y-8221673D02*
X13991673Y-8261673D01*
X13971673Y-8241673D02*
X14011673Y-8241673D01*
X13991673Y-11488327D02*
X13991673Y-11528327D01*
X13971673Y-11508327D02*
X14011673Y-11508327D01*
X13991673Y-11721673D02*
X13991673Y-11761673D01*
X13971673Y-11741673D02*
X14011673Y-11741673D01*
X14040000Y-8105000D02*
X14040000Y-8145000D01*
X14020000Y-8125000D02*
X14060000Y-8125000D01*
X14040000Y-11605000D02*
X14040000Y-11645000D01*
X14020000Y-11625000D02*
X14060000Y-11625000D01*
X17960000Y-8105000D02*
X17960000Y-8145000D01*
X17940000Y-8125000D02*
X17980000Y-8125000D01*
X17960000Y-11605000D02*
X17960000Y-11645000D01*
X17940000Y-11625000D02*
X17980000Y-11625000D01*
X18008327Y-7988327D02*
X18008327Y-8028327D01*
X17988327Y-8008327D02*
X18028327Y-8008327D01*
X18008327Y-8221673D02*
X18008327Y-8261673D01*
X17988327Y-8241673D02*
X18028327Y-8241673D01*
X18008327Y-11488327D02*
X18008327Y-11528327D01*
X17988327Y-11508327D02*
X18028327Y-11508327D01*
X18008327Y-11721673D02*
X18008327Y-11761673D01*
X17988327Y-11741673D02*
X18028327Y-11741673D01*
X18125000Y-7940000D02*
X18125000Y-7980000D01*
X18105000Y-7960000D02*
X18145000Y-7960000D01*
X18125000Y-8270000D02*
X18125000Y-8310000D01*
X18105000Y-8290000D02*
X18145000Y-8290000D01*
X18125000Y-11440000D02*
X18125000Y-11480000D01*
X18105000Y-11460000D02*
X18145000Y-11460000D01*
X18125000Y-11770000D02*
X18125000Y-11810000D01*
X18105000Y-11790000D02*
X18145000Y-11790000D01*
X18241673Y-7988327D02*
X18241673Y-8028327D01*
X18221673Y-8008327D02*
X18261673Y-8008327D01*
X18241673Y-8221673D02*
X18241673Y-8261673D01*
X18221673Y-8241673D02*
X18261673Y-8241673D01*
X18241673Y-11488327D02*
X18241673Y-11528327D01*
X18221673Y-11508327D02*
X18261673Y-11508327D01*
X18241673Y-11721673D02*
X18241673Y-11761673D01*
X18221673Y-11741673D02*
X18261673Y-11741673D01*
X18290000Y-8105000D02*
X18290000Y-8145000D01*
X18270000Y-8125000D02*
X18310000Y-8125000D01*
X18290000Y-11605000D02*
X18290000Y-11645000D01*
X18270000Y-11625000D02*
X18310000Y-11625000D01*
X14425036Y-8300516D02*
X14425036Y-8229804D01*
X14354324Y-8229804D01*
X14354324Y-8300516D01*
X14425036Y-8300516D01*
X14679036Y-8300516D02*
X14679036Y-8229804D01*
X14608324Y-8229804D01*
X14608324Y-8300516D01*
X14679036Y-8300516D01*
X14704356Y-11711356D02*
X14704356Y-11640644D01*
X14633644Y-11640644D01*
X14633644Y-11711356D01*
X14704356Y-11711356D01*
X14958356Y-11711356D02*
X14958356Y-11640644D01*
X14887644Y-11640644D01*
X14887644Y-11711356D01*
X14958356Y-11711356D01*
X15212356Y-11711356D02*
X15212356Y-11640644D01*
X15141644Y-11640644D01*
X15141644Y-11711356D01*
X15212356Y-11711356D01*
X15466356Y-11711356D02*
X15466356Y-11640644D01*
X15395644Y-11640644D01*
X15395644Y-11711356D01*
X15466356Y-11711356D01*
X15720356Y-11711356D02*
X15720356Y-11640644D01*
X15649644Y-11640644D01*
X15649644Y-11711356D01*
X15720356Y-11711356D01*
X15974356Y-11711356D02*
X15974356Y-11640644D01*
X15903644Y-11640644D01*
X15903644Y-11711356D01*
X15974356Y-11711356D01*
D13*
X13875000Y-8235000D02*
X13985000Y-8125000D01*
X13875000Y-8015000D01*
X13765000Y-8125000D01*
X13875000Y-8235000D01*
X13875000Y-11735000D02*
X13985000Y-11625000D01*
X13875000Y-11515000D01*
X13765000Y-11625000D01*
X13875000Y-11735000D01*
X18125000Y-8235000D02*
X18235000Y-8125000D01*
X18125000Y-8015000D01*
X18015000Y-8125000D01*
X18125000Y-8235000D01*
X18125000Y-11735000D02*
X18235000Y-11625000D01*
X18125000Y-11515000D01*
X18015000Y-11625000D01*
X18125000Y-11735000D01*
D11*
X13758277Y-12313984D02*
X13758277Y-12113984D01*
X13758277Y-12113984D02*
X13805896Y-12113984D01*
X13805896Y-12113984D02*
X13834467Y-12123508D01*
X13834467Y-12123508D02*
X13853515Y-12142555D01*
X13853515Y-12142555D02*
X13863039Y-12161603D01*
X13863039Y-12161603D02*
X13872562Y-12199698D01*
X13872562Y-12199698D02*
X13872562Y-12228269D01*
X13872562Y-12228269D02*
X13863039Y-12266365D01*
X13863039Y-12266365D02*
X13853515Y-12285412D01*
X13853515Y-12285412D02*
X13834467Y-12304460D01*
X13834467Y-12304460D02*
X13805896Y-12313984D01*
X13805896Y-12313984D02*
X13758277Y-12313984D01*
X13958277Y-12313984D02*
X13958277Y-12180650D01*
X13958277Y-12218746D02*
X13967801Y-12199698D01*
X13967801Y-12199698D02*
X13977324Y-12190174D01*
X13977324Y-12190174D02*
X13996372Y-12180650D01*
X13996372Y-12180650D02*
X14015420Y-12180650D01*
X14082086Y-12313984D02*
X14082086Y-12180650D01*
X14082086Y-12113984D02*
X14072562Y-12123508D01*
X14072562Y-12123508D02*
X14082086Y-12133031D01*
X14082086Y-12133031D02*
X14091610Y-12123508D01*
X14091610Y-12123508D02*
X14082086Y-12113984D01*
X14082086Y-12113984D02*
X14082086Y-12133031D01*
X14205896Y-12313984D02*
X14186848Y-12304460D01*
X14186848Y-12304460D02*
X14177324Y-12285412D01*
X14177324Y-12285412D02*
X14177324Y-12113984D01*
X14310658Y-12313984D02*
X14291610Y-12304460D01*
X14291610Y-12304460D02*
X14282086Y-12285412D01*
X14282086Y-12285412D02*
X14282086Y-12113984D01*
X14539229Y-12313984D02*
X14539229Y-12113984D01*
X14539229Y-12113984D02*
X14605896Y-12256841D01*
X14605896Y-12256841D02*
X14672562Y-12113984D01*
X14672562Y-12113984D02*
X14672562Y-12313984D01*
X14853515Y-12313984D02*
X14853515Y-12209222D01*
X14853515Y-12209222D02*
X14843991Y-12190174D01*
X14843991Y-12190174D02*
X14824943Y-12180650D01*
X14824943Y-12180650D02*
X14786848Y-12180650D01*
X14786848Y-12180650D02*
X14767801Y-12190174D01*
X14853515Y-12304460D02*
X14834467Y-12313984D01*
X14834467Y-12313984D02*
X14786848Y-12313984D01*
X14786848Y-12313984D02*
X14767801Y-12304460D01*
X14767801Y-12304460D02*
X14758277Y-12285412D01*
X14758277Y-12285412D02*
X14758277Y-12266365D01*
X14758277Y-12266365D02*
X14767801Y-12247317D01*
X14767801Y-12247317D02*
X14786848Y-12237793D01*
X14786848Y-12237793D02*
X14834467Y-12237793D01*
X14834467Y-12237793D02*
X14853515Y-12228269D01*
X14948753Y-12180650D02*
X14948753Y-12380650D01*
X14948753Y-12190174D02*
X14967801Y-12180650D01*
X14967801Y-12180650D02*
X15005896Y-12180650D01*
X15005896Y-12180650D02*
X15024943Y-12190174D01*
X15024943Y-12190174D02*
X15034467Y-12199698D01*
X15034467Y-12199698D02*
X15043991Y-12218746D01*
X15043991Y-12218746D02*
X15043991Y-12275888D01*
X15043991Y-12275888D02*
X15034467Y-12294936D01*
X15034467Y-12294936D02*
X15024943Y-12304460D01*
X15024943Y-12304460D02*
X15005896Y-12313984D01*
X15005896Y-12313984D02*
X14967801Y-12313984D01*
X14967801Y-12313984D02*
X14948753Y-12304460D01*
X15129705Y-12294936D02*
X15139229Y-12304460D01*
X15139229Y-12304460D02*
X15129705Y-12313984D01*
X15129705Y-12313984D02*
X15120182Y-12304460D01*
X15120182Y-12304460D02*
X15129705Y-12294936D01*
X15129705Y-12294936D02*
X15129705Y-12313984D01*
X15129705Y-12190174D02*
X15139229Y-12199698D01*
X15139229Y-12199698D02*
X15129705Y-12209222D01*
X15129705Y-12209222D02*
X15120182Y-12199698D01*
X15120182Y-12199698D02*
X15129705Y-12190174D01*
X15129705Y-12190174D02*
X15129705Y-12209222D01*
D12*
X13467500Y-12627500D02*
X13497500Y-12657500D01*
X13497500Y-12627500D02*
X13467500Y-12657500D01*
D11*
X13796372Y-12533984D02*
X13815420Y-12533984D01*
X13815420Y-12533984D02*
X13834467Y-12543508D01*
X13834467Y-12543508D02*
X13843991Y-12553031D01*
X13843991Y-12553031D02*
X13853515Y-12572079D01*
X13853515Y-12572079D02*
X13863039Y-12610174D01*
X13863039Y-12610174D02*
X13863039Y-12657793D01*
X13863039Y-12657793D02*
X13853515Y-12695888D01*
X13853515Y-12695888D02*
X13843991Y-12714936D01*
X13843991Y-12714936D02*
X13834467Y-12724460D01*
X13834467Y-12724460D02*
X13815420Y-12733984D01*
X13815420Y-12733984D02*
X13796372Y-12733984D01*
X13796372Y-12733984D02*
X13777324Y-12724460D01*
X13777324Y-12724460D02*
X13767801Y-12714936D01*
X13767801Y-12714936D02*
X13758277Y-12695888D01*
X13758277Y-12695888D02*
X13748753Y-12657793D01*
X13748753Y-12657793D02*
X13748753Y-12610174D01*
X13748753Y-12610174D02*
X13758277Y-12572079D01*
X13758277Y-12572079D02*
X13767801Y-12553031D01*
X13767801Y-12553031D02*
X13777324Y-12543508D01*
X13777324Y-12543508D02*
X13796372Y-12533984D01*
X13948753Y-12714936D02*
X13958277Y-12724460D01*
X13958277Y-12724460D02*
X13948753Y-12733984D01*
X13948753Y-12733984D02*
X13939229Y-12724460D01*
X13939229Y-12724460D02*
X13948753Y-12714936D01*
X13948753Y-12714936D02*
X13948753Y-12733984D01*
X14024943Y-12533984D02*
X14148753Y-12533984D01*
X14148753Y-12533984D02*
X14082086Y-12610174D01*
X14082086Y-12610174D02*
X14110658Y-12610174D01*
X14110658Y-12610174D02*
X14129705Y-12619698D01*
X14129705Y-12619698D02*
X14139229Y-12629222D01*
X14139229Y-12629222D02*
X14148753Y-12648269D01*
X14148753Y-12648269D02*
X14148753Y-12695888D01*
X14148753Y-12695888D02*
X14139229Y-12714936D01*
X14139229Y-12714936D02*
X14129705Y-12724460D01*
X14129705Y-12724460D02*
X14110658Y-12733984D01*
X14110658Y-12733984D02*
X14053515Y-12733984D01*
X14053515Y-12733984D02*
X14034467Y-12724460D01*
X14034467Y-12724460D02*
X14024943Y-12714936D01*
X14272562Y-12533984D02*
X14291610Y-12533984D01*
X14291610Y-12533984D02*
X14310658Y-12543508D01*
X14310658Y-12543508D02*
X14320182Y-12553031D01*
X14320182Y-12553031D02*
X14329705Y-12572079D01*
X14329705Y-12572079D02*
X14339229Y-12610174D01*
X14339229Y-12610174D02*
X14339229Y-12657793D01*
X14339229Y-12657793D02*
X14329705Y-12695888D01*
X14329705Y-12695888D02*
X14320182Y-12714936D01*
X14320182Y-12714936D02*
X14310658Y-12724460D01*
X14310658Y-12724460D02*
X14291610Y-12733984D01*
X14291610Y-12733984D02*
X14272562Y-12733984D01*
X14272562Y-12733984D02*
X14253515Y-12724460D01*
X14253515Y-12724460D02*
X14243991Y-12714936D01*
X14243991Y-12714936D02*
X14234467Y-12695888D01*
X14234467Y-12695888D02*
X14224943Y-12657793D01*
X14224943Y-12657793D02*
X14224943Y-12610174D01*
X14224943Y-12610174D02*
X14234467Y-12572079D01*
X14234467Y-12572079D02*
X14243991Y-12553031D01*
X14243991Y-12553031D02*
X14253515Y-12543508D01*
X14253515Y-12543508D02*
X14272562Y-12533984D01*
X14463039Y-12533984D02*
X14482086Y-12533984D01*
X14482086Y-12533984D02*
X14501134Y-12543508D01*
X14501134Y-12543508D02*
X14510658Y-12553031D01*
X14510658Y-12553031D02*
X14520182Y-12572079D01*
X14520182Y-12572079D02*
X14529705Y-12610174D01*
X14529705Y-12610174D02*
X14529705Y-12657793D01*
X14529705Y-12657793D02*
X14520182Y-12695888D01*
X14520182Y-12695888D02*
X14510658Y-12714936D01*
X14510658Y-12714936D02*
X14501134Y-12724460D01*
X14501134Y-12724460D02*
X14482086Y-12733984D01*
X14482086Y-12733984D02*
X14463039Y-12733984D01*
X14463039Y-12733984D02*
X14443991Y-12724460D01*
X14443991Y-12724460D02*
X14434467Y-12714936D01*
X14434467Y-12714936D02*
X14424943Y-12695888D01*
X14424943Y-12695888D02*
X14415420Y-12657793D01*
X14415420Y-12657793D02*
X14415420Y-12610174D01*
X14415420Y-12610174D02*
X14424943Y-12572079D01*
X14424943Y-12572079D02*
X14434467Y-12553031D01*
X14434467Y-12553031D02*
X14443991Y-12543508D01*
X14443991Y-12543508D02*
X14463039Y-12533984D01*
X14615420Y-12733984D02*
X14615420Y-12600650D01*
X14615420Y-12619698D02*
X14624943Y-12610174D01*
X14624943Y-12610174D02*
X14643991Y-12600650D01*
X14643991Y-12600650D02*
X14672563Y-12600650D01*
X14672563Y-12600650D02*
X14691610Y-12610174D01*
X14691610Y-12610174D02*
X14701134Y-12629222D01*
X14701134Y-12629222D02*
X14701134Y-12733984D01*
X14701134Y-12629222D02*
X14710658Y-12610174D01*
X14710658Y-12610174D02*
X14729705Y-12600650D01*
X14729705Y-12600650D02*
X14758277Y-12600650D01*
X14758277Y-12600650D02*
X14777324Y-12610174D01*
X14777324Y-12610174D02*
X14786848Y-12629222D01*
X14786848Y-12629222D02*
X14786848Y-12733984D01*
X14882086Y-12733984D02*
X14882086Y-12600650D01*
X14882086Y-12619698D02*
X14891610Y-12610174D01*
X14891610Y-12610174D02*
X14910658Y-12600650D01*
X14910658Y-12600650D02*
X14939229Y-12600650D01*
X14939229Y-12600650D02*
X14958277Y-12610174D01*
X14958277Y-12610174D02*
X14967801Y-12629222D01*
X14967801Y-12629222D02*
X14967801Y-12733984D01*
X14967801Y-12629222D02*
X14977324Y-12610174D01*
X14977324Y-12610174D02*
X14996372Y-12600650D01*
X14996372Y-12600650D02*
X15024943Y-12600650D01*
X15024943Y-12600650D02*
X15043991Y-12610174D01*
X15043991Y-12610174D02*
X15053515Y-12629222D01*
X15053515Y-12629222D02*
X15053515Y-12733984D01*
X15443991Y-12524460D02*
X15272563Y-12781603D01*
X15701134Y-12533984D02*
X15720182Y-12533984D01*
X15720182Y-12533984D02*
X15739229Y-12543508D01*
X15739229Y-12543508D02*
X15748753Y-12553031D01*
X15748753Y-12553031D02*
X15758277Y-12572079D01*
X15758277Y-12572079D02*
X15767801Y-12610174D01*
X15767801Y-12610174D02*
X15767801Y-12657793D01*
X15767801Y-12657793D02*
X15758277Y-12695888D01*
X15758277Y-12695888D02*
X15748753Y-12714936D01*
X15748753Y-12714936D02*
X15739229Y-12724460D01*
X15739229Y-12724460D02*
X15720182Y-12733984D01*
X15720182Y-12733984D02*
X15701134Y-12733984D01*
X15701134Y-12733984D02*
X15682086Y-12724460D01*
X15682086Y-12724460D02*
X15672563Y-12714936D01*
X15672563Y-12714936D02*
X15663039Y-12695888D01*
X15663039Y-12695888D02*
X15653515Y-12657793D01*
X15653515Y-12657793D02*
X15653515Y-12610174D01*
X15653515Y-12610174D02*
X15663039Y-12572079D01*
X15663039Y-12572079D02*
X15672563Y-12553031D01*
X15672563Y-12553031D02*
X15682086Y-12543508D01*
X15682086Y-12543508D02*
X15701134Y-12533984D01*
X15853515Y-12714936D02*
X15863039Y-12724460D01*
X15863039Y-12724460D02*
X15853515Y-12733984D01*
X15853515Y-12733984D02*
X15843991Y-12724460D01*
X15843991Y-12724460D02*
X15853515Y-12714936D01*
X15853515Y-12714936D02*
X15853515Y-12733984D01*
X15986848Y-12533984D02*
X16005896Y-12533984D01*
X16005896Y-12533984D02*
X16024944Y-12543508D01*
X16024944Y-12543508D02*
X16034467Y-12553031D01*
X16034467Y-12553031D02*
X16043991Y-12572079D01*
X16043991Y-12572079D02*
X16053515Y-12610174D01*
X16053515Y-12610174D02*
X16053515Y-12657793D01*
X16053515Y-12657793D02*
X16043991Y-12695888D01*
X16043991Y-12695888D02*
X16034467Y-12714936D01*
X16034467Y-12714936D02*
X16024944Y-12724460D01*
X16024944Y-12724460D02*
X16005896Y-12733984D01*
X16005896Y-12733984D02*
X15986848Y-12733984D01*
X15986848Y-12733984D02*
X15967801Y-12724460D01*
X15967801Y-12724460D02*
X15958277Y-12714936D01*
X15958277Y-12714936D02*
X15948753Y-12695888D01*
X15948753Y-12695888D02*
X15939229Y-12657793D01*
X15939229Y-12657793D02*
X15939229Y-12610174D01*
X15939229Y-12610174D02*
X15948753Y-12572079D01*
X15948753Y-12572079D02*
X15958277Y-12553031D01*
X15958277Y-12553031D02*
X15967801Y-12543508D01*
X15967801Y-12543508D02*
X15986848Y-12533984D01*
X16243991Y-12733984D02*
X16129706Y-12733984D01*
X16186848Y-12733984D02*
X16186848Y-12533984D01*
X16186848Y-12533984D02*
X16167801Y-12562555D01*
X16167801Y-12562555D02*
X16148753Y-12581603D01*
X16148753Y-12581603D02*
X16129706Y-12591127D01*
X16434467Y-12733984D02*
X16320182Y-12733984D01*
X16377325Y-12733984D02*
X16377325Y-12533984D01*
X16377325Y-12533984D02*
X16358277Y-12562555D01*
X16358277Y-12562555D02*
X16339229Y-12581603D01*
X16339229Y-12581603D02*
X16320182Y-12591127D01*
X16548753Y-12619698D02*
X16529706Y-12610174D01*
X16529706Y-12610174D02*
X16520182Y-12600650D01*
X16520182Y-12600650D02*
X16510658Y-12581603D01*
X16510658Y-12581603D02*
X16510658Y-12572079D01*
X16510658Y-12572079D02*
X16520182Y-12553031D01*
X16520182Y-12553031D02*
X16529706Y-12543508D01*
X16529706Y-12543508D02*
X16548753Y-12533984D01*
X16548753Y-12533984D02*
X16586848Y-12533984D01*
X16586848Y-12533984D02*
X16605896Y-12543508D01*
X16605896Y-12543508D02*
X16615420Y-12553031D01*
X16615420Y-12553031D02*
X16624944Y-12572079D01*
X16624944Y-12572079D02*
X16624944Y-12581603D01*
X16624944Y-12581603D02*
X16615420Y-12600650D01*
X16615420Y-12600650D02*
X16605896Y-12610174D01*
X16605896Y-12610174D02*
X16586848Y-12619698D01*
X16586848Y-12619698D02*
X16548753Y-12619698D01*
X16548753Y-12619698D02*
X16529706Y-12629222D01*
X16529706Y-12629222D02*
X16520182Y-12638746D01*
X16520182Y-12638746D02*
X16510658Y-12657793D01*
X16510658Y-12657793D02*
X16510658Y-12695888D01*
X16510658Y-12695888D02*
X16520182Y-12714936D01*
X16520182Y-12714936D02*
X16529706Y-12724460D01*
X16529706Y-12724460D02*
X16548753Y-12733984D01*
X16548753Y-12733984D02*
X16586848Y-12733984D01*
X16586848Y-12733984D02*
X16605896Y-12724460D01*
X16605896Y-12724460D02*
X16615420Y-12714936D01*
X16615420Y-12714936D02*
X16624944Y-12695888D01*
X16624944Y-12695888D02*
X16624944Y-12657793D01*
X16624944Y-12657793D02*
X16615420Y-12638746D01*
X16615420Y-12638746D02*
X16605896Y-12629222D01*
X16605896Y-12629222D02*
X16586848Y-12619698D01*
X16701134Y-12533984D02*
X16701134Y-12572079D01*
X16777325Y-12533984D02*
X16777325Y-12572079D01*
X17072563Y-12810174D02*
X17063039Y-12800650D01*
X17063039Y-12800650D02*
X17043991Y-12772079D01*
X17043991Y-12772079D02*
X17034468Y-12753031D01*
X17034468Y-12753031D02*
X17024944Y-12724460D01*
X17024944Y-12724460D02*
X17015420Y-12676841D01*
X17015420Y-12676841D02*
X17015420Y-12638746D01*
X17015420Y-12638746D02*
X17024944Y-12591127D01*
X17024944Y-12591127D02*
X17034468Y-12562555D01*
X17034468Y-12562555D02*
X17043991Y-12543508D01*
X17043991Y-12543508D02*
X17063039Y-12514936D01*
X17063039Y-12514936D02*
X17072563Y-12505412D01*
X17139230Y-12553031D02*
X17148753Y-12543508D01*
X17148753Y-12543508D02*
X17167801Y-12533984D01*
X17167801Y-12533984D02*
X17215420Y-12533984D01*
X17215420Y-12533984D02*
X17234468Y-12543508D01*
X17234468Y-12543508D02*
X17243991Y-12553031D01*
X17243991Y-12553031D02*
X17253515Y-12572079D01*
X17253515Y-12572079D02*
X17253515Y-12591127D01*
X17253515Y-12591127D02*
X17243991Y-12619698D01*
X17243991Y-12619698D02*
X17129706Y-12733984D01*
X17129706Y-12733984D02*
X17253515Y-12733984D01*
X17424944Y-12533984D02*
X17386849Y-12533984D01*
X17386849Y-12533984D02*
X17367801Y-12543508D01*
X17367801Y-12543508D02*
X17358277Y-12553031D01*
X17358277Y-12553031D02*
X17339230Y-12581603D01*
X17339230Y-12581603D02*
X17329706Y-12619698D01*
X17329706Y-12619698D02*
X17329706Y-12695888D01*
X17329706Y-12695888D02*
X17339230Y-12714936D01*
X17339230Y-12714936D02*
X17348753Y-12724460D01*
X17348753Y-12724460D02*
X17367801Y-12733984D01*
X17367801Y-12733984D02*
X17405896Y-12733984D01*
X17405896Y-12733984D02*
X17424944Y-12724460D01*
X17424944Y-12724460D02*
X17434468Y-12714936D01*
X17434468Y-12714936D02*
X17443991Y-12695888D01*
X17443991Y-12695888D02*
X17443991Y-12648269D01*
X17443991Y-12648269D02*
X17434468Y-12629222D01*
X17434468Y-12629222D02*
X17424944Y-12619698D01*
X17424944Y-12619698D02*
X17405896Y-12610174D01*
X17405896Y-12610174D02*
X17367801Y-12610174D01*
X17367801Y-12610174D02*
X17348753Y-12619698D01*
X17348753Y-12619698D02*
X17339230Y-12629222D01*
X17339230Y-12629222D02*
X17329706Y-12648269D01*
X17510658Y-12533984D02*
X17643991Y-12533984D01*
X17643991Y-12533984D02*
X17558277Y-12733984D01*
X17872563Y-12733984D02*
X17872563Y-12533984D01*
X17958277Y-12733984D02*
X17958277Y-12629222D01*
X17958277Y-12629222D02*
X17948753Y-12610174D01*
X17948753Y-12610174D02*
X17929706Y-12600650D01*
X17929706Y-12600650D02*
X17901134Y-12600650D01*
X17901134Y-12600650D02*
X17882087Y-12610174D01*
X17882087Y-12610174D02*
X17872563Y-12619698D01*
X18082087Y-12733984D02*
X18063039Y-12724460D01*
X18063039Y-12724460D02*
X18053515Y-12714936D01*
X18053515Y-12714936D02*
X18043992Y-12695888D01*
X18043992Y-12695888D02*
X18043992Y-12638746D01*
X18043992Y-12638746D02*
X18053515Y-12619698D01*
X18053515Y-12619698D02*
X18063039Y-12610174D01*
X18063039Y-12610174D02*
X18082087Y-12600650D01*
X18082087Y-12600650D02*
X18110658Y-12600650D01*
X18110658Y-12600650D02*
X18129706Y-12610174D01*
X18129706Y-12610174D02*
X18139230Y-12619698D01*
X18139230Y-12619698D02*
X18148753Y-12638746D01*
X18148753Y-12638746D02*
X18148753Y-12695888D01*
X18148753Y-12695888D02*
X18139230Y-12714936D01*
X18139230Y-12714936D02*
X18129706Y-12724460D01*
X18129706Y-12724460D02*
X18110658Y-12733984D01*
X18110658Y-12733984D02*
X18082087Y-12733984D01*
X18263039Y-12733984D02*
X18243992Y-12724460D01*
X18243992Y-12724460D02*
X18234468Y-12705412D01*
X18234468Y-12705412D02*
X18234468Y-12533984D01*
X18415420Y-12724460D02*
X18396373Y-12733984D01*
X18396373Y-12733984D02*
X18358277Y-12733984D01*
X18358277Y-12733984D02*
X18339230Y-12724460D01*
X18339230Y-12724460D02*
X18329706Y-12705412D01*
X18329706Y-12705412D02*
X18329706Y-12629222D01*
X18329706Y-12629222D02*
X18339230Y-12610174D01*
X18339230Y-12610174D02*
X18358277Y-12600650D01*
X18358277Y-12600650D02*
X18396373Y-12600650D01*
X18396373Y-12600650D02*
X18415420Y-12610174D01*
X18415420Y-12610174D02*
X18424944Y-12629222D01*
X18424944Y-12629222D02*
X18424944Y-12648269D01*
X18424944Y-12648269D02*
X18329706Y-12667317D01*
X18501134Y-12724460D02*
X18520182Y-12733984D01*
X18520182Y-12733984D02*
X18558277Y-12733984D01*
X18558277Y-12733984D02*
X18577325Y-12724460D01*
X18577325Y-12724460D02*
X18586849Y-12705412D01*
X18586849Y-12705412D02*
X18586849Y-12695888D01*
X18586849Y-12695888D02*
X18577325Y-12676841D01*
X18577325Y-12676841D02*
X18558277Y-12667317D01*
X18558277Y-12667317D02*
X18529706Y-12667317D01*
X18529706Y-12667317D02*
X18510658Y-12657793D01*
X18510658Y-12657793D02*
X18501134Y-12638746D01*
X18501134Y-12638746D02*
X18501134Y-12629222D01*
X18501134Y-12629222D02*
X18510658Y-12610174D01*
X18510658Y-12610174D02*
X18529706Y-12600650D01*
X18529706Y-12600650D02*
X18558277Y-12600650D01*
X18558277Y-12600650D02*
X18577325Y-12610174D01*
X18653515Y-12810174D02*
X18663039Y-12800650D01*
X18663039Y-12800650D02*
X18682087Y-12772079D01*
X18682087Y-12772079D02*
X18691611Y-12753031D01*
X18691611Y-12753031D02*
X18701134Y-12724460D01*
X18701134Y-12724460D02*
X18710658Y-12676841D01*
X18710658Y-12676841D02*
X18710658Y-12638746D01*
X18710658Y-12638746D02*
X18701134Y-12591127D01*
X18701134Y-12591127D02*
X18691611Y-12562555D01*
X18691611Y-12562555D02*
X18682087Y-12543508D01*
X18682087Y-12543508D02*
X18663039Y-12514936D01*
X18663039Y-12514936D02*
X18653515Y-12505412D01*
D12*
X13497500Y-12906500D02*
G75*
G02*
X13467500Y-12906500I-15000J0D01*
G01*
X13467500Y-12906500D02*
G75*
G02*
X13497500Y-12906500I15000J0D01*
G01*
D11*
X13796372Y-12797984D02*
X13815420Y-12797984D01*
X13815420Y-12797984D02*
X13834467Y-12807508D01*
X13834467Y-12807508D02*
X13843991Y-12817031D01*
X13843991Y-12817031D02*
X13853515Y-12836079D01*
X13853515Y-12836079D02*
X13863039Y-12874174D01*
X13863039Y-12874174D02*
X13863039Y-12921793D01*
X13863039Y-12921793D02*
X13853515Y-12959888D01*
X13853515Y-12959888D02*
X13843991Y-12978936D01*
X13843991Y-12978936D02*
X13834467Y-12988460D01*
X13834467Y-12988460D02*
X13815420Y-12997984D01*
X13815420Y-12997984D02*
X13796372Y-12997984D01*
X13796372Y-12997984D02*
X13777324Y-12988460D01*
X13777324Y-12988460D02*
X13767801Y-12978936D01*
X13767801Y-12978936D02*
X13758277Y-12959888D01*
X13758277Y-12959888D02*
X13748753Y-12921793D01*
X13748753Y-12921793D02*
X13748753Y-12874174D01*
X13748753Y-12874174D02*
X13758277Y-12836079D01*
X13758277Y-12836079D02*
X13767801Y-12817031D01*
X13767801Y-12817031D02*
X13777324Y-12807508D01*
X13777324Y-12807508D02*
X13796372Y-12797984D01*
X13948753Y-12978936D02*
X13958277Y-12988460D01*
X13958277Y-12988460D02*
X13948753Y-12997984D01*
X13948753Y-12997984D02*
X13939229Y-12988460D01*
X13939229Y-12988460D02*
X13948753Y-12978936D01*
X13948753Y-12978936D02*
X13948753Y-12997984D01*
X14024943Y-12797984D02*
X14148753Y-12797984D01*
X14148753Y-12797984D02*
X14082086Y-12874174D01*
X14082086Y-12874174D02*
X14110658Y-12874174D01*
X14110658Y-12874174D02*
X14129705Y-12883698D01*
X14129705Y-12883698D02*
X14139229Y-12893222D01*
X14139229Y-12893222D02*
X14148753Y-12912269D01*
X14148753Y-12912269D02*
X14148753Y-12959888D01*
X14148753Y-12959888D02*
X14139229Y-12978936D01*
X14139229Y-12978936D02*
X14129705Y-12988460D01*
X14129705Y-12988460D02*
X14110658Y-12997984D01*
X14110658Y-12997984D02*
X14053515Y-12997984D01*
X14053515Y-12997984D02*
X14034467Y-12988460D01*
X14034467Y-12988460D02*
X14024943Y-12978936D01*
X14272562Y-12797984D02*
X14291610Y-12797984D01*
X14291610Y-12797984D02*
X14310658Y-12807508D01*
X14310658Y-12807508D02*
X14320182Y-12817031D01*
X14320182Y-12817031D02*
X14329705Y-12836079D01*
X14329705Y-12836079D02*
X14339229Y-12874174D01*
X14339229Y-12874174D02*
X14339229Y-12921793D01*
X14339229Y-12921793D02*
X14329705Y-12959888D01*
X14329705Y-12959888D02*
X14320182Y-12978936D01*
X14320182Y-12978936D02*
X14310658Y-12988460D01*
X14310658Y-12988460D02*
X14291610Y-12997984D01*
X14291610Y-12997984D02*
X14272562Y-12997984D01*
X14272562Y-12997984D02*
X14253515Y-12988460D01*
X14253515Y-12988460D02*
X14243991Y-12978936D01*
X14243991Y-12978936D02*
X14234467Y-12959888D01*
X14234467Y-12959888D02*
X14224943Y-12921793D01*
X14224943Y-12921793D02*
X14224943Y-12874174D01*
X14224943Y-12874174D02*
X14234467Y-12836079D01*
X14234467Y-12836079D02*
X14243991Y-12817031D01*
X14243991Y-12817031D02*
X14253515Y-12807508D01*
X14253515Y-12807508D02*
X14272562Y-12797984D01*
X14463039Y-12797984D02*
X14482086Y-12797984D01*
X14482086Y-12797984D02*
X14501134Y-12807508D01*
X14501134Y-12807508D02*
X14510658Y-12817031D01*
X14510658Y-12817031D02*
X14520182Y-12836079D01*
X14520182Y-12836079D02*
X14529705Y-12874174D01*
X14529705Y-12874174D02*
X14529705Y-12921793D01*
X14529705Y-12921793D02*
X14520182Y-12959888D01*
X14520182Y-12959888D02*
X14510658Y-12978936D01*
X14510658Y-12978936D02*
X14501134Y-12988460D01*
X14501134Y-12988460D02*
X14482086Y-12997984D01*
X14482086Y-12997984D02*
X14463039Y-12997984D01*
X14463039Y-12997984D02*
X14443991Y-12988460D01*
X14443991Y-12988460D02*
X14434467Y-12978936D01*
X14434467Y-12978936D02*
X14424943Y-12959888D01*
X14424943Y-12959888D02*
X14415420Y-12921793D01*
X14415420Y-12921793D02*
X14415420Y-12874174D01*
X14415420Y-12874174D02*
X14424943Y-12836079D01*
X14424943Y-12836079D02*
X14434467Y-12817031D01*
X14434467Y-12817031D02*
X14443991Y-12807508D01*
X14443991Y-12807508D02*
X14463039Y-12797984D01*
X14615420Y-12997984D02*
X14615420Y-12864650D01*
X14615420Y-12883698D02*
X14624943Y-12874174D01*
X14624943Y-12874174D02*
X14643991Y-12864650D01*
X14643991Y-12864650D02*
X14672563Y-12864650D01*
X14672563Y-12864650D02*
X14691610Y-12874174D01*
X14691610Y-12874174D02*
X14701134Y-12893222D01*
X14701134Y-12893222D02*
X14701134Y-12997984D01*
X14701134Y-12893222D02*
X14710658Y-12874174D01*
X14710658Y-12874174D02*
X14729705Y-12864650D01*
X14729705Y-12864650D02*
X14758277Y-12864650D01*
X14758277Y-12864650D02*
X14777324Y-12874174D01*
X14777324Y-12874174D02*
X14786848Y-12893222D01*
X14786848Y-12893222D02*
X14786848Y-12997984D01*
X14882086Y-12997984D02*
X14882086Y-12864650D01*
X14882086Y-12883698D02*
X14891610Y-12874174D01*
X14891610Y-12874174D02*
X14910658Y-12864650D01*
X14910658Y-12864650D02*
X14939229Y-12864650D01*
X14939229Y-12864650D02*
X14958277Y-12874174D01*
X14958277Y-12874174D02*
X14967801Y-12893222D01*
X14967801Y-12893222D02*
X14967801Y-12997984D01*
X14967801Y-12893222D02*
X14977324Y-12874174D01*
X14977324Y-12874174D02*
X14996372Y-12864650D01*
X14996372Y-12864650D02*
X15024943Y-12864650D01*
X15024943Y-12864650D02*
X15043991Y-12874174D01*
X15043991Y-12874174D02*
X15053515Y-12893222D01*
X15053515Y-12893222D02*
X15053515Y-12997984D01*
X15443991Y-12788460D02*
X15272563Y-13045603D01*
X15701134Y-12797984D02*
X15720182Y-12797984D01*
X15720182Y-12797984D02*
X15739229Y-12807508D01*
X15739229Y-12807508D02*
X15748753Y-12817031D01*
X15748753Y-12817031D02*
X15758277Y-12836079D01*
X15758277Y-12836079D02*
X15767801Y-12874174D01*
X15767801Y-12874174D02*
X15767801Y-12921793D01*
X15767801Y-12921793D02*
X15758277Y-12959888D01*
X15758277Y-12959888D02*
X15748753Y-12978936D01*
X15748753Y-12978936D02*
X15739229Y-12988460D01*
X15739229Y-12988460D02*
X15720182Y-12997984D01*
X15720182Y-12997984D02*
X15701134Y-12997984D01*
X15701134Y-12997984D02*
X15682086Y-12988460D01*
X15682086Y-12988460D02*
X15672563Y-12978936D01*
X15672563Y-12978936D02*
X15663039Y-12959888D01*
X15663039Y-12959888D02*
X15653515Y-12921793D01*
X15653515Y-12921793D02*
X15653515Y-12874174D01*
X15653515Y-12874174D02*
X15663039Y-12836079D01*
X15663039Y-12836079D02*
X15672563Y-12817031D01*
X15672563Y-12817031D02*
X15682086Y-12807508D01*
X15682086Y-12807508D02*
X15701134Y-12797984D01*
X15853515Y-12978936D02*
X15863039Y-12988460D01*
X15863039Y-12988460D02*
X15853515Y-12997984D01*
X15853515Y-12997984D02*
X15843991Y-12988460D01*
X15843991Y-12988460D02*
X15853515Y-12978936D01*
X15853515Y-12978936D02*
X15853515Y-12997984D01*
X15986848Y-12797984D02*
X16005896Y-12797984D01*
X16005896Y-12797984D02*
X16024944Y-12807508D01*
X16024944Y-12807508D02*
X16034467Y-12817031D01*
X16034467Y-12817031D02*
X16043991Y-12836079D01*
X16043991Y-12836079D02*
X16053515Y-12874174D01*
X16053515Y-12874174D02*
X16053515Y-12921793D01*
X16053515Y-12921793D02*
X16043991Y-12959888D01*
X16043991Y-12959888D02*
X16034467Y-12978936D01*
X16034467Y-12978936D02*
X16024944Y-12988460D01*
X16024944Y-12988460D02*
X16005896Y-12997984D01*
X16005896Y-12997984D02*
X15986848Y-12997984D01*
X15986848Y-12997984D02*
X15967801Y-12988460D01*
X15967801Y-12988460D02*
X15958277Y-12978936D01*
X15958277Y-12978936D02*
X15948753Y-12959888D01*
X15948753Y-12959888D02*
X15939229Y-12921793D01*
X15939229Y-12921793D02*
X15939229Y-12874174D01*
X15939229Y-12874174D02*
X15948753Y-12836079D01*
X15948753Y-12836079D02*
X15958277Y-12817031D01*
X15958277Y-12817031D02*
X15967801Y-12807508D01*
X15967801Y-12807508D02*
X15986848Y-12797984D01*
X16243991Y-12997984D02*
X16129706Y-12997984D01*
X16186848Y-12997984D02*
X16186848Y-12797984D01*
X16186848Y-12797984D02*
X16167801Y-12826555D01*
X16167801Y-12826555D02*
X16148753Y-12845603D01*
X16148753Y-12845603D02*
X16129706Y-12855127D01*
X16434467Y-12997984D02*
X16320182Y-12997984D01*
X16377325Y-12997984D02*
X16377325Y-12797984D01*
X16377325Y-12797984D02*
X16358277Y-12826555D01*
X16358277Y-12826555D02*
X16339229Y-12845603D01*
X16339229Y-12845603D02*
X16320182Y-12855127D01*
X16548753Y-12883698D02*
X16529706Y-12874174D01*
X16529706Y-12874174D02*
X16520182Y-12864650D01*
X16520182Y-12864650D02*
X16510658Y-12845603D01*
X16510658Y-12845603D02*
X16510658Y-12836079D01*
X16510658Y-12836079D02*
X16520182Y-12817031D01*
X16520182Y-12817031D02*
X16529706Y-12807508D01*
X16529706Y-12807508D02*
X16548753Y-12797984D01*
X16548753Y-12797984D02*
X16586848Y-12797984D01*
X16586848Y-12797984D02*
X16605896Y-12807508D01*
X16605896Y-12807508D02*
X16615420Y-12817031D01*
X16615420Y-12817031D02*
X16624944Y-12836079D01*
X16624944Y-12836079D02*
X16624944Y-12845603D01*
X16624944Y-12845603D02*
X16615420Y-12864650D01*
X16615420Y-12864650D02*
X16605896Y-12874174D01*
X16605896Y-12874174D02*
X16586848Y-12883698D01*
X16586848Y-12883698D02*
X16548753Y-12883698D01*
X16548753Y-12883698D02*
X16529706Y-12893222D01*
X16529706Y-12893222D02*
X16520182Y-12902746D01*
X16520182Y-12902746D02*
X16510658Y-12921793D01*
X16510658Y-12921793D02*
X16510658Y-12959888D01*
X16510658Y-12959888D02*
X16520182Y-12978936D01*
X16520182Y-12978936D02*
X16529706Y-12988460D01*
X16529706Y-12988460D02*
X16548753Y-12997984D01*
X16548753Y-12997984D02*
X16586848Y-12997984D01*
X16586848Y-12997984D02*
X16605896Y-12988460D01*
X16605896Y-12988460D02*
X16615420Y-12978936D01*
X16615420Y-12978936D02*
X16624944Y-12959888D01*
X16624944Y-12959888D02*
X16624944Y-12921793D01*
X16624944Y-12921793D02*
X16615420Y-12902746D01*
X16615420Y-12902746D02*
X16605896Y-12893222D01*
X16605896Y-12893222D02*
X16586848Y-12883698D01*
X16701134Y-12797984D02*
X16701134Y-12836079D01*
X16777325Y-12797984D02*
X16777325Y-12836079D01*
X17072563Y-13074174D02*
X17063039Y-13064650D01*
X17063039Y-13064650D02*
X17043991Y-13036079D01*
X17043991Y-13036079D02*
X17034468Y-13017031D01*
X17034468Y-13017031D02*
X17024944Y-12988460D01*
X17024944Y-12988460D02*
X17015420Y-12940841D01*
X17015420Y-12940841D02*
X17015420Y-12902746D01*
X17015420Y-12902746D02*
X17024944Y-12855127D01*
X17024944Y-12855127D02*
X17034468Y-12826555D01*
X17034468Y-12826555D02*
X17043991Y-12807508D01*
X17043991Y-12807508D02*
X17063039Y-12778936D01*
X17063039Y-12778936D02*
X17072563Y-12769412D01*
X17253515Y-12997984D02*
X17139230Y-12997984D01*
X17196372Y-12997984D02*
X17196372Y-12797984D01*
X17196372Y-12797984D02*
X17177325Y-12826555D01*
X17177325Y-12826555D02*
X17158277Y-12845603D01*
X17158277Y-12845603D02*
X17139230Y-12855127D01*
X17434468Y-12797984D02*
X17339230Y-12797984D01*
X17339230Y-12797984D02*
X17329706Y-12893222D01*
X17329706Y-12893222D02*
X17339230Y-12883698D01*
X17339230Y-12883698D02*
X17358277Y-12874174D01*
X17358277Y-12874174D02*
X17405896Y-12874174D01*
X17405896Y-12874174D02*
X17424944Y-12883698D01*
X17424944Y-12883698D02*
X17434468Y-12893222D01*
X17434468Y-12893222D02*
X17443991Y-12912269D01*
X17443991Y-12912269D02*
X17443991Y-12959888D01*
X17443991Y-12959888D02*
X17434468Y-12978936D01*
X17434468Y-12978936D02*
X17424944Y-12988460D01*
X17424944Y-12988460D02*
X17405896Y-12997984D01*
X17405896Y-12997984D02*
X17358277Y-12997984D01*
X17358277Y-12997984D02*
X17339230Y-12988460D01*
X17339230Y-12988460D02*
X17329706Y-12978936D01*
X17682087Y-12997984D02*
X17682087Y-12797984D01*
X17767801Y-12997984D02*
X17767801Y-12893222D01*
X17767801Y-12893222D02*
X17758277Y-12874174D01*
X17758277Y-12874174D02*
X17739230Y-12864650D01*
X17739230Y-12864650D02*
X17710658Y-12864650D01*
X17710658Y-12864650D02*
X17691611Y-12874174D01*
X17691611Y-12874174D02*
X17682087Y-12883698D01*
X17891611Y-12997984D02*
X17872563Y-12988460D01*
X17872563Y-12988460D02*
X17863039Y-12978936D01*
X17863039Y-12978936D02*
X17853515Y-12959888D01*
X17853515Y-12959888D02*
X17853515Y-12902746D01*
X17853515Y-12902746D02*
X17863039Y-12883698D01*
X17863039Y-12883698D02*
X17872563Y-12874174D01*
X17872563Y-12874174D02*
X17891611Y-12864650D01*
X17891611Y-12864650D02*
X17920182Y-12864650D01*
X17920182Y-12864650D02*
X17939230Y-12874174D01*
X17939230Y-12874174D02*
X17948753Y-12883698D01*
X17948753Y-12883698D02*
X17958277Y-12902746D01*
X17958277Y-12902746D02*
X17958277Y-12959888D01*
X17958277Y-12959888D02*
X17948753Y-12978936D01*
X17948753Y-12978936D02*
X17939230Y-12988460D01*
X17939230Y-12988460D02*
X17920182Y-12997984D01*
X17920182Y-12997984D02*
X17891611Y-12997984D01*
X18072563Y-12997984D02*
X18053515Y-12988460D01*
X18053515Y-12988460D02*
X18043992Y-12969412D01*
X18043992Y-12969412D02*
X18043992Y-12797984D01*
X18224944Y-12988460D02*
X18205896Y-12997984D01*
X18205896Y-12997984D02*
X18167801Y-12997984D01*
X18167801Y-12997984D02*
X18148753Y-12988460D01*
X18148753Y-12988460D02*
X18139230Y-12969412D01*
X18139230Y-12969412D02*
X18139230Y-12893222D01*
X18139230Y-12893222D02*
X18148753Y-12874174D01*
X18148753Y-12874174D02*
X18167801Y-12864650D01*
X18167801Y-12864650D02*
X18205896Y-12864650D01*
X18205896Y-12864650D02*
X18224944Y-12874174D01*
X18224944Y-12874174D02*
X18234468Y-12893222D01*
X18234468Y-12893222D02*
X18234468Y-12912269D01*
X18234468Y-12912269D02*
X18139230Y-12931317D01*
X18310658Y-12988460D02*
X18329706Y-12997984D01*
X18329706Y-12997984D02*
X18367801Y-12997984D01*
X18367801Y-12997984D02*
X18386849Y-12988460D01*
X18386849Y-12988460D02*
X18396373Y-12969412D01*
X18396373Y-12969412D02*
X18396373Y-12959888D01*
X18396373Y-12959888D02*
X18386849Y-12940841D01*
X18386849Y-12940841D02*
X18367801Y-12931317D01*
X18367801Y-12931317D02*
X18339230Y-12931317D01*
X18339230Y-12931317D02*
X18320182Y-12921793D01*
X18320182Y-12921793D02*
X18310658Y-12902746D01*
X18310658Y-12902746D02*
X18310658Y-12893222D01*
X18310658Y-12893222D02*
X18320182Y-12874174D01*
X18320182Y-12874174D02*
X18339230Y-12864650D01*
X18339230Y-12864650D02*
X18367801Y-12864650D01*
X18367801Y-12864650D02*
X18386849Y-12874174D01*
X18463039Y-13074174D02*
X18472563Y-13064650D01*
X18472563Y-13064650D02*
X18491611Y-13036079D01*
X18491611Y-13036079D02*
X18501134Y-13017031D01*
X18501134Y-13017031D02*
X18510658Y-12988460D01*
X18510658Y-12988460D02*
X18520182Y-12940841D01*
X18520182Y-12940841D02*
X18520182Y-12902746D01*
X18520182Y-12902746D02*
X18510658Y-12855127D01*
X18510658Y-12855127D02*
X18501134Y-12826555D01*
X18501134Y-12826555D02*
X18491611Y-12807508D01*
X18491611Y-12807508D02*
X18472563Y-12778936D01*
X18472563Y-12778936D02*
X18463039Y-12769412D01*
D12*
X13477500Y-13150500D02*
X13477500Y-13190500D01*
X13457500Y-13170500D02*
X13497500Y-13170500D01*
D11*
X13796372Y-13061984D02*
X13815420Y-13061984D01*
X13815420Y-13061984D02*
X13834467Y-13071508D01*
X13834467Y-13071508D02*
X13843991Y-13081031D01*
X13843991Y-13081031D02*
X13853515Y-13100079D01*
X13853515Y-13100079D02*
X13863039Y-13138174D01*
X13863039Y-13138174D02*
X13863039Y-13185793D01*
X13863039Y-13185793D02*
X13853515Y-13223888D01*
X13853515Y-13223888D02*
X13843991Y-13242936D01*
X13843991Y-13242936D02*
X13834467Y-13252460D01*
X13834467Y-13252460D02*
X13815420Y-13261984D01*
X13815420Y-13261984D02*
X13796372Y-13261984D01*
X13796372Y-13261984D02*
X13777324Y-13252460D01*
X13777324Y-13252460D02*
X13767801Y-13242936D01*
X13767801Y-13242936D02*
X13758277Y-13223888D01*
X13758277Y-13223888D02*
X13748753Y-13185793D01*
X13748753Y-13185793D02*
X13748753Y-13138174D01*
X13748753Y-13138174D02*
X13758277Y-13100079D01*
X13758277Y-13100079D02*
X13767801Y-13081031D01*
X13767801Y-13081031D02*
X13777324Y-13071508D01*
X13777324Y-13071508D02*
X13796372Y-13061984D01*
X13948753Y-13242936D02*
X13958277Y-13252460D01*
X13958277Y-13252460D02*
X13948753Y-13261984D01*
X13948753Y-13261984D02*
X13939229Y-13252460D01*
X13939229Y-13252460D02*
X13948753Y-13242936D01*
X13948753Y-13242936D02*
X13948753Y-13261984D01*
X14129705Y-13128650D02*
X14129705Y-13261984D01*
X14082086Y-13052460D02*
X14034467Y-13195317D01*
X14034467Y-13195317D02*
X14158277Y-13195317D01*
X14272562Y-13061984D02*
X14291610Y-13061984D01*
X14291610Y-13061984D02*
X14310658Y-13071508D01*
X14310658Y-13071508D02*
X14320182Y-13081031D01*
X14320182Y-13081031D02*
X14329705Y-13100079D01*
X14329705Y-13100079D02*
X14339229Y-13138174D01*
X14339229Y-13138174D02*
X14339229Y-13185793D01*
X14339229Y-13185793D02*
X14329705Y-13223888D01*
X14329705Y-13223888D02*
X14320182Y-13242936D01*
X14320182Y-13242936D02*
X14310658Y-13252460D01*
X14310658Y-13252460D02*
X14291610Y-13261984D01*
X14291610Y-13261984D02*
X14272562Y-13261984D01*
X14272562Y-13261984D02*
X14253515Y-13252460D01*
X14253515Y-13252460D02*
X14243991Y-13242936D01*
X14243991Y-13242936D02*
X14234467Y-13223888D01*
X14234467Y-13223888D02*
X14224943Y-13185793D01*
X14224943Y-13185793D02*
X14224943Y-13138174D01*
X14224943Y-13138174D02*
X14234467Y-13100079D01*
X14234467Y-13100079D02*
X14243991Y-13081031D01*
X14243991Y-13081031D02*
X14253515Y-13071508D01*
X14253515Y-13071508D02*
X14272562Y-13061984D01*
X14463039Y-13061984D02*
X14482086Y-13061984D01*
X14482086Y-13061984D02*
X14501134Y-13071508D01*
X14501134Y-13071508D02*
X14510658Y-13081031D01*
X14510658Y-13081031D02*
X14520182Y-13100079D01*
X14520182Y-13100079D02*
X14529705Y-13138174D01*
X14529705Y-13138174D02*
X14529705Y-13185793D01*
X14529705Y-13185793D02*
X14520182Y-13223888D01*
X14520182Y-13223888D02*
X14510658Y-13242936D01*
X14510658Y-13242936D02*
X14501134Y-13252460D01*
X14501134Y-13252460D02*
X14482086Y-13261984D01*
X14482086Y-13261984D02*
X14463039Y-13261984D01*
X14463039Y-13261984D02*
X14443991Y-13252460D01*
X14443991Y-13252460D02*
X14434467Y-13242936D01*
X14434467Y-13242936D02*
X14424943Y-13223888D01*
X14424943Y-13223888D02*
X14415420Y-13185793D01*
X14415420Y-13185793D02*
X14415420Y-13138174D01*
X14415420Y-13138174D02*
X14424943Y-13100079D01*
X14424943Y-13100079D02*
X14434467Y-13081031D01*
X14434467Y-13081031D02*
X14443991Y-13071508D01*
X14443991Y-13071508D02*
X14463039Y-13061984D01*
X14615420Y-13261984D02*
X14615420Y-13128650D01*
X14615420Y-13147698D02*
X14624943Y-13138174D01*
X14624943Y-13138174D02*
X14643991Y-13128650D01*
X14643991Y-13128650D02*
X14672563Y-13128650D01*
X14672563Y-13128650D02*
X14691610Y-13138174D01*
X14691610Y-13138174D02*
X14701134Y-13157222D01*
X14701134Y-13157222D02*
X14701134Y-13261984D01*
X14701134Y-13157222D02*
X14710658Y-13138174D01*
X14710658Y-13138174D02*
X14729705Y-13128650D01*
X14729705Y-13128650D02*
X14758277Y-13128650D01*
X14758277Y-13128650D02*
X14777324Y-13138174D01*
X14777324Y-13138174D02*
X14786848Y-13157222D01*
X14786848Y-13157222D02*
X14786848Y-13261984D01*
X14882086Y-13261984D02*
X14882086Y-13128650D01*
X14882086Y-13147698D02*
X14891610Y-13138174D01*
X14891610Y-13138174D02*
X14910658Y-13128650D01*
X14910658Y-13128650D02*
X14939229Y-13128650D01*
X14939229Y-13128650D02*
X14958277Y-13138174D01*
X14958277Y-13138174D02*
X14967801Y-13157222D01*
X14967801Y-13157222D02*
X14967801Y-13261984D01*
X14967801Y-13157222D02*
X14977324Y-13138174D01*
X14977324Y-13138174D02*
X14996372Y-13128650D01*
X14996372Y-13128650D02*
X15024943Y-13128650D01*
X15024943Y-13128650D02*
X15043991Y-13138174D01*
X15043991Y-13138174D02*
X15053515Y-13157222D01*
X15053515Y-13157222D02*
X15053515Y-13261984D01*
X15443991Y-13052460D02*
X15272563Y-13309603D01*
X15701134Y-13061984D02*
X15720182Y-13061984D01*
X15720182Y-13061984D02*
X15739229Y-13071508D01*
X15739229Y-13071508D02*
X15748753Y-13081031D01*
X15748753Y-13081031D02*
X15758277Y-13100079D01*
X15758277Y-13100079D02*
X15767801Y-13138174D01*
X15767801Y-13138174D02*
X15767801Y-13185793D01*
X15767801Y-13185793D02*
X15758277Y-13223888D01*
X15758277Y-13223888D02*
X15748753Y-13242936D01*
X15748753Y-13242936D02*
X15739229Y-13252460D01*
X15739229Y-13252460D02*
X15720182Y-13261984D01*
X15720182Y-13261984D02*
X15701134Y-13261984D01*
X15701134Y-13261984D02*
X15682086Y-13252460D01*
X15682086Y-13252460D02*
X15672563Y-13242936D01*
X15672563Y-13242936D02*
X15663039Y-13223888D01*
X15663039Y-13223888D02*
X15653515Y-13185793D01*
X15653515Y-13185793D02*
X15653515Y-13138174D01*
X15653515Y-13138174D02*
X15663039Y-13100079D01*
X15663039Y-13100079D02*
X15672563Y-13081031D01*
X15672563Y-13081031D02*
X15682086Y-13071508D01*
X15682086Y-13071508D02*
X15701134Y-13061984D01*
X15853515Y-13242936D02*
X15863039Y-13252460D01*
X15863039Y-13252460D02*
X15853515Y-13261984D01*
X15853515Y-13261984D02*
X15843991Y-13252460D01*
X15843991Y-13252460D02*
X15853515Y-13242936D01*
X15853515Y-13242936D02*
X15853515Y-13261984D01*
X15986848Y-13061984D02*
X16005896Y-13061984D01*
X16005896Y-13061984D02*
X16024944Y-13071508D01*
X16024944Y-13071508D02*
X16034467Y-13081031D01*
X16034467Y-13081031D02*
X16043991Y-13100079D01*
X16043991Y-13100079D02*
X16053515Y-13138174D01*
X16053515Y-13138174D02*
X16053515Y-13185793D01*
X16053515Y-13185793D02*
X16043991Y-13223888D01*
X16043991Y-13223888D02*
X16034467Y-13242936D01*
X16034467Y-13242936D02*
X16024944Y-13252460D01*
X16024944Y-13252460D02*
X16005896Y-13261984D01*
X16005896Y-13261984D02*
X15986848Y-13261984D01*
X15986848Y-13261984D02*
X15967801Y-13252460D01*
X15967801Y-13252460D02*
X15958277Y-13242936D01*
X15958277Y-13242936D02*
X15948753Y-13223888D01*
X15948753Y-13223888D02*
X15939229Y-13185793D01*
X15939229Y-13185793D02*
X15939229Y-13138174D01*
X15939229Y-13138174D02*
X15948753Y-13100079D01*
X15948753Y-13100079D02*
X15958277Y-13081031D01*
X15958277Y-13081031D02*
X15967801Y-13071508D01*
X15967801Y-13071508D02*
X15986848Y-13061984D01*
X16243991Y-13261984D02*
X16129706Y-13261984D01*
X16186848Y-13261984D02*
X16186848Y-13061984D01*
X16186848Y-13061984D02*
X16167801Y-13090555D01*
X16167801Y-13090555D02*
X16148753Y-13109603D01*
X16148753Y-13109603D02*
X16129706Y-13119127D01*
X16424944Y-13061984D02*
X16329706Y-13061984D01*
X16329706Y-13061984D02*
X16320182Y-13157222D01*
X16320182Y-13157222D02*
X16329706Y-13147698D01*
X16329706Y-13147698D02*
X16348753Y-13138174D01*
X16348753Y-13138174D02*
X16396372Y-13138174D01*
X16396372Y-13138174D02*
X16415420Y-13147698D01*
X16415420Y-13147698D02*
X16424944Y-13157222D01*
X16424944Y-13157222D02*
X16434467Y-13176269D01*
X16434467Y-13176269D02*
X16434467Y-13223888D01*
X16434467Y-13223888D02*
X16424944Y-13242936D01*
X16424944Y-13242936D02*
X16415420Y-13252460D01*
X16415420Y-13252460D02*
X16396372Y-13261984D01*
X16396372Y-13261984D02*
X16348753Y-13261984D01*
X16348753Y-13261984D02*
X16329706Y-13252460D01*
X16329706Y-13252460D02*
X16320182Y-13242936D01*
X16501134Y-13061984D02*
X16634467Y-13061984D01*
X16634467Y-13061984D02*
X16548753Y-13261984D01*
X16701134Y-13061984D02*
X16701134Y-13100079D01*
X16777325Y-13061984D02*
X16777325Y-13100079D01*
X17072563Y-13338174D02*
X17063039Y-13328650D01*
X17063039Y-13328650D02*
X17043991Y-13300079D01*
X17043991Y-13300079D02*
X17034468Y-13281031D01*
X17034468Y-13281031D02*
X17024944Y-13252460D01*
X17024944Y-13252460D02*
X17015420Y-13204841D01*
X17015420Y-13204841D02*
X17015420Y-13166746D01*
X17015420Y-13166746D02*
X17024944Y-13119127D01*
X17024944Y-13119127D02*
X17034468Y-13090555D01*
X17034468Y-13090555D02*
X17043991Y-13071508D01*
X17043991Y-13071508D02*
X17063039Y-13042936D01*
X17063039Y-13042936D02*
X17072563Y-13033412D01*
X17129706Y-13061984D02*
X17253515Y-13061984D01*
X17253515Y-13061984D02*
X17186849Y-13138174D01*
X17186849Y-13138174D02*
X17215420Y-13138174D01*
X17215420Y-13138174D02*
X17234468Y-13147698D01*
X17234468Y-13147698D02*
X17243991Y-13157222D01*
X17243991Y-13157222D02*
X17253515Y-13176269D01*
X17253515Y-13176269D02*
X17253515Y-13223888D01*
X17253515Y-13223888D02*
X17243991Y-13242936D01*
X17243991Y-13242936D02*
X17234468Y-13252460D01*
X17234468Y-13252460D02*
X17215420Y-13261984D01*
X17215420Y-13261984D02*
X17158277Y-13261984D01*
X17158277Y-13261984D02*
X17139230Y-13252460D01*
X17139230Y-13252460D02*
X17129706Y-13242936D01*
X17329706Y-13081031D02*
X17339230Y-13071508D01*
X17339230Y-13071508D02*
X17358277Y-13061984D01*
X17358277Y-13061984D02*
X17405896Y-13061984D01*
X17405896Y-13061984D02*
X17424944Y-13071508D01*
X17424944Y-13071508D02*
X17434468Y-13081031D01*
X17434468Y-13081031D02*
X17443991Y-13100079D01*
X17443991Y-13100079D02*
X17443991Y-13119127D01*
X17443991Y-13119127D02*
X17434468Y-13147698D01*
X17434468Y-13147698D02*
X17320182Y-13261984D01*
X17320182Y-13261984D02*
X17443991Y-13261984D01*
X17682087Y-13261984D02*
X17682087Y-13061984D01*
X17767801Y-13261984D02*
X17767801Y-13157222D01*
X17767801Y-13157222D02*
X17758277Y-13138174D01*
X17758277Y-13138174D02*
X17739230Y-13128650D01*
X17739230Y-13128650D02*
X17710658Y-13128650D01*
X17710658Y-13128650D02*
X17691611Y-13138174D01*
X17691611Y-13138174D02*
X17682087Y-13147698D01*
X17891611Y-13261984D02*
X17872563Y-13252460D01*
X17872563Y-13252460D02*
X17863039Y-13242936D01*
X17863039Y-13242936D02*
X17853515Y-13223888D01*
X17853515Y-13223888D02*
X17853515Y-13166746D01*
X17853515Y-13166746D02*
X17863039Y-13147698D01*
X17863039Y-13147698D02*
X17872563Y-13138174D01*
X17872563Y-13138174D02*
X17891611Y-13128650D01*
X17891611Y-13128650D02*
X17920182Y-13128650D01*
X17920182Y-13128650D02*
X17939230Y-13138174D01*
X17939230Y-13138174D02*
X17948753Y-13147698D01*
X17948753Y-13147698D02*
X17958277Y-13166746D01*
X17958277Y-13166746D02*
X17958277Y-13223888D01*
X17958277Y-13223888D02*
X17948753Y-13242936D01*
X17948753Y-13242936D02*
X17939230Y-13252460D01*
X17939230Y-13252460D02*
X17920182Y-13261984D01*
X17920182Y-13261984D02*
X17891611Y-13261984D01*
X18072563Y-13261984D02*
X18053515Y-13252460D01*
X18053515Y-13252460D02*
X18043992Y-13233412D01*
X18043992Y-13233412D02*
X18043992Y-13061984D01*
X18224944Y-13252460D02*
X18205896Y-13261984D01*
X18205896Y-13261984D02*
X18167801Y-13261984D01*
X18167801Y-13261984D02*
X18148753Y-13252460D01*
X18148753Y-13252460D02*
X18139230Y-13233412D01*
X18139230Y-13233412D02*
X18139230Y-13157222D01*
X18139230Y-13157222D02*
X18148753Y-13138174D01*
X18148753Y-13138174D02*
X18167801Y-13128650D01*
X18167801Y-13128650D02*
X18205896Y-13128650D01*
X18205896Y-13128650D02*
X18224944Y-13138174D01*
X18224944Y-13138174D02*
X18234468Y-13157222D01*
X18234468Y-13157222D02*
X18234468Y-13176269D01*
X18234468Y-13176269D02*
X18139230Y-13195317D01*
X18310658Y-13252460D02*
X18329706Y-13261984D01*
X18329706Y-13261984D02*
X18367801Y-13261984D01*
X18367801Y-13261984D02*
X18386849Y-13252460D01*
X18386849Y-13252460D02*
X18396373Y-13233412D01*
X18396373Y-13233412D02*
X18396373Y-13223888D01*
X18396373Y-13223888D02*
X18386849Y-13204841D01*
X18386849Y-13204841D02*
X18367801Y-13195317D01*
X18367801Y-13195317D02*
X18339230Y-13195317D01*
X18339230Y-13195317D02*
X18320182Y-13185793D01*
X18320182Y-13185793D02*
X18310658Y-13166746D01*
X18310658Y-13166746D02*
X18310658Y-13157222D01*
X18310658Y-13157222D02*
X18320182Y-13138174D01*
X18320182Y-13138174D02*
X18339230Y-13128650D01*
X18339230Y-13128650D02*
X18367801Y-13128650D01*
X18367801Y-13128650D02*
X18386849Y-13138174D01*
X18463039Y-13338174D02*
X18472563Y-13328650D01*
X18472563Y-13328650D02*
X18491611Y-13300079D01*
X18491611Y-13300079D02*
X18501134Y-13281031D01*
X18501134Y-13281031D02*
X18510658Y-13252460D01*
X18510658Y-13252460D02*
X18520182Y-13204841D01*
X18520182Y-13204841D02*
X18520182Y-13166746D01*
X18520182Y-13166746D02*
X18510658Y-13119127D01*
X18510658Y-13119127D02*
X18501134Y-13090555D01*
X18501134Y-13090555D02*
X18491611Y-13071508D01*
X18491611Y-13071508D02*
X18472563Y-13042936D01*
X18472563Y-13042936D02*
X18463039Y-13033412D01*
D12*
X13482856Y-13469856D02*
X13482856Y-13399144D01*
X13412144Y-13399144D01*
X13412144Y-13469856D01*
X13482856Y-13469856D01*
D11*
X13863039Y-13525984D02*
X13748753Y-13525984D01*
X13805896Y-13525984D02*
X13805896Y-13325984D01*
X13805896Y-13325984D02*
X13786848Y-13354555D01*
X13786848Y-13354555D02*
X13767801Y-13373603D01*
X13767801Y-13373603D02*
X13748753Y-13383127D01*
X13948753Y-13506936D02*
X13958277Y-13516460D01*
X13958277Y-13516460D02*
X13948753Y-13525984D01*
X13948753Y-13525984D02*
X13939229Y-13516460D01*
X13939229Y-13516460D02*
X13948753Y-13506936D01*
X13948753Y-13506936D02*
X13948753Y-13525984D01*
X14082086Y-13325984D02*
X14101134Y-13325984D01*
X14101134Y-13325984D02*
X14120182Y-13335508D01*
X14120182Y-13335508D02*
X14129705Y-13345031D01*
X14129705Y-13345031D02*
X14139229Y-13364079D01*
X14139229Y-13364079D02*
X14148753Y-13402174D01*
X14148753Y-13402174D02*
X14148753Y-13449793D01*
X14148753Y-13449793D02*
X14139229Y-13487888D01*
X14139229Y-13487888D02*
X14129705Y-13506936D01*
X14129705Y-13506936D02*
X14120182Y-13516460D01*
X14120182Y-13516460D02*
X14101134Y-13525984D01*
X14101134Y-13525984D02*
X14082086Y-13525984D01*
X14082086Y-13525984D02*
X14063039Y-13516460D01*
X14063039Y-13516460D02*
X14053515Y-13506936D01*
X14053515Y-13506936D02*
X14043991Y-13487888D01*
X14043991Y-13487888D02*
X14034467Y-13449793D01*
X14034467Y-13449793D02*
X14034467Y-13402174D01*
X14034467Y-13402174D02*
X14043991Y-13364079D01*
X14043991Y-13364079D02*
X14053515Y-13345031D01*
X14053515Y-13345031D02*
X14063039Y-13335508D01*
X14063039Y-13335508D02*
X14082086Y-13325984D01*
X14272562Y-13325984D02*
X14291610Y-13325984D01*
X14291610Y-13325984D02*
X14310658Y-13335508D01*
X14310658Y-13335508D02*
X14320182Y-13345031D01*
X14320182Y-13345031D02*
X14329705Y-13364079D01*
X14329705Y-13364079D02*
X14339229Y-13402174D01*
X14339229Y-13402174D02*
X14339229Y-13449793D01*
X14339229Y-13449793D02*
X14329705Y-13487888D01*
X14329705Y-13487888D02*
X14320182Y-13506936D01*
X14320182Y-13506936D02*
X14310658Y-13516460D01*
X14310658Y-13516460D02*
X14291610Y-13525984D01*
X14291610Y-13525984D02*
X14272562Y-13525984D01*
X14272562Y-13525984D02*
X14253515Y-13516460D01*
X14253515Y-13516460D02*
X14243991Y-13506936D01*
X14243991Y-13506936D02*
X14234467Y-13487888D01*
X14234467Y-13487888D02*
X14224943Y-13449793D01*
X14224943Y-13449793D02*
X14224943Y-13402174D01*
X14224943Y-13402174D02*
X14234467Y-13364079D01*
X14234467Y-13364079D02*
X14243991Y-13345031D01*
X14243991Y-13345031D02*
X14253515Y-13335508D01*
X14253515Y-13335508D02*
X14272562Y-13325984D01*
X14463039Y-13325984D02*
X14482086Y-13325984D01*
X14482086Y-13325984D02*
X14501134Y-13335508D01*
X14501134Y-13335508D02*
X14510658Y-13345031D01*
X14510658Y-13345031D02*
X14520182Y-13364079D01*
X14520182Y-13364079D02*
X14529705Y-13402174D01*
X14529705Y-13402174D02*
X14529705Y-13449793D01*
X14529705Y-13449793D02*
X14520182Y-13487888D01*
X14520182Y-13487888D02*
X14510658Y-13506936D01*
X14510658Y-13506936D02*
X14501134Y-13516460D01*
X14501134Y-13516460D02*
X14482086Y-13525984D01*
X14482086Y-13525984D02*
X14463039Y-13525984D01*
X14463039Y-13525984D02*
X14443991Y-13516460D01*
X14443991Y-13516460D02*
X14434467Y-13506936D01*
X14434467Y-13506936D02*
X14424943Y-13487888D01*
X14424943Y-13487888D02*
X14415420Y-13449793D01*
X14415420Y-13449793D02*
X14415420Y-13402174D01*
X14415420Y-13402174D02*
X14424943Y-13364079D01*
X14424943Y-13364079D02*
X14434467Y-13345031D01*
X14434467Y-13345031D02*
X14443991Y-13335508D01*
X14443991Y-13335508D02*
X14463039Y-13325984D01*
X14615420Y-13525984D02*
X14615420Y-13392650D01*
X14615420Y-13411698D02*
X14624943Y-13402174D01*
X14624943Y-13402174D02*
X14643991Y-13392650D01*
X14643991Y-13392650D02*
X14672563Y-13392650D01*
X14672563Y-13392650D02*
X14691610Y-13402174D01*
X14691610Y-13402174D02*
X14701134Y-13421222D01*
X14701134Y-13421222D02*
X14701134Y-13525984D01*
X14701134Y-13421222D02*
X14710658Y-13402174D01*
X14710658Y-13402174D02*
X14729705Y-13392650D01*
X14729705Y-13392650D02*
X14758277Y-13392650D01*
X14758277Y-13392650D02*
X14777324Y-13402174D01*
X14777324Y-13402174D02*
X14786848Y-13421222D01*
X14786848Y-13421222D02*
X14786848Y-13525984D01*
X14882086Y-13525984D02*
X14882086Y-13392650D01*
X14882086Y-13411698D02*
X14891610Y-13402174D01*
X14891610Y-13402174D02*
X14910658Y-13392650D01*
X14910658Y-13392650D02*
X14939229Y-13392650D01*
X14939229Y-13392650D02*
X14958277Y-13402174D01*
X14958277Y-13402174D02*
X14967801Y-13421222D01*
X14967801Y-13421222D02*
X14967801Y-13525984D01*
X14967801Y-13421222D02*
X14977324Y-13402174D01*
X14977324Y-13402174D02*
X14996372Y-13392650D01*
X14996372Y-13392650D02*
X15024943Y-13392650D01*
X15024943Y-13392650D02*
X15043991Y-13402174D01*
X15043991Y-13402174D02*
X15053515Y-13421222D01*
X15053515Y-13421222D02*
X15053515Y-13525984D01*
X15443991Y-13316460D02*
X15272563Y-13573603D01*
X15701134Y-13325984D02*
X15720182Y-13325984D01*
X15720182Y-13325984D02*
X15739229Y-13335508D01*
X15739229Y-13335508D02*
X15748753Y-13345031D01*
X15748753Y-13345031D02*
X15758277Y-13364079D01*
X15758277Y-13364079D02*
X15767801Y-13402174D01*
X15767801Y-13402174D02*
X15767801Y-13449793D01*
X15767801Y-13449793D02*
X15758277Y-13487888D01*
X15758277Y-13487888D02*
X15748753Y-13506936D01*
X15748753Y-13506936D02*
X15739229Y-13516460D01*
X15739229Y-13516460D02*
X15720182Y-13525984D01*
X15720182Y-13525984D02*
X15701134Y-13525984D01*
X15701134Y-13525984D02*
X15682086Y-13516460D01*
X15682086Y-13516460D02*
X15672563Y-13506936D01*
X15672563Y-13506936D02*
X15663039Y-13487888D01*
X15663039Y-13487888D02*
X15653515Y-13449793D01*
X15653515Y-13449793D02*
X15653515Y-13402174D01*
X15653515Y-13402174D02*
X15663039Y-13364079D01*
X15663039Y-13364079D02*
X15672563Y-13345031D01*
X15672563Y-13345031D02*
X15682086Y-13335508D01*
X15682086Y-13335508D02*
X15701134Y-13325984D01*
X15853515Y-13506936D02*
X15863039Y-13516460D01*
X15863039Y-13516460D02*
X15853515Y-13525984D01*
X15853515Y-13525984D02*
X15843991Y-13516460D01*
X15843991Y-13516460D02*
X15853515Y-13506936D01*
X15853515Y-13506936D02*
X15853515Y-13525984D01*
X15986848Y-13325984D02*
X16005896Y-13325984D01*
X16005896Y-13325984D02*
X16024944Y-13335508D01*
X16024944Y-13335508D02*
X16034467Y-13345031D01*
X16034467Y-13345031D02*
X16043991Y-13364079D01*
X16043991Y-13364079D02*
X16053515Y-13402174D01*
X16053515Y-13402174D02*
X16053515Y-13449793D01*
X16053515Y-13449793D02*
X16043991Y-13487888D01*
X16043991Y-13487888D02*
X16034467Y-13506936D01*
X16034467Y-13506936D02*
X16024944Y-13516460D01*
X16024944Y-13516460D02*
X16005896Y-13525984D01*
X16005896Y-13525984D02*
X15986848Y-13525984D01*
X15986848Y-13525984D02*
X15967801Y-13516460D01*
X15967801Y-13516460D02*
X15958277Y-13506936D01*
X15958277Y-13506936D02*
X15948753Y-13487888D01*
X15948753Y-13487888D02*
X15939229Y-13449793D01*
X15939229Y-13449793D02*
X15939229Y-13402174D01*
X15939229Y-13402174D02*
X15948753Y-13364079D01*
X15948753Y-13364079D02*
X15958277Y-13345031D01*
X15958277Y-13345031D02*
X15967801Y-13335508D01*
X15967801Y-13335508D02*
X15986848Y-13325984D01*
X16120182Y-13325984D02*
X16243991Y-13325984D01*
X16243991Y-13325984D02*
X16177325Y-13402174D01*
X16177325Y-13402174D02*
X16205896Y-13402174D01*
X16205896Y-13402174D02*
X16224944Y-13411698D01*
X16224944Y-13411698D02*
X16234467Y-13421222D01*
X16234467Y-13421222D02*
X16243991Y-13440269D01*
X16243991Y-13440269D02*
X16243991Y-13487888D01*
X16243991Y-13487888D02*
X16234467Y-13506936D01*
X16234467Y-13506936D02*
X16224944Y-13516460D01*
X16224944Y-13516460D02*
X16205896Y-13525984D01*
X16205896Y-13525984D02*
X16148753Y-13525984D01*
X16148753Y-13525984D02*
X16129706Y-13516460D01*
X16129706Y-13516460D02*
X16120182Y-13506936D01*
X16339229Y-13525984D02*
X16377325Y-13525984D01*
X16377325Y-13525984D02*
X16396372Y-13516460D01*
X16396372Y-13516460D02*
X16405896Y-13506936D01*
X16405896Y-13506936D02*
X16424944Y-13478365D01*
X16424944Y-13478365D02*
X16434467Y-13440269D01*
X16434467Y-13440269D02*
X16434467Y-13364079D01*
X16434467Y-13364079D02*
X16424944Y-13345031D01*
X16424944Y-13345031D02*
X16415420Y-13335508D01*
X16415420Y-13335508D02*
X16396372Y-13325984D01*
X16396372Y-13325984D02*
X16358277Y-13325984D01*
X16358277Y-13325984D02*
X16339229Y-13335508D01*
X16339229Y-13335508D02*
X16329706Y-13345031D01*
X16329706Y-13345031D02*
X16320182Y-13364079D01*
X16320182Y-13364079D02*
X16320182Y-13411698D01*
X16320182Y-13411698D02*
X16329706Y-13430746D01*
X16329706Y-13430746D02*
X16339229Y-13440269D01*
X16339229Y-13440269D02*
X16358277Y-13449793D01*
X16358277Y-13449793D02*
X16396372Y-13449793D01*
X16396372Y-13449793D02*
X16415420Y-13440269D01*
X16415420Y-13440269D02*
X16424944Y-13430746D01*
X16424944Y-13430746D02*
X16434467Y-13411698D01*
X16605896Y-13392650D02*
X16605896Y-13525984D01*
X16558277Y-13316460D02*
X16510658Y-13459317D01*
X16510658Y-13459317D02*
X16634467Y-13459317D01*
X16701134Y-13325984D02*
X16701134Y-13364079D01*
X16777325Y-13325984D02*
X16777325Y-13364079D01*
X17072563Y-13602174D02*
X17063039Y-13592650D01*
X17063039Y-13592650D02*
X17043991Y-13564079D01*
X17043991Y-13564079D02*
X17034468Y-13545031D01*
X17034468Y-13545031D02*
X17024944Y-13516460D01*
X17024944Y-13516460D02*
X17015420Y-13468841D01*
X17015420Y-13468841D02*
X17015420Y-13430746D01*
X17015420Y-13430746D02*
X17024944Y-13383127D01*
X17024944Y-13383127D02*
X17034468Y-13354555D01*
X17034468Y-13354555D02*
X17043991Y-13335508D01*
X17043991Y-13335508D02*
X17063039Y-13306936D01*
X17063039Y-13306936D02*
X17072563Y-13297412D01*
X17177325Y-13411698D02*
X17158277Y-13402174D01*
X17158277Y-13402174D02*
X17148753Y-13392650D01*
X17148753Y-13392650D02*
X17139230Y-13373603D01*
X17139230Y-13373603D02*
X17139230Y-13364079D01*
X17139230Y-13364079D02*
X17148753Y-13345031D01*
X17148753Y-13345031D02*
X17158277Y-13335508D01*
X17158277Y-13335508D02*
X17177325Y-13325984D01*
X17177325Y-13325984D02*
X17215420Y-13325984D01*
X17215420Y-13325984D02*
X17234468Y-13335508D01*
X17234468Y-13335508D02*
X17243991Y-13345031D01*
X17243991Y-13345031D02*
X17253515Y-13364079D01*
X17253515Y-13364079D02*
X17253515Y-13373603D01*
X17253515Y-13373603D02*
X17243991Y-13392650D01*
X17243991Y-13392650D02*
X17234468Y-13402174D01*
X17234468Y-13402174D02*
X17215420Y-13411698D01*
X17215420Y-13411698D02*
X17177325Y-13411698D01*
X17177325Y-13411698D02*
X17158277Y-13421222D01*
X17158277Y-13421222D02*
X17148753Y-13430746D01*
X17148753Y-13430746D02*
X17139230Y-13449793D01*
X17139230Y-13449793D02*
X17139230Y-13487888D01*
X17139230Y-13487888D02*
X17148753Y-13506936D01*
X17148753Y-13506936D02*
X17158277Y-13516460D01*
X17158277Y-13516460D02*
X17177325Y-13525984D01*
X17177325Y-13525984D02*
X17215420Y-13525984D01*
X17215420Y-13525984D02*
X17234468Y-13516460D01*
X17234468Y-13516460D02*
X17243991Y-13506936D01*
X17243991Y-13506936D02*
X17253515Y-13487888D01*
X17253515Y-13487888D02*
X17253515Y-13449793D01*
X17253515Y-13449793D02*
X17243991Y-13430746D01*
X17243991Y-13430746D02*
X17234468Y-13421222D01*
X17234468Y-13421222D02*
X17215420Y-13411698D01*
X17491611Y-13525984D02*
X17491611Y-13325984D01*
X17577325Y-13525984D02*
X17577325Y-13421222D01*
X17577325Y-13421222D02*
X17567801Y-13402174D01*
X17567801Y-13402174D02*
X17548753Y-13392650D01*
X17548753Y-13392650D02*
X17520182Y-13392650D01*
X17520182Y-13392650D02*
X17501134Y-13402174D01*
X17501134Y-13402174D02*
X17491611Y-13411698D01*
X17701134Y-13525984D02*
X17682087Y-13516460D01*
X17682087Y-13516460D02*
X17672563Y-13506936D01*
X17672563Y-13506936D02*
X17663039Y-13487888D01*
X17663039Y-13487888D02*
X17663039Y-13430746D01*
X17663039Y-13430746D02*
X17672563Y-13411698D01*
X17672563Y-13411698D02*
X17682087Y-13402174D01*
X17682087Y-13402174D02*
X17701134Y-13392650D01*
X17701134Y-13392650D02*
X17729706Y-13392650D01*
X17729706Y-13392650D02*
X17748753Y-13402174D01*
X17748753Y-13402174D02*
X17758277Y-13411698D01*
X17758277Y-13411698D02*
X17767801Y-13430746D01*
X17767801Y-13430746D02*
X17767801Y-13487888D01*
X17767801Y-13487888D02*
X17758277Y-13506936D01*
X17758277Y-13506936D02*
X17748753Y-13516460D01*
X17748753Y-13516460D02*
X17729706Y-13525984D01*
X17729706Y-13525984D02*
X17701134Y-13525984D01*
X17882087Y-13525984D02*
X17863039Y-13516460D01*
X17863039Y-13516460D02*
X17853515Y-13497412D01*
X17853515Y-13497412D02*
X17853515Y-13325984D01*
X18034468Y-13516460D02*
X18015420Y-13525984D01*
X18015420Y-13525984D02*
X17977325Y-13525984D01*
X17977325Y-13525984D02*
X17958277Y-13516460D01*
X17958277Y-13516460D02*
X17948753Y-13497412D01*
X17948753Y-13497412D02*
X17948753Y-13421222D01*
X17948753Y-13421222D02*
X17958277Y-13402174D01*
X17958277Y-13402174D02*
X17977325Y-13392650D01*
X17977325Y-13392650D02*
X18015420Y-13392650D01*
X18015420Y-13392650D02*
X18034468Y-13402174D01*
X18034468Y-13402174D02*
X18043992Y-13421222D01*
X18043992Y-13421222D02*
X18043992Y-13440269D01*
X18043992Y-13440269D02*
X17948753Y-13459317D01*
X18120182Y-13516460D02*
X18139230Y-13525984D01*
X18139230Y-13525984D02*
X18177325Y-13525984D01*
X18177325Y-13525984D02*
X18196373Y-13516460D01*
X18196373Y-13516460D02*
X18205896Y-13497412D01*
X18205896Y-13497412D02*
X18205896Y-13487888D01*
X18205896Y-13487888D02*
X18196373Y-13468841D01*
X18196373Y-13468841D02*
X18177325Y-13459317D01*
X18177325Y-13459317D02*
X18148753Y-13459317D01*
X18148753Y-13459317D02*
X18129706Y-13449793D01*
X18129706Y-13449793D02*
X18120182Y-13430746D01*
X18120182Y-13430746D02*
X18120182Y-13421222D01*
X18120182Y-13421222D02*
X18129706Y-13402174D01*
X18129706Y-13402174D02*
X18148753Y-13392650D01*
X18148753Y-13392650D02*
X18177325Y-13392650D01*
X18177325Y-13392650D02*
X18196373Y-13402174D01*
X18272563Y-13602174D02*
X18282087Y-13592650D01*
X18282087Y-13592650D02*
X18301134Y-13564079D01*
X18301134Y-13564079D02*
X18310658Y-13545031D01*
X18310658Y-13545031D02*
X18320182Y-13516460D01*
X18320182Y-13516460D02*
X18329706Y-13468841D01*
X18329706Y-13468841D02*
X18329706Y-13430746D01*
X18329706Y-13430746D02*
X18320182Y-13383127D01*
X18320182Y-13383127D02*
X18310658Y-13354555D01*
X18310658Y-13354555D02*
X18301134Y-13335508D01*
X18301134Y-13335508D02*
X18282087Y-13306936D01*
X18282087Y-13306936D02*
X18272563Y-13297412D01*
X13397500Y-13798500D02*
X13497500Y-13698500D01*
X13397500Y-13598500D01*
X13297500Y-13698500D01*
X13397500Y-13798500D01*
X13748753Y-13609031D02*
X13758277Y-13599508D01*
X13758277Y-13599508D02*
X13777324Y-13589984D01*
X13777324Y-13589984D02*
X13824943Y-13589984D01*
X13824943Y-13589984D02*
X13843991Y-13599508D01*
X13843991Y-13599508D02*
X13853515Y-13609031D01*
X13853515Y-13609031D02*
X13863039Y-13628079D01*
X13863039Y-13628079D02*
X13863039Y-13647127D01*
X13863039Y-13647127D02*
X13853515Y-13675698D01*
X13853515Y-13675698D02*
X13739229Y-13789984D01*
X13739229Y-13789984D02*
X13863039Y-13789984D01*
X13948753Y-13770936D02*
X13958277Y-13780460D01*
X13958277Y-13780460D02*
X13948753Y-13789984D01*
X13948753Y-13789984D02*
X13939229Y-13780460D01*
X13939229Y-13780460D02*
X13948753Y-13770936D01*
X13948753Y-13770936D02*
X13948753Y-13789984D01*
X14034467Y-13609031D02*
X14043991Y-13599508D01*
X14043991Y-13599508D02*
X14063039Y-13589984D01*
X14063039Y-13589984D02*
X14110658Y-13589984D01*
X14110658Y-13589984D02*
X14129705Y-13599508D01*
X14129705Y-13599508D02*
X14139229Y-13609031D01*
X14139229Y-13609031D02*
X14148753Y-13628079D01*
X14148753Y-13628079D02*
X14148753Y-13647127D01*
X14148753Y-13647127D02*
X14139229Y-13675698D01*
X14139229Y-13675698D02*
X14024943Y-13789984D01*
X14024943Y-13789984D02*
X14148753Y-13789984D01*
X14272562Y-13589984D02*
X14291610Y-13589984D01*
X14291610Y-13589984D02*
X14310658Y-13599508D01*
X14310658Y-13599508D02*
X14320182Y-13609031D01*
X14320182Y-13609031D02*
X14329705Y-13628079D01*
X14329705Y-13628079D02*
X14339229Y-13666174D01*
X14339229Y-13666174D02*
X14339229Y-13713793D01*
X14339229Y-13713793D02*
X14329705Y-13751888D01*
X14329705Y-13751888D02*
X14320182Y-13770936D01*
X14320182Y-13770936D02*
X14310658Y-13780460D01*
X14310658Y-13780460D02*
X14291610Y-13789984D01*
X14291610Y-13789984D02*
X14272562Y-13789984D01*
X14272562Y-13789984D02*
X14253515Y-13780460D01*
X14253515Y-13780460D02*
X14243991Y-13770936D01*
X14243991Y-13770936D02*
X14234467Y-13751888D01*
X14234467Y-13751888D02*
X14224943Y-13713793D01*
X14224943Y-13713793D02*
X14224943Y-13666174D01*
X14224943Y-13666174D02*
X14234467Y-13628079D01*
X14234467Y-13628079D02*
X14243991Y-13609031D01*
X14243991Y-13609031D02*
X14253515Y-13599508D01*
X14253515Y-13599508D02*
X14272562Y-13589984D01*
X14463039Y-13589984D02*
X14482086Y-13589984D01*
X14482086Y-13589984D02*
X14501134Y-13599508D01*
X14501134Y-13599508D02*
X14510658Y-13609031D01*
X14510658Y-13609031D02*
X14520182Y-13628079D01*
X14520182Y-13628079D02*
X14529705Y-13666174D01*
X14529705Y-13666174D02*
X14529705Y-13713793D01*
X14529705Y-13713793D02*
X14520182Y-13751888D01*
X14520182Y-13751888D02*
X14510658Y-13770936D01*
X14510658Y-13770936D02*
X14501134Y-13780460D01*
X14501134Y-13780460D02*
X14482086Y-13789984D01*
X14482086Y-13789984D02*
X14463039Y-13789984D01*
X14463039Y-13789984D02*
X14443991Y-13780460D01*
X14443991Y-13780460D02*
X14434467Y-13770936D01*
X14434467Y-13770936D02*
X14424943Y-13751888D01*
X14424943Y-13751888D02*
X14415420Y-13713793D01*
X14415420Y-13713793D02*
X14415420Y-13666174D01*
X14415420Y-13666174D02*
X14424943Y-13628079D01*
X14424943Y-13628079D02*
X14434467Y-13609031D01*
X14434467Y-13609031D02*
X14443991Y-13599508D01*
X14443991Y-13599508D02*
X14463039Y-13589984D01*
X14615420Y-13789984D02*
X14615420Y-13656650D01*
X14615420Y-13675698D02*
X14624943Y-13666174D01*
X14624943Y-13666174D02*
X14643991Y-13656650D01*
X14643991Y-13656650D02*
X14672563Y-13656650D01*
X14672563Y-13656650D02*
X14691610Y-13666174D01*
X14691610Y-13666174D02*
X14701134Y-13685222D01*
X14701134Y-13685222D02*
X14701134Y-13789984D01*
X14701134Y-13685222D02*
X14710658Y-13666174D01*
X14710658Y-13666174D02*
X14729705Y-13656650D01*
X14729705Y-13656650D02*
X14758277Y-13656650D01*
X14758277Y-13656650D02*
X14777324Y-13666174D01*
X14777324Y-13666174D02*
X14786848Y-13685222D01*
X14786848Y-13685222D02*
X14786848Y-13789984D01*
X14882086Y-13789984D02*
X14882086Y-13656650D01*
X14882086Y-13675698D02*
X14891610Y-13666174D01*
X14891610Y-13666174D02*
X14910658Y-13656650D01*
X14910658Y-13656650D02*
X14939229Y-13656650D01*
X14939229Y-13656650D02*
X14958277Y-13666174D01*
X14958277Y-13666174D02*
X14967801Y-13685222D01*
X14967801Y-13685222D02*
X14967801Y-13789984D01*
X14967801Y-13685222D02*
X14977324Y-13666174D01*
X14977324Y-13666174D02*
X14996372Y-13656650D01*
X14996372Y-13656650D02*
X15024943Y-13656650D01*
X15024943Y-13656650D02*
X15043991Y-13666174D01*
X15043991Y-13666174D02*
X15053515Y-13685222D01*
X15053515Y-13685222D02*
X15053515Y-13789984D01*
X15443991Y-13580460D02*
X15272563Y-13837603D01*
X15701134Y-13589984D02*
X15720182Y-13589984D01*
X15720182Y-13589984D02*
X15739229Y-13599508D01*
X15739229Y-13599508D02*
X15748753Y-13609031D01*
X15748753Y-13609031D02*
X15758277Y-13628079D01*
X15758277Y-13628079D02*
X15767801Y-13666174D01*
X15767801Y-13666174D02*
X15767801Y-13713793D01*
X15767801Y-13713793D02*
X15758277Y-13751888D01*
X15758277Y-13751888D02*
X15748753Y-13770936D01*
X15748753Y-13770936D02*
X15739229Y-13780460D01*
X15739229Y-13780460D02*
X15720182Y-13789984D01*
X15720182Y-13789984D02*
X15701134Y-13789984D01*
X15701134Y-13789984D02*
X15682086Y-13780460D01*
X15682086Y-13780460D02*
X15672563Y-13770936D01*
X15672563Y-13770936D02*
X15663039Y-13751888D01*
X15663039Y-13751888D02*
X15653515Y-13713793D01*
X15653515Y-13713793D02*
X15653515Y-13666174D01*
X15653515Y-13666174D02*
X15663039Y-13628079D01*
X15663039Y-13628079D02*
X15672563Y-13609031D01*
X15672563Y-13609031D02*
X15682086Y-13599508D01*
X15682086Y-13599508D02*
X15701134Y-13589984D01*
X15853515Y-13770936D02*
X15863039Y-13780460D01*
X15863039Y-13780460D02*
X15853515Y-13789984D01*
X15853515Y-13789984D02*
X15843991Y-13780460D01*
X15843991Y-13780460D02*
X15853515Y-13770936D01*
X15853515Y-13770936D02*
X15853515Y-13789984D01*
X15986848Y-13589984D02*
X16005896Y-13589984D01*
X16005896Y-13589984D02*
X16024944Y-13599508D01*
X16024944Y-13599508D02*
X16034467Y-13609031D01*
X16034467Y-13609031D02*
X16043991Y-13628079D01*
X16043991Y-13628079D02*
X16053515Y-13666174D01*
X16053515Y-13666174D02*
X16053515Y-13713793D01*
X16053515Y-13713793D02*
X16043991Y-13751888D01*
X16043991Y-13751888D02*
X16034467Y-13770936D01*
X16034467Y-13770936D02*
X16024944Y-13780460D01*
X16024944Y-13780460D02*
X16005896Y-13789984D01*
X16005896Y-13789984D02*
X15986848Y-13789984D01*
X15986848Y-13789984D02*
X15967801Y-13780460D01*
X15967801Y-13780460D02*
X15958277Y-13770936D01*
X15958277Y-13770936D02*
X15948753Y-13751888D01*
X15948753Y-13751888D02*
X15939229Y-13713793D01*
X15939229Y-13713793D02*
X15939229Y-13666174D01*
X15939229Y-13666174D02*
X15948753Y-13628079D01*
X15948753Y-13628079D02*
X15958277Y-13609031D01*
X15958277Y-13609031D02*
X15967801Y-13599508D01*
X15967801Y-13599508D02*
X15986848Y-13589984D01*
X16167801Y-13675698D02*
X16148753Y-13666174D01*
X16148753Y-13666174D02*
X16139229Y-13656650D01*
X16139229Y-13656650D02*
X16129706Y-13637603D01*
X16129706Y-13637603D02*
X16129706Y-13628079D01*
X16129706Y-13628079D02*
X16139229Y-13609031D01*
X16139229Y-13609031D02*
X16148753Y-13599508D01*
X16148753Y-13599508D02*
X16167801Y-13589984D01*
X16167801Y-13589984D02*
X16205896Y-13589984D01*
X16205896Y-13589984D02*
X16224944Y-13599508D01*
X16224944Y-13599508D02*
X16234467Y-13609031D01*
X16234467Y-13609031D02*
X16243991Y-13628079D01*
X16243991Y-13628079D02*
X16243991Y-13637603D01*
X16243991Y-13637603D02*
X16234467Y-13656650D01*
X16234467Y-13656650D02*
X16224944Y-13666174D01*
X16224944Y-13666174D02*
X16205896Y-13675698D01*
X16205896Y-13675698D02*
X16167801Y-13675698D01*
X16167801Y-13675698D02*
X16148753Y-13685222D01*
X16148753Y-13685222D02*
X16139229Y-13694746D01*
X16139229Y-13694746D02*
X16129706Y-13713793D01*
X16129706Y-13713793D02*
X16129706Y-13751888D01*
X16129706Y-13751888D02*
X16139229Y-13770936D01*
X16139229Y-13770936D02*
X16148753Y-13780460D01*
X16148753Y-13780460D02*
X16167801Y-13789984D01*
X16167801Y-13789984D02*
X16205896Y-13789984D01*
X16205896Y-13789984D02*
X16224944Y-13780460D01*
X16224944Y-13780460D02*
X16234467Y-13770936D01*
X16234467Y-13770936D02*
X16243991Y-13751888D01*
X16243991Y-13751888D02*
X16243991Y-13713793D01*
X16243991Y-13713793D02*
X16234467Y-13694746D01*
X16234467Y-13694746D02*
X16224944Y-13685222D01*
X16224944Y-13685222D02*
X16205896Y-13675698D01*
X16415420Y-13589984D02*
X16377325Y-13589984D01*
X16377325Y-13589984D02*
X16358277Y-13599508D01*
X16358277Y-13599508D02*
X16348753Y-13609031D01*
X16348753Y-13609031D02*
X16329706Y-13637603D01*
X16329706Y-13637603D02*
X16320182Y-13675698D01*
X16320182Y-13675698D02*
X16320182Y-13751888D01*
X16320182Y-13751888D02*
X16329706Y-13770936D01*
X16329706Y-13770936D02*
X16339229Y-13780460D01*
X16339229Y-13780460D02*
X16358277Y-13789984D01*
X16358277Y-13789984D02*
X16396372Y-13789984D01*
X16396372Y-13789984D02*
X16415420Y-13780460D01*
X16415420Y-13780460D02*
X16424944Y-13770936D01*
X16424944Y-13770936D02*
X16434467Y-13751888D01*
X16434467Y-13751888D02*
X16434467Y-13704269D01*
X16434467Y-13704269D02*
X16424944Y-13685222D01*
X16424944Y-13685222D02*
X16415420Y-13675698D01*
X16415420Y-13675698D02*
X16396372Y-13666174D01*
X16396372Y-13666174D02*
X16358277Y-13666174D01*
X16358277Y-13666174D02*
X16339229Y-13675698D01*
X16339229Y-13675698D02*
X16329706Y-13685222D01*
X16329706Y-13685222D02*
X16320182Y-13704269D01*
X16605896Y-13589984D02*
X16567801Y-13589984D01*
X16567801Y-13589984D02*
X16548753Y-13599508D01*
X16548753Y-13599508D02*
X16539229Y-13609031D01*
X16539229Y-13609031D02*
X16520182Y-13637603D01*
X16520182Y-13637603D02*
X16510658Y-13675698D01*
X16510658Y-13675698D02*
X16510658Y-13751888D01*
X16510658Y-13751888D02*
X16520182Y-13770936D01*
X16520182Y-13770936D02*
X16529706Y-13780460D01*
X16529706Y-13780460D02*
X16548753Y-13789984D01*
X16548753Y-13789984D02*
X16586848Y-13789984D01*
X16586848Y-13789984D02*
X16605896Y-13780460D01*
X16605896Y-13780460D02*
X16615420Y-13770936D01*
X16615420Y-13770936D02*
X16624944Y-13751888D01*
X16624944Y-13751888D02*
X16624944Y-13704269D01*
X16624944Y-13704269D02*
X16615420Y-13685222D01*
X16615420Y-13685222D02*
X16605896Y-13675698D01*
X16605896Y-13675698D02*
X16586848Y-13666174D01*
X16586848Y-13666174D02*
X16548753Y-13666174D01*
X16548753Y-13666174D02*
X16529706Y-13675698D01*
X16529706Y-13675698D02*
X16520182Y-13685222D01*
X16520182Y-13685222D02*
X16510658Y-13704269D01*
X16701134Y-13589984D02*
X16701134Y-13628079D01*
X16777325Y-13589984D02*
X16777325Y-13628079D01*
X17072563Y-13866174D02*
X17063039Y-13856650D01*
X17063039Y-13856650D02*
X17043991Y-13828079D01*
X17043991Y-13828079D02*
X17034468Y-13809031D01*
X17034468Y-13809031D02*
X17024944Y-13780460D01*
X17024944Y-13780460D02*
X17015420Y-13732841D01*
X17015420Y-13732841D02*
X17015420Y-13694746D01*
X17015420Y-13694746D02*
X17024944Y-13647127D01*
X17024944Y-13647127D02*
X17034468Y-13618555D01*
X17034468Y-13618555D02*
X17043991Y-13599508D01*
X17043991Y-13599508D02*
X17063039Y-13570936D01*
X17063039Y-13570936D02*
X17072563Y-13561412D01*
X17234468Y-13656650D02*
X17234468Y-13789984D01*
X17186849Y-13580460D02*
X17139230Y-13723317D01*
X17139230Y-13723317D02*
X17263039Y-13723317D01*
X17491611Y-13789984D02*
X17491611Y-13589984D01*
X17577325Y-13789984D02*
X17577325Y-13685222D01*
X17577325Y-13685222D02*
X17567801Y-13666174D01*
X17567801Y-13666174D02*
X17548753Y-13656650D01*
X17548753Y-13656650D02*
X17520182Y-13656650D01*
X17520182Y-13656650D02*
X17501134Y-13666174D01*
X17501134Y-13666174D02*
X17491611Y-13675698D01*
X17701134Y-13789984D02*
X17682087Y-13780460D01*
X17682087Y-13780460D02*
X17672563Y-13770936D01*
X17672563Y-13770936D02*
X17663039Y-13751888D01*
X17663039Y-13751888D02*
X17663039Y-13694746D01*
X17663039Y-13694746D02*
X17672563Y-13675698D01*
X17672563Y-13675698D02*
X17682087Y-13666174D01*
X17682087Y-13666174D02*
X17701134Y-13656650D01*
X17701134Y-13656650D02*
X17729706Y-13656650D01*
X17729706Y-13656650D02*
X17748753Y-13666174D01*
X17748753Y-13666174D02*
X17758277Y-13675698D01*
X17758277Y-13675698D02*
X17767801Y-13694746D01*
X17767801Y-13694746D02*
X17767801Y-13751888D01*
X17767801Y-13751888D02*
X17758277Y-13770936D01*
X17758277Y-13770936D02*
X17748753Y-13780460D01*
X17748753Y-13780460D02*
X17729706Y-13789984D01*
X17729706Y-13789984D02*
X17701134Y-13789984D01*
X17882087Y-13789984D02*
X17863039Y-13780460D01*
X17863039Y-13780460D02*
X17853515Y-13761412D01*
X17853515Y-13761412D02*
X17853515Y-13589984D01*
X18034468Y-13780460D02*
X18015420Y-13789984D01*
X18015420Y-13789984D02*
X17977325Y-13789984D01*
X17977325Y-13789984D02*
X17958277Y-13780460D01*
X17958277Y-13780460D02*
X17948753Y-13761412D01*
X17948753Y-13761412D02*
X17948753Y-13685222D01*
X17948753Y-13685222D02*
X17958277Y-13666174D01*
X17958277Y-13666174D02*
X17977325Y-13656650D01*
X17977325Y-13656650D02*
X18015420Y-13656650D01*
X18015420Y-13656650D02*
X18034468Y-13666174D01*
X18034468Y-13666174D02*
X18043992Y-13685222D01*
X18043992Y-13685222D02*
X18043992Y-13704269D01*
X18043992Y-13704269D02*
X17948753Y-13723317D01*
X18120182Y-13780460D02*
X18139230Y-13789984D01*
X18139230Y-13789984D02*
X18177325Y-13789984D01*
X18177325Y-13789984D02*
X18196373Y-13780460D01*
X18196373Y-13780460D02*
X18205896Y-13761412D01*
X18205896Y-13761412D02*
X18205896Y-13751888D01*
X18205896Y-13751888D02*
X18196373Y-13732841D01*
X18196373Y-13732841D02*
X18177325Y-13723317D01*
X18177325Y-13723317D02*
X18148753Y-13723317D01*
X18148753Y-13723317D02*
X18129706Y-13713793D01*
X18129706Y-13713793D02*
X18120182Y-13694746D01*
X18120182Y-13694746D02*
X18120182Y-13685222D01*
X18120182Y-13685222D02*
X18129706Y-13666174D01*
X18129706Y-13666174D02*
X18148753Y-13656650D01*
X18148753Y-13656650D02*
X18177325Y-13656650D01*
X18177325Y-13656650D02*
X18196373Y-13666174D01*
X18272563Y-13866174D02*
X18282087Y-13856650D01*
X18282087Y-13856650D02*
X18301134Y-13828079D01*
X18301134Y-13828079D02*
X18310658Y-13809031D01*
X18310658Y-13809031D02*
X18320182Y-13780460D01*
X18320182Y-13780460D02*
X18329706Y-13732841D01*
X18329706Y-13732841D02*
X18329706Y-13694746D01*
X18329706Y-13694746D02*
X18320182Y-13647127D01*
X18320182Y-13647127D02*
X18310658Y-13618555D01*
X18310658Y-13618555D02*
X18301134Y-13599508D01*
X18301134Y-13599508D02*
X18282087Y-13570936D01*
X18282087Y-13570936D02*
X18272563Y-13561412D01*
M02*
