%TF.GenerationSoftware,KiCad,Pcbnew,10.0.4*%
%TF.CreationDate,2026-08-22T00:56:05+02:00*%
%TF.ProjectId,LO_PCB,4c4f5f50-4342-42e6-9b69-6361645f7063,rev?*%
%TF.SameCoordinates,Original*%
%TF.FileFunction,Legend,Top*%
%TF.FilePolarity,Positive*%
%FSLAX46Y46*%
G04 Gerber Fmt 4.6, Leading zero omitted, Abs format (unit mm)*
G04 Created by KiCad (PCBNEW 10.0.4) date 2026-08-22 00:56:05*
%MOMM*%
%LPD*%
G01*
G04 APERTURE LIST*
%ADD10C,0.150000*%
%ADD11C,0.250000*%
%ADD12C,0.120000*%
%ADD13C,0.100000*%
%ADD14C,0.200000*%
%ADD15C,0.152400*%
%ADD16C,0.000000*%
G04 APERTURE END LIST*
D10*
X145064286Y-80473866D02*
X145826191Y-80473866D01*
X145445238Y-80854819D02*
X145445238Y-80092914D01*
X146730952Y-80188152D02*
X146730952Y-80854819D01*
X146492857Y-79807200D02*
X146254762Y-80521485D01*
X146254762Y-80521485D02*
X146873809Y-80521485D01*
X147111905Y-79854819D02*
X147445238Y-80854819D01*
X147445238Y-80854819D02*
X147778571Y-79854819D01*
D11*
X142637092Y-85007833D02*
X143589473Y-85007833D01*
X146837092Y-85057833D02*
X147789473Y-85057833D01*
X147313282Y-85534023D02*
X147313282Y-84581642D01*
D12*
X157120476Y-80023855D02*
X157120476Y-80671474D01*
X157120476Y-80671474D02*
X157158571Y-80747664D01*
X157158571Y-80747664D02*
X157196666Y-80785760D01*
X157196666Y-80785760D02*
X157272857Y-80823855D01*
X157272857Y-80823855D02*
X157425238Y-80823855D01*
X157425238Y-80823855D02*
X157501428Y-80785760D01*
X157501428Y-80785760D02*
X157539523Y-80747664D01*
X157539523Y-80747664D02*
X157577619Y-80671474D01*
X157577619Y-80671474D02*
X157577619Y-80023855D01*
X158377618Y-80823855D02*
X157920475Y-80823855D01*
X158149047Y-80823855D02*
X158149047Y-80023855D01*
X158149047Y-80023855D02*
X158072856Y-80138140D01*
X158072856Y-80138140D02*
X157996666Y-80214331D01*
X157996666Y-80214331D02*
X157920475Y-80252426D01*
X145263333Y-114043855D02*
X145263333Y-114615283D01*
X145263333Y-114615283D02*
X145225238Y-114729569D01*
X145225238Y-114729569D02*
X145149047Y-114805760D01*
X145149047Y-114805760D02*
X145034762Y-114843855D01*
X145034762Y-114843855D02*
X144958571Y-114843855D01*
X145606190Y-114120045D02*
X145644286Y-114081950D01*
X145644286Y-114081950D02*
X145720476Y-114043855D01*
X145720476Y-114043855D02*
X145910952Y-114043855D01*
X145910952Y-114043855D02*
X145987143Y-114081950D01*
X145987143Y-114081950D02*
X146025238Y-114120045D01*
X146025238Y-114120045D02*
X146063333Y-114196236D01*
X146063333Y-114196236D02*
X146063333Y-114272426D01*
X146063333Y-114272426D02*
X146025238Y-114386712D01*
X146025238Y-114386712D02*
X145568095Y-114843855D01*
X145568095Y-114843855D02*
X146063333Y-114843855D01*
D10*
X140095180Y-92540476D02*
X139095180Y-93207142D01*
X140095180Y-93207142D02*
X139095180Y-92540476D01*
X139095180Y-94111904D02*
X139095180Y-93540476D01*
X139095180Y-93826190D02*
X140095180Y-93826190D01*
X140095180Y-93826190D02*
X139952323Y-93730952D01*
X139952323Y-93730952D02*
X139857085Y-93635714D01*
X139857085Y-93635714D02*
X139809466Y-93540476D01*
X140174819Y-91109999D02*
X140412914Y-91109999D01*
X140317676Y-91348094D02*
X140412914Y-91109999D01*
X140412914Y-91109999D02*
X140317676Y-90871904D01*
X140603390Y-91252856D02*
X140412914Y-91109999D01*
X140412914Y-91109999D02*
X140603390Y-90967142D01*
D12*
X137269423Y-103944807D02*
X137536089Y-103944807D01*
X137650375Y-104363855D02*
X137269423Y-104363855D01*
X137269423Y-104363855D02*
X137269423Y-103563855D01*
X137269423Y-103563855D02*
X137650375Y-103563855D01*
X137917042Y-103563855D02*
X138450376Y-104363855D01*
X138450376Y-103563855D02*
X137917042Y-104363855D01*
X138640852Y-103563855D02*
X139097995Y-103563855D01*
X138869423Y-104363855D02*
X138869423Y-103563855D01*
X139174186Y-104440045D02*
X139783709Y-104440045D01*
X140126567Y-103563855D02*
X140278948Y-103563855D01*
X140278948Y-103563855D02*
X140355138Y-103601950D01*
X140355138Y-103601950D02*
X140431329Y-103678140D01*
X140431329Y-103678140D02*
X140469424Y-103830521D01*
X140469424Y-103830521D02*
X140469424Y-104097188D01*
X140469424Y-104097188D02*
X140431329Y-104249569D01*
X140431329Y-104249569D02*
X140355138Y-104325760D01*
X140355138Y-104325760D02*
X140278948Y-104363855D01*
X140278948Y-104363855D02*
X140126567Y-104363855D01*
X140126567Y-104363855D02*
X140050376Y-104325760D01*
X140050376Y-104325760D02*
X139974186Y-104249569D01*
X139974186Y-104249569D02*
X139936090Y-104097188D01*
X139936090Y-104097188D02*
X139936090Y-103830521D01*
X139936090Y-103830521D02*
X139974186Y-103678140D01*
X139974186Y-103678140D02*
X140050376Y-103601950D01*
X140050376Y-103601950D02*
X140126567Y-103563855D01*
X140774185Y-104325760D02*
X140888471Y-104363855D01*
X140888471Y-104363855D02*
X141078947Y-104363855D01*
X141078947Y-104363855D02*
X141155138Y-104325760D01*
X141155138Y-104325760D02*
X141193233Y-104287664D01*
X141193233Y-104287664D02*
X141231328Y-104211474D01*
X141231328Y-104211474D02*
X141231328Y-104135283D01*
X141231328Y-104135283D02*
X141193233Y-104059093D01*
X141193233Y-104059093D02*
X141155138Y-104020998D01*
X141155138Y-104020998D02*
X141078947Y-103982902D01*
X141078947Y-103982902D02*
X140926566Y-103944807D01*
X140926566Y-103944807D02*
X140850376Y-103906712D01*
X140850376Y-103906712D02*
X140812281Y-103868617D01*
X140812281Y-103868617D02*
X140774185Y-103792426D01*
X140774185Y-103792426D02*
X140774185Y-103716236D01*
X140774185Y-103716236D02*
X140812281Y-103640045D01*
X140812281Y-103640045D02*
X140850376Y-103601950D01*
X140850376Y-103601950D02*
X140926566Y-103563855D01*
X140926566Y-103563855D02*
X141117043Y-103563855D01*
X141117043Y-103563855D02*
X141231328Y-103601950D01*
X142031329Y-104287664D02*
X141993233Y-104325760D01*
X141993233Y-104325760D02*
X141878948Y-104363855D01*
X141878948Y-104363855D02*
X141802757Y-104363855D01*
X141802757Y-104363855D02*
X141688471Y-104325760D01*
X141688471Y-104325760D02*
X141612281Y-104249569D01*
X141612281Y-104249569D02*
X141574186Y-104173379D01*
X141574186Y-104173379D02*
X141536090Y-104020998D01*
X141536090Y-104020998D02*
X141536090Y-103906712D01*
X141536090Y-103906712D02*
X141574186Y-103754331D01*
X141574186Y-103754331D02*
X141612281Y-103678140D01*
X141612281Y-103678140D02*
X141688471Y-103601950D01*
X141688471Y-103601950D02*
X141802757Y-103563855D01*
X141802757Y-103563855D02*
X141878948Y-103563855D01*
X141878948Y-103563855D02*
X141993233Y-103601950D01*
X141993233Y-103601950D02*
X142031329Y-103640045D01*
X142183710Y-104440045D02*
X142793233Y-104440045D01*
X142983710Y-104363855D02*
X142983710Y-103563855D01*
X143364662Y-104363855D02*
X143364662Y-103563855D01*
X143364662Y-103563855D02*
X143821805Y-104363855D01*
X143821805Y-104363855D02*
X143821805Y-103563855D01*
D13*
X153949999Y-95014895D02*
X153949999Y-95205371D01*
X153759523Y-95129180D02*
X153949999Y-95205371D01*
X153949999Y-95205371D02*
X154140476Y-95129180D01*
X153835714Y-95357752D02*
X153949999Y-95205371D01*
X153949999Y-95205371D02*
X154064285Y-95357752D01*
D12*
X159860476Y-94103855D02*
X159860476Y-94751474D01*
X159860476Y-94751474D02*
X159898571Y-94827664D01*
X159898571Y-94827664D02*
X159936666Y-94865760D01*
X159936666Y-94865760D02*
X160012857Y-94903855D01*
X160012857Y-94903855D02*
X160165238Y-94903855D01*
X160165238Y-94903855D02*
X160241428Y-94865760D01*
X160241428Y-94865760D02*
X160279523Y-94827664D01*
X160279523Y-94827664D02*
X160317619Y-94751474D01*
X160317619Y-94751474D02*
X160317619Y-94103855D01*
X160660475Y-94180045D02*
X160698571Y-94141950D01*
X160698571Y-94141950D02*
X160774761Y-94103855D01*
X160774761Y-94103855D02*
X160965237Y-94103855D01*
X160965237Y-94103855D02*
X161041428Y-94141950D01*
X161041428Y-94141950D02*
X161079523Y-94180045D01*
X161079523Y-94180045D02*
X161117618Y-94256236D01*
X161117618Y-94256236D02*
X161117618Y-94332426D01*
X161117618Y-94332426D02*
X161079523Y-94446712D01*
X161079523Y-94446712D02*
X160622380Y-94903855D01*
X160622380Y-94903855D02*
X161117618Y-94903855D01*
X141213333Y-83573855D02*
X141213333Y-84145283D01*
X141213333Y-84145283D02*
X141175238Y-84259569D01*
X141175238Y-84259569D02*
X141099047Y-84335760D01*
X141099047Y-84335760D02*
X140984762Y-84373855D01*
X140984762Y-84373855D02*
X140908571Y-84373855D01*
X142013333Y-84373855D02*
X141556190Y-84373855D01*
X141784762Y-84373855D02*
X141784762Y-83573855D01*
X141784762Y-83573855D02*
X141708571Y-83688140D01*
X141708571Y-83688140D02*
X141632381Y-83764331D01*
X141632381Y-83764331D02*
X141556190Y-83802426D01*
X177650375Y-104113855D02*
X177269423Y-104113855D01*
X177269423Y-104113855D02*
X177269423Y-103313855D01*
X178069423Y-103313855D02*
X178221804Y-103313855D01*
X178221804Y-103313855D02*
X178297994Y-103351950D01*
X178297994Y-103351950D02*
X178374185Y-103428140D01*
X178374185Y-103428140D02*
X178412280Y-103580521D01*
X178412280Y-103580521D02*
X178412280Y-103847188D01*
X178412280Y-103847188D02*
X178374185Y-103999569D01*
X178374185Y-103999569D02*
X178297994Y-104075760D01*
X178297994Y-104075760D02*
X178221804Y-104113855D01*
X178221804Y-104113855D02*
X178069423Y-104113855D01*
X178069423Y-104113855D02*
X177993232Y-104075760D01*
X177993232Y-104075760D02*
X177917042Y-103999569D01*
X177917042Y-103999569D02*
X177878946Y-103847188D01*
X177878946Y-103847188D02*
X177878946Y-103580521D01*
X177878946Y-103580521D02*
X177917042Y-103428140D01*
X177917042Y-103428140D02*
X177993232Y-103351950D01*
X177993232Y-103351950D02*
X178069423Y-103313855D01*
X178564661Y-104190045D02*
X179174184Y-104190045D01*
X179517042Y-103313855D02*
X179669423Y-103313855D01*
X179669423Y-103313855D02*
X179745613Y-103351950D01*
X179745613Y-103351950D02*
X179821804Y-103428140D01*
X179821804Y-103428140D02*
X179859899Y-103580521D01*
X179859899Y-103580521D02*
X179859899Y-103847188D01*
X179859899Y-103847188D02*
X179821804Y-103999569D01*
X179821804Y-103999569D02*
X179745613Y-104075760D01*
X179745613Y-104075760D02*
X179669423Y-104113855D01*
X179669423Y-104113855D02*
X179517042Y-104113855D01*
X179517042Y-104113855D02*
X179440851Y-104075760D01*
X179440851Y-104075760D02*
X179364661Y-103999569D01*
X179364661Y-103999569D02*
X179326565Y-103847188D01*
X179326565Y-103847188D02*
X179326565Y-103580521D01*
X179326565Y-103580521D02*
X179364661Y-103428140D01*
X179364661Y-103428140D02*
X179440851Y-103351950D01*
X179440851Y-103351950D02*
X179517042Y-103313855D01*
X180202756Y-103313855D02*
X180202756Y-103961474D01*
X180202756Y-103961474D02*
X180240851Y-104037664D01*
X180240851Y-104037664D02*
X180278946Y-104075760D01*
X180278946Y-104075760D02*
X180355137Y-104113855D01*
X180355137Y-104113855D02*
X180507518Y-104113855D01*
X180507518Y-104113855D02*
X180583708Y-104075760D01*
X180583708Y-104075760D02*
X180621803Y-104037664D01*
X180621803Y-104037664D02*
X180659899Y-103961474D01*
X180659899Y-103961474D02*
X180659899Y-103313855D01*
X180926565Y-103313855D02*
X181383708Y-103313855D01*
X181155136Y-104113855D02*
X181155136Y-103313855D01*
X181459899Y-104190045D02*
X182069422Y-104190045D01*
X182526565Y-103694807D02*
X182640851Y-103732902D01*
X182640851Y-103732902D02*
X182678946Y-103770998D01*
X182678946Y-103770998D02*
X182717042Y-103847188D01*
X182717042Y-103847188D02*
X182717042Y-103961474D01*
X182717042Y-103961474D02*
X182678946Y-104037664D01*
X182678946Y-104037664D02*
X182640851Y-104075760D01*
X182640851Y-104075760D02*
X182564661Y-104113855D01*
X182564661Y-104113855D02*
X182259899Y-104113855D01*
X182259899Y-104113855D02*
X182259899Y-103313855D01*
X182259899Y-103313855D02*
X182526565Y-103313855D01*
X182526565Y-103313855D02*
X182602756Y-103351950D01*
X182602756Y-103351950D02*
X182640851Y-103390045D01*
X182640851Y-103390045D02*
X182678946Y-103466236D01*
X182678946Y-103466236D02*
X182678946Y-103542426D01*
X182678946Y-103542426D02*
X182640851Y-103618617D01*
X182640851Y-103618617D02*
X182602756Y-103656712D01*
X182602756Y-103656712D02*
X182526565Y-103694807D01*
X182526565Y-103694807D02*
X182259899Y-103694807D01*
X177650375Y-92363855D02*
X177269423Y-92363855D01*
X177269423Y-92363855D02*
X177269423Y-91563855D01*
X178069423Y-91563855D02*
X178221804Y-91563855D01*
X178221804Y-91563855D02*
X178297994Y-91601950D01*
X178297994Y-91601950D02*
X178374185Y-91678140D01*
X178374185Y-91678140D02*
X178412280Y-91830521D01*
X178412280Y-91830521D02*
X178412280Y-92097188D01*
X178412280Y-92097188D02*
X178374185Y-92249569D01*
X178374185Y-92249569D02*
X178297994Y-92325760D01*
X178297994Y-92325760D02*
X178221804Y-92363855D01*
X178221804Y-92363855D02*
X178069423Y-92363855D01*
X178069423Y-92363855D02*
X177993232Y-92325760D01*
X177993232Y-92325760D02*
X177917042Y-92249569D01*
X177917042Y-92249569D02*
X177878946Y-92097188D01*
X177878946Y-92097188D02*
X177878946Y-91830521D01*
X177878946Y-91830521D02*
X177917042Y-91678140D01*
X177917042Y-91678140D02*
X177993232Y-91601950D01*
X177993232Y-91601950D02*
X178069423Y-91563855D01*
X178564661Y-92440045D02*
X179174184Y-92440045D01*
X179517042Y-91563855D02*
X179669423Y-91563855D01*
X179669423Y-91563855D02*
X179745613Y-91601950D01*
X179745613Y-91601950D02*
X179821804Y-91678140D01*
X179821804Y-91678140D02*
X179859899Y-91830521D01*
X179859899Y-91830521D02*
X179859899Y-92097188D01*
X179859899Y-92097188D02*
X179821804Y-92249569D01*
X179821804Y-92249569D02*
X179745613Y-92325760D01*
X179745613Y-92325760D02*
X179669423Y-92363855D01*
X179669423Y-92363855D02*
X179517042Y-92363855D01*
X179517042Y-92363855D02*
X179440851Y-92325760D01*
X179440851Y-92325760D02*
X179364661Y-92249569D01*
X179364661Y-92249569D02*
X179326565Y-92097188D01*
X179326565Y-92097188D02*
X179326565Y-91830521D01*
X179326565Y-91830521D02*
X179364661Y-91678140D01*
X179364661Y-91678140D02*
X179440851Y-91601950D01*
X179440851Y-91601950D02*
X179517042Y-91563855D01*
X180202756Y-91563855D02*
X180202756Y-92211474D01*
X180202756Y-92211474D02*
X180240851Y-92287664D01*
X180240851Y-92287664D02*
X180278946Y-92325760D01*
X180278946Y-92325760D02*
X180355137Y-92363855D01*
X180355137Y-92363855D02*
X180507518Y-92363855D01*
X180507518Y-92363855D02*
X180583708Y-92325760D01*
X180583708Y-92325760D02*
X180621803Y-92287664D01*
X180621803Y-92287664D02*
X180659899Y-92211474D01*
X180659899Y-92211474D02*
X180659899Y-91563855D01*
X180926565Y-91563855D02*
X181383708Y-91563855D01*
X181155136Y-92363855D02*
X181155136Y-91563855D01*
X181459899Y-92440045D02*
X182069422Y-92440045D01*
X182221803Y-92135283D02*
X182602756Y-92135283D01*
X182145613Y-92363855D02*
X182412280Y-91563855D01*
X182412280Y-91563855D02*
X182678946Y-92363855D01*
%TO.C,C40*%
X151149420Y-95830000D02*
X151430580Y-95830000D01*
X151149420Y-96850000D02*
X151430580Y-96850000D01*
%TO.C,C39*%
X162175772Y-92862064D02*
X161976963Y-93060873D01*
X162897021Y-93583313D02*
X162698212Y-93782122D01*
%TO.C,C15*%
X169751800Y-80913181D02*
X169751800Y-80632019D01*
X170771800Y-80913181D02*
X170771800Y-80632019D01*
%TO.C,R13*%
X163030518Y-99379165D02*
X162813237Y-99161884D01*
X163567917Y-98841764D02*
X163350636Y-98624483D01*
%TO.C,C42*%
X158814000Y-92474420D02*
X158814000Y-92755580D01*
X159834000Y-92474420D02*
X159834000Y-92755580D01*
%TO.C,R30*%
X146936001Y-101890157D02*
X146936001Y-102197439D01*
X147696001Y-101890157D02*
X147696001Y-102197439D01*
%TO.C,R16*%
X151277501Y-106662742D02*
X151277500Y-107137258D01*
X152322500Y-106662742D02*
X152322499Y-107137258D01*
%TO.C,C9*%
X173959999Y-97932164D02*
X173960000Y-98147834D01*
X174679998Y-97932166D02*
X174679999Y-98147836D01*
%TO.C,C25*%
X168413820Y-89482200D02*
X168694979Y-89482200D01*
X168413821Y-90502200D02*
X168694980Y-90502200D01*
%TO.C,R11*%
X159673226Y-104339372D02*
X159890507Y-104122092D01*
X160210625Y-104876772D02*
X160427906Y-104659492D01*
%TO.C,C20*%
X165282035Y-100372799D02*
X165066366Y-100372800D01*
X165282036Y-99652800D02*
X165066367Y-99652801D01*
%TO.C,C14*%
X167719800Y-80913181D02*
X167719800Y-80632019D01*
X168739800Y-80913181D02*
X168739800Y-80632019D01*
%TO.C,C30*%
X156290000Y-102835764D02*
X156290000Y-103051435D01*
X157010000Y-102835765D02*
X157010000Y-103051436D01*
%TO.C,C33*%
X150644570Y-102481781D02*
X150843381Y-102282970D01*
X151365819Y-103203030D02*
X151564630Y-103004219D01*
%TO.C,R15*%
X168050000Y-102473642D02*
X168050000Y-102166360D01*
X168810000Y-102473642D02*
X168810000Y-102166360D01*
%TO.C,R14*%
X166981201Y-103188558D02*
X166981201Y-103495840D01*
X167741201Y-103188558D02*
X167741201Y-103495840D01*
%TO.C,R3*%
X160232800Y-81313241D02*
X160232800Y-81005959D01*
X160992800Y-81313241D02*
X160992800Y-81005959D01*
%TO.C,R6*%
X162673844Y-104098541D02*
X162456563Y-103881260D01*
X163211245Y-103561140D02*
X162993964Y-103343859D01*
%TO.C,C10*%
X176170001Y-96213431D02*
X176170002Y-95997766D01*
X176889998Y-96213434D02*
X176889999Y-95997769D01*
%TO.C,R2*%
X151520258Y-84823999D02*
X151045742Y-84823999D01*
X151520258Y-85868999D02*
X151045742Y-85868999D01*
%TO.C,C3*%
X161252800Y-82263237D02*
X161252800Y-82047565D01*
X161972800Y-82263237D02*
X161972800Y-82047565D01*
%TO.C,C21*%
X160899998Y-102192164D02*
X160899999Y-102407836D01*
X161620001Y-102192164D02*
X161620002Y-102407836D01*
%TO.C,R20*%
X152957257Y-109007500D02*
X152482743Y-109007500D01*
X152957257Y-110052500D02*
X152482743Y-110052500D01*
%TO.C,C2*%
X153928400Y-83922219D02*
X153928400Y-84203381D01*
X154948400Y-83922219D02*
X154948400Y-84203381D01*
%TO.C,C4*%
X161852800Y-84594019D02*
X161852800Y-84875181D01*
X162872800Y-84594019D02*
X162872800Y-84875181D01*
%TO.C,U1*%
D14*
X157485599Y-81045798D02*
X157135600Y-81045798D01*
X157485599Y-83945803D02*
X157135600Y-83945803D01*
X159735600Y-81045798D02*
X159385601Y-81045798D01*
X159735600Y-83945803D02*
X158810601Y-83945798D01*
%TO.C,R9*%
D12*
X152122659Y-103089940D02*
X152339940Y-102872659D01*
X152660060Y-103627341D02*
X152877341Y-103410060D01*
%TO.C,Q1*%
D15*
X149929100Y-80977700D02*
X149929100Y-82067360D01*
X149929100Y-83240840D02*
X149929100Y-84330500D01*
X149929100Y-84330500D02*
X151986500Y-84330500D01*
X151986500Y-80977700D02*
X149929100Y-80977700D01*
X151986500Y-83019860D02*
X151986500Y-82288340D01*
X153447000Y-83606600D02*
G75*
G02*
X153294600Y-83606600I-76200J0D01*
G01*
X153294600Y-83606600D02*
G75*
G02*
X153447000Y-83606600I76200J0D01*
G01*
%TO.C,C22*%
D12*
X168426821Y-84300600D02*
X168707980Y-84300600D01*
X168426822Y-85320600D02*
X168707981Y-85320600D01*
%TO.C,J2*%
X145310000Y-118140000D02*
X145310001Y-116760000D01*
X146690000Y-118139999D02*
X145310000Y-118140000D01*
X147960000Y-115380000D02*
X160770000Y-115380000D01*
X147960000Y-118140000D02*
X147960000Y-115380000D01*
X147960000Y-118140000D02*
X160770000Y-118140000D01*
X160770000Y-118140000D02*
X160770000Y-115380000D01*
%TO.C,C27*%
X154219353Y-93099062D02*
X154066850Y-92946558D01*
X154728470Y-92589944D02*
X154575967Y-92437440D01*
%TO.C,R17*%
X158301517Y-109048483D02*
X158084236Y-109265764D01*
X158838918Y-109585884D02*
X158621637Y-109803165D01*
%TO.C,C41*%
X163298780Y-93987063D02*
X163099970Y-94185873D01*
X164020030Y-94708311D02*
X163821220Y-94907121D01*
%TO.C,C45*%
X146714420Y-86345000D02*
X146995580Y-86345000D01*
X146714420Y-87365000D02*
X146995580Y-87365000D01*
%TO.C,R27*%
X147666560Y-100132200D02*
X147973842Y-100132200D01*
X147666560Y-100892200D02*
X147973842Y-100892200D01*
%TO.C,R7*%
X153641533Y-91104325D02*
X153858814Y-91321605D01*
X154178934Y-90566925D02*
X154396215Y-90784205D01*
%TO.C,C43*%
X143990581Y-87890000D02*
X143709419Y-87890000D01*
X143990581Y-88910000D02*
X143709419Y-88910000D01*
%TO.C,C19*%
X165284635Y-101388799D02*
X165068966Y-101388800D01*
X165284636Y-100668800D02*
X165068967Y-100668801D01*
%TO.C,C28*%
X163959189Y-95221692D02*
X164111693Y-95069190D01*
X164468307Y-95730810D02*
X164620811Y-95578308D01*
%TO.C,R25*%
X147666560Y-99082200D02*
X147973842Y-99082200D01*
X147666560Y-99842200D02*
X147973842Y-99842200D01*
%TO.C,R24*%
X143376359Y-99080000D02*
X143683641Y-99080000D01*
X143376359Y-99840000D02*
X143683641Y-99840000D01*
%TO.C,R8*%
X165929940Y-94612660D02*
X165712659Y-94829940D01*
X166467341Y-95150060D02*
X166250060Y-95367340D01*
%TO.C,C8*%
X170950001Y-97183434D02*
X170950000Y-96967764D01*
X171670000Y-97183436D02*
X171669999Y-96967766D01*
%TO.C,R28*%
X157887258Y-113677500D02*
X157412742Y-113677500D01*
X157887258Y-114722500D02*
X157412742Y-114722500D01*
%TO.C,C36*%
X155766000Y-92474420D02*
X155766000Y-92755580D01*
X156786000Y-92474420D02*
X156786000Y-92755580D01*
%TO.C,R19*%
X151563303Y-94593429D02*
X151227769Y-94257897D01*
X152302231Y-93854503D02*
X151966697Y-93518971D01*
%TO.C,C5*%
X160252800Y-84594019D02*
X160252800Y-84875181D01*
X161272800Y-84594019D02*
X161272800Y-84875181D01*
%TO.C,C48*%
X149771365Y-100150000D02*
X149987037Y-100150000D01*
X149771365Y-100870000D02*
X149987037Y-100870000D01*
%TO.C,C24*%
X168426817Y-87831201D02*
X168707976Y-87831201D01*
X168426818Y-88851201D02*
X168707977Y-88851201D01*
%TO.C,R32*%
X151242500Y-113211342D02*
X151242500Y-113685858D01*
X152287500Y-113211342D02*
X152287500Y-113685858D01*
%TO.C,R21*%
X148437258Y-89377500D02*
X147962742Y-89377500D01*
X148437258Y-90422500D02*
X147962742Y-90422500D01*
%TO.C,C17*%
X159710602Y-106595034D02*
X159710601Y-106379365D01*
X160430601Y-106595035D02*
X160430600Y-106379366D01*
%TO.C,R22*%
X147127500Y-93062258D02*
X147127500Y-92587742D01*
X148172500Y-93062258D02*
X148172500Y-92587742D01*
%TO.C,C34*%
X157290000Y-92755580D02*
X157290000Y-92474420D01*
X158310000Y-92755580D02*
X158310000Y-92474420D01*
%TO.C,C23*%
X168426221Y-85926200D02*
X168707380Y-85926200D01*
X168426222Y-86946200D02*
X168707381Y-86946200D01*
%TO.C,C16*%
X171402800Y-80900181D02*
X171402800Y-80619019D01*
X172422800Y-80900181D02*
X172422800Y-80619019D01*
%TO.C,C38*%
X152387228Y-93224068D02*
X152586038Y-93422878D01*
X153108476Y-92502818D02*
X153307286Y-92701628D01*
%TO.C,X1*%
D15*
X141054901Y-95253740D02*
X141054902Y-96978400D01*
X141054902Y-89561600D02*
X141054901Y-91286260D01*
X141054902Y-96978400D02*
X141776262Y-96978400D01*
X141776262Y-89561600D02*
X141054902Y-89561600D01*
X145743742Y-96978400D02*
X146465102Y-96978400D01*
X146465102Y-89561600D02*
X145832642Y-89561600D01*
X146465102Y-96978400D02*
X146465103Y-95253740D01*
X146465103Y-91286260D02*
X146465102Y-89561600D01*
%TO.C,R26*%
D12*
X155277500Y-112037258D02*
X155277500Y-111562742D01*
X156322500Y-112037258D02*
X156322500Y-111562742D01*
%TO.C,C46*%
X141412164Y-99102200D02*
X141627836Y-99102200D01*
X141412164Y-99822200D02*
X141627836Y-99822200D01*
%TO.C,C1*%
X155554000Y-83922219D02*
X155554000Y-84203381D01*
X156574000Y-83922219D02*
X156574000Y-84203381D01*
%TO.C,C32*%
X157479681Y-108227719D02*
X157632184Y-108380222D01*
X157988798Y-107718602D02*
X158141301Y-107871105D01*
%TO.C,C29*%
X153030600Y-98202636D02*
X153030600Y-97986964D01*
X153750600Y-98202636D02*
X153750600Y-97986964D01*
%TO.C,C12*%
X178250965Y-108060200D02*
X178466637Y-108060200D01*
X178250965Y-108780200D02*
X178466637Y-108780200D01*
%TO.C,C26*%
X165122365Y-102472200D02*
X165338037Y-102472200D01*
X165122365Y-103192200D02*
X165338037Y-103192200D01*
%TO.C,C13*%
X166068800Y-80913181D02*
X166068800Y-80632019D01*
X167088800Y-80913181D02*
X167088800Y-80632019D01*
%TO.C,U2*%
D15*
X154356401Y-95288400D02*
X154356401Y-95778659D01*
X154356401Y-101198941D02*
X154356401Y-101689200D01*
X154356401Y-101689200D02*
X154846660Y-101689200D01*
X154846660Y-95288400D02*
X154356401Y-95288400D01*
X160266942Y-101689200D02*
X160757201Y-101689200D01*
X160757201Y-95288400D02*
X160266942Y-95288400D01*
X160757201Y-95778659D02*
X160757201Y-95288400D01*
X160757201Y-101689200D02*
X160757201Y-101198941D01*
D16*
G36*
X154029401Y-100929301D02*
G01*
X153775401Y-100929301D01*
X153775401Y-100548301D01*
X154029401Y-100548301D01*
X154029401Y-100929301D01*
G37*
G36*
X155497300Y-94961400D02*
G01*
X155116300Y-94961400D01*
X155116300Y-94707400D01*
X155497300Y-94707400D01*
X155497300Y-94961400D01*
G37*
G36*
X159997302Y-102270200D02*
G01*
X159616302Y-102270200D01*
X159616302Y-102016200D01*
X159997302Y-102016200D01*
X159997302Y-102270200D01*
G37*
G36*
X161338201Y-96429299D02*
G01*
X161084201Y-96429299D01*
X161084201Y-96048299D01*
X161338201Y-96048299D01*
X161338201Y-96429299D01*
G37*
%TO.C,J1*%
D12*
X142516798Y-84031599D02*
X142516800Y-82651601D01*
X143896801Y-84031600D02*
X142516798Y-84031599D01*
X145166798Y-84031599D02*
X145166800Y-81271601D01*
X145166798Y-84031599D02*
X147816799Y-84031601D01*
X145166800Y-81271601D02*
X147816801Y-81271600D01*
X147816799Y-84031601D02*
X147816801Y-81271600D01*
%TO.C,R5*%
X165185342Y-84301100D02*
X165659858Y-84301100D01*
X165185342Y-85346100D02*
X165659858Y-85346100D01*
%TO.C,C37*%
X154789999Y-106659419D02*
X154790001Y-106940580D01*
X155809999Y-106659420D02*
X155810001Y-106940581D01*
%TO.C,R18*%
X159507060Y-109249940D02*
X159724341Y-109032659D01*
X160044461Y-109787341D02*
X160261742Y-109570060D01*
%TO.C,C11*%
X154511800Y-81141181D02*
X154511800Y-80860019D01*
X155531800Y-81141181D02*
X155531800Y-80860019D01*
%TO.C,C44*%
X146734420Y-87890000D02*
X147015580Y-87890000D01*
X146734420Y-88910000D02*
X147015580Y-88910000D01*
%TO.C,C31*%
X154171693Y-102494190D02*
X154019189Y-102646692D01*
X154680811Y-103003308D02*
X154528307Y-103155810D01*
%TO.C,C47*%
X149772365Y-99102200D02*
X149988037Y-99102200D01*
X149772365Y-99822200D02*
X149988037Y-99822200D01*
%TO.C,C35*%
X152805000Y-106778747D02*
X152804999Y-107301253D01*
X154275001Y-106778747D02*
X154275000Y-107301253D01*
%TO.C,C18*%
X158694601Y-106590891D02*
X158694601Y-106375220D01*
X159414601Y-106590892D02*
X159414601Y-106375221D01*
%TO.C,C7*%
X178314364Y-96225600D02*
X178530036Y-96225600D01*
X178314364Y-96945600D02*
X178530036Y-96945600D01*
%TO.C,C6*%
X169360963Y-97196400D02*
X169576633Y-97196401D01*
X169360965Y-97916399D02*
X169576635Y-97916400D01*
%TO.C,R31*%
X153782500Y-113199142D02*
X153782500Y-113673658D01*
X154827500Y-113199142D02*
X154827500Y-113673658D01*
%TO.C,R29*%
X144710000Y-99816358D02*
X144710000Y-100123640D01*
X145470000Y-99816358D02*
X145470000Y-100123640D01*
%TO.C,R33*%
X148702500Y-113211342D02*
X148702500Y-113685858D01*
X149747500Y-113211342D02*
X149747500Y-113685858D01*
%TO.C,R23*%
X145840000Y-98796359D02*
X145840000Y-99103641D01*
X146600000Y-98796359D02*
X146600000Y-99103641D01*
%TO.C,R4*%
X164151300Y-82647858D02*
X164151300Y-82173342D01*
X165196300Y-82647858D02*
X165196300Y-82173342D01*
%TO.C,R12*%
X163030517Y-100605684D02*
X162813237Y-100822965D01*
X163567917Y-101143083D02*
X163350637Y-101360364D01*
%TO.C,R1*%
X162248800Y-82288241D02*
X162248800Y-81980959D01*
X163008800Y-82288241D02*
X163008800Y-81980959D01*
%TO.C,R10*%
X157909316Y-104880916D02*
X157692036Y-104663635D01*
X158446716Y-104343517D02*
X158229436Y-104126236D01*
%TD*%
M02*
