%TF.GenerationSoftware,KiCad,Pcbnew,10.0.4*%
%TF.CreationDate,2026-08-17T00:35:40+02:00*%
%TF.ProjectId,LO_PCB,4c4f5f50-4342-42e6-9b69-6361645f7063,rev?*%
%TF.SameCoordinates,Original*%
%TF.FileFunction,Soldermask,Top*%
%TF.FilePolarity,Negative*%
%FSLAX46Y46*%
G04 Gerber Fmt 4.6, Leading zero omitted, Abs format (unit mm)*
G04 Created by KiCad (PCBNEW 10.0.4) date 2026-08-17 00:35:40*
%MOMM*%
%LPD*%
G01*
G04 APERTURE LIST*
G04 Aperture macros list*
%AMRoundRect*
0 Rectangle with rounded corners*
0 $1 Rounding radius*
0 $2 $3 $4 $5 $6 $7 $8 $9 X,Y pos of 4 corners*
0 Add a 4 corners polygon primitive as box body*
4,1,4,$2,$3,$4,$5,$6,$7,$8,$9,$2,$3,0*
0 Add four circle primitives for the rounded corners*
1,1,$1+$1,$2,$3*
1,1,$1+$1,$4,$5*
1,1,$1+$1,$6,$7*
1,1,$1+$1,$8,$9*
0 Add four rect primitives between the rounded corners*
20,1,$1+$1,$2,$3,$4,$5,0*
20,1,$1+$1,$4,$5,$6,$7,0*
20,1,$1+$1,$6,$7,$8,$9,0*
20,1,$1+$1,$8,$9,$2,$3,0*%
G04 Aperture macros list end*
%ADD10C,0.000000*%
%ADD11C,0.100000*%
%ADD12RoundRect,0.225000X-0.225000X-0.250000X0.225000X-0.250000X0.225000X0.250000X-0.225000X0.250000X0*%
%ADD13RoundRect,0.225000X-0.017678X0.335876X-0.335876X0.017678X0.017678X-0.335876X0.335876X-0.017678X0*%
%ADD14RoundRect,0.225000X0.250000X-0.225000X0.250000X0.225000X-0.250000X0.225000X-0.250000X-0.225000X0*%
%ADD15RoundRect,0.135000X0.226274X0.035355X0.035355X0.226274X-0.226274X-0.035355X-0.035355X-0.226274X0*%
%ADD16RoundRect,0.225000X-0.250000X0.225000X-0.250000X-0.225000X0.250000X-0.225000X0.250000X0.225000X0*%
%ADD17RoundRect,0.135000X-0.185000X0.135000X-0.185000X-0.135000X0.185000X-0.135000X0.185000X0.135000X0*%
%ADD18RoundRect,0.200000X-0.275000X0.200000X-0.275000X-0.200000X0.275000X-0.200000X0.275000X0.200000X0*%
%ADD19RoundRect,0.140000X-0.170000X0.140000X-0.170000X-0.140000X0.170000X-0.140000X0.170000X0.140000X0*%
%ADD20C,0.700000*%
%ADD21C,4.400000*%
%ADD22RoundRect,0.135000X0.035355X-0.226274X0.226274X-0.035355X-0.035355X0.226274X-0.226274X0.035355X0*%
%ADD23RoundRect,0.140000X0.140000X0.170000X-0.140000X0.170000X-0.140000X-0.170000X0.140000X-0.170000X0*%
%ADD24RoundRect,0.225000X0.017678X-0.335876X0.335876X-0.017678X-0.017678X0.335876X-0.335876X0.017678X0*%
%ADD25RoundRect,0.135000X0.185000X-0.135000X0.185000X0.135000X-0.185000X0.135000X-0.185000X-0.135000X0*%
%ADD26RoundRect,0.140000X0.170000X-0.140000X0.170000X0.140000X-0.170000X0.140000X-0.170000X-0.140000X0*%
%ADD27RoundRect,0.200000X0.200000X0.275000X-0.200000X0.275000X-0.200000X-0.275000X0.200000X-0.275000X0*%
%ADD28O,0.599999X0.249999*%
%ADD29C,0.600000*%
%ADD30R,1.200000X2.000001*%
%ADD31R,1.016000X0.508000*%
%ADD32R,1.700000X1.700000*%
%ADD33C,1.700000*%
%ADD34RoundRect,0.140000X0.219203X0.021213X0.021213X0.219203X-0.219203X-0.021213X-0.021213X-0.219203X0*%
%ADD35RoundRect,0.135000X-0.035355X0.226274X-0.226274X0.035355X0.035355X-0.226274X0.226274X-0.035355X0*%
%ADD36R,1.397000X1.346200*%
%ADD37RoundRect,0.135000X-0.135000X-0.185000X0.135000X-0.185000X0.135000X0.185000X-0.135000X0.185000X0*%
%ADD38RoundRect,0.135000X-0.226274X-0.035355X-0.035355X-0.226274X0.226274X0.035355X0.035355X0.226274X0*%
%ADD39RoundRect,0.225000X0.225000X0.250000X-0.225000X0.250000X-0.225000X-0.250000X0.225000X-0.250000X0*%
%ADD40RoundRect,0.140000X0.021213X-0.219203X0.219203X-0.021213X-0.021213X0.219203X-0.219203X0.021213X0*%
%ADD41RoundRect,0.147500X-0.147500X-0.172500X0.147500X-0.172500X0.147500X0.172500X-0.147500X0.172500X0*%
%ADD42RoundRect,0.200000X0.335876X0.053033X0.053033X0.335876X-0.335876X-0.053033X-0.053033X-0.335876X0*%
%ADD43RoundRect,0.140000X-0.140000X-0.170000X0.140000X-0.170000X0.140000X0.170000X-0.140000X0.170000X0*%
%ADD44RoundRect,0.200000X0.275000X-0.200000X0.275000X0.200000X-0.275000X0.200000X-0.275000X-0.200000X0*%
%ADD45RoundRect,0.147500X0.172500X-0.147500X0.172500X0.147500X-0.172500X0.147500X-0.172500X-0.147500X0*%
%ADD46RoundRect,0.225000X-0.335876X-0.017678X-0.017678X-0.335876X0.335876X0.017678X0.017678X0.335876X0*%
%ADD47RoundRect,0.140000X-0.219203X-0.021213X-0.021213X-0.219203X0.219203X0.021213X0.021213X0.219203X0*%
%ADD48R,0.900000X0.610000*%
%ADD49R,5.000000X1.400000*%
%ADD50R,0.708000X0.254800*%
%ADD51R,0.254800X0.708000*%
%ADD52C,1.016000*%
%ADD53RoundRect,0.200000X-0.200000X-0.275000X0.200000X-0.275000X0.200000X0.275000X-0.200000X0.275000X0*%
%ADD54RoundRect,0.140000X-0.021213X0.219203X-0.219203X0.021213X0.021213X-0.219203X0.219203X-0.021213X0*%
%ADD55RoundRect,0.250000X-0.475000X0.250000X-0.475000X-0.250000X0.475000X-0.250000X0.475000X0.250000X0*%
G04 APERTURE END LIST*
D10*
G36*
X142106600Y-78710000D02*
G01*
X142074900Y-78710400D01*
X142043100Y-78711700D01*
X142011400Y-78713800D01*
X141979700Y-78716700D01*
X141948200Y-78720500D01*
X141916700Y-78725100D01*
X141885400Y-78730600D01*
X141854300Y-78736800D01*
X141823300Y-78743900D01*
X141792500Y-78751900D01*
X141761900Y-78760600D01*
X141731600Y-78770100D01*
X141701500Y-78780400D01*
X141671800Y-78791600D01*
X141642300Y-78803500D01*
X141613200Y-78816200D01*
X141584400Y-78829600D01*
X141555900Y-78843800D01*
X141527900Y-78858800D01*
X141500300Y-78874500D01*
X141473000Y-78890900D01*
X141446300Y-78908000D01*
X141420000Y-78925900D01*
X141394100Y-78944400D01*
X141368800Y-78963600D01*
X141344000Y-78983500D01*
X141319700Y-79004000D01*
X141296000Y-79025200D01*
X141272900Y-79047000D01*
X141250300Y-79069300D01*
X141228300Y-79092300D01*
X141207000Y-79115900D01*
X141186300Y-79140000D01*
X141166200Y-79164600D01*
X141146800Y-79189800D01*
X141128100Y-79215500D01*
X141110000Y-79241600D01*
X141092700Y-79268300D01*
X141076000Y-79295300D01*
X141060100Y-79322800D01*
X141044900Y-79350800D01*
X141030500Y-79379100D01*
X141016800Y-79407800D01*
X141003900Y-79436800D01*
X140991700Y-79466200D01*
X140980400Y-79495900D01*
X140969800Y-79525800D01*
X140960000Y-79556100D01*
X140951000Y-79586600D01*
X140942900Y-79617300D01*
X140935500Y-79648200D01*
X140929000Y-79679300D01*
X140923300Y-79710600D01*
X140918500Y-79742000D01*
X140914400Y-79773500D01*
X140911200Y-79805200D01*
X140908900Y-79836900D01*
X140907400Y-79868600D01*
X140906700Y-79900400D01*
X140906800Y-79932200D01*
X140907900Y-79963900D01*
X140909700Y-79995700D01*
X140912400Y-80027300D01*
X140915900Y-80058900D01*
X140920300Y-80090400D01*
X140925500Y-80121800D01*
X140935000Y-80179000D01*
X140942900Y-80236500D01*
X140949400Y-80294200D01*
X140954300Y-80352000D01*
X140957700Y-80409900D01*
X140959600Y-80467900D01*
X140959900Y-80525900D01*
X140958800Y-80584000D01*
X140956000Y-80641900D01*
X140951800Y-80699800D01*
X140946000Y-80757500D01*
X140938700Y-80815100D01*
X140929900Y-80872500D01*
X140919600Y-80929600D01*
X140907800Y-80986400D01*
X140894500Y-81042900D01*
X140879700Y-81099000D01*
X140863400Y-81154700D01*
X140845700Y-81209900D01*
X140826500Y-81264700D01*
X140805900Y-81318900D01*
X140783800Y-81372600D01*
X140760400Y-81425700D01*
X140735500Y-81478100D01*
X140709300Y-81529900D01*
X140681700Y-81581000D01*
X140652800Y-81631300D01*
X140622600Y-81680800D01*
X140591000Y-81729500D01*
X140558200Y-81777400D01*
X140524200Y-81824400D01*
X140488900Y-81870500D01*
X140452400Y-81915600D01*
X140414800Y-81959700D01*
X140376000Y-82002900D01*
X140336000Y-82045000D01*
X140295000Y-82086000D01*
X140252900Y-82126000D01*
X140209700Y-82164800D01*
X140165600Y-82202400D01*
X140120500Y-82238900D01*
X140074400Y-82274200D01*
X140027400Y-82308200D01*
X139979500Y-82341000D01*
X139930800Y-82372600D01*
X139881300Y-82402800D01*
X139831000Y-82431700D01*
X139779900Y-82459300D01*
X139728100Y-82485500D01*
X139675700Y-82510400D01*
X139622600Y-82533800D01*
X139568900Y-82555900D01*
X139514700Y-82576500D01*
X139459900Y-82595700D01*
X139404700Y-82613400D01*
X139349000Y-82629700D01*
X139292900Y-82644500D01*
X139236400Y-82657800D01*
X139179600Y-82669600D01*
X139122500Y-82679900D01*
X139065100Y-82688700D01*
X139007500Y-82696000D01*
X138949800Y-82701800D01*
X138891900Y-82706000D01*
X138834000Y-82708800D01*
X138775900Y-82709900D01*
X138717900Y-82709600D01*
X138659900Y-82707700D01*
X138602000Y-82704300D01*
X138544200Y-82699400D01*
X138486500Y-82692900D01*
X138429000Y-82685000D01*
X138371800Y-82675500D01*
X138340400Y-82670300D01*
X138308900Y-82665900D01*
X138277300Y-82662400D01*
X138245700Y-82659700D01*
X138213900Y-82657900D01*
X138182200Y-82656800D01*
X138150400Y-82656700D01*
X138118600Y-82657400D01*
X138086900Y-82658900D01*
X138055200Y-82661200D01*
X138023500Y-82664400D01*
X137992000Y-82668500D01*
X137960600Y-82673300D01*
X137929300Y-82679000D01*
X137898200Y-82685500D01*
X137867300Y-82692900D01*
X137836600Y-82701000D01*
X137806100Y-82710000D01*
X137775800Y-82719800D01*
X137745900Y-82730400D01*
X137716200Y-82741700D01*
X137686800Y-82753900D01*
X137657800Y-82766800D01*
X137629100Y-82780500D01*
X137600800Y-82794900D01*
X137572800Y-82810100D01*
X137545300Y-82826000D01*
X137518300Y-82842700D01*
X137491600Y-82860000D01*
X137465500Y-82878100D01*
X137439800Y-82896800D01*
X137414600Y-82916200D01*
X137390000Y-82936300D01*
X137365900Y-82957000D01*
X137342300Y-82978300D01*
X137319300Y-83000300D01*
X137297000Y-83022900D01*
X137275200Y-83046000D01*
X137254000Y-83069700D01*
X137233500Y-83094000D01*
X137213600Y-83118800D01*
X137194400Y-83144100D01*
X137175900Y-83170000D01*
X137158000Y-83196300D01*
X137140900Y-83223000D01*
X137124500Y-83250300D01*
X137108800Y-83277900D01*
X137093800Y-83305900D01*
X137079600Y-83334400D01*
X137066200Y-83363200D01*
X137053500Y-83392300D01*
X137041600Y-83421800D01*
X137030400Y-83451500D01*
X137020100Y-83481600D01*
X137010600Y-83511900D01*
X137001900Y-83542500D01*
X136993900Y-83573300D01*
X136986800Y-83604300D01*
X136980600Y-83635400D01*
X136975100Y-83666700D01*
X136970500Y-83698200D01*
X136966700Y-83729700D01*
X136963800Y-83761400D01*
X136961700Y-83793100D01*
X136960400Y-83824900D01*
X136960000Y-83856600D01*
X134410000Y-83856600D01*
X134410000Y-76160000D01*
X142106600Y-76160000D01*
X142106600Y-78710000D01*
G37*
G36*
X136960400Y-113695100D02*
G01*
X136961700Y-113726900D01*
X136963800Y-113758600D01*
X136966700Y-113790300D01*
X136970500Y-113821800D01*
X136975100Y-113853300D01*
X136980600Y-113884600D01*
X136986800Y-113915700D01*
X136993900Y-113946700D01*
X137001900Y-113977500D01*
X137010600Y-114008100D01*
X137020100Y-114038400D01*
X137030400Y-114068500D01*
X137041600Y-114098200D01*
X137053500Y-114127700D01*
X137066200Y-114156800D01*
X137079600Y-114185600D01*
X137093800Y-114214100D01*
X137108800Y-114242100D01*
X137124500Y-114269700D01*
X137140900Y-114297000D01*
X137158000Y-114323700D01*
X137175900Y-114350000D01*
X137194400Y-114375900D01*
X137213600Y-114401200D01*
X137233500Y-114426000D01*
X137254000Y-114450300D01*
X137275200Y-114474000D01*
X137297000Y-114497100D01*
X137319300Y-114519700D01*
X137342300Y-114541700D01*
X137365900Y-114563000D01*
X137390000Y-114583700D01*
X137414600Y-114603800D01*
X137439800Y-114623200D01*
X137465500Y-114641900D01*
X137491600Y-114660000D01*
X137518300Y-114677300D01*
X137545300Y-114694000D01*
X137572800Y-114709900D01*
X137600800Y-114725100D01*
X137629100Y-114739500D01*
X137657800Y-114753200D01*
X137686800Y-114766100D01*
X137716200Y-114778300D01*
X137745900Y-114789600D01*
X137775800Y-114800200D01*
X137806100Y-114810000D01*
X137836600Y-114819000D01*
X137867300Y-114827100D01*
X137898200Y-114834500D01*
X137929300Y-114841000D01*
X137960600Y-114846700D01*
X137992000Y-114851500D01*
X138023500Y-114855600D01*
X138055200Y-114858800D01*
X138086900Y-114861100D01*
X138118600Y-114862600D01*
X138150400Y-114863300D01*
X138182200Y-114863200D01*
X138213900Y-114862100D01*
X138245700Y-114860300D01*
X138277300Y-114857600D01*
X138308900Y-114854100D01*
X138340400Y-114849700D01*
X138371800Y-114844500D01*
X138429000Y-114835000D01*
X138486500Y-114827100D01*
X138544200Y-114820600D01*
X138602000Y-114815700D01*
X138659900Y-114812300D01*
X138717900Y-114810400D01*
X138775900Y-114810100D01*
X138834000Y-114811200D01*
X138891900Y-114814000D01*
X138949800Y-114818200D01*
X139007500Y-114824000D01*
X139065100Y-114831300D01*
X139122500Y-114840100D01*
X139179600Y-114850400D01*
X139236400Y-114862200D01*
X139292900Y-114875500D01*
X139349000Y-114890300D01*
X139404700Y-114906600D01*
X139459900Y-114924300D01*
X139514700Y-114943500D01*
X139568900Y-114964100D01*
X139622600Y-114986200D01*
X139675700Y-115009600D01*
X139728100Y-115034500D01*
X139779900Y-115060700D01*
X139831000Y-115088300D01*
X139881300Y-115117200D01*
X139930800Y-115147400D01*
X139979500Y-115179000D01*
X140027400Y-115211800D01*
X140074400Y-115245800D01*
X140120500Y-115281100D01*
X140165600Y-115317600D01*
X140209700Y-115355200D01*
X140252900Y-115394000D01*
X140295000Y-115434000D01*
X140336000Y-115475000D01*
X140376000Y-115517100D01*
X140414800Y-115560300D01*
X140452400Y-115604400D01*
X140488900Y-115649500D01*
X140524200Y-115695600D01*
X140558200Y-115742600D01*
X140591000Y-115790500D01*
X140622600Y-115839200D01*
X140652800Y-115888700D01*
X140681700Y-115939000D01*
X140709300Y-115990100D01*
X140735500Y-116041900D01*
X140760400Y-116094300D01*
X140783800Y-116147400D01*
X140805900Y-116201100D01*
X140826500Y-116255300D01*
X140845700Y-116310100D01*
X140863400Y-116365300D01*
X140879700Y-116421000D01*
X140894500Y-116477100D01*
X140907800Y-116533600D01*
X140919600Y-116590400D01*
X140929900Y-116647500D01*
X140938700Y-116704900D01*
X140946000Y-116762500D01*
X140951800Y-116820200D01*
X140956000Y-116878100D01*
X140958800Y-116936000D01*
X140959900Y-116994100D01*
X140959600Y-117052100D01*
X140957700Y-117110100D01*
X140954300Y-117168000D01*
X140949400Y-117225800D01*
X140942900Y-117283500D01*
X140935000Y-117341000D01*
X140925500Y-117398200D01*
X140920300Y-117429600D01*
X140915900Y-117461100D01*
X140912400Y-117492700D01*
X140909700Y-117524300D01*
X140907900Y-117556100D01*
X140906800Y-117587800D01*
X140906700Y-117619600D01*
X140907400Y-117651400D01*
X140908900Y-117683100D01*
X140911200Y-117714800D01*
X140914400Y-117746500D01*
X140918500Y-117778000D01*
X140923300Y-117809400D01*
X140929000Y-117840700D01*
X140935500Y-117871800D01*
X140942900Y-117902700D01*
X140951000Y-117933400D01*
X140960000Y-117963900D01*
X140969800Y-117994200D01*
X140980400Y-118024100D01*
X140991700Y-118053800D01*
X141003900Y-118083200D01*
X141016800Y-118112200D01*
X141030500Y-118140900D01*
X141044900Y-118169200D01*
X141060100Y-118197200D01*
X141076000Y-118224700D01*
X141092700Y-118251700D01*
X141110000Y-118278400D01*
X141128100Y-118304500D01*
X141146800Y-118330200D01*
X141166200Y-118355400D01*
X141186300Y-118380000D01*
X141207000Y-118404100D01*
X141228300Y-118427700D01*
X141250300Y-118450700D01*
X141272900Y-118473000D01*
X141296000Y-118494800D01*
X141319700Y-118516000D01*
X141344000Y-118536500D01*
X141368800Y-118556400D01*
X141394100Y-118575600D01*
X141420000Y-118594100D01*
X141446300Y-118612000D01*
X141473000Y-118629100D01*
X141500300Y-118645500D01*
X141527900Y-118661200D01*
X141555900Y-118676200D01*
X141584400Y-118690400D01*
X141613200Y-118703800D01*
X141642300Y-118716500D01*
X141671800Y-118728400D01*
X141701500Y-118739600D01*
X141731600Y-118749900D01*
X141761900Y-118759400D01*
X141792500Y-118768100D01*
X141823300Y-118776100D01*
X141854300Y-118783200D01*
X141885400Y-118789400D01*
X141916700Y-118794900D01*
X141948200Y-118799500D01*
X141979700Y-118803300D01*
X142011400Y-118806200D01*
X142043100Y-118808300D01*
X142074900Y-118809600D01*
X142106600Y-118810000D01*
X142106600Y-121360000D01*
X134410000Y-121360000D01*
X134410000Y-113663400D01*
X136960000Y-113663400D01*
X136960400Y-113695100D01*
G37*
G36*
X185610000Y-83856600D02*
G01*
X183060000Y-83856600D01*
X183059600Y-83824900D01*
X183058300Y-83793100D01*
X183056200Y-83761400D01*
X183053300Y-83729700D01*
X183049500Y-83698200D01*
X183044900Y-83666700D01*
X183039400Y-83635400D01*
X183033200Y-83604300D01*
X183026100Y-83573300D01*
X183018100Y-83542500D01*
X183009400Y-83511900D01*
X182999900Y-83481600D01*
X182989600Y-83451500D01*
X182978400Y-83421800D01*
X182966500Y-83392300D01*
X182953800Y-83363200D01*
X182940400Y-83334400D01*
X182926200Y-83305900D01*
X182911200Y-83277900D01*
X182895500Y-83250300D01*
X182879100Y-83223000D01*
X182862000Y-83196300D01*
X182844100Y-83170000D01*
X182825600Y-83144100D01*
X182806400Y-83118800D01*
X182786500Y-83094000D01*
X182766000Y-83069700D01*
X182744800Y-83046000D01*
X182723000Y-83022900D01*
X182700700Y-83000300D01*
X182677700Y-82978300D01*
X182654100Y-82957000D01*
X182630000Y-82936300D01*
X182605400Y-82916200D01*
X182580200Y-82896800D01*
X182554500Y-82878100D01*
X182528400Y-82860000D01*
X182501700Y-82842700D01*
X182474700Y-82826000D01*
X182447200Y-82810100D01*
X182419200Y-82794900D01*
X182390900Y-82780500D01*
X182362200Y-82766800D01*
X182333200Y-82753900D01*
X182303800Y-82741700D01*
X182274100Y-82730400D01*
X182244200Y-82719800D01*
X182213900Y-82710000D01*
X182183400Y-82701000D01*
X182152700Y-82692900D01*
X182121800Y-82685500D01*
X182090700Y-82679000D01*
X182059400Y-82673300D01*
X182028000Y-82668500D01*
X181996500Y-82664400D01*
X181964800Y-82661200D01*
X181933100Y-82658900D01*
X181901400Y-82657400D01*
X181869600Y-82656700D01*
X181837800Y-82656800D01*
X181806100Y-82657900D01*
X181774300Y-82659700D01*
X181742700Y-82662400D01*
X181711100Y-82665900D01*
X181679600Y-82670300D01*
X181648200Y-82675500D01*
X181591000Y-82685000D01*
X181533500Y-82692900D01*
X181475800Y-82699400D01*
X181418000Y-82704300D01*
X181360100Y-82707700D01*
X181302100Y-82709600D01*
X181244100Y-82709900D01*
X181186000Y-82708800D01*
X181128100Y-82706000D01*
X181070200Y-82701800D01*
X181012500Y-82696000D01*
X180954900Y-82688700D01*
X180897500Y-82679900D01*
X180840400Y-82669600D01*
X180783600Y-82657800D01*
X180727100Y-82644500D01*
X180671000Y-82629700D01*
X180615300Y-82613400D01*
X180560100Y-82595700D01*
X180505300Y-82576500D01*
X180451100Y-82555900D01*
X180397400Y-82533800D01*
X180344300Y-82510400D01*
X180291900Y-82485500D01*
X180240100Y-82459300D01*
X180189000Y-82431700D01*
X180138700Y-82402800D01*
X180089200Y-82372600D01*
X180040500Y-82341000D01*
X179992600Y-82308200D01*
X179945600Y-82274200D01*
X179899500Y-82238900D01*
X179854400Y-82202400D01*
X179810300Y-82164800D01*
X179767100Y-82126000D01*
X179725000Y-82086000D01*
X179684000Y-82045000D01*
X179644000Y-82002900D01*
X179605200Y-81959700D01*
X179567600Y-81915600D01*
X179531100Y-81870500D01*
X179495800Y-81824400D01*
X179461800Y-81777400D01*
X179429000Y-81729500D01*
X179397400Y-81680800D01*
X179367200Y-81631300D01*
X179338300Y-81581000D01*
X179310700Y-81529900D01*
X179284500Y-81478100D01*
X179259600Y-81425700D01*
X179236200Y-81372600D01*
X179214100Y-81318900D01*
X179193500Y-81264700D01*
X179174300Y-81209900D01*
X179156600Y-81154700D01*
X179140300Y-81099000D01*
X179125500Y-81042900D01*
X179112200Y-80986400D01*
X179100400Y-80929600D01*
X179090100Y-80872500D01*
X179081300Y-80815100D01*
X179074000Y-80757500D01*
X179068200Y-80699800D01*
X179064000Y-80641900D01*
X179061200Y-80584000D01*
X179060100Y-80525900D01*
X179060400Y-80467900D01*
X179062300Y-80409900D01*
X179065700Y-80352000D01*
X179070600Y-80294200D01*
X179077100Y-80236500D01*
X179085000Y-80179000D01*
X179094500Y-80121800D01*
X179099700Y-80090400D01*
X179104100Y-80058900D01*
X179107600Y-80027300D01*
X179110300Y-79995700D01*
X179112100Y-79963900D01*
X179113200Y-79932200D01*
X179113300Y-79900400D01*
X179112600Y-79868600D01*
X179111100Y-79836900D01*
X179108800Y-79805200D01*
X179105600Y-79773500D01*
X179101500Y-79742000D01*
X179096700Y-79710600D01*
X179091000Y-79679300D01*
X179084500Y-79648200D01*
X179077100Y-79617300D01*
X179069000Y-79586600D01*
X179060000Y-79556100D01*
X179050200Y-79525800D01*
X179039600Y-79495900D01*
X179028300Y-79466200D01*
X179016100Y-79436800D01*
X179003200Y-79407800D01*
X178989500Y-79379100D01*
X178975100Y-79350800D01*
X178959900Y-79322800D01*
X178944000Y-79295300D01*
X178927300Y-79268300D01*
X178910000Y-79241600D01*
X178891900Y-79215500D01*
X178873200Y-79189800D01*
X178853800Y-79164600D01*
X178833700Y-79140000D01*
X178813000Y-79115900D01*
X178791700Y-79092300D01*
X178769700Y-79069300D01*
X178747100Y-79047000D01*
X178724000Y-79025200D01*
X178700300Y-79004000D01*
X178676000Y-78983500D01*
X178651200Y-78963600D01*
X178625900Y-78944400D01*
X178600000Y-78925900D01*
X178573700Y-78908000D01*
X178547000Y-78890900D01*
X178519700Y-78874500D01*
X178492100Y-78858800D01*
X178464100Y-78843800D01*
X178435600Y-78829600D01*
X178406800Y-78816200D01*
X178377700Y-78803500D01*
X178348200Y-78791600D01*
X178318500Y-78780400D01*
X178288400Y-78770100D01*
X178258100Y-78760600D01*
X178227500Y-78751900D01*
X178196700Y-78743900D01*
X178165700Y-78736800D01*
X178134600Y-78730600D01*
X178103300Y-78725100D01*
X178071800Y-78720500D01*
X178040300Y-78716700D01*
X178008600Y-78713800D01*
X177976900Y-78711700D01*
X177945100Y-78710400D01*
X177913400Y-78710000D01*
X177913400Y-76160000D01*
X185610000Y-76160000D01*
X185610000Y-83856600D01*
G37*
G36*
X185610000Y-121360000D02*
G01*
X177913400Y-121360000D01*
X177913400Y-118810000D01*
X177945100Y-118809600D01*
X177976900Y-118808300D01*
X178008600Y-118806200D01*
X178040300Y-118803300D01*
X178071800Y-118799500D01*
X178103300Y-118794900D01*
X178134600Y-118789400D01*
X178165700Y-118783200D01*
X178196700Y-118776100D01*
X178227500Y-118768100D01*
X178258100Y-118759400D01*
X178288400Y-118749900D01*
X178318500Y-118739600D01*
X178348200Y-118728400D01*
X178377700Y-118716500D01*
X178406800Y-118703800D01*
X178435600Y-118690400D01*
X178464100Y-118676200D01*
X178492100Y-118661200D01*
X178519700Y-118645500D01*
X178547000Y-118629100D01*
X178573700Y-118612000D01*
X178600000Y-118594100D01*
X178625900Y-118575600D01*
X178651200Y-118556400D01*
X178676000Y-118536500D01*
X178700300Y-118516000D01*
X178724000Y-118494800D01*
X178747100Y-118473000D01*
X178769700Y-118450700D01*
X178791700Y-118427700D01*
X178813000Y-118404100D01*
X178833700Y-118380000D01*
X178853800Y-118355400D01*
X178873200Y-118330200D01*
X178891900Y-118304500D01*
X178910000Y-118278400D01*
X178927300Y-118251700D01*
X178944000Y-118224700D01*
X178959900Y-118197200D01*
X178975100Y-118169200D01*
X178989500Y-118140900D01*
X179003200Y-118112200D01*
X179016100Y-118083200D01*
X179028300Y-118053800D01*
X179039600Y-118024100D01*
X179050200Y-117994200D01*
X179060000Y-117963900D01*
X179069000Y-117933400D01*
X179077100Y-117902700D01*
X179084500Y-117871800D01*
X179091000Y-117840700D01*
X179096700Y-117809400D01*
X179101500Y-117778000D01*
X179105600Y-117746500D01*
X179108800Y-117714800D01*
X179111100Y-117683100D01*
X179112600Y-117651400D01*
X179113300Y-117619600D01*
X179113200Y-117587800D01*
X179112100Y-117556100D01*
X179110300Y-117524300D01*
X179107600Y-117492700D01*
X179104100Y-117461100D01*
X179099700Y-117429600D01*
X179094500Y-117398200D01*
X179085000Y-117341000D01*
X179077100Y-117283500D01*
X179070600Y-117225800D01*
X179065700Y-117168000D01*
X179062300Y-117110100D01*
X179060400Y-117052100D01*
X179060100Y-116994100D01*
X179061200Y-116936000D01*
X179064000Y-116878100D01*
X179068200Y-116820200D01*
X179074000Y-116762500D01*
X179081300Y-116704900D01*
X179090100Y-116647500D01*
X179100400Y-116590400D01*
X179112200Y-116533600D01*
X179125500Y-116477100D01*
X179140300Y-116421000D01*
X179156600Y-116365300D01*
X179174300Y-116310100D01*
X179193500Y-116255300D01*
X179214100Y-116201100D01*
X179236200Y-116147400D01*
X179259600Y-116094300D01*
X179284500Y-116041900D01*
X179310700Y-115990100D01*
X179338300Y-115939000D01*
X179367200Y-115888700D01*
X179397400Y-115839200D01*
X179429000Y-115790500D01*
X179461800Y-115742600D01*
X179495800Y-115695600D01*
X179531100Y-115649500D01*
X179567600Y-115604400D01*
X179605200Y-115560300D01*
X179644000Y-115517100D01*
X179684000Y-115475000D01*
X179725000Y-115434000D01*
X179767100Y-115394000D01*
X179810300Y-115355200D01*
X179854400Y-115317600D01*
X179899500Y-115281100D01*
X179945600Y-115245800D01*
X179992600Y-115211800D01*
X180040500Y-115179000D01*
X180089200Y-115147400D01*
X180138700Y-115117200D01*
X180189000Y-115088300D01*
X180240100Y-115060700D01*
X180291900Y-115034500D01*
X180344300Y-115009600D01*
X180397400Y-114986200D01*
X180451100Y-114964100D01*
X180505300Y-114943500D01*
X180560100Y-114924300D01*
X180615300Y-114906600D01*
X180671000Y-114890300D01*
X180727100Y-114875500D01*
X180783600Y-114862200D01*
X180840400Y-114850400D01*
X180897500Y-114840100D01*
X180954900Y-114831300D01*
X181012500Y-114824000D01*
X181070200Y-114818200D01*
X181128100Y-114814000D01*
X181186000Y-114811200D01*
X181244100Y-114810100D01*
X181302100Y-114810400D01*
X181360100Y-114812300D01*
X181418000Y-114815700D01*
X181475800Y-114820600D01*
X181533500Y-114827100D01*
X181591000Y-114835000D01*
X181648200Y-114844500D01*
X181679600Y-114849700D01*
X181711100Y-114854100D01*
X181742700Y-114857600D01*
X181774300Y-114860300D01*
X181806100Y-114862100D01*
X181837800Y-114863200D01*
X181869600Y-114863300D01*
X181901400Y-114862600D01*
X181933100Y-114861100D01*
X181964800Y-114858800D01*
X181996500Y-114855600D01*
X182028000Y-114851500D01*
X182059400Y-114846700D01*
X182090700Y-114841000D01*
X182121800Y-114834500D01*
X182152700Y-114827100D01*
X182183400Y-114819000D01*
X182213900Y-114810000D01*
X182244200Y-114800200D01*
X182274100Y-114789600D01*
X182303800Y-114778300D01*
X182333200Y-114766100D01*
X182362200Y-114753200D01*
X182390900Y-114739500D01*
X182419200Y-114725100D01*
X182447200Y-114709900D01*
X182474700Y-114694000D01*
X182501700Y-114677300D01*
X182528400Y-114660000D01*
X182554500Y-114641900D01*
X182580200Y-114623200D01*
X182605400Y-114603800D01*
X182630000Y-114583700D01*
X182654100Y-114563000D01*
X182677700Y-114541700D01*
X182700700Y-114519700D01*
X182723000Y-114497100D01*
X182744800Y-114474000D01*
X182766000Y-114450300D01*
X182786500Y-114426000D01*
X182806400Y-114401200D01*
X182825600Y-114375900D01*
X182844100Y-114350000D01*
X182862000Y-114323700D01*
X182879100Y-114297000D01*
X182895500Y-114269700D01*
X182911200Y-114242100D01*
X182926200Y-114214100D01*
X182940400Y-114185600D01*
X182953800Y-114156800D01*
X182966500Y-114127700D01*
X182978400Y-114098200D01*
X182989600Y-114068500D01*
X182999900Y-114038400D01*
X183009400Y-114008100D01*
X183018100Y-113977500D01*
X183026100Y-113946700D01*
X183033200Y-113915700D01*
X183039400Y-113884600D01*
X183044900Y-113853300D01*
X183049500Y-113821800D01*
X183053300Y-113790300D01*
X183056200Y-113758600D01*
X183058300Y-113726900D01*
X183059600Y-113695100D01*
X183060000Y-113663400D01*
X185610000Y-113663400D01*
X185610000Y-121360000D01*
G37*
D11*
X135060000Y-76810000D02*
X136960000Y-76810000D01*
X136960000Y-96210000D01*
X135060000Y-96210000D01*
X135060000Y-76810000D01*
G36*
X135060000Y-76810000D02*
G01*
X136960000Y-76810000D01*
X136960000Y-96210000D01*
X135060000Y-96210000D01*
X135060000Y-76810000D01*
G37*
X135060000Y-102760000D02*
X136960000Y-102760000D01*
X136960000Y-120735000D01*
X135060000Y-120735000D01*
X135060000Y-102760000D01*
G36*
X135060000Y-102760000D02*
G01*
X136960000Y-102760000D01*
X136960000Y-120735000D01*
X135060000Y-120735000D01*
X135060000Y-102760000D01*
G37*
X136960000Y-118810001D02*
X184960000Y-118810001D01*
X184960000Y-120710000D01*
X136960000Y-120710000D01*
X136960000Y-118810001D01*
G36*
X136960000Y-118810001D02*
G01*
X184960000Y-118810001D01*
X184960000Y-120710000D01*
X136960000Y-120710000D01*
X136960000Y-118810001D01*
G37*
X137060000Y-76810000D02*
X185060000Y-76810000D01*
X185060000Y-78710000D01*
X137060000Y-78710000D01*
X137060000Y-76810000D01*
G36*
X137060000Y-76810000D02*
G01*
X185060000Y-76810000D01*
X185060000Y-78710000D01*
X137060000Y-78710000D01*
X137060000Y-76810000D01*
G37*
X183060000Y-76785000D02*
X184960000Y-76785000D01*
X184960000Y-93260000D01*
X183060000Y-93260000D01*
X183060000Y-76785000D01*
G36*
X183060000Y-76785000D02*
G01*
X184960000Y-76785000D01*
X184960000Y-93260000D01*
X183060000Y-93260000D01*
X183060000Y-76785000D01*
G37*
X183060000Y-99910000D02*
X184960000Y-99910000D01*
X184960000Y-105160000D01*
X183060000Y-105160000D01*
X183060000Y-99910000D01*
G36*
X183060000Y-99910000D02*
G01*
X184960000Y-99910000D01*
X184960000Y-105160000D01*
X183060000Y-105160000D01*
X183060000Y-99910000D01*
G37*
X183060000Y-111735000D02*
X184960000Y-111735000D01*
X184960000Y-120760000D01*
X183060000Y-120760000D01*
X183060000Y-111735000D01*
G36*
X183060000Y-111735000D02*
G01*
X184960000Y-111735000D01*
X184960000Y-120760000D01*
X183060000Y-120760000D01*
X183060000Y-111735000D01*
G37*
D10*
%TO.C,U1*%
G36*
X158235600Y-83559299D02*
G01*
X157772101Y-83559299D01*
X157772101Y-81432297D01*
X158235600Y-81432297D01*
X158235600Y-83559299D01*
G37*
G36*
X159099099Y-81902098D02*
G01*
X157772101Y-81902098D01*
X157772101Y-81432297D01*
X159099099Y-81432297D01*
X159099099Y-81902098D01*
G37*
G36*
X159099099Y-83559299D02*
G01*
X158635600Y-83559299D01*
X158635600Y-81432297D01*
X159099099Y-81432297D01*
X159099099Y-83559299D01*
G37*
G36*
X159099099Y-82689498D02*
G01*
X157772101Y-82689498D01*
X157772101Y-82302098D01*
X159099099Y-82302098D01*
X159099099Y-82689498D01*
G37*
G36*
X159099099Y-83559299D02*
G01*
X157772101Y-83559299D01*
X157772101Y-83089498D01*
X159099099Y-83089498D01*
X159099099Y-83559299D01*
G37*
%TO.C,U2*%
G36*
X156569401Y-100050900D02*
G01*
X155994701Y-100050900D01*
X155994701Y-96926700D01*
X156569401Y-96926700D01*
X156569401Y-100050900D01*
G37*
G36*
X159118901Y-97501400D02*
G01*
X155994701Y-97501400D01*
X155994701Y-96926700D01*
X159118901Y-96926700D01*
X159118901Y-97501400D01*
G37*
G36*
X159118901Y-98288800D02*
G01*
X155994701Y-98288800D01*
X155994701Y-97901400D01*
X159118901Y-97901400D01*
X159118901Y-98288800D01*
G37*
G36*
X159118901Y-99076200D02*
G01*
X155994701Y-99076200D01*
X155994701Y-98688800D01*
X159118901Y-98688800D01*
X159118901Y-99076200D01*
G37*
G36*
X159118901Y-100050900D02*
G01*
X155994701Y-100050900D01*
X155994701Y-99476200D01*
X159118901Y-99476200D01*
X159118901Y-100050900D01*
G37*
G36*
X157356801Y-100050900D02*
G01*
X156969401Y-100050900D01*
X156969401Y-96926700D01*
X157356801Y-96926700D01*
X157356801Y-100050900D01*
G37*
G36*
X158144201Y-100050900D02*
G01*
X157756801Y-100050900D01*
X157756801Y-96926700D01*
X158144201Y-96926700D01*
X158144201Y-100050900D01*
G37*
G36*
X159118901Y-100050900D02*
G01*
X158544201Y-100050900D01*
X158544201Y-96926700D01*
X159118901Y-96926700D01*
X159118901Y-100050900D01*
G37*
%TD*%
D12*
%TO.C,C40*%
X150515000Y-96340000D03*
X152065000Y-96340000D03*
%TD*%
D13*
%TO.C,C39*%
X163150000Y-92944085D03*
X162053984Y-94040101D03*
%TD*%
D14*
%TO.C,C15*%
X170261800Y-81547600D03*
X170261800Y-79997600D03*
%TD*%
D15*
%TO.C,R13*%
X163551201Y-99362448D03*
X162829953Y-98641200D03*
%TD*%
D16*
%TO.C,C42*%
X159324000Y-91840000D03*
X159324000Y-93390000D03*
%TD*%
D17*
%TO.C,R28*%
X147316001Y-101533798D03*
X147316001Y-102553798D03*
%TD*%
D18*
%TO.C,R16*%
X151800001Y-105750001D03*
X151799999Y-107399999D03*
%TD*%
D19*
%TO.C,C9*%
X174319999Y-97560000D03*
X174319999Y-98520000D03*
%TD*%
D20*
%TO.C,H2*%
X137100000Y-117000000D03*
X137583274Y-115833274D03*
X137583274Y-118166726D03*
X138750000Y-115350000D03*
D21*
X138750000Y-117000000D03*
D20*
X138750000Y-118650000D03*
X139916726Y-115833274D03*
X139916726Y-118166726D03*
X140400000Y-117000000D03*
%TD*%
D12*
%TO.C,C25*%
X167779400Y-89992200D03*
X169329400Y-89992200D03*
%TD*%
D22*
%TO.C,R11*%
X159689942Y-104860056D03*
X160411190Y-104138808D03*
%TD*%
D23*
%TO.C,C20*%
X165654201Y-100012800D03*
X164694201Y-100012800D03*
%TD*%
D14*
%TO.C,C14*%
X168229800Y-81547600D03*
X168229800Y-79997600D03*
%TD*%
D20*
%TO.C,H4*%
X179600000Y-117000000D03*
X180083274Y-115833274D03*
X180083274Y-118166726D03*
X181250000Y-115350000D03*
D21*
X181250000Y-117000000D03*
D20*
X181250000Y-118650000D03*
X182416726Y-115833274D03*
X182416726Y-118166726D03*
X182900000Y-117000000D03*
%TD*%
D19*
%TO.C,C30*%
X156650000Y-102463600D03*
X156650000Y-103423600D03*
%TD*%
D24*
%TO.C,C33*%
X150556592Y-103291008D03*
X151652608Y-102194992D03*
%TD*%
D25*
%TO.C,R15*%
X168430000Y-102830000D03*
X168430000Y-101810002D03*
%TD*%
D17*
%TO.C,R14*%
X167361201Y-102832200D03*
X167361201Y-103852198D03*
%TD*%
D25*
%TO.C,R3*%
X160612800Y-81669599D03*
X160612800Y-80649601D03*
%TD*%
D15*
%TO.C,R6*%
X163194528Y-104081824D03*
X162473280Y-103360576D03*
%TD*%
D26*
%TO.C,C10*%
X176530000Y-96585600D03*
X176530000Y-95625600D03*
%TD*%
D27*
%TO.C,R2*%
X152108000Y-85346499D03*
X150458000Y-85346499D03*
%TD*%
D26*
%TO.C,C3*%
X161612800Y-82635401D03*
X161612800Y-81675401D03*
%TD*%
D19*
%TO.C,C21*%
X161260000Y-101820000D03*
X161260000Y-102780000D03*
%TD*%
D27*
%TO.C,R20*%
X153545000Y-109530000D03*
X151895000Y-109530000D03*
%TD*%
D16*
%TO.C,C2*%
X154438400Y-83287800D03*
X154438400Y-84837800D03*
%TD*%
%TO.C,C4*%
X162362800Y-83959600D03*
X162362800Y-85509600D03*
%TD*%
D28*
%TO.C,U1*%
X159585600Y-83495801D03*
X159585600Y-82995800D03*
X159585600Y-82495801D03*
X159585600Y-81995802D03*
X159585600Y-81495800D03*
X157285600Y-81495800D03*
X157285600Y-81995802D03*
X157285600Y-82495801D03*
X157285600Y-82995800D03*
X157285600Y-83495801D03*
D29*
X158735600Y-83195798D03*
X158735600Y-82495798D03*
X158735600Y-81795797D03*
D30*
X158435600Y-82495798D03*
D29*
X158135600Y-83195798D03*
X158135600Y-82495798D03*
X158135600Y-81795798D03*
%TD*%
D22*
%TO.C,R9*%
X152139375Y-103610625D03*
X152860625Y-102889375D03*
%TD*%
D20*
%TO.C,H3*%
X179600000Y-80500000D03*
X180083274Y-79333274D03*
X180083274Y-81666726D03*
X181250000Y-78850000D03*
D21*
X181250000Y-80500000D03*
D20*
X181250000Y-82150000D03*
X182416726Y-79333274D03*
X182416726Y-81666726D03*
X182900000Y-80500000D03*
%TD*%
D31*
%TO.C,Q1*%
X152100800Y-83606600D03*
X152100800Y-81701600D03*
X149814800Y-82654100D03*
%TD*%
D12*
%TO.C,C22*%
X167792401Y-84810600D03*
X169342401Y-84810600D03*
%TD*%
D32*
%TO.C,J2*%
X146690000Y-116760000D03*
D33*
X149230000Y-116760000D03*
X151769999Y-116760000D03*
X154310000Y-116760000D03*
X156850000Y-116760000D03*
X159390000Y-116760000D03*
%TD*%
D34*
%TO.C,C27*%
X154737071Y-93107662D03*
X154058249Y-92428840D03*
%TD*%
D35*
%TO.C,R17*%
X158822201Y-109065200D03*
X158100953Y-109786448D03*
%TD*%
D13*
%TO.C,C41*%
X164273008Y-94069084D03*
X163176992Y-95165100D03*
%TD*%
D36*
%TO.C,XTAL1*%
X141785601Y-90372200D03*
X141785601Y-95452200D03*
X145798801Y-95452200D03*
X145798801Y-90372200D03*
%TD*%
D37*
%TO.C,R26*%
X147310201Y-100512200D03*
X148330201Y-100512200D03*
%TD*%
D38*
%TO.C,R7*%
X153658249Y-90583640D03*
X154379499Y-91304890D03*
%TD*%
D39*
%TO.C,C43*%
X144625000Y-88400000D03*
X143075000Y-88400000D03*
%TD*%
D23*
%TO.C,C19*%
X165656801Y-101028800D03*
X164696801Y-101028800D03*
%TD*%
D40*
%TO.C,C28*%
X164210589Y-95989411D03*
X164889411Y-95310589D03*
%TD*%
D37*
%TO.C,R25*%
X147310201Y-99462200D03*
X148330201Y-99462200D03*
%TD*%
%TO.C,R24*%
X143020000Y-99460000D03*
X144040000Y-99460000D03*
%TD*%
D35*
%TO.C,R8*%
X166735625Y-94889375D03*
X166014375Y-95610625D03*
%TD*%
D41*
%TO.C,L1*%
X172333999Y-97562474D03*
X173303999Y-97562474D03*
%TD*%
D26*
%TO.C,C8*%
X171310000Y-97555600D03*
X171310000Y-96595600D03*
%TD*%
D27*
%TO.C,R30*%
X158475000Y-114200000D03*
X156825000Y-114200000D03*
%TD*%
D16*
%TO.C,C36*%
X156276000Y-91840000D03*
X156276000Y-93390000D03*
%TD*%
D42*
%TO.C,R19*%
X152348362Y-94639562D03*
X151181638Y-93472838D03*
%TD*%
D16*
%TO.C,C5*%
X160762800Y-83959600D03*
X160762800Y-85509600D03*
%TD*%
D43*
%TO.C,C47*%
X149399201Y-100510000D03*
X150359201Y-100510000D03*
%TD*%
D20*
%TO.C,H1*%
X137100000Y-80500000D03*
X137583274Y-79333274D03*
X137583274Y-81666726D03*
X138750000Y-78850000D03*
D21*
X138750000Y-80500000D03*
D20*
X138750000Y-82150000D03*
X139916726Y-79333274D03*
X139916726Y-81666726D03*
X140400000Y-80500000D03*
%TD*%
D12*
%TO.C,C24*%
X167792397Y-88341201D03*
X169342397Y-88341201D03*
%TD*%
D18*
%TO.C,R32*%
X151765000Y-112623600D03*
X151765000Y-114273600D03*
%TD*%
D44*
%TO.C,R22*%
X147602201Y-91641200D03*
X147602201Y-89991200D03*
%TD*%
D26*
%TO.C,C17*%
X160070601Y-106967200D03*
X160070601Y-106007200D03*
%TD*%
D18*
%TO.C,R21*%
X139802201Y-88799200D03*
X139802201Y-90449200D03*
%TD*%
D14*
%TO.C,C34*%
X157800000Y-93390000D03*
X157800000Y-91840000D03*
%TD*%
D45*
%TO.C,L2*%
X175430000Y-97555000D03*
X175430000Y-96585000D03*
%TD*%
D12*
%TO.C,C23*%
X167791801Y-86436200D03*
X169341801Y-86436200D03*
%TD*%
D14*
%TO.C,C16*%
X171912800Y-81534600D03*
X171912800Y-79984600D03*
%TD*%
D46*
%TO.C,C38*%
X152299249Y-92414840D03*
X153395265Y-93510856D03*
%TD*%
D44*
%TO.C,R29*%
X155799999Y-112624999D03*
X155800001Y-110975001D03*
%TD*%
D43*
%TO.C,C45*%
X141040000Y-99462200D03*
X142000000Y-99462200D03*
%TD*%
D16*
%TO.C,C1*%
X156064000Y-83287800D03*
X156064000Y-84837800D03*
%TD*%
D47*
%TO.C,C32*%
X157471080Y-107710001D03*
X158149902Y-108388823D03*
%TD*%
D26*
%TO.C,C29*%
X153390600Y-98574800D03*
X153390600Y-97614800D03*
%TD*%
D43*
%TO.C,C12*%
X177878801Y-108420200D03*
X178838801Y-108420200D03*
%TD*%
D48*
%TO.C,OSCIn*%
X135442201Y-99462200D03*
D49*
X137492201Y-96762200D03*
X137492201Y-102162200D03*
%TD*%
D43*
%TO.C,C26*%
X164750201Y-102832200D03*
X165710201Y-102832200D03*
%TD*%
D14*
%TO.C,C13*%
X166578800Y-81547600D03*
X166578800Y-79997600D03*
%TD*%
D50*
%TO.C,U2*%
X154637401Y-96238799D03*
X154637401Y-96738801D03*
X154637401Y-97238800D03*
X154637401Y-97738799D03*
X154637401Y-98238800D03*
X154637401Y-98738800D03*
X154637401Y-99238801D03*
X154637401Y-99738800D03*
X154637401Y-100238799D03*
X154637401Y-100738801D03*
D51*
X155306800Y-101408200D03*
X155806802Y-101408200D03*
X156306801Y-101408200D03*
X156806800Y-101408200D03*
X157306801Y-101408200D03*
X157806801Y-101408200D03*
X158306802Y-101408200D03*
X158806801Y-101408200D03*
X159306800Y-101408200D03*
X159806802Y-101408200D03*
D50*
X160476201Y-100738801D03*
X160476201Y-100238799D03*
X160476201Y-99738800D03*
X160476201Y-99238801D03*
X160476201Y-98738800D03*
X160476201Y-98238800D03*
X160476201Y-97738799D03*
X160476201Y-97238800D03*
X160476201Y-96738801D03*
X160476201Y-96238799D03*
D51*
X159806802Y-95569400D03*
X159306800Y-95569400D03*
X158806801Y-95569400D03*
X158306802Y-95569400D03*
X157806801Y-95569400D03*
X157306801Y-95569400D03*
X156806800Y-95569400D03*
X156306801Y-95569400D03*
X155806802Y-95569400D03*
X155306800Y-95569400D03*
D52*
X156769401Y-97701400D03*
X156769401Y-98488800D03*
X156769401Y-99276200D03*
X157556801Y-97701400D03*
X157556801Y-98488800D03*
X157556801Y-99276200D03*
X158344201Y-97701400D03*
X158344201Y-98488800D03*
X158344201Y-99276200D03*
%TD*%
D32*
%TO.C,J1*%
X143896800Y-82651600D03*
D33*
X146436800Y-82651600D03*
%TD*%
D53*
%TO.C,R5*%
X164597600Y-84823600D03*
X166247600Y-84823600D03*
%TD*%
D16*
%TO.C,C37*%
X155320000Y-104824000D03*
X155320000Y-106374000D03*
%TD*%
D48*
%TO.C,LO_OUT_B*%
X184550000Y-108418200D03*
D49*
X182500000Y-111118200D03*
X182500000Y-105718200D03*
%TD*%
D22*
%TO.C,R18*%
X159523777Y-109770624D03*
X160245025Y-109049376D03*
%TD*%
D14*
%TO.C,C11*%
X155021800Y-81775600D03*
X155021800Y-80225600D03*
%TD*%
D12*
%TO.C,C44*%
X146100000Y-88400000D03*
X147650000Y-88400000D03*
%TD*%
D54*
%TO.C,C31*%
X154517411Y-102657589D03*
X153838589Y-103336411D03*
%TD*%
D43*
%TO.C,C46*%
X149400201Y-99462200D03*
X150360201Y-99462200D03*
%TD*%
D55*
%TO.C,C35*%
X153540001Y-106090000D03*
X153539999Y-107990000D03*
%TD*%
D26*
%TO.C,C18*%
X159054601Y-106963056D03*
X159054601Y-106003056D03*
%TD*%
D43*
%TO.C,C7*%
X177942200Y-96585600D03*
X178902200Y-96585600D03*
%TD*%
%TO.C,C6*%
X168988799Y-97556400D03*
X169948799Y-97556400D03*
%TD*%
D18*
%TO.C,R31*%
X154305000Y-112611400D03*
X154305000Y-114261400D03*
%TD*%
D17*
%TO.C,R27*%
X145090000Y-99460000D03*
X145090000Y-100479998D03*
%TD*%
D48*
%TO.C,LO_OUT_A*%
X184545798Y-96585600D03*
D49*
X182495798Y-99285600D03*
X182495798Y-93885600D03*
%TD*%
D18*
%TO.C,R33*%
X149225000Y-112623600D03*
X149225000Y-114273600D03*
%TD*%
D17*
%TO.C,R23*%
X146220000Y-98440000D03*
X146220000Y-99460000D03*
%TD*%
D44*
%TO.C,R4*%
X164673800Y-83235600D03*
X164673800Y-81585600D03*
%TD*%
D35*
%TO.C,R12*%
X163551201Y-100622400D03*
X162829953Y-101343648D03*
%TD*%
D25*
%TO.C,R1*%
X162628800Y-82644599D03*
X162628800Y-81624601D03*
%TD*%
D15*
%TO.C,R10*%
X158430000Y-104864200D03*
X157708752Y-104142952D03*
%TD*%
D29*
X151800000Y-104750000D03*
X157800000Y-94550000D03*
X158500000Y-113100000D03*
X152800000Y-112600000D03*
X156900000Y-112600000D03*
X149500000Y-111600000D03*
M02*
