%TF.GenerationSoftware,KiCad,Pcbnew,10.0.4*%
%TF.CreationDate,2026-08-23T13:42:02+02:00*%
%TF.ProjectId,LO_PCB,4c4f5f50-4342-42e6-9b69-6361645f7063,rev?*%
%TF.SameCoordinates,Original*%
%TF.FileFunction,Paste,Top*%
%TF.FilePolarity,Positive*%
%FSLAX46Y46*%
G04 Gerber Fmt 4.6, Leading zero omitted, Abs format (unit mm)*
G04 Created by KiCad (PCBNEW 10.0.4) date 2026-08-23 13:42:02*
%MOMM*%
%LPD*%
G01*
G04 APERTURE LIST*
G04 Aperture macros list*
%AMRoundRect*
0 Rectangle with rounded corners*
0 $1 Rounding radius*
0 $2 $3 $4 $5 $6 $7 $8 $9 X,Y pos of 4 corners*
0 Add a 4 corners polygon primitive as box body*
4,1,4,$2,$3,$4,$5,$6,$7,$8,$9,$2,$3,0*
0 Add four circle primitives for the rounded corners*
1,1,$1+$1,$2,$3*
1,1,$1+$1,$4,$5*
1,1,$1+$1,$6,$7*
1,1,$1+$1,$8,$9*
0 Add four rect primitives between the rounded corners*
20,1,$1+$1,$2,$3,$4,$5,0*
20,1,$1+$1,$4,$5,$6,$7,0*
20,1,$1+$1,$6,$7,$8,$9,0*
20,1,$1+$1,$8,$9,$2,$3,0*%
G04 Aperture macros list end*
%ADD10C,0.000000*%
%ADD11RoundRect,0.225000X-0.225000X-0.250000X0.225000X-0.250000X0.225000X0.250000X-0.225000X0.250000X0*%
%ADD12RoundRect,0.225000X-0.017678X0.335876X-0.335876X0.017678X0.017678X-0.335876X0.335876X-0.017678X0*%
%ADD13RoundRect,0.225000X0.250000X-0.225000X0.250000X0.225000X-0.250000X0.225000X-0.250000X-0.225000X0*%
%ADD14RoundRect,0.135000X0.226274X0.035355X0.035355X0.226274X-0.226274X-0.035355X-0.035355X-0.226274X0*%
%ADD15RoundRect,0.225000X-0.250000X0.225000X-0.250000X-0.225000X0.250000X-0.225000X0.250000X0.225000X0*%
%ADD16RoundRect,0.135000X-0.185000X0.135000X-0.185000X-0.135000X0.185000X-0.135000X0.185000X0.135000X0*%
%ADD17RoundRect,0.200000X-0.275000X0.200000X-0.275000X-0.200000X0.275000X-0.200000X0.275000X0.200000X0*%
%ADD18RoundRect,0.140000X-0.170000X0.140000X-0.170000X-0.140000X0.170000X-0.140000X0.170000X0.140000X0*%
%ADD19RoundRect,0.135000X0.035355X-0.226274X0.226274X-0.035355X-0.035355X0.226274X-0.226274X0.035355X0*%
%ADD20RoundRect,0.140000X0.140000X0.170000X-0.140000X0.170000X-0.140000X-0.170000X0.140000X-0.170000X0*%
%ADD21RoundRect,0.225000X0.017678X-0.335876X0.335876X-0.017678X-0.017678X0.335876X-0.335876X0.017678X0*%
%ADD22RoundRect,0.135000X0.185000X-0.135000X0.185000X0.135000X-0.185000X0.135000X-0.185000X-0.135000X0*%
%ADD23RoundRect,0.140000X0.170000X-0.140000X0.170000X0.140000X-0.170000X0.140000X-0.170000X-0.140000X0*%
%ADD24RoundRect,0.200000X0.200000X0.275000X-0.200000X0.275000X-0.200000X-0.275000X0.200000X-0.275000X0*%
%ADD25RoundRect,0.140000X-0.140000X-0.170000X0.140000X-0.170000X0.140000X0.170000X-0.140000X0.170000X0*%
%ADD26O,0.599999X0.249999*%
%ADD27R,1.200000X2.000001*%
%ADD28R,1.016000X0.508000*%
%ADD29RoundRect,0.140000X0.219203X0.021213X0.021213X0.219203X-0.219203X-0.021213X-0.021213X-0.219203X0*%
%ADD30RoundRect,0.135000X-0.035355X0.226274X-0.226274X0.035355X0.035355X-0.226274X0.226274X-0.035355X0*%
%ADD31RoundRect,0.135000X-0.135000X-0.185000X0.135000X-0.185000X0.135000X0.185000X-0.135000X0.185000X0*%
%ADD32RoundRect,0.135000X-0.226274X-0.035355X-0.035355X-0.226274X0.226274X0.035355X0.035355X0.226274X0*%
%ADD33RoundRect,0.225000X0.225000X0.250000X-0.225000X0.250000X-0.225000X-0.250000X0.225000X-0.250000X0*%
%ADD34RoundRect,0.140000X0.021213X-0.219203X0.219203X-0.021213X-0.021213X0.219203X-0.219203X0.021213X0*%
%ADD35RoundRect,0.147500X-0.147500X-0.172500X0.147500X-0.172500X0.147500X0.172500X-0.147500X0.172500X0*%
%ADD36RoundRect,0.200000X0.335876X0.053033X0.053033X0.335876X-0.335876X-0.053033X-0.053033X-0.335876X0*%
%ADD37RoundRect,0.200000X0.275000X-0.200000X0.275000X0.200000X-0.275000X0.200000X-0.275000X-0.200000X0*%
%ADD38RoundRect,0.147500X0.172500X-0.147500X0.172500X0.147500X-0.172500X0.147500X-0.172500X-0.147500X0*%
%ADD39RoundRect,0.225000X-0.335876X-0.017678X-0.017678X-0.335876X0.335876X0.017678X0.017678X0.335876X0*%
%ADD40R,1.295400X0.762000*%
%ADD41R,0.939800X1.295400*%
%ADD42RoundRect,0.140000X-0.219203X-0.021213X-0.021213X-0.219203X0.219203X0.021213X0.021213X0.219203X0*%
%ADD43R,0.900000X0.610000*%
%ADD44R,5.000000X1.400000*%
%ADD45R,0.708000X0.254800*%
%ADD46R,0.254800X0.708000*%
%ADD47RoundRect,0.200000X-0.200000X-0.275000X0.200000X-0.275000X0.200000X0.275000X-0.200000X0.275000X0*%
%ADD48RoundRect,0.140000X-0.021213X0.219203X-0.219203X0.021213X0.021213X-0.219203X0.219203X-0.021213X0*%
%ADD49RoundRect,0.250000X-0.475000X0.250000X-0.475000X-0.250000X0.475000X-0.250000X0.475000X0.250000X0*%
G04 APERTURE END LIST*
D10*
%TO.C,U1*%
G36*
X158998599Y-83390300D02*
G01*
X157872599Y-83390300D01*
X157872599Y-81601299D01*
X158998599Y-81601299D01*
X158998599Y-83390300D01*
G37*
%TO.C,U2*%
G36*
X156669401Y-97459979D02*
G01*
X156527980Y-97601400D01*
X156133131Y-97601400D01*
X156133131Y-97065130D01*
X156669401Y-97065130D01*
X156669401Y-97459979D01*
G37*
G36*
X156669401Y-99517621D02*
G01*
X156669401Y-99912470D01*
X156133131Y-99912470D01*
X156133131Y-99376200D01*
X156527980Y-99376200D01*
X156669401Y-99517621D01*
G37*
G36*
X158980471Y-97601400D02*
G01*
X158585622Y-97601400D01*
X158444201Y-97459979D01*
X158444201Y-97065130D01*
X158980471Y-97065130D01*
X158980471Y-97601400D01*
G37*
G36*
X158980471Y-99912470D02*
G01*
X158444201Y-99912470D01*
X158444201Y-99517621D01*
X158585622Y-99376200D01*
X158980471Y-99376200D01*
X158980471Y-99912470D01*
G37*
G36*
X156669401Y-97942821D02*
G01*
X156669401Y-98247379D01*
X156527980Y-98388800D01*
X156133131Y-98388800D01*
X156133131Y-97801400D01*
X156527980Y-97801400D01*
X156669401Y-97942821D01*
G37*
G36*
X156669401Y-98730221D02*
G01*
X156669401Y-99034779D01*
X156527980Y-99176200D01*
X156133131Y-99176200D01*
X156133131Y-98588800D01*
X156527980Y-98588800D01*
X156669401Y-98730221D01*
G37*
G36*
X157456801Y-97459979D02*
G01*
X157315380Y-97601400D01*
X157010822Y-97601400D01*
X156869401Y-97459979D01*
X156869401Y-97065130D01*
X157456801Y-97065130D01*
X157456801Y-97459979D01*
G37*
G36*
X157456801Y-99517621D02*
G01*
X157456801Y-99912470D01*
X156869401Y-99912470D01*
X156869401Y-99517621D01*
X157010822Y-99376200D01*
X157315380Y-99376200D01*
X157456801Y-99517621D01*
G37*
G36*
X158244201Y-97459979D02*
G01*
X158102780Y-97601400D01*
X157798222Y-97601400D01*
X157656801Y-97459979D01*
X157656801Y-97065130D01*
X158244201Y-97065130D01*
X158244201Y-97459979D01*
G37*
G36*
X158244201Y-99517621D02*
G01*
X158244201Y-99912470D01*
X157656801Y-99912470D01*
X157656801Y-99517621D01*
X157798222Y-99376200D01*
X158102780Y-99376200D01*
X158244201Y-99517621D01*
G37*
G36*
X158980471Y-98388800D02*
G01*
X158585622Y-98388800D01*
X158444201Y-98247379D01*
X158444201Y-97942821D01*
X158585622Y-97801400D01*
X158980471Y-97801400D01*
X158980471Y-98388800D01*
G37*
G36*
X158980471Y-99176200D02*
G01*
X158585622Y-99176200D01*
X158444201Y-99034779D01*
X158444201Y-98730221D01*
X158585622Y-98588800D01*
X158980471Y-98588800D01*
X158980471Y-99176200D01*
G37*
G36*
X157456801Y-97942821D02*
G01*
X157456801Y-98247379D01*
X157315380Y-98388800D01*
X157010822Y-98388800D01*
X156869401Y-98247379D01*
X156869401Y-97942821D01*
X157010822Y-97801400D01*
X157315380Y-97801400D01*
X157456801Y-97942821D01*
G37*
G36*
X157456801Y-98730221D02*
G01*
X157456801Y-99034779D01*
X157315380Y-99176200D01*
X157010822Y-99176200D01*
X156869401Y-99034779D01*
X156869401Y-98730221D01*
X157010822Y-98588800D01*
X157315380Y-98588800D01*
X157456801Y-98730221D01*
G37*
G36*
X158244201Y-97942821D02*
G01*
X158244201Y-98247379D01*
X158102780Y-98388800D01*
X157798222Y-98388800D01*
X157656801Y-98247379D01*
X157656801Y-97942821D01*
X157798222Y-97801400D01*
X158102780Y-97801400D01*
X158244201Y-97942821D01*
G37*
G36*
X158244201Y-98730221D02*
G01*
X158244201Y-99034779D01*
X158102780Y-99176200D01*
X157798222Y-99176200D01*
X157656801Y-99034779D01*
X157656801Y-98730221D01*
X157798222Y-98588800D01*
X158102780Y-98588800D01*
X158244201Y-98730221D01*
G37*
%TD*%
D11*
%TO.C,C40*%
X150515000Y-96340000D03*
X152065000Y-96340000D03*
%TD*%
D12*
%TO.C,C39*%
X162985000Y-92774085D03*
X161888984Y-93870101D03*
%TD*%
D13*
%TO.C,C15*%
X170261800Y-81547600D03*
X170261800Y-79997600D03*
%TD*%
D14*
%TO.C,R13*%
X163551201Y-99362448D03*
X162829953Y-98641200D03*
%TD*%
D15*
%TO.C,C42*%
X159324000Y-91840000D03*
X159324000Y-93390000D03*
%TD*%
D16*
%TO.C,R30*%
X147316001Y-101533798D03*
X147316001Y-102553798D03*
%TD*%
D17*
%TO.C,R16*%
X151800001Y-106075001D03*
X151799999Y-107724999D03*
%TD*%
D18*
%TO.C,C9*%
X174319999Y-97560000D03*
X174319999Y-98520000D03*
%TD*%
D11*
%TO.C,C25*%
X167779400Y-89992200D03*
X169329400Y-89992200D03*
%TD*%
D19*
%TO.C,R11*%
X159689942Y-104860056D03*
X160411190Y-104138808D03*
%TD*%
D20*
%TO.C,C20*%
X165654201Y-100012800D03*
X164694201Y-100012800D03*
%TD*%
D13*
%TO.C,C14*%
X168229800Y-81547600D03*
X168229800Y-79997600D03*
%TD*%
D18*
%TO.C,C30*%
X156650000Y-102463600D03*
X156650000Y-103423600D03*
%TD*%
D21*
%TO.C,C33*%
X150556592Y-103291008D03*
X151652608Y-102194992D03*
%TD*%
D22*
%TO.C,R15*%
X168430000Y-102830000D03*
X168430000Y-101810002D03*
%TD*%
D16*
%TO.C,R14*%
X167361201Y-102832200D03*
X167361201Y-103852198D03*
%TD*%
D22*
%TO.C,R3*%
X160612800Y-81669599D03*
X160612800Y-80649601D03*
%TD*%
D14*
%TO.C,R6*%
X163194528Y-104081824D03*
X162473280Y-103360576D03*
%TD*%
D23*
%TO.C,C10*%
X176530000Y-96585600D03*
X176530000Y-95625600D03*
%TD*%
D24*
%TO.C,R2*%
X152108000Y-85346499D03*
X150458000Y-85346499D03*
%TD*%
D23*
%TO.C,C3*%
X161612800Y-82635401D03*
X161612800Y-81675401D03*
%TD*%
D18*
%TO.C,C21*%
X161260000Y-101820000D03*
X161260000Y-102780000D03*
%TD*%
D24*
%TO.C,R20*%
X153545000Y-109530000D03*
X151895000Y-109530000D03*
%TD*%
D15*
%TO.C,C2*%
X154438400Y-83287800D03*
X154438400Y-84837800D03*
%TD*%
D25*
%TO.C,C46*%
X147165000Y-96225000D03*
X148125000Y-96225000D03*
%TD*%
D15*
%TO.C,C4*%
X162362800Y-83959600D03*
X162362800Y-85509600D03*
%TD*%
D26*
%TO.C,U1*%
X159585600Y-83495801D03*
X159585600Y-82995800D03*
X159585600Y-82495801D03*
X159585600Y-81995802D03*
X159585600Y-81495800D03*
X157285600Y-81495800D03*
X157285600Y-81995802D03*
X157285600Y-82495801D03*
X157285600Y-82995800D03*
X157285600Y-83495801D03*
D27*
X158435600Y-82495798D03*
%TD*%
D19*
%TO.C,R9*%
X152139375Y-103610625D03*
X152860625Y-102889375D03*
%TD*%
D28*
%TO.C,Q1*%
X152100800Y-83606600D03*
X152100800Y-81701600D03*
X149814800Y-82654100D03*
%TD*%
D11*
%TO.C,C22*%
X167792401Y-84810600D03*
X169342401Y-84810600D03*
%TD*%
D29*
%TO.C,C27*%
X154737071Y-93107662D03*
X154058249Y-92428840D03*
%TD*%
D30*
%TO.C,R17*%
X158822201Y-109065200D03*
X158100953Y-109786448D03*
%TD*%
D12*
%TO.C,C41*%
X164108008Y-93899084D03*
X163011992Y-94995100D03*
%TD*%
D11*
%TO.C,C45*%
X146080000Y-85430000D03*
X147630000Y-85430000D03*
%TD*%
D31*
%TO.C,R27*%
X147310201Y-100512200D03*
X148330201Y-100512200D03*
%TD*%
D32*
%TO.C,R7*%
X153658249Y-90583640D03*
X154379499Y-91304890D03*
%TD*%
D33*
%TO.C,C43*%
X144625000Y-86975000D03*
X143075000Y-86975000D03*
%TD*%
D20*
%TO.C,C19*%
X165656801Y-101028800D03*
X164696801Y-101028800D03*
%TD*%
D34*
%TO.C,C28*%
X163950589Y-95739411D03*
X164629411Y-95060589D03*
%TD*%
D31*
%TO.C,R25*%
X147310201Y-99462200D03*
X148330201Y-99462200D03*
%TD*%
%TO.C,R24*%
X143020000Y-99460000D03*
X144040000Y-99460000D03*
%TD*%
D30*
%TO.C,R8*%
X166450625Y-94629375D03*
X165729375Y-95350625D03*
%TD*%
D35*
%TO.C,L1*%
X172333999Y-97562474D03*
X173303999Y-97562474D03*
%TD*%
D23*
%TO.C,C8*%
X171310000Y-97555600D03*
X171310000Y-96595600D03*
%TD*%
D24*
%TO.C,R28*%
X158475000Y-114200000D03*
X156825000Y-114200000D03*
%TD*%
D15*
%TO.C,C36*%
X156276000Y-91840000D03*
X156276000Y-93390000D03*
%TD*%
D36*
%TO.C,R19*%
X152348362Y-94639562D03*
X151181638Y-93472838D03*
%TD*%
D15*
%TO.C,C5*%
X160762800Y-83959600D03*
X160762800Y-85509600D03*
%TD*%
D25*
%TO.C,C49*%
X149399201Y-100510000D03*
X150359201Y-100510000D03*
%TD*%
D11*
%TO.C,C24*%
X167792397Y-88341201D03*
X169342397Y-88341201D03*
%TD*%
D17*
%TO.C,R32*%
X151765000Y-112623600D03*
X151765000Y-114273600D03*
%TD*%
D24*
%TO.C,R21*%
X149025000Y-88475000D03*
X147375000Y-88475000D03*
%TD*%
D23*
%TO.C,C17*%
X160070601Y-106967200D03*
X160070601Y-106007200D03*
%TD*%
D37*
%TO.C,R22*%
X147650000Y-92225000D03*
X147650000Y-90575000D03*
%TD*%
D13*
%TO.C,C34*%
X157800000Y-93390000D03*
X157800000Y-91840000D03*
%TD*%
D38*
%TO.C,L2*%
X175430000Y-97555000D03*
X175430000Y-96585000D03*
%TD*%
D11*
%TO.C,C23*%
X167791801Y-86436200D03*
X169341801Y-86436200D03*
%TD*%
D13*
%TO.C,C16*%
X171912800Y-81534600D03*
X171912800Y-79984600D03*
%TD*%
D39*
%TO.C,C38*%
X152299249Y-92414840D03*
X153395265Y-93510856D03*
%TD*%
D40*
%TO.C,X1*%
X141670004Y-90575000D03*
X141670004Y-91845000D03*
X141670004Y-93115000D03*
D41*
X142490002Y-94950000D03*
X145030002Y-94950000D03*
D40*
X145850000Y-93115000D03*
X145850000Y-91845000D03*
X145850000Y-90575000D03*
D41*
X145030002Y-88740000D03*
X142490002Y-88740000D03*
%TD*%
D37*
%TO.C,R26*%
X155799999Y-112624999D03*
X155800001Y-110975001D03*
%TD*%
D25*
%TO.C,C47*%
X141040000Y-99462200D03*
X142000000Y-99462200D03*
%TD*%
D15*
%TO.C,C1*%
X156064000Y-83287800D03*
X156064000Y-84837800D03*
%TD*%
D42*
%TO.C,C32*%
X157471080Y-107710001D03*
X158149902Y-108388823D03*
%TD*%
D23*
%TO.C,C29*%
X153390600Y-98574800D03*
X153390600Y-97614800D03*
%TD*%
D25*
%TO.C,C12*%
X177878801Y-108420200D03*
X178838801Y-108420200D03*
%TD*%
D43*
%TO.C,EXT_REF_IN1*%
X135442201Y-99462200D03*
D44*
X137492201Y-96762200D03*
X137492201Y-102162200D03*
%TD*%
D25*
%TO.C,C26*%
X164750201Y-102832200D03*
X165710201Y-102832200D03*
%TD*%
D13*
%TO.C,C13*%
X166578800Y-81547600D03*
X166578800Y-79997600D03*
%TD*%
D45*
%TO.C,U2*%
X154637401Y-96238799D03*
X154637401Y-96738801D03*
X154637401Y-97238800D03*
X154637401Y-97738799D03*
X154637401Y-98238800D03*
X154637401Y-98738800D03*
X154637401Y-99238801D03*
X154637401Y-99738800D03*
X154637401Y-100238799D03*
X154637401Y-100738801D03*
D46*
X155306800Y-101408200D03*
X155806802Y-101408200D03*
X156306801Y-101408200D03*
X156806800Y-101408200D03*
X157306801Y-101408200D03*
X157806801Y-101408200D03*
X158306802Y-101408200D03*
X158806801Y-101408200D03*
X159306800Y-101408200D03*
X159806802Y-101408200D03*
D45*
X160476201Y-100738801D03*
X160476201Y-100238799D03*
X160476201Y-99738800D03*
X160476201Y-99238801D03*
X160476201Y-98738800D03*
X160476201Y-98238800D03*
X160476201Y-97738799D03*
X160476201Y-97238800D03*
X160476201Y-96738801D03*
X160476201Y-96238799D03*
D46*
X159806802Y-95569400D03*
X159306800Y-95569400D03*
X158806801Y-95569400D03*
X158306802Y-95569400D03*
X157806801Y-95569400D03*
X157306801Y-95569400D03*
X156806800Y-95569400D03*
X156306801Y-95569400D03*
X155806802Y-95569400D03*
X155306800Y-95569400D03*
%TD*%
D47*
%TO.C,R5*%
X164597600Y-84823600D03*
X166247600Y-84823600D03*
%TD*%
D15*
%TO.C,C37*%
X155300000Y-106025000D03*
X155300000Y-107575000D03*
%TD*%
D43*
%TO.C,LO_OUT_B1*%
X184550000Y-108418200D03*
D44*
X182500000Y-111118200D03*
X182500000Y-105718200D03*
%TD*%
D23*
%TO.C,C50*%
X146225000Y-97155000D03*
X146225000Y-96195000D03*
%TD*%
D19*
%TO.C,R18*%
X159523777Y-109770624D03*
X160245025Y-109049376D03*
%TD*%
D13*
%TO.C,C11*%
X155021800Y-81775600D03*
X155021800Y-80225600D03*
%TD*%
D11*
%TO.C,C44*%
X146100000Y-86975000D03*
X147650000Y-86975000D03*
%TD*%
D48*
%TO.C,C31*%
X154689411Y-102485589D03*
X154010589Y-103164411D03*
%TD*%
D25*
%TO.C,C48*%
X149400201Y-99462200D03*
X150360201Y-99462200D03*
%TD*%
D49*
%TO.C,C35*%
X153540001Y-106090000D03*
X153539999Y-107990000D03*
%TD*%
D23*
%TO.C,C18*%
X159054601Y-106963056D03*
X159054601Y-106003056D03*
%TD*%
D25*
%TO.C,C7*%
X177942200Y-96585600D03*
X178902200Y-96585600D03*
%TD*%
%TO.C,C6*%
X168988799Y-97556400D03*
X169948799Y-97556400D03*
%TD*%
D17*
%TO.C,R31*%
X154305000Y-112611400D03*
X154305000Y-114261400D03*
%TD*%
D16*
%TO.C,R29*%
X145090000Y-99460000D03*
X145090000Y-100479998D03*
%TD*%
D43*
%TO.C,LO_OUT_A1*%
X184545798Y-96585600D03*
D44*
X182495798Y-99285600D03*
X182495798Y-93885600D03*
%TD*%
D17*
%TO.C,R33*%
X149225000Y-112623600D03*
X149225000Y-114273600D03*
%TD*%
D16*
%TO.C,R23*%
X146220000Y-98440000D03*
X146220000Y-99460000D03*
%TD*%
D37*
%TO.C,R4*%
X164673800Y-83235600D03*
X164673800Y-81585600D03*
%TD*%
D30*
%TO.C,R12*%
X163551201Y-100622400D03*
X162829953Y-101343648D03*
%TD*%
D22*
%TO.C,R1*%
X162628800Y-82644599D03*
X162628800Y-81624601D03*
%TD*%
D14*
%TO.C,R10*%
X158430000Y-104864200D03*
X157708752Y-104142952D03*
%TD*%
M02*
