%TF.GenerationSoftware,KiCad,Pcbnew,10.0.4*%
%TF.CreationDate,2026-08-17T00:35:40+02:00*%
%TF.ProjectId,LO_PCB,4c4f5f50-4342-42e6-9b69-6361645f7063,rev?*%
%TF.SameCoordinates,Original*%
%TF.FileFunction,Legend,Top*%
%TF.FilePolarity,Positive*%
%FSLAX46Y46*%
G04 Gerber Fmt 4.6, Leading zero omitted, Abs format (unit mm)*
G04 Created by KiCad (PCBNEW 10.0.4) date 2026-08-17 00:35:40*
%MOMM*%
%LPD*%
G01*
G04 APERTURE LIST*
G04 Aperture macros list*
%AMRoundRect*
0 Rectangle with rounded corners*
0 $1 Rounding radius*
0 $2 $3 $4 $5 $6 $7 $8 $9 X,Y pos of 4 corners*
0 Add a 4 corners polygon primitive as box body*
4,1,4,$2,$3,$4,$5,$6,$7,$8,$9,$2,$3,0*
0 Add four circle primitives for the rounded corners*
1,1,$1+$1,$2,$3*
1,1,$1+$1,$4,$5*
1,1,$1+$1,$6,$7*
1,1,$1+$1,$8,$9*
0 Add four rect primitives between the rounded corners*
20,1,$1+$1,$2,$3,$4,$5,0*
20,1,$1+$1,$4,$5,$6,$7,0*
20,1,$1+$1,$6,$7,$8,$9,0*
20,1,$1+$1,$8,$9,$2,$3,0*%
G04 Aperture macros list end*
%ADD10C,0.250000*%
%ADD11C,0.120000*%
%ADD12C,0.100000*%
%ADD13C,0.200000*%
%ADD14C,0.152400*%
%ADD15C,0.000000*%
%ADD16RoundRect,0.225000X-0.225000X-0.250000X0.225000X-0.250000X0.225000X0.250000X-0.225000X0.250000X0*%
%ADD17RoundRect,0.225000X-0.017678X0.335876X-0.335876X0.017678X0.017678X-0.335876X0.335876X-0.017678X0*%
%ADD18RoundRect,0.225000X0.250000X-0.225000X0.250000X0.225000X-0.250000X0.225000X-0.250000X-0.225000X0*%
%ADD19RoundRect,0.135000X0.226274X0.035355X0.035355X0.226274X-0.226274X-0.035355X-0.035355X-0.226274X0*%
%ADD20RoundRect,0.225000X-0.250000X0.225000X-0.250000X-0.225000X0.250000X-0.225000X0.250000X0.225000X0*%
%ADD21RoundRect,0.135000X-0.185000X0.135000X-0.185000X-0.135000X0.185000X-0.135000X0.185000X0.135000X0*%
%ADD22RoundRect,0.200000X-0.275000X0.200000X-0.275000X-0.200000X0.275000X-0.200000X0.275000X0.200000X0*%
%ADD23RoundRect,0.140000X-0.170000X0.140000X-0.170000X-0.140000X0.170000X-0.140000X0.170000X0.140000X0*%
%ADD24C,0.700000*%
%ADD25C,4.400000*%
%ADD26RoundRect,0.135000X0.035355X-0.226274X0.226274X-0.035355X-0.035355X0.226274X-0.226274X0.035355X0*%
%ADD27RoundRect,0.140000X0.140000X0.170000X-0.140000X0.170000X-0.140000X-0.170000X0.140000X-0.170000X0*%
%ADD28RoundRect,0.225000X0.017678X-0.335876X0.335876X-0.017678X-0.017678X0.335876X-0.335876X0.017678X0*%
%ADD29RoundRect,0.135000X0.185000X-0.135000X0.185000X0.135000X-0.185000X0.135000X-0.185000X-0.135000X0*%
%ADD30RoundRect,0.140000X0.170000X-0.140000X0.170000X0.140000X-0.170000X0.140000X-0.170000X-0.140000X0*%
%ADD31RoundRect,0.200000X0.200000X0.275000X-0.200000X0.275000X-0.200000X-0.275000X0.200000X-0.275000X0*%
%ADD32O,0.599999X0.249999*%
%ADD33C,0.600000*%
%ADD34R,1.200000X2.000001*%
%ADD35R,1.016000X0.508000*%
%ADD36R,1.700000X1.700000*%
%ADD37C,1.700000*%
%ADD38RoundRect,0.140000X0.219203X0.021213X0.021213X0.219203X-0.219203X-0.021213X-0.021213X-0.219203X0*%
%ADD39RoundRect,0.135000X-0.035355X0.226274X-0.226274X0.035355X0.035355X-0.226274X0.226274X-0.035355X0*%
%ADD40R,1.397000X1.346200*%
%ADD41RoundRect,0.135000X-0.135000X-0.185000X0.135000X-0.185000X0.135000X0.185000X-0.135000X0.185000X0*%
%ADD42RoundRect,0.135000X-0.226274X-0.035355X-0.035355X-0.226274X0.226274X0.035355X0.035355X0.226274X0*%
%ADD43RoundRect,0.225000X0.225000X0.250000X-0.225000X0.250000X-0.225000X-0.250000X0.225000X-0.250000X0*%
%ADD44RoundRect,0.140000X0.021213X-0.219203X0.219203X-0.021213X-0.021213X0.219203X-0.219203X0.021213X0*%
%ADD45RoundRect,0.147500X-0.147500X-0.172500X0.147500X-0.172500X0.147500X0.172500X-0.147500X0.172500X0*%
%ADD46RoundRect,0.200000X0.335876X0.053033X0.053033X0.335876X-0.335876X-0.053033X-0.053033X-0.335876X0*%
%ADD47RoundRect,0.140000X-0.140000X-0.170000X0.140000X-0.170000X0.140000X0.170000X-0.140000X0.170000X0*%
%ADD48RoundRect,0.200000X0.275000X-0.200000X0.275000X0.200000X-0.275000X0.200000X-0.275000X-0.200000X0*%
%ADD49RoundRect,0.147500X0.172500X-0.147500X0.172500X0.147500X-0.172500X0.147500X-0.172500X-0.147500X0*%
%ADD50RoundRect,0.225000X-0.335876X-0.017678X-0.017678X-0.335876X0.335876X0.017678X0.017678X0.335876X0*%
%ADD51RoundRect,0.140000X-0.219203X-0.021213X-0.021213X-0.219203X0.219203X0.021213X0.021213X0.219203X0*%
%ADD52R,0.900000X0.610000*%
%ADD53R,5.000000X1.400000*%
%ADD54R,0.708000X0.254800*%
%ADD55R,0.254800X0.708000*%
%ADD56C,1.016000*%
%ADD57RoundRect,0.200000X-0.200000X-0.275000X0.200000X-0.275000X0.200000X0.275000X-0.200000X0.275000X0*%
%ADD58RoundRect,0.140000X-0.021213X0.219203X-0.219203X0.021213X0.021213X-0.219203X0.219203X-0.021213X0*%
%ADD59RoundRect,0.250000X-0.475000X0.250000X-0.475000X-0.250000X0.475000X-0.250000X0.475000X0.250000X0*%
G04 APERTURE END LIST*
D10*
X142637092Y-85007833D02*
X143589473Y-85007833D01*
X146837092Y-85057833D02*
X147789473Y-85057833D01*
X147313282Y-85534023D02*
X147313282Y-84581642D01*
D11*
X157120476Y-80023855D02*
X157120476Y-80671474D01*
X157120476Y-80671474D02*
X157158571Y-80747664D01*
X157158571Y-80747664D02*
X157196666Y-80785760D01*
X157196666Y-80785760D02*
X157272857Y-80823855D01*
X157272857Y-80823855D02*
X157425238Y-80823855D01*
X157425238Y-80823855D02*
X157501428Y-80785760D01*
X157501428Y-80785760D02*
X157539523Y-80747664D01*
X157539523Y-80747664D02*
X157577619Y-80671474D01*
X157577619Y-80671474D02*
X157577619Y-80023855D01*
X158377618Y-80823855D02*
X157920475Y-80823855D01*
X158149047Y-80823855D02*
X158149047Y-80023855D01*
X158149047Y-80023855D02*
X158072856Y-80138140D01*
X158072856Y-80138140D02*
X157996666Y-80214331D01*
X157996666Y-80214331D02*
X157920475Y-80252426D01*
X145263333Y-114043855D02*
X145263333Y-114615283D01*
X145263333Y-114615283D02*
X145225238Y-114729569D01*
X145225238Y-114729569D02*
X145149047Y-114805760D01*
X145149047Y-114805760D02*
X145034762Y-114843855D01*
X145034762Y-114843855D02*
X144958571Y-114843855D01*
X145606190Y-114120045D02*
X145644286Y-114081950D01*
X145644286Y-114081950D02*
X145720476Y-114043855D01*
X145720476Y-114043855D02*
X145910952Y-114043855D01*
X145910952Y-114043855D02*
X145987143Y-114081950D01*
X145987143Y-114081950D02*
X146025238Y-114120045D01*
X146025238Y-114120045D02*
X146063333Y-114196236D01*
X146063333Y-114196236D02*
X146063333Y-114272426D01*
X146063333Y-114272426D02*
X146025238Y-114386712D01*
X146025238Y-114386712D02*
X145568095Y-114843855D01*
X145568095Y-114843855D02*
X146063333Y-114843855D01*
X137421804Y-103563855D02*
X137574185Y-103563855D01*
X137574185Y-103563855D02*
X137650375Y-103601950D01*
X137650375Y-103601950D02*
X137726566Y-103678140D01*
X137726566Y-103678140D02*
X137764661Y-103830521D01*
X137764661Y-103830521D02*
X137764661Y-104097188D01*
X137764661Y-104097188D02*
X137726566Y-104249569D01*
X137726566Y-104249569D02*
X137650375Y-104325760D01*
X137650375Y-104325760D02*
X137574185Y-104363855D01*
X137574185Y-104363855D02*
X137421804Y-104363855D01*
X137421804Y-104363855D02*
X137345613Y-104325760D01*
X137345613Y-104325760D02*
X137269423Y-104249569D01*
X137269423Y-104249569D02*
X137231327Y-104097188D01*
X137231327Y-104097188D02*
X137231327Y-103830521D01*
X137231327Y-103830521D02*
X137269423Y-103678140D01*
X137269423Y-103678140D02*
X137345613Y-103601950D01*
X137345613Y-103601950D02*
X137421804Y-103563855D01*
X138069422Y-104325760D02*
X138183708Y-104363855D01*
X138183708Y-104363855D02*
X138374184Y-104363855D01*
X138374184Y-104363855D02*
X138450375Y-104325760D01*
X138450375Y-104325760D02*
X138488470Y-104287664D01*
X138488470Y-104287664D02*
X138526565Y-104211474D01*
X138526565Y-104211474D02*
X138526565Y-104135283D01*
X138526565Y-104135283D02*
X138488470Y-104059093D01*
X138488470Y-104059093D02*
X138450375Y-104020998D01*
X138450375Y-104020998D02*
X138374184Y-103982902D01*
X138374184Y-103982902D02*
X138221803Y-103944807D01*
X138221803Y-103944807D02*
X138145613Y-103906712D01*
X138145613Y-103906712D02*
X138107518Y-103868617D01*
X138107518Y-103868617D02*
X138069422Y-103792426D01*
X138069422Y-103792426D02*
X138069422Y-103716236D01*
X138069422Y-103716236D02*
X138107518Y-103640045D01*
X138107518Y-103640045D02*
X138145613Y-103601950D01*
X138145613Y-103601950D02*
X138221803Y-103563855D01*
X138221803Y-103563855D02*
X138412280Y-103563855D01*
X138412280Y-103563855D02*
X138526565Y-103601950D01*
X139326566Y-104287664D02*
X139288470Y-104325760D01*
X139288470Y-104325760D02*
X139174185Y-104363855D01*
X139174185Y-104363855D02*
X139097994Y-104363855D01*
X139097994Y-104363855D02*
X138983708Y-104325760D01*
X138983708Y-104325760D02*
X138907518Y-104249569D01*
X138907518Y-104249569D02*
X138869423Y-104173379D01*
X138869423Y-104173379D02*
X138831327Y-104020998D01*
X138831327Y-104020998D02*
X138831327Y-103906712D01*
X138831327Y-103906712D02*
X138869423Y-103754331D01*
X138869423Y-103754331D02*
X138907518Y-103678140D01*
X138907518Y-103678140D02*
X138983708Y-103601950D01*
X138983708Y-103601950D02*
X139097994Y-103563855D01*
X139097994Y-103563855D02*
X139174185Y-103563855D01*
X139174185Y-103563855D02*
X139288470Y-103601950D01*
X139288470Y-103601950D02*
X139326566Y-103640045D01*
X139669423Y-104363855D02*
X139669423Y-103563855D01*
X140050375Y-103830521D02*
X140050375Y-104363855D01*
X140050375Y-103906712D02*
X140088470Y-103868617D01*
X140088470Y-103868617D02*
X140164660Y-103830521D01*
X140164660Y-103830521D02*
X140278946Y-103830521D01*
X140278946Y-103830521D02*
X140355137Y-103868617D01*
X140355137Y-103868617D02*
X140393232Y-103944807D01*
X140393232Y-103944807D02*
X140393232Y-104363855D01*
D12*
X153949999Y-95014895D02*
X153949999Y-95205371D01*
X153759523Y-95129180D02*
X153949999Y-95205371D01*
X153949999Y-95205371D02*
X154140476Y-95129180D01*
X153835714Y-95357752D02*
X153949999Y-95205371D01*
X153949999Y-95205371D02*
X154064285Y-95357752D01*
D11*
X159860476Y-94103855D02*
X159860476Y-94751474D01*
X159860476Y-94751474D02*
X159898571Y-94827664D01*
X159898571Y-94827664D02*
X159936666Y-94865760D01*
X159936666Y-94865760D02*
X160012857Y-94903855D01*
X160012857Y-94903855D02*
X160165238Y-94903855D01*
X160165238Y-94903855D02*
X160241428Y-94865760D01*
X160241428Y-94865760D02*
X160279523Y-94827664D01*
X160279523Y-94827664D02*
X160317619Y-94751474D01*
X160317619Y-94751474D02*
X160317619Y-94103855D01*
X160660475Y-94180045D02*
X160698571Y-94141950D01*
X160698571Y-94141950D02*
X160774761Y-94103855D01*
X160774761Y-94103855D02*
X160965237Y-94103855D01*
X160965237Y-94103855D02*
X161041428Y-94141950D01*
X161041428Y-94141950D02*
X161079523Y-94180045D01*
X161079523Y-94180045D02*
X161117618Y-94256236D01*
X161117618Y-94256236D02*
X161117618Y-94332426D01*
X161117618Y-94332426D02*
X161079523Y-94446712D01*
X161079523Y-94446712D02*
X160622380Y-94903855D01*
X160622380Y-94903855D02*
X161117618Y-94903855D01*
X141213333Y-83573855D02*
X141213333Y-84145283D01*
X141213333Y-84145283D02*
X141175238Y-84259569D01*
X141175238Y-84259569D02*
X141099047Y-84335760D01*
X141099047Y-84335760D02*
X140984762Y-84373855D01*
X140984762Y-84373855D02*
X140908571Y-84373855D01*
X142013333Y-84373855D02*
X141556190Y-84373855D01*
X141784762Y-84373855D02*
X141784762Y-83573855D01*
X141784762Y-83573855D02*
X141708571Y-83688140D01*
X141708571Y-83688140D02*
X141632381Y-83764331D01*
X141632381Y-83764331D02*
X141556190Y-83802426D01*
X177650375Y-104113855D02*
X177269423Y-104113855D01*
X177269423Y-104113855D02*
X177269423Y-103313855D01*
X178069423Y-103313855D02*
X178221804Y-103313855D01*
X178221804Y-103313855D02*
X178297994Y-103351950D01*
X178297994Y-103351950D02*
X178374185Y-103428140D01*
X178374185Y-103428140D02*
X178412280Y-103580521D01*
X178412280Y-103580521D02*
X178412280Y-103847188D01*
X178412280Y-103847188D02*
X178374185Y-103999569D01*
X178374185Y-103999569D02*
X178297994Y-104075760D01*
X178297994Y-104075760D02*
X178221804Y-104113855D01*
X178221804Y-104113855D02*
X178069423Y-104113855D01*
X178069423Y-104113855D02*
X177993232Y-104075760D01*
X177993232Y-104075760D02*
X177917042Y-103999569D01*
X177917042Y-103999569D02*
X177878946Y-103847188D01*
X177878946Y-103847188D02*
X177878946Y-103580521D01*
X177878946Y-103580521D02*
X177917042Y-103428140D01*
X177917042Y-103428140D02*
X177993232Y-103351950D01*
X177993232Y-103351950D02*
X178069423Y-103313855D01*
X178564661Y-104190045D02*
X179174184Y-104190045D01*
X179517042Y-103313855D02*
X179669423Y-103313855D01*
X179669423Y-103313855D02*
X179745613Y-103351950D01*
X179745613Y-103351950D02*
X179821804Y-103428140D01*
X179821804Y-103428140D02*
X179859899Y-103580521D01*
X179859899Y-103580521D02*
X179859899Y-103847188D01*
X179859899Y-103847188D02*
X179821804Y-103999569D01*
X179821804Y-103999569D02*
X179745613Y-104075760D01*
X179745613Y-104075760D02*
X179669423Y-104113855D01*
X179669423Y-104113855D02*
X179517042Y-104113855D01*
X179517042Y-104113855D02*
X179440851Y-104075760D01*
X179440851Y-104075760D02*
X179364661Y-103999569D01*
X179364661Y-103999569D02*
X179326565Y-103847188D01*
X179326565Y-103847188D02*
X179326565Y-103580521D01*
X179326565Y-103580521D02*
X179364661Y-103428140D01*
X179364661Y-103428140D02*
X179440851Y-103351950D01*
X179440851Y-103351950D02*
X179517042Y-103313855D01*
X180202756Y-103313855D02*
X180202756Y-103961474D01*
X180202756Y-103961474D02*
X180240851Y-104037664D01*
X180240851Y-104037664D02*
X180278946Y-104075760D01*
X180278946Y-104075760D02*
X180355137Y-104113855D01*
X180355137Y-104113855D02*
X180507518Y-104113855D01*
X180507518Y-104113855D02*
X180583708Y-104075760D01*
X180583708Y-104075760D02*
X180621803Y-104037664D01*
X180621803Y-104037664D02*
X180659899Y-103961474D01*
X180659899Y-103961474D02*
X180659899Y-103313855D01*
X180926565Y-103313855D02*
X181383708Y-103313855D01*
X181155136Y-104113855D02*
X181155136Y-103313855D01*
X181459899Y-104190045D02*
X182069422Y-104190045D01*
X182526565Y-103694807D02*
X182640851Y-103732902D01*
X182640851Y-103732902D02*
X182678946Y-103770998D01*
X182678946Y-103770998D02*
X182717042Y-103847188D01*
X182717042Y-103847188D02*
X182717042Y-103961474D01*
X182717042Y-103961474D02*
X182678946Y-104037664D01*
X182678946Y-104037664D02*
X182640851Y-104075760D01*
X182640851Y-104075760D02*
X182564661Y-104113855D01*
X182564661Y-104113855D02*
X182259899Y-104113855D01*
X182259899Y-104113855D02*
X182259899Y-103313855D01*
X182259899Y-103313855D02*
X182526565Y-103313855D01*
X182526565Y-103313855D02*
X182602756Y-103351950D01*
X182602756Y-103351950D02*
X182640851Y-103390045D01*
X182640851Y-103390045D02*
X182678946Y-103466236D01*
X182678946Y-103466236D02*
X182678946Y-103542426D01*
X182678946Y-103542426D02*
X182640851Y-103618617D01*
X182640851Y-103618617D02*
X182602756Y-103656712D01*
X182602756Y-103656712D02*
X182526565Y-103694807D01*
X182526565Y-103694807D02*
X182259899Y-103694807D01*
X177650375Y-92363855D02*
X177269423Y-92363855D01*
X177269423Y-92363855D02*
X177269423Y-91563855D01*
X178069423Y-91563855D02*
X178221804Y-91563855D01*
X178221804Y-91563855D02*
X178297994Y-91601950D01*
X178297994Y-91601950D02*
X178374185Y-91678140D01*
X178374185Y-91678140D02*
X178412280Y-91830521D01*
X178412280Y-91830521D02*
X178412280Y-92097188D01*
X178412280Y-92097188D02*
X178374185Y-92249569D01*
X178374185Y-92249569D02*
X178297994Y-92325760D01*
X178297994Y-92325760D02*
X178221804Y-92363855D01*
X178221804Y-92363855D02*
X178069423Y-92363855D01*
X178069423Y-92363855D02*
X177993232Y-92325760D01*
X177993232Y-92325760D02*
X177917042Y-92249569D01*
X177917042Y-92249569D02*
X177878946Y-92097188D01*
X177878946Y-92097188D02*
X177878946Y-91830521D01*
X177878946Y-91830521D02*
X177917042Y-91678140D01*
X177917042Y-91678140D02*
X177993232Y-91601950D01*
X177993232Y-91601950D02*
X178069423Y-91563855D01*
X178564661Y-92440045D02*
X179174184Y-92440045D01*
X179517042Y-91563855D02*
X179669423Y-91563855D01*
X179669423Y-91563855D02*
X179745613Y-91601950D01*
X179745613Y-91601950D02*
X179821804Y-91678140D01*
X179821804Y-91678140D02*
X179859899Y-91830521D01*
X179859899Y-91830521D02*
X179859899Y-92097188D01*
X179859899Y-92097188D02*
X179821804Y-92249569D01*
X179821804Y-92249569D02*
X179745613Y-92325760D01*
X179745613Y-92325760D02*
X179669423Y-92363855D01*
X179669423Y-92363855D02*
X179517042Y-92363855D01*
X179517042Y-92363855D02*
X179440851Y-92325760D01*
X179440851Y-92325760D02*
X179364661Y-92249569D01*
X179364661Y-92249569D02*
X179326565Y-92097188D01*
X179326565Y-92097188D02*
X179326565Y-91830521D01*
X179326565Y-91830521D02*
X179364661Y-91678140D01*
X179364661Y-91678140D02*
X179440851Y-91601950D01*
X179440851Y-91601950D02*
X179517042Y-91563855D01*
X180202756Y-91563855D02*
X180202756Y-92211474D01*
X180202756Y-92211474D02*
X180240851Y-92287664D01*
X180240851Y-92287664D02*
X180278946Y-92325760D01*
X180278946Y-92325760D02*
X180355137Y-92363855D01*
X180355137Y-92363855D02*
X180507518Y-92363855D01*
X180507518Y-92363855D02*
X180583708Y-92325760D01*
X180583708Y-92325760D02*
X180621803Y-92287664D01*
X180621803Y-92287664D02*
X180659899Y-92211474D01*
X180659899Y-92211474D02*
X180659899Y-91563855D01*
X180926565Y-91563855D02*
X181383708Y-91563855D01*
X181155136Y-92363855D02*
X181155136Y-91563855D01*
X181459899Y-92440045D02*
X182069422Y-92440045D01*
X182221803Y-92135283D02*
X182602756Y-92135283D01*
X182145613Y-92363855D02*
X182412280Y-91563855D01*
X182412280Y-91563855D02*
X182678946Y-92363855D01*
%TO.C,C40*%
X151149420Y-95830000D02*
X151430580Y-95830000D01*
X151149420Y-96850000D02*
X151430580Y-96850000D01*
%TO.C,C39*%
X162340772Y-93032064D02*
X162141963Y-93230873D01*
X163062021Y-93753313D02*
X162863212Y-93952122D01*
%TO.C,C15*%
X169751800Y-80913181D02*
X169751800Y-80632019D01*
X170771800Y-80913181D02*
X170771800Y-80632019D01*
%TO.C,R13*%
X163030518Y-99379165D02*
X162813237Y-99161884D01*
X163567917Y-98841764D02*
X163350636Y-98624483D01*
%TO.C,C42*%
X158814000Y-92474420D02*
X158814000Y-92755580D01*
X159834000Y-92474420D02*
X159834000Y-92755580D01*
%TO.C,R28*%
X146936001Y-101890157D02*
X146936001Y-102197439D01*
X147696001Y-101890157D02*
X147696001Y-102197439D01*
%TO.C,R16*%
X151277501Y-106337742D02*
X151277500Y-106812258D01*
X152322500Y-106337742D02*
X152322499Y-106812258D01*
%TO.C,C9*%
X173959999Y-97932164D02*
X173960000Y-98147834D01*
X174679998Y-97932166D02*
X174679999Y-98147836D01*
%TO.C,C25*%
X168413820Y-89482200D02*
X168694979Y-89482200D01*
X168413821Y-90502200D02*
X168694980Y-90502200D01*
%TO.C,R11*%
X159673226Y-104339372D02*
X159890507Y-104122092D01*
X160210625Y-104876772D02*
X160427906Y-104659492D01*
%TO.C,C20*%
X165282035Y-100372799D02*
X165066366Y-100372800D01*
X165282036Y-99652800D02*
X165066367Y-99652801D01*
%TO.C,C14*%
X167719800Y-80913181D02*
X167719800Y-80632019D01*
X168739800Y-80913181D02*
X168739800Y-80632019D01*
%TO.C,C30*%
X156290000Y-102835764D02*
X156290000Y-103051435D01*
X157010000Y-102835765D02*
X157010000Y-103051436D01*
%TO.C,C33*%
X150644570Y-102481781D02*
X150843381Y-102282970D01*
X151365819Y-103203030D02*
X151564630Y-103004219D01*
%TO.C,R15*%
X168050000Y-102473642D02*
X168050000Y-102166360D01*
X168810000Y-102473642D02*
X168810000Y-102166360D01*
%TO.C,R14*%
X166981201Y-103188558D02*
X166981201Y-103495840D01*
X167741201Y-103188558D02*
X167741201Y-103495840D01*
%TO.C,R3*%
X160232800Y-81313241D02*
X160232800Y-81005959D01*
X160992800Y-81313241D02*
X160992800Y-81005959D01*
%TO.C,R6*%
X162673844Y-104098541D02*
X162456563Y-103881260D01*
X163211245Y-103561140D02*
X162993964Y-103343859D01*
%TO.C,C10*%
X176170001Y-96213431D02*
X176170002Y-95997766D01*
X176889998Y-96213434D02*
X176889999Y-95997769D01*
%TO.C,R2*%
X151520258Y-84823999D02*
X151045742Y-84823999D01*
X151520258Y-85868999D02*
X151045742Y-85868999D01*
%TO.C,C3*%
X161252800Y-82263237D02*
X161252800Y-82047565D01*
X161972800Y-82263237D02*
X161972800Y-82047565D01*
%TO.C,C21*%
X160899998Y-102192164D02*
X160899999Y-102407836D01*
X161620001Y-102192164D02*
X161620002Y-102407836D01*
%TO.C,R20*%
X152957257Y-109007500D02*
X152482743Y-109007500D01*
X152957257Y-110052500D02*
X152482743Y-110052500D01*
%TO.C,C2*%
X153928400Y-83922219D02*
X153928400Y-84203381D01*
X154948400Y-83922219D02*
X154948400Y-84203381D01*
%TO.C,C4*%
X161852800Y-84594019D02*
X161852800Y-84875181D01*
X162872800Y-84594019D02*
X162872800Y-84875181D01*
%TO.C,U1*%
D13*
X157485599Y-81045798D02*
X157135600Y-81045798D01*
X157485599Y-83945803D02*
X157135600Y-83945803D01*
X159735600Y-81045798D02*
X159385601Y-81045798D01*
X159735600Y-83945803D02*
X158810601Y-83945798D01*
%TO.C,R9*%
D11*
X152122659Y-103089940D02*
X152339940Y-102872659D01*
X152660060Y-103627341D02*
X152877341Y-103410060D01*
%TO.C,Q1*%
D14*
X149929100Y-80977700D02*
X149929100Y-82067360D01*
X149929100Y-83240840D02*
X149929100Y-84330500D01*
X149929100Y-84330500D02*
X151986500Y-84330500D01*
X151986500Y-80977700D02*
X149929100Y-80977700D01*
X151986500Y-83019860D02*
X151986500Y-82288340D01*
X153447000Y-83606600D02*
G75*
G02*
X153294600Y-83606600I-76200J0D01*
G01*
X153294600Y-83606600D02*
G75*
G02*
X153447000Y-83606600I76200J0D01*
G01*
%TO.C,C22*%
D11*
X168426821Y-84300600D02*
X168707980Y-84300600D01*
X168426822Y-85320600D02*
X168707981Y-85320600D01*
%TO.C,J2*%
X145310000Y-118140000D02*
X145310001Y-116760000D01*
X146690000Y-118139999D02*
X145310000Y-118140000D01*
X147960000Y-115380000D02*
X160770000Y-115380000D01*
X147960000Y-118140000D02*
X147960000Y-115380000D01*
X147960000Y-118140000D02*
X160770000Y-118140000D01*
X160770000Y-118140000D02*
X160770000Y-115380000D01*
%TO.C,C27*%
X154219353Y-93099062D02*
X154066850Y-92946558D01*
X154728470Y-92589944D02*
X154575967Y-92437440D01*
%TO.C,R17*%
X158301517Y-109048483D02*
X158084236Y-109265764D01*
X158838918Y-109585884D02*
X158621637Y-109803165D01*
%TO.C,C41*%
X163463780Y-94157063D02*
X163264970Y-94355873D01*
X164185030Y-94878311D02*
X163986220Y-95077121D01*
%TO.C,XTAL1*%
D14*
X141163301Y-91378040D02*
X141163301Y-94446360D01*
X141163301Y-96531700D02*
X146421101Y-96531700D01*
X146421101Y-89292700D02*
X141163301Y-89292700D01*
X146421101Y-94446360D02*
X146421101Y-91378040D01*
X140863801Y-89292200D02*
G75*
G02*
X140660601Y-89292200I-101600J0D01*
G01*
X140660601Y-89292200D02*
G75*
G02*
X140863801Y-89292200I101600J0D01*
G01*
%TO.C,R26*%
D11*
X147666560Y-100132200D02*
X147973842Y-100132200D01*
X147666560Y-100892200D02*
X147973842Y-100892200D01*
%TO.C,R7*%
X153641533Y-91104325D02*
X153858814Y-91321605D01*
X154178934Y-90566925D02*
X154396215Y-90784205D01*
%TO.C,C43*%
X143990581Y-87890000D02*
X143709419Y-87890000D01*
X143990581Y-88910000D02*
X143709419Y-88910000D01*
%TO.C,C19*%
X165284635Y-101388799D02*
X165068966Y-101388800D01*
X165284636Y-100668800D02*
X165068967Y-100668801D01*
%TO.C,C28*%
X164219189Y-95471692D02*
X164371693Y-95319190D01*
X164728307Y-95980810D02*
X164880811Y-95828308D01*
%TO.C,R25*%
X147666560Y-99082200D02*
X147973842Y-99082200D01*
X147666560Y-99842200D02*
X147973842Y-99842200D01*
%TO.C,R24*%
X143376359Y-99080000D02*
X143683641Y-99080000D01*
X143376359Y-99840000D02*
X143683641Y-99840000D01*
%TO.C,R8*%
X166214940Y-94872660D02*
X165997659Y-95089940D01*
X166752341Y-95410060D02*
X166535060Y-95627340D01*
%TO.C,C8*%
X170950001Y-97183434D02*
X170950000Y-96967764D01*
X171670000Y-97183436D02*
X171669999Y-96967766D01*
%TO.C,R30*%
X157887258Y-113677500D02*
X157412742Y-113677500D01*
X157887258Y-114722500D02*
X157412742Y-114722500D01*
%TO.C,C36*%
X155766000Y-92474420D02*
X155766000Y-92755580D01*
X156786000Y-92474420D02*
X156786000Y-92755580D01*
%TO.C,R19*%
X151563303Y-94593429D02*
X151227769Y-94257897D01*
X152302231Y-93854503D02*
X151966697Y-93518971D01*
%TO.C,C5*%
X160252800Y-84594019D02*
X160252800Y-84875181D01*
X161272800Y-84594019D02*
X161272800Y-84875181D01*
%TO.C,C47*%
X149771365Y-100150000D02*
X149987037Y-100150000D01*
X149771365Y-100870000D02*
X149987037Y-100870000D01*
%TO.C,C24*%
X168426817Y-87831201D02*
X168707976Y-87831201D01*
X168426818Y-88851201D02*
X168707977Y-88851201D01*
%TO.C,R32*%
X151242500Y-113211342D02*
X151242500Y-113685858D01*
X152287500Y-113211342D02*
X152287500Y-113685858D01*
%TO.C,R22*%
X147079701Y-91053458D02*
X147079701Y-90578942D01*
X148124701Y-91053458D02*
X148124701Y-90578942D01*
%TO.C,C17*%
X159710602Y-106595034D02*
X159710601Y-106379365D01*
X160430601Y-106595035D02*
X160430600Y-106379366D01*
%TO.C,R21*%
X139279701Y-89386942D02*
X139279701Y-89861458D01*
X140324701Y-89386942D02*
X140324701Y-89861458D01*
%TO.C,C34*%
X157290000Y-92755580D02*
X157290000Y-92474420D01*
X158310000Y-92755580D02*
X158310000Y-92474420D01*
%TO.C,C23*%
X168426221Y-85926200D02*
X168707380Y-85926200D01*
X168426222Y-86946200D02*
X168707381Y-86946200D01*
%TO.C,C16*%
X171402800Y-80900181D02*
X171402800Y-80619019D01*
X172422800Y-80900181D02*
X172422800Y-80619019D01*
%TO.C,C38*%
X152387228Y-93224068D02*
X152586038Y-93422878D01*
X153108476Y-92502818D02*
X153307286Y-92701628D01*
%TO.C,R29*%
X155277500Y-112037258D02*
X155277500Y-111562742D01*
X156322500Y-112037258D02*
X156322500Y-111562742D01*
%TO.C,C45*%
X141412164Y-99102200D02*
X141627836Y-99102200D01*
X141412164Y-99822200D02*
X141627836Y-99822200D01*
%TO.C,C1*%
X155554000Y-83922219D02*
X155554000Y-84203381D01*
X156574000Y-83922219D02*
X156574000Y-84203381D01*
%TO.C,C32*%
X157479681Y-108227719D02*
X157632184Y-108380222D01*
X157988798Y-107718602D02*
X158141301Y-107871105D01*
%TO.C,C29*%
X153030600Y-98202636D02*
X153030600Y-97986964D01*
X153750600Y-98202636D02*
X153750600Y-97986964D01*
%TO.C,C12*%
X178250965Y-108060200D02*
X178466637Y-108060200D01*
X178250965Y-108780200D02*
X178466637Y-108780200D01*
%TO.C,C26*%
X165122365Y-102472200D02*
X165338037Y-102472200D01*
X165122365Y-103192200D02*
X165338037Y-103192200D01*
%TO.C,C13*%
X166068800Y-80913181D02*
X166068800Y-80632019D01*
X167088800Y-80913181D02*
X167088800Y-80632019D01*
%TO.C,U2*%
D14*
X154356401Y-95288400D02*
X154356401Y-95778659D01*
X154356401Y-101198941D02*
X154356401Y-101689200D01*
X154356401Y-101689200D02*
X154846660Y-101689200D01*
X154846660Y-95288400D02*
X154356401Y-95288400D01*
X160266942Y-101689200D02*
X160757201Y-101689200D01*
X160757201Y-95288400D02*
X160266942Y-95288400D01*
X160757201Y-95778659D02*
X160757201Y-95288400D01*
X160757201Y-101689200D02*
X160757201Y-101198941D01*
D15*
G36*
X154029401Y-100929301D02*
G01*
X153775401Y-100929301D01*
X153775401Y-100548301D01*
X154029401Y-100548301D01*
X154029401Y-100929301D01*
G37*
G36*
X155497300Y-94961400D02*
G01*
X155116300Y-94961400D01*
X155116300Y-94707400D01*
X155497300Y-94707400D01*
X155497300Y-94961400D01*
G37*
G36*
X159997302Y-102270200D02*
G01*
X159616302Y-102270200D01*
X159616302Y-102016200D01*
X159997302Y-102016200D01*
X159997302Y-102270200D01*
G37*
G36*
X161338201Y-96429299D02*
G01*
X161084201Y-96429299D01*
X161084201Y-96048299D01*
X161338201Y-96048299D01*
X161338201Y-96429299D01*
G37*
%TO.C,J1*%
D11*
X142516798Y-84031599D02*
X142516800Y-82651601D01*
X143896801Y-84031600D02*
X142516798Y-84031599D01*
X145166798Y-84031599D02*
X145166800Y-81271601D01*
X145166798Y-84031599D02*
X147816799Y-84031601D01*
X145166800Y-81271601D02*
X147816801Y-81271600D01*
X147816799Y-84031601D02*
X147816801Y-81271600D01*
%TO.C,R5*%
X165185342Y-84301100D02*
X165659858Y-84301100D01*
X165185342Y-85346100D02*
X165659858Y-85346100D01*
%TO.C,C37*%
X154809999Y-105458419D02*
X154810001Y-105739580D01*
X155829999Y-105458420D02*
X155830001Y-105739581D01*
%TO.C,R18*%
X159507060Y-109249940D02*
X159724341Y-109032659D01*
X160044461Y-109787341D02*
X160261742Y-109570060D01*
%TO.C,C11*%
X154511800Y-81141181D02*
X154511800Y-80860019D01*
X155531800Y-81141181D02*
X155531800Y-80860019D01*
%TO.C,C44*%
X146734420Y-87890000D02*
X147015580Y-87890000D01*
X146734420Y-88910000D02*
X147015580Y-88910000D01*
%TO.C,C31*%
X153999693Y-102666190D02*
X153847189Y-102818692D01*
X154508811Y-103175308D02*
X154356307Y-103327810D01*
%TO.C,C46*%
X149772365Y-99102200D02*
X149988037Y-99102200D01*
X149772365Y-99822200D02*
X149988037Y-99822200D01*
%TO.C,C35*%
X152805000Y-106778747D02*
X152804999Y-107301253D01*
X154275001Y-106778747D02*
X154275000Y-107301253D01*
%TO.C,C18*%
X158694601Y-106590891D02*
X158694601Y-106375220D01*
X159414601Y-106590892D02*
X159414601Y-106375221D01*
%TO.C,C7*%
X178314364Y-96225600D02*
X178530036Y-96225600D01*
X178314364Y-96945600D02*
X178530036Y-96945600D01*
%TO.C,C6*%
X169360963Y-97196400D02*
X169576633Y-97196401D01*
X169360965Y-97916399D02*
X169576635Y-97916400D01*
%TO.C,R31*%
X153782500Y-113199142D02*
X153782500Y-113673658D01*
X154827500Y-113199142D02*
X154827500Y-113673658D01*
%TO.C,R27*%
X144710000Y-99816358D02*
X144710000Y-100123640D01*
X145470000Y-99816358D02*
X145470000Y-100123640D01*
%TO.C,R33*%
X148702500Y-113211342D02*
X148702500Y-113685858D01*
X149747500Y-113211342D02*
X149747500Y-113685858D01*
%TO.C,R23*%
X145840000Y-98796359D02*
X145840000Y-99103641D01*
X146600000Y-98796359D02*
X146600000Y-99103641D01*
%TO.C,R4*%
X164151300Y-82647858D02*
X164151300Y-82173342D01*
X165196300Y-82647858D02*
X165196300Y-82173342D01*
%TO.C,R12*%
X163030517Y-100605684D02*
X162813237Y-100822965D01*
X163567917Y-101143083D02*
X163350637Y-101360364D01*
%TO.C,R1*%
X162248800Y-82288241D02*
X162248800Y-81980959D01*
X163008800Y-82288241D02*
X163008800Y-81980959D01*
%TO.C,R10*%
X157909316Y-104880916D02*
X157692036Y-104663635D01*
X158446716Y-104343517D02*
X158229436Y-104126236D01*
%TD*%
%LPC*%
D15*
G36*
X142106600Y-78710000D02*
G01*
X142074900Y-78710400D01*
X142043100Y-78711700D01*
X142011400Y-78713800D01*
X141979700Y-78716700D01*
X141948200Y-78720500D01*
X141916700Y-78725100D01*
X141885400Y-78730600D01*
X141854300Y-78736800D01*
X141823300Y-78743900D01*
X141792500Y-78751900D01*
X141761900Y-78760600D01*
X141731600Y-78770100D01*
X141701500Y-78780400D01*
X141671800Y-78791600D01*
X141642300Y-78803500D01*
X141613200Y-78816200D01*
X141584400Y-78829600D01*
X141555900Y-78843800D01*
X141527900Y-78858800D01*
X141500300Y-78874500D01*
X141473000Y-78890900D01*
X141446300Y-78908000D01*
X141420000Y-78925900D01*
X141394100Y-78944400D01*
X141368800Y-78963600D01*
X141344000Y-78983500D01*
X141319700Y-79004000D01*
X141296000Y-79025200D01*
X141272900Y-79047000D01*
X141250300Y-79069300D01*
X141228300Y-79092300D01*
X141207000Y-79115900D01*
X141186300Y-79140000D01*
X141166200Y-79164600D01*
X141146800Y-79189800D01*
X141128100Y-79215500D01*
X141110000Y-79241600D01*
X141092700Y-79268300D01*
X141076000Y-79295300D01*
X141060100Y-79322800D01*
X141044900Y-79350800D01*
X141030500Y-79379100D01*
X141016800Y-79407800D01*
X141003900Y-79436800D01*
X140991700Y-79466200D01*
X140980400Y-79495900D01*
X140969800Y-79525800D01*
X140960000Y-79556100D01*
X140951000Y-79586600D01*
X140942900Y-79617300D01*
X140935500Y-79648200D01*
X140929000Y-79679300D01*
X140923300Y-79710600D01*
X140918500Y-79742000D01*
X140914400Y-79773500D01*
X140911200Y-79805200D01*
X140908900Y-79836900D01*
X140907400Y-79868600D01*
X140906700Y-79900400D01*
X140906800Y-79932200D01*
X140907900Y-79963900D01*
X140909700Y-79995700D01*
X140912400Y-80027300D01*
X140915900Y-80058900D01*
X140920300Y-80090400D01*
X140925500Y-80121800D01*
X140935000Y-80179000D01*
X140942900Y-80236500D01*
X140949400Y-80294200D01*
X140954300Y-80352000D01*
X140957700Y-80409900D01*
X140959600Y-80467900D01*
X140959900Y-80525900D01*
X140958800Y-80584000D01*
X140956000Y-80641900D01*
X140951800Y-80699800D01*
X140946000Y-80757500D01*
X140938700Y-80815100D01*
X140929900Y-80872500D01*
X140919600Y-80929600D01*
X140907800Y-80986400D01*
X140894500Y-81042900D01*
X140879700Y-81099000D01*
X140863400Y-81154700D01*
X140845700Y-81209900D01*
X140826500Y-81264700D01*
X140805900Y-81318900D01*
X140783800Y-81372600D01*
X140760400Y-81425700D01*
X140735500Y-81478100D01*
X140709300Y-81529900D01*
X140681700Y-81581000D01*
X140652800Y-81631300D01*
X140622600Y-81680800D01*
X140591000Y-81729500D01*
X140558200Y-81777400D01*
X140524200Y-81824400D01*
X140488900Y-81870500D01*
X140452400Y-81915600D01*
X140414800Y-81959700D01*
X140376000Y-82002900D01*
X140336000Y-82045000D01*
X140295000Y-82086000D01*
X140252900Y-82126000D01*
X140209700Y-82164800D01*
X140165600Y-82202400D01*
X140120500Y-82238900D01*
X140074400Y-82274200D01*
X140027400Y-82308200D01*
X139979500Y-82341000D01*
X139930800Y-82372600D01*
X139881300Y-82402800D01*
X139831000Y-82431700D01*
X139779900Y-82459300D01*
X139728100Y-82485500D01*
X139675700Y-82510400D01*
X139622600Y-82533800D01*
X139568900Y-82555900D01*
X139514700Y-82576500D01*
X139459900Y-82595700D01*
X139404700Y-82613400D01*
X139349000Y-82629700D01*
X139292900Y-82644500D01*
X139236400Y-82657800D01*
X139179600Y-82669600D01*
X139122500Y-82679900D01*
X139065100Y-82688700D01*
X139007500Y-82696000D01*
X138949800Y-82701800D01*
X138891900Y-82706000D01*
X138834000Y-82708800D01*
X138775900Y-82709900D01*
X138717900Y-82709600D01*
X138659900Y-82707700D01*
X138602000Y-82704300D01*
X138544200Y-82699400D01*
X138486500Y-82692900D01*
X138429000Y-82685000D01*
X138371800Y-82675500D01*
X138340400Y-82670300D01*
X138308900Y-82665900D01*
X138277300Y-82662400D01*
X138245700Y-82659700D01*
X138213900Y-82657900D01*
X138182200Y-82656800D01*
X138150400Y-82656700D01*
X138118600Y-82657400D01*
X138086900Y-82658900D01*
X138055200Y-82661200D01*
X138023500Y-82664400D01*
X137992000Y-82668500D01*
X137960600Y-82673300D01*
X137929300Y-82679000D01*
X137898200Y-82685500D01*
X137867300Y-82692900D01*
X137836600Y-82701000D01*
X137806100Y-82710000D01*
X137775800Y-82719800D01*
X137745900Y-82730400D01*
X137716200Y-82741700D01*
X137686800Y-82753900D01*
X137657800Y-82766800D01*
X137629100Y-82780500D01*
X137600800Y-82794900D01*
X137572800Y-82810100D01*
X137545300Y-82826000D01*
X137518300Y-82842700D01*
X137491600Y-82860000D01*
X137465500Y-82878100D01*
X137439800Y-82896800D01*
X137414600Y-82916200D01*
X137390000Y-82936300D01*
X137365900Y-82957000D01*
X137342300Y-82978300D01*
X137319300Y-83000300D01*
X137297000Y-83022900D01*
X137275200Y-83046000D01*
X137254000Y-83069700D01*
X137233500Y-83094000D01*
X137213600Y-83118800D01*
X137194400Y-83144100D01*
X137175900Y-83170000D01*
X137158000Y-83196300D01*
X137140900Y-83223000D01*
X137124500Y-83250300D01*
X137108800Y-83277900D01*
X137093800Y-83305900D01*
X137079600Y-83334400D01*
X137066200Y-83363200D01*
X137053500Y-83392300D01*
X137041600Y-83421800D01*
X137030400Y-83451500D01*
X137020100Y-83481600D01*
X137010600Y-83511900D01*
X137001900Y-83542500D01*
X136993900Y-83573300D01*
X136986800Y-83604300D01*
X136980600Y-83635400D01*
X136975100Y-83666700D01*
X136970500Y-83698200D01*
X136966700Y-83729700D01*
X136963800Y-83761400D01*
X136961700Y-83793100D01*
X136960400Y-83824900D01*
X136960000Y-83856600D01*
X134410000Y-83856600D01*
X134410000Y-76160000D01*
X142106600Y-76160000D01*
X142106600Y-78710000D01*
G37*
G36*
X136960400Y-113695100D02*
G01*
X136961700Y-113726900D01*
X136963800Y-113758600D01*
X136966700Y-113790300D01*
X136970500Y-113821800D01*
X136975100Y-113853300D01*
X136980600Y-113884600D01*
X136986800Y-113915700D01*
X136993900Y-113946700D01*
X137001900Y-113977500D01*
X137010600Y-114008100D01*
X137020100Y-114038400D01*
X137030400Y-114068500D01*
X137041600Y-114098200D01*
X137053500Y-114127700D01*
X137066200Y-114156800D01*
X137079600Y-114185600D01*
X137093800Y-114214100D01*
X137108800Y-114242100D01*
X137124500Y-114269700D01*
X137140900Y-114297000D01*
X137158000Y-114323700D01*
X137175900Y-114350000D01*
X137194400Y-114375900D01*
X137213600Y-114401200D01*
X137233500Y-114426000D01*
X137254000Y-114450300D01*
X137275200Y-114474000D01*
X137297000Y-114497100D01*
X137319300Y-114519700D01*
X137342300Y-114541700D01*
X137365900Y-114563000D01*
X137390000Y-114583700D01*
X137414600Y-114603800D01*
X137439800Y-114623200D01*
X137465500Y-114641900D01*
X137491600Y-114660000D01*
X137518300Y-114677300D01*
X137545300Y-114694000D01*
X137572800Y-114709900D01*
X137600800Y-114725100D01*
X137629100Y-114739500D01*
X137657800Y-114753200D01*
X137686800Y-114766100D01*
X137716200Y-114778300D01*
X137745900Y-114789600D01*
X137775800Y-114800200D01*
X137806100Y-114810000D01*
X137836600Y-114819000D01*
X137867300Y-114827100D01*
X137898200Y-114834500D01*
X137929300Y-114841000D01*
X137960600Y-114846700D01*
X137992000Y-114851500D01*
X138023500Y-114855600D01*
X138055200Y-114858800D01*
X138086900Y-114861100D01*
X138118600Y-114862600D01*
X138150400Y-114863300D01*
X138182200Y-114863200D01*
X138213900Y-114862100D01*
X138245700Y-114860300D01*
X138277300Y-114857600D01*
X138308900Y-114854100D01*
X138340400Y-114849700D01*
X138371800Y-114844500D01*
X138429000Y-114835000D01*
X138486500Y-114827100D01*
X138544200Y-114820600D01*
X138602000Y-114815700D01*
X138659900Y-114812300D01*
X138717900Y-114810400D01*
X138775900Y-114810100D01*
X138834000Y-114811200D01*
X138891900Y-114814000D01*
X138949800Y-114818200D01*
X139007500Y-114824000D01*
X139065100Y-114831300D01*
X139122500Y-114840100D01*
X139179600Y-114850400D01*
X139236400Y-114862200D01*
X139292900Y-114875500D01*
X139349000Y-114890300D01*
X139404700Y-114906600D01*
X139459900Y-114924300D01*
X139514700Y-114943500D01*
X139568900Y-114964100D01*
X139622600Y-114986200D01*
X139675700Y-115009600D01*
X139728100Y-115034500D01*
X139779900Y-115060700D01*
X139831000Y-115088300D01*
X139881300Y-115117200D01*
X139930800Y-115147400D01*
X139979500Y-115179000D01*
X140027400Y-115211800D01*
X140074400Y-115245800D01*
X140120500Y-115281100D01*
X140165600Y-115317600D01*
X140209700Y-115355200D01*
X140252900Y-115394000D01*
X140295000Y-115434000D01*
X140336000Y-115475000D01*
X140376000Y-115517100D01*
X140414800Y-115560300D01*
X140452400Y-115604400D01*
X140488900Y-115649500D01*
X140524200Y-115695600D01*
X140558200Y-115742600D01*
X140591000Y-115790500D01*
X140622600Y-115839200D01*
X140652800Y-115888700D01*
X140681700Y-115939000D01*
X140709300Y-115990100D01*
X140735500Y-116041900D01*
X140760400Y-116094300D01*
X140783800Y-116147400D01*
X140805900Y-116201100D01*
X140826500Y-116255300D01*
X140845700Y-116310100D01*
X140863400Y-116365300D01*
X140879700Y-116421000D01*
X140894500Y-116477100D01*
X140907800Y-116533600D01*
X140919600Y-116590400D01*
X140929900Y-116647500D01*
X140938700Y-116704900D01*
X140946000Y-116762500D01*
X140951800Y-116820200D01*
X140956000Y-116878100D01*
X140958800Y-116936000D01*
X140959900Y-116994100D01*
X140959600Y-117052100D01*
X140957700Y-117110100D01*
X140954300Y-117168000D01*
X140949400Y-117225800D01*
X140942900Y-117283500D01*
X140935000Y-117341000D01*
X140925500Y-117398200D01*
X140920300Y-117429600D01*
X140915900Y-117461100D01*
X140912400Y-117492700D01*
X140909700Y-117524300D01*
X140907900Y-117556100D01*
X140906800Y-117587800D01*
X140906700Y-117619600D01*
X140907400Y-117651400D01*
X140908900Y-117683100D01*
X140911200Y-117714800D01*
X140914400Y-117746500D01*
X140918500Y-117778000D01*
X140923300Y-117809400D01*
X140929000Y-117840700D01*
X140935500Y-117871800D01*
X140942900Y-117902700D01*
X140951000Y-117933400D01*
X140960000Y-117963900D01*
X140969800Y-117994200D01*
X140980400Y-118024100D01*
X140991700Y-118053800D01*
X141003900Y-118083200D01*
X141016800Y-118112200D01*
X141030500Y-118140900D01*
X141044900Y-118169200D01*
X141060100Y-118197200D01*
X141076000Y-118224700D01*
X141092700Y-118251700D01*
X141110000Y-118278400D01*
X141128100Y-118304500D01*
X141146800Y-118330200D01*
X141166200Y-118355400D01*
X141186300Y-118380000D01*
X141207000Y-118404100D01*
X141228300Y-118427700D01*
X141250300Y-118450700D01*
X141272900Y-118473000D01*
X141296000Y-118494800D01*
X141319700Y-118516000D01*
X141344000Y-118536500D01*
X141368800Y-118556400D01*
X141394100Y-118575600D01*
X141420000Y-118594100D01*
X141446300Y-118612000D01*
X141473000Y-118629100D01*
X141500300Y-118645500D01*
X141527900Y-118661200D01*
X141555900Y-118676200D01*
X141584400Y-118690400D01*
X141613200Y-118703800D01*
X141642300Y-118716500D01*
X141671800Y-118728400D01*
X141701500Y-118739600D01*
X141731600Y-118749900D01*
X141761900Y-118759400D01*
X141792500Y-118768100D01*
X141823300Y-118776100D01*
X141854300Y-118783200D01*
X141885400Y-118789400D01*
X141916700Y-118794900D01*
X141948200Y-118799500D01*
X141979700Y-118803300D01*
X142011400Y-118806200D01*
X142043100Y-118808300D01*
X142074900Y-118809600D01*
X142106600Y-118810000D01*
X142106600Y-121360000D01*
X134410000Y-121360000D01*
X134410000Y-113663400D01*
X136960000Y-113663400D01*
X136960400Y-113695100D01*
G37*
G36*
X185610000Y-83856600D02*
G01*
X183060000Y-83856600D01*
X183059600Y-83824900D01*
X183058300Y-83793100D01*
X183056200Y-83761400D01*
X183053300Y-83729700D01*
X183049500Y-83698200D01*
X183044900Y-83666700D01*
X183039400Y-83635400D01*
X183033200Y-83604300D01*
X183026100Y-83573300D01*
X183018100Y-83542500D01*
X183009400Y-83511900D01*
X182999900Y-83481600D01*
X182989600Y-83451500D01*
X182978400Y-83421800D01*
X182966500Y-83392300D01*
X182953800Y-83363200D01*
X182940400Y-83334400D01*
X182926200Y-83305900D01*
X182911200Y-83277900D01*
X182895500Y-83250300D01*
X182879100Y-83223000D01*
X182862000Y-83196300D01*
X182844100Y-83170000D01*
X182825600Y-83144100D01*
X182806400Y-83118800D01*
X182786500Y-83094000D01*
X182766000Y-83069700D01*
X182744800Y-83046000D01*
X182723000Y-83022900D01*
X182700700Y-83000300D01*
X182677700Y-82978300D01*
X182654100Y-82957000D01*
X182630000Y-82936300D01*
X182605400Y-82916200D01*
X182580200Y-82896800D01*
X182554500Y-82878100D01*
X182528400Y-82860000D01*
X182501700Y-82842700D01*
X182474700Y-82826000D01*
X182447200Y-82810100D01*
X182419200Y-82794900D01*
X182390900Y-82780500D01*
X182362200Y-82766800D01*
X182333200Y-82753900D01*
X182303800Y-82741700D01*
X182274100Y-82730400D01*
X182244200Y-82719800D01*
X182213900Y-82710000D01*
X182183400Y-82701000D01*
X182152700Y-82692900D01*
X182121800Y-82685500D01*
X182090700Y-82679000D01*
X182059400Y-82673300D01*
X182028000Y-82668500D01*
X181996500Y-82664400D01*
X181964800Y-82661200D01*
X181933100Y-82658900D01*
X181901400Y-82657400D01*
X181869600Y-82656700D01*
X181837800Y-82656800D01*
X181806100Y-82657900D01*
X181774300Y-82659700D01*
X181742700Y-82662400D01*
X181711100Y-82665900D01*
X181679600Y-82670300D01*
X181648200Y-82675500D01*
X181591000Y-82685000D01*
X181533500Y-82692900D01*
X181475800Y-82699400D01*
X181418000Y-82704300D01*
X181360100Y-82707700D01*
X181302100Y-82709600D01*
X181244100Y-82709900D01*
X181186000Y-82708800D01*
X181128100Y-82706000D01*
X181070200Y-82701800D01*
X181012500Y-82696000D01*
X180954900Y-82688700D01*
X180897500Y-82679900D01*
X180840400Y-82669600D01*
X180783600Y-82657800D01*
X180727100Y-82644500D01*
X180671000Y-82629700D01*
X180615300Y-82613400D01*
X180560100Y-82595700D01*
X180505300Y-82576500D01*
X180451100Y-82555900D01*
X180397400Y-82533800D01*
X180344300Y-82510400D01*
X180291900Y-82485500D01*
X180240100Y-82459300D01*
X180189000Y-82431700D01*
X180138700Y-82402800D01*
X180089200Y-82372600D01*
X180040500Y-82341000D01*
X179992600Y-82308200D01*
X179945600Y-82274200D01*
X179899500Y-82238900D01*
X179854400Y-82202400D01*
X179810300Y-82164800D01*
X179767100Y-82126000D01*
X179725000Y-82086000D01*
X179684000Y-82045000D01*
X179644000Y-82002900D01*
X179605200Y-81959700D01*
X179567600Y-81915600D01*
X179531100Y-81870500D01*
X179495800Y-81824400D01*
X179461800Y-81777400D01*
X179429000Y-81729500D01*
X179397400Y-81680800D01*
X179367200Y-81631300D01*
X179338300Y-81581000D01*
X179310700Y-81529900D01*
X179284500Y-81478100D01*
X179259600Y-81425700D01*
X179236200Y-81372600D01*
X179214100Y-81318900D01*
X179193500Y-81264700D01*
X179174300Y-81209900D01*
X179156600Y-81154700D01*
X179140300Y-81099000D01*
X179125500Y-81042900D01*
X179112200Y-80986400D01*
X179100400Y-80929600D01*
X179090100Y-80872500D01*
X179081300Y-80815100D01*
X179074000Y-80757500D01*
X179068200Y-80699800D01*
X179064000Y-80641900D01*
X179061200Y-80584000D01*
X179060100Y-80525900D01*
X179060400Y-80467900D01*
X179062300Y-80409900D01*
X179065700Y-80352000D01*
X179070600Y-80294200D01*
X179077100Y-80236500D01*
X179085000Y-80179000D01*
X179094500Y-80121800D01*
X179099700Y-80090400D01*
X179104100Y-80058900D01*
X179107600Y-80027300D01*
X179110300Y-79995700D01*
X179112100Y-79963900D01*
X179113200Y-79932200D01*
X179113300Y-79900400D01*
X179112600Y-79868600D01*
X179111100Y-79836900D01*
X179108800Y-79805200D01*
X179105600Y-79773500D01*
X179101500Y-79742000D01*
X179096700Y-79710600D01*
X179091000Y-79679300D01*
X179084500Y-79648200D01*
X179077100Y-79617300D01*
X179069000Y-79586600D01*
X179060000Y-79556100D01*
X179050200Y-79525800D01*
X179039600Y-79495900D01*
X179028300Y-79466200D01*
X179016100Y-79436800D01*
X179003200Y-79407800D01*
X178989500Y-79379100D01*
X178975100Y-79350800D01*
X178959900Y-79322800D01*
X178944000Y-79295300D01*
X178927300Y-79268300D01*
X178910000Y-79241600D01*
X178891900Y-79215500D01*
X178873200Y-79189800D01*
X178853800Y-79164600D01*
X178833700Y-79140000D01*
X178813000Y-79115900D01*
X178791700Y-79092300D01*
X178769700Y-79069300D01*
X178747100Y-79047000D01*
X178724000Y-79025200D01*
X178700300Y-79004000D01*
X178676000Y-78983500D01*
X178651200Y-78963600D01*
X178625900Y-78944400D01*
X178600000Y-78925900D01*
X178573700Y-78908000D01*
X178547000Y-78890900D01*
X178519700Y-78874500D01*
X178492100Y-78858800D01*
X178464100Y-78843800D01*
X178435600Y-78829600D01*
X178406800Y-78816200D01*
X178377700Y-78803500D01*
X178348200Y-78791600D01*
X178318500Y-78780400D01*
X178288400Y-78770100D01*
X178258100Y-78760600D01*
X178227500Y-78751900D01*
X178196700Y-78743900D01*
X178165700Y-78736800D01*
X178134600Y-78730600D01*
X178103300Y-78725100D01*
X178071800Y-78720500D01*
X178040300Y-78716700D01*
X178008600Y-78713800D01*
X177976900Y-78711700D01*
X177945100Y-78710400D01*
X177913400Y-78710000D01*
X177913400Y-76160000D01*
X185610000Y-76160000D01*
X185610000Y-83856600D01*
G37*
G36*
X185610000Y-121360000D02*
G01*
X177913400Y-121360000D01*
X177913400Y-118810000D01*
X177945100Y-118809600D01*
X177976900Y-118808300D01*
X178008600Y-118806200D01*
X178040300Y-118803300D01*
X178071800Y-118799500D01*
X178103300Y-118794900D01*
X178134600Y-118789400D01*
X178165700Y-118783200D01*
X178196700Y-118776100D01*
X178227500Y-118768100D01*
X178258100Y-118759400D01*
X178288400Y-118749900D01*
X178318500Y-118739600D01*
X178348200Y-118728400D01*
X178377700Y-118716500D01*
X178406800Y-118703800D01*
X178435600Y-118690400D01*
X178464100Y-118676200D01*
X178492100Y-118661200D01*
X178519700Y-118645500D01*
X178547000Y-118629100D01*
X178573700Y-118612000D01*
X178600000Y-118594100D01*
X178625900Y-118575600D01*
X178651200Y-118556400D01*
X178676000Y-118536500D01*
X178700300Y-118516000D01*
X178724000Y-118494800D01*
X178747100Y-118473000D01*
X178769700Y-118450700D01*
X178791700Y-118427700D01*
X178813000Y-118404100D01*
X178833700Y-118380000D01*
X178853800Y-118355400D01*
X178873200Y-118330200D01*
X178891900Y-118304500D01*
X178910000Y-118278400D01*
X178927300Y-118251700D01*
X178944000Y-118224700D01*
X178959900Y-118197200D01*
X178975100Y-118169200D01*
X178989500Y-118140900D01*
X179003200Y-118112200D01*
X179016100Y-118083200D01*
X179028300Y-118053800D01*
X179039600Y-118024100D01*
X179050200Y-117994200D01*
X179060000Y-117963900D01*
X179069000Y-117933400D01*
X179077100Y-117902700D01*
X179084500Y-117871800D01*
X179091000Y-117840700D01*
X179096700Y-117809400D01*
X179101500Y-117778000D01*
X179105600Y-117746500D01*
X179108800Y-117714800D01*
X179111100Y-117683100D01*
X179112600Y-117651400D01*
X179113300Y-117619600D01*
X179113200Y-117587800D01*
X179112100Y-117556100D01*
X179110300Y-117524300D01*
X179107600Y-117492700D01*
X179104100Y-117461100D01*
X179099700Y-117429600D01*
X179094500Y-117398200D01*
X179085000Y-117341000D01*
X179077100Y-117283500D01*
X179070600Y-117225800D01*
X179065700Y-117168000D01*
X179062300Y-117110100D01*
X179060400Y-117052100D01*
X179060100Y-116994100D01*
X179061200Y-116936000D01*
X179064000Y-116878100D01*
X179068200Y-116820200D01*
X179074000Y-116762500D01*
X179081300Y-116704900D01*
X179090100Y-116647500D01*
X179100400Y-116590400D01*
X179112200Y-116533600D01*
X179125500Y-116477100D01*
X179140300Y-116421000D01*
X179156600Y-116365300D01*
X179174300Y-116310100D01*
X179193500Y-116255300D01*
X179214100Y-116201100D01*
X179236200Y-116147400D01*
X179259600Y-116094300D01*
X179284500Y-116041900D01*
X179310700Y-115990100D01*
X179338300Y-115939000D01*
X179367200Y-115888700D01*
X179397400Y-115839200D01*
X179429000Y-115790500D01*
X179461800Y-115742600D01*
X179495800Y-115695600D01*
X179531100Y-115649500D01*
X179567600Y-115604400D01*
X179605200Y-115560300D01*
X179644000Y-115517100D01*
X179684000Y-115475000D01*
X179725000Y-115434000D01*
X179767100Y-115394000D01*
X179810300Y-115355200D01*
X179854400Y-115317600D01*
X179899500Y-115281100D01*
X179945600Y-115245800D01*
X179992600Y-115211800D01*
X180040500Y-115179000D01*
X180089200Y-115147400D01*
X180138700Y-115117200D01*
X180189000Y-115088300D01*
X180240100Y-115060700D01*
X180291900Y-115034500D01*
X180344300Y-115009600D01*
X180397400Y-114986200D01*
X180451100Y-114964100D01*
X180505300Y-114943500D01*
X180560100Y-114924300D01*
X180615300Y-114906600D01*
X180671000Y-114890300D01*
X180727100Y-114875500D01*
X180783600Y-114862200D01*
X180840400Y-114850400D01*
X180897500Y-114840100D01*
X180954900Y-114831300D01*
X181012500Y-114824000D01*
X181070200Y-114818200D01*
X181128100Y-114814000D01*
X181186000Y-114811200D01*
X181244100Y-114810100D01*
X181302100Y-114810400D01*
X181360100Y-114812300D01*
X181418000Y-114815700D01*
X181475800Y-114820600D01*
X181533500Y-114827100D01*
X181591000Y-114835000D01*
X181648200Y-114844500D01*
X181679600Y-114849700D01*
X181711100Y-114854100D01*
X181742700Y-114857600D01*
X181774300Y-114860300D01*
X181806100Y-114862100D01*
X181837800Y-114863200D01*
X181869600Y-114863300D01*
X181901400Y-114862600D01*
X181933100Y-114861100D01*
X181964800Y-114858800D01*
X181996500Y-114855600D01*
X182028000Y-114851500D01*
X182059400Y-114846700D01*
X182090700Y-114841000D01*
X182121800Y-114834500D01*
X182152700Y-114827100D01*
X182183400Y-114819000D01*
X182213900Y-114810000D01*
X182244200Y-114800200D01*
X182274100Y-114789600D01*
X182303800Y-114778300D01*
X182333200Y-114766100D01*
X182362200Y-114753200D01*
X182390900Y-114739500D01*
X182419200Y-114725100D01*
X182447200Y-114709900D01*
X182474700Y-114694000D01*
X182501700Y-114677300D01*
X182528400Y-114660000D01*
X182554500Y-114641900D01*
X182580200Y-114623200D01*
X182605400Y-114603800D01*
X182630000Y-114583700D01*
X182654100Y-114563000D01*
X182677700Y-114541700D01*
X182700700Y-114519700D01*
X182723000Y-114497100D01*
X182744800Y-114474000D01*
X182766000Y-114450300D01*
X182786500Y-114426000D01*
X182806400Y-114401200D01*
X182825600Y-114375900D01*
X182844100Y-114350000D01*
X182862000Y-114323700D01*
X182879100Y-114297000D01*
X182895500Y-114269700D01*
X182911200Y-114242100D01*
X182926200Y-114214100D01*
X182940400Y-114185600D01*
X182953800Y-114156800D01*
X182966500Y-114127700D01*
X182978400Y-114098200D01*
X182989600Y-114068500D01*
X182999900Y-114038400D01*
X183009400Y-114008100D01*
X183018100Y-113977500D01*
X183026100Y-113946700D01*
X183033200Y-113915700D01*
X183039400Y-113884600D01*
X183044900Y-113853300D01*
X183049500Y-113821800D01*
X183053300Y-113790300D01*
X183056200Y-113758600D01*
X183058300Y-113726900D01*
X183059600Y-113695100D01*
X183060000Y-113663400D01*
X185610000Y-113663400D01*
X185610000Y-121360000D01*
G37*
D12*
X135060000Y-76810000D02*
X136960000Y-76810000D01*
X136960000Y-96210000D01*
X135060000Y-96210000D01*
X135060000Y-76810000D01*
G36*
X135060000Y-76810000D02*
G01*
X136960000Y-76810000D01*
X136960000Y-96210000D01*
X135060000Y-96210000D01*
X135060000Y-76810000D01*
G37*
X135060000Y-102760000D02*
X136960000Y-102760000D01*
X136960000Y-120735000D01*
X135060000Y-120735000D01*
X135060000Y-102760000D01*
G36*
X135060000Y-102760000D02*
G01*
X136960000Y-102760000D01*
X136960000Y-120735000D01*
X135060000Y-120735000D01*
X135060000Y-102760000D01*
G37*
X136960000Y-118810001D02*
X184960000Y-118810001D01*
X184960000Y-120710000D01*
X136960000Y-120710000D01*
X136960000Y-118810001D01*
G36*
X136960000Y-118810001D02*
G01*
X184960000Y-118810001D01*
X184960000Y-120710000D01*
X136960000Y-120710000D01*
X136960000Y-118810001D01*
G37*
X137060000Y-76810000D02*
X185060000Y-76810000D01*
X185060000Y-78710000D01*
X137060000Y-78710000D01*
X137060000Y-76810000D01*
G36*
X137060000Y-76810000D02*
G01*
X185060000Y-76810000D01*
X185060000Y-78710000D01*
X137060000Y-78710000D01*
X137060000Y-76810000D01*
G37*
X183060000Y-76785000D02*
X184960000Y-76785000D01*
X184960000Y-93260000D01*
X183060000Y-93260000D01*
X183060000Y-76785000D01*
G36*
X183060000Y-76785000D02*
G01*
X184960000Y-76785000D01*
X184960000Y-93260000D01*
X183060000Y-93260000D01*
X183060000Y-76785000D01*
G37*
X183060000Y-99910000D02*
X184960000Y-99910000D01*
X184960000Y-105160000D01*
X183060000Y-105160000D01*
X183060000Y-99910000D01*
G36*
X183060000Y-99910000D02*
G01*
X184960000Y-99910000D01*
X184960000Y-105160000D01*
X183060000Y-105160000D01*
X183060000Y-99910000D01*
G37*
X183060000Y-111735000D02*
X184960000Y-111735000D01*
X184960000Y-120760000D01*
X183060000Y-120760000D01*
X183060000Y-111735000D01*
G36*
X183060000Y-111735000D02*
G01*
X184960000Y-111735000D01*
X184960000Y-120760000D01*
X183060000Y-120760000D01*
X183060000Y-111735000D01*
G37*
D15*
%TO.C,U1*%
G36*
X158235600Y-83559299D02*
G01*
X157772101Y-83559299D01*
X157772101Y-81432297D01*
X158235600Y-81432297D01*
X158235600Y-83559299D01*
G37*
G36*
X159099099Y-81902098D02*
G01*
X157772101Y-81902098D01*
X157772101Y-81432297D01*
X159099099Y-81432297D01*
X159099099Y-81902098D01*
G37*
G36*
X159099099Y-83559299D02*
G01*
X158635600Y-83559299D01*
X158635600Y-81432297D01*
X159099099Y-81432297D01*
X159099099Y-83559299D01*
G37*
G36*
X159099099Y-82689498D02*
G01*
X157772101Y-82689498D01*
X157772101Y-82302098D01*
X159099099Y-82302098D01*
X159099099Y-82689498D01*
G37*
G36*
X159099099Y-83559299D02*
G01*
X157772101Y-83559299D01*
X157772101Y-83089498D01*
X159099099Y-83089498D01*
X159099099Y-83559299D01*
G37*
%TO.C,U2*%
G36*
X156569401Y-100050900D02*
G01*
X155994701Y-100050900D01*
X155994701Y-96926700D01*
X156569401Y-96926700D01*
X156569401Y-100050900D01*
G37*
G36*
X159118901Y-97501400D02*
G01*
X155994701Y-97501400D01*
X155994701Y-96926700D01*
X159118901Y-96926700D01*
X159118901Y-97501400D01*
G37*
G36*
X159118901Y-98288800D02*
G01*
X155994701Y-98288800D01*
X155994701Y-97901400D01*
X159118901Y-97901400D01*
X159118901Y-98288800D01*
G37*
G36*
X159118901Y-99076200D02*
G01*
X155994701Y-99076200D01*
X155994701Y-98688800D01*
X159118901Y-98688800D01*
X159118901Y-99076200D01*
G37*
G36*
X159118901Y-100050900D02*
G01*
X155994701Y-100050900D01*
X155994701Y-99476200D01*
X159118901Y-99476200D01*
X159118901Y-100050900D01*
G37*
G36*
X157356801Y-100050900D02*
G01*
X156969401Y-100050900D01*
X156969401Y-96926700D01*
X157356801Y-96926700D01*
X157356801Y-100050900D01*
G37*
G36*
X158144201Y-100050900D02*
G01*
X157756801Y-100050900D01*
X157756801Y-96926700D01*
X158144201Y-96926700D01*
X158144201Y-100050900D01*
G37*
G36*
X159118901Y-100050900D02*
G01*
X158544201Y-100050900D01*
X158544201Y-96926700D01*
X159118901Y-96926700D01*
X159118901Y-100050900D01*
G37*
%TD*%
D16*
%TO.C,C40*%
X150515000Y-96340000D03*
X152065000Y-96340000D03*
%TD*%
D17*
%TO.C,C39*%
X163150000Y-92944085D03*
X162053984Y-94040101D03*
%TD*%
D18*
%TO.C,C15*%
X170261800Y-81547600D03*
X170261800Y-79997600D03*
%TD*%
D19*
%TO.C,R13*%
X163551201Y-99362448D03*
X162829953Y-98641200D03*
%TD*%
D20*
%TO.C,C42*%
X159324000Y-91840000D03*
X159324000Y-93390000D03*
%TD*%
D21*
%TO.C,R28*%
X147316001Y-101533798D03*
X147316001Y-102553798D03*
%TD*%
D22*
%TO.C,R16*%
X151800001Y-105750001D03*
X151799999Y-107399999D03*
%TD*%
D23*
%TO.C,C9*%
X174319999Y-97560000D03*
X174319999Y-98520000D03*
%TD*%
D24*
%TO.C,H2*%
X137100000Y-117000000D03*
X137583274Y-115833274D03*
X137583274Y-118166726D03*
X138750000Y-115350000D03*
D25*
X138750000Y-117000000D03*
D24*
X138750000Y-118650000D03*
X139916726Y-115833274D03*
X139916726Y-118166726D03*
X140400000Y-117000000D03*
%TD*%
D16*
%TO.C,C25*%
X167779400Y-89992200D03*
X169329400Y-89992200D03*
%TD*%
D26*
%TO.C,R11*%
X159689942Y-104860056D03*
X160411190Y-104138808D03*
%TD*%
D27*
%TO.C,C20*%
X165654201Y-100012800D03*
X164694201Y-100012800D03*
%TD*%
D18*
%TO.C,C14*%
X168229800Y-81547600D03*
X168229800Y-79997600D03*
%TD*%
D24*
%TO.C,H4*%
X179600000Y-117000000D03*
X180083274Y-115833274D03*
X180083274Y-118166726D03*
X181250000Y-115350000D03*
D25*
X181250000Y-117000000D03*
D24*
X181250000Y-118650000D03*
X182416726Y-115833274D03*
X182416726Y-118166726D03*
X182900000Y-117000000D03*
%TD*%
D23*
%TO.C,C30*%
X156650000Y-102463600D03*
X156650000Y-103423600D03*
%TD*%
D28*
%TO.C,C33*%
X150556592Y-103291008D03*
X151652608Y-102194992D03*
%TD*%
D29*
%TO.C,R15*%
X168430000Y-102830000D03*
X168430000Y-101810002D03*
%TD*%
D21*
%TO.C,R14*%
X167361201Y-102832200D03*
X167361201Y-103852198D03*
%TD*%
D29*
%TO.C,R3*%
X160612800Y-81669599D03*
X160612800Y-80649601D03*
%TD*%
D19*
%TO.C,R6*%
X163194528Y-104081824D03*
X162473280Y-103360576D03*
%TD*%
D30*
%TO.C,C10*%
X176530000Y-96585600D03*
X176530000Y-95625600D03*
%TD*%
D31*
%TO.C,R2*%
X152108000Y-85346499D03*
X150458000Y-85346499D03*
%TD*%
D30*
%TO.C,C3*%
X161612800Y-82635401D03*
X161612800Y-81675401D03*
%TD*%
D23*
%TO.C,C21*%
X161260000Y-101820000D03*
X161260000Y-102780000D03*
%TD*%
D31*
%TO.C,R20*%
X153545000Y-109530000D03*
X151895000Y-109530000D03*
%TD*%
D20*
%TO.C,C2*%
X154438400Y-83287800D03*
X154438400Y-84837800D03*
%TD*%
%TO.C,C4*%
X162362800Y-83959600D03*
X162362800Y-85509600D03*
%TD*%
D32*
%TO.C,U1*%
X159585600Y-83495801D03*
X159585600Y-82995800D03*
X159585600Y-82495801D03*
X159585600Y-81995802D03*
X159585600Y-81495800D03*
X157285600Y-81495800D03*
X157285600Y-81995802D03*
X157285600Y-82495801D03*
X157285600Y-82995800D03*
X157285600Y-83495801D03*
D33*
X158735600Y-83195798D03*
X158735600Y-82495798D03*
X158735600Y-81795797D03*
D34*
X158435600Y-82495798D03*
D33*
X158135600Y-83195798D03*
X158135600Y-82495798D03*
X158135600Y-81795798D03*
%TD*%
D26*
%TO.C,R9*%
X152139375Y-103610625D03*
X152860625Y-102889375D03*
%TD*%
D24*
%TO.C,H3*%
X179600000Y-80500000D03*
X180083274Y-79333274D03*
X180083274Y-81666726D03*
X181250000Y-78850000D03*
D25*
X181250000Y-80500000D03*
D24*
X181250000Y-82150000D03*
X182416726Y-79333274D03*
X182416726Y-81666726D03*
X182900000Y-80500000D03*
%TD*%
D35*
%TO.C,Q1*%
X152100800Y-83606600D03*
X152100800Y-81701600D03*
X149814800Y-82654100D03*
%TD*%
D16*
%TO.C,C22*%
X167792401Y-84810600D03*
X169342401Y-84810600D03*
%TD*%
D36*
%TO.C,J2*%
X146690000Y-116760000D03*
D37*
X149230000Y-116760000D03*
X151769999Y-116760000D03*
X154310000Y-116760000D03*
X156850000Y-116760000D03*
X159390000Y-116760000D03*
%TD*%
D38*
%TO.C,C27*%
X154737071Y-93107662D03*
X154058249Y-92428840D03*
%TD*%
D39*
%TO.C,R17*%
X158822201Y-109065200D03*
X158100953Y-109786448D03*
%TD*%
D17*
%TO.C,C41*%
X164273008Y-94069084D03*
X163176992Y-95165100D03*
%TD*%
D40*
%TO.C,XTAL1*%
X141785601Y-90372200D03*
X141785601Y-95452200D03*
X145798801Y-95452200D03*
X145798801Y-90372200D03*
%TD*%
D41*
%TO.C,R26*%
X147310201Y-100512200D03*
X148330201Y-100512200D03*
%TD*%
D42*
%TO.C,R7*%
X153658249Y-90583640D03*
X154379499Y-91304890D03*
%TD*%
D43*
%TO.C,C43*%
X144625000Y-88400000D03*
X143075000Y-88400000D03*
%TD*%
D27*
%TO.C,C19*%
X165656801Y-101028800D03*
X164696801Y-101028800D03*
%TD*%
D44*
%TO.C,C28*%
X164210589Y-95989411D03*
X164889411Y-95310589D03*
%TD*%
D41*
%TO.C,R25*%
X147310201Y-99462200D03*
X148330201Y-99462200D03*
%TD*%
%TO.C,R24*%
X143020000Y-99460000D03*
X144040000Y-99460000D03*
%TD*%
D39*
%TO.C,R8*%
X166735625Y-94889375D03*
X166014375Y-95610625D03*
%TD*%
D45*
%TO.C,L1*%
X172333999Y-97562474D03*
X173303999Y-97562474D03*
%TD*%
D30*
%TO.C,C8*%
X171310000Y-97555600D03*
X171310000Y-96595600D03*
%TD*%
D31*
%TO.C,R30*%
X158475000Y-114200000D03*
X156825000Y-114200000D03*
%TD*%
D20*
%TO.C,C36*%
X156276000Y-91840000D03*
X156276000Y-93390000D03*
%TD*%
D46*
%TO.C,R19*%
X152348362Y-94639562D03*
X151181638Y-93472838D03*
%TD*%
D20*
%TO.C,C5*%
X160762800Y-83959600D03*
X160762800Y-85509600D03*
%TD*%
D47*
%TO.C,C47*%
X149399201Y-100510000D03*
X150359201Y-100510000D03*
%TD*%
D24*
%TO.C,H1*%
X137100000Y-80500000D03*
X137583274Y-79333274D03*
X137583274Y-81666726D03*
X138750000Y-78850000D03*
D25*
X138750000Y-80500000D03*
D24*
X138750000Y-82150000D03*
X139916726Y-79333274D03*
X139916726Y-81666726D03*
X140400000Y-80500000D03*
%TD*%
D16*
%TO.C,C24*%
X167792397Y-88341201D03*
X169342397Y-88341201D03*
%TD*%
D22*
%TO.C,R32*%
X151765000Y-112623600D03*
X151765000Y-114273600D03*
%TD*%
D48*
%TO.C,R22*%
X147602201Y-91641200D03*
X147602201Y-89991200D03*
%TD*%
D30*
%TO.C,C17*%
X160070601Y-106967200D03*
X160070601Y-106007200D03*
%TD*%
D22*
%TO.C,R21*%
X139802201Y-88799200D03*
X139802201Y-90449200D03*
%TD*%
D18*
%TO.C,C34*%
X157800000Y-93390000D03*
X157800000Y-91840000D03*
%TD*%
D49*
%TO.C,L2*%
X175430000Y-97555000D03*
X175430000Y-96585000D03*
%TD*%
D16*
%TO.C,C23*%
X167791801Y-86436200D03*
X169341801Y-86436200D03*
%TD*%
D18*
%TO.C,C16*%
X171912800Y-81534600D03*
X171912800Y-79984600D03*
%TD*%
D50*
%TO.C,C38*%
X152299249Y-92414840D03*
X153395265Y-93510856D03*
%TD*%
D48*
%TO.C,R29*%
X155799999Y-112624999D03*
X155800001Y-110975001D03*
%TD*%
D47*
%TO.C,C45*%
X141040000Y-99462200D03*
X142000000Y-99462200D03*
%TD*%
D20*
%TO.C,C1*%
X156064000Y-83287800D03*
X156064000Y-84837800D03*
%TD*%
D51*
%TO.C,C32*%
X157471080Y-107710001D03*
X158149902Y-108388823D03*
%TD*%
D30*
%TO.C,C29*%
X153390600Y-98574800D03*
X153390600Y-97614800D03*
%TD*%
D47*
%TO.C,C12*%
X177878801Y-108420200D03*
X178838801Y-108420200D03*
%TD*%
D52*
%TO.C,OSCIn*%
X135442201Y-99462200D03*
D53*
X137492201Y-96762200D03*
X137492201Y-102162200D03*
%TD*%
D47*
%TO.C,C26*%
X164750201Y-102832200D03*
X165710201Y-102832200D03*
%TD*%
D18*
%TO.C,C13*%
X166578800Y-81547600D03*
X166578800Y-79997600D03*
%TD*%
D54*
%TO.C,U2*%
X154637401Y-96238799D03*
X154637401Y-96738801D03*
X154637401Y-97238800D03*
X154637401Y-97738799D03*
X154637401Y-98238800D03*
X154637401Y-98738800D03*
X154637401Y-99238801D03*
X154637401Y-99738800D03*
X154637401Y-100238799D03*
X154637401Y-100738801D03*
D55*
X155306800Y-101408200D03*
X155806802Y-101408200D03*
X156306801Y-101408200D03*
X156806800Y-101408200D03*
X157306801Y-101408200D03*
X157806801Y-101408200D03*
X158306802Y-101408200D03*
X158806801Y-101408200D03*
X159306800Y-101408200D03*
X159806802Y-101408200D03*
D54*
X160476201Y-100738801D03*
X160476201Y-100238799D03*
X160476201Y-99738800D03*
X160476201Y-99238801D03*
X160476201Y-98738800D03*
X160476201Y-98238800D03*
X160476201Y-97738799D03*
X160476201Y-97238800D03*
X160476201Y-96738801D03*
X160476201Y-96238799D03*
D55*
X159806802Y-95569400D03*
X159306800Y-95569400D03*
X158806801Y-95569400D03*
X158306802Y-95569400D03*
X157806801Y-95569400D03*
X157306801Y-95569400D03*
X156806800Y-95569400D03*
X156306801Y-95569400D03*
X155806802Y-95569400D03*
X155306800Y-95569400D03*
D56*
X156769401Y-97701400D03*
X156769401Y-98488800D03*
X156769401Y-99276200D03*
X157556801Y-97701400D03*
X157556801Y-98488800D03*
X157556801Y-99276200D03*
X158344201Y-97701400D03*
X158344201Y-98488800D03*
X158344201Y-99276200D03*
%TD*%
D36*
%TO.C,J1*%
X143896800Y-82651600D03*
D37*
X146436800Y-82651600D03*
%TD*%
D57*
%TO.C,R5*%
X164597600Y-84823600D03*
X166247600Y-84823600D03*
%TD*%
D20*
%TO.C,C37*%
X155320000Y-104824000D03*
X155320000Y-106374000D03*
%TD*%
D52*
%TO.C,LO_OUT_B*%
X184550000Y-108418200D03*
D53*
X182500000Y-111118200D03*
X182500000Y-105718200D03*
%TD*%
D26*
%TO.C,R18*%
X159523777Y-109770624D03*
X160245025Y-109049376D03*
%TD*%
D18*
%TO.C,C11*%
X155021800Y-81775600D03*
X155021800Y-80225600D03*
%TD*%
D16*
%TO.C,C44*%
X146100000Y-88400000D03*
X147650000Y-88400000D03*
%TD*%
D58*
%TO.C,C31*%
X154517411Y-102657589D03*
X153838589Y-103336411D03*
%TD*%
D47*
%TO.C,C46*%
X149400201Y-99462200D03*
X150360201Y-99462200D03*
%TD*%
D59*
%TO.C,C35*%
X153540001Y-106090000D03*
X153539999Y-107990000D03*
%TD*%
D30*
%TO.C,C18*%
X159054601Y-106963056D03*
X159054601Y-106003056D03*
%TD*%
D47*
%TO.C,C7*%
X177942200Y-96585600D03*
X178902200Y-96585600D03*
%TD*%
%TO.C,C6*%
X168988799Y-97556400D03*
X169948799Y-97556400D03*
%TD*%
D22*
%TO.C,R31*%
X154305000Y-112611400D03*
X154305000Y-114261400D03*
%TD*%
D21*
%TO.C,R27*%
X145090000Y-99460000D03*
X145090000Y-100479998D03*
%TD*%
D52*
%TO.C,LO_OUT_A*%
X184545798Y-96585600D03*
D53*
X182495798Y-99285600D03*
X182495798Y-93885600D03*
%TD*%
D22*
%TO.C,R33*%
X149225000Y-112623600D03*
X149225000Y-114273600D03*
%TD*%
D21*
%TO.C,R23*%
X146220000Y-98440000D03*
X146220000Y-99460000D03*
%TD*%
D48*
%TO.C,R4*%
X164673800Y-83235600D03*
X164673800Y-81585600D03*
%TD*%
D39*
%TO.C,R12*%
X163551201Y-100622400D03*
X162829953Y-101343648D03*
%TD*%
D29*
%TO.C,R1*%
X162628800Y-82644599D03*
X162628800Y-81624601D03*
%TD*%
D19*
%TO.C,R10*%
X158430000Y-104864200D03*
X157708752Y-104142952D03*
%TD*%
D33*
X151800000Y-104750000D03*
X157800000Y-94550000D03*
X158500000Y-113100000D03*
X152800000Y-112600000D03*
X156900000Y-112600000D03*
X149500000Y-111600000D03*
%LPD*%
M02*
