%TF.GenerationSoftware,KiCad,Pcbnew,10.0.4*%
%TF.CreationDate,2026-08-17T00:35:40+02:00*%
%TF.ProjectId,LO_PCB,4c4f5f50-4342-42e6-9b69-6361645f7063,rev?*%
%TF.SameCoordinates,Original*%
%TF.FileFunction,Copper,L3,Inr*%
%TF.FilePolarity,Positive*%
%FSLAX46Y46*%
G04 Gerber Fmt 4.6, Leading zero omitted, Abs format (unit mm)*
G04 Created by KiCad (PCBNEW 10.0.4) date 2026-08-17 00:35:40*
%MOMM*%
%LPD*%
G01*
G04 APERTURE LIST*
%TA.AperFunction,ComponentPad*%
%ADD10C,0.700000*%
%TD*%
%TA.AperFunction,ComponentPad*%
%ADD11C,4.400000*%
%TD*%
%TA.AperFunction,ComponentPad*%
%ADD12C,0.600000*%
%TD*%
%TA.AperFunction,ComponentPad*%
%ADD13R,1.700000X1.700000*%
%TD*%
%TA.AperFunction,ComponentPad*%
%ADD14C,1.700000*%
%TD*%
%TA.AperFunction,ComponentPad*%
%ADD15C,1.016000*%
%TD*%
%TA.AperFunction,ViaPad*%
%ADD16C,0.600000*%
%TD*%
G04 APERTURE END LIST*
D10*
%TO.N,GND*%
%TO.C,H2*%
X137100000Y-117000000D03*
X137583274Y-115833274D03*
X137583274Y-118166726D03*
X138750000Y-115350000D03*
D11*
X138750000Y-117000000D03*
D10*
X138750000Y-118650000D03*
X139916726Y-115833274D03*
X139916726Y-118166726D03*
X140400000Y-117000000D03*
%TD*%
%TO.N,GND*%
%TO.C,H4*%
X179600000Y-117000000D03*
X180083274Y-115833274D03*
X180083274Y-118166726D03*
X181250000Y-115350000D03*
D11*
X181250000Y-117000000D03*
D10*
X181250000Y-118650000D03*
X182416726Y-115833274D03*
X182416726Y-118166726D03*
X182900000Y-117000000D03*
%TD*%
D12*
%TO.N,GND*%
%TO.C,U1*%
X158735600Y-83195798D03*
X158735600Y-82495798D03*
X158735600Y-81795797D03*
X158135600Y-83195798D03*
X158135600Y-82495798D03*
X158135600Y-81795798D03*
%TD*%
D10*
%TO.N,GND*%
%TO.C,H3*%
X179600000Y-80500000D03*
X180083274Y-79333274D03*
X180083274Y-81666726D03*
X181250000Y-78850000D03*
D11*
X181250000Y-80500000D03*
D10*
X181250000Y-82150000D03*
X182416726Y-79333274D03*
X182416726Y-81666726D03*
X182900000Y-80500000D03*
%TD*%
D13*
%TO.N,/INT_OSC_ENABLE*%
%TO.C,J2*%
X146690000Y-116760000D03*
D14*
%TO.N,Net-(J2-Pin_2)*%
X149230000Y-116760000D03*
%TO.N,Net-(J2-Pin_3)*%
X151769999Y-116760000D03*
%TO.N,Net-(J2-Pin_4)*%
X154310000Y-116760000D03*
%TO.N,Net-(J2-Pin_5)*%
X156850000Y-116760000D03*
%TO.N,GND*%
X159390000Y-116760000D03*
%TD*%
D10*
%TO.N,GND*%
%TO.C,H1*%
X137100000Y-80500000D03*
X137583274Y-79333274D03*
X137583274Y-81666726D03*
X138750000Y-78850000D03*
D11*
X138750000Y-80500000D03*
D10*
X138750000Y-82150000D03*
X139916726Y-79333274D03*
X139916726Y-81666726D03*
X140400000Y-80500000D03*
%TD*%
D15*
%TO.N,GND*%
%TO.C,U2*%
X156769401Y-97701400D03*
X156769401Y-98488800D03*
X156769401Y-99276200D03*
X157556801Y-97701400D03*
X157556801Y-98488800D03*
X157556801Y-99276200D03*
X158344201Y-97701400D03*
X158344201Y-98488800D03*
X158344201Y-99276200D03*
%TD*%
D13*
%TO.N,GND*%
%TO.C,J1*%
X143896800Y-82651600D03*
D14*
%TO.N,Net-(J1-Pin_2)*%
X146436800Y-82651600D03*
%TD*%
D16*
%TO.N,GND*%
X136000000Y-96750000D03*
X179550000Y-83200000D03*
X166300000Y-83150000D03*
X164450000Y-115650000D03*
X163647074Y-103124404D03*
X166650000Y-101950000D03*
X157800000Y-90925000D03*
X141800000Y-92950000D03*
X136250000Y-84000000D03*
X167680000Y-109100000D03*
X147200000Y-94700000D03*
X163800000Y-92325000D03*
X160750000Y-86475000D03*
X183900000Y-111200000D03*
X181650000Y-90100000D03*
X162236965Y-101846835D03*
X178250001Y-115650000D03*
X162475000Y-92300000D03*
X159650000Y-108500000D03*
X144400000Y-95450000D03*
X145250000Y-119500000D03*
X136250000Y-91500000D03*
X158400000Y-89550000D03*
X166000000Y-90900000D03*
X183750000Y-104000000D03*
X176520000Y-98540000D03*
X167750000Y-100300000D03*
X159325000Y-90925000D03*
X165550000Y-113950000D03*
X136250000Y-117240000D03*
X170680000Y-109100000D03*
X141150000Y-82650000D03*
X183800000Y-109400000D03*
X143750000Y-78000000D03*
X166950000Y-98240000D03*
X154760000Y-95530000D03*
X162150000Y-115650000D03*
X183750000Y-119500000D03*
X181650000Y-85500000D03*
X143150000Y-92950000D03*
X161350000Y-113950000D03*
X159200000Y-87650000D03*
X147200000Y-95450000D03*
X177450000Y-87800000D03*
X139326346Y-83673654D03*
X160750000Y-108500000D03*
X184000000Y-95670000D03*
X178700000Y-93850000D03*
X177450000Y-80500000D03*
X171400000Y-103450000D03*
X166250000Y-78000000D03*
X165400000Y-92000000D03*
X142250000Y-78000000D03*
X157927250Y-105700000D03*
X144000000Y-85600000D03*
X135900000Y-98350000D03*
X140626346Y-84923654D03*
X180550000Y-111200000D03*
X143200000Y-106350000D03*
X162440000Y-99989445D03*
X174680000Y-107720000D03*
X172850000Y-79975000D03*
X143875000Y-83900000D03*
X140000000Y-108600000D03*
X146299999Y-85600000D03*
X140000000Y-110900000D03*
X167360000Y-104490000D03*
X178300000Y-99000000D03*
X168225000Y-79200000D03*
X162662111Y-107337889D03*
X148700000Y-110950000D03*
X183900000Y-105800000D03*
X181650000Y-91900000D03*
X176520000Y-97500000D03*
X167900001Y-106600000D03*
X163200000Y-89100000D03*
X167950000Y-96875950D03*
X171399999Y-100500000D03*
X170353200Y-98700000D03*
X179550000Y-87800000D03*
X175250000Y-119500000D03*
X143196000Y-100499600D03*
X139450000Y-94500000D03*
X143150000Y-89800000D03*
X173700001Y-103450000D03*
X178250000Y-78000000D03*
X183750000Y-90000000D03*
X153425000Y-84850000D03*
X137900000Y-108600000D03*
X144950000Y-102900000D03*
X137650000Y-100132650D03*
X144400000Y-92950000D03*
X157550000Y-110300000D03*
X164600000Y-89100000D03*
X143850000Y-87550000D03*
X174680000Y-109100000D03*
X144400000Y-89800000D03*
X135900000Y-100550000D03*
X173750000Y-119500000D03*
X183750000Y-114500000D03*
X183760000Y-118380000D03*
X172250000Y-78000000D03*
X175350000Y-87800000D03*
X170750000Y-119500000D03*
X179800000Y-109110000D03*
X163855400Y-96951800D03*
X158850000Y-84350000D03*
X173649999Y-115650000D03*
X182450000Y-78000000D03*
X160075000Y-107700000D03*
X145350000Y-87550000D03*
X161445063Y-100948449D03*
X140780200Y-98399600D03*
X155900000Y-80250000D03*
X174325000Y-99325000D03*
X165600000Y-79975000D03*
X175350000Y-83200000D03*
X172275000Y-96400000D03*
X154200000Y-89550000D03*
X173250000Y-90100000D03*
X166749999Y-115650000D03*
X152050000Y-86650000D03*
X173680000Y-109100000D03*
X143200000Y-108650000D03*
X156530000Y-104230000D03*
X179350001Y-113950000D03*
X179814323Y-97270000D03*
X144246800Y-98399600D03*
X151100000Y-98550000D03*
X149410050Y-88789950D03*
X180650000Y-93900000D03*
X171680000Y-109100000D03*
X143250000Y-117150000D03*
X173700000Y-100500000D03*
X177450000Y-91900000D03*
X147073654Y-112576346D03*
X158950000Y-111250000D03*
X162153600Y-98145600D03*
X137650000Y-98791750D03*
X158000000Y-86200000D03*
X173680000Y-107720000D03*
X136250000Y-116000000D03*
X158800000Y-80650000D03*
X164950000Y-93425000D03*
X144400000Y-91500000D03*
X140780200Y-100500000D03*
X162350000Y-86475000D03*
X157250000Y-119500000D03*
X165006920Y-108893551D03*
X136250000Y-94500000D03*
X143200000Y-104050000D03*
X179500000Y-119500000D03*
X136250000Y-88500000D03*
X141550000Y-111850000D03*
X176000000Y-100500000D03*
X166950000Y-96879150D03*
X178900000Y-111950000D03*
X169350000Y-83830000D03*
X147000000Y-87550000D03*
X174325000Y-95550000D03*
X166000000Y-87600000D03*
X169140000Y-101810000D03*
X176680000Y-107720000D03*
X169050000Y-117900000D03*
X183750000Y-81000000D03*
X175350000Y-85500000D03*
X170275000Y-79175000D03*
X150495000Y-101396800D03*
X166680000Y-109110000D03*
X161750000Y-78000000D03*
X182800000Y-107730000D03*
X165650000Y-101950000D03*
X150150000Y-102400000D03*
X177580000Y-94800000D03*
X181000000Y-119500000D03*
X183750000Y-116000000D03*
X151250000Y-119500000D03*
X164516197Y-107199634D03*
X158122750Y-102303746D03*
X150400000Y-87800000D03*
X149575000Y-84750000D03*
X136800000Y-100330000D03*
X163600000Y-87600000D03*
X168430000Y-101150000D03*
X136250000Y-110000000D03*
X182450000Y-119500000D03*
X159410000Y-115510000D03*
X172450000Y-112000000D03*
X158050000Y-84350000D03*
X157050000Y-84850000D03*
X160620000Y-116800000D03*
X147200000Y-96200000D03*
X167950000Y-98240000D03*
X145300000Y-96950000D03*
X176000001Y-105050000D03*
X142250000Y-119500000D03*
X137800000Y-102200000D03*
X164400000Y-101850000D03*
X175680000Y-107720000D03*
X175849999Y-110700000D03*
X162100000Y-109150000D03*
X183760000Y-117240000D03*
X136250000Y-119500000D03*
X138650000Y-98791750D03*
X173550000Y-110700000D03*
X156529550Y-105200000D03*
X161350000Y-111400000D03*
X177100000Y-106600000D03*
X178650000Y-95550000D03*
X139650000Y-98791750D03*
X182300000Y-93900000D03*
X160800000Y-109600000D03*
X170680000Y-107720000D03*
X144950000Y-107500000D03*
X163250000Y-119500000D03*
X175950000Y-117900000D03*
X167750000Y-83150000D03*
X176680000Y-109100000D03*
X139450000Y-102200000D03*
X170200000Y-91700000D03*
X137700000Y-96750000D03*
X159060701Y-103759988D03*
X159775000Y-85525000D03*
X148386800Y-102184200D03*
X163250000Y-113950000D03*
X166575000Y-79175000D03*
X182250000Y-99350000D03*
X162875271Y-105654729D03*
X139250000Y-78000000D03*
X168680000Y-107720000D03*
X170600000Y-83200000D03*
X152600000Y-90975000D03*
X148850000Y-90100000D03*
X153325000Y-101050000D03*
X161750000Y-119500000D03*
X170150000Y-113950000D03*
X155350000Y-87650000D03*
X183750000Y-91500000D03*
X139450000Y-92200000D03*
X137750000Y-119500000D03*
X178250001Y-117900000D03*
X180550000Y-105800000D03*
X171325000Y-95800000D03*
X158750000Y-119500000D03*
X172500001Y-106600000D03*
X137900000Y-110900000D03*
X157000000Y-108500000D03*
X174800001Y-106600000D03*
X178300000Y-103450000D03*
X151250000Y-78000000D03*
X180880000Y-95908350D03*
X169250000Y-119500000D03*
X146250000Y-101250000D03*
X172680000Y-109100000D03*
X155750000Y-78000000D03*
X142087600Y-98400000D03*
X161449715Y-99029282D03*
X181749999Y-102050000D03*
X145250000Y-78000000D03*
X145100000Y-101250000D03*
X166750000Y-91750000D03*
X145300000Y-98400000D03*
X171900000Y-79175000D03*
X166750000Y-93149999D03*
X183000000Y-97270000D03*
X170353200Y-96400000D03*
X142250000Y-79750000D03*
X151900000Y-110650000D03*
X173250000Y-98700000D03*
X136250000Y-90000000D03*
X145800000Y-92950000D03*
X170290000Y-86440000D03*
X142087600Y-100500000D03*
X176000001Y-103450000D03*
X177800000Y-109500000D03*
X143250000Y-114850000D03*
X173250000Y-92400000D03*
X141800000Y-96450000D03*
X177450000Y-83200000D03*
X173250000Y-85500000D03*
X170150000Y-112000000D03*
X149150000Y-79750000D03*
X175350000Y-80500000D03*
X153330000Y-103760000D03*
X149900000Y-105550000D03*
X137900000Y-113200000D03*
X167750000Y-78000000D03*
X148400000Y-98400000D03*
X180600000Y-103450000D03*
X149900000Y-107500000D03*
X180800000Y-107730000D03*
X161932111Y-106607889D03*
X182200000Y-105800000D03*
X164750000Y-78000000D03*
X164600000Y-86400000D03*
X139350000Y-96750000D03*
X136250000Y-87000000D03*
X175400000Y-98550000D03*
X143196000Y-98399600D03*
X175950000Y-115650000D03*
X170240000Y-89990000D03*
X141800000Y-94450000D03*
X181650000Y-83800000D03*
X179449999Y-102050000D03*
X178250000Y-119500000D03*
X172549999Y-102050000D03*
X178650000Y-97500000D03*
X146800000Y-110950000D03*
X167750000Y-119500000D03*
X179500000Y-78000000D03*
X163250000Y-112000000D03*
X166650000Y-110700000D03*
X175400000Y-94800000D03*
X162050001Y-79650000D03*
X163863109Y-108465241D03*
X150600000Y-94600000D03*
X179550000Y-90100000D03*
X182800000Y-109110000D03*
X175680000Y-109100000D03*
X168900000Y-92700000D03*
X160250000Y-119500000D03*
X175250000Y-78000000D03*
X183950000Y-99350000D03*
X139250000Y-119500000D03*
X156529550Y-107200000D03*
X155750000Y-119500000D03*
X156450000Y-109700000D03*
X145300000Y-97700000D03*
X144950000Y-105200000D03*
X164600000Y-90900000D03*
X166270000Y-101040000D03*
X158750000Y-78000000D03*
X178300000Y-105050000D03*
X157550000Y-109200000D03*
X140000000Y-106300000D03*
X164950000Y-96879150D03*
X183000000Y-95910000D03*
X165650000Y-103900000D03*
X140750000Y-78000000D03*
X167849999Y-113950000D03*
X183750000Y-84000000D03*
X166000000Y-89100000D03*
X136250000Y-79500000D03*
X161232111Y-105907889D03*
X180599999Y-101000000D03*
X172450000Y-113950000D03*
X136250000Y-107000000D03*
X178000000Y-110700000D03*
X143750000Y-119500000D03*
X180600000Y-99350000D03*
X157927250Y-106520000D03*
X146750000Y-119500000D03*
X136100000Y-102200000D03*
X157100000Y-79650000D03*
X181650000Y-87800000D03*
X136250000Y-105500000D03*
X173250000Y-83200000D03*
X171400000Y-105050000D03*
X183750000Y-88500000D03*
X137700000Y-94500000D03*
X169330000Y-91000000D03*
X158000000Y-80650000D03*
X160930235Y-103564383D03*
X147200000Y-97700000D03*
X180800000Y-109110000D03*
X157000000Y-89550000D03*
X153600000Y-91975000D03*
X157909035Y-102969035D03*
X139650000Y-100132650D03*
X183800000Y-107470000D03*
X183750000Y-82500000D03*
X181000000Y-78000000D03*
X166650000Y-103850000D03*
X143200000Y-101750000D03*
X170200000Y-106600000D03*
X146253200Y-102184200D03*
X149750000Y-93450000D03*
X177050000Y-113950000D03*
X164450000Y-117900000D03*
X141600000Y-114850000D03*
X154450000Y-85800000D03*
X140750000Y-119500000D03*
X164042642Y-98390000D03*
X154150000Y-80250000D03*
X160097571Y-110361010D03*
X137900000Y-104000000D03*
X148450000Y-88400000D03*
X183750000Y-101000000D03*
X154250000Y-78000000D03*
X142300000Y-88390200D03*
X148400000Y-101400000D03*
X179800000Y-107729371D03*
X143250000Y-112550000D03*
X152750000Y-78000000D03*
X171680000Y-107720000D03*
X183750000Y-85500000D03*
X171350000Y-115650000D03*
X137900000Y-106300000D03*
X174300000Y-93650000D03*
X181800000Y-109110000D03*
X136250000Y-108500000D03*
X149750000Y-94600000D03*
X165375000Y-94850000D03*
X184000000Y-93900000D03*
X151350000Y-88700000D03*
X148250000Y-119500000D03*
X141800000Y-85600000D03*
X175400000Y-95550000D03*
X138650000Y-100132650D03*
X168752400Y-96400000D03*
X160557111Y-105232889D03*
X137700000Y-89900000D03*
X136250000Y-118380000D03*
X142675000Y-82650000D03*
X137700000Y-87600000D03*
X136250000Y-113000000D03*
X179814323Y-95908350D03*
X144272000Y-100533200D03*
X177580000Y-97500000D03*
X173250000Y-96400000D03*
X178299999Y-100500000D03*
X167680000Y-107720000D03*
X160750000Y-92900000D03*
X160200000Y-102958183D03*
X153390761Y-94611011D03*
X172680000Y-107720000D03*
X160500000Y-112200000D03*
X136250000Y-93000000D03*
X155000000Y-79250000D03*
X182200000Y-111200000D03*
X136250000Y-82500000D03*
X162100000Y-110350000D03*
X181940000Y-95910000D03*
X168680000Y-109100000D03*
X136250000Y-114500000D03*
X163590271Y-106369729D03*
X173250000Y-87800000D03*
X166250000Y-119500000D03*
X152750000Y-119500000D03*
X149900000Y-106500000D03*
X160750000Y-90300000D03*
X164600000Y-103900000D03*
X143150000Y-91500000D03*
X146800000Y-106350000D03*
X155100000Y-108250000D03*
X166270000Y-100220000D03*
X166000000Y-86400000D03*
X160750000Y-91600000D03*
X136250000Y-104000000D03*
X171250000Y-110700000D03*
X140000000Y-113200000D03*
X177580000Y-95550000D03*
X164750000Y-119500000D03*
X148250000Y-78000000D03*
X172275000Y-98700000D03*
X136250000Y-111500000D03*
X149600000Y-85500000D03*
X159800000Y-89550000D03*
X169680000Y-107720000D03*
X172250000Y-119500000D03*
X146800000Y-104050000D03*
X147200000Y-96950000D03*
X183750000Y-79500000D03*
X161100000Y-87650000D03*
X156529550Y-106200000D03*
X143150000Y-95450000D03*
X160600000Y-80000000D03*
X169680000Y-109100000D03*
X170270000Y-88340000D03*
X169050000Y-115650000D03*
X147320000Y-103310000D03*
X137700000Y-92200000D03*
X175350000Y-92400000D03*
X173649999Y-117900000D03*
X157250000Y-78000000D03*
X166749999Y-117900000D03*
X178900000Y-107290000D03*
X156075000Y-85800000D03*
X152900000Y-80250000D03*
X171350000Y-117900000D03*
X147600000Y-93150000D03*
X168949999Y-110700000D03*
X162155271Y-104934729D03*
X178900000Y-109510000D03*
X176550000Y-93600000D03*
X151449999Y-79750000D03*
X161470271Y-104249729D03*
X168080000Y-103860000D03*
X157300000Y-87650000D03*
X141250000Y-88700000D03*
X172200000Y-93650000D03*
X160250000Y-78000000D03*
X174749999Y-113950000D03*
X181940000Y-97270000D03*
X170750000Y-78000000D03*
X159600000Y-113050000D03*
X146800000Y-108650000D03*
X162996335Y-102473665D03*
X157550000Y-111500000D03*
X149750000Y-92100000D03*
X151750000Y-91800000D03*
X174850000Y-102050000D03*
X163200000Y-90900000D03*
X175350000Y-90100000D03*
X167849999Y-112000000D03*
X149750000Y-96350000D03*
X136800000Y-98577150D03*
X150360050Y-89689950D03*
X147200000Y-98400000D03*
X173700001Y-105050000D03*
X136250000Y-78000000D03*
X177050000Y-112000000D03*
X141600000Y-117150000D03*
X171050000Y-89250000D03*
X149900000Y-103950000D03*
X165950000Y-96879150D03*
X170280000Y-84810000D03*
X177150000Y-102050000D03*
X173750000Y-78000000D03*
X136250000Y-85500000D03*
X164350000Y-110700000D03*
X146250000Y-100400000D03*
X173250000Y-94600000D03*
X158650000Y-110350000D03*
X144550001Y-79750000D03*
X183750000Y-87000000D03*
X151900000Y-108400000D03*
X143150000Y-94450000D03*
X179550000Y-85500000D03*
X155325000Y-107225000D03*
X167710000Y-101810000D03*
X146850000Y-79750000D03*
X152019000Y-98552000D03*
X177450000Y-85500000D03*
X164950000Y-98240000D03*
X184000000Y-97520000D03*
X163250000Y-78000000D03*
X150600000Y-95450000D03*
X162150000Y-117900000D03*
X183750000Y-113000000D03*
X176520000Y-94790000D03*
X183750000Y-78000000D03*
X154250000Y-119500000D03*
X183750000Y-102500000D03*
X176750000Y-119500000D03*
X146750000Y-78000000D03*
X166680000Y-107719242D03*
X159399999Y-79650000D03*
X142750000Y-87550000D03*
X177804260Y-107290000D03*
X174749999Y-112000000D03*
X165950000Y-98240000D03*
X180880000Y-97270000D03*
X149750000Y-78000000D03*
X176750000Y-78000000D03*
X150875000Y-109550000D03*
X156275000Y-90925000D03*
X181800000Y-107730000D03*
X153450000Y-87650000D03*
X150105200Y-98450000D03*
X164350000Y-79650000D03*
X165550000Y-112000000D03*
X165329550Y-107589710D03*
X137750000Y-78000000D03*
X155600000Y-89550000D03*
X171050000Y-87400000D03*
X159996626Y-102292611D03*
X174325000Y-96375000D03*
X177450000Y-90100000D03*
X159050000Y-107700000D03*
X149750000Y-119500000D03*
X169250000Y-78000000D03*
X137700000Y-85300000D03*
X163070000Y-97440000D03*
X168752400Y-98704400D03*
X144950000Y-109800000D03*
X139000000Y-86550000D03*
X136250000Y-81000000D03*
X171325000Y-98700000D03*
X143925000Y-81400000D03*
X144400000Y-94450000D03*
X149250000Y-87600000D03*
X152775000Y-97250000D03*
X179550000Y-91900000D03*
%TO.N,VccRF*%
X163650000Y-109500000D03*
X165100000Y-99100000D03*
X164100000Y-104950000D03*
X169600000Y-94450000D03*
%TO.N,Net-(U2-VTUNE)*%
X151800000Y-104750000D03*
X157800000Y-94550000D03*
%TO.N,VCC*%
X149555200Y-97459800D03*
X157306801Y-102136798D03*
X153134000Y-104620000D03*
X148615400Y-104571800D03*
%TO.N,Net-(Q1-S)*%
X156551286Y-81434968D03*
X153500000Y-81860000D03*
%TO.N,/INT_OSC_ENABLE*%
X146690000Y-114630000D03*
X140350000Y-94880000D03*
%TO.N,Net-(U2-MUXOUT)*%
X159554389Y-100568859D03*
X158500000Y-113100000D03*
%TO.N,Net-(U2-SDI)*%
X152800000Y-112600000D03*
X158750000Y-100554198D03*
%TO.N,Net-(U2-CSB)*%
X156900000Y-112600000D03*
X159717658Y-99317552D03*
%TO.N,Net-(U2-SCK)*%
X157684566Y-100621399D03*
X149500000Y-111600000D03*
%TD*%
%TA.AperFunction,Conductor*%
%TO.N,GND*%
G36*
X184481194Y-77268806D02*
G01*
X184499500Y-77313000D01*
X184499500Y-120187000D01*
X184481194Y-120231194D01*
X184437000Y-120249500D01*
X135563000Y-120249500D01*
X135518806Y-120231194D01*
X135500500Y-120187000D01*
X135500500Y-117630063D01*
X145636299Y-117630063D01*
X145648119Y-117689480D01*
X145648119Y-117689481D01*
X145650988Y-117693774D01*
X145693140Y-117756860D01*
X145760520Y-117801881D01*
X145819936Y-117813700D01*
X145819937Y-117813700D01*
X147560063Y-117813700D01*
X147560064Y-117813700D01*
X147619480Y-117801881D01*
X147686860Y-117756860D01*
X147731881Y-117689480D01*
X147743700Y-117630064D01*
X147743700Y-116656219D01*
X148176300Y-116656219D01*
X148176300Y-116863780D01*
X148216792Y-117067351D01*
X148296222Y-117259111D01*
X148296224Y-117259114D01*
X148411538Y-117431694D01*
X148558306Y-117578462D01*
X148730886Y-117693776D01*
X148922647Y-117773207D01*
X149126220Y-117813700D01*
X149333780Y-117813700D01*
X149537353Y-117773207D01*
X149729114Y-117693776D01*
X149901694Y-117578462D01*
X150048462Y-117431694D01*
X150163776Y-117259114D01*
X150243207Y-117067353D01*
X150283700Y-116863780D01*
X150283700Y-116656220D01*
X150283700Y-116656219D01*
X150716299Y-116656219D01*
X150716299Y-116863780D01*
X150756791Y-117067351D01*
X150836221Y-117259111D01*
X150836223Y-117259114D01*
X150951537Y-117431694D01*
X151098305Y-117578462D01*
X151270885Y-117693776D01*
X151462646Y-117773207D01*
X151666219Y-117813700D01*
X151873779Y-117813700D01*
X152077352Y-117773207D01*
X152269113Y-117693776D01*
X152441693Y-117578462D01*
X152588461Y-117431694D01*
X152703775Y-117259114D01*
X152783206Y-117067353D01*
X152823699Y-116863780D01*
X152823699Y-116656220D01*
X152823699Y-116656219D01*
X153256300Y-116656219D01*
X153256300Y-116863780D01*
X153296792Y-117067351D01*
X153376222Y-117259111D01*
X153376224Y-117259114D01*
X153491538Y-117431694D01*
X153638306Y-117578462D01*
X153810886Y-117693776D01*
X154002647Y-117773207D01*
X154206220Y-117813700D01*
X154413780Y-117813700D01*
X154617353Y-117773207D01*
X154809114Y-117693776D01*
X154981694Y-117578462D01*
X155128462Y-117431694D01*
X155243776Y-117259114D01*
X155323207Y-117067353D01*
X155363700Y-116863780D01*
X155363700Y-116656220D01*
X155363700Y-116656219D01*
X155796300Y-116656219D01*
X155796300Y-116863780D01*
X155836792Y-117067351D01*
X155916222Y-117259111D01*
X155916224Y-117259114D01*
X156031538Y-117431694D01*
X156178306Y-117578462D01*
X156350886Y-117693776D01*
X156542647Y-117773207D01*
X156746220Y-117813700D01*
X156953780Y-117813700D01*
X157157353Y-117773207D01*
X157349114Y-117693776D01*
X157521694Y-117578462D01*
X157668462Y-117431694D01*
X157783776Y-117259114D01*
X157863207Y-117067353D01*
X157903700Y-116863780D01*
X157903700Y-116656220D01*
X157863207Y-116452647D01*
X157783776Y-116260886D01*
X157668462Y-116088306D01*
X157521694Y-115941538D01*
X157444466Y-115889936D01*
X157349116Y-115826225D01*
X157349111Y-115826222D01*
X157157351Y-115746792D01*
X156953780Y-115706300D01*
X156746220Y-115706300D01*
X156542648Y-115746792D01*
X156350888Y-115826222D01*
X156350883Y-115826225D01*
X156178306Y-115941537D01*
X156031537Y-116088306D01*
X155916225Y-116260883D01*
X155916222Y-116260888D01*
X155836792Y-116452648D01*
X155796300Y-116656219D01*
X155363700Y-116656219D01*
X155323207Y-116452647D01*
X155243776Y-116260886D01*
X155128462Y-116088306D01*
X154981694Y-115941538D01*
X154904466Y-115889936D01*
X154809116Y-115826225D01*
X154809111Y-115826222D01*
X154617351Y-115746792D01*
X154413780Y-115706300D01*
X154206220Y-115706300D01*
X154002648Y-115746792D01*
X153810888Y-115826222D01*
X153810883Y-115826225D01*
X153638306Y-115941537D01*
X153491537Y-116088306D01*
X153376225Y-116260883D01*
X153376222Y-116260888D01*
X153296792Y-116452648D01*
X153256300Y-116656219D01*
X152823699Y-116656219D01*
X152783206Y-116452647D01*
X152703775Y-116260886D01*
X152588461Y-116088306D01*
X152441693Y-115941538D01*
X152364465Y-115889936D01*
X152269115Y-115826225D01*
X152269110Y-115826222D01*
X152077350Y-115746792D01*
X151873779Y-115706300D01*
X151666219Y-115706300D01*
X151462647Y-115746792D01*
X151270887Y-115826222D01*
X151270882Y-115826225D01*
X151098305Y-115941537D01*
X150951536Y-116088306D01*
X150836224Y-116260883D01*
X150836221Y-116260888D01*
X150756791Y-116452648D01*
X150716299Y-116656219D01*
X150283700Y-116656219D01*
X150243207Y-116452647D01*
X150163776Y-116260886D01*
X150048462Y-116088306D01*
X149901694Y-115941538D01*
X149824466Y-115889936D01*
X149729116Y-115826225D01*
X149729111Y-115826222D01*
X149537351Y-115746792D01*
X149333780Y-115706300D01*
X149126220Y-115706300D01*
X148922648Y-115746792D01*
X148730888Y-115826222D01*
X148730883Y-115826225D01*
X148558306Y-115941537D01*
X148411537Y-116088306D01*
X148296225Y-116260883D01*
X148296222Y-116260888D01*
X148216792Y-116452648D01*
X148176300Y-116656219D01*
X147743700Y-116656219D01*
X147743700Y-115889936D01*
X147731881Y-115830520D01*
X147686860Y-115763140D01*
X147619480Y-115718119D01*
X147560064Y-115706300D01*
X145819936Y-115706300D01*
X145790228Y-115712209D01*
X145760519Y-115718119D01*
X145760518Y-115718119D01*
X145693140Y-115763140D01*
X145648119Y-115830518D01*
X145648119Y-115830519D01*
X145636300Y-115889936D01*
X145636300Y-117630063D01*
X145636299Y-117630063D01*
X135500500Y-117630063D01*
X135500500Y-114563682D01*
X146186300Y-114563682D01*
X146186300Y-114696317D01*
X146220626Y-114824418D01*
X146220626Y-114824420D01*
X146286941Y-114939280D01*
X146286944Y-114939284D01*
X146380715Y-115033055D01*
X146380719Y-115033058D01*
X146380721Y-115033060D01*
X146495579Y-115099373D01*
X146552062Y-115114507D01*
X146623682Y-115133699D01*
X146623684Y-115133699D01*
X146623687Y-115133700D01*
X146623689Y-115133700D01*
X146756311Y-115133700D01*
X146756313Y-115133700D01*
X146884421Y-115099373D01*
X146999279Y-115033060D01*
X147093060Y-114939279D01*
X147159373Y-114824421D01*
X147193700Y-114696313D01*
X147193700Y-114563687D01*
X147159373Y-114435579D01*
X147093060Y-114320721D01*
X147093058Y-114320719D01*
X147093055Y-114320715D01*
X146999284Y-114226944D01*
X146999280Y-114226941D01*
X146999279Y-114226940D01*
X146884421Y-114160627D01*
X146884420Y-114160626D01*
X146884419Y-114160626D01*
X146756317Y-114126300D01*
X146756313Y-114126300D01*
X146623687Y-114126300D01*
X146623682Y-114126300D01*
X146495581Y-114160626D01*
X146495579Y-114160626D01*
X146380719Y-114226941D01*
X146380715Y-114226944D01*
X146286944Y-114320715D01*
X146286941Y-114320719D01*
X146220626Y-114435579D01*
X146220626Y-114435581D01*
X146186300Y-114563682D01*
X135500500Y-114563682D01*
X135500500Y-112533682D01*
X152296300Y-112533682D01*
X152296300Y-112666317D01*
X152330626Y-112794418D01*
X152330626Y-112794420D01*
X152396941Y-112909280D01*
X152396944Y-112909284D01*
X152490715Y-113003055D01*
X152490719Y-113003058D01*
X152490721Y-113003060D01*
X152605579Y-113069373D01*
X152662062Y-113084507D01*
X152733682Y-113103699D01*
X152733684Y-113103699D01*
X152733687Y-113103700D01*
X152733689Y-113103700D01*
X152866311Y-113103700D01*
X152866313Y-113103700D01*
X152994421Y-113069373D01*
X153109279Y-113003060D01*
X153203060Y-112909279D01*
X153269373Y-112794421D01*
X153303700Y-112666313D01*
X153303700Y-112533687D01*
X153303699Y-112533682D01*
X156396300Y-112533682D01*
X156396300Y-112666317D01*
X156430626Y-112794418D01*
X156430626Y-112794420D01*
X156496941Y-112909280D01*
X156496944Y-112909284D01*
X156590715Y-113003055D01*
X156590719Y-113003058D01*
X156590721Y-113003060D01*
X156705579Y-113069373D01*
X156762062Y-113084507D01*
X156833682Y-113103699D01*
X156833684Y-113103699D01*
X156833687Y-113103700D01*
X156833689Y-113103700D01*
X156966311Y-113103700D01*
X156966313Y-113103700D01*
X157094421Y-113069373D01*
X157156240Y-113033682D01*
X157996300Y-113033682D01*
X157996300Y-113166317D01*
X158030626Y-113294418D01*
X158030626Y-113294420D01*
X158096941Y-113409280D01*
X158096944Y-113409284D01*
X158190715Y-113503055D01*
X158190719Y-113503058D01*
X158190721Y-113503060D01*
X158305579Y-113569373D01*
X158362062Y-113584507D01*
X158433682Y-113603699D01*
X158433684Y-113603699D01*
X158433687Y-113603700D01*
X158433689Y-113603700D01*
X158566311Y-113603700D01*
X158566313Y-113603700D01*
X158694421Y-113569373D01*
X158809279Y-113503060D01*
X158903060Y-113409279D01*
X158969373Y-113294421D01*
X159003700Y-113166313D01*
X159003700Y-113033687D01*
X158995493Y-113003060D01*
X158990380Y-112983977D01*
X158969373Y-112905579D01*
X158903060Y-112790721D01*
X158903058Y-112790719D01*
X158903055Y-112790715D01*
X158809284Y-112696944D01*
X158809280Y-112696941D01*
X158809279Y-112696940D01*
X158694421Y-112630627D01*
X158694420Y-112630626D01*
X158694419Y-112630626D01*
X158566317Y-112596300D01*
X158566313Y-112596300D01*
X158433687Y-112596300D01*
X158433682Y-112596300D01*
X158305581Y-112630626D01*
X158305579Y-112630626D01*
X158190719Y-112696941D01*
X158190715Y-112696944D01*
X158096944Y-112790715D01*
X158096941Y-112790719D01*
X158030626Y-112905579D01*
X158030626Y-112905581D01*
X157996300Y-113033682D01*
X157156240Y-113033682D01*
X157209279Y-113003060D01*
X157209284Y-113003055D01*
X157226944Y-112985396D01*
X157303055Y-112909284D01*
X157303060Y-112909279D01*
X157369373Y-112794421D01*
X157403700Y-112666313D01*
X157403700Y-112533687D01*
X157369373Y-112405579D01*
X157303060Y-112290721D01*
X157303058Y-112290719D01*
X157303055Y-112290715D01*
X157209284Y-112196944D01*
X157209280Y-112196941D01*
X157209279Y-112196940D01*
X157094421Y-112130627D01*
X157094420Y-112130626D01*
X157094419Y-112130626D01*
X156966317Y-112096300D01*
X156966313Y-112096300D01*
X156833687Y-112096300D01*
X156833682Y-112096300D01*
X156705581Y-112130626D01*
X156705579Y-112130626D01*
X156590719Y-112196941D01*
X156590715Y-112196944D01*
X156496944Y-112290715D01*
X156496941Y-112290719D01*
X156430626Y-112405579D01*
X156430626Y-112405581D01*
X156396300Y-112533682D01*
X153303699Y-112533682D01*
X153269373Y-112405579D01*
X153203060Y-112290721D01*
X153203058Y-112290719D01*
X153203055Y-112290715D01*
X153109284Y-112196944D01*
X153109280Y-112196941D01*
X153109279Y-112196940D01*
X152994421Y-112130627D01*
X152994420Y-112130626D01*
X152994419Y-112130626D01*
X152866317Y-112096300D01*
X152866313Y-112096300D01*
X152733687Y-112096300D01*
X152733682Y-112096300D01*
X152605581Y-112130626D01*
X152605579Y-112130626D01*
X152490719Y-112196941D01*
X152490715Y-112196944D01*
X152396944Y-112290715D01*
X152396941Y-112290719D01*
X152330626Y-112405579D01*
X152330626Y-112405581D01*
X152296300Y-112533682D01*
X135500500Y-112533682D01*
X135500500Y-111533682D01*
X148996300Y-111533682D01*
X148996300Y-111666317D01*
X149030626Y-111794418D01*
X149030626Y-111794420D01*
X149096941Y-111909280D01*
X149096944Y-111909284D01*
X149190715Y-112003055D01*
X149190719Y-112003058D01*
X149190721Y-112003060D01*
X149305579Y-112069373D01*
X149362062Y-112084507D01*
X149433682Y-112103699D01*
X149433684Y-112103699D01*
X149433687Y-112103700D01*
X149433689Y-112103700D01*
X149566311Y-112103700D01*
X149566313Y-112103700D01*
X149694421Y-112069373D01*
X149809279Y-112003060D01*
X149903060Y-111909279D01*
X149969373Y-111794421D01*
X150003700Y-111666313D01*
X150003700Y-111533687D01*
X149969373Y-111405579D01*
X149903060Y-111290721D01*
X149903058Y-111290719D01*
X149903055Y-111290715D01*
X149809284Y-111196944D01*
X149809280Y-111196941D01*
X149809279Y-111196940D01*
X149694421Y-111130627D01*
X149694420Y-111130626D01*
X149694419Y-111130626D01*
X149566317Y-111096300D01*
X149566313Y-111096300D01*
X149433687Y-111096300D01*
X149433682Y-111096300D01*
X149305581Y-111130626D01*
X149305579Y-111130626D01*
X149190719Y-111196941D01*
X149190715Y-111196944D01*
X149096944Y-111290715D01*
X149096941Y-111290719D01*
X149030626Y-111405579D01*
X149030626Y-111405581D01*
X148996300Y-111533682D01*
X135500500Y-111533682D01*
X135500500Y-109433682D01*
X163146300Y-109433682D01*
X163146300Y-109566317D01*
X163180626Y-109694418D01*
X163180626Y-109694420D01*
X163246941Y-109809280D01*
X163246944Y-109809284D01*
X163340715Y-109903055D01*
X163340719Y-109903058D01*
X163340721Y-109903060D01*
X163455579Y-109969373D01*
X163512062Y-109984507D01*
X163583682Y-110003699D01*
X163583684Y-110003699D01*
X163583687Y-110003700D01*
X163583689Y-110003700D01*
X163716311Y-110003700D01*
X163716313Y-110003700D01*
X163844421Y-109969373D01*
X163959279Y-109903060D01*
X164053060Y-109809279D01*
X164119373Y-109694421D01*
X164153700Y-109566313D01*
X164153700Y-109433687D01*
X164119373Y-109305579D01*
X164053060Y-109190721D01*
X164053058Y-109190719D01*
X164053055Y-109190715D01*
X163959284Y-109096944D01*
X163959280Y-109096941D01*
X163959279Y-109096940D01*
X163844421Y-109030627D01*
X163844420Y-109030626D01*
X163844419Y-109030626D01*
X163716317Y-108996300D01*
X163716313Y-108996300D01*
X163583687Y-108996300D01*
X163583682Y-108996300D01*
X163455581Y-109030626D01*
X163455579Y-109030626D01*
X163340719Y-109096941D01*
X163340715Y-109096944D01*
X163246944Y-109190715D01*
X163246941Y-109190719D01*
X163180626Y-109305579D01*
X163180626Y-109305581D01*
X163146300Y-109433682D01*
X135500500Y-109433682D01*
X135500500Y-104505482D01*
X148111700Y-104505482D01*
X148111700Y-104638117D01*
X148146026Y-104766218D01*
X148146026Y-104766220D01*
X148212341Y-104881080D01*
X148212344Y-104881084D01*
X148306115Y-104974855D01*
X148306119Y-104974858D01*
X148306121Y-104974860D01*
X148420979Y-105041173D01*
X148477462Y-105056307D01*
X148549082Y-105075499D01*
X148549084Y-105075499D01*
X148549087Y-105075500D01*
X148549089Y-105075500D01*
X148681711Y-105075500D01*
X148681713Y-105075500D01*
X148809821Y-105041173D01*
X148924679Y-104974860D01*
X149018460Y-104881079D01*
X149084773Y-104766221D01*
X149106890Y-104683682D01*
X151296300Y-104683682D01*
X151296300Y-104816317D01*
X151330626Y-104944418D01*
X151330626Y-104944420D01*
X151396941Y-105059280D01*
X151396944Y-105059284D01*
X151490715Y-105153055D01*
X151490719Y-105153058D01*
X151490721Y-105153060D01*
X151605579Y-105219373D01*
X151662062Y-105234507D01*
X151733682Y-105253699D01*
X151733684Y-105253699D01*
X151733687Y-105253700D01*
X151733689Y-105253700D01*
X151866311Y-105253700D01*
X151866313Y-105253700D01*
X151994421Y-105219373D01*
X152109279Y-105153060D01*
X152203060Y-105059279D01*
X152269373Y-104944421D01*
X152303700Y-104816313D01*
X152303700Y-104683687D01*
X152292185Y-104640715D01*
X152272103Y-104565767D01*
X152271715Y-104564320D01*
X152269373Y-104555579D01*
X152268278Y-104553682D01*
X152630300Y-104553682D01*
X152630300Y-104686317D01*
X152664626Y-104814418D01*
X152664626Y-104814420D01*
X152730941Y-104929280D01*
X152730944Y-104929284D01*
X152824715Y-105023055D01*
X152824719Y-105023058D01*
X152824721Y-105023060D01*
X152939579Y-105089373D01*
X152996062Y-105104507D01*
X153067682Y-105123699D01*
X153067684Y-105123699D01*
X153067687Y-105123700D01*
X153067689Y-105123700D01*
X153200311Y-105123700D01*
X153200313Y-105123700D01*
X153328421Y-105089373D01*
X153443279Y-105023060D01*
X153537060Y-104929279D01*
X153563385Y-104883682D01*
X163596300Y-104883682D01*
X163596300Y-105016317D01*
X163630626Y-105144418D01*
X163630626Y-105144420D01*
X163663783Y-105201850D01*
X163693718Y-105253699D01*
X163696941Y-105259280D01*
X163696944Y-105259284D01*
X163790715Y-105353055D01*
X163790719Y-105353058D01*
X163790721Y-105353060D01*
X163905579Y-105419373D01*
X163962062Y-105434507D01*
X164033682Y-105453699D01*
X164033684Y-105453699D01*
X164033687Y-105453700D01*
X164033689Y-105453700D01*
X164166311Y-105453700D01*
X164166313Y-105453700D01*
X164294421Y-105419373D01*
X164409279Y-105353060D01*
X164503060Y-105259279D01*
X164569373Y-105144421D01*
X164603700Y-105016313D01*
X164603700Y-104883687D01*
X164603001Y-104881080D01*
X164585139Y-104814418D01*
X164569373Y-104755579D01*
X164503060Y-104640721D01*
X164503058Y-104640719D01*
X164503055Y-104640715D01*
X164409284Y-104546944D01*
X164409280Y-104546941D01*
X164409279Y-104546940D01*
X164294421Y-104480627D01*
X164294420Y-104480626D01*
X164294419Y-104480626D01*
X164166317Y-104446300D01*
X164166313Y-104446300D01*
X164033687Y-104446300D01*
X164033682Y-104446300D01*
X163905581Y-104480626D01*
X163905579Y-104480626D01*
X163790719Y-104546941D01*
X163790715Y-104546944D01*
X163696944Y-104640715D01*
X163696941Y-104640719D01*
X163630626Y-104755579D01*
X163630626Y-104755581D01*
X163596300Y-104883682D01*
X153563385Y-104883682D01*
X153603373Y-104814421D01*
X153637700Y-104686313D01*
X153637700Y-104553687D01*
X153635892Y-104546941D01*
X153607430Y-104440721D01*
X153603373Y-104425579D01*
X153537060Y-104310721D01*
X153537058Y-104310719D01*
X153537055Y-104310715D01*
X153443284Y-104216944D01*
X153443280Y-104216941D01*
X153443279Y-104216940D01*
X153328421Y-104150627D01*
X153328420Y-104150626D01*
X153328419Y-104150626D01*
X153200317Y-104116300D01*
X153200313Y-104116300D01*
X153067687Y-104116300D01*
X153067682Y-104116300D01*
X152939581Y-104150626D01*
X152939579Y-104150626D01*
X152824719Y-104216941D01*
X152824715Y-104216944D01*
X152730944Y-104310715D01*
X152730941Y-104310719D01*
X152664626Y-104425579D01*
X152664626Y-104425581D01*
X152630300Y-104553682D01*
X152268278Y-104553682D01*
X152203060Y-104440721D01*
X152203058Y-104440719D01*
X152203055Y-104440715D01*
X152109284Y-104346944D01*
X152109280Y-104346941D01*
X152109279Y-104346940D01*
X151994421Y-104280627D01*
X151994420Y-104280626D01*
X151994419Y-104280626D01*
X151866317Y-104246300D01*
X151866313Y-104246300D01*
X151733687Y-104246300D01*
X151733682Y-104246300D01*
X151605581Y-104280626D01*
X151605579Y-104280626D01*
X151490719Y-104346941D01*
X151490715Y-104346944D01*
X151396944Y-104440715D01*
X151396941Y-104440719D01*
X151330626Y-104555579D01*
X151330626Y-104555581D01*
X151296300Y-104683682D01*
X149106890Y-104683682D01*
X149119100Y-104638113D01*
X149119100Y-104505487D01*
X149112438Y-104480626D01*
X149097688Y-104425579D01*
X149084773Y-104377379D01*
X149018460Y-104262521D01*
X149018458Y-104262519D01*
X149018455Y-104262515D01*
X148924684Y-104168744D01*
X148924680Y-104168741D01*
X148924679Y-104168740D01*
X148809821Y-104102427D01*
X148809820Y-104102426D01*
X148809819Y-104102426D01*
X148681717Y-104068100D01*
X148681713Y-104068100D01*
X148549087Y-104068100D01*
X148549082Y-104068100D01*
X148420981Y-104102426D01*
X148420979Y-104102426D01*
X148306119Y-104168741D01*
X148306115Y-104168744D01*
X148212344Y-104262515D01*
X148212341Y-104262519D01*
X148146026Y-104377379D01*
X148146026Y-104377381D01*
X148111700Y-104505482D01*
X135500500Y-104505482D01*
X135500500Y-102070480D01*
X156803101Y-102070480D01*
X156803101Y-102203115D01*
X156837427Y-102331216D01*
X156837427Y-102331218D01*
X156903742Y-102446078D01*
X156903745Y-102446082D01*
X156997516Y-102539853D01*
X156997520Y-102539856D01*
X156997522Y-102539858D01*
X157112380Y-102606171D01*
X157168863Y-102621305D01*
X157240483Y-102640497D01*
X157240485Y-102640497D01*
X157240488Y-102640498D01*
X157240490Y-102640498D01*
X157373112Y-102640498D01*
X157373114Y-102640498D01*
X157501222Y-102606171D01*
X157616080Y-102539858D01*
X157709861Y-102446077D01*
X157776174Y-102331219D01*
X157810501Y-102203111D01*
X157810501Y-102070485D01*
X157776174Y-101942377D01*
X157709861Y-101827519D01*
X157709859Y-101827517D01*
X157709856Y-101827513D01*
X157616085Y-101733742D01*
X157616081Y-101733739D01*
X157616080Y-101733738D01*
X157501222Y-101667425D01*
X157501221Y-101667424D01*
X157501220Y-101667424D01*
X157373118Y-101633098D01*
X157373114Y-101633098D01*
X157240488Y-101633098D01*
X157240483Y-101633098D01*
X157112382Y-101667424D01*
X157112380Y-101667424D01*
X156997520Y-101733739D01*
X156997516Y-101733742D01*
X156903745Y-101827513D01*
X156903742Y-101827517D01*
X156837427Y-101942377D01*
X156837427Y-101942379D01*
X156803101Y-102070480D01*
X135500500Y-102070480D01*
X135500500Y-100555081D01*
X157180866Y-100555081D01*
X157180866Y-100687716D01*
X157215192Y-100815817D01*
X157215192Y-100815819D01*
X157246439Y-100869940D01*
X157272955Y-100915868D01*
X157281507Y-100930679D01*
X157281510Y-100930683D01*
X157375281Y-101024454D01*
X157375285Y-101024457D01*
X157375287Y-101024459D01*
X157490145Y-101090772D01*
X157546628Y-101105906D01*
X157618248Y-101125098D01*
X157618250Y-101125098D01*
X157618253Y-101125099D01*
X157618255Y-101125099D01*
X157750877Y-101125099D01*
X157750879Y-101125099D01*
X157878987Y-101090772D01*
X157993845Y-101024459D01*
X158087626Y-100930678D01*
X158153939Y-100815820D01*
X158167344Y-100765792D01*
X158196462Y-100727844D01*
X158243888Y-100721599D01*
X158281839Y-100750719D01*
X158319425Y-100815820D01*
X158346941Y-100863478D01*
X158346944Y-100863482D01*
X158440715Y-100957253D01*
X158440719Y-100957256D01*
X158440721Y-100957258D01*
X158555579Y-101023571D01*
X158610294Y-101038232D01*
X158683682Y-101057897D01*
X158683684Y-101057897D01*
X158683687Y-101057898D01*
X158683689Y-101057898D01*
X158816311Y-101057898D01*
X158816313Y-101057898D01*
X158944421Y-101023571D01*
X159059279Y-100957258D01*
X159100668Y-100915867D01*
X159144862Y-100897561D01*
X159189056Y-100915866D01*
X159245104Y-100971914D01*
X159245108Y-100971917D01*
X159245110Y-100971919D01*
X159359968Y-101038232D01*
X159416451Y-101053366D01*
X159488071Y-101072558D01*
X159488073Y-101072558D01*
X159488076Y-101072559D01*
X159488078Y-101072559D01*
X159620700Y-101072559D01*
X159620702Y-101072559D01*
X159748810Y-101038232D01*
X159863668Y-100971919D01*
X159957449Y-100878138D01*
X160023762Y-100763280D01*
X160058089Y-100635172D01*
X160058089Y-100502546D01*
X160023762Y-100374438D01*
X159957449Y-100259580D01*
X159957447Y-100259578D01*
X159957444Y-100259574D01*
X159863673Y-100165803D01*
X159863669Y-100165800D01*
X159863668Y-100165799D01*
X159748810Y-100099486D01*
X159748809Y-100099485D01*
X159748808Y-100099485D01*
X159620706Y-100065159D01*
X159620702Y-100065159D01*
X159488076Y-100065159D01*
X159488071Y-100065159D01*
X159359970Y-100099485D01*
X159359968Y-100099485D01*
X159279232Y-100146098D01*
X159245110Y-100165799D01*
X159245109Y-100165800D01*
X159245105Y-100165803D01*
X159203717Y-100207190D01*
X159159523Y-100225495D01*
X159115330Y-100207189D01*
X159059279Y-100151138D01*
X158944421Y-100084825D01*
X158944420Y-100084824D01*
X158944419Y-100084824D01*
X158816317Y-100050498D01*
X158816313Y-100050498D01*
X158683687Y-100050498D01*
X158683682Y-100050498D01*
X158555581Y-100084824D01*
X158555579Y-100084824D01*
X158440719Y-100151139D01*
X158440715Y-100151142D01*
X158346944Y-100244913D01*
X158346941Y-100244917D01*
X158280626Y-100359777D01*
X158280626Y-100359779D01*
X158267222Y-100409803D01*
X158238101Y-100447753D01*
X158190675Y-100453996D01*
X158152725Y-100424876D01*
X158123605Y-100374438D01*
X158087626Y-100312120D01*
X158087624Y-100312118D01*
X158087621Y-100312114D01*
X157993850Y-100218343D01*
X157993846Y-100218340D01*
X157993845Y-100218339D01*
X157878987Y-100152026D01*
X157878986Y-100152025D01*
X157878985Y-100152025D01*
X157750883Y-100117699D01*
X157750879Y-100117699D01*
X157618253Y-100117699D01*
X157618248Y-100117699D01*
X157490147Y-100152025D01*
X157490145Y-100152025D01*
X157375285Y-100218340D01*
X157375281Y-100218343D01*
X157281510Y-100312114D01*
X157281507Y-100312118D01*
X157215192Y-100426978D01*
X157215192Y-100426980D01*
X157180866Y-100555081D01*
X135500500Y-100555081D01*
X135500500Y-99251234D01*
X159213958Y-99251234D01*
X159213958Y-99383869D01*
X159248284Y-99511970D01*
X159248284Y-99511972D01*
X159248285Y-99511973D01*
X159301243Y-99603700D01*
X159314599Y-99626832D01*
X159314602Y-99626836D01*
X159408373Y-99720607D01*
X159408377Y-99720610D01*
X159408379Y-99720612D01*
X159523237Y-99786925D01*
X159579720Y-99802059D01*
X159651340Y-99821251D01*
X159651342Y-99821251D01*
X159651345Y-99821252D01*
X159651347Y-99821252D01*
X159783969Y-99821252D01*
X159783971Y-99821252D01*
X159912079Y-99786925D01*
X160026937Y-99720612D01*
X160120718Y-99626831D01*
X160187031Y-99511973D01*
X160221358Y-99383865D01*
X160221358Y-99251239D01*
X160187031Y-99123131D01*
X160135388Y-99033682D01*
X164596300Y-99033682D01*
X164596300Y-99166317D01*
X164630626Y-99294418D01*
X164630626Y-99294420D01*
X164630627Y-99294421D01*
X164682267Y-99383865D01*
X164696941Y-99409280D01*
X164696944Y-99409284D01*
X164790715Y-99503055D01*
X164790719Y-99503058D01*
X164790721Y-99503060D01*
X164905579Y-99569373D01*
X164962062Y-99584507D01*
X165033682Y-99603699D01*
X165033684Y-99603699D01*
X165033687Y-99603700D01*
X165033689Y-99603700D01*
X165166311Y-99603700D01*
X165166313Y-99603700D01*
X165294421Y-99569373D01*
X165409279Y-99503060D01*
X165503060Y-99409279D01*
X165569373Y-99294421D01*
X165603700Y-99166313D01*
X165603700Y-99033687D01*
X165569373Y-98905579D01*
X165503060Y-98790721D01*
X165503058Y-98790719D01*
X165503055Y-98790715D01*
X165409284Y-98696944D01*
X165409280Y-98696941D01*
X165409279Y-98696940D01*
X165294421Y-98630627D01*
X165294420Y-98630626D01*
X165294419Y-98630626D01*
X165166317Y-98596300D01*
X165166313Y-98596300D01*
X165033687Y-98596300D01*
X165033682Y-98596300D01*
X164905581Y-98630626D01*
X164905579Y-98630626D01*
X164790719Y-98696941D01*
X164790715Y-98696944D01*
X164696944Y-98790715D01*
X164696941Y-98790719D01*
X164630626Y-98905579D01*
X164630626Y-98905581D01*
X164596300Y-99033682D01*
X160135388Y-99033682D01*
X160120718Y-99008273D01*
X160120716Y-99008271D01*
X160120713Y-99008267D01*
X160026942Y-98914496D01*
X160026938Y-98914493D01*
X160026937Y-98914492D01*
X159912079Y-98848179D01*
X159912078Y-98848178D01*
X159912077Y-98848178D01*
X159783975Y-98813852D01*
X159783971Y-98813852D01*
X159651345Y-98813852D01*
X159651340Y-98813852D01*
X159523239Y-98848178D01*
X159523237Y-98848178D01*
X159408377Y-98914493D01*
X159408373Y-98914496D01*
X159314602Y-99008267D01*
X159314599Y-99008271D01*
X159248284Y-99123131D01*
X159248284Y-99123133D01*
X159213958Y-99251234D01*
X135500500Y-99251234D01*
X135500500Y-97393482D01*
X149051500Y-97393482D01*
X149051500Y-97526117D01*
X149085826Y-97654218D01*
X149085826Y-97654220D01*
X149152141Y-97769080D01*
X149152144Y-97769084D01*
X149245915Y-97862855D01*
X149245919Y-97862858D01*
X149245921Y-97862860D01*
X149360779Y-97929173D01*
X149417262Y-97944307D01*
X149488882Y-97963499D01*
X149488884Y-97963499D01*
X149488887Y-97963500D01*
X149488889Y-97963500D01*
X149621511Y-97963500D01*
X149621513Y-97963500D01*
X149749621Y-97929173D01*
X149864479Y-97862860D01*
X149958260Y-97769079D01*
X150024573Y-97654221D01*
X150058900Y-97526113D01*
X150058900Y-97393487D01*
X150024573Y-97265379D01*
X149958260Y-97150521D01*
X149958258Y-97150519D01*
X149958255Y-97150515D01*
X149864484Y-97056744D01*
X149864480Y-97056741D01*
X149864479Y-97056740D01*
X149749621Y-96990427D01*
X149749620Y-96990426D01*
X149749619Y-96990426D01*
X149621517Y-96956100D01*
X149621513Y-96956100D01*
X149488887Y-96956100D01*
X149488882Y-96956100D01*
X149360781Y-96990426D01*
X149360779Y-96990426D01*
X149245919Y-97056741D01*
X149245915Y-97056744D01*
X149152144Y-97150515D01*
X149152141Y-97150519D01*
X149085826Y-97265379D01*
X149085826Y-97265381D01*
X149051500Y-97393482D01*
X135500500Y-97393482D01*
X135500500Y-94813682D01*
X139846300Y-94813682D01*
X139846300Y-94946317D01*
X139880626Y-95074418D01*
X139880626Y-95074420D01*
X139946941Y-95189280D01*
X139946944Y-95189284D01*
X140040715Y-95283055D01*
X140040719Y-95283058D01*
X140040721Y-95283060D01*
X140155579Y-95349373D01*
X140212062Y-95364507D01*
X140283682Y-95383699D01*
X140283684Y-95383699D01*
X140283687Y-95383700D01*
X140283689Y-95383700D01*
X140416311Y-95383700D01*
X140416313Y-95383700D01*
X140544421Y-95349373D01*
X140659279Y-95283060D01*
X140753060Y-95189279D01*
X140819373Y-95074421D01*
X140853700Y-94946313D01*
X140853700Y-94813687D01*
X140819373Y-94685579D01*
X140753060Y-94570721D01*
X140753058Y-94570719D01*
X140753055Y-94570715D01*
X140666022Y-94483682D01*
X157296300Y-94483682D01*
X157296300Y-94616317D01*
X157330626Y-94744418D01*
X157330626Y-94744420D01*
X157339208Y-94759284D01*
X157393349Y-94853060D01*
X157396941Y-94859280D01*
X157396944Y-94859284D01*
X157490715Y-94953055D01*
X157490719Y-94953058D01*
X157490721Y-94953060D01*
X157605579Y-95019373D01*
X157662062Y-95034507D01*
X157733682Y-95053699D01*
X157733684Y-95053699D01*
X157733687Y-95053700D01*
X157733689Y-95053700D01*
X157866311Y-95053700D01*
X157866313Y-95053700D01*
X157994421Y-95019373D01*
X158109279Y-94953060D01*
X158203060Y-94859279D01*
X158269373Y-94744421D01*
X158303700Y-94616313D01*
X158303700Y-94483687D01*
X158300343Y-94471159D01*
X158280142Y-94395766D01*
X158276903Y-94383682D01*
X169096300Y-94383682D01*
X169096300Y-94516317D01*
X169130626Y-94644418D01*
X169130626Y-94644420D01*
X169130627Y-94644421D01*
X169188361Y-94744420D01*
X169196941Y-94759280D01*
X169196944Y-94759284D01*
X169290715Y-94853055D01*
X169290719Y-94853058D01*
X169290721Y-94853060D01*
X169405579Y-94919373D01*
X169462062Y-94934507D01*
X169533682Y-94953699D01*
X169533684Y-94953699D01*
X169533687Y-94953700D01*
X169533689Y-94953700D01*
X169666311Y-94953700D01*
X169666313Y-94953700D01*
X169668702Y-94953060D01*
X169693881Y-94946313D01*
X169794421Y-94919373D01*
X169909279Y-94853060D01*
X170003060Y-94759279D01*
X170069373Y-94644421D01*
X170103700Y-94516313D01*
X170103700Y-94383687D01*
X170096168Y-94355579D01*
X170090380Y-94333977D01*
X170069373Y-94255579D01*
X170003060Y-94140721D01*
X170003058Y-94140719D01*
X170003055Y-94140715D01*
X169909284Y-94046944D01*
X169909280Y-94046941D01*
X169909279Y-94046940D01*
X169794421Y-93980627D01*
X169794420Y-93980626D01*
X169794419Y-93980626D01*
X169666317Y-93946300D01*
X169666313Y-93946300D01*
X169533687Y-93946300D01*
X169533682Y-93946300D01*
X169405581Y-93980626D01*
X169405579Y-93980626D01*
X169290719Y-94046941D01*
X169290715Y-94046944D01*
X169196944Y-94140715D01*
X169196941Y-94140719D01*
X169130626Y-94255579D01*
X169130626Y-94255581D01*
X169096300Y-94383682D01*
X158276903Y-94383682D01*
X158273865Y-94372346D01*
X158269373Y-94355579D01*
X158203060Y-94240721D01*
X158203058Y-94240719D01*
X158203055Y-94240715D01*
X158109284Y-94146944D01*
X158109280Y-94146941D01*
X158109279Y-94146940D01*
X157994421Y-94080627D01*
X157994420Y-94080626D01*
X157994419Y-94080626D01*
X157866317Y-94046300D01*
X157866313Y-94046300D01*
X157733687Y-94046300D01*
X157733682Y-94046300D01*
X157605581Y-94080626D01*
X157605579Y-94080626D01*
X157490719Y-94146941D01*
X157490715Y-94146944D01*
X157396944Y-94240715D01*
X157396941Y-94240719D01*
X157330626Y-94355579D01*
X157330626Y-94355581D01*
X157296300Y-94483682D01*
X140666022Y-94483682D01*
X140659284Y-94476944D01*
X140659280Y-94476941D01*
X140659279Y-94476940D01*
X140544421Y-94410627D01*
X140544420Y-94410626D01*
X140544419Y-94410626D01*
X140416317Y-94376300D01*
X140416313Y-94376300D01*
X140283687Y-94376300D01*
X140283682Y-94376300D01*
X140155581Y-94410626D01*
X140155579Y-94410626D01*
X140040719Y-94476941D01*
X140040715Y-94476944D01*
X139946944Y-94570715D01*
X139946941Y-94570719D01*
X139880626Y-94685579D01*
X139880626Y-94685581D01*
X139846300Y-94813682D01*
X135500500Y-94813682D01*
X135500500Y-82547819D01*
X145383100Y-82547819D01*
X145383100Y-82755380D01*
X145423592Y-82958951D01*
X145503022Y-83150711D01*
X145503024Y-83150714D01*
X145618338Y-83323294D01*
X145765106Y-83470062D01*
X145937686Y-83585376D01*
X146129447Y-83664807D01*
X146333020Y-83705300D01*
X146540580Y-83705300D01*
X146744153Y-83664807D01*
X146935914Y-83585376D01*
X147108494Y-83470062D01*
X147255262Y-83323294D01*
X147370576Y-83150714D01*
X147450007Y-82958953D01*
X147490500Y-82755380D01*
X147490500Y-82547820D01*
X147450007Y-82344247D01*
X147377534Y-82169284D01*
X147370577Y-82152488D01*
X147370574Y-82152483D01*
X147255262Y-81979906D01*
X147108493Y-81833137D01*
X147049444Y-81793682D01*
X152996300Y-81793682D01*
X152996300Y-81926317D01*
X153030626Y-82054418D01*
X153030626Y-82054420D01*
X153096941Y-82169280D01*
X153096944Y-82169284D01*
X153190715Y-82263055D01*
X153190719Y-82263058D01*
X153190721Y-82263060D01*
X153305579Y-82329373D01*
X153361089Y-82344247D01*
X153433682Y-82363699D01*
X153433684Y-82363699D01*
X153433687Y-82363700D01*
X153433689Y-82363700D01*
X153566311Y-82363700D01*
X153566313Y-82363700D01*
X153694421Y-82329373D01*
X153809279Y-82263060D01*
X153903060Y-82169279D01*
X153969373Y-82054421D01*
X154003700Y-81926313D01*
X154003700Y-81793687D01*
X153969373Y-81665579D01*
X153903060Y-81550721D01*
X153903058Y-81550719D01*
X153903055Y-81550715D01*
X153809284Y-81456944D01*
X153809280Y-81456941D01*
X153809279Y-81456940D01*
X153694421Y-81390627D01*
X153694420Y-81390626D01*
X153694419Y-81390626D01*
X153612406Y-81368650D01*
X156047586Y-81368650D01*
X156047586Y-81501285D01*
X156081912Y-81629386D01*
X156081912Y-81629388D01*
X156081913Y-81629389D01*
X156132971Y-81717825D01*
X156148227Y-81744248D01*
X156148230Y-81744252D01*
X156242001Y-81838023D01*
X156242005Y-81838026D01*
X156242007Y-81838028D01*
X156356865Y-81904341D01*
X156413348Y-81919475D01*
X156484968Y-81938667D01*
X156484970Y-81938667D01*
X156484973Y-81938668D01*
X156484975Y-81938668D01*
X156617597Y-81938668D01*
X156617599Y-81938668D01*
X156745707Y-81904341D01*
X156860565Y-81838028D01*
X156954346Y-81744247D01*
X157020659Y-81629389D01*
X157054986Y-81501281D01*
X157054986Y-81368655D01*
X157051675Y-81356300D01*
X157041666Y-81318945D01*
X157020659Y-81240547D01*
X156954346Y-81125689D01*
X156954344Y-81125687D01*
X156954341Y-81125683D01*
X156860570Y-81031912D01*
X156860566Y-81031909D01*
X156860565Y-81031908D01*
X156745707Y-80965595D01*
X156745706Y-80965594D01*
X156745705Y-80965594D01*
X156617603Y-80931268D01*
X156617599Y-80931268D01*
X156484973Y-80931268D01*
X156484968Y-80931268D01*
X156356867Y-80965594D01*
X156356865Y-80965594D01*
X156242005Y-81031909D01*
X156242001Y-81031912D01*
X156148230Y-81125683D01*
X156148227Y-81125687D01*
X156081912Y-81240547D01*
X156081912Y-81240549D01*
X156047586Y-81368650D01*
X153612406Y-81368650D01*
X153566317Y-81356300D01*
X153566313Y-81356300D01*
X153433687Y-81356300D01*
X153433682Y-81356300D01*
X153305581Y-81390626D01*
X153305579Y-81390626D01*
X153190719Y-81456941D01*
X153190715Y-81456944D01*
X153096944Y-81550715D01*
X153096941Y-81550719D01*
X153030626Y-81665579D01*
X153030626Y-81665581D01*
X152996300Y-81793682D01*
X147049444Y-81793682D01*
X146935916Y-81717825D01*
X146935911Y-81717822D01*
X146744151Y-81638392D01*
X146540580Y-81597900D01*
X146333020Y-81597900D01*
X146129448Y-81638392D01*
X145937688Y-81717822D01*
X145937683Y-81717825D01*
X145765106Y-81833137D01*
X145618337Y-81979906D01*
X145503025Y-82152483D01*
X145503022Y-82152488D01*
X145423592Y-82344248D01*
X145383100Y-82547819D01*
X135500500Y-82547819D01*
X135500500Y-77313000D01*
X135518806Y-77268806D01*
X135563000Y-77250500D01*
X184437000Y-77250500D01*
X184481194Y-77268806D01*
G37*
%TD.AperFunction*%
%TD*%
M02*
