M48
; DRILL file KiCad 10.0.4 date 2026-08-16T22:18:20
; FORMAT={-:-/ absolute / metric / decimal}
; #@! TF.CreationDate,2026-08-16T22:18:20+02:00
; #@! TF.GenerationSoftware,Kicad,Pcbnew,10.0.4
; #@! TF.FileFunction,Plated,1,4,PTH
FMAT,2
METRIC
; #@! TA.AperFunction,Plated,PTH,ViaDrill
T1C0.300
; #@! TA.AperFunction,Plated,PTH,ComponentDrill
T2C0.300
; #@! TA.AperFunction,Plated,PTH,ComponentDrill
T3C0.400
; #@! TA.AperFunction,Plated,PTH,ComponentDrill
T4C1.000
; #@! TA.AperFunction,Plated,PTH,ComponentDrill
T5C2.200
%
G90
G05
T1
X135.9Y-98.35
X135.9Y-100.55
X136.0Y-96.75
X136.1Y-102.2
X136.8Y-98.577
X136.8Y-100.33
X137.65Y-98.792
X137.65Y-100.133
X137.7Y-96.75
X137.8Y-102.2
X138.65Y-98.792
X138.65Y-100.133
X139.35Y-96.75
X139.45Y-102.2
X139.65Y-98.792
X139.65Y-100.133
X140.78Y-98.4
X140.78Y-100.5
X141.8Y-94.45
X141.8Y-96.45
X142.088Y-98.4
X142.088Y-100.5
X142.3Y-88.39
X142.675Y-82.65
X143.129Y-92.71
X143.196Y-98.4
X143.196Y-100.5
X143.875Y-83.9
X143.925Y-81.4
X144.247Y-98.4
X144.272Y-100.533
X145.1Y-101.25
X145.3Y-96.95
X145.3Y-97.7
X145.3Y-98.4
X146.25Y-100.4
X146.25Y-101.25
X146.253Y-102.184
X146.69Y-115.41
X147.2Y-94.7
X147.2Y-95.45
X147.2Y-96.2
X147.2Y-96.95
X147.2Y-97.7
X147.2Y-98.4
X147.32Y-103.31
X148.387Y-102.184
X148.4Y-98.4
X148.4Y-101.4
X148.45Y-88.4
X148.615Y-104.572
X149.5Y-111.6
X149.555Y-97.46
X149.575Y-85.35
X149.75Y-96.35
X149.9Y-103.95
X150.105Y-98.45
X150.15Y-102.4
X150.45Y-86.24
X150.495Y-101.397
X150.6Y-95.45
X150.875Y-109.55
X151.1Y-98.55
X151.75Y-91.8
X151.8Y-104.75
X151.9Y-108.4
X151.9Y-110.65
X152.019Y-98.552
X152.6Y-90.975
X152.775Y-97.25
X152.8Y-112.6
X153.134Y-104.62
X153.325Y-101.05
X153.33Y-103.76
X153.425Y-84.85
X153.5Y-81.86
X153.6Y-91.975
X154.15Y-80.25
X154.45Y-85.8
X155.325Y-107.225
X155.9Y-80.25
X156.075Y-85.8
X156.275Y-90.925
X156.53Y-105.2
X156.53Y-106.2
X156.53Y-107.2
X156.53Y-104.23
X156.551Y-81.435
X156.9Y-112.6
X157.0Y-108.5
X157.05Y-84.85
X157.307Y-102.137
X157.55Y-109.2
X157.55Y-110.3
X157.685Y-100.621
X157.8Y-90.925
X157.8Y-94.55
X157.909Y-102.969
X157.927Y-105.7
X157.927Y-106.52
X158.123Y-102.304
X158.5Y-113.1
X158.65Y-110.35
X158.75Y-100.554
X159.05Y-107.7
X159.061Y-103.76
X159.325Y-90.925
X159.41Y-115.51
X159.554Y-100.569
X159.65Y-108.5
X159.718Y-99.318
X159.775Y-85.525
X159.997Y-102.293
X160.075Y-107.7
X160.098Y-110.361
X160.2Y-102.958
X160.557Y-105.233
X160.6Y-80.0
X160.62Y-116.8
X160.75Y-86.475
X160.75Y-108.5
X160.8Y-109.6
X160.93Y-103.564
X161.232Y-105.908
X161.445Y-100.948
X161.45Y-99.029
X161.47Y-104.25
X161.932Y-106.608
X162.154Y-98.146
X162.155Y-104.935
X162.237Y-101.847
X162.35Y-86.475
X162.44Y-99.989
X162.475Y-92.3
X162.662Y-107.338
X162.875Y-105.655
X162.996Y-102.474
X163.07Y-97.44
X163.59Y-106.37
X163.647Y-103.124
X163.65Y-109.5
X163.8Y-92.325
X163.855Y-96.952
X163.863Y-108.465
X164.043Y-98.39
X164.1Y-104.95
X164.36Y-101.91
X164.516Y-107.2
X164.95Y-93.425
X164.95Y-96.879
X164.95Y-98.24
X165.007Y-108.894
X165.1Y-99.1
X165.33Y-107.59
X165.375Y-94.85
X165.6Y-79.975
X165.95Y-96.879
X165.95Y-98.24
X166.27Y-100.22
X166.27Y-101.04
X166.3Y-83.15
X166.575Y-79.175
X166.65Y-103.85
X166.68Y-107.719
X166.68Y-109.11
X166.95Y-96.879
X166.95Y-98.24
X167.36Y-104.49
X167.68Y-107.72
X167.68Y-109.1
X167.71Y-101.81
X167.75Y-83.15
X167.95Y-96.876
X167.95Y-98.24
X168.08Y-103.86
X168.225Y-79.2
X168.43Y-101.15
X168.68Y-107.72
X168.68Y-109.1
X168.752Y-96.4
X168.752Y-98.704
X169.14Y-101.81
X169.33Y-91.0
X169.35Y-83.83
X169.6Y-94.45
X169.68Y-107.72
X169.68Y-109.1
X170.24Y-89.99
X170.27Y-88.34
X170.275Y-79.175
X170.28Y-84.81
X170.29Y-86.44
X170.353Y-96.4
X170.353Y-98.7
X170.6Y-83.2
X170.68Y-107.72
X170.68Y-109.1
X171.325Y-95.8
X171.325Y-98.7
X171.68Y-107.72
X171.68Y-109.1
X171.9Y-79.175
X172.275Y-96.4
X172.275Y-98.7
X172.68Y-107.72
X172.68Y-109.1
X172.85Y-79.975
X173.25Y-96.4
X173.25Y-98.7
X173.68Y-107.72
X173.68Y-109.1
X174.325Y-95.55
X174.325Y-96.375
X174.325Y-99.325
X174.68Y-107.72
X174.68Y-109.1
X175.4Y-94.8
X175.4Y-95.55
X175.4Y-98.55
X175.68Y-107.72
X175.68Y-109.1
X176.52Y-94.79
X176.52Y-97.5
X176.52Y-98.54
X176.68Y-107.72
X176.68Y-109.1
X177.58Y-94.8
X177.58Y-95.55
X177.58Y-97.5
X177.8Y-109.5
X177.804Y-107.29
X178.65Y-95.55
X178.65Y-97.5
X178.9Y-107.29
X178.9Y-109.51
X179.8Y-107.729
X179.8Y-109.11
X179.814Y-95.908
X179.814Y-97.27
X180.55Y-105.8
X180.55Y-111.2
X180.6Y-99.35
X180.65Y-93.9
X180.8Y-107.73
X180.8Y-109.11
X180.88Y-95.908
X180.88Y-97.27
X181.8Y-107.73
X181.8Y-109.11
X181.94Y-95.91
X181.94Y-97.27
X182.2Y-105.8
X182.2Y-111.2
X182.25Y-99.35
X182.3Y-93.9
X182.8Y-107.73
X182.8Y-109.11
X183.0Y-95.91
X183.0Y-97.27
X183.8Y-107.47
X183.8Y-109.4
X183.9Y-105.8
X183.9Y-111.2
X183.95Y-99.35
X184.0Y-93.9
X184.0Y-95.67
X184.0Y-97.52
T2
X156.769Y-97.701
X156.769Y-98.489
X156.769Y-99.276
X157.557Y-97.701
X157.557Y-98.489
X157.557Y-99.276
X158.136Y-81.796
X158.136Y-82.496
X158.136Y-83.196
X158.344Y-97.701
X158.344Y-98.489
X158.344Y-99.276
X158.736Y-81.796
X158.736Y-82.496
X158.736Y-83.196
T3
X137.1Y-81.25
X137.1Y-116.25
X137.583Y-80.083
X137.583Y-82.417
X137.583Y-115.083
X137.583Y-117.417
X138.75Y-79.6
X138.75Y-82.9
X138.75Y-114.6
X138.75Y-117.9
X139.917Y-80.083
X139.917Y-82.417
X139.917Y-115.083
X139.917Y-117.417
X140.4Y-81.25
X140.4Y-116.25
X179.6Y-81.25
X179.6Y-116.25
X180.083Y-80.083
X180.083Y-82.417
X180.083Y-115.083
X180.083Y-117.417
X181.25Y-79.6
X181.25Y-82.9
X181.25Y-114.6
X181.25Y-117.9
X182.417Y-80.083
X182.417Y-82.417
X182.417Y-115.083
X182.417Y-117.417
X182.9Y-81.25
X182.9Y-116.25
T4
X143.897Y-82.652
X146.437Y-82.652
X146.69Y-116.76
X149.23Y-116.76
X151.77Y-116.76
X154.31Y-116.76
X156.85Y-116.76
X159.39Y-116.76
T5
X138.75Y-81.25
X138.75Y-116.25
X181.25Y-81.25
X181.25Y-116.25
M30
