%TF.GenerationSoftware,KiCad,Pcbnew,10.0.4*%
%TF.CreationDate,2026-08-22T00:56:05+02:00*%
%TF.ProjectId,LO_PCB,4c4f5f50-4342-42e6-9b69-6361645f7063,rev?*%
%TF.SameCoordinates,Original*%
%TF.FileFunction,Copper,L2,Inr*%
%TF.FilePolarity,Positive*%
%FSLAX46Y46*%
G04 Gerber Fmt 4.6, Leading zero omitted, Abs format (unit mm)*
G04 Created by KiCad (PCBNEW 10.0.4) date 2026-08-22 00:56:05*
%MOMM*%
%LPD*%
G01*
G04 APERTURE LIST*
%TA.AperFunction,ComponentPad*%
%ADD10C,0.700000*%
%TD*%
%TA.AperFunction,ComponentPad*%
%ADD11C,4.400000*%
%TD*%
%TA.AperFunction,ComponentPad*%
%ADD12C,0.600000*%
%TD*%
%TA.AperFunction,ComponentPad*%
%ADD13R,1.700000X1.700000*%
%TD*%
%TA.AperFunction,ComponentPad*%
%ADD14C,1.700000*%
%TD*%
%TA.AperFunction,ComponentPad*%
%ADD15C,1.016000*%
%TD*%
%TA.AperFunction,ViaPad*%
%ADD16C,0.600000*%
%TD*%
%TA.AperFunction,ViaPad*%
%ADD17C,0.450000*%
%TD*%
G04 APERTURE END LIST*
D10*
%TO.N,GND*%
%TO.C,H2*%
X137100000Y-117000000D03*
X137583274Y-115833274D03*
X137583274Y-118166726D03*
X138750000Y-115350000D03*
D11*
X138750000Y-117000000D03*
D10*
X138750000Y-118650000D03*
X139916726Y-115833274D03*
X139916726Y-118166726D03*
X140400000Y-117000000D03*
%TD*%
%TO.N,GND*%
%TO.C,H4*%
X179600000Y-117000000D03*
X180083274Y-115833274D03*
X180083274Y-118166726D03*
X181250000Y-115350000D03*
D11*
X181250000Y-117000000D03*
D10*
X181250000Y-118650000D03*
X182416726Y-115833274D03*
X182416726Y-118166726D03*
X182900000Y-117000000D03*
%TD*%
D12*
%TO.N,GND*%
%TO.C,U1*%
X158735600Y-83195798D03*
X158735600Y-82495798D03*
X158735600Y-81795797D03*
X158135600Y-83195798D03*
X158135600Y-82495798D03*
X158135600Y-81795798D03*
%TD*%
D10*
%TO.N,GND*%
%TO.C,H3*%
X179600000Y-80500000D03*
X180083274Y-79333274D03*
X180083274Y-81666726D03*
X181250000Y-78850000D03*
D11*
X181250000Y-80500000D03*
D10*
X181250000Y-82150000D03*
X182416726Y-79333274D03*
X182416726Y-81666726D03*
X182900000Y-80500000D03*
%TD*%
D13*
%TO.N,/INT_OSC_ENABLE*%
%TO.C,J2*%
X146690000Y-116760000D03*
D14*
%TO.N,Net-(J2-Pin_2)*%
X149230000Y-116760000D03*
%TO.N,Net-(J2-Pin_3)*%
X151769999Y-116760000D03*
%TO.N,Net-(J2-Pin_4)*%
X154310000Y-116760000D03*
%TO.N,Net-(J2-Pin_5)*%
X156850000Y-116760000D03*
%TO.N,GND*%
X159390000Y-116760000D03*
%TD*%
D10*
%TO.N,GND*%
%TO.C,H1*%
X137100000Y-80500000D03*
X137583274Y-79333274D03*
X137583274Y-81666726D03*
X138750000Y-78850000D03*
D11*
X138750000Y-80500000D03*
D10*
X138750000Y-82150000D03*
X139916726Y-79333274D03*
X139916726Y-81666726D03*
X140400000Y-80500000D03*
%TD*%
D15*
%TO.N,GND*%
%TO.C,U2*%
X156769401Y-97701400D03*
X156769401Y-98488800D03*
X156769401Y-99276200D03*
X157556801Y-97701400D03*
X157556801Y-98488800D03*
X157556801Y-99276200D03*
X158344201Y-97701400D03*
X158344201Y-98488800D03*
X158344201Y-99276200D03*
%TD*%
D13*
%TO.N,GND*%
%TO.C,J1*%
X143896800Y-82651600D03*
D14*
%TO.N,Net-(J1-Pin_2)*%
X146436800Y-82651600D03*
%TD*%
D16*
%TO.N,GND*%
X136000000Y-96750000D03*
X179550000Y-83200000D03*
X166300000Y-83150000D03*
X164450000Y-115650000D03*
X163647074Y-103124404D03*
X166650000Y-101950000D03*
X157800000Y-90925000D03*
X136250000Y-84000000D03*
X167680000Y-109100000D03*
X163635000Y-92155000D03*
X160750000Y-86475000D03*
X183900000Y-111200000D03*
X181650000Y-90100000D03*
X162236965Y-101846835D03*
X178250001Y-115650000D03*
X162310000Y-92130000D03*
X159650000Y-108500000D03*
X145250000Y-119500000D03*
X136250000Y-91500000D03*
X158400000Y-89550000D03*
X166000000Y-90900000D03*
X183750000Y-104000000D03*
X176520000Y-98540000D03*
X167750000Y-100300000D03*
X159325000Y-90925000D03*
X165550000Y-113950000D03*
X136250000Y-117240000D03*
X170680000Y-109100000D03*
X141150000Y-82650000D03*
X183800000Y-109400000D03*
X143750000Y-78000000D03*
X166950000Y-98240000D03*
X154760000Y-95530000D03*
X162150000Y-115650000D03*
X183750000Y-119500000D03*
X181650000Y-85500000D03*
X161350000Y-113950000D03*
X159200000Y-87650000D03*
X177450000Y-87800000D03*
X139326346Y-83673654D03*
X160750000Y-108500000D03*
X184000000Y-95670000D03*
X178700000Y-93850000D03*
X177450000Y-80500000D03*
X171400000Y-103450000D03*
X166250000Y-78000000D03*
X165400000Y-92000000D03*
X142250000Y-78000000D03*
X157927250Y-105700000D03*
X144000000Y-85600000D03*
X135900000Y-98350000D03*
X140626346Y-84923654D03*
X180550000Y-111200000D03*
X143200000Y-106350000D03*
X162440000Y-99989445D03*
X174680000Y-107720000D03*
X172850000Y-79975000D03*
X143875000Y-83900000D03*
X140000000Y-108600000D03*
X146299999Y-85600000D03*
X140000000Y-110900000D03*
X167360000Y-104490000D03*
X178300000Y-99000000D03*
X168225000Y-79200000D03*
X162662111Y-107337889D03*
X148700000Y-110950000D03*
X183900000Y-105800000D03*
X181650000Y-91900000D03*
X176520000Y-97500000D03*
X167900001Y-106600000D03*
X163200000Y-89100000D03*
X167950000Y-96875950D03*
X171399999Y-100500000D03*
X170353200Y-98700000D03*
X179550000Y-87800000D03*
X175250000Y-119500000D03*
X143196000Y-100499600D03*
X139450000Y-94500000D03*
X173700001Y-103450000D03*
X178250000Y-78000000D03*
X183750000Y-90000000D03*
X153425000Y-84850000D03*
X137900000Y-108600000D03*
X149500000Y-108200000D03*
X144950000Y-102900000D03*
X137650000Y-100132650D03*
X167400000Y-95800000D03*
X157550000Y-110300000D03*
X164600000Y-89100000D03*
X174680000Y-109100000D03*
X135900000Y-100550000D03*
X173750000Y-119500000D03*
X183750000Y-114500000D03*
X183760000Y-118380000D03*
X172250000Y-78000000D03*
X175350000Y-87800000D03*
X170750000Y-119500000D03*
X179800000Y-109110000D03*
X163855400Y-96951800D03*
X158850000Y-84350000D03*
X173649999Y-115650000D03*
X182450000Y-78000000D03*
X160075000Y-107700000D03*
X161445063Y-100948449D03*
X140780200Y-98399600D03*
X155900000Y-80250000D03*
X174325000Y-99325000D03*
X165600000Y-79975000D03*
X175350000Y-83200000D03*
X172275000Y-96400000D03*
X154200000Y-89550000D03*
X173250000Y-90100000D03*
X166749999Y-115650000D03*
X152050000Y-86650000D03*
X173680000Y-109100000D03*
X143200000Y-108650000D03*
X156600000Y-104100000D03*
X179350001Y-113950000D03*
X179814323Y-97270000D03*
X144246800Y-98399600D03*
X151080000Y-98510000D03*
X180650000Y-93900000D03*
X171680000Y-109100000D03*
X150622000Y-81635600D03*
X143250000Y-117150000D03*
X173700000Y-100500000D03*
X177450000Y-91900000D03*
X147073654Y-112576346D03*
X158950000Y-111250000D03*
X162153600Y-98145600D03*
X137650000Y-98791750D03*
X158000000Y-86200000D03*
X173680000Y-107720000D03*
X136250000Y-116000000D03*
X158800000Y-80650000D03*
X164785000Y-93255000D03*
X140780200Y-100500000D03*
X162350000Y-86475000D03*
X157250000Y-119500000D03*
X165006920Y-108893551D03*
X136250000Y-94500000D03*
X143200000Y-104050000D03*
X179500000Y-119500000D03*
X136250000Y-88500000D03*
X141550000Y-111850000D03*
X176000000Y-100500000D03*
X166950000Y-96879150D03*
X178900000Y-111950000D03*
X169350000Y-83830000D03*
X174325000Y-95550000D03*
X166000000Y-87600000D03*
X169140000Y-101810000D03*
X176680000Y-107720000D03*
X169050000Y-117900000D03*
X183750000Y-81000000D03*
X175350000Y-85500000D03*
X170275000Y-79175000D03*
X150495000Y-101396800D03*
X166680000Y-109110000D03*
X161750000Y-78000000D03*
X182800000Y-107730000D03*
X165650000Y-101950000D03*
X150150000Y-102400000D03*
X177580000Y-94800000D03*
X181000000Y-119500000D03*
X156560000Y-100763200D03*
X183750000Y-116000000D03*
X151250000Y-119500000D03*
X164516197Y-107199634D03*
X158122750Y-102303746D03*
X149575000Y-84750000D03*
X136800000Y-100330000D03*
X163600000Y-87600000D03*
X168430000Y-101150000D03*
X136250000Y-110000000D03*
X182450000Y-119500000D03*
X144400000Y-86700000D03*
X159410000Y-115510000D03*
X172450000Y-112000000D03*
X158050000Y-84350000D03*
X157050000Y-84850000D03*
X160620000Y-116800000D03*
X147200000Y-96200000D03*
X167950000Y-98240000D03*
X176000001Y-105050000D03*
X142250000Y-119500000D03*
X137800000Y-102200000D03*
X164400000Y-101850000D03*
X175680000Y-107720000D03*
X175849999Y-110700000D03*
X159580000Y-96430000D03*
X162100000Y-109150000D03*
X183760000Y-117240000D03*
X136250000Y-119500000D03*
X138650000Y-98791750D03*
X173550000Y-110700000D03*
X156529550Y-105000000D03*
X144450000Y-95050000D03*
X161350000Y-111400000D03*
X177100000Y-106600000D03*
X178650000Y-95550000D03*
X139650000Y-98791750D03*
X182300000Y-93900000D03*
X160800000Y-109600000D03*
X170680000Y-107720000D03*
X144950000Y-107500000D03*
X163250000Y-119500000D03*
X175950000Y-117900000D03*
X167750000Y-83150000D03*
X176680000Y-109100000D03*
X139450000Y-102200000D03*
X170200000Y-91700000D03*
X137700000Y-96750000D03*
X159060701Y-103759988D03*
X159775000Y-85525000D03*
X148396800Y-102244200D03*
X163250000Y-113950000D03*
X166575000Y-79175000D03*
X182250000Y-99350000D03*
X162875271Y-105654729D03*
X139250000Y-78000000D03*
X168680000Y-107720000D03*
X170600000Y-83200000D03*
X152600000Y-90975000D03*
X153325000Y-101050000D03*
X161750000Y-119500000D03*
X170150000Y-113950000D03*
X155350000Y-87650000D03*
X183750000Y-91500000D03*
X139450000Y-92200000D03*
X137750000Y-119500000D03*
X143250000Y-95050000D03*
X178250001Y-117900000D03*
X180550000Y-105800000D03*
X171325000Y-95800000D03*
X158750000Y-119500000D03*
X172500001Y-106600000D03*
X137900000Y-110900000D03*
X157000000Y-108500000D03*
X174800001Y-106600000D03*
X141100000Y-86650000D03*
X178300000Y-103450000D03*
X151250000Y-78000000D03*
X180880000Y-95908350D03*
X169250000Y-119500000D03*
X146250000Y-101250000D03*
X172680000Y-109100000D03*
X155750000Y-78000000D03*
X142087600Y-98400000D03*
X161449715Y-99029282D03*
X181749999Y-102050000D03*
X145250000Y-78000000D03*
X145100000Y-101250000D03*
X166750000Y-91750000D03*
X145300000Y-98400000D03*
X171900000Y-79175000D03*
X166750000Y-93149999D03*
X183000000Y-97270000D03*
X170353200Y-96400000D03*
X142250000Y-79750000D03*
X151900000Y-110400000D03*
X173250000Y-98700000D03*
X136250000Y-90000000D03*
X170290000Y-86440000D03*
X142087600Y-100500000D03*
X176000001Y-103450000D03*
X177800000Y-109500000D03*
X150200000Y-86850000D03*
X143250000Y-114850000D03*
X173250000Y-92400000D03*
X158300000Y-96400000D03*
X156080000Y-96410000D03*
X141600000Y-96300000D03*
X177450000Y-83200000D03*
X173250000Y-85500000D03*
X170150000Y-112000000D03*
X149150000Y-79750000D03*
X175350000Y-80500000D03*
X153567237Y-103563102D03*
X150500000Y-105550000D03*
X137900000Y-113200000D03*
X167750000Y-78000000D03*
X148400000Y-98400000D03*
X180600000Y-103450000D03*
X150500000Y-107400000D03*
X180800000Y-107730000D03*
X161932111Y-106607889D03*
X182200000Y-105800000D03*
X164750000Y-78000000D03*
X164600000Y-86400000D03*
X139350000Y-96750000D03*
X136250000Y-87000000D03*
X175400000Y-98550000D03*
X143196000Y-98399600D03*
X175950000Y-115650000D03*
X170240000Y-89990000D03*
X181650000Y-83800000D03*
X179449999Y-102050000D03*
X178250000Y-119500000D03*
X172549999Y-102050000D03*
X178650000Y-97500000D03*
X146800000Y-110950000D03*
X167750000Y-119500000D03*
X179500000Y-78000000D03*
X163250000Y-112000000D03*
X166650000Y-110700000D03*
X175400000Y-94800000D03*
X162050001Y-79650000D03*
X159400000Y-118000000D03*
X163863109Y-108465241D03*
X150600000Y-94600000D03*
X179550000Y-90100000D03*
X182800000Y-109110000D03*
X175680000Y-109100000D03*
X168900000Y-92700000D03*
X160250000Y-119500000D03*
X175250000Y-78000000D03*
X183950000Y-99350000D03*
X150622000Y-83693000D03*
X139250000Y-119500000D03*
X156529550Y-107000000D03*
X155750000Y-119500000D03*
X156450000Y-109700000D03*
X145300000Y-97700000D03*
X144950000Y-105200000D03*
X164600000Y-90900000D03*
X166270000Y-101040000D03*
X158750000Y-78000000D03*
X178300000Y-105050000D03*
X143350000Y-96350000D03*
X157550000Y-109200000D03*
X140000000Y-106300000D03*
X164950000Y-96879150D03*
X183000000Y-95910000D03*
X165650000Y-103900000D03*
X140750000Y-78000000D03*
X167849999Y-113950000D03*
X183750000Y-84000000D03*
X166000000Y-89100000D03*
X136250000Y-79500000D03*
X161232111Y-105907889D03*
X180599999Y-101000000D03*
X172450000Y-113950000D03*
X136250000Y-107000000D03*
X178000000Y-110700000D03*
X143750000Y-119500000D03*
X180600000Y-99350000D03*
X157927250Y-106520000D03*
X146750000Y-119500000D03*
X136100000Y-102200000D03*
X160069550Y-106870000D03*
X157100000Y-79650000D03*
X181650000Y-87800000D03*
X143200000Y-91550000D03*
X136250000Y-105500000D03*
X173250000Y-83200000D03*
X171400000Y-105050000D03*
X183750000Y-88500000D03*
X137700000Y-94500000D03*
X169330000Y-91000000D03*
X158000000Y-80650000D03*
X160930235Y-103564383D03*
X147200000Y-97700000D03*
X180800000Y-109110000D03*
X140200000Y-87850000D03*
X157000000Y-89550000D03*
X153600000Y-91975000D03*
X157909035Y-102969035D03*
X139650000Y-100132650D03*
X183800000Y-107470000D03*
X155650000Y-114200000D03*
X183750000Y-82500000D03*
X181000000Y-78000000D03*
X166650000Y-103850000D03*
X143200000Y-101750000D03*
X170200000Y-106600000D03*
X146253200Y-102234200D03*
X149750000Y-93450000D03*
X177050000Y-113950000D03*
X164450000Y-117900000D03*
X141600000Y-114850000D03*
X154450000Y-85800000D03*
X140750000Y-119500000D03*
X164042642Y-98390000D03*
X154150000Y-80250000D03*
X160097571Y-110361010D03*
X137900000Y-104000000D03*
X148450000Y-88400000D03*
X183750000Y-101000000D03*
X154250000Y-78000000D03*
X142300000Y-88390200D03*
X148400000Y-101400000D03*
X179800000Y-107729371D03*
X143250000Y-112550000D03*
X152750000Y-78000000D03*
X171680000Y-107720000D03*
X183750000Y-85500000D03*
X171350000Y-115650000D03*
X137900000Y-106300000D03*
X174300000Y-93650000D03*
X181800000Y-109110000D03*
X136250000Y-108500000D03*
X149750000Y-94600000D03*
X165100000Y-94640400D03*
X184000000Y-93900000D03*
X151350000Y-88700000D03*
X148250000Y-119500000D03*
X142200000Y-85600000D03*
X175400000Y-95550000D03*
X138650000Y-100132650D03*
X168752400Y-96400000D03*
X160557111Y-105232889D03*
X137700000Y-89900000D03*
X136250000Y-118380000D03*
X142675000Y-82650000D03*
X137700000Y-87600000D03*
X136250000Y-113000000D03*
X179814323Y-95908350D03*
X144272000Y-100533200D03*
X177580000Y-97500000D03*
X173250000Y-96400000D03*
X178299999Y-100500000D03*
X159600000Y-98500000D03*
X167680000Y-107720000D03*
X160750000Y-92900000D03*
X160200000Y-102958183D03*
X153390761Y-94611011D03*
X172680000Y-107720000D03*
X160500000Y-112200000D03*
X136250000Y-93000000D03*
X155000000Y-79250000D03*
X168400000Y-94850000D03*
X182200000Y-111200000D03*
X136250000Y-82500000D03*
X162100000Y-110350000D03*
X181940000Y-95910000D03*
X168680000Y-109100000D03*
X136250000Y-114500000D03*
X163590271Y-106369729D03*
X173250000Y-87800000D03*
X166250000Y-119500000D03*
X152750000Y-119500000D03*
X149500000Y-106500000D03*
X160750000Y-90300000D03*
X164600000Y-103900000D03*
X143250000Y-93900000D03*
X146800000Y-106350000D03*
X166270000Y-100220000D03*
X166000000Y-86400000D03*
X160750000Y-91600000D03*
X136250000Y-104000000D03*
X171250000Y-110700000D03*
X154600000Y-104800000D03*
X142500000Y-97400000D03*
X140000000Y-113200000D03*
X177580000Y-95550000D03*
X164750000Y-119500000D03*
X148250000Y-78000000D03*
X172275000Y-98700000D03*
X136250000Y-111500000D03*
X149600000Y-85500000D03*
X159800000Y-89550000D03*
X169680000Y-107720000D03*
X172250000Y-119500000D03*
X146800000Y-104050000D03*
X147200000Y-96950000D03*
X183750000Y-79500000D03*
X161100000Y-87650000D03*
X156529550Y-106000000D03*
X160600000Y-80000000D03*
X169680000Y-109100000D03*
X170270000Y-88340000D03*
X169050000Y-115650000D03*
X147320000Y-103220000D03*
X137700000Y-92200000D03*
X153050000Y-114200000D03*
X175350000Y-92400000D03*
X173649999Y-117900000D03*
X157250000Y-78000000D03*
X166749999Y-117900000D03*
X178900000Y-107290000D03*
X156075000Y-85800000D03*
X152900000Y-80250000D03*
X171350000Y-117900000D03*
X168949999Y-110700000D03*
X162155271Y-104934729D03*
X178900000Y-109510000D03*
X143600000Y-90250000D03*
X176550000Y-93600000D03*
X151449999Y-79750000D03*
X161470271Y-104249729D03*
X168080000Y-103860000D03*
X157300000Y-87650000D03*
X150200000Y-88400000D03*
X155440000Y-96730000D03*
X172200000Y-93650000D03*
X160250000Y-78000000D03*
X174749999Y-113950000D03*
X181940000Y-97270000D03*
X170750000Y-78000000D03*
X159600000Y-113050000D03*
X146800000Y-108650000D03*
X162996335Y-102473665D03*
X157550000Y-111500000D03*
X149750000Y-92100000D03*
X171150000Y-94600000D03*
X151750000Y-91800000D03*
X174850000Y-102050000D03*
X163200000Y-90900000D03*
X150450000Y-112550000D03*
X175350000Y-90100000D03*
X167849999Y-112000000D03*
X149750000Y-96350000D03*
X136800000Y-98577150D03*
X150360050Y-89689950D03*
X147200000Y-98400000D03*
X173700001Y-105050000D03*
X136250000Y-78000000D03*
X148450000Y-86850000D03*
X177050000Y-112000000D03*
X141600000Y-117150000D03*
X171050000Y-89250000D03*
X155470000Y-98740000D03*
X149900000Y-103950000D03*
X165950000Y-96879150D03*
X170280000Y-84810000D03*
X177150000Y-102050000D03*
X173750000Y-78000000D03*
X136250000Y-85500000D03*
X164350000Y-110700000D03*
X146250000Y-100400000D03*
X173250000Y-94600000D03*
X158650000Y-110350000D03*
X144550001Y-79750000D03*
X183750000Y-87000000D03*
X151900000Y-108700000D03*
X179550000Y-85500000D03*
X155305000Y-108426000D03*
X167710000Y-101810000D03*
X146850000Y-79750000D03*
X151999000Y-98512000D03*
X177450000Y-85500000D03*
X150450000Y-114200000D03*
X164950000Y-98240000D03*
X184000000Y-97520000D03*
X163250000Y-78000000D03*
X150600000Y-95450000D03*
X162150000Y-117900000D03*
X183750000Y-113000000D03*
X176520000Y-94790000D03*
X183750000Y-78000000D03*
X146400000Y-95750000D03*
X154250000Y-119500000D03*
X183750000Y-102500000D03*
X176750000Y-119500000D03*
X139450000Y-89900000D03*
X146750000Y-78000000D03*
X166680000Y-107719242D03*
X159399999Y-79650000D03*
X143075000Y-87550000D03*
X177804260Y-107290000D03*
X174749999Y-112000000D03*
X165950000Y-98240000D03*
X155450000Y-97740000D03*
X180880000Y-97270000D03*
X149750000Y-78000000D03*
X176750000Y-78000000D03*
X151100000Y-109600000D03*
X156275000Y-90925000D03*
X181800000Y-107730000D03*
X153450000Y-87650000D03*
X150220000Y-98510000D03*
X164350000Y-79650000D03*
X165550000Y-112000000D03*
X165329550Y-107589710D03*
X137750000Y-78000000D03*
X155600000Y-89550000D03*
X171050000Y-87400000D03*
X159996626Y-102292611D03*
X174325000Y-96375000D03*
X177450000Y-90100000D03*
X159050000Y-107700000D03*
X149750000Y-119500000D03*
X169250000Y-78000000D03*
X144450000Y-93900000D03*
X160220000Y-94720000D03*
X137700000Y-85300000D03*
X163070000Y-97440000D03*
X168752400Y-98704400D03*
X144950000Y-109800000D03*
X139000000Y-86550000D03*
X136250000Y-81000000D03*
X171325000Y-98700000D03*
X143925000Y-81400000D03*
X152775000Y-97250000D03*
X179550000Y-91900000D03*
%TO.N,VccRF*%
X164330000Y-109600000D03*
X164875000Y-99325000D03*
X164100000Y-104950000D03*
X169600000Y-94450000D03*
%TO.N,Net-(U2-VTUNE)*%
X151800001Y-105200000D03*
X157800000Y-94550000D03*
%TO.N,VCC*%
X149555200Y-97459800D03*
D17*
X157306801Y-102136798D03*
X153707500Y-104482500D03*
D16*
X148615400Y-104571800D03*
%TO.N,Net-(Q1-S)*%
X156551286Y-81434968D03*
X153500000Y-81860000D03*
%TO.N,/INT_OSC_ENABLE*%
X146690000Y-114630000D03*
X144600000Y-92000000D03*
D17*
%TO.N,Net-(U2-MUXOUT)*%
X159440000Y-100330000D03*
D16*
X159355000Y-112245000D03*
%TO.N,Net-(U2-SDI)*%
X152800000Y-112600000D03*
D17*
X158470000Y-100450000D03*
D16*
%TO.N,Net-(U2-CSB)*%
X156900000Y-112600000D03*
D17*
X159717658Y-99317552D03*
%TO.N,Net-(U2-SCK)*%
X157440068Y-100440000D03*
D16*
X149225000Y-111875000D03*
%TD*%
%TA.AperFunction,Conductor*%
%TO.N,GND*%
G36*
X184481194Y-77268806D02*
G01*
X184499500Y-77313000D01*
X184499500Y-120187000D01*
X184481194Y-120231194D01*
X184437000Y-120249500D01*
X135563000Y-120249500D01*
X135518806Y-120231194D01*
X135500500Y-120187000D01*
X135500500Y-117630063D01*
X145636299Y-117630063D01*
X145648119Y-117689480D01*
X145648119Y-117689481D01*
X145650988Y-117693774D01*
X145693140Y-117756860D01*
X145760520Y-117801881D01*
X145819936Y-117813700D01*
X145819937Y-117813700D01*
X147560063Y-117813700D01*
X147560064Y-117813700D01*
X147619480Y-117801881D01*
X147686860Y-117756860D01*
X147731881Y-117689480D01*
X147743700Y-117630064D01*
X147743700Y-116656219D01*
X148176300Y-116656219D01*
X148176300Y-116863780D01*
X148216792Y-117067351D01*
X148296222Y-117259111D01*
X148296224Y-117259114D01*
X148411538Y-117431694D01*
X148558306Y-117578462D01*
X148730886Y-117693776D01*
X148922647Y-117773207D01*
X149126220Y-117813700D01*
X149333780Y-117813700D01*
X149537353Y-117773207D01*
X149729114Y-117693776D01*
X149901694Y-117578462D01*
X150048462Y-117431694D01*
X150163776Y-117259114D01*
X150243207Y-117067353D01*
X150283700Y-116863780D01*
X150283700Y-116656220D01*
X150283700Y-116656219D01*
X150716299Y-116656219D01*
X150716299Y-116863780D01*
X150756791Y-117067351D01*
X150836221Y-117259111D01*
X150836223Y-117259114D01*
X150951537Y-117431694D01*
X151098305Y-117578462D01*
X151270885Y-117693776D01*
X151462646Y-117773207D01*
X151666219Y-117813700D01*
X151873779Y-117813700D01*
X152077352Y-117773207D01*
X152269113Y-117693776D01*
X152441693Y-117578462D01*
X152588461Y-117431694D01*
X152703775Y-117259114D01*
X152783206Y-117067353D01*
X152823699Y-116863780D01*
X152823699Y-116656220D01*
X152823699Y-116656219D01*
X153256300Y-116656219D01*
X153256300Y-116863780D01*
X153296792Y-117067351D01*
X153376222Y-117259111D01*
X153376224Y-117259114D01*
X153491538Y-117431694D01*
X153638306Y-117578462D01*
X153810886Y-117693776D01*
X154002647Y-117773207D01*
X154206220Y-117813700D01*
X154413780Y-117813700D01*
X154617353Y-117773207D01*
X154809114Y-117693776D01*
X154981694Y-117578462D01*
X155128462Y-117431694D01*
X155243776Y-117259114D01*
X155323207Y-117067353D01*
X155363700Y-116863780D01*
X155363700Y-116656220D01*
X155363700Y-116656219D01*
X155796300Y-116656219D01*
X155796300Y-116863780D01*
X155836792Y-117067351D01*
X155916222Y-117259111D01*
X155916224Y-117259114D01*
X156031538Y-117431694D01*
X156178306Y-117578462D01*
X156350886Y-117693776D01*
X156542647Y-117773207D01*
X156746220Y-117813700D01*
X156953780Y-117813700D01*
X157157353Y-117773207D01*
X157349114Y-117693776D01*
X157521694Y-117578462D01*
X157668462Y-117431694D01*
X157783776Y-117259114D01*
X157863207Y-117067353D01*
X157903700Y-116863780D01*
X157903700Y-116656220D01*
X157863207Y-116452647D01*
X157783776Y-116260886D01*
X157668462Y-116088306D01*
X157521694Y-115941538D01*
X157444466Y-115889936D01*
X157349116Y-115826225D01*
X157349111Y-115826222D01*
X157157351Y-115746792D01*
X156953780Y-115706300D01*
X156746220Y-115706300D01*
X156542648Y-115746792D01*
X156350888Y-115826222D01*
X156350883Y-115826225D01*
X156178306Y-115941537D01*
X156031537Y-116088306D01*
X155916225Y-116260883D01*
X155916222Y-116260888D01*
X155836792Y-116452648D01*
X155796300Y-116656219D01*
X155363700Y-116656219D01*
X155323207Y-116452647D01*
X155243776Y-116260886D01*
X155128462Y-116088306D01*
X154981694Y-115941538D01*
X154904466Y-115889936D01*
X154809116Y-115826225D01*
X154809111Y-115826222D01*
X154617351Y-115746792D01*
X154413780Y-115706300D01*
X154206220Y-115706300D01*
X154002648Y-115746792D01*
X153810888Y-115826222D01*
X153810883Y-115826225D01*
X153638306Y-115941537D01*
X153491537Y-116088306D01*
X153376225Y-116260883D01*
X153376222Y-116260888D01*
X153296792Y-116452648D01*
X153256300Y-116656219D01*
X152823699Y-116656219D01*
X152783206Y-116452647D01*
X152703775Y-116260886D01*
X152588461Y-116088306D01*
X152441693Y-115941538D01*
X152364465Y-115889936D01*
X152269115Y-115826225D01*
X152269110Y-115826222D01*
X152077350Y-115746792D01*
X151873779Y-115706300D01*
X151666219Y-115706300D01*
X151462647Y-115746792D01*
X151270887Y-115826222D01*
X151270882Y-115826225D01*
X151098305Y-115941537D01*
X150951536Y-116088306D01*
X150836224Y-116260883D01*
X150836221Y-116260888D01*
X150756791Y-116452648D01*
X150716299Y-116656219D01*
X150283700Y-116656219D01*
X150243207Y-116452647D01*
X150163776Y-116260886D01*
X150048462Y-116088306D01*
X149901694Y-115941538D01*
X149824466Y-115889936D01*
X149729116Y-115826225D01*
X149729111Y-115826222D01*
X149537351Y-115746792D01*
X149333780Y-115706300D01*
X149126220Y-115706300D01*
X148922648Y-115746792D01*
X148730888Y-115826222D01*
X148730883Y-115826225D01*
X148558306Y-115941537D01*
X148411537Y-116088306D01*
X148296225Y-116260883D01*
X148296222Y-116260888D01*
X148216792Y-116452648D01*
X148176300Y-116656219D01*
X147743700Y-116656219D01*
X147743700Y-115889936D01*
X147731881Y-115830520D01*
X147686860Y-115763140D01*
X147619480Y-115718119D01*
X147560064Y-115706300D01*
X145819936Y-115706300D01*
X145790228Y-115712209D01*
X145760519Y-115718119D01*
X145760518Y-115718119D01*
X145693140Y-115763140D01*
X145648119Y-115830518D01*
X145648119Y-115830519D01*
X145636300Y-115889936D01*
X145636300Y-117630063D01*
X145636299Y-117630063D01*
X135500500Y-117630063D01*
X135500500Y-114563682D01*
X146186300Y-114563682D01*
X146186300Y-114696317D01*
X146220626Y-114824418D01*
X146220626Y-114824420D01*
X146286941Y-114939280D01*
X146286944Y-114939284D01*
X146380715Y-115033055D01*
X146380719Y-115033058D01*
X146380721Y-115033060D01*
X146495579Y-115099373D01*
X146552062Y-115114507D01*
X146623682Y-115133699D01*
X146623684Y-115133699D01*
X146623687Y-115133700D01*
X146623689Y-115133700D01*
X146756311Y-115133700D01*
X146756313Y-115133700D01*
X146884421Y-115099373D01*
X146999279Y-115033060D01*
X147093060Y-114939279D01*
X147159373Y-114824421D01*
X147193700Y-114696313D01*
X147193700Y-114563687D01*
X147159373Y-114435579D01*
X147093060Y-114320721D01*
X147093058Y-114320719D01*
X147093055Y-114320715D01*
X146999284Y-114226944D01*
X146999280Y-114226941D01*
X146999279Y-114226940D01*
X146884421Y-114160627D01*
X146884420Y-114160626D01*
X146884419Y-114160626D01*
X146756317Y-114126300D01*
X146756313Y-114126300D01*
X146623687Y-114126300D01*
X146623682Y-114126300D01*
X146495581Y-114160626D01*
X146495579Y-114160626D01*
X146380719Y-114226941D01*
X146380715Y-114226944D01*
X146286944Y-114320715D01*
X146286941Y-114320719D01*
X146220626Y-114435579D01*
X146220626Y-114435581D01*
X146186300Y-114563682D01*
X135500500Y-114563682D01*
X135500500Y-112533682D01*
X152296300Y-112533682D01*
X152296300Y-112666317D01*
X152330626Y-112794418D01*
X152330626Y-112794420D01*
X152396941Y-112909280D01*
X152396944Y-112909284D01*
X152490715Y-113003055D01*
X152490719Y-113003058D01*
X152490721Y-113003060D01*
X152605579Y-113069373D01*
X152662062Y-113084507D01*
X152733682Y-113103699D01*
X152733684Y-113103699D01*
X152733687Y-113103700D01*
X152733689Y-113103700D01*
X152866311Y-113103700D01*
X152866313Y-113103700D01*
X152994421Y-113069373D01*
X153109279Y-113003060D01*
X153203060Y-112909279D01*
X153269373Y-112794421D01*
X153303700Y-112666313D01*
X153303700Y-112533687D01*
X153303699Y-112533682D01*
X156396300Y-112533682D01*
X156396300Y-112666317D01*
X156430626Y-112794418D01*
X156430626Y-112794420D01*
X156496941Y-112909280D01*
X156496944Y-112909284D01*
X156590715Y-113003055D01*
X156590719Y-113003058D01*
X156590721Y-113003060D01*
X156705579Y-113069373D01*
X156762062Y-113084507D01*
X156833682Y-113103699D01*
X156833684Y-113103699D01*
X156833687Y-113103700D01*
X156833689Y-113103700D01*
X156966311Y-113103700D01*
X156966313Y-113103700D01*
X157094421Y-113069373D01*
X157209279Y-113003060D01*
X157303060Y-112909279D01*
X157369373Y-112794421D01*
X157403700Y-112666313D01*
X157403700Y-112533687D01*
X157369373Y-112405579D01*
X157303060Y-112290721D01*
X157303058Y-112290719D01*
X157303055Y-112290715D01*
X157209284Y-112196944D01*
X157209280Y-112196941D01*
X157209279Y-112196940D01*
X157177655Y-112178682D01*
X158851300Y-112178682D01*
X158851300Y-112311317D01*
X158885626Y-112439418D01*
X158885626Y-112439420D01*
X158885627Y-112439421D01*
X158940051Y-112533687D01*
X158951941Y-112554280D01*
X158951944Y-112554284D01*
X159045715Y-112648055D01*
X159045719Y-112648058D01*
X159045721Y-112648060D01*
X159160579Y-112714373D01*
X159217062Y-112729507D01*
X159288682Y-112748699D01*
X159288684Y-112748699D01*
X159288687Y-112748700D01*
X159288689Y-112748700D01*
X159421311Y-112748700D01*
X159421313Y-112748700D01*
X159549421Y-112714373D01*
X159664279Y-112648060D01*
X159758060Y-112554279D01*
X159824373Y-112439421D01*
X159858700Y-112311313D01*
X159858700Y-112178687D01*
X159824373Y-112050579D01*
X159758060Y-111935721D01*
X159758058Y-111935719D01*
X159758055Y-111935715D01*
X159664284Y-111841944D01*
X159664280Y-111841941D01*
X159664279Y-111841940D01*
X159549421Y-111775627D01*
X159549420Y-111775626D01*
X159549419Y-111775626D01*
X159421317Y-111741300D01*
X159421313Y-111741300D01*
X159288687Y-111741300D01*
X159288682Y-111741300D01*
X159160581Y-111775626D01*
X159160579Y-111775626D01*
X159045719Y-111841941D01*
X159045715Y-111841944D01*
X158951944Y-111935715D01*
X158951941Y-111935719D01*
X158885626Y-112050579D01*
X158885626Y-112050581D01*
X158851300Y-112178682D01*
X157177655Y-112178682D01*
X157094421Y-112130627D01*
X157094420Y-112130626D01*
X157094419Y-112130626D01*
X156966317Y-112096300D01*
X156966313Y-112096300D01*
X156833687Y-112096300D01*
X156833682Y-112096300D01*
X156705581Y-112130626D01*
X156705579Y-112130626D01*
X156590719Y-112196941D01*
X156590715Y-112196944D01*
X156496944Y-112290715D01*
X156496941Y-112290719D01*
X156430626Y-112405579D01*
X156430626Y-112405581D01*
X156396300Y-112533682D01*
X153303699Y-112533682D01*
X153269373Y-112405579D01*
X153203060Y-112290721D01*
X153203058Y-112290719D01*
X153203055Y-112290715D01*
X153109284Y-112196944D01*
X153109280Y-112196941D01*
X153109279Y-112196940D01*
X152994421Y-112130627D01*
X152994420Y-112130626D01*
X152994419Y-112130626D01*
X152866317Y-112096300D01*
X152866313Y-112096300D01*
X152733687Y-112096300D01*
X152733682Y-112096300D01*
X152605581Y-112130626D01*
X152605579Y-112130626D01*
X152490719Y-112196941D01*
X152490715Y-112196944D01*
X152396944Y-112290715D01*
X152396941Y-112290719D01*
X152330626Y-112405579D01*
X152330626Y-112405581D01*
X152296300Y-112533682D01*
X135500500Y-112533682D01*
X135500500Y-111808682D01*
X148721300Y-111808682D01*
X148721300Y-111941317D01*
X148755626Y-112069418D01*
X148755626Y-112069420D01*
X148788783Y-112126850D01*
X148818711Y-112178687D01*
X148821941Y-112184280D01*
X148821944Y-112184284D01*
X148915715Y-112278055D01*
X148915719Y-112278058D01*
X148915721Y-112278060D01*
X149030579Y-112344373D01*
X149087062Y-112359507D01*
X149158682Y-112378699D01*
X149158684Y-112378699D01*
X149158687Y-112378700D01*
X149158689Y-112378700D01*
X149291311Y-112378700D01*
X149291313Y-112378700D01*
X149419421Y-112344373D01*
X149534279Y-112278060D01*
X149628060Y-112184279D01*
X149694373Y-112069421D01*
X149728700Y-111941313D01*
X149728700Y-111808687D01*
X149719841Y-111775627D01*
X149710643Y-111741300D01*
X149694373Y-111680579D01*
X149628060Y-111565721D01*
X149628058Y-111565719D01*
X149628055Y-111565715D01*
X149534284Y-111471944D01*
X149534280Y-111471941D01*
X149534279Y-111471940D01*
X149419421Y-111405627D01*
X149419420Y-111405626D01*
X149419419Y-111405626D01*
X149291317Y-111371300D01*
X149291313Y-111371300D01*
X149158687Y-111371300D01*
X149158682Y-111371300D01*
X149030581Y-111405626D01*
X149030579Y-111405626D01*
X148915719Y-111471941D01*
X148915715Y-111471944D01*
X148821944Y-111565715D01*
X148821941Y-111565719D01*
X148755626Y-111680579D01*
X148755626Y-111680581D01*
X148721300Y-111808682D01*
X135500500Y-111808682D01*
X135500500Y-109533682D01*
X163826300Y-109533682D01*
X163826300Y-109666317D01*
X163860626Y-109794418D01*
X163860626Y-109794420D01*
X163926941Y-109909280D01*
X163926944Y-109909284D01*
X164020715Y-110003055D01*
X164020719Y-110003058D01*
X164020721Y-110003060D01*
X164135579Y-110069373D01*
X164192062Y-110084507D01*
X164263682Y-110103699D01*
X164263684Y-110103699D01*
X164263687Y-110103700D01*
X164263689Y-110103700D01*
X164396311Y-110103700D01*
X164396313Y-110103700D01*
X164524421Y-110069373D01*
X164639279Y-110003060D01*
X164733060Y-109909279D01*
X164799373Y-109794421D01*
X164833700Y-109666313D01*
X164833700Y-109533687D01*
X164799373Y-109405579D01*
X164733060Y-109290721D01*
X164733058Y-109290719D01*
X164733055Y-109290715D01*
X164639284Y-109196944D01*
X164639280Y-109196941D01*
X164639279Y-109196940D01*
X164524421Y-109130627D01*
X164524420Y-109130626D01*
X164524419Y-109130626D01*
X164396317Y-109096300D01*
X164396313Y-109096300D01*
X164263687Y-109096300D01*
X164263682Y-109096300D01*
X164135581Y-109130626D01*
X164135579Y-109130626D01*
X164020719Y-109196941D01*
X164020715Y-109196944D01*
X163926944Y-109290715D01*
X163926941Y-109290719D01*
X163860626Y-109405579D01*
X163860626Y-109405581D01*
X163826300Y-109533682D01*
X135500500Y-109533682D01*
X135500500Y-105133682D01*
X151296301Y-105133682D01*
X151296301Y-105266317D01*
X151330627Y-105394418D01*
X151330627Y-105394420D01*
X151396942Y-105509280D01*
X151396945Y-105509284D01*
X151490716Y-105603055D01*
X151490720Y-105603058D01*
X151490722Y-105603060D01*
X151605580Y-105669373D01*
X151662063Y-105684507D01*
X151733683Y-105703699D01*
X151733685Y-105703699D01*
X151733688Y-105703700D01*
X151733690Y-105703700D01*
X151866312Y-105703700D01*
X151866314Y-105703700D01*
X151994422Y-105669373D01*
X152109280Y-105603060D01*
X152203061Y-105509279D01*
X152269374Y-105394421D01*
X152303701Y-105266313D01*
X152303701Y-105133687D01*
X152269374Y-105005579D01*
X152203061Y-104890721D01*
X152203059Y-104890719D01*
X152203056Y-104890715D01*
X152109285Y-104796944D01*
X152109281Y-104796941D01*
X152109280Y-104796940D01*
X151994422Y-104730627D01*
X151994421Y-104730626D01*
X151994420Y-104730626D01*
X151866318Y-104696300D01*
X151866314Y-104696300D01*
X151733688Y-104696300D01*
X151733683Y-104696300D01*
X151605582Y-104730626D01*
X151605580Y-104730626D01*
X151490720Y-104796941D01*
X151490716Y-104796944D01*
X151396945Y-104890715D01*
X151396942Y-104890719D01*
X151330627Y-105005579D01*
X151330627Y-105005581D01*
X151296301Y-105133682D01*
X135500500Y-105133682D01*
X135500500Y-104505482D01*
X148111700Y-104505482D01*
X148111700Y-104638117D01*
X148146026Y-104766218D01*
X148146026Y-104766220D01*
X148212341Y-104881080D01*
X148212344Y-104881084D01*
X148306115Y-104974855D01*
X148306119Y-104974858D01*
X148306121Y-104974860D01*
X148420979Y-105041173D01*
X148477462Y-105056307D01*
X148549082Y-105075499D01*
X148549084Y-105075499D01*
X148549087Y-105075500D01*
X148549089Y-105075500D01*
X148681711Y-105075500D01*
X148681713Y-105075500D01*
X148681717Y-105075499D01*
X148705151Y-105069220D01*
X148733355Y-105061662D01*
X148809821Y-105041173D01*
X148924679Y-104974860D01*
X149018460Y-104881079D01*
X149084773Y-104766221D01*
X149119100Y-104638113D01*
X149119100Y-104505487D01*
X149112438Y-104480626D01*
X149101055Y-104438142D01*
X149097818Y-104426062D01*
X153278800Y-104426062D01*
X153278800Y-104538937D01*
X153278801Y-104538945D01*
X153308013Y-104647968D01*
X153308017Y-104647977D01*
X153364452Y-104745724D01*
X153364459Y-104745733D01*
X153444266Y-104825540D01*
X153444275Y-104825547D01*
X153542022Y-104881982D01*
X153542025Y-104881983D01*
X153542028Y-104881985D01*
X153542029Y-104881985D01*
X153542031Y-104881986D01*
X153608750Y-104899863D01*
X153651061Y-104911200D01*
X153651062Y-104911200D01*
X153763938Y-104911200D01*
X153763939Y-104911200D01*
X153866639Y-104883682D01*
X163596300Y-104883682D01*
X163596300Y-105016317D01*
X163630626Y-105144418D01*
X163630626Y-105144420D01*
X163696941Y-105259280D01*
X163696944Y-105259284D01*
X163790715Y-105353055D01*
X163790719Y-105353058D01*
X163790721Y-105353060D01*
X163905579Y-105419373D01*
X163962062Y-105434507D01*
X164033682Y-105453699D01*
X164033684Y-105453699D01*
X164033687Y-105453700D01*
X164033689Y-105453700D01*
X164166311Y-105453700D01*
X164166313Y-105453700D01*
X164294421Y-105419373D01*
X164409279Y-105353060D01*
X164503060Y-105259279D01*
X164569373Y-105144421D01*
X164603700Y-105016313D01*
X164603700Y-104883687D01*
X164603244Y-104881986D01*
X164580456Y-104796940D01*
X164569373Y-104755579D01*
X164503060Y-104640721D01*
X164503058Y-104640719D01*
X164503055Y-104640715D01*
X164409284Y-104546944D01*
X164409280Y-104546941D01*
X164409279Y-104546940D01*
X164294421Y-104480627D01*
X164294420Y-104480626D01*
X164294419Y-104480626D01*
X164166317Y-104446300D01*
X164166313Y-104446300D01*
X164033687Y-104446300D01*
X164033682Y-104446300D01*
X163905581Y-104480626D01*
X163905579Y-104480626D01*
X163790719Y-104546941D01*
X163790715Y-104546944D01*
X163696944Y-104640715D01*
X163696941Y-104640719D01*
X163630626Y-104755579D01*
X163630626Y-104755581D01*
X163596300Y-104883682D01*
X153866639Y-104883682D01*
X153872972Y-104881985D01*
X153970728Y-104825545D01*
X154050545Y-104745728D01*
X154106985Y-104647972D01*
X154136200Y-104538939D01*
X154136200Y-104426061D01*
X154106985Y-104317028D01*
X154050545Y-104219272D01*
X154050543Y-104219270D01*
X154050540Y-104219266D01*
X153970733Y-104139459D01*
X153970724Y-104139452D01*
X153872977Y-104083017D01*
X153872968Y-104083013D01*
X153763945Y-104053801D01*
X153763940Y-104053800D01*
X153763939Y-104053800D01*
X153651061Y-104053800D01*
X153651060Y-104053800D01*
X153651054Y-104053801D01*
X153542031Y-104083013D01*
X153542022Y-104083017D01*
X153444275Y-104139452D01*
X153444266Y-104139459D01*
X153364459Y-104219266D01*
X153364452Y-104219275D01*
X153308017Y-104317022D01*
X153308013Y-104317031D01*
X153278801Y-104426054D01*
X153278800Y-104426062D01*
X149097818Y-104426062D01*
X149094788Y-104414756D01*
X149084773Y-104377379D01*
X149018460Y-104262521D01*
X149018458Y-104262519D01*
X149018455Y-104262515D01*
X148924684Y-104168744D01*
X148924680Y-104168741D01*
X148924679Y-104168740D01*
X148809821Y-104102427D01*
X148809820Y-104102426D01*
X148809819Y-104102426D01*
X148681717Y-104068100D01*
X148681713Y-104068100D01*
X148549087Y-104068100D01*
X148549082Y-104068100D01*
X148420981Y-104102426D01*
X148420979Y-104102426D01*
X148306119Y-104168741D01*
X148306115Y-104168744D01*
X148212344Y-104262515D01*
X148212341Y-104262519D01*
X148146026Y-104377379D01*
X148146026Y-104377381D01*
X148111700Y-104505482D01*
X135500500Y-104505482D01*
X135500500Y-102080360D01*
X156878101Y-102080360D01*
X156878101Y-102193235D01*
X156878102Y-102193243D01*
X156907314Y-102302266D01*
X156907318Y-102302275D01*
X156963753Y-102400022D01*
X156963760Y-102400031D01*
X157043567Y-102479838D01*
X157043576Y-102479845D01*
X157141323Y-102536280D01*
X157141326Y-102536281D01*
X157141329Y-102536283D01*
X157141330Y-102536283D01*
X157141332Y-102536284D01*
X157208051Y-102554161D01*
X157250362Y-102565498D01*
X157250363Y-102565498D01*
X157363239Y-102565498D01*
X157363240Y-102565498D01*
X157472273Y-102536283D01*
X157570029Y-102479843D01*
X157649846Y-102400026D01*
X157706286Y-102302270D01*
X157735501Y-102193237D01*
X157735501Y-102080359D01*
X157706286Y-101971326D01*
X157649846Y-101873570D01*
X157649844Y-101873568D01*
X157649841Y-101873564D01*
X157570034Y-101793757D01*
X157570025Y-101793750D01*
X157472278Y-101737315D01*
X157472269Y-101737311D01*
X157363246Y-101708099D01*
X157363241Y-101708098D01*
X157363240Y-101708098D01*
X157250362Y-101708098D01*
X157250361Y-101708098D01*
X157250355Y-101708099D01*
X157141332Y-101737311D01*
X157141323Y-101737315D01*
X157043576Y-101793750D01*
X157043567Y-101793757D01*
X156963760Y-101873564D01*
X156963753Y-101873573D01*
X156907318Y-101971320D01*
X156907314Y-101971329D01*
X156878102Y-102080352D01*
X156878101Y-102080360D01*
X135500500Y-102080360D01*
X135500500Y-100383562D01*
X157011368Y-100383562D01*
X157011368Y-100496437D01*
X157011369Y-100496445D01*
X157040581Y-100605468D01*
X157040585Y-100605477D01*
X157097020Y-100703224D01*
X157097027Y-100703233D01*
X157176834Y-100783040D01*
X157176843Y-100783047D01*
X157274590Y-100839482D01*
X157274593Y-100839483D01*
X157274596Y-100839485D01*
X157274597Y-100839485D01*
X157274599Y-100839486D01*
X157341318Y-100857363D01*
X157383629Y-100868700D01*
X157383630Y-100868700D01*
X157496506Y-100868700D01*
X157496507Y-100868700D01*
X157605540Y-100839485D01*
X157703296Y-100783045D01*
X157783113Y-100703228D01*
X157839553Y-100605472D01*
X157868768Y-100496439D01*
X157868768Y-100393562D01*
X158041300Y-100393562D01*
X158041300Y-100506437D01*
X158041301Y-100506445D01*
X158070513Y-100615468D01*
X158070517Y-100615477D01*
X158126952Y-100713224D01*
X158126959Y-100713233D01*
X158206766Y-100793040D01*
X158206775Y-100793047D01*
X158304522Y-100849482D01*
X158304525Y-100849483D01*
X158304528Y-100849485D01*
X158304529Y-100849485D01*
X158304531Y-100849486D01*
X158371250Y-100867363D01*
X158413561Y-100878700D01*
X158413562Y-100878700D01*
X158526438Y-100878700D01*
X158526439Y-100878700D01*
X158635472Y-100849485D01*
X158733228Y-100793045D01*
X158813045Y-100713228D01*
X158869485Y-100615472D01*
X158898700Y-100506439D01*
X158898700Y-100393561D01*
X158887290Y-100350980D01*
X158887290Y-100350975D01*
X158869486Y-100284531D01*
X158869482Y-100284522D01*
X158863153Y-100273560D01*
X159011300Y-100273560D01*
X159011300Y-100273561D01*
X159011300Y-100386439D01*
X159022709Y-100429021D01*
X159022710Y-100429023D01*
X159040513Y-100495468D01*
X159040517Y-100495477D01*
X159096952Y-100593224D01*
X159096959Y-100593233D01*
X159176766Y-100673040D01*
X159176775Y-100673047D01*
X159274522Y-100729482D01*
X159274525Y-100729483D01*
X159274528Y-100729485D01*
X159274529Y-100729485D01*
X159274531Y-100729486D01*
X159341250Y-100747363D01*
X159383561Y-100758700D01*
X159383562Y-100758700D01*
X159496438Y-100758700D01*
X159496439Y-100758700D01*
X159605472Y-100729485D01*
X159703228Y-100673045D01*
X159783045Y-100593228D01*
X159839485Y-100495472D01*
X159868700Y-100386439D01*
X159868700Y-100273561D01*
X159839485Y-100164528D01*
X159806247Y-100106959D01*
X159783047Y-100066775D01*
X159783040Y-100066766D01*
X159703233Y-99986959D01*
X159703224Y-99986952D01*
X159605477Y-99930517D01*
X159605468Y-99930513D01*
X159496445Y-99901301D01*
X159496440Y-99901300D01*
X159496439Y-99901300D01*
X159383561Y-99901300D01*
X159383560Y-99901300D01*
X159383554Y-99901301D01*
X159274531Y-99930513D01*
X159274522Y-99930517D01*
X159176775Y-99986952D01*
X159176766Y-99986959D01*
X159096959Y-100066766D01*
X159096952Y-100066775D01*
X159040517Y-100164522D01*
X159040513Y-100164531D01*
X159011301Y-100273554D01*
X159011300Y-100273560D01*
X158863153Y-100273560D01*
X158813047Y-100186775D01*
X158813040Y-100186766D01*
X158733233Y-100106959D01*
X158733224Y-100106952D01*
X158635477Y-100050517D01*
X158635468Y-100050513D01*
X158526445Y-100021301D01*
X158526440Y-100021300D01*
X158526439Y-100021300D01*
X158413561Y-100021300D01*
X158413560Y-100021300D01*
X158413554Y-100021301D01*
X158304531Y-100050513D01*
X158304522Y-100050517D01*
X158206775Y-100106952D01*
X158206766Y-100106959D01*
X158126959Y-100186766D01*
X158126952Y-100186775D01*
X158070517Y-100284522D01*
X158070513Y-100284531D01*
X158041301Y-100393554D01*
X158041300Y-100393562D01*
X157868768Y-100393562D01*
X157868768Y-100383561D01*
X157842233Y-100284531D01*
X157839554Y-100274531D01*
X157839550Y-100274522D01*
X157783115Y-100176775D01*
X157783108Y-100176766D01*
X157703301Y-100096959D01*
X157703292Y-100096952D01*
X157605545Y-100040517D01*
X157605536Y-100040513D01*
X157496513Y-100011301D01*
X157496508Y-100011300D01*
X157496507Y-100011300D01*
X157383629Y-100011300D01*
X157383628Y-100011300D01*
X157383622Y-100011301D01*
X157274599Y-100040513D01*
X157274590Y-100040517D01*
X157176843Y-100096952D01*
X157176834Y-100096959D01*
X157097027Y-100176766D01*
X157097020Y-100176775D01*
X157040585Y-100274522D01*
X157040581Y-100274531D01*
X157011369Y-100383554D01*
X157011368Y-100383562D01*
X135500500Y-100383562D01*
X135500500Y-99261114D01*
X159288958Y-99261114D01*
X159288958Y-99373989D01*
X159288959Y-99373997D01*
X159318171Y-99483020D01*
X159318175Y-99483029D01*
X159374610Y-99580776D01*
X159374617Y-99580785D01*
X159454424Y-99660592D01*
X159454433Y-99660599D01*
X159552180Y-99717034D01*
X159552183Y-99717035D01*
X159552186Y-99717037D01*
X159552187Y-99717037D01*
X159552189Y-99717038D01*
X159593306Y-99728055D01*
X159661219Y-99746252D01*
X159661220Y-99746252D01*
X159774096Y-99746252D01*
X159774097Y-99746252D01*
X159883130Y-99717037D01*
X159980886Y-99660597D01*
X160060703Y-99580780D01*
X160117143Y-99483024D01*
X160146358Y-99373991D01*
X160146358Y-99261113D01*
X160146358Y-99261110D01*
X160145707Y-99258682D01*
X164371300Y-99258682D01*
X164371300Y-99391317D01*
X164405626Y-99519418D01*
X164405626Y-99519420D01*
X164405627Y-99519421D01*
X164441052Y-99580780D01*
X164471941Y-99634280D01*
X164471944Y-99634284D01*
X164565715Y-99728055D01*
X164565719Y-99728058D01*
X164565721Y-99728060D01*
X164680579Y-99794373D01*
X164737062Y-99809507D01*
X164808682Y-99828699D01*
X164808684Y-99828699D01*
X164808687Y-99828700D01*
X164808689Y-99828700D01*
X164941311Y-99828700D01*
X164941313Y-99828700D01*
X165069421Y-99794373D01*
X165184279Y-99728060D01*
X165278060Y-99634279D01*
X165344373Y-99519421D01*
X165378700Y-99391313D01*
X165378700Y-99258687D01*
X165344373Y-99130579D01*
X165278060Y-99015721D01*
X165278058Y-99015719D01*
X165278055Y-99015715D01*
X165184284Y-98921944D01*
X165184280Y-98921941D01*
X165184279Y-98921940D01*
X165069421Y-98855627D01*
X165069420Y-98855626D01*
X165069419Y-98855626D01*
X164941317Y-98821300D01*
X164941313Y-98821300D01*
X164808687Y-98821300D01*
X164808682Y-98821300D01*
X164680581Y-98855626D01*
X164680579Y-98855626D01*
X164565719Y-98921941D01*
X164565715Y-98921944D01*
X164471944Y-99015715D01*
X164471941Y-99015719D01*
X164405626Y-99130579D01*
X164405626Y-99130581D01*
X164371300Y-99258682D01*
X160145707Y-99258682D01*
X160117144Y-99152083D01*
X160117140Y-99152074D01*
X160060705Y-99054327D01*
X160060698Y-99054318D01*
X159980891Y-98974511D01*
X159980882Y-98974504D01*
X159883135Y-98918069D01*
X159883126Y-98918065D01*
X159774103Y-98888853D01*
X159774098Y-98888852D01*
X159774097Y-98888852D01*
X159661219Y-98888852D01*
X159661218Y-98888852D01*
X159661212Y-98888853D01*
X159552189Y-98918065D01*
X159552180Y-98918069D01*
X159454433Y-98974504D01*
X159454424Y-98974511D01*
X159374617Y-99054318D01*
X159374610Y-99054327D01*
X159318175Y-99152074D01*
X159318171Y-99152083D01*
X159288959Y-99261106D01*
X159288958Y-99261114D01*
X135500500Y-99261114D01*
X135500500Y-97393482D01*
X149051500Y-97393482D01*
X149051500Y-97526117D01*
X149085826Y-97654218D01*
X149085826Y-97654220D01*
X149152141Y-97769080D01*
X149152144Y-97769084D01*
X149245915Y-97862855D01*
X149245919Y-97862858D01*
X149245921Y-97862860D01*
X149360779Y-97929173D01*
X149417262Y-97944307D01*
X149488882Y-97963499D01*
X149488884Y-97963499D01*
X149488887Y-97963500D01*
X149488889Y-97963500D01*
X149621511Y-97963500D01*
X149621513Y-97963500D01*
X149749621Y-97929173D01*
X149864479Y-97862860D01*
X149958260Y-97769079D01*
X150024573Y-97654221D01*
X150058900Y-97526113D01*
X150058900Y-97393487D01*
X150024573Y-97265379D01*
X149958260Y-97150521D01*
X149958258Y-97150519D01*
X149958255Y-97150515D01*
X149864484Y-97056744D01*
X149864480Y-97056741D01*
X149864479Y-97056740D01*
X149749621Y-96990427D01*
X149749620Y-96990426D01*
X149749619Y-96990426D01*
X149621517Y-96956100D01*
X149621513Y-96956100D01*
X149488887Y-96956100D01*
X149488882Y-96956100D01*
X149360781Y-96990426D01*
X149360779Y-96990426D01*
X149245919Y-97056741D01*
X149245915Y-97056744D01*
X149152144Y-97150515D01*
X149152141Y-97150519D01*
X149085826Y-97265379D01*
X149085826Y-97265381D01*
X149051500Y-97393482D01*
X135500500Y-97393482D01*
X135500500Y-94483682D01*
X157296300Y-94483682D01*
X157296300Y-94616317D01*
X157330626Y-94744418D01*
X157330626Y-94744420D01*
X157339208Y-94759284D01*
X157393349Y-94853060D01*
X157396941Y-94859280D01*
X157396944Y-94859284D01*
X157490715Y-94953055D01*
X157490719Y-94953058D01*
X157490721Y-94953060D01*
X157605579Y-95019373D01*
X157662062Y-95034507D01*
X157733682Y-95053699D01*
X157733684Y-95053699D01*
X157733687Y-95053700D01*
X157733689Y-95053700D01*
X157866311Y-95053700D01*
X157866313Y-95053700D01*
X157994421Y-95019373D01*
X158109279Y-94953060D01*
X158203060Y-94859279D01*
X158269373Y-94744421D01*
X158303700Y-94616313D01*
X158303700Y-94483687D01*
X158300343Y-94471159D01*
X158280142Y-94395766D01*
X158276903Y-94383682D01*
X169096300Y-94383682D01*
X169096300Y-94516317D01*
X169130626Y-94644418D01*
X169130626Y-94644420D01*
X169130627Y-94644421D01*
X169188361Y-94744420D01*
X169196941Y-94759280D01*
X169196944Y-94759284D01*
X169290715Y-94853055D01*
X169290719Y-94853058D01*
X169290721Y-94853060D01*
X169405579Y-94919373D01*
X169462062Y-94934507D01*
X169533682Y-94953699D01*
X169533684Y-94953699D01*
X169533687Y-94953700D01*
X169533689Y-94953700D01*
X169666311Y-94953700D01*
X169666313Y-94953700D01*
X169668702Y-94953060D01*
X169676822Y-94950883D01*
X169794421Y-94919373D01*
X169909279Y-94853060D01*
X170003060Y-94759279D01*
X170069373Y-94644421D01*
X170103700Y-94516313D01*
X170103700Y-94383687D01*
X170096168Y-94355579D01*
X170090380Y-94333977D01*
X170069373Y-94255579D01*
X170003060Y-94140721D01*
X170003058Y-94140719D01*
X170003055Y-94140715D01*
X169909284Y-94046944D01*
X169909280Y-94046941D01*
X169909279Y-94046940D01*
X169794421Y-93980627D01*
X169794420Y-93980626D01*
X169794419Y-93980626D01*
X169666317Y-93946300D01*
X169666313Y-93946300D01*
X169533687Y-93946300D01*
X169533682Y-93946300D01*
X169405581Y-93980626D01*
X169405579Y-93980626D01*
X169290719Y-94046941D01*
X169290715Y-94046944D01*
X169196944Y-94140715D01*
X169196941Y-94140719D01*
X169130626Y-94255579D01*
X169130626Y-94255581D01*
X169096300Y-94383682D01*
X158276903Y-94383682D01*
X158273865Y-94372346D01*
X158269373Y-94355579D01*
X158203060Y-94240721D01*
X158203058Y-94240719D01*
X158203055Y-94240715D01*
X158109284Y-94146944D01*
X158109280Y-94146941D01*
X158109279Y-94146940D01*
X157994421Y-94080627D01*
X157994420Y-94080626D01*
X157994419Y-94080626D01*
X157866317Y-94046300D01*
X157866313Y-94046300D01*
X157733687Y-94046300D01*
X157733682Y-94046300D01*
X157605581Y-94080626D01*
X157605579Y-94080626D01*
X157490719Y-94146941D01*
X157490715Y-94146944D01*
X157396944Y-94240715D01*
X157396941Y-94240719D01*
X157330626Y-94355579D01*
X157330626Y-94355581D01*
X157296300Y-94483682D01*
X135500500Y-94483682D01*
X135500500Y-91933682D01*
X144096300Y-91933682D01*
X144096300Y-92066317D01*
X144130626Y-92194418D01*
X144130626Y-92194420D01*
X144196941Y-92309280D01*
X144196944Y-92309284D01*
X144290715Y-92403055D01*
X144290719Y-92403058D01*
X144290721Y-92403060D01*
X144405579Y-92469373D01*
X144462062Y-92484507D01*
X144533682Y-92503699D01*
X144533684Y-92503699D01*
X144533687Y-92503700D01*
X144533689Y-92503700D01*
X144666311Y-92503700D01*
X144666313Y-92503700D01*
X144794421Y-92469373D01*
X144909279Y-92403060D01*
X145003060Y-92309279D01*
X145069373Y-92194421D01*
X145103700Y-92066313D01*
X145103700Y-91933687D01*
X145069373Y-91805579D01*
X145003060Y-91690721D01*
X145003058Y-91690719D01*
X145003055Y-91690715D01*
X144909284Y-91596944D01*
X144909280Y-91596941D01*
X144909279Y-91596940D01*
X144794421Y-91530627D01*
X144794420Y-91530626D01*
X144794419Y-91530626D01*
X144666317Y-91496300D01*
X144666313Y-91496300D01*
X144533687Y-91496300D01*
X144533682Y-91496300D01*
X144405581Y-91530626D01*
X144405579Y-91530626D01*
X144290719Y-91596941D01*
X144290715Y-91596944D01*
X144196944Y-91690715D01*
X144196941Y-91690719D01*
X144130626Y-91805579D01*
X144130626Y-91805581D01*
X144096300Y-91933682D01*
X135500500Y-91933682D01*
X135500500Y-82547819D01*
X145383100Y-82547819D01*
X145383100Y-82755380D01*
X145423592Y-82958951D01*
X145503022Y-83150711D01*
X145503024Y-83150714D01*
X145618338Y-83323294D01*
X145765106Y-83470062D01*
X145937686Y-83585376D01*
X146129447Y-83664807D01*
X146333020Y-83705300D01*
X146540580Y-83705300D01*
X146744153Y-83664807D01*
X146935914Y-83585376D01*
X147108494Y-83470062D01*
X147255262Y-83323294D01*
X147370576Y-83150714D01*
X147450007Y-82958953D01*
X147490500Y-82755380D01*
X147490500Y-82547820D01*
X147450007Y-82344247D01*
X147377534Y-82169284D01*
X147370577Y-82152488D01*
X147370574Y-82152483D01*
X147255262Y-81979906D01*
X147108493Y-81833137D01*
X147049444Y-81793682D01*
X152996300Y-81793682D01*
X152996300Y-81926317D01*
X153030626Y-82054418D01*
X153030626Y-82054420D01*
X153096941Y-82169280D01*
X153096944Y-82169284D01*
X153190715Y-82263055D01*
X153190719Y-82263058D01*
X153190721Y-82263060D01*
X153305579Y-82329373D01*
X153361089Y-82344247D01*
X153433682Y-82363699D01*
X153433684Y-82363699D01*
X153433687Y-82363700D01*
X153433689Y-82363700D01*
X153566311Y-82363700D01*
X153566313Y-82363700D01*
X153694421Y-82329373D01*
X153809279Y-82263060D01*
X153903060Y-82169279D01*
X153969373Y-82054421D01*
X154003700Y-81926313D01*
X154003700Y-81793687D01*
X153969373Y-81665579D01*
X153903060Y-81550721D01*
X153903058Y-81550719D01*
X153903055Y-81550715D01*
X153809284Y-81456944D01*
X153809280Y-81456941D01*
X153809279Y-81456940D01*
X153694421Y-81390627D01*
X153694420Y-81390626D01*
X153694419Y-81390626D01*
X153612406Y-81368650D01*
X156047586Y-81368650D01*
X156047586Y-81501285D01*
X156081912Y-81629386D01*
X156081912Y-81629388D01*
X156081913Y-81629389D01*
X156132971Y-81717825D01*
X156148227Y-81744248D01*
X156148230Y-81744252D01*
X156242001Y-81838023D01*
X156242005Y-81838026D01*
X156242007Y-81838028D01*
X156356865Y-81904341D01*
X156413348Y-81919475D01*
X156484968Y-81938667D01*
X156484970Y-81938667D01*
X156484973Y-81938668D01*
X156484975Y-81938668D01*
X156617597Y-81938668D01*
X156617599Y-81938668D01*
X156745707Y-81904341D01*
X156860565Y-81838028D01*
X156954346Y-81744247D01*
X157020659Y-81629389D01*
X157054986Y-81501281D01*
X157054986Y-81368655D01*
X157051675Y-81356300D01*
X157041666Y-81318945D01*
X157020659Y-81240547D01*
X156954346Y-81125689D01*
X156954344Y-81125687D01*
X156954341Y-81125683D01*
X156860570Y-81031912D01*
X156860566Y-81031909D01*
X156860565Y-81031908D01*
X156745707Y-80965595D01*
X156745706Y-80965594D01*
X156745705Y-80965594D01*
X156617603Y-80931268D01*
X156617599Y-80931268D01*
X156484973Y-80931268D01*
X156484968Y-80931268D01*
X156356867Y-80965594D01*
X156356865Y-80965594D01*
X156242005Y-81031909D01*
X156242001Y-81031912D01*
X156148230Y-81125683D01*
X156148227Y-81125687D01*
X156081912Y-81240547D01*
X156081912Y-81240549D01*
X156047586Y-81368650D01*
X153612406Y-81368650D01*
X153566317Y-81356300D01*
X153566313Y-81356300D01*
X153433687Y-81356300D01*
X153433682Y-81356300D01*
X153305581Y-81390626D01*
X153305579Y-81390626D01*
X153190719Y-81456941D01*
X153190715Y-81456944D01*
X153096944Y-81550715D01*
X153096941Y-81550719D01*
X153030626Y-81665579D01*
X153030626Y-81665581D01*
X152996300Y-81793682D01*
X147049444Y-81793682D01*
X146935916Y-81717825D01*
X146935911Y-81717822D01*
X146744151Y-81638392D01*
X146540580Y-81597900D01*
X146333020Y-81597900D01*
X146129448Y-81638392D01*
X145937688Y-81717822D01*
X145937683Y-81717825D01*
X145765106Y-81833137D01*
X145618337Y-81979906D01*
X145503025Y-82152483D01*
X145503022Y-82152488D01*
X145423592Y-82344248D01*
X145383100Y-82547819D01*
X135500500Y-82547819D01*
X135500500Y-77313000D01*
X135518806Y-77268806D01*
X135563000Y-77250500D01*
X184437000Y-77250500D01*
X184481194Y-77268806D01*
G37*
%TD.AperFunction*%
%TD*%
M02*
