%TF.GenerationSoftware,KiCad,Pcbnew,10.0.4*%
%TF.CreationDate,2026-08-16T22:18:19+02:00*%
%TF.ProjectId,LO_PCB,4c4f5f50-4342-42e6-9b69-6361645f7063,rev?*%
%TF.SameCoordinates,Original*%
%TF.FileFunction,Legend,Top*%
%TF.FilePolarity,Positive*%
%FSLAX46Y46*%
G04 Gerber Fmt 4.6, Leading zero omitted, Abs format (unit mm)*
G04 Created by KiCad (PCBNEW 10.0.4) date 2026-08-16 22:18:19*
%MOMM*%
%LPD*%
G01*
G04 APERTURE LIST*
G04 Aperture macros list*
%AMRoundRect*
0 Rectangle with rounded corners*
0 $1 Rounding radius*
0 $2 $3 $4 $5 $6 $7 $8 $9 X,Y pos of 4 corners*
0 Add a 4 corners polygon primitive as box body*
4,1,4,$2,$3,$4,$5,$6,$7,$8,$9,$2,$3,0*
0 Add four circle primitives for the rounded corners*
1,1,$1+$1,$2,$3*
1,1,$1+$1,$4,$5*
1,1,$1+$1,$6,$7*
1,1,$1+$1,$8,$9*
0 Add four rect primitives between the rounded corners*
20,1,$1+$1,$2,$3,$4,$5,0*
20,1,$1+$1,$4,$5,$6,$7,0*
20,1,$1+$1,$6,$7,$8,$9,0*
20,1,$1+$1,$8,$9,$2,$3,0*%
G04 Aperture macros list end*
%ADD10C,0.250000*%
%ADD11C,0.120000*%
%ADD12C,0.100000*%
%ADD13C,0.200000*%
%ADD14C,0.152400*%
%ADD15C,0.000000*%
%ADD16RoundRect,0.225000X-0.225000X-0.250000X0.225000X-0.250000X0.225000X0.250000X-0.225000X0.250000X0*%
%ADD17RoundRect,0.225000X-0.017678X0.335876X-0.335876X0.017678X0.017678X-0.335876X0.335876X-0.017678X0*%
%ADD18RoundRect,0.225000X0.250000X-0.225000X0.250000X0.225000X-0.250000X0.225000X-0.250000X-0.225000X0*%
%ADD19RoundRect,0.135000X0.226274X0.035355X0.035355X0.226274X-0.226274X-0.035355X-0.035355X-0.226274X0*%
%ADD20RoundRect,0.225000X-0.250000X0.225000X-0.250000X-0.225000X0.250000X-0.225000X0.250000X0.225000X0*%
%ADD21RoundRect,0.135000X-0.185000X0.135000X-0.185000X-0.135000X0.185000X-0.135000X0.185000X0.135000X0*%
%ADD22RoundRect,0.200000X-0.275000X0.200000X-0.275000X-0.200000X0.275000X-0.200000X0.275000X0.200000X0*%
%ADD23RoundRect,0.140000X-0.170000X0.140000X-0.170000X-0.140000X0.170000X-0.140000X0.170000X0.140000X0*%
%ADD24C,0.700000*%
%ADD25C,4.400000*%
%ADD26RoundRect,0.135000X0.035355X-0.226274X0.226274X-0.035355X-0.035355X0.226274X-0.226274X0.035355X0*%
%ADD27RoundRect,0.140000X0.140000X0.170000X-0.140000X0.170000X-0.140000X-0.170000X0.140000X-0.170000X0*%
%ADD28RoundRect,0.225000X0.017678X-0.335876X0.335876X-0.017678X-0.017678X0.335876X-0.335876X0.017678X0*%
%ADD29RoundRect,0.135000X0.185000X-0.135000X0.185000X0.135000X-0.185000X0.135000X-0.185000X-0.135000X0*%
%ADD30RoundRect,0.140000X0.170000X-0.140000X0.170000X0.140000X-0.170000X0.140000X-0.170000X-0.140000X0*%
%ADD31RoundRect,0.200000X0.200000X0.275000X-0.200000X0.275000X-0.200000X-0.275000X0.200000X-0.275000X0*%
%ADD32O,0.599999X0.249999*%
%ADD33C,0.600000*%
%ADD34R,1.200000X2.000001*%
%ADD35R,1.016000X0.508000*%
%ADD36R,1.700000X1.700000*%
%ADD37C,1.700000*%
%ADD38RoundRect,0.140000X0.219203X0.021213X0.021213X0.219203X-0.219203X-0.021213X-0.021213X-0.219203X0*%
%ADD39RoundRect,0.135000X-0.035355X0.226274X-0.226274X0.035355X0.035355X-0.226274X0.226274X-0.035355X0*%
%ADD40R,1.397000X1.346200*%
%ADD41RoundRect,0.135000X-0.135000X-0.185000X0.135000X-0.185000X0.135000X0.185000X-0.135000X0.185000X0*%
%ADD42RoundRect,0.135000X-0.226274X-0.035355X-0.035355X-0.226274X0.226274X0.035355X0.035355X0.226274X0*%
%ADD43RoundRect,0.225000X0.225000X0.250000X-0.225000X0.250000X-0.225000X-0.250000X0.225000X-0.250000X0*%
%ADD44RoundRect,0.140000X0.021213X-0.219203X0.219203X-0.021213X-0.021213X0.219203X-0.219203X0.021213X0*%
%ADD45RoundRect,0.147500X-0.147500X-0.172500X0.147500X-0.172500X0.147500X0.172500X-0.147500X0.172500X0*%
%ADD46RoundRect,0.200000X0.335876X0.053033X0.053033X0.335876X-0.335876X-0.053033X-0.053033X-0.335876X0*%
%ADD47RoundRect,0.140000X-0.140000X-0.170000X0.140000X-0.170000X0.140000X0.170000X-0.140000X0.170000X0*%
%ADD48RoundRect,0.200000X0.275000X-0.200000X0.275000X0.200000X-0.275000X0.200000X-0.275000X-0.200000X0*%
%ADD49RoundRect,0.147500X0.172500X-0.147500X0.172500X0.147500X-0.172500X0.147500X-0.172500X-0.147500X0*%
%ADD50RoundRect,0.225000X-0.335876X-0.017678X-0.017678X-0.335876X0.335876X0.017678X0.017678X0.335876X0*%
%ADD51RoundRect,0.140000X-0.219203X-0.021213X-0.021213X-0.219203X0.219203X0.021213X0.021213X0.219203X0*%
%ADD52R,0.900000X0.610000*%
%ADD53R,5.000000X1.400000*%
%ADD54R,0.708000X0.254800*%
%ADD55R,0.254800X0.708000*%
%ADD56C,1.016000*%
%ADD57RoundRect,0.200000X-0.200000X-0.275000X0.200000X-0.275000X0.200000X0.275000X-0.200000X0.275000X0*%
%ADD58RoundRect,0.140000X-0.021213X0.219203X-0.219203X0.021213X0.021213X-0.219203X0.219203X-0.021213X0*%
%ADD59RoundRect,0.250000X-0.475000X0.250000X-0.475000X-0.250000X0.475000X-0.250000X0.475000X0.250000X0*%
G04 APERTURE END LIST*
D10*
X142637092Y-85007833D02*
X143589473Y-85007833D01*
X146837092Y-85057833D02*
X147789473Y-85057833D01*
X147313282Y-85534023D02*
X147313282Y-84581642D01*
D11*
X157120476Y-80023855D02*
X157120476Y-80671474D01*
X157120476Y-80671474D02*
X157158571Y-80747664D01*
X157158571Y-80747664D02*
X157196666Y-80785760D01*
X157196666Y-80785760D02*
X157272857Y-80823855D01*
X157272857Y-80823855D02*
X157425238Y-80823855D01*
X157425238Y-80823855D02*
X157501428Y-80785760D01*
X157501428Y-80785760D02*
X157539523Y-80747664D01*
X157539523Y-80747664D02*
X157577619Y-80671474D01*
X157577619Y-80671474D02*
X157577619Y-80023855D01*
X158377618Y-80823855D02*
X157920475Y-80823855D01*
X158149047Y-80823855D02*
X158149047Y-80023855D01*
X158149047Y-80023855D02*
X158072856Y-80138140D01*
X158072856Y-80138140D02*
X157996666Y-80214331D01*
X157996666Y-80214331D02*
X157920475Y-80252426D01*
X145263333Y-114043855D02*
X145263333Y-114615283D01*
X145263333Y-114615283D02*
X145225238Y-114729569D01*
X145225238Y-114729569D02*
X145149047Y-114805760D01*
X145149047Y-114805760D02*
X145034762Y-114843855D01*
X145034762Y-114843855D02*
X144958571Y-114843855D01*
X145606190Y-114120045D02*
X145644286Y-114081950D01*
X145644286Y-114081950D02*
X145720476Y-114043855D01*
X145720476Y-114043855D02*
X145910952Y-114043855D01*
X145910952Y-114043855D02*
X145987143Y-114081950D01*
X145987143Y-114081950D02*
X146025238Y-114120045D01*
X146025238Y-114120045D02*
X146063333Y-114196236D01*
X146063333Y-114196236D02*
X146063333Y-114272426D01*
X146063333Y-114272426D02*
X146025238Y-114386712D01*
X146025238Y-114386712D02*
X145568095Y-114843855D01*
X145568095Y-114843855D02*
X146063333Y-114843855D01*
X136271804Y-103683855D02*
X136424185Y-103683855D01*
X136424185Y-103683855D02*
X136500375Y-103721950D01*
X136500375Y-103721950D02*
X136576566Y-103798140D01*
X136576566Y-103798140D02*
X136614661Y-103950521D01*
X136614661Y-103950521D02*
X136614661Y-104217188D01*
X136614661Y-104217188D02*
X136576566Y-104369569D01*
X136576566Y-104369569D02*
X136500375Y-104445760D01*
X136500375Y-104445760D02*
X136424185Y-104483855D01*
X136424185Y-104483855D02*
X136271804Y-104483855D01*
X136271804Y-104483855D02*
X136195613Y-104445760D01*
X136195613Y-104445760D02*
X136119423Y-104369569D01*
X136119423Y-104369569D02*
X136081327Y-104217188D01*
X136081327Y-104217188D02*
X136081327Y-103950521D01*
X136081327Y-103950521D02*
X136119423Y-103798140D01*
X136119423Y-103798140D02*
X136195613Y-103721950D01*
X136195613Y-103721950D02*
X136271804Y-103683855D01*
X136919422Y-104445760D02*
X137033708Y-104483855D01*
X137033708Y-104483855D02*
X137224184Y-104483855D01*
X137224184Y-104483855D02*
X137300375Y-104445760D01*
X137300375Y-104445760D02*
X137338470Y-104407664D01*
X137338470Y-104407664D02*
X137376565Y-104331474D01*
X137376565Y-104331474D02*
X137376565Y-104255283D01*
X137376565Y-104255283D02*
X137338470Y-104179093D01*
X137338470Y-104179093D02*
X137300375Y-104140998D01*
X137300375Y-104140998D02*
X137224184Y-104102902D01*
X137224184Y-104102902D02*
X137071803Y-104064807D01*
X137071803Y-104064807D02*
X136995613Y-104026712D01*
X136995613Y-104026712D02*
X136957518Y-103988617D01*
X136957518Y-103988617D02*
X136919422Y-103912426D01*
X136919422Y-103912426D02*
X136919422Y-103836236D01*
X136919422Y-103836236D02*
X136957518Y-103760045D01*
X136957518Y-103760045D02*
X136995613Y-103721950D01*
X136995613Y-103721950D02*
X137071803Y-103683855D01*
X137071803Y-103683855D02*
X137262280Y-103683855D01*
X137262280Y-103683855D02*
X137376565Y-103721950D01*
X138176566Y-104407664D02*
X138138470Y-104445760D01*
X138138470Y-104445760D02*
X138024185Y-104483855D01*
X138024185Y-104483855D02*
X137947994Y-104483855D01*
X137947994Y-104483855D02*
X137833708Y-104445760D01*
X137833708Y-104445760D02*
X137757518Y-104369569D01*
X137757518Y-104369569D02*
X137719423Y-104293379D01*
X137719423Y-104293379D02*
X137681327Y-104140998D01*
X137681327Y-104140998D02*
X137681327Y-104026712D01*
X137681327Y-104026712D02*
X137719423Y-103874331D01*
X137719423Y-103874331D02*
X137757518Y-103798140D01*
X137757518Y-103798140D02*
X137833708Y-103721950D01*
X137833708Y-103721950D02*
X137947994Y-103683855D01*
X137947994Y-103683855D02*
X138024185Y-103683855D01*
X138024185Y-103683855D02*
X138138470Y-103721950D01*
X138138470Y-103721950D02*
X138176566Y-103760045D01*
X138519423Y-104483855D02*
X138519423Y-103683855D01*
X138900375Y-103950521D02*
X138900375Y-104483855D01*
X138900375Y-104026712D02*
X138938470Y-103988617D01*
X138938470Y-103988617D02*
X139014660Y-103950521D01*
X139014660Y-103950521D02*
X139128946Y-103950521D01*
X139128946Y-103950521D02*
X139205137Y-103988617D01*
X139205137Y-103988617D02*
X139243232Y-104064807D01*
X139243232Y-104064807D02*
X139243232Y-104483855D01*
D12*
X153949999Y-95014895D02*
X153949999Y-95205371D01*
X153759523Y-95129180D02*
X153949999Y-95205371D01*
X153949999Y-95205371D02*
X154140476Y-95129180D01*
X153835714Y-95357752D02*
X153949999Y-95205371D01*
X153949999Y-95205371D02*
X154064285Y-95357752D01*
D11*
X159860476Y-94103855D02*
X159860476Y-94751474D01*
X159860476Y-94751474D02*
X159898571Y-94827664D01*
X159898571Y-94827664D02*
X159936666Y-94865760D01*
X159936666Y-94865760D02*
X160012857Y-94903855D01*
X160012857Y-94903855D02*
X160165238Y-94903855D01*
X160165238Y-94903855D02*
X160241428Y-94865760D01*
X160241428Y-94865760D02*
X160279523Y-94827664D01*
X160279523Y-94827664D02*
X160317619Y-94751474D01*
X160317619Y-94751474D02*
X160317619Y-94103855D01*
X160660475Y-94180045D02*
X160698571Y-94141950D01*
X160698571Y-94141950D02*
X160774761Y-94103855D01*
X160774761Y-94103855D02*
X160965237Y-94103855D01*
X160965237Y-94103855D02*
X161041428Y-94141950D01*
X161041428Y-94141950D02*
X161079523Y-94180045D01*
X161079523Y-94180045D02*
X161117618Y-94256236D01*
X161117618Y-94256236D02*
X161117618Y-94332426D01*
X161117618Y-94332426D02*
X161079523Y-94446712D01*
X161079523Y-94446712D02*
X160622380Y-94903855D01*
X160622380Y-94903855D02*
X161117618Y-94903855D01*
X141213333Y-83573855D02*
X141213333Y-84145283D01*
X141213333Y-84145283D02*
X141175238Y-84259569D01*
X141175238Y-84259569D02*
X141099047Y-84335760D01*
X141099047Y-84335760D02*
X140984762Y-84373855D01*
X140984762Y-84373855D02*
X140908571Y-84373855D01*
X142013333Y-84373855D02*
X141556190Y-84373855D01*
X141784762Y-84373855D02*
X141784762Y-83573855D01*
X141784762Y-83573855D02*
X141708571Y-83688140D01*
X141708571Y-83688140D02*
X141632381Y-83764331D01*
X141632381Y-83764331D02*
X141556190Y-83802426D01*
X179350375Y-104133855D02*
X178969423Y-104133855D01*
X178969423Y-104133855D02*
X178969423Y-103333855D01*
X179769423Y-103333855D02*
X179921804Y-103333855D01*
X179921804Y-103333855D02*
X179997994Y-103371950D01*
X179997994Y-103371950D02*
X180074185Y-103448140D01*
X180074185Y-103448140D02*
X180112280Y-103600521D01*
X180112280Y-103600521D02*
X180112280Y-103867188D01*
X180112280Y-103867188D02*
X180074185Y-104019569D01*
X180074185Y-104019569D02*
X179997994Y-104095760D01*
X179997994Y-104095760D02*
X179921804Y-104133855D01*
X179921804Y-104133855D02*
X179769423Y-104133855D01*
X179769423Y-104133855D02*
X179693232Y-104095760D01*
X179693232Y-104095760D02*
X179617042Y-104019569D01*
X179617042Y-104019569D02*
X179578946Y-103867188D01*
X179578946Y-103867188D02*
X179578946Y-103600521D01*
X179578946Y-103600521D02*
X179617042Y-103448140D01*
X179617042Y-103448140D02*
X179693232Y-103371950D01*
X179693232Y-103371950D02*
X179769423Y-103333855D01*
X180264661Y-104210045D02*
X180874184Y-104210045D01*
X181217042Y-103333855D02*
X181369423Y-103333855D01*
X181369423Y-103333855D02*
X181445613Y-103371950D01*
X181445613Y-103371950D02*
X181521804Y-103448140D01*
X181521804Y-103448140D02*
X181559899Y-103600521D01*
X181559899Y-103600521D02*
X181559899Y-103867188D01*
X181559899Y-103867188D02*
X181521804Y-104019569D01*
X181521804Y-104019569D02*
X181445613Y-104095760D01*
X181445613Y-104095760D02*
X181369423Y-104133855D01*
X181369423Y-104133855D02*
X181217042Y-104133855D01*
X181217042Y-104133855D02*
X181140851Y-104095760D01*
X181140851Y-104095760D02*
X181064661Y-104019569D01*
X181064661Y-104019569D02*
X181026565Y-103867188D01*
X181026565Y-103867188D02*
X181026565Y-103600521D01*
X181026565Y-103600521D02*
X181064661Y-103448140D01*
X181064661Y-103448140D02*
X181140851Y-103371950D01*
X181140851Y-103371950D02*
X181217042Y-103333855D01*
X181902756Y-103333855D02*
X181902756Y-103981474D01*
X181902756Y-103981474D02*
X181940851Y-104057664D01*
X181940851Y-104057664D02*
X181978946Y-104095760D01*
X181978946Y-104095760D02*
X182055137Y-104133855D01*
X182055137Y-104133855D02*
X182207518Y-104133855D01*
X182207518Y-104133855D02*
X182283708Y-104095760D01*
X182283708Y-104095760D02*
X182321803Y-104057664D01*
X182321803Y-104057664D02*
X182359899Y-103981474D01*
X182359899Y-103981474D02*
X182359899Y-103333855D01*
X182626565Y-103333855D02*
X183083708Y-103333855D01*
X182855136Y-104133855D02*
X182855136Y-103333855D01*
X183159899Y-104210045D02*
X183769422Y-104210045D01*
X184226565Y-103714807D02*
X184340851Y-103752902D01*
X184340851Y-103752902D02*
X184378946Y-103790998D01*
X184378946Y-103790998D02*
X184417042Y-103867188D01*
X184417042Y-103867188D02*
X184417042Y-103981474D01*
X184417042Y-103981474D02*
X184378946Y-104057664D01*
X184378946Y-104057664D02*
X184340851Y-104095760D01*
X184340851Y-104095760D02*
X184264661Y-104133855D01*
X184264661Y-104133855D02*
X183959899Y-104133855D01*
X183959899Y-104133855D02*
X183959899Y-103333855D01*
X183959899Y-103333855D02*
X184226565Y-103333855D01*
X184226565Y-103333855D02*
X184302756Y-103371950D01*
X184302756Y-103371950D02*
X184340851Y-103410045D01*
X184340851Y-103410045D02*
X184378946Y-103486236D01*
X184378946Y-103486236D02*
X184378946Y-103562426D01*
X184378946Y-103562426D02*
X184340851Y-103638617D01*
X184340851Y-103638617D02*
X184302756Y-103676712D01*
X184302756Y-103676712D02*
X184226565Y-103714807D01*
X184226565Y-103714807D02*
X183959899Y-103714807D01*
X179380375Y-92293855D02*
X178999423Y-92293855D01*
X178999423Y-92293855D02*
X178999423Y-91493855D01*
X179799423Y-91493855D02*
X179951804Y-91493855D01*
X179951804Y-91493855D02*
X180027994Y-91531950D01*
X180027994Y-91531950D02*
X180104185Y-91608140D01*
X180104185Y-91608140D02*
X180142280Y-91760521D01*
X180142280Y-91760521D02*
X180142280Y-92027188D01*
X180142280Y-92027188D02*
X180104185Y-92179569D01*
X180104185Y-92179569D02*
X180027994Y-92255760D01*
X180027994Y-92255760D02*
X179951804Y-92293855D01*
X179951804Y-92293855D02*
X179799423Y-92293855D01*
X179799423Y-92293855D02*
X179723232Y-92255760D01*
X179723232Y-92255760D02*
X179647042Y-92179569D01*
X179647042Y-92179569D02*
X179608946Y-92027188D01*
X179608946Y-92027188D02*
X179608946Y-91760521D01*
X179608946Y-91760521D02*
X179647042Y-91608140D01*
X179647042Y-91608140D02*
X179723232Y-91531950D01*
X179723232Y-91531950D02*
X179799423Y-91493855D01*
X180294661Y-92370045D02*
X180904184Y-92370045D01*
X181247042Y-91493855D02*
X181399423Y-91493855D01*
X181399423Y-91493855D02*
X181475613Y-91531950D01*
X181475613Y-91531950D02*
X181551804Y-91608140D01*
X181551804Y-91608140D02*
X181589899Y-91760521D01*
X181589899Y-91760521D02*
X181589899Y-92027188D01*
X181589899Y-92027188D02*
X181551804Y-92179569D01*
X181551804Y-92179569D02*
X181475613Y-92255760D01*
X181475613Y-92255760D02*
X181399423Y-92293855D01*
X181399423Y-92293855D02*
X181247042Y-92293855D01*
X181247042Y-92293855D02*
X181170851Y-92255760D01*
X181170851Y-92255760D02*
X181094661Y-92179569D01*
X181094661Y-92179569D02*
X181056565Y-92027188D01*
X181056565Y-92027188D02*
X181056565Y-91760521D01*
X181056565Y-91760521D02*
X181094661Y-91608140D01*
X181094661Y-91608140D02*
X181170851Y-91531950D01*
X181170851Y-91531950D02*
X181247042Y-91493855D01*
X181932756Y-91493855D02*
X181932756Y-92141474D01*
X181932756Y-92141474D02*
X181970851Y-92217664D01*
X181970851Y-92217664D02*
X182008946Y-92255760D01*
X182008946Y-92255760D02*
X182085137Y-92293855D01*
X182085137Y-92293855D02*
X182237518Y-92293855D01*
X182237518Y-92293855D02*
X182313708Y-92255760D01*
X182313708Y-92255760D02*
X182351803Y-92217664D01*
X182351803Y-92217664D02*
X182389899Y-92141474D01*
X182389899Y-92141474D02*
X182389899Y-91493855D01*
X182656565Y-91493855D02*
X183113708Y-91493855D01*
X182885136Y-92293855D02*
X182885136Y-91493855D01*
X183189899Y-92370045D02*
X183799422Y-92370045D01*
X183951803Y-92065283D02*
X184332756Y-92065283D01*
X183875613Y-92293855D02*
X184142280Y-91493855D01*
X184142280Y-91493855D02*
X184408946Y-92293855D01*
%TO.C,C40*%
X151149420Y-95830000D02*
X151430580Y-95830000D01*
X151149420Y-96850000D02*
X151430580Y-96850000D01*
%TO.C,C39*%
X162340772Y-93032064D02*
X162141963Y-93230873D01*
X163062021Y-93753313D02*
X162863212Y-93952122D01*
%TO.C,C15*%
X169751800Y-80913181D02*
X169751800Y-80632019D01*
X170771800Y-80913181D02*
X170771800Y-80632019D01*
%TO.C,R13*%
X163030518Y-99379165D02*
X162813237Y-99161884D01*
X163567917Y-98841764D02*
X163350636Y-98624483D01*
%TO.C,C42*%
X158814000Y-92474420D02*
X158814000Y-92755580D01*
X159834000Y-92474420D02*
X159834000Y-92755580D01*
%TO.C,R28*%
X146936001Y-101890157D02*
X146936001Y-102197439D01*
X147696001Y-101890157D02*
X147696001Y-102197439D01*
%TO.C,R16*%
X151277501Y-106337742D02*
X151277500Y-106812258D01*
X152322500Y-106337742D02*
X152322499Y-106812258D01*
%TO.C,C9*%
X173959999Y-97932164D02*
X173960000Y-98147834D01*
X174679998Y-97932166D02*
X174679999Y-98147836D01*
%TO.C,C25*%
X168413820Y-89482200D02*
X168694979Y-89482200D01*
X168413821Y-90502200D02*
X168694980Y-90502200D01*
%TO.C,R11*%
X159673226Y-104339372D02*
X159890507Y-104122092D01*
X160210625Y-104876772D02*
X160427906Y-104659492D01*
%TO.C,C20*%
X165282035Y-100372799D02*
X165066366Y-100372800D01*
X165282036Y-99652800D02*
X165066367Y-99652801D01*
%TO.C,C14*%
X167719800Y-80913181D02*
X167719800Y-80632019D01*
X168739800Y-80913181D02*
X168739800Y-80632019D01*
%TO.C,C30*%
X156290000Y-102835764D02*
X156290000Y-103051435D01*
X157010000Y-102835765D02*
X157010000Y-103051436D01*
%TO.C,C33*%
X150644570Y-102481781D02*
X150843381Y-102282970D01*
X151365819Y-103203030D02*
X151564630Y-103004219D01*
%TO.C,R15*%
X168050000Y-102473642D02*
X168050000Y-102166360D01*
X168810000Y-102473642D02*
X168810000Y-102166360D01*
%TO.C,R14*%
X166981201Y-103188558D02*
X166981201Y-103495840D01*
X167741201Y-103188558D02*
X167741201Y-103495840D01*
%TO.C,R3*%
X160232800Y-81313241D02*
X160232800Y-81005959D01*
X160992800Y-81313241D02*
X160992800Y-81005959D01*
%TO.C,R6*%
X162673844Y-104098541D02*
X162456563Y-103881260D01*
X163211245Y-103561140D02*
X162993964Y-103343859D01*
%TO.C,C10*%
X176170001Y-96213431D02*
X176170002Y-95997766D01*
X176889998Y-96213434D02*
X176889999Y-95997769D01*
%TO.C,R2*%
X151520258Y-84823999D02*
X151045742Y-84823999D01*
X151520258Y-85868999D02*
X151045742Y-85868999D01*
%TO.C,C3*%
X161252800Y-82263237D02*
X161252800Y-82047565D01*
X161972800Y-82263237D02*
X161972800Y-82047565D01*
%TO.C,C21*%
X160899998Y-102192164D02*
X160899999Y-102407836D01*
X161620001Y-102192164D02*
X161620002Y-102407836D01*
%TO.C,R20*%
X152957257Y-109007500D02*
X152482743Y-109007500D01*
X152957257Y-110052500D02*
X152482743Y-110052500D01*
%TO.C,C2*%
X153928400Y-83922219D02*
X153928400Y-84203381D01*
X154948400Y-83922219D02*
X154948400Y-84203381D01*
%TO.C,C4*%
X161852800Y-84594019D02*
X161852800Y-84875181D01*
X162872800Y-84594019D02*
X162872800Y-84875181D01*
%TO.C,U1*%
D13*
X157485599Y-81045798D02*
X157135600Y-81045798D01*
X157485599Y-83945803D02*
X157135600Y-83945803D01*
X159735600Y-81045798D02*
X159385601Y-81045798D01*
X159735600Y-83945803D02*
X158810601Y-83945798D01*
%TO.C,R9*%
D11*
X152122659Y-103089940D02*
X152339940Y-102872659D01*
X152660060Y-103627341D02*
X152877341Y-103410060D01*
%TO.C,Q1*%
D14*
X149929100Y-80977700D02*
X149929100Y-82067360D01*
X149929100Y-83240840D02*
X149929100Y-84330500D01*
X149929100Y-84330500D02*
X151986500Y-84330500D01*
X151986500Y-80977700D02*
X149929100Y-80977700D01*
X151986500Y-83019860D02*
X151986500Y-82288340D01*
X153447000Y-83606600D02*
G75*
G02*
X153294600Y-83606600I-76200J0D01*
G01*
X153294600Y-83606600D02*
G75*
G02*
X153447000Y-83606600I76200J0D01*
G01*
%TO.C,C22*%
D11*
X168426821Y-84300600D02*
X168707980Y-84300600D01*
X168426822Y-85320600D02*
X168707981Y-85320600D01*
%TO.C,J2*%
X145310000Y-118140000D02*
X145310001Y-116760000D01*
X146690000Y-118139999D02*
X145310000Y-118140000D01*
X147960000Y-115380000D02*
X160770000Y-115380000D01*
X147960000Y-118140000D02*
X147960000Y-115380000D01*
X147960000Y-118140000D02*
X160770000Y-118140000D01*
X160770000Y-118140000D02*
X160770000Y-115380000D01*
%TO.C,C27*%
X154219353Y-93099062D02*
X154066850Y-92946558D01*
X154728470Y-92589944D02*
X154575967Y-92437440D01*
%TO.C,R17*%
X158301517Y-109048483D02*
X158084236Y-109265764D01*
X158838918Y-109585884D02*
X158621637Y-109803165D01*
%TO.C,C41*%
X163463780Y-94157063D02*
X163264970Y-94355873D01*
X164185030Y-94878311D02*
X163986220Y-95077121D01*
%TO.C,XTAL1*%
D14*
X141163301Y-91378040D02*
X141163301Y-94446360D01*
X141163301Y-96531700D02*
X146421101Y-96531700D01*
X146421101Y-89292700D02*
X141163301Y-89292700D01*
X146421101Y-94446360D02*
X146421101Y-91378040D01*
X140863801Y-89292200D02*
G75*
G02*
X140660601Y-89292200I-101600J0D01*
G01*
X140660601Y-89292200D02*
G75*
G02*
X140863801Y-89292200I101600J0D01*
G01*
%TO.C,R26*%
D11*
X147666560Y-100132200D02*
X147973842Y-100132200D01*
X147666560Y-100892200D02*
X147973842Y-100892200D01*
%TO.C,R7*%
X153641533Y-91104325D02*
X153858814Y-91321605D01*
X154178934Y-90566925D02*
X154396215Y-90784205D01*
%TO.C,C43*%
X143990581Y-87890000D02*
X143709419Y-87890000D01*
X143990581Y-88910000D02*
X143709419Y-88910000D01*
%TO.C,C19*%
X165284635Y-101388799D02*
X165068966Y-101388800D01*
X165284636Y-100668800D02*
X165068967Y-100668801D01*
%TO.C,C28*%
X164219189Y-95471692D02*
X164371693Y-95319190D01*
X164728307Y-95980810D02*
X164880811Y-95828308D01*
%TO.C,R25*%
X147666560Y-99082200D02*
X147973842Y-99082200D01*
X147666560Y-99842200D02*
X147973842Y-99842200D01*
%TO.C,R24*%
X143376359Y-99080000D02*
X143683641Y-99080000D01*
X143376359Y-99840000D02*
X143683641Y-99840000D01*
%TO.C,R8*%
X166214940Y-94872660D02*
X165997659Y-95089940D01*
X166752341Y-95410060D02*
X166535060Y-95627340D01*
%TO.C,C8*%
X170950001Y-97183434D02*
X170950000Y-96967764D01*
X171670000Y-97183436D02*
X171669999Y-96967766D01*
%TO.C,R30*%
X157887258Y-113677500D02*
X157412742Y-113677500D01*
X157887258Y-114722500D02*
X157412742Y-114722500D01*
%TO.C,C36*%
X155766000Y-92474420D02*
X155766000Y-92755580D01*
X156786000Y-92474420D02*
X156786000Y-92755580D01*
%TO.C,R19*%
X151563303Y-94593429D02*
X151227769Y-94257897D01*
X152302231Y-93854503D02*
X151966697Y-93518971D01*
%TO.C,C5*%
X160252800Y-84594019D02*
X160252800Y-84875181D01*
X161272800Y-84594019D02*
X161272800Y-84875181D01*
%TO.C,C47*%
X149771365Y-100150000D02*
X149987037Y-100150000D01*
X149771365Y-100870000D02*
X149987037Y-100870000D01*
%TO.C,C24*%
X168426817Y-87831201D02*
X168707976Y-87831201D01*
X168426818Y-88851201D02*
X168707977Y-88851201D01*
%TO.C,R32*%
X151242500Y-113211342D02*
X151242500Y-113685858D01*
X152287500Y-113211342D02*
X152287500Y-113685858D01*
%TO.C,R22*%
X147079701Y-91053458D02*
X147079701Y-90578942D01*
X148124701Y-91053458D02*
X148124701Y-90578942D01*
%TO.C,C17*%
X159710602Y-106595034D02*
X159710601Y-106379365D01*
X160430601Y-106595035D02*
X160430600Y-106379366D01*
%TO.C,R21*%
X139279701Y-89386942D02*
X139279701Y-89861458D01*
X140324701Y-89386942D02*
X140324701Y-89861458D01*
%TO.C,C34*%
X157290000Y-92755580D02*
X157290000Y-92474420D01*
X158310000Y-92755580D02*
X158310000Y-92474420D01*
%TO.C,C23*%
X168426221Y-85926200D02*
X168707380Y-85926200D01*
X168426222Y-86946200D02*
X168707381Y-86946200D01*
%TO.C,C16*%
X171402800Y-80900181D02*
X171402800Y-80619019D01*
X172422800Y-80900181D02*
X172422800Y-80619019D01*
%TO.C,C38*%
X152387228Y-93224068D02*
X152586038Y-93422878D01*
X153108476Y-92502818D02*
X153307286Y-92701628D01*
%TO.C,R29*%
X155277500Y-112037258D02*
X155277500Y-111562742D01*
X156322500Y-112037258D02*
X156322500Y-111562742D01*
%TO.C,C45*%
X141412164Y-99102200D02*
X141627836Y-99102200D01*
X141412164Y-99822200D02*
X141627836Y-99822200D01*
%TO.C,C1*%
X155554000Y-83922219D02*
X155554000Y-84203381D01*
X156574000Y-83922219D02*
X156574000Y-84203381D01*
%TO.C,C32*%
X157479681Y-108227719D02*
X157632184Y-108380222D01*
X157988798Y-107718602D02*
X158141301Y-107871105D01*
%TO.C,C29*%
X153030600Y-98202636D02*
X153030600Y-97986964D01*
X153750600Y-98202636D02*
X153750600Y-97986964D01*
%TO.C,C12*%
X178250965Y-108060200D02*
X178466637Y-108060200D01*
X178250965Y-108780200D02*
X178466637Y-108780200D01*
%TO.C,C26*%
X165122365Y-102472200D02*
X165338037Y-102472200D01*
X165122365Y-103192200D02*
X165338037Y-103192200D01*
%TO.C,C13*%
X166068800Y-80913181D02*
X166068800Y-80632019D01*
X167088800Y-80913181D02*
X167088800Y-80632019D01*
%TO.C,U2*%
D14*
X154356401Y-95288400D02*
X154356401Y-95778659D01*
X154356401Y-101198941D02*
X154356401Y-101689200D01*
X154356401Y-101689200D02*
X154846660Y-101689200D01*
X154846660Y-95288400D02*
X154356401Y-95288400D01*
X160266942Y-101689200D02*
X160757201Y-101689200D01*
X160757201Y-95288400D02*
X160266942Y-95288400D01*
X160757201Y-95778659D02*
X160757201Y-95288400D01*
X160757201Y-101689200D02*
X160757201Y-101198941D01*
D15*
G36*
X154029401Y-100929301D02*
G01*
X153775401Y-100929301D01*
X153775401Y-100548301D01*
X154029401Y-100548301D01*
X154029401Y-100929301D01*
G37*
G36*
X155497300Y-94961400D02*
G01*
X155116300Y-94961400D01*
X155116300Y-94707400D01*
X155497300Y-94707400D01*
X155497300Y-94961400D01*
G37*
G36*
X159997302Y-102270200D02*
G01*
X159616302Y-102270200D01*
X159616302Y-102016200D01*
X159997302Y-102016200D01*
X159997302Y-102270200D01*
G37*
G36*
X161338201Y-96429299D02*
G01*
X161084201Y-96429299D01*
X161084201Y-96048299D01*
X161338201Y-96048299D01*
X161338201Y-96429299D01*
G37*
%TO.C,J1*%
D11*
X142516798Y-84031599D02*
X142516800Y-82651601D01*
X143896801Y-84031600D02*
X142516798Y-84031599D01*
X145166798Y-84031599D02*
X145166800Y-81271601D01*
X145166798Y-84031599D02*
X147816799Y-84031601D01*
X145166800Y-81271601D02*
X147816801Y-81271600D01*
X147816799Y-84031601D02*
X147816801Y-81271600D01*
%TO.C,R5*%
X165185342Y-84301100D02*
X165659858Y-84301100D01*
X165185342Y-85346100D02*
X165659858Y-85346100D01*
%TO.C,C37*%
X154809999Y-105458419D02*
X154810001Y-105739580D01*
X155829999Y-105458420D02*
X155830001Y-105739581D01*
%TO.C,R18*%
X159507060Y-109249940D02*
X159724341Y-109032659D01*
X160044461Y-109787341D02*
X160261742Y-109570060D01*
%TO.C,C11*%
X154511800Y-81141181D02*
X154511800Y-80860019D01*
X155531800Y-81141181D02*
X155531800Y-80860019D01*
%TO.C,C44*%
X146734420Y-87890000D02*
X147015580Y-87890000D01*
X146734420Y-88910000D02*
X147015580Y-88910000D01*
%TO.C,C31*%
X153999693Y-102666190D02*
X153847189Y-102818692D01*
X154508811Y-103175308D02*
X154356307Y-103327810D01*
%TO.C,C46*%
X149772365Y-99102200D02*
X149988037Y-99102200D01*
X149772365Y-99822200D02*
X149988037Y-99822200D01*
%TO.C,C35*%
X152805000Y-106778747D02*
X152804999Y-107301253D01*
X154275001Y-106778747D02*
X154275000Y-107301253D01*
%TO.C,C18*%
X158694601Y-106590891D02*
X158694601Y-106375220D01*
X159414601Y-106590892D02*
X159414601Y-106375221D01*
%TO.C,C7*%
X178314364Y-96225600D02*
X178530036Y-96225600D01*
X178314364Y-96945600D02*
X178530036Y-96945600D01*
%TO.C,C6*%
X169360963Y-97196400D02*
X169576633Y-97196401D01*
X169360965Y-97916399D02*
X169576635Y-97916400D01*
%TO.C,R31*%
X153782500Y-113199142D02*
X153782500Y-113673658D01*
X154827500Y-113199142D02*
X154827500Y-113673658D01*
%TO.C,R27*%
X144710000Y-99816358D02*
X144710000Y-100123640D01*
X145470000Y-99816358D02*
X145470000Y-100123640D01*
%TO.C,R33*%
X148702500Y-113211342D02*
X148702500Y-113685858D01*
X149747500Y-113211342D02*
X149747500Y-113685858D01*
%TO.C,R23*%
X145840000Y-98796359D02*
X145840000Y-99103641D01*
X146600000Y-98796359D02*
X146600000Y-99103641D01*
%TO.C,R4*%
X164151300Y-82647858D02*
X164151300Y-82173342D01*
X165196300Y-82647858D02*
X165196300Y-82173342D01*
%TO.C,R12*%
X163030517Y-100605684D02*
X162813237Y-100822965D01*
X163567917Y-101143083D02*
X163350637Y-101360364D01*
%TO.C,R1*%
X162248800Y-82288241D02*
X162248800Y-81980959D01*
X163008800Y-82288241D02*
X163008800Y-81980959D01*
%TO.C,R10*%
X157909316Y-104880916D02*
X157692036Y-104663635D01*
X158446716Y-104343517D02*
X158229436Y-104126236D01*
%TD*%
%LPC*%
D15*
%TO.C,U1*%
G36*
X158235600Y-83559299D02*
G01*
X157772101Y-83559299D01*
X157772101Y-81432297D01*
X158235600Y-81432297D01*
X158235600Y-83559299D01*
G37*
G36*
X159099099Y-81902098D02*
G01*
X157772101Y-81902098D01*
X157772101Y-81432297D01*
X159099099Y-81432297D01*
X159099099Y-81902098D01*
G37*
G36*
X159099099Y-83559299D02*
G01*
X158635600Y-83559299D01*
X158635600Y-81432297D01*
X159099099Y-81432297D01*
X159099099Y-83559299D01*
G37*
G36*
X159099099Y-82689498D02*
G01*
X157772101Y-82689498D01*
X157772101Y-82302098D01*
X159099099Y-82302098D01*
X159099099Y-82689498D01*
G37*
G36*
X159099099Y-83559299D02*
G01*
X157772101Y-83559299D01*
X157772101Y-83089498D01*
X159099099Y-83089498D01*
X159099099Y-83559299D01*
G37*
%TO.C,U2*%
G36*
X156569401Y-100050900D02*
G01*
X155994701Y-100050900D01*
X155994701Y-96926700D01*
X156569401Y-96926700D01*
X156569401Y-100050900D01*
G37*
G36*
X159118901Y-97501400D02*
G01*
X155994701Y-97501400D01*
X155994701Y-96926700D01*
X159118901Y-96926700D01*
X159118901Y-97501400D01*
G37*
G36*
X159118901Y-98288800D02*
G01*
X155994701Y-98288800D01*
X155994701Y-97901400D01*
X159118901Y-97901400D01*
X159118901Y-98288800D01*
G37*
G36*
X159118901Y-99076200D02*
G01*
X155994701Y-99076200D01*
X155994701Y-98688800D01*
X159118901Y-98688800D01*
X159118901Y-99076200D01*
G37*
G36*
X159118901Y-100050900D02*
G01*
X155994701Y-100050900D01*
X155994701Y-99476200D01*
X159118901Y-99476200D01*
X159118901Y-100050900D01*
G37*
G36*
X157356801Y-100050900D02*
G01*
X156969401Y-100050900D01*
X156969401Y-96926700D01*
X157356801Y-96926700D01*
X157356801Y-100050900D01*
G37*
G36*
X158144201Y-100050900D02*
G01*
X157756801Y-100050900D01*
X157756801Y-96926700D01*
X158144201Y-96926700D01*
X158144201Y-100050900D01*
G37*
G36*
X159118901Y-100050900D02*
G01*
X158544201Y-100050900D01*
X158544201Y-96926700D01*
X159118901Y-96926700D01*
X159118901Y-100050900D01*
G37*
%TD*%
D16*
%TO.C,C40*%
X150515000Y-96340000D03*
X152065000Y-96340000D03*
%TD*%
D17*
%TO.C,C39*%
X163150000Y-92944085D03*
X162053984Y-94040101D03*
%TD*%
D18*
%TO.C,C15*%
X170261800Y-81547600D03*
X170261800Y-79997600D03*
%TD*%
D19*
%TO.C,R13*%
X163551201Y-99362448D03*
X162829953Y-98641200D03*
%TD*%
D20*
%TO.C,C42*%
X159324000Y-91840000D03*
X159324000Y-93390000D03*
%TD*%
D21*
%TO.C,R28*%
X147316001Y-101533798D03*
X147316001Y-102553798D03*
%TD*%
D22*
%TO.C,R16*%
X151800001Y-105750001D03*
X151799999Y-107399999D03*
%TD*%
D23*
%TO.C,C9*%
X174319999Y-97560000D03*
X174319999Y-98520000D03*
%TD*%
D24*
%TO.C,H2*%
X137100000Y-116250000D03*
X137583274Y-115083274D03*
X137583274Y-117416726D03*
X138750000Y-114600000D03*
D25*
X138750000Y-116250000D03*
D24*
X138750000Y-117900000D03*
X139916726Y-115083274D03*
X139916726Y-117416726D03*
X140400000Y-116250000D03*
%TD*%
D16*
%TO.C,C25*%
X167779400Y-89992200D03*
X169329400Y-89992200D03*
%TD*%
D26*
%TO.C,R11*%
X159689942Y-104860056D03*
X160411190Y-104138808D03*
%TD*%
D27*
%TO.C,C20*%
X165654201Y-100012800D03*
X164694201Y-100012800D03*
%TD*%
D18*
%TO.C,C14*%
X168229800Y-81547600D03*
X168229800Y-79997600D03*
%TD*%
D24*
%TO.C,H4*%
X179600000Y-116250000D03*
X180083274Y-115083274D03*
X180083274Y-117416726D03*
X181250000Y-114600000D03*
D25*
X181250000Y-116250000D03*
D24*
X181250000Y-117900000D03*
X182416726Y-115083274D03*
X182416726Y-117416726D03*
X182900000Y-116250000D03*
%TD*%
D23*
%TO.C,C30*%
X156650000Y-102463600D03*
X156650000Y-103423600D03*
%TD*%
D28*
%TO.C,C33*%
X150556592Y-103291008D03*
X151652608Y-102194992D03*
%TD*%
D29*
%TO.C,R15*%
X168430000Y-102830000D03*
X168430000Y-101810002D03*
%TD*%
D21*
%TO.C,R14*%
X167361201Y-102832200D03*
X167361201Y-103852198D03*
%TD*%
D29*
%TO.C,R3*%
X160612800Y-81669599D03*
X160612800Y-80649601D03*
%TD*%
D19*
%TO.C,R6*%
X163194528Y-104081824D03*
X162473280Y-103360576D03*
%TD*%
D30*
%TO.C,C10*%
X176530000Y-96585600D03*
X176530000Y-95625600D03*
%TD*%
D31*
%TO.C,R2*%
X152108000Y-85346499D03*
X150458000Y-85346499D03*
%TD*%
D30*
%TO.C,C3*%
X161612800Y-82635401D03*
X161612800Y-81675401D03*
%TD*%
D23*
%TO.C,C21*%
X161260000Y-101820000D03*
X161260000Y-102780000D03*
%TD*%
D31*
%TO.C,R20*%
X153545000Y-109530000D03*
X151895000Y-109530000D03*
%TD*%
D20*
%TO.C,C2*%
X154438400Y-83287800D03*
X154438400Y-84837800D03*
%TD*%
%TO.C,C4*%
X162362800Y-83959600D03*
X162362800Y-85509600D03*
%TD*%
D32*
%TO.C,U1*%
X159585600Y-83495801D03*
X159585600Y-82995800D03*
X159585600Y-82495801D03*
X159585600Y-81995802D03*
X159585600Y-81495800D03*
X157285600Y-81495800D03*
X157285600Y-81995802D03*
X157285600Y-82495801D03*
X157285600Y-82995800D03*
X157285600Y-83495801D03*
D33*
X158735600Y-83195798D03*
X158735600Y-82495798D03*
X158735600Y-81795797D03*
D34*
X158435600Y-82495798D03*
D33*
X158135600Y-83195798D03*
X158135600Y-82495798D03*
X158135600Y-81795798D03*
%TD*%
D26*
%TO.C,R9*%
X152139375Y-103610625D03*
X152860625Y-102889375D03*
%TD*%
D24*
%TO.C,H3*%
X179600000Y-81250000D03*
X180083274Y-80083274D03*
X180083274Y-82416726D03*
X181250000Y-79600000D03*
D25*
X181250000Y-81250000D03*
D24*
X181250000Y-82900000D03*
X182416726Y-80083274D03*
X182416726Y-82416726D03*
X182900000Y-81250000D03*
%TD*%
D35*
%TO.C,Q1*%
X152100800Y-83606600D03*
X152100800Y-81701600D03*
X149814800Y-82654100D03*
%TD*%
D16*
%TO.C,C22*%
X167792401Y-84810600D03*
X169342401Y-84810600D03*
%TD*%
D36*
%TO.C,J2*%
X146690000Y-116760000D03*
D37*
X149230000Y-116760000D03*
X151769999Y-116760000D03*
X154310000Y-116760000D03*
X156850000Y-116760000D03*
X159390000Y-116760000D03*
%TD*%
D38*
%TO.C,C27*%
X154737071Y-93107662D03*
X154058249Y-92428840D03*
%TD*%
D39*
%TO.C,R17*%
X158822201Y-109065200D03*
X158100953Y-109786448D03*
%TD*%
D17*
%TO.C,C41*%
X164273008Y-94069084D03*
X163176992Y-95165100D03*
%TD*%
D40*
%TO.C,XTAL1*%
X141785601Y-90372200D03*
X141785601Y-95452200D03*
X145798801Y-95452200D03*
X145798801Y-90372200D03*
%TD*%
D41*
%TO.C,R26*%
X147310201Y-100512200D03*
X148330201Y-100512200D03*
%TD*%
D42*
%TO.C,R7*%
X153658249Y-90583640D03*
X154379499Y-91304890D03*
%TD*%
D43*
%TO.C,C43*%
X144625000Y-88400000D03*
X143075000Y-88400000D03*
%TD*%
D27*
%TO.C,C19*%
X165656801Y-101028800D03*
X164696801Y-101028800D03*
%TD*%
D44*
%TO.C,C28*%
X164210589Y-95989411D03*
X164889411Y-95310589D03*
%TD*%
D41*
%TO.C,R25*%
X147310201Y-99462200D03*
X148330201Y-99462200D03*
%TD*%
%TO.C,R24*%
X143020000Y-99460000D03*
X144040000Y-99460000D03*
%TD*%
D39*
%TO.C,R8*%
X166735625Y-94889375D03*
X166014375Y-95610625D03*
%TD*%
D45*
%TO.C,L1*%
X172333999Y-97562474D03*
X173303999Y-97562474D03*
%TD*%
D30*
%TO.C,C8*%
X171310000Y-97555600D03*
X171310000Y-96595600D03*
%TD*%
D31*
%TO.C,R30*%
X158475000Y-114200000D03*
X156825000Y-114200000D03*
%TD*%
D20*
%TO.C,C36*%
X156276000Y-91840000D03*
X156276000Y-93390000D03*
%TD*%
D46*
%TO.C,R19*%
X152348362Y-94639562D03*
X151181638Y-93472838D03*
%TD*%
D20*
%TO.C,C5*%
X160762800Y-83959600D03*
X160762800Y-85509600D03*
%TD*%
D47*
%TO.C,C47*%
X149399201Y-100510000D03*
X150359201Y-100510000D03*
%TD*%
D24*
%TO.C,H1*%
X137100000Y-81250000D03*
X137583274Y-80083274D03*
X137583274Y-82416726D03*
X138750000Y-79600000D03*
D25*
X138750000Y-81250000D03*
D24*
X138750000Y-82900000D03*
X139916726Y-80083274D03*
X139916726Y-82416726D03*
X140400000Y-81250000D03*
%TD*%
D16*
%TO.C,C24*%
X167792397Y-88341201D03*
X169342397Y-88341201D03*
%TD*%
D22*
%TO.C,R32*%
X151765000Y-112623600D03*
X151765000Y-114273600D03*
%TD*%
D48*
%TO.C,R22*%
X147602201Y-91641200D03*
X147602201Y-89991200D03*
%TD*%
D30*
%TO.C,C17*%
X160070601Y-106967200D03*
X160070601Y-106007200D03*
%TD*%
D22*
%TO.C,R21*%
X139802201Y-88799200D03*
X139802201Y-90449200D03*
%TD*%
D18*
%TO.C,C34*%
X157800000Y-93390000D03*
X157800000Y-91840000D03*
%TD*%
D49*
%TO.C,L2*%
X175430000Y-97555000D03*
X175430000Y-96585000D03*
%TD*%
D16*
%TO.C,C23*%
X167791801Y-86436200D03*
X169341801Y-86436200D03*
%TD*%
D18*
%TO.C,C16*%
X171912800Y-81534600D03*
X171912800Y-79984600D03*
%TD*%
D50*
%TO.C,C38*%
X152299249Y-92414840D03*
X153395265Y-93510856D03*
%TD*%
D48*
%TO.C,R29*%
X155799999Y-112624999D03*
X155800001Y-110975001D03*
%TD*%
D47*
%TO.C,C45*%
X141040000Y-99462200D03*
X142000000Y-99462200D03*
%TD*%
D20*
%TO.C,C1*%
X156064000Y-83287800D03*
X156064000Y-84837800D03*
%TD*%
D51*
%TO.C,C32*%
X157471080Y-107710001D03*
X158149902Y-108388823D03*
%TD*%
D30*
%TO.C,C29*%
X153390600Y-98574800D03*
X153390600Y-97614800D03*
%TD*%
D47*
%TO.C,C12*%
X177878801Y-108420200D03*
X178838801Y-108420200D03*
%TD*%
D52*
%TO.C,OSCIn*%
X135442201Y-99462200D03*
D53*
X137492201Y-96762200D03*
X137492201Y-102162200D03*
%TD*%
D47*
%TO.C,C26*%
X164750201Y-102832200D03*
X165710201Y-102832200D03*
%TD*%
D18*
%TO.C,C13*%
X166578800Y-81547600D03*
X166578800Y-79997600D03*
%TD*%
D54*
%TO.C,U2*%
X154637401Y-96238799D03*
X154637401Y-96738801D03*
X154637401Y-97238800D03*
X154637401Y-97738799D03*
X154637401Y-98238800D03*
X154637401Y-98738800D03*
X154637401Y-99238801D03*
X154637401Y-99738800D03*
X154637401Y-100238799D03*
X154637401Y-100738801D03*
D55*
X155306800Y-101408200D03*
X155806802Y-101408200D03*
X156306801Y-101408200D03*
X156806800Y-101408200D03*
X157306801Y-101408200D03*
X157806801Y-101408200D03*
X158306802Y-101408200D03*
X158806801Y-101408200D03*
X159306800Y-101408200D03*
X159806802Y-101408200D03*
D54*
X160476201Y-100738801D03*
X160476201Y-100238799D03*
X160476201Y-99738800D03*
X160476201Y-99238801D03*
X160476201Y-98738800D03*
X160476201Y-98238800D03*
X160476201Y-97738799D03*
X160476201Y-97238800D03*
X160476201Y-96738801D03*
X160476201Y-96238799D03*
D55*
X159806802Y-95569400D03*
X159306800Y-95569400D03*
X158806801Y-95569400D03*
X158306802Y-95569400D03*
X157806801Y-95569400D03*
X157306801Y-95569400D03*
X156806800Y-95569400D03*
X156306801Y-95569400D03*
X155806802Y-95569400D03*
X155306800Y-95569400D03*
D56*
X156769401Y-97701400D03*
X156769401Y-98488800D03*
X156769401Y-99276200D03*
X157556801Y-97701400D03*
X157556801Y-98488800D03*
X157556801Y-99276200D03*
X158344201Y-97701400D03*
X158344201Y-98488800D03*
X158344201Y-99276200D03*
%TD*%
D36*
%TO.C,J1*%
X143896800Y-82651600D03*
D37*
X146436800Y-82651600D03*
%TD*%
D57*
%TO.C,R5*%
X164597600Y-84823600D03*
X166247600Y-84823600D03*
%TD*%
D20*
%TO.C,C37*%
X155320000Y-104824000D03*
X155320000Y-106374000D03*
%TD*%
D52*
%TO.C,LO_OUT_B*%
X184550000Y-108418200D03*
D53*
X182500000Y-111118200D03*
X182500000Y-105718200D03*
%TD*%
D26*
%TO.C,R18*%
X159523777Y-109770624D03*
X160245025Y-109049376D03*
%TD*%
D18*
%TO.C,C11*%
X155021800Y-81775600D03*
X155021800Y-80225600D03*
%TD*%
D16*
%TO.C,C44*%
X146100000Y-88400000D03*
X147650000Y-88400000D03*
%TD*%
D58*
%TO.C,C31*%
X154517411Y-102657589D03*
X153838589Y-103336411D03*
%TD*%
D47*
%TO.C,C46*%
X149400201Y-99462200D03*
X150360201Y-99462200D03*
%TD*%
D59*
%TO.C,C35*%
X153540001Y-106090000D03*
X153539999Y-107990000D03*
%TD*%
D30*
%TO.C,C18*%
X159054601Y-106963056D03*
X159054601Y-106003056D03*
%TD*%
D47*
%TO.C,C7*%
X177942200Y-96585600D03*
X178902200Y-96585600D03*
%TD*%
%TO.C,C6*%
X168988799Y-97556400D03*
X169948799Y-97556400D03*
%TD*%
D22*
%TO.C,R31*%
X154305000Y-112611400D03*
X154305000Y-114261400D03*
%TD*%
D21*
%TO.C,R27*%
X145090000Y-99460000D03*
X145090000Y-100479998D03*
%TD*%
D52*
%TO.C,LO_OUT_A*%
X184545798Y-96585600D03*
D53*
X182495798Y-99285600D03*
X182495798Y-93885600D03*
%TD*%
D22*
%TO.C,R33*%
X149225000Y-112623600D03*
X149225000Y-114273600D03*
%TD*%
D21*
%TO.C,R23*%
X146220000Y-98440000D03*
X146220000Y-99460000D03*
%TD*%
D48*
%TO.C,R4*%
X164673800Y-83235600D03*
X164673800Y-81585600D03*
%TD*%
D39*
%TO.C,R12*%
X163551201Y-100622400D03*
X162829953Y-101343648D03*
%TD*%
D29*
%TO.C,R1*%
X162628800Y-82644599D03*
X162628800Y-81624601D03*
%TD*%
D19*
%TO.C,R10*%
X158430000Y-104864200D03*
X157708752Y-104142952D03*
%TD*%
D33*
X151800000Y-104750000D03*
X157800000Y-94550000D03*
X158500000Y-113100000D03*
X152800000Y-112600000D03*
X156900000Y-112600000D03*
X149500000Y-111600000D03*
%LPD*%
M02*
