%TF.GenerationSoftware,KiCad,Pcbnew,10.0.4*%
%TF.CreationDate,2026-08-22T00:56:11+02:00*%
%TF.ProjectId,LO_PCB,4c4f5f50-4342-42e6-9b69-6361645f7063,rev?*%
%TF.SameCoordinates,Original*%
%TF.FileFunction,Drillmap*%
%TF.FilePolarity,Positive*%
%FSLAX45Y45*%
G04 Gerber Fmt 4.5, Leading zero omitted, Abs format (unit mm)*
G04 Created by KiCad (PCBNEW 10.0.4) date 2026-08-22 00:56:11*
%MOMM*%
%LPD*%
G01*
G04 APERTURE LIST*
%ADD10C,0.050000*%
%ADD11C,0.200000*%
%ADD12C,0.100000*%
%ADD13C,0.220000*%
G04 APERTURE END LIST*
D10*
X13500000Y-7675000D02*
X18500000Y-7675000D01*
X18500000Y-12075000D01*
X13500000Y-12075000D01*
X13500000Y-7675000D01*
D11*
D12*
X13575000Y-9820000D02*
X13605000Y-9850000D01*
X13605000Y-9820000D02*
X13575000Y-9850000D01*
X13575000Y-10040000D02*
X13605000Y-10070000D01*
X13605000Y-10040000D02*
X13575000Y-10070000D01*
X13585000Y-9660000D02*
X13615000Y-9690000D01*
X13615000Y-9660000D02*
X13585000Y-9690000D01*
X13595000Y-10205000D02*
X13625000Y-10235000D01*
X13625000Y-10205000D02*
X13595000Y-10235000D01*
X13610000Y-7785000D02*
X13640000Y-7815000D01*
X13640000Y-7785000D02*
X13610000Y-7815000D01*
X13610000Y-7935000D02*
X13640000Y-7965000D01*
X13640000Y-7935000D02*
X13610000Y-7965000D01*
X13610000Y-8085000D02*
X13640000Y-8115000D01*
X13640000Y-8085000D02*
X13610000Y-8115000D01*
X13610000Y-8235000D02*
X13640000Y-8265000D01*
X13640000Y-8235000D02*
X13610000Y-8265000D01*
X13610000Y-8385000D02*
X13640000Y-8415000D01*
X13640000Y-8385000D02*
X13610000Y-8415000D01*
X13610000Y-8535000D02*
X13640000Y-8565000D01*
X13640000Y-8535000D02*
X13610000Y-8565000D01*
X13610000Y-8685000D02*
X13640000Y-8715000D01*
X13640000Y-8685000D02*
X13610000Y-8715000D01*
X13610000Y-8835000D02*
X13640000Y-8865000D01*
X13640000Y-8835000D02*
X13610000Y-8865000D01*
X13610000Y-8985000D02*
X13640000Y-9015000D01*
X13640000Y-8985000D02*
X13610000Y-9015000D01*
X13610000Y-9135000D02*
X13640000Y-9165000D01*
X13640000Y-9135000D02*
X13610000Y-9165000D01*
X13610000Y-9285000D02*
X13640000Y-9315000D01*
X13640000Y-9285000D02*
X13610000Y-9315000D01*
X13610000Y-9435000D02*
X13640000Y-9465000D01*
X13640000Y-9435000D02*
X13610000Y-9465000D01*
X13610000Y-10385000D02*
X13640000Y-10415000D01*
X13640000Y-10385000D02*
X13610000Y-10415000D01*
X13610000Y-10535000D02*
X13640000Y-10565000D01*
X13640000Y-10535000D02*
X13610000Y-10565000D01*
X13610000Y-10685000D02*
X13640000Y-10715000D01*
X13640000Y-10685000D02*
X13610000Y-10715000D01*
X13610000Y-10835000D02*
X13640000Y-10865000D01*
X13640000Y-10835000D02*
X13610000Y-10865000D01*
X13610000Y-10985000D02*
X13640000Y-11015000D01*
X13640000Y-10985000D02*
X13610000Y-11015000D01*
X13610000Y-11135000D02*
X13640000Y-11165000D01*
X13640000Y-11135000D02*
X13610000Y-11165000D01*
X13610000Y-11285000D02*
X13640000Y-11315000D01*
X13640000Y-11285000D02*
X13610000Y-11315000D01*
X13610000Y-11435000D02*
X13640000Y-11465000D01*
X13640000Y-11435000D02*
X13610000Y-11465000D01*
X13610000Y-11585000D02*
X13640000Y-11615000D01*
X13640000Y-11585000D02*
X13610000Y-11615000D01*
X13610000Y-11709000D02*
X13640000Y-11739000D01*
X13640000Y-11709000D02*
X13610000Y-11739000D01*
X13610000Y-11823000D02*
X13640000Y-11853000D01*
X13640000Y-11823000D02*
X13610000Y-11853000D01*
X13610000Y-11935000D02*
X13640000Y-11965000D01*
X13640000Y-11935000D02*
X13610000Y-11965000D01*
X13665000Y-9842715D02*
X13695000Y-9872715D01*
X13695000Y-9842715D02*
X13665000Y-9872715D01*
X13665000Y-10018000D02*
X13695000Y-10048000D01*
X13695000Y-10018000D02*
X13665000Y-10048000D01*
X13750000Y-9864175D02*
X13780000Y-9894175D01*
X13780000Y-9864175D02*
X13750000Y-9894175D01*
X13750000Y-9998265D02*
X13780000Y-10028265D01*
X13780000Y-9998265D02*
X13750000Y-10028265D01*
X13755000Y-8515000D02*
X13785000Y-8545000D01*
X13785000Y-8515000D02*
X13755000Y-8545000D01*
X13755000Y-8745000D02*
X13785000Y-8775000D01*
X13785000Y-8745000D02*
X13755000Y-8775000D01*
X13755000Y-8975000D02*
X13785000Y-9005000D01*
X13785000Y-8975000D02*
X13755000Y-9005000D01*
X13755000Y-9205000D02*
X13785000Y-9235000D01*
X13785000Y-9205000D02*
X13755000Y-9235000D01*
X13755000Y-9435000D02*
X13785000Y-9465000D01*
X13785000Y-9435000D02*
X13755000Y-9465000D01*
X13755000Y-9660000D02*
X13785000Y-9690000D01*
X13785000Y-9660000D02*
X13755000Y-9690000D01*
X13760000Y-7785000D02*
X13790000Y-7815000D01*
X13790000Y-7785000D02*
X13760000Y-7815000D01*
X13760000Y-11935000D02*
X13790000Y-11965000D01*
X13790000Y-11935000D02*
X13760000Y-11965000D01*
X13765000Y-10205000D02*
X13795000Y-10235000D01*
X13795000Y-10205000D02*
X13765000Y-10235000D01*
X13775000Y-10385000D02*
X13805000Y-10415000D01*
X13805000Y-10385000D02*
X13775000Y-10415000D01*
X13775000Y-10615000D02*
X13805000Y-10645000D01*
X13805000Y-10615000D02*
X13775000Y-10645000D01*
X13775000Y-10845000D02*
X13805000Y-10875000D01*
X13805000Y-10845000D02*
X13775000Y-10875000D01*
X13775000Y-11075000D02*
X13805000Y-11105000D01*
X13805000Y-11075000D02*
X13775000Y-11105000D01*
X13775000Y-11305000D02*
X13805000Y-11335000D01*
X13805000Y-11305000D02*
X13775000Y-11335000D01*
X13850000Y-9864175D02*
X13880000Y-9894175D01*
X13880000Y-9864175D02*
X13850000Y-9894175D01*
X13850000Y-9998265D02*
X13880000Y-10028265D01*
X13880000Y-9998265D02*
X13850000Y-10028265D01*
X13885000Y-8640000D02*
X13915000Y-8670000D01*
X13915000Y-8640000D02*
X13885000Y-8670000D01*
X13910000Y-7785000D02*
X13940000Y-7815000D01*
X13940000Y-7785000D02*
X13910000Y-7815000D01*
X13910000Y-11935000D02*
X13940000Y-11965000D01*
X13940000Y-11935000D02*
X13910000Y-11965000D01*
X13917635Y-8352365D02*
X13947635Y-8382365D01*
X13947635Y-8352365D02*
X13917635Y-8382365D01*
X13920000Y-9660000D02*
X13950000Y-9690000D01*
X13950000Y-9660000D02*
X13920000Y-9690000D01*
X13930000Y-8975000D02*
X13960000Y-9005000D01*
X13960000Y-8975000D02*
X13930000Y-9005000D01*
X13930000Y-9205000D02*
X13960000Y-9235000D01*
X13960000Y-9205000D02*
X13930000Y-9235000D01*
X13930000Y-9435000D02*
X13960000Y-9465000D01*
X13960000Y-9435000D02*
X13930000Y-9465000D01*
X13930000Y-10205000D02*
X13960000Y-10235000D01*
X13960000Y-10205000D02*
X13930000Y-10235000D01*
X13950000Y-9864175D02*
X13980000Y-9894175D01*
X13980000Y-9864175D02*
X13950000Y-9894175D01*
X13950000Y-9998265D02*
X13980000Y-10028265D01*
X13980000Y-9998265D02*
X13950000Y-10028265D01*
X13985000Y-10615000D02*
X14015000Y-10645000D01*
X14015000Y-10615000D02*
X13985000Y-10645000D01*
X13985000Y-10845000D02*
X14015000Y-10875000D01*
X14015000Y-10845000D02*
X13985000Y-10875000D01*
X13985000Y-11075000D02*
X14015000Y-11105000D01*
X14015000Y-11075000D02*
X13985000Y-11105000D01*
X13985000Y-11305000D02*
X14015000Y-11335000D01*
X14015000Y-11305000D02*
X13985000Y-11335000D01*
X14005000Y-8770000D02*
X14035000Y-8800000D01*
X14035000Y-8770000D02*
X14005000Y-8800000D01*
X14047635Y-8477365D02*
X14077635Y-8507365D01*
X14077635Y-8477365D02*
X14047635Y-8507365D01*
X14060000Y-7785000D02*
X14090000Y-7815000D01*
X14090000Y-7785000D02*
X14060000Y-7815000D01*
X14060000Y-11935000D02*
X14090000Y-11965000D01*
X14090000Y-11935000D02*
X14060000Y-11965000D01*
X14063020Y-9824960D02*
X14093020Y-9854960D01*
X14093020Y-9824960D02*
X14063020Y-9854960D01*
X14063020Y-10035000D02*
X14093020Y-10065000D01*
X14093020Y-10035000D02*
X14063020Y-10065000D01*
X14095000Y-8650000D02*
X14125000Y-8680000D01*
X14125000Y-8650000D02*
X14095000Y-8680000D01*
X14100000Y-8250000D02*
X14130000Y-8280000D01*
X14130000Y-8250000D02*
X14100000Y-8280000D01*
X14140000Y-11170000D02*
X14170000Y-11200000D01*
X14170000Y-11170000D02*
X14140000Y-11200000D01*
X14145000Y-9615000D02*
X14175000Y-9645000D01*
X14175000Y-9615000D02*
X14145000Y-9645000D01*
X14145000Y-11470000D02*
X14175000Y-11500000D01*
X14175000Y-11470000D02*
X14145000Y-11500000D01*
X14145000Y-11700000D02*
X14175000Y-11730000D01*
X14175000Y-11700000D02*
X14145000Y-11730000D01*
X14193760Y-9825000D02*
X14223760Y-9855000D01*
X14223760Y-9825000D02*
X14193760Y-9855000D01*
X14193760Y-10035000D02*
X14223760Y-10065000D01*
X14223760Y-10035000D02*
X14193760Y-10065000D01*
X14205000Y-8545000D02*
X14235000Y-8575000D01*
X14235000Y-8545000D02*
X14205000Y-8575000D01*
X14210000Y-7785000D02*
X14240000Y-7815000D01*
X14240000Y-7785000D02*
X14210000Y-7815000D01*
X14210000Y-7960000D02*
X14240000Y-7990000D01*
X14240000Y-7960000D02*
X14210000Y-7990000D01*
X14210000Y-11935000D02*
X14240000Y-11965000D01*
X14240000Y-11935000D02*
X14210000Y-11965000D01*
X14215000Y-8824020D02*
X14245000Y-8854020D01*
X14245000Y-8824020D02*
X14215000Y-8854020D01*
X14235000Y-9725000D02*
X14265000Y-9755000D01*
X14265000Y-9725000D02*
X14235000Y-9755000D01*
X14252500Y-8250000D02*
X14282500Y-8280000D01*
X14282500Y-8250000D02*
X14252500Y-8280000D01*
X14292500Y-8740000D02*
X14322500Y-8770000D01*
X14322500Y-8740000D02*
X14292500Y-8770000D01*
X14304600Y-9824960D02*
X14334600Y-9854960D01*
X14334600Y-9824960D02*
X14304600Y-9854960D01*
X14304600Y-10034960D02*
X14334600Y-10064960D01*
X14334600Y-10034960D02*
X14304600Y-10064960D01*
X14305000Y-9140000D02*
X14335000Y-9170000D01*
X14335000Y-9140000D02*
X14305000Y-9170000D01*
X14305000Y-10160000D02*
X14335000Y-10190000D01*
X14335000Y-10160000D02*
X14305000Y-10190000D01*
X14305000Y-10390000D02*
X14335000Y-10420000D01*
X14335000Y-10390000D02*
X14305000Y-10420000D01*
X14305000Y-10620000D02*
X14335000Y-10650000D01*
X14335000Y-10620000D02*
X14305000Y-10650000D01*
X14305000Y-10850000D02*
X14335000Y-10880000D01*
X14335000Y-10850000D02*
X14305000Y-10880000D01*
X14310000Y-9375000D02*
X14340000Y-9405000D01*
X14340000Y-9375000D02*
X14310000Y-9405000D01*
X14310000Y-9490000D02*
X14340000Y-9520000D01*
X14340000Y-9490000D02*
X14310000Y-9520000D01*
X14310000Y-11240000D02*
X14340000Y-11270000D01*
X14340000Y-11240000D02*
X14310000Y-11270000D01*
X14310000Y-11470000D02*
X14340000Y-11500000D01*
X14340000Y-11470000D02*
X14310000Y-11500000D01*
X14310000Y-11700000D02*
X14340000Y-11730000D01*
X14340000Y-11700000D02*
X14310000Y-11730000D01*
X14320000Y-9620000D02*
X14350000Y-9650000D01*
X14350000Y-9620000D02*
X14320000Y-9650000D01*
X14345000Y-9010000D02*
X14375000Y-9040000D01*
X14375000Y-9010000D02*
X14345000Y-9040000D01*
X14360000Y-7785000D02*
X14390000Y-7815000D01*
X14390000Y-7785000D02*
X14360000Y-7815000D01*
X14360000Y-11935000D02*
X14390000Y-11965000D01*
X14390000Y-11935000D02*
X14360000Y-11965000D01*
X14372500Y-8375000D02*
X14402500Y-8405000D01*
X14402500Y-8375000D02*
X14372500Y-8405000D01*
X14377500Y-8125000D02*
X14407500Y-8155000D01*
X14407500Y-8125000D02*
X14377500Y-8155000D01*
X14385000Y-8545000D02*
X14415000Y-8575000D01*
X14415000Y-8545000D02*
X14385000Y-8575000D01*
X14409680Y-9824960D02*
X14439680Y-9854960D01*
X14439680Y-9824960D02*
X14409680Y-9854960D01*
X14412200Y-10038320D02*
X14442200Y-10068320D01*
X14442200Y-10038320D02*
X14412200Y-10068320D01*
X14425000Y-8655000D02*
X14455000Y-8685000D01*
X14455000Y-8655000D02*
X14425000Y-8685000D01*
X14430000Y-9375000D02*
X14460000Y-9405000D01*
X14460000Y-9375000D02*
X14430000Y-9405000D01*
X14430000Y-9490000D02*
X14460000Y-9520000D01*
X14460000Y-9490000D02*
X14430000Y-9520000D01*
X14440000Y-7960000D02*
X14470000Y-7990000D01*
X14470000Y-7960000D02*
X14440000Y-7990000D01*
X14445000Y-9185000D02*
X14475000Y-9215000D01*
X14475000Y-9185000D02*
X14445000Y-9215000D01*
X14480000Y-10275000D02*
X14510000Y-10305000D01*
X14510000Y-10275000D02*
X14480000Y-10305000D01*
X14480000Y-10505000D02*
X14510000Y-10535000D01*
X14510000Y-10505000D02*
X14480000Y-10535000D01*
X14480000Y-10735000D02*
X14510000Y-10765000D01*
X14510000Y-10735000D02*
X14480000Y-10765000D01*
X14480000Y-10965000D02*
X14510000Y-10995000D01*
X14510000Y-10965000D02*
X14480000Y-10995000D01*
X14495000Y-10110000D02*
X14525000Y-10140000D01*
X14525000Y-10110000D02*
X14495000Y-10140000D01*
X14510000Y-7785000D02*
X14540000Y-7815000D01*
X14540000Y-7785000D02*
X14510000Y-7815000D01*
X14510000Y-11935000D02*
X14540000Y-11965000D01*
X14540000Y-11935000D02*
X14510000Y-11965000D01*
X14515000Y-9755000D02*
X14545000Y-9785000D01*
X14545000Y-9755000D02*
X14515000Y-9785000D01*
X14515000Y-9825000D02*
X14545000Y-9855000D01*
X14545000Y-9825000D02*
X14515000Y-9855000D01*
X14610000Y-10025000D02*
X14640000Y-10055000D01*
X14640000Y-10025000D02*
X14610000Y-10055000D01*
X14610000Y-10110000D02*
X14640000Y-10140000D01*
X14640000Y-10110000D02*
X14610000Y-10140000D01*
X14610320Y-10208420D02*
X14640320Y-10238420D01*
X14640320Y-10208420D02*
X14610320Y-10238420D01*
X14615000Y-8545000D02*
X14645000Y-8575000D01*
X14645000Y-8545000D02*
X14615000Y-8575000D01*
X14625000Y-9560000D02*
X14655000Y-9590000D01*
X14655000Y-9560000D02*
X14625000Y-9590000D01*
X14654000Y-11448000D02*
X14684000Y-11478000D01*
X14684000Y-11448000D02*
X14654000Y-11478000D01*
X14660000Y-7785000D02*
X14690000Y-7815000D01*
X14690000Y-7785000D02*
X14660000Y-7815000D01*
X14660000Y-11935000D02*
X14690000Y-11965000D01*
X14690000Y-11935000D02*
X14660000Y-11965000D01*
X14665000Y-10390000D02*
X14695000Y-10420000D01*
X14695000Y-10390000D02*
X14665000Y-10420000D01*
X14665000Y-10620000D02*
X14695000Y-10650000D01*
X14695000Y-10620000D02*
X14665000Y-10650000D01*
X14665000Y-10850000D02*
X14695000Y-10880000D01*
X14695000Y-10850000D02*
X14665000Y-10880000D01*
X14665000Y-11080000D02*
X14695000Y-11110000D01*
X14695000Y-11080000D02*
X14665000Y-11110000D01*
X14670000Y-7960000D02*
X14700000Y-7990000D01*
X14700000Y-7960000D02*
X14670000Y-7990000D01*
X14692365Y-11242635D02*
X14722365Y-11272635D01*
X14722365Y-11242635D02*
X14692365Y-11272635D01*
X14705000Y-9605000D02*
X14735000Y-9635000D01*
X14735000Y-9605000D02*
X14705000Y-9635000D01*
X14705000Y-9680000D02*
X14735000Y-9710000D01*
X14735000Y-9680000D02*
X14705000Y-9710000D01*
X14705000Y-9755000D02*
X14735000Y-9785000D01*
X14735000Y-9755000D02*
X14705000Y-9785000D01*
X14705000Y-9825000D02*
X14735000Y-9855000D01*
X14735000Y-9825000D02*
X14705000Y-9855000D01*
X14717000Y-10307000D02*
X14747000Y-10337000D01*
X14747000Y-10307000D02*
X14717000Y-10337000D01*
X14810000Y-7785000D02*
X14840000Y-7815000D01*
X14840000Y-7785000D02*
X14810000Y-7815000D01*
X14810000Y-11935000D02*
X14840000Y-11965000D01*
X14840000Y-11935000D02*
X14810000Y-11965000D01*
X14824680Y-10209420D02*
X14854680Y-10239420D01*
X14854680Y-10209420D02*
X14824680Y-10239420D01*
X14825000Y-9825000D02*
X14855000Y-9855000D01*
X14855000Y-9825000D02*
X14825000Y-9855000D01*
X14825000Y-10125000D02*
X14855000Y-10155000D01*
X14855000Y-10125000D02*
X14825000Y-10155000D01*
X14830000Y-8670000D02*
X14860000Y-8700000D01*
X14860000Y-8670000D02*
X14830000Y-8700000D01*
X14830000Y-8825000D02*
X14860000Y-8855000D01*
X14860000Y-8825000D02*
X14830000Y-8855000D01*
X14846540Y-10442180D02*
X14876540Y-10472180D01*
X14876540Y-10442180D02*
X14846540Y-10472180D01*
X14855000Y-11080000D02*
X14885000Y-11110000D01*
X14885000Y-11080000D02*
X14855000Y-11110000D01*
X14900000Y-7960000D02*
X14930000Y-7990000D01*
X14930000Y-7960000D02*
X14900000Y-7990000D01*
X14907500Y-11172500D02*
X14937500Y-11202500D01*
X14937500Y-11172500D02*
X14907500Y-11202500D01*
X14935000Y-10635000D02*
X14965000Y-10665000D01*
X14965000Y-10635000D02*
X14935000Y-10665000D01*
X14935000Y-10805000D02*
X14965000Y-10835000D01*
X14965000Y-10805000D02*
X14935000Y-10835000D01*
X14940520Y-9730980D02*
X14970520Y-9760980D01*
X14970520Y-9730980D02*
X14940520Y-9760980D01*
X14942500Y-8460000D02*
X14972500Y-8490000D01*
X14972500Y-8460000D02*
X14942500Y-8490000D01*
X14945000Y-8535000D02*
X14975000Y-8565000D01*
X14975000Y-8535000D02*
X14945000Y-8565000D01*
X14960000Y-7785000D02*
X14990000Y-7815000D01*
X14990000Y-7785000D02*
X14960000Y-7815000D01*
X14960000Y-9195000D02*
X14990000Y-9225000D01*
X14990000Y-9195000D02*
X14960000Y-9225000D01*
X14960000Y-9330000D02*
X14990000Y-9360000D01*
X14990000Y-9330000D02*
X14960000Y-9360000D01*
X14960000Y-9445000D02*
X14990000Y-9475000D01*
X14990000Y-9445000D02*
X14960000Y-9475000D01*
X14960000Y-9620000D02*
X14990000Y-9650000D01*
X14990000Y-9620000D02*
X14960000Y-9650000D01*
X14960000Y-11935000D02*
X14990000Y-11965000D01*
X14990000Y-11935000D02*
X14960000Y-11965000D01*
X14975000Y-10380000D02*
X15005000Y-10410000D01*
X15005000Y-10380000D02*
X14975000Y-10410000D01*
X15000000Y-10225000D02*
X15030000Y-10255000D01*
X15030000Y-10225000D02*
X15000000Y-10255000D01*
X15005000Y-8670000D02*
X15035000Y-8700000D01*
X15035000Y-8670000D02*
X15005000Y-8700000D01*
X15005000Y-8825000D02*
X15035000Y-8855000D01*
X15035000Y-8825000D02*
X15005000Y-8855000D01*
X15007000Y-9836000D02*
X15037000Y-9866000D01*
X15037000Y-9836000D02*
X15007000Y-9866000D01*
X15021005Y-8953995D02*
X15051005Y-8983995D01*
X15051005Y-8953995D02*
X15021005Y-8983995D01*
X15030000Y-11240000D02*
X15060000Y-11270000D01*
X15060000Y-11240000D02*
X15030000Y-11270000D01*
X15030000Y-11405000D02*
X15060000Y-11435000D01*
X15060000Y-11405000D02*
X15030000Y-11435000D01*
X15034500Y-10124680D02*
X15064500Y-10154680D01*
X15064500Y-10124680D02*
X15034500Y-10154680D01*
X15035000Y-10540000D02*
X15065000Y-10570000D01*
X15065000Y-10540000D02*
X15035000Y-10570000D01*
X15035000Y-10725000D02*
X15065000Y-10755000D01*
X15065000Y-10725000D02*
X15035000Y-10755000D01*
X15045000Y-9445000D02*
X15075000Y-9475000D01*
X15075000Y-9445000D02*
X15045000Y-9475000D01*
X15045000Y-9530000D02*
X15075000Y-9560000D01*
X15075000Y-9530000D02*
X15045000Y-9560000D01*
X15047200Y-8148560D02*
X15077200Y-8178560D01*
X15077200Y-8148560D02*
X15047200Y-8178560D01*
X15047200Y-8354300D02*
X15077200Y-8384300D01*
X15077200Y-8354300D02*
X15047200Y-8384300D01*
X15093000Y-9836000D02*
X15123000Y-9866000D01*
X15123000Y-9836000D02*
X15093000Y-9866000D01*
X15095000Y-10945000D02*
X15125000Y-10975000D01*
X15125000Y-10945000D02*
X15095000Y-10975000D01*
X15110000Y-7785000D02*
X15140000Y-7815000D01*
X15140000Y-7785000D02*
X15110000Y-7815000D01*
X15110000Y-11935000D02*
X15140000Y-11965000D01*
X15140000Y-11935000D02*
X15110000Y-11965000D01*
X15120000Y-8855000D02*
X15150000Y-8885000D01*
X15150000Y-8855000D02*
X15120000Y-8885000D01*
X15130000Y-7960000D02*
X15160000Y-7990000D01*
X15160000Y-7960000D02*
X15130000Y-7990000D01*
X15160000Y-9165000D02*
X15190000Y-9195000D01*
X15190000Y-9165000D02*
X15160000Y-9195000D01*
X15165000Y-10505000D02*
X15195000Y-10535000D01*
X15195000Y-10505000D02*
X15165000Y-10535000D01*
X15175000Y-10855000D02*
X15205000Y-10885000D01*
X15205000Y-10855000D02*
X15175000Y-10885000D01*
X15175000Y-11025000D02*
X15205000Y-11055000D01*
X15205000Y-11025000D02*
X15175000Y-11055000D01*
X15184900Y-9836200D02*
X15214900Y-9866200D01*
X15214900Y-9836200D02*
X15184900Y-9866200D01*
X15190000Y-8650000D02*
X15220000Y-8680000D01*
X15220000Y-8650000D02*
X15190000Y-8680000D01*
X15245000Y-9082500D02*
X15275000Y-9112500D01*
X15275000Y-9082500D02*
X15245000Y-9112500D01*
X15260000Y-7785000D02*
X15290000Y-7815000D01*
X15290000Y-7785000D02*
X15260000Y-7815000D01*
X15260000Y-11935000D02*
X15290000Y-11965000D01*
X15290000Y-11935000D02*
X15260000Y-11965000D01*
X15262500Y-9710000D02*
X15292500Y-9740000D01*
X15292500Y-9710000D02*
X15262500Y-9740000D01*
X15265000Y-11245000D02*
X15295000Y-11275000D01*
X15295000Y-11245000D02*
X15265000Y-11275000D01*
X15275000Y-8010000D02*
X15305000Y-8040000D01*
X15305000Y-8010000D02*
X15275000Y-8040000D01*
X15290000Y-11405000D02*
X15320000Y-11435000D01*
X15320000Y-11405000D02*
X15290000Y-11435000D01*
X15317500Y-10090000D02*
X15347500Y-10120000D01*
X15347500Y-10090000D02*
X15317500Y-10120000D01*
X15324076Y-9446101D02*
X15354076Y-9476101D01*
X15354076Y-9446101D02*
X15324076Y-9476101D01*
X15327500Y-8470000D02*
X15357500Y-8500000D01*
X15357500Y-8470000D02*
X15327500Y-8500000D01*
X15330000Y-8750000D02*
X15360000Y-8780000D01*
X15360000Y-8750000D02*
X15330000Y-8780000D01*
X15335000Y-8171000D02*
X15365000Y-8201000D01*
X15365000Y-8171000D02*
X15335000Y-8201000D01*
X15341724Y-10341310D02*
X15371724Y-10371310D01*
X15371724Y-10341310D02*
X15341724Y-10371310D01*
X15345000Y-9182500D02*
X15375000Y-9212500D01*
X15375000Y-9182500D02*
X15345000Y-9212500D01*
X15355750Y-10433250D02*
X15385750Y-10463250D01*
X15385750Y-10433250D02*
X15355750Y-10463250D01*
X15400000Y-8010000D02*
X15430000Y-8040000D01*
X15430000Y-8010000D02*
X15400000Y-8040000D01*
X15405000Y-8940000D02*
X15435000Y-8970000D01*
X15435000Y-8940000D02*
X15405000Y-8970000D01*
X15410000Y-7785000D02*
X15440000Y-7815000D01*
X15440000Y-7785000D02*
X15410000Y-7815000D01*
X15410000Y-11935000D02*
X15440000Y-11965000D01*
X15440000Y-11935000D02*
X15410000Y-11965000D01*
X15430000Y-8565000D02*
X15460000Y-8595000D01*
X15460000Y-8565000D02*
X15430000Y-8595000D01*
X15445000Y-10465000D02*
X15475000Y-10495000D01*
X15475000Y-10465000D02*
X15445000Y-10495000D01*
X15461000Y-9538000D02*
X15491000Y-9568000D01*
X15491000Y-9538000D02*
X15461000Y-9568000D01*
X15485000Y-7910000D02*
X15515000Y-7940000D01*
X15515000Y-7910000D02*
X15485000Y-7940000D01*
X15515500Y-10827600D02*
X15545500Y-10857600D01*
X15545500Y-10827600D02*
X15515500Y-10857600D01*
X15520000Y-8750000D02*
X15550000Y-8780000D01*
X15550000Y-8750000D02*
X15520000Y-8780000D01*
X15529000Y-9658000D02*
X15559000Y-9688000D01*
X15559000Y-9658000D02*
X15529000Y-9688000D01*
X15530000Y-9759000D02*
X15560000Y-9789000D01*
X15560000Y-9759000D02*
X15530000Y-9789000D01*
X15532000Y-9859000D02*
X15562000Y-9889000D01*
X15562000Y-9859000D02*
X15532000Y-9889000D01*
X15545000Y-8940000D02*
X15575000Y-8970000D01*
X15575000Y-8940000D02*
X15545000Y-8970000D01*
X15550000Y-11405000D02*
X15580000Y-11435000D01*
X15580000Y-11405000D02*
X15550000Y-11435000D01*
X15560000Y-7785000D02*
X15590000Y-7815000D01*
X15590000Y-7785000D02*
X15560000Y-7815000D01*
X15560000Y-11935000D02*
X15590000Y-11965000D01*
X15590000Y-11935000D02*
X15560000Y-11965000D01*
X15575000Y-8010000D02*
X15605000Y-8040000D01*
X15605000Y-8010000D02*
X15575000Y-8040000D01*
X15592500Y-8565000D02*
X15622500Y-8595000D01*
X15622500Y-8565000D02*
X15592500Y-8595000D01*
X15593000Y-9626000D02*
X15623000Y-9656000D01*
X15623000Y-9626000D02*
X15593000Y-9656000D01*
X15612500Y-9077500D02*
X15642500Y-9107500D01*
X15642500Y-9077500D02*
X15612500Y-9107500D01*
X15630000Y-10955000D02*
X15660000Y-10985000D01*
X15660000Y-10955000D02*
X15630000Y-10985000D01*
X15637955Y-10485000D02*
X15667955Y-10515000D01*
X15667955Y-10485000D02*
X15637955Y-10515000D01*
X15637955Y-10585000D02*
X15667955Y-10615000D01*
X15667955Y-10585000D02*
X15637955Y-10615000D01*
X15637955Y-10685000D02*
X15667955Y-10715000D01*
X15667955Y-10685000D02*
X15637955Y-10715000D01*
X15640129Y-8128497D02*
X15670129Y-8158497D01*
X15670129Y-8128497D02*
X15640129Y-8158497D01*
X15641000Y-10061320D02*
X15671000Y-10091320D01*
X15671000Y-10061320D02*
X15641000Y-10091320D01*
X15645000Y-10395000D02*
X15675000Y-10425000D01*
X15675000Y-10395000D02*
X15645000Y-10425000D01*
X15675000Y-11245000D02*
X15705000Y-11275000D01*
X15705000Y-11245000D02*
X15675000Y-11275000D01*
X15685000Y-8940000D02*
X15715000Y-8970000D01*
X15715000Y-8940000D02*
X15685000Y-8970000D01*
X15685000Y-10835000D02*
X15715000Y-10865000D01*
X15715000Y-10835000D02*
X15685000Y-10865000D01*
X15690000Y-8470000D02*
X15720000Y-8500000D01*
X15720000Y-8470000D02*
X15690000Y-8500000D01*
X15695000Y-7950000D02*
X15725000Y-7980000D01*
X15725000Y-7950000D02*
X15695000Y-7980000D01*
X15710000Y-7785000D02*
X15740000Y-7815000D01*
X15740000Y-7785000D02*
X15710000Y-7815000D01*
X15710000Y-11935000D02*
X15740000Y-11965000D01*
X15740000Y-11935000D02*
X15710000Y-11965000D01*
X15715000Y-8750000D02*
X15745000Y-8780000D01*
X15745000Y-8750000D02*
X15715000Y-8780000D01*
X15715680Y-10198680D02*
X15745680Y-10228680D01*
X15745680Y-10198680D02*
X15715680Y-10228680D01*
X15729007Y-10029000D02*
X15759007Y-10059000D01*
X15759007Y-10029000D02*
X15729007Y-10059000D01*
X15740000Y-10905000D02*
X15770000Y-10935000D01*
X15770000Y-10905000D02*
X15740000Y-10935000D01*
X15740000Y-11015000D02*
X15770000Y-11045000D01*
X15770000Y-11015000D02*
X15740000Y-11045000D01*
X15740000Y-11135000D02*
X15770000Y-11165000D01*
X15770000Y-11135000D02*
X15740000Y-11165000D01*
X15765000Y-9077500D02*
X15795000Y-9107500D01*
X15795000Y-9077500D02*
X15765000Y-9107500D01*
X15765000Y-9440000D02*
X15795000Y-9470000D01*
X15795000Y-9440000D02*
X15765000Y-9470000D01*
X15775903Y-10281904D02*
X15805903Y-10311904D01*
X15805903Y-10281904D02*
X15775903Y-10311904D01*
X15777725Y-10555000D02*
X15807725Y-10585000D01*
X15807725Y-10555000D02*
X15777725Y-10585000D01*
X15777725Y-10637000D02*
X15807725Y-10667000D01*
X15807725Y-10637000D02*
X15777725Y-10667000D01*
X15785000Y-8050000D02*
X15815000Y-8080000D01*
X15815000Y-8050000D02*
X15785000Y-8080000D01*
X15785000Y-8605000D02*
X15815000Y-8635000D01*
X15815000Y-8605000D02*
X15785000Y-8635000D01*
X15790000Y-8420000D02*
X15820000Y-8450000D01*
X15820000Y-8420000D02*
X15790000Y-8450000D01*
X15797275Y-10215375D02*
X15827275Y-10245375D01*
X15827275Y-10215375D02*
X15797275Y-10245375D01*
X15815000Y-9625000D02*
X15845000Y-9655000D01*
X15845000Y-9625000D02*
X15815000Y-9655000D01*
X15825000Y-8940000D02*
X15855000Y-8970000D01*
X15855000Y-8940000D02*
X15825000Y-8970000D01*
X15832000Y-10030000D02*
X15862000Y-10060000D01*
X15862000Y-10030000D02*
X15832000Y-10060000D01*
X15850000Y-11020000D02*
X15880000Y-11050000D01*
X15880000Y-11020000D02*
X15850000Y-11050000D01*
X15860000Y-7785000D02*
X15890000Y-7815000D01*
X15890000Y-7785000D02*
X15860000Y-7815000D01*
X15860000Y-11935000D02*
X15890000Y-11965000D01*
X15890000Y-11935000D02*
X15860000Y-11965000D01*
X15865000Y-8050000D02*
X15895000Y-8080000D01*
X15895000Y-8050000D02*
X15865000Y-8080000D01*
X15870000Y-8420000D02*
X15900000Y-8450000D01*
X15900000Y-8420000D02*
X15870000Y-8450000D01*
X15880000Y-11110000D02*
X15910000Y-11140000D01*
X15910000Y-11110000D02*
X15880000Y-11140000D01*
X15890000Y-10755000D02*
X15920000Y-10785000D01*
X15920000Y-10755000D02*
X15890000Y-10785000D01*
X15891070Y-10360999D02*
X15921070Y-10390999D01*
X15921070Y-10360999D02*
X15891070Y-10390999D01*
X15905000Y-8750000D02*
X15935000Y-8780000D01*
X15935000Y-8750000D02*
X15905000Y-8780000D01*
X15917500Y-9077500D02*
X15947500Y-9107500D01*
X15947500Y-9077500D02*
X15917500Y-9107500D01*
X15920500Y-11209500D02*
X15950500Y-11239500D01*
X15950500Y-11209500D02*
X15920500Y-11239500D01*
X15925000Y-7950000D02*
X15955000Y-7980000D01*
X15955000Y-7950000D02*
X15925000Y-7980000D01*
X15925000Y-11785000D02*
X15955000Y-11815000D01*
X15955000Y-11785000D02*
X15925000Y-11815000D01*
X15926000Y-11536000D02*
X15956000Y-11566000D01*
X15956000Y-11536000D02*
X15926000Y-11566000D01*
X15929000Y-10018000D02*
X15959000Y-10048000D01*
X15959000Y-10018000D02*
X15929000Y-10048000D01*
X15943000Y-9628000D02*
X15973000Y-9658000D01*
X15973000Y-9628000D02*
X15943000Y-9658000D01*
X15945000Y-9835000D02*
X15975000Y-9865000D01*
X15975000Y-9835000D02*
X15945000Y-9865000D01*
X15945000Y-11290000D02*
X15975000Y-11320000D01*
X15975000Y-11290000D02*
X15945000Y-11320000D01*
X15950000Y-10835000D02*
X15980000Y-10865000D01*
X15980000Y-10835000D02*
X15950000Y-10865000D01*
X15956766Y-9916755D02*
X15986766Y-9946755D01*
X15986766Y-9916755D02*
X15956766Y-9946755D01*
X15962500Y-8537500D02*
X15992500Y-8567500D01*
X15992500Y-8537500D02*
X15962500Y-8567500D01*
X15965000Y-8940000D02*
X15995000Y-8970000D01*
X15995000Y-8940000D02*
X15965000Y-8970000D01*
X15984663Y-10214261D02*
X16014663Y-10244261D01*
X16014663Y-10214261D02*
X15984663Y-10244261D01*
X15991955Y-10672000D02*
X16021955Y-10702000D01*
X16021955Y-10672000D02*
X15991955Y-10702000D01*
X15992500Y-10755000D02*
X16022500Y-10785000D01*
X16022500Y-10755000D02*
X15992500Y-10785000D01*
X15994757Y-11021101D02*
X16024757Y-11051101D01*
X16024757Y-11021101D02*
X15994757Y-11051101D01*
X16005000Y-10280818D02*
X16035000Y-10310818D01*
X16035000Y-10280818D02*
X16005000Y-10310818D01*
X16007000Y-9457000D02*
X16037000Y-9487000D01*
X16037000Y-9457000D02*
X16007000Y-9487000D01*
X16010000Y-7785000D02*
X16040000Y-7815000D01*
X16040000Y-7785000D02*
X16010000Y-7815000D01*
X16010000Y-11935000D02*
X16040000Y-11965000D01*
X16040000Y-11935000D02*
X16010000Y-11965000D01*
X16035000Y-11205000D02*
X16065000Y-11235000D01*
X16065000Y-11205000D02*
X16035000Y-11235000D01*
X16040711Y-10508289D02*
X16070711Y-10538289D01*
X16070711Y-10508289D02*
X16040711Y-10538289D01*
X16045000Y-7985000D02*
X16075000Y-8015000D01*
X16075000Y-7985000D02*
X16045000Y-8015000D01*
X16047000Y-11665000D02*
X16077000Y-11695000D01*
X16077000Y-11665000D02*
X16047000Y-11695000D01*
X16060000Y-8632500D02*
X16090000Y-8662500D01*
X16090000Y-8632500D02*
X16060000Y-8662500D01*
X16060000Y-9015000D02*
X16090000Y-9045000D01*
X16090000Y-9015000D02*
X16060000Y-9045000D01*
X16060000Y-9145000D02*
X16090000Y-9175000D01*
X16090000Y-9145000D02*
X16060000Y-9175000D01*
X16060000Y-9275000D02*
X16090000Y-9305000D01*
X16090000Y-9275000D02*
X16060000Y-9305000D01*
X16060000Y-10835000D02*
X16090000Y-10865000D01*
X16090000Y-10835000D02*
X16060000Y-10865000D01*
X16065000Y-10945000D02*
X16095000Y-10975000D01*
X16095000Y-10945000D02*
X16065000Y-10975000D01*
X16078023Y-10341438D02*
X16108023Y-10371438D01*
X16108023Y-10341438D02*
X16078023Y-10371438D01*
X16095000Y-8750000D02*
X16125000Y-8780000D01*
X16125000Y-8750000D02*
X16095000Y-8780000D01*
X16108211Y-10575789D02*
X16138211Y-10605789D01*
X16138211Y-10575789D02*
X16108211Y-10605789D01*
X16120000Y-11125000D02*
X16150000Y-11155000D01*
X16150000Y-11125000D02*
X16120000Y-11155000D01*
X16120000Y-11380000D02*
X16150000Y-11410000D01*
X16150000Y-11380000D02*
X16120000Y-11410000D01*
X16129506Y-10079845D02*
X16159506Y-10109845D01*
X16159506Y-10079845D02*
X16129506Y-10109845D01*
X16129971Y-9887928D02*
X16159971Y-9917928D01*
X16159971Y-9887928D02*
X16129971Y-9917928D01*
X16132027Y-10409973D02*
X16162027Y-10439973D01*
X16162027Y-10409973D02*
X16132027Y-10439973D01*
X16160000Y-7785000D02*
X16190000Y-7815000D01*
X16190000Y-7785000D02*
X16160000Y-7815000D01*
X16160000Y-11935000D02*
X16190000Y-11965000D01*
X16190000Y-11935000D02*
X16160000Y-11965000D01*
X16178211Y-10645789D02*
X16208211Y-10675789D01*
X16208211Y-10645789D02*
X16178211Y-10675789D01*
X16190000Y-7950000D02*
X16220000Y-7980000D01*
X16220000Y-7950000D02*
X16190000Y-7980000D01*
X16195000Y-10900000D02*
X16225000Y-10930000D01*
X16225000Y-10900000D02*
X16195000Y-10930000D01*
X16195000Y-11020000D02*
X16225000Y-11050000D01*
X16225000Y-11020000D02*
X16195000Y-11050000D01*
X16200000Y-11550000D02*
X16230000Y-11580000D01*
X16230000Y-11550000D02*
X16200000Y-11580000D01*
X16200000Y-11775000D02*
X16230000Y-11805000D01*
X16230000Y-11775000D02*
X16200000Y-11805000D01*
X16200360Y-9799560D02*
X16230360Y-9829560D01*
X16230360Y-9799560D02*
X16200360Y-9829560D01*
X16200527Y-10478473D02*
X16230527Y-10508473D01*
X16230527Y-10478473D02*
X16200527Y-10508473D01*
X16208696Y-10169684D02*
X16238696Y-10199684D01*
X16238696Y-10169684D02*
X16208696Y-10199684D01*
X16216000Y-9198000D02*
X16246000Y-9228000D01*
X16246000Y-9198000D02*
X16216000Y-9228000D01*
X16220000Y-8632500D02*
X16250000Y-8662500D01*
X16250000Y-8632500D02*
X16220000Y-8662500D01*
X16229000Y-9983945D02*
X16259000Y-10013945D01*
X16259000Y-9983945D02*
X16229000Y-10013945D01*
X16251211Y-10718789D02*
X16281211Y-10748789D01*
X16281211Y-10718789D02*
X16251211Y-10748789D01*
X16272527Y-10550473D02*
X16302527Y-10580473D01*
X16302527Y-10550473D02*
X16272527Y-10580473D01*
X16284633Y-10232367D02*
X16314633Y-10262367D01*
X16314633Y-10232367D02*
X16284633Y-10262367D01*
X16292000Y-9729000D02*
X16322000Y-9759000D01*
X16322000Y-9729000D02*
X16292000Y-9759000D01*
X16305000Y-8895000D02*
X16335000Y-8925000D01*
X16335000Y-8895000D02*
X16305000Y-8925000D01*
X16305000Y-9075000D02*
X16335000Y-9105000D01*
X16335000Y-9075000D02*
X16305000Y-9105000D01*
X16310000Y-7785000D02*
X16340000Y-7815000D01*
X16340000Y-7785000D02*
X16310000Y-7815000D01*
X16310000Y-11185000D02*
X16340000Y-11215000D01*
X16340000Y-11185000D02*
X16310000Y-11215000D01*
X16310000Y-11380000D02*
X16340000Y-11410000D01*
X16340000Y-11380000D02*
X16310000Y-11410000D01*
X16310000Y-11935000D02*
X16340000Y-11965000D01*
X16340000Y-11935000D02*
X16310000Y-11965000D01*
X16344027Y-10621973D02*
X16374027Y-10651973D01*
X16374027Y-10621973D02*
X16344027Y-10651973D01*
X16345000Y-8745000D02*
X16375000Y-8775000D01*
X16375000Y-8745000D02*
X16345000Y-8775000D01*
X16348500Y-9200500D02*
X16378500Y-9230500D01*
X16378500Y-9200500D02*
X16348500Y-9230500D01*
X16349707Y-10297440D02*
X16379707Y-10327440D01*
X16379707Y-10297440D02*
X16349707Y-10327440D01*
X16370540Y-9680180D02*
X16400540Y-9710180D01*
X16400540Y-9680180D02*
X16370540Y-9710180D01*
X16371311Y-10831524D02*
X16401311Y-10861524D01*
X16401311Y-10831524D02*
X16371311Y-10861524D01*
X16389264Y-9824000D02*
X16419264Y-9854000D01*
X16419264Y-9824000D02*
X16389264Y-9854000D01*
X16395000Y-10480000D02*
X16425000Y-10510000D01*
X16425000Y-10480000D02*
X16395000Y-10510000D01*
X16418000Y-10945000D02*
X16448000Y-10975000D01*
X16448000Y-10945000D02*
X16418000Y-10975000D01*
X16420000Y-7950000D02*
X16450000Y-7980000D01*
X16450000Y-7950000D02*
X16420000Y-7980000D01*
X16420000Y-11055000D02*
X16450000Y-11085000D01*
X16450000Y-11055000D02*
X16420000Y-11085000D01*
X16425000Y-10170000D02*
X16455000Y-10200000D01*
X16455000Y-10170000D02*
X16425000Y-10200000D01*
X16430000Y-11550000D02*
X16460000Y-11580000D01*
X16460000Y-11550000D02*
X16430000Y-11580000D01*
X16430000Y-11775000D02*
X16460000Y-11805000D01*
X16460000Y-11775000D02*
X16430000Y-11805000D01*
X16436620Y-10704963D02*
X16466620Y-10734963D01*
X16466620Y-10704963D02*
X16436620Y-10734963D01*
X16445000Y-8625000D02*
X16475000Y-8655000D01*
X16475000Y-8625000D02*
X16445000Y-8655000D01*
X16445000Y-8895000D02*
X16475000Y-8925000D01*
X16475000Y-8895000D02*
X16445000Y-8925000D01*
X16445000Y-9075000D02*
X16475000Y-9105000D01*
X16475000Y-9075000D02*
X16445000Y-9105000D01*
X16445000Y-10375000D02*
X16475000Y-10405000D01*
X16475000Y-10375000D02*
X16445000Y-10405000D01*
X16460000Y-7785000D02*
X16490000Y-7815000D01*
X16490000Y-7785000D02*
X16460000Y-7815000D01*
X16460000Y-11935000D02*
X16490000Y-11965000D01*
X16490000Y-11935000D02*
X16460000Y-11965000D01*
X16463500Y-9310500D02*
X16493500Y-9340500D01*
X16493500Y-9310500D02*
X16463500Y-9340500D01*
X16472500Y-9917500D02*
X16502500Y-9947500D01*
X16502500Y-9917500D02*
X16472500Y-9947500D01*
X16480000Y-9672915D02*
X16510000Y-9702915D01*
X16510000Y-9672915D02*
X16480000Y-9702915D01*
X16480000Y-9809000D02*
X16510000Y-9839000D01*
X16510000Y-9809000D02*
X16480000Y-9839000D01*
X16485692Y-10874355D02*
X16515692Y-10904355D01*
X16515692Y-10874355D02*
X16485692Y-10904355D01*
X16495000Y-9449040D02*
X16525000Y-9479040D01*
X16525000Y-9449040D02*
X16495000Y-9479040D01*
X16517955Y-10743971D02*
X16547955Y-10773971D01*
X16547955Y-10743971D02*
X16517955Y-10773971D01*
X16525000Y-9185000D02*
X16555000Y-9215000D01*
X16555000Y-9185000D02*
X16525000Y-9215000D01*
X16540000Y-11185000D02*
X16570000Y-11215000D01*
X16570000Y-11185000D02*
X16540000Y-11215000D01*
X16540000Y-11380000D02*
X16570000Y-11410000D01*
X16570000Y-11380000D02*
X16540000Y-11410000D01*
X16545000Y-7982500D02*
X16575000Y-8012500D01*
X16575000Y-7982500D02*
X16545000Y-8012500D01*
X16550000Y-10180000D02*
X16580000Y-10210000D01*
X16580000Y-10180000D02*
X16550000Y-10210000D01*
X16550000Y-10375000D02*
X16580000Y-10405000D01*
X16580000Y-10375000D02*
X16550000Y-10405000D01*
X16580000Y-9672915D02*
X16610000Y-9702915D01*
X16610000Y-9672915D02*
X16580000Y-9702915D01*
X16580000Y-9809000D02*
X16610000Y-9839000D01*
X16610000Y-9809000D02*
X16580000Y-9839000D01*
X16585000Y-8625000D02*
X16615000Y-8655000D01*
X16615000Y-8625000D02*
X16585000Y-8655000D01*
X16585000Y-8745000D02*
X16615000Y-8775000D01*
X16615000Y-8745000D02*
X16585000Y-8775000D01*
X16585000Y-8895000D02*
X16615000Y-8925000D01*
X16615000Y-8895000D02*
X16585000Y-8925000D01*
X16585000Y-9075000D02*
X16615000Y-9105000D01*
X16615000Y-9075000D02*
X16585000Y-9105000D01*
X16610000Y-7785000D02*
X16640000Y-7815000D01*
X16640000Y-7785000D02*
X16610000Y-7815000D01*
X16610000Y-11935000D02*
X16640000Y-11965000D01*
X16640000Y-11935000D02*
X16610000Y-11965000D01*
X16612000Y-10007000D02*
X16642000Y-10037000D01*
X16642000Y-10007000D02*
X16612000Y-10037000D01*
X16612000Y-10089000D02*
X16642000Y-10119000D01*
X16642000Y-10089000D02*
X16612000Y-10119000D01*
X16615000Y-8300000D02*
X16645000Y-8330000D01*
X16645000Y-8300000D02*
X16615000Y-8330000D01*
X16642500Y-7902500D02*
X16672500Y-7932500D01*
X16672500Y-7902500D02*
X16642500Y-7932500D01*
X16650000Y-10180000D02*
X16680000Y-10210000D01*
X16680000Y-10180000D02*
X16650000Y-10210000D01*
X16650000Y-10370000D02*
X16680000Y-10400000D01*
X16680000Y-10370000D02*
X16650000Y-10400000D01*
X16650000Y-11055000D02*
X16680000Y-11085000D01*
X16680000Y-11055000D02*
X16650000Y-11085000D01*
X16653000Y-10756924D02*
X16683000Y-10786924D01*
X16683000Y-10756924D02*
X16653000Y-10786924D01*
X16653000Y-10896000D02*
X16683000Y-10926000D01*
X16683000Y-10896000D02*
X16653000Y-10926000D01*
X16660000Y-11550000D02*
X16690000Y-11580000D01*
X16690000Y-11550000D02*
X16660000Y-11580000D01*
X16660000Y-11775000D02*
X16690000Y-11805000D01*
X16690000Y-11775000D02*
X16660000Y-11805000D01*
X16660000Y-9160000D02*
X16690000Y-9190000D01*
X16690000Y-9160000D02*
X16660000Y-9190000D01*
X16660000Y-9300000D02*
X16690000Y-9330000D01*
X16690000Y-9300000D02*
X16660000Y-9330000D01*
X16680000Y-9672915D02*
X16710000Y-9702915D01*
X16710000Y-9672915D02*
X16680000Y-9702915D01*
X16680000Y-9809000D02*
X16710000Y-9839000D01*
X16710000Y-9809000D02*
X16680000Y-9839000D01*
X16721000Y-10434000D02*
X16751000Y-10464000D01*
X16751000Y-10434000D02*
X16721000Y-10464000D01*
X16725000Y-9565000D02*
X16755000Y-9595000D01*
X16755000Y-9565000D02*
X16725000Y-9595000D01*
X16753000Y-10757000D02*
X16783000Y-10787000D01*
X16783000Y-10757000D02*
X16753000Y-10787000D01*
X16753000Y-10895000D02*
X16783000Y-10925000D01*
X16783000Y-10895000D02*
X16753000Y-10925000D01*
X16756000Y-10166000D02*
X16786000Y-10196000D01*
X16786000Y-10166000D02*
X16756000Y-10196000D01*
X16760000Y-7785000D02*
X16790000Y-7815000D01*
X16790000Y-7785000D02*
X16760000Y-7815000D01*
X16760000Y-8300000D02*
X16790000Y-8330000D01*
X16790000Y-8300000D02*
X16760000Y-8330000D01*
X16760000Y-10015000D02*
X16790000Y-10045000D01*
X16790000Y-10015000D02*
X16760000Y-10045000D01*
X16760000Y-11935000D02*
X16790000Y-11965000D01*
X16790000Y-11935000D02*
X16760000Y-11965000D01*
X16770000Y-11185000D02*
X16800000Y-11215000D01*
X16800000Y-11185000D02*
X16770000Y-11215000D01*
X16770000Y-11380000D02*
X16800000Y-11410000D01*
X16800000Y-11380000D02*
X16770000Y-11410000D01*
X16775000Y-10645000D02*
X16805000Y-10675000D01*
X16805000Y-10645000D02*
X16775000Y-10675000D01*
X16780000Y-9672595D02*
X16810000Y-9702595D01*
X16810000Y-9672595D02*
X16780000Y-9702595D01*
X16780000Y-9809000D02*
X16810000Y-9839000D01*
X16810000Y-9809000D02*
X16780000Y-9839000D01*
X16793000Y-10371000D02*
X16823000Y-10401000D01*
X16823000Y-10371000D02*
X16793000Y-10401000D01*
X16807500Y-7905000D02*
X16837500Y-7935000D01*
X16837500Y-7905000D02*
X16807500Y-7935000D01*
X16825000Y-9470000D02*
X16855000Y-9500000D01*
X16855000Y-9470000D02*
X16825000Y-9500000D01*
X16828000Y-10100000D02*
X16858000Y-10130000D01*
X16858000Y-10100000D02*
X16828000Y-10130000D01*
X16853000Y-10757000D02*
X16883000Y-10787000D01*
X16883000Y-10757000D02*
X16853000Y-10787000D01*
X16853000Y-10895000D02*
X16883000Y-10925000D01*
X16883000Y-10895000D02*
X16853000Y-10925000D01*
X16860240Y-9625000D02*
X16890240Y-9655000D01*
X16890240Y-9625000D02*
X16860240Y-9655000D01*
X16860240Y-9855440D02*
X16890240Y-9885440D01*
X16890240Y-9855440D02*
X16860240Y-9885440D01*
X16875000Y-9255000D02*
X16905000Y-9285000D01*
X16905000Y-9255000D02*
X16875000Y-9285000D01*
X16880000Y-11055000D02*
X16910000Y-11085000D01*
X16910000Y-11055000D02*
X16880000Y-11085000D01*
X16890000Y-11550000D02*
X16920000Y-11580000D01*
X16920000Y-11550000D02*
X16890000Y-11580000D01*
X16890000Y-11775000D02*
X16920000Y-11805000D01*
X16920000Y-11775000D02*
X16890000Y-11805000D01*
X16899000Y-10166000D02*
X16929000Y-10196000D01*
X16929000Y-10166000D02*
X16899000Y-10196000D01*
X16910000Y-7785000D02*
X16940000Y-7815000D01*
X16940000Y-7785000D02*
X16910000Y-7815000D01*
X16910000Y-11935000D02*
X16940000Y-11965000D01*
X16940000Y-11935000D02*
X16910000Y-11965000D01*
X16918000Y-9085000D02*
X16948000Y-9115000D01*
X16948000Y-9085000D02*
X16918000Y-9115000D01*
X16920000Y-8368000D02*
X16950000Y-8398000D01*
X16950000Y-8368000D02*
X16920000Y-8398000D01*
X16945000Y-9430000D02*
X16975000Y-9460000D01*
X16975000Y-9430000D02*
X16945000Y-9460000D01*
X16953000Y-10757000D02*
X16983000Y-10787000D01*
X16983000Y-10757000D02*
X16953000Y-10787000D01*
X16953000Y-10895000D02*
X16983000Y-10925000D01*
X16983000Y-10895000D02*
X16953000Y-10925000D01*
X17000000Y-11185000D02*
X17030000Y-11215000D01*
X17030000Y-11185000D02*
X17000000Y-11215000D01*
X17000000Y-11380000D02*
X17030000Y-11410000D01*
X17030000Y-11380000D02*
X17000000Y-11410000D01*
X17005000Y-9155000D02*
X17035000Y-9185000D01*
X17035000Y-9155000D02*
X17005000Y-9185000D01*
X17005000Y-10645000D02*
X17035000Y-10675000D01*
X17035000Y-10645000D02*
X17005000Y-10675000D01*
X17009000Y-8984000D02*
X17039000Y-9014000D01*
X17039000Y-8984000D02*
X17009000Y-9014000D01*
X17012000Y-8819000D02*
X17042000Y-8849000D01*
X17042000Y-8819000D02*
X17012000Y-8849000D01*
X17012500Y-7902500D02*
X17042500Y-7932500D01*
X17042500Y-7902500D02*
X17012500Y-7932500D01*
X17013000Y-8466000D02*
X17043000Y-8496000D01*
X17043000Y-8466000D02*
X17013000Y-8496000D01*
X17014000Y-8629000D02*
X17044000Y-8659000D01*
X17044000Y-8629000D02*
X17014000Y-8659000D01*
X17020320Y-9625000D02*
X17050320Y-9655000D01*
X17050320Y-9625000D02*
X17020320Y-9655000D01*
X17020320Y-9855000D02*
X17050320Y-9885000D01*
X17050320Y-9855000D02*
X17020320Y-9885000D01*
X17045000Y-8305000D02*
X17075000Y-8335000D01*
X17075000Y-8305000D02*
X17045000Y-8335000D01*
X17053000Y-10757000D02*
X17083000Y-10787000D01*
X17083000Y-10757000D02*
X17053000Y-10787000D01*
X17053000Y-10895000D02*
X17083000Y-10925000D01*
X17083000Y-10895000D02*
X17053000Y-10925000D01*
X17060000Y-7785000D02*
X17090000Y-7815000D01*
X17090000Y-7785000D02*
X17060000Y-7815000D01*
X17060000Y-11935000D02*
X17090000Y-11965000D01*
X17090000Y-11935000D02*
X17060000Y-11965000D01*
X17090000Y-8725000D02*
X17120000Y-8755000D01*
X17120000Y-8725000D02*
X17090000Y-8755000D01*
X17090000Y-8910000D02*
X17120000Y-8940000D01*
X17120000Y-8910000D02*
X17090000Y-8940000D01*
X17100000Y-9445000D02*
X17130000Y-9475000D01*
X17130000Y-9445000D02*
X17100000Y-9475000D01*
X17110000Y-11055000D02*
X17140000Y-11085000D01*
X17140000Y-11055000D02*
X17110000Y-11085000D01*
X17117500Y-9565000D02*
X17147500Y-9595000D01*
X17147500Y-9565000D02*
X17117500Y-9595000D01*
X17117500Y-9855000D02*
X17147500Y-9885000D01*
X17147500Y-9855000D02*
X17117500Y-9885000D01*
X17120000Y-11550000D02*
X17150000Y-11580000D01*
X17150000Y-11550000D02*
X17120000Y-11580000D01*
X17120000Y-11775000D02*
X17150000Y-11805000D01*
X17150000Y-11775000D02*
X17120000Y-11805000D01*
X17125000Y-10035000D02*
X17155000Y-10065000D01*
X17155000Y-10035000D02*
X17125000Y-10065000D01*
X17125000Y-10330000D02*
X17155000Y-10360000D01*
X17155000Y-10330000D02*
X17125000Y-10360000D01*
X17125000Y-10490000D02*
X17155000Y-10520000D01*
X17155000Y-10490000D02*
X17125000Y-10520000D01*
X17153000Y-10757000D02*
X17183000Y-10787000D01*
X17183000Y-10757000D02*
X17153000Y-10787000D01*
X17153000Y-10895000D02*
X17183000Y-10925000D01*
X17183000Y-10895000D02*
X17153000Y-10925000D01*
X17175000Y-7902500D02*
X17205000Y-7932500D01*
X17205000Y-7902500D02*
X17175000Y-7932500D01*
X17205000Y-9350000D02*
X17235000Y-9380000D01*
X17235000Y-9350000D02*
X17205000Y-9380000D01*
X17210000Y-7785000D02*
X17240000Y-7815000D01*
X17240000Y-7785000D02*
X17210000Y-7815000D01*
X17210000Y-11935000D02*
X17240000Y-11965000D01*
X17240000Y-11935000D02*
X17210000Y-11965000D01*
X17212500Y-9625000D02*
X17242500Y-9655000D01*
X17242500Y-9625000D02*
X17212500Y-9655000D01*
X17212500Y-9855000D02*
X17242500Y-9885000D01*
X17242500Y-9855000D02*
X17212500Y-9885000D01*
X17230000Y-11185000D02*
X17260000Y-11215000D01*
X17260000Y-11185000D02*
X17230000Y-11215000D01*
X17230000Y-11380000D02*
X17260000Y-11410000D01*
X17260000Y-11380000D02*
X17230000Y-11410000D01*
X17235000Y-10645000D02*
X17265000Y-10675000D01*
X17265000Y-10645000D02*
X17235000Y-10675000D01*
X17240000Y-10190000D02*
X17270000Y-10220000D01*
X17270000Y-10190000D02*
X17240000Y-10220000D01*
X17253000Y-10757000D02*
X17283000Y-10787000D01*
X17283000Y-10757000D02*
X17253000Y-10787000D01*
X17253000Y-10895000D02*
X17283000Y-10925000D01*
X17283000Y-10895000D02*
X17253000Y-10925000D01*
X17270000Y-7982500D02*
X17300000Y-8012500D01*
X17300000Y-7982500D02*
X17270000Y-8012500D01*
X17310000Y-8305000D02*
X17340000Y-8335000D01*
X17340000Y-8305000D02*
X17310000Y-8335000D01*
X17310000Y-8535000D02*
X17340000Y-8565000D01*
X17340000Y-8535000D02*
X17310000Y-8565000D01*
X17310000Y-8765000D02*
X17340000Y-8795000D01*
X17340000Y-8765000D02*
X17310000Y-8795000D01*
X17310000Y-8995000D02*
X17340000Y-9025000D01*
X17340000Y-8995000D02*
X17310000Y-9025000D01*
X17310000Y-9225000D02*
X17340000Y-9255000D01*
X17340000Y-9225000D02*
X17310000Y-9255000D01*
X17310000Y-9445000D02*
X17340000Y-9475000D01*
X17340000Y-9445000D02*
X17310000Y-9475000D01*
X17310000Y-9625000D02*
X17340000Y-9655000D01*
X17340000Y-9625000D02*
X17310000Y-9655000D01*
X17310000Y-9855000D02*
X17340000Y-9885000D01*
X17340000Y-9855000D02*
X17310000Y-9885000D01*
X17340000Y-11055000D02*
X17370000Y-11085000D01*
X17370000Y-11055000D02*
X17340000Y-11085000D01*
X17350000Y-11550000D02*
X17380000Y-11580000D01*
X17380000Y-11550000D02*
X17350000Y-11580000D01*
X17350000Y-11775000D02*
X17380000Y-11805000D01*
X17380000Y-11775000D02*
X17350000Y-11805000D01*
X17353000Y-10757000D02*
X17383000Y-10787000D01*
X17383000Y-10757000D02*
X17353000Y-10787000D01*
X17353000Y-10895000D02*
X17383000Y-10925000D01*
X17383000Y-10895000D02*
X17353000Y-10925000D01*
X17355000Y-10035000D02*
X17385000Y-10065000D01*
X17385000Y-10035000D02*
X17355000Y-10065000D01*
X17355000Y-10330000D02*
X17385000Y-10360000D01*
X17385000Y-10330000D02*
X17355000Y-10360000D01*
X17355000Y-10490000D02*
X17385000Y-10520000D01*
X17385000Y-10490000D02*
X17355000Y-10520000D01*
X17360000Y-7785000D02*
X17390000Y-7815000D01*
X17390000Y-7785000D02*
X17360000Y-7815000D01*
X17360000Y-11935000D02*
X17390000Y-11965000D01*
X17390000Y-11935000D02*
X17360000Y-11965000D01*
X17415000Y-9350000D02*
X17445000Y-9380000D01*
X17445000Y-9350000D02*
X17415000Y-9380000D01*
X17417500Y-9540000D02*
X17447500Y-9570000D01*
X17447500Y-9540000D02*
X17417500Y-9570000D01*
X17417500Y-9622500D02*
X17447500Y-9652500D01*
X17447500Y-9622500D02*
X17417500Y-9652500D01*
X17417500Y-9917500D02*
X17447500Y-9947500D01*
X17447500Y-9917500D02*
X17417500Y-9947500D01*
X17453000Y-10757000D02*
X17483000Y-10787000D01*
X17483000Y-10757000D02*
X17453000Y-10787000D01*
X17453000Y-10895000D02*
X17483000Y-10925000D01*
X17483000Y-10895000D02*
X17453000Y-10925000D01*
X17460000Y-11185000D02*
X17490000Y-11215000D01*
X17490000Y-11185000D02*
X17460000Y-11215000D01*
X17460000Y-11380000D02*
X17490000Y-11410000D01*
X17490000Y-11380000D02*
X17460000Y-11410000D01*
X17465000Y-10645000D02*
X17495000Y-10675000D01*
X17495000Y-10645000D02*
X17465000Y-10675000D01*
X17470000Y-10190000D02*
X17500000Y-10220000D01*
X17500000Y-10190000D02*
X17470000Y-10220000D01*
X17510000Y-7785000D02*
X17540000Y-7815000D01*
X17540000Y-7785000D02*
X17510000Y-7815000D01*
X17510000Y-11935000D02*
X17540000Y-11965000D01*
X17540000Y-11935000D02*
X17510000Y-11965000D01*
X17520000Y-8035000D02*
X17550000Y-8065000D01*
X17550000Y-8035000D02*
X17520000Y-8065000D01*
X17520000Y-8305000D02*
X17550000Y-8335000D01*
X17550000Y-8305000D02*
X17520000Y-8335000D01*
X17520000Y-8535000D02*
X17550000Y-8565000D01*
X17550000Y-8535000D02*
X17520000Y-8565000D01*
X17520000Y-8765000D02*
X17550000Y-8795000D01*
X17550000Y-8765000D02*
X17520000Y-8795000D01*
X17520000Y-8995000D02*
X17550000Y-9025000D01*
X17550000Y-8995000D02*
X17520000Y-9025000D01*
X17520000Y-9225000D02*
X17550000Y-9255000D01*
X17550000Y-9225000D02*
X17520000Y-9255000D01*
X17525000Y-9465000D02*
X17555000Y-9495000D01*
X17555000Y-9465000D02*
X17525000Y-9495000D01*
X17525000Y-9540000D02*
X17555000Y-9570000D01*
X17555000Y-9540000D02*
X17525000Y-9570000D01*
X17525000Y-9840000D02*
X17555000Y-9870000D01*
X17555000Y-9840000D02*
X17525000Y-9870000D01*
X17553000Y-10757000D02*
X17583000Y-10787000D01*
X17583000Y-10757000D02*
X17553000Y-10787000D01*
X17553000Y-10895000D02*
X17583000Y-10925000D01*
X17583000Y-10895000D02*
X17553000Y-10925000D01*
X17570000Y-11055000D02*
X17600000Y-11085000D01*
X17600000Y-11055000D02*
X17570000Y-11085000D01*
X17580000Y-11550000D02*
X17610000Y-11580000D01*
X17610000Y-11550000D02*
X17580000Y-11580000D01*
X17580000Y-11775000D02*
X17610000Y-11805000D01*
X17610000Y-11775000D02*
X17580000Y-11805000D01*
X17585000Y-10035000D02*
X17615000Y-10065000D01*
X17615000Y-10035000D02*
X17585000Y-10065000D01*
X17585000Y-10330000D02*
X17615000Y-10360000D01*
X17615000Y-10330000D02*
X17585000Y-10360000D01*
X17585000Y-10490000D02*
X17615000Y-10520000D01*
X17615000Y-10490000D02*
X17585000Y-10520000D01*
X17637000Y-9464000D02*
X17667000Y-9494000D01*
X17667000Y-9464000D02*
X17637000Y-9494000D01*
X17637000Y-9735000D02*
X17667000Y-9765000D01*
X17667000Y-9735000D02*
X17637000Y-9765000D01*
X17637000Y-9839000D02*
X17667000Y-9869000D01*
X17667000Y-9839000D02*
X17637000Y-9869000D01*
X17640000Y-9345000D02*
X17670000Y-9375000D01*
X17670000Y-9345000D02*
X17640000Y-9375000D01*
X17653000Y-10757000D02*
X17683000Y-10787000D01*
X17683000Y-10757000D02*
X17653000Y-10787000D01*
X17653000Y-10895000D02*
X17683000Y-10925000D01*
X17683000Y-10895000D02*
X17653000Y-10925000D01*
X17660000Y-7785000D02*
X17690000Y-7815000D01*
X17690000Y-7785000D02*
X17660000Y-7815000D01*
X17660000Y-11935000D02*
X17690000Y-11965000D01*
X17690000Y-11935000D02*
X17660000Y-11965000D01*
X17690000Y-11185000D02*
X17720000Y-11215000D01*
X17720000Y-11185000D02*
X17690000Y-11215000D01*
X17690000Y-11380000D02*
X17720000Y-11410000D01*
X17720000Y-11380000D02*
X17690000Y-11410000D01*
X17695000Y-10645000D02*
X17725000Y-10675000D01*
X17725000Y-10645000D02*
X17695000Y-10675000D01*
X17700000Y-10190000D02*
X17730000Y-10220000D01*
X17730000Y-10190000D02*
X17700000Y-10220000D01*
X17730000Y-8035000D02*
X17760000Y-8065000D01*
X17760000Y-8035000D02*
X17730000Y-8065000D01*
X17730000Y-8305000D02*
X17760000Y-8335000D01*
X17760000Y-8305000D02*
X17730000Y-8335000D01*
X17730000Y-8535000D02*
X17760000Y-8565000D01*
X17760000Y-8535000D02*
X17730000Y-8565000D01*
X17730000Y-8765000D02*
X17760000Y-8795000D01*
X17760000Y-8765000D02*
X17730000Y-8795000D01*
X17730000Y-8995000D02*
X17760000Y-9025000D01*
X17760000Y-8995000D02*
X17730000Y-9025000D01*
X17730000Y-9175000D02*
X17760000Y-9205000D01*
X17760000Y-9175000D02*
X17730000Y-9205000D01*
X17743000Y-9465000D02*
X17773000Y-9495000D01*
X17773000Y-9465000D02*
X17743000Y-9495000D01*
X17743000Y-9540000D02*
X17773000Y-9570000D01*
X17773000Y-9540000D02*
X17743000Y-9570000D01*
X17743000Y-9735000D02*
X17773000Y-9765000D01*
X17773000Y-9735000D02*
X17743000Y-9765000D01*
X17765000Y-10935000D02*
X17795000Y-10965000D01*
X17795000Y-10935000D02*
X17765000Y-10965000D01*
X17765426Y-10714000D02*
X17795426Y-10744000D01*
X17795426Y-10714000D02*
X17765426Y-10744000D01*
X17785000Y-11055000D02*
X17815000Y-11085000D01*
X17815000Y-11055000D02*
X17785000Y-11085000D01*
X17810000Y-7785000D02*
X17840000Y-7815000D01*
X17840000Y-7785000D02*
X17810000Y-7815000D01*
X17810000Y-11935000D02*
X17840000Y-11965000D01*
X17840000Y-11935000D02*
X17810000Y-11965000D01*
X17810000Y-11550000D02*
X17840000Y-11580000D01*
X17840000Y-11550000D02*
X17810000Y-11580000D01*
X17810000Y-11775000D02*
X17840000Y-11805000D01*
X17840000Y-11775000D02*
X17810000Y-11805000D01*
X17815000Y-10035000D02*
X17845000Y-10065000D01*
X17845000Y-10035000D02*
X17815000Y-10065000D01*
X17815000Y-9885000D02*
X17845000Y-9915000D01*
X17845000Y-9885000D02*
X17815000Y-9915000D01*
X17815000Y-10330000D02*
X17845000Y-10360000D01*
X17845000Y-10330000D02*
X17815000Y-10360000D01*
X17815000Y-10490000D02*
X17845000Y-10520000D01*
X17845000Y-10490000D02*
X17815000Y-10520000D01*
X17850000Y-9540000D02*
X17880000Y-9570000D01*
X17880000Y-9540000D02*
X17850000Y-9570000D01*
X17850000Y-9735000D02*
X17880000Y-9765000D01*
X17880000Y-9735000D02*
X17850000Y-9765000D01*
X17855000Y-9370000D02*
X17885000Y-9400000D01*
X17885000Y-9370000D02*
X17855000Y-9400000D01*
X17875000Y-10714000D02*
X17905000Y-10744000D01*
X17905000Y-10714000D02*
X17875000Y-10744000D01*
X17875000Y-10936000D02*
X17905000Y-10966000D01*
X17905000Y-10936000D02*
X17875000Y-10966000D01*
X17875000Y-11180000D02*
X17905000Y-11210000D01*
X17905000Y-11180000D02*
X17875000Y-11210000D01*
X17920000Y-11380000D02*
X17950000Y-11410000D01*
X17950000Y-11380000D02*
X17920000Y-11410000D01*
X17930000Y-10190000D02*
X17960000Y-10220000D01*
X17960000Y-10190000D02*
X17930000Y-10220000D01*
X17935000Y-7785000D02*
X17965000Y-7815000D01*
X17965000Y-7785000D02*
X17935000Y-7815000D01*
X17935000Y-11935000D02*
X17965000Y-11965000D01*
X17965000Y-11935000D02*
X17935000Y-11965000D01*
X17940000Y-8305000D02*
X17970000Y-8335000D01*
X17970000Y-8305000D02*
X17940000Y-8335000D01*
X17940000Y-8535000D02*
X17970000Y-8565000D01*
X17970000Y-8535000D02*
X17940000Y-8565000D01*
X17940000Y-8765000D02*
X17970000Y-8795000D01*
X17970000Y-8765000D02*
X17940000Y-8795000D01*
X17940000Y-8995000D02*
X17970000Y-9025000D01*
X17970000Y-8995000D02*
X17940000Y-9025000D01*
X17940000Y-9175000D02*
X17970000Y-9205000D01*
X17970000Y-9175000D02*
X17940000Y-9205000D01*
X17965000Y-10757937D02*
X17995000Y-10787937D01*
X17995000Y-10757937D02*
X17965000Y-10787937D01*
X17965000Y-10896000D02*
X17995000Y-10926000D01*
X17995000Y-10896000D02*
X17965000Y-10926000D01*
X17966432Y-9575835D02*
X17996432Y-9605835D01*
X17996432Y-9575835D02*
X17966432Y-9605835D01*
X17966432Y-9712000D02*
X17996432Y-9742000D01*
X17996432Y-9712000D02*
X17966432Y-9742000D01*
X18040000Y-10565000D02*
X18070000Y-10595000D01*
X18070000Y-10565000D02*
X18040000Y-10595000D01*
X18040000Y-11105000D02*
X18070000Y-11135000D01*
X18070000Y-11105000D02*
X18040000Y-11135000D01*
X18045000Y-10085000D02*
X18075000Y-10115000D01*
X18075000Y-10085000D02*
X18045000Y-10115000D01*
X18045000Y-9920000D02*
X18075000Y-9950000D01*
X18075000Y-9920000D02*
X18045000Y-9950000D01*
X18045000Y-10330000D02*
X18075000Y-10360000D01*
X18075000Y-10330000D02*
X18045000Y-10360000D01*
X18050000Y-9375000D02*
X18080000Y-9405000D01*
X18080000Y-9375000D02*
X18050000Y-9405000D01*
X18065000Y-10758000D02*
X18095000Y-10788000D01*
X18095000Y-10758000D02*
X18065000Y-10788000D01*
X18065000Y-10896000D02*
X18095000Y-10926000D01*
X18095000Y-10896000D02*
X18065000Y-10926000D01*
X18073000Y-9575835D02*
X18103000Y-9605835D01*
X18103000Y-9575835D02*
X18073000Y-9605835D01*
X18073000Y-9712000D02*
X18103000Y-9742000D01*
X18103000Y-9712000D02*
X18073000Y-9742000D01*
X18085000Y-7785000D02*
X18115000Y-7815000D01*
X18115000Y-7785000D02*
X18085000Y-7815000D01*
X18085000Y-11935000D02*
X18115000Y-11965000D01*
X18115000Y-11935000D02*
X18085000Y-11965000D01*
X18150000Y-8365000D02*
X18180000Y-8395000D01*
X18180000Y-8365000D02*
X18150000Y-8395000D01*
X18150000Y-8535000D02*
X18180000Y-8565000D01*
X18180000Y-8535000D02*
X18150000Y-8565000D01*
X18150000Y-8765000D02*
X18180000Y-8795000D01*
X18180000Y-8765000D02*
X18150000Y-8795000D01*
X18150000Y-8995000D02*
X18180000Y-9025000D01*
X18180000Y-8995000D02*
X18150000Y-9025000D01*
X18150000Y-9175000D02*
X18180000Y-9205000D01*
X18180000Y-9175000D02*
X18150000Y-9205000D01*
X18160000Y-10190000D02*
X18190000Y-10220000D01*
X18190000Y-10190000D02*
X18160000Y-10220000D01*
X18165000Y-10758000D02*
X18195000Y-10788000D01*
X18195000Y-10758000D02*
X18165000Y-10788000D01*
X18165000Y-10896000D02*
X18195000Y-10926000D01*
X18195000Y-10896000D02*
X18165000Y-10926000D01*
X18179000Y-9576000D02*
X18209000Y-9606000D01*
X18209000Y-9576000D02*
X18179000Y-9606000D01*
X18179000Y-9712000D02*
X18209000Y-9742000D01*
X18209000Y-9712000D02*
X18179000Y-9742000D01*
X18205000Y-10565000D02*
X18235000Y-10595000D01*
X18235000Y-10565000D02*
X18205000Y-10595000D01*
X18205000Y-11105000D02*
X18235000Y-11135000D01*
X18235000Y-11105000D02*
X18205000Y-11135000D01*
X18210000Y-9920000D02*
X18240000Y-9950000D01*
X18240000Y-9920000D02*
X18210000Y-9950000D01*
X18215000Y-9375000D02*
X18245000Y-9405000D01*
X18245000Y-9375000D02*
X18215000Y-9405000D01*
X18230000Y-7785000D02*
X18260000Y-7815000D01*
X18260000Y-7785000D02*
X18230000Y-7815000D01*
X18230000Y-11935000D02*
X18260000Y-11965000D01*
X18260000Y-11935000D02*
X18230000Y-11965000D01*
X18265000Y-10758000D02*
X18295000Y-10788000D01*
X18295000Y-10758000D02*
X18265000Y-10788000D01*
X18265000Y-10896000D02*
X18295000Y-10926000D01*
X18295000Y-10896000D02*
X18265000Y-10926000D01*
X18285000Y-9576000D02*
X18315000Y-9606000D01*
X18315000Y-9576000D02*
X18285000Y-9606000D01*
X18285000Y-9712000D02*
X18315000Y-9742000D01*
X18315000Y-9712000D02*
X18285000Y-9742000D01*
X18360000Y-7785000D02*
X18390000Y-7815000D01*
X18390000Y-7785000D02*
X18360000Y-7815000D01*
X18360000Y-7935000D02*
X18390000Y-7965000D01*
X18390000Y-7935000D02*
X18360000Y-7965000D01*
X18360000Y-8085000D02*
X18390000Y-8115000D01*
X18390000Y-8085000D02*
X18360000Y-8115000D01*
X18360000Y-8235000D02*
X18390000Y-8265000D01*
X18390000Y-8235000D02*
X18360000Y-8265000D01*
X18360000Y-8385000D02*
X18390000Y-8415000D01*
X18390000Y-8385000D02*
X18360000Y-8415000D01*
X18360000Y-8535000D02*
X18390000Y-8565000D01*
X18390000Y-8535000D02*
X18360000Y-8565000D01*
X18360000Y-8685000D02*
X18390000Y-8715000D01*
X18390000Y-8685000D02*
X18360000Y-8715000D01*
X18360000Y-8835000D02*
X18390000Y-8865000D01*
X18390000Y-8835000D02*
X18360000Y-8865000D01*
X18360000Y-8985000D02*
X18390000Y-9015000D01*
X18390000Y-8985000D02*
X18360000Y-9015000D01*
X18360000Y-9135000D02*
X18390000Y-9165000D01*
X18390000Y-9135000D02*
X18360000Y-9165000D01*
X18360000Y-10085000D02*
X18390000Y-10115000D01*
X18390000Y-10085000D02*
X18360000Y-10115000D01*
X18360000Y-10235000D02*
X18390000Y-10265000D01*
X18390000Y-10235000D02*
X18360000Y-10265000D01*
X18360000Y-10385000D02*
X18390000Y-10415000D01*
X18390000Y-10385000D02*
X18360000Y-10415000D01*
X18360000Y-11285000D02*
X18390000Y-11315000D01*
X18390000Y-11285000D02*
X18360000Y-11315000D01*
X18360000Y-11435000D02*
X18390000Y-11465000D01*
X18390000Y-11435000D02*
X18360000Y-11465000D01*
X18360000Y-11585000D02*
X18390000Y-11615000D01*
X18390000Y-11585000D02*
X18360000Y-11615000D01*
X18360000Y-11935000D02*
X18390000Y-11965000D01*
X18390000Y-11935000D02*
X18360000Y-11965000D01*
X18361000Y-11709000D02*
X18391000Y-11739000D01*
X18391000Y-11709000D02*
X18361000Y-11739000D01*
X18361000Y-11823000D02*
X18391000Y-11853000D01*
X18391000Y-11823000D02*
X18361000Y-11853000D01*
X18365000Y-10732000D02*
X18395000Y-10762000D01*
X18395000Y-10732000D02*
X18365000Y-10762000D01*
X18365000Y-10925000D02*
X18395000Y-10955000D01*
X18395000Y-10925000D02*
X18365000Y-10955000D01*
X18375000Y-10565000D02*
X18405000Y-10595000D01*
X18405000Y-10565000D02*
X18375000Y-10595000D01*
X18375000Y-11105000D02*
X18405000Y-11135000D01*
X18405000Y-11105000D02*
X18375000Y-11135000D01*
X18380000Y-9920000D02*
X18410000Y-9950000D01*
X18410000Y-9920000D02*
X18380000Y-9950000D01*
X18385000Y-9375000D02*
X18415000Y-9405000D01*
X18415000Y-9375000D02*
X18385000Y-9405000D01*
X18385000Y-9552000D02*
X18415000Y-9582000D01*
X18415000Y-9552000D02*
X18385000Y-9582000D01*
X18385000Y-9737000D02*
X18415000Y-9767000D01*
X18415000Y-9737000D02*
X18385000Y-9767000D01*
X15691940Y-9770140D02*
G75*
G02*
X15661940Y-9770140I-15000J0D01*
G01*
X15661940Y-9770140D02*
G75*
G02*
X15691940Y-9770140I15000J0D01*
G01*
X15691940Y-9848880D02*
G75*
G02*
X15661940Y-9848880I-15000J0D01*
G01*
X15661940Y-9848880D02*
G75*
G02*
X15691940Y-9848880I15000J0D01*
G01*
X15691940Y-9927620D02*
G75*
G02*
X15661940Y-9927620I-15000J0D01*
G01*
X15661940Y-9927620D02*
G75*
G02*
X15691940Y-9927620I15000J0D01*
G01*
X15770680Y-9770140D02*
G75*
G02*
X15740680Y-9770140I-15000J0D01*
G01*
X15740680Y-9770140D02*
G75*
G02*
X15770680Y-9770140I15000J0D01*
G01*
X15770680Y-9848880D02*
G75*
G02*
X15740680Y-9848880I-15000J0D01*
G01*
X15740680Y-9848880D02*
G75*
G02*
X15770680Y-9848880I15000J0D01*
G01*
X15770680Y-9927620D02*
G75*
G02*
X15740680Y-9927620I-15000J0D01*
G01*
X15740680Y-9927620D02*
G75*
G02*
X15770680Y-9927620I15000J0D01*
G01*
X15828560Y-8179580D02*
G75*
G02*
X15798560Y-8179580I-15000J0D01*
G01*
X15798560Y-8179580D02*
G75*
G02*
X15828560Y-8179580I15000J0D01*
G01*
X15828560Y-8249580D02*
G75*
G02*
X15798560Y-8249580I-15000J0D01*
G01*
X15798560Y-8249580D02*
G75*
G02*
X15828560Y-8249580I15000J0D01*
G01*
X15828560Y-8319580D02*
G75*
G02*
X15798560Y-8319580I-15000J0D01*
G01*
X15798560Y-8319580D02*
G75*
G02*
X15828560Y-8319580I15000J0D01*
G01*
X15849420Y-9770140D02*
G75*
G02*
X15819420Y-9770140I-15000J0D01*
G01*
X15819420Y-9770140D02*
G75*
G02*
X15849420Y-9770140I15000J0D01*
G01*
X15849420Y-9848880D02*
G75*
G02*
X15819420Y-9848880I-15000J0D01*
G01*
X15819420Y-9848880D02*
G75*
G02*
X15849420Y-9848880I15000J0D01*
G01*
X15849420Y-9927620D02*
G75*
G02*
X15819420Y-9927620I-15000J0D01*
G01*
X15819420Y-9927620D02*
G75*
G02*
X15849420Y-9927620I15000J0D01*
G01*
X15888560Y-8179580D02*
G75*
G02*
X15858560Y-8179580I-15000J0D01*
G01*
X15858560Y-8179580D02*
G75*
G02*
X15888560Y-8179580I15000J0D01*
G01*
X15888560Y-8249580D02*
G75*
G02*
X15858560Y-8249580I-15000J0D01*
G01*
X15858560Y-8249580D02*
G75*
G02*
X15888560Y-8249580I15000J0D01*
G01*
X15888560Y-8319580D02*
G75*
G02*
X15858560Y-8319580I-15000J0D01*
G01*
X15858560Y-8319580D02*
G75*
G02*
X15888560Y-8319580I15000J0D01*
G01*
X13710000Y-8030000D02*
X13710000Y-8070000D01*
X13690000Y-8050000D02*
X13730000Y-8050000D01*
X13710000Y-11680000D02*
X13710000Y-11720000D01*
X13690000Y-11700000D02*
X13730000Y-11700000D01*
X13758327Y-7913327D02*
X13758327Y-7953327D01*
X13738327Y-7933327D02*
X13778327Y-7933327D01*
X13758327Y-8146673D02*
X13758327Y-8186673D01*
X13738327Y-8166673D02*
X13778327Y-8166673D01*
X13758327Y-11563327D02*
X13758327Y-11603327D01*
X13738327Y-11583327D02*
X13778327Y-11583327D01*
X13758327Y-11796673D02*
X13758327Y-11836673D01*
X13738327Y-11816673D02*
X13778327Y-11816673D01*
X13875000Y-7865000D02*
X13875000Y-7905000D01*
X13855000Y-7885000D02*
X13895000Y-7885000D01*
X13875000Y-8195000D02*
X13875000Y-8235000D01*
X13855000Y-8215000D02*
X13895000Y-8215000D01*
X13875000Y-11515000D02*
X13875000Y-11555000D01*
X13855000Y-11535000D02*
X13895000Y-11535000D01*
X13875000Y-11845000D02*
X13875000Y-11885000D01*
X13855000Y-11865000D02*
X13895000Y-11865000D01*
X13991673Y-7913327D02*
X13991673Y-7953327D01*
X13971673Y-7933327D02*
X14011673Y-7933327D01*
X13991673Y-8146673D02*
X13991673Y-8186673D01*
X13971673Y-8166673D02*
X14011673Y-8166673D01*
X13991673Y-11563327D02*
X13991673Y-11603327D01*
X13971673Y-11583327D02*
X14011673Y-11583327D01*
X13991673Y-11796673D02*
X13991673Y-11836673D01*
X13971673Y-11816673D02*
X14011673Y-11816673D01*
X14040000Y-8030000D02*
X14040000Y-8070000D01*
X14020000Y-8050000D02*
X14060000Y-8050000D01*
X14040000Y-11680000D02*
X14040000Y-11720000D01*
X14020000Y-11700000D02*
X14060000Y-11700000D01*
X17960000Y-8030000D02*
X17960000Y-8070000D01*
X17940000Y-8050000D02*
X17980000Y-8050000D01*
X17960000Y-11680000D02*
X17960000Y-11720000D01*
X17940000Y-11700000D02*
X17980000Y-11700000D01*
X18008327Y-7913327D02*
X18008327Y-7953327D01*
X17988327Y-7933327D02*
X18028327Y-7933327D01*
X18008327Y-8146673D02*
X18008327Y-8186673D01*
X17988327Y-8166673D02*
X18028327Y-8166673D01*
X18008327Y-11563327D02*
X18008327Y-11603327D01*
X17988327Y-11583327D02*
X18028327Y-11583327D01*
X18008327Y-11796673D02*
X18008327Y-11836673D01*
X17988327Y-11816673D02*
X18028327Y-11816673D01*
X18125000Y-7865000D02*
X18125000Y-7905000D01*
X18105000Y-7885000D02*
X18145000Y-7885000D01*
X18125000Y-8195000D02*
X18125000Y-8235000D01*
X18105000Y-8215000D02*
X18145000Y-8215000D01*
X18125000Y-11515000D02*
X18125000Y-11555000D01*
X18105000Y-11535000D02*
X18145000Y-11535000D01*
X18125000Y-11845000D02*
X18125000Y-11885000D01*
X18105000Y-11865000D02*
X18145000Y-11865000D01*
X18241673Y-7913327D02*
X18241673Y-7953327D01*
X18221673Y-7933327D02*
X18261673Y-7933327D01*
X18241673Y-8146673D02*
X18241673Y-8186673D01*
X18221673Y-8166673D02*
X18261673Y-8166673D01*
X18241673Y-11563327D02*
X18241673Y-11603327D01*
X18221673Y-11583327D02*
X18261673Y-11583327D01*
X18241673Y-11796673D02*
X18241673Y-11836673D01*
X18221673Y-11816673D02*
X18261673Y-11816673D01*
X18290000Y-8030000D02*
X18290000Y-8070000D01*
X18270000Y-8050000D02*
X18310000Y-8050000D01*
X18290000Y-11680000D02*
X18290000Y-11720000D01*
X18270000Y-11700000D02*
X18310000Y-11700000D01*
X14425036Y-8300516D02*
X14425036Y-8229804D01*
X14354324Y-8229804D01*
X14354324Y-8300516D01*
X14425036Y-8300516D01*
X14679036Y-8300516D02*
X14679036Y-8229804D01*
X14608324Y-8229804D01*
X14608324Y-8300516D01*
X14679036Y-8300516D01*
X14704356Y-11711356D02*
X14704356Y-11640644D01*
X14633644Y-11640644D01*
X14633644Y-11711356D01*
X14704356Y-11711356D01*
X14958356Y-11711356D02*
X14958356Y-11640644D01*
X14887644Y-11640644D01*
X14887644Y-11711356D01*
X14958356Y-11711356D01*
X15212356Y-11711356D02*
X15212356Y-11640644D01*
X15141644Y-11640644D01*
X15141644Y-11711356D01*
X15212356Y-11711356D01*
X15466356Y-11711356D02*
X15466356Y-11640644D01*
X15395644Y-11640644D01*
X15395644Y-11711356D01*
X15466356Y-11711356D01*
X15720356Y-11711356D02*
X15720356Y-11640644D01*
X15649644Y-11640644D01*
X15649644Y-11711356D01*
X15720356Y-11711356D01*
X15974356Y-11711356D02*
X15974356Y-11640644D01*
X15903644Y-11640644D01*
X15903644Y-11711356D01*
X15974356Y-11711356D01*
D13*
X13875000Y-8160000D02*
X13985000Y-8050000D01*
X13875000Y-7940000D01*
X13765000Y-8050000D01*
X13875000Y-8160000D01*
X13875000Y-11810000D02*
X13985000Y-11700000D01*
X13875000Y-11590000D01*
X13765000Y-11700000D01*
X13875000Y-11810000D01*
X18125000Y-8160000D02*
X18235000Y-8050000D01*
X18125000Y-7940000D01*
X18015000Y-8050000D01*
X18125000Y-8160000D01*
X18125000Y-11810000D02*
X18235000Y-11700000D01*
X18125000Y-11590000D01*
X18015000Y-11700000D01*
X18125000Y-11810000D01*
D11*
X13758277Y-12388984D02*
X13758277Y-12188984D01*
X13758277Y-12188984D02*
X13805896Y-12188984D01*
X13805896Y-12188984D02*
X13834467Y-12198508D01*
X13834467Y-12198508D02*
X13853515Y-12217555D01*
X13853515Y-12217555D02*
X13863039Y-12236603D01*
X13863039Y-12236603D02*
X13872562Y-12274698D01*
X13872562Y-12274698D02*
X13872562Y-12303269D01*
X13872562Y-12303269D02*
X13863039Y-12341365D01*
X13863039Y-12341365D02*
X13853515Y-12360412D01*
X13853515Y-12360412D02*
X13834467Y-12379460D01*
X13834467Y-12379460D02*
X13805896Y-12388984D01*
X13805896Y-12388984D02*
X13758277Y-12388984D01*
X13958277Y-12388984D02*
X13958277Y-12255650D01*
X13958277Y-12293746D02*
X13967801Y-12274698D01*
X13967801Y-12274698D02*
X13977324Y-12265174D01*
X13977324Y-12265174D02*
X13996372Y-12255650D01*
X13996372Y-12255650D02*
X14015420Y-12255650D01*
X14082086Y-12388984D02*
X14082086Y-12255650D01*
X14082086Y-12188984D02*
X14072562Y-12198508D01*
X14072562Y-12198508D02*
X14082086Y-12208031D01*
X14082086Y-12208031D02*
X14091610Y-12198508D01*
X14091610Y-12198508D02*
X14082086Y-12188984D01*
X14082086Y-12188984D02*
X14082086Y-12208031D01*
X14205896Y-12388984D02*
X14186848Y-12379460D01*
X14186848Y-12379460D02*
X14177324Y-12360412D01*
X14177324Y-12360412D02*
X14177324Y-12188984D01*
X14310658Y-12388984D02*
X14291610Y-12379460D01*
X14291610Y-12379460D02*
X14282086Y-12360412D01*
X14282086Y-12360412D02*
X14282086Y-12188984D01*
X14539229Y-12388984D02*
X14539229Y-12188984D01*
X14539229Y-12188984D02*
X14605896Y-12331841D01*
X14605896Y-12331841D02*
X14672562Y-12188984D01*
X14672562Y-12188984D02*
X14672562Y-12388984D01*
X14853515Y-12388984D02*
X14853515Y-12284222D01*
X14853515Y-12284222D02*
X14843991Y-12265174D01*
X14843991Y-12265174D02*
X14824943Y-12255650D01*
X14824943Y-12255650D02*
X14786848Y-12255650D01*
X14786848Y-12255650D02*
X14767801Y-12265174D01*
X14853515Y-12379460D02*
X14834467Y-12388984D01*
X14834467Y-12388984D02*
X14786848Y-12388984D01*
X14786848Y-12388984D02*
X14767801Y-12379460D01*
X14767801Y-12379460D02*
X14758277Y-12360412D01*
X14758277Y-12360412D02*
X14758277Y-12341365D01*
X14758277Y-12341365D02*
X14767801Y-12322317D01*
X14767801Y-12322317D02*
X14786848Y-12312793D01*
X14786848Y-12312793D02*
X14834467Y-12312793D01*
X14834467Y-12312793D02*
X14853515Y-12303269D01*
X14948753Y-12255650D02*
X14948753Y-12455650D01*
X14948753Y-12265174D02*
X14967801Y-12255650D01*
X14967801Y-12255650D02*
X15005896Y-12255650D01*
X15005896Y-12255650D02*
X15024943Y-12265174D01*
X15024943Y-12265174D02*
X15034467Y-12274698D01*
X15034467Y-12274698D02*
X15043991Y-12293746D01*
X15043991Y-12293746D02*
X15043991Y-12350888D01*
X15043991Y-12350888D02*
X15034467Y-12369936D01*
X15034467Y-12369936D02*
X15024943Y-12379460D01*
X15024943Y-12379460D02*
X15005896Y-12388984D01*
X15005896Y-12388984D02*
X14967801Y-12388984D01*
X14967801Y-12388984D02*
X14948753Y-12379460D01*
X15129705Y-12369936D02*
X15139229Y-12379460D01*
X15139229Y-12379460D02*
X15129705Y-12388984D01*
X15129705Y-12388984D02*
X15120182Y-12379460D01*
X15120182Y-12379460D02*
X15129705Y-12369936D01*
X15129705Y-12369936D02*
X15129705Y-12388984D01*
X15129705Y-12265174D02*
X15139229Y-12274698D01*
X15139229Y-12274698D02*
X15129705Y-12284222D01*
X15129705Y-12284222D02*
X15120182Y-12274698D01*
X15120182Y-12274698D02*
X15129705Y-12265174D01*
X15129705Y-12265174D02*
X15129705Y-12284222D01*
D12*
X13467500Y-12702500D02*
X13497500Y-12732500D01*
X13497500Y-12702500D02*
X13467500Y-12732500D01*
D11*
X13796372Y-12608984D02*
X13815420Y-12608984D01*
X13815420Y-12608984D02*
X13834467Y-12618508D01*
X13834467Y-12618508D02*
X13843991Y-12628031D01*
X13843991Y-12628031D02*
X13853515Y-12647079D01*
X13853515Y-12647079D02*
X13863039Y-12685174D01*
X13863039Y-12685174D02*
X13863039Y-12732793D01*
X13863039Y-12732793D02*
X13853515Y-12770888D01*
X13853515Y-12770888D02*
X13843991Y-12789936D01*
X13843991Y-12789936D02*
X13834467Y-12799460D01*
X13834467Y-12799460D02*
X13815420Y-12808984D01*
X13815420Y-12808984D02*
X13796372Y-12808984D01*
X13796372Y-12808984D02*
X13777324Y-12799460D01*
X13777324Y-12799460D02*
X13767801Y-12789936D01*
X13767801Y-12789936D02*
X13758277Y-12770888D01*
X13758277Y-12770888D02*
X13748753Y-12732793D01*
X13748753Y-12732793D02*
X13748753Y-12685174D01*
X13748753Y-12685174D02*
X13758277Y-12647079D01*
X13758277Y-12647079D02*
X13767801Y-12628031D01*
X13767801Y-12628031D02*
X13777324Y-12618508D01*
X13777324Y-12618508D02*
X13796372Y-12608984D01*
X13948753Y-12789936D02*
X13958277Y-12799460D01*
X13958277Y-12799460D02*
X13948753Y-12808984D01*
X13948753Y-12808984D02*
X13939229Y-12799460D01*
X13939229Y-12799460D02*
X13948753Y-12789936D01*
X13948753Y-12789936D02*
X13948753Y-12808984D01*
X14024943Y-12608984D02*
X14148753Y-12608984D01*
X14148753Y-12608984D02*
X14082086Y-12685174D01*
X14082086Y-12685174D02*
X14110658Y-12685174D01*
X14110658Y-12685174D02*
X14129705Y-12694698D01*
X14129705Y-12694698D02*
X14139229Y-12704222D01*
X14139229Y-12704222D02*
X14148753Y-12723269D01*
X14148753Y-12723269D02*
X14148753Y-12770888D01*
X14148753Y-12770888D02*
X14139229Y-12789936D01*
X14139229Y-12789936D02*
X14129705Y-12799460D01*
X14129705Y-12799460D02*
X14110658Y-12808984D01*
X14110658Y-12808984D02*
X14053515Y-12808984D01*
X14053515Y-12808984D02*
X14034467Y-12799460D01*
X14034467Y-12799460D02*
X14024943Y-12789936D01*
X14272562Y-12608984D02*
X14291610Y-12608984D01*
X14291610Y-12608984D02*
X14310658Y-12618508D01*
X14310658Y-12618508D02*
X14320182Y-12628031D01*
X14320182Y-12628031D02*
X14329705Y-12647079D01*
X14329705Y-12647079D02*
X14339229Y-12685174D01*
X14339229Y-12685174D02*
X14339229Y-12732793D01*
X14339229Y-12732793D02*
X14329705Y-12770888D01*
X14329705Y-12770888D02*
X14320182Y-12789936D01*
X14320182Y-12789936D02*
X14310658Y-12799460D01*
X14310658Y-12799460D02*
X14291610Y-12808984D01*
X14291610Y-12808984D02*
X14272562Y-12808984D01*
X14272562Y-12808984D02*
X14253515Y-12799460D01*
X14253515Y-12799460D02*
X14243991Y-12789936D01*
X14243991Y-12789936D02*
X14234467Y-12770888D01*
X14234467Y-12770888D02*
X14224943Y-12732793D01*
X14224943Y-12732793D02*
X14224943Y-12685174D01*
X14224943Y-12685174D02*
X14234467Y-12647079D01*
X14234467Y-12647079D02*
X14243991Y-12628031D01*
X14243991Y-12628031D02*
X14253515Y-12618508D01*
X14253515Y-12618508D02*
X14272562Y-12608984D01*
X14463039Y-12608984D02*
X14482086Y-12608984D01*
X14482086Y-12608984D02*
X14501134Y-12618508D01*
X14501134Y-12618508D02*
X14510658Y-12628031D01*
X14510658Y-12628031D02*
X14520182Y-12647079D01*
X14520182Y-12647079D02*
X14529705Y-12685174D01*
X14529705Y-12685174D02*
X14529705Y-12732793D01*
X14529705Y-12732793D02*
X14520182Y-12770888D01*
X14520182Y-12770888D02*
X14510658Y-12789936D01*
X14510658Y-12789936D02*
X14501134Y-12799460D01*
X14501134Y-12799460D02*
X14482086Y-12808984D01*
X14482086Y-12808984D02*
X14463039Y-12808984D01*
X14463039Y-12808984D02*
X14443991Y-12799460D01*
X14443991Y-12799460D02*
X14434467Y-12789936D01*
X14434467Y-12789936D02*
X14424943Y-12770888D01*
X14424943Y-12770888D02*
X14415420Y-12732793D01*
X14415420Y-12732793D02*
X14415420Y-12685174D01*
X14415420Y-12685174D02*
X14424943Y-12647079D01*
X14424943Y-12647079D02*
X14434467Y-12628031D01*
X14434467Y-12628031D02*
X14443991Y-12618508D01*
X14443991Y-12618508D02*
X14463039Y-12608984D01*
X14615420Y-12808984D02*
X14615420Y-12675650D01*
X14615420Y-12694698D02*
X14624943Y-12685174D01*
X14624943Y-12685174D02*
X14643991Y-12675650D01*
X14643991Y-12675650D02*
X14672563Y-12675650D01*
X14672563Y-12675650D02*
X14691610Y-12685174D01*
X14691610Y-12685174D02*
X14701134Y-12704222D01*
X14701134Y-12704222D02*
X14701134Y-12808984D01*
X14701134Y-12704222D02*
X14710658Y-12685174D01*
X14710658Y-12685174D02*
X14729705Y-12675650D01*
X14729705Y-12675650D02*
X14758277Y-12675650D01*
X14758277Y-12675650D02*
X14777324Y-12685174D01*
X14777324Y-12685174D02*
X14786848Y-12704222D01*
X14786848Y-12704222D02*
X14786848Y-12808984D01*
X14882086Y-12808984D02*
X14882086Y-12675650D01*
X14882086Y-12694698D02*
X14891610Y-12685174D01*
X14891610Y-12685174D02*
X14910658Y-12675650D01*
X14910658Y-12675650D02*
X14939229Y-12675650D01*
X14939229Y-12675650D02*
X14958277Y-12685174D01*
X14958277Y-12685174D02*
X14967801Y-12704222D01*
X14967801Y-12704222D02*
X14967801Y-12808984D01*
X14967801Y-12704222D02*
X14977324Y-12685174D01*
X14977324Y-12685174D02*
X14996372Y-12675650D01*
X14996372Y-12675650D02*
X15024943Y-12675650D01*
X15024943Y-12675650D02*
X15043991Y-12685174D01*
X15043991Y-12685174D02*
X15053515Y-12704222D01*
X15053515Y-12704222D02*
X15053515Y-12808984D01*
X15443991Y-12599460D02*
X15272563Y-12856603D01*
X15701134Y-12608984D02*
X15720182Y-12608984D01*
X15720182Y-12608984D02*
X15739229Y-12618508D01*
X15739229Y-12618508D02*
X15748753Y-12628031D01*
X15748753Y-12628031D02*
X15758277Y-12647079D01*
X15758277Y-12647079D02*
X15767801Y-12685174D01*
X15767801Y-12685174D02*
X15767801Y-12732793D01*
X15767801Y-12732793D02*
X15758277Y-12770888D01*
X15758277Y-12770888D02*
X15748753Y-12789936D01*
X15748753Y-12789936D02*
X15739229Y-12799460D01*
X15739229Y-12799460D02*
X15720182Y-12808984D01*
X15720182Y-12808984D02*
X15701134Y-12808984D01*
X15701134Y-12808984D02*
X15682086Y-12799460D01*
X15682086Y-12799460D02*
X15672563Y-12789936D01*
X15672563Y-12789936D02*
X15663039Y-12770888D01*
X15663039Y-12770888D02*
X15653515Y-12732793D01*
X15653515Y-12732793D02*
X15653515Y-12685174D01*
X15653515Y-12685174D02*
X15663039Y-12647079D01*
X15663039Y-12647079D02*
X15672563Y-12628031D01*
X15672563Y-12628031D02*
X15682086Y-12618508D01*
X15682086Y-12618508D02*
X15701134Y-12608984D01*
X15853515Y-12789936D02*
X15863039Y-12799460D01*
X15863039Y-12799460D02*
X15853515Y-12808984D01*
X15853515Y-12808984D02*
X15843991Y-12799460D01*
X15843991Y-12799460D02*
X15853515Y-12789936D01*
X15853515Y-12789936D02*
X15853515Y-12808984D01*
X15986848Y-12608984D02*
X16005896Y-12608984D01*
X16005896Y-12608984D02*
X16024944Y-12618508D01*
X16024944Y-12618508D02*
X16034467Y-12628031D01*
X16034467Y-12628031D02*
X16043991Y-12647079D01*
X16043991Y-12647079D02*
X16053515Y-12685174D01*
X16053515Y-12685174D02*
X16053515Y-12732793D01*
X16053515Y-12732793D02*
X16043991Y-12770888D01*
X16043991Y-12770888D02*
X16034467Y-12789936D01*
X16034467Y-12789936D02*
X16024944Y-12799460D01*
X16024944Y-12799460D02*
X16005896Y-12808984D01*
X16005896Y-12808984D02*
X15986848Y-12808984D01*
X15986848Y-12808984D02*
X15967801Y-12799460D01*
X15967801Y-12799460D02*
X15958277Y-12789936D01*
X15958277Y-12789936D02*
X15948753Y-12770888D01*
X15948753Y-12770888D02*
X15939229Y-12732793D01*
X15939229Y-12732793D02*
X15939229Y-12685174D01*
X15939229Y-12685174D02*
X15948753Y-12647079D01*
X15948753Y-12647079D02*
X15958277Y-12628031D01*
X15958277Y-12628031D02*
X15967801Y-12618508D01*
X15967801Y-12618508D02*
X15986848Y-12608984D01*
X16243991Y-12808984D02*
X16129706Y-12808984D01*
X16186848Y-12808984D02*
X16186848Y-12608984D01*
X16186848Y-12608984D02*
X16167801Y-12637555D01*
X16167801Y-12637555D02*
X16148753Y-12656603D01*
X16148753Y-12656603D02*
X16129706Y-12666127D01*
X16434467Y-12808984D02*
X16320182Y-12808984D01*
X16377325Y-12808984D02*
X16377325Y-12608984D01*
X16377325Y-12608984D02*
X16358277Y-12637555D01*
X16358277Y-12637555D02*
X16339229Y-12656603D01*
X16339229Y-12656603D02*
X16320182Y-12666127D01*
X16548753Y-12694698D02*
X16529706Y-12685174D01*
X16529706Y-12685174D02*
X16520182Y-12675650D01*
X16520182Y-12675650D02*
X16510658Y-12656603D01*
X16510658Y-12656603D02*
X16510658Y-12647079D01*
X16510658Y-12647079D02*
X16520182Y-12628031D01*
X16520182Y-12628031D02*
X16529706Y-12618508D01*
X16529706Y-12618508D02*
X16548753Y-12608984D01*
X16548753Y-12608984D02*
X16586848Y-12608984D01*
X16586848Y-12608984D02*
X16605896Y-12618508D01*
X16605896Y-12618508D02*
X16615420Y-12628031D01*
X16615420Y-12628031D02*
X16624944Y-12647079D01*
X16624944Y-12647079D02*
X16624944Y-12656603D01*
X16624944Y-12656603D02*
X16615420Y-12675650D01*
X16615420Y-12675650D02*
X16605896Y-12685174D01*
X16605896Y-12685174D02*
X16586848Y-12694698D01*
X16586848Y-12694698D02*
X16548753Y-12694698D01*
X16548753Y-12694698D02*
X16529706Y-12704222D01*
X16529706Y-12704222D02*
X16520182Y-12713746D01*
X16520182Y-12713746D02*
X16510658Y-12732793D01*
X16510658Y-12732793D02*
X16510658Y-12770888D01*
X16510658Y-12770888D02*
X16520182Y-12789936D01*
X16520182Y-12789936D02*
X16529706Y-12799460D01*
X16529706Y-12799460D02*
X16548753Y-12808984D01*
X16548753Y-12808984D02*
X16586848Y-12808984D01*
X16586848Y-12808984D02*
X16605896Y-12799460D01*
X16605896Y-12799460D02*
X16615420Y-12789936D01*
X16615420Y-12789936D02*
X16624944Y-12770888D01*
X16624944Y-12770888D02*
X16624944Y-12732793D01*
X16624944Y-12732793D02*
X16615420Y-12713746D01*
X16615420Y-12713746D02*
X16605896Y-12704222D01*
X16605896Y-12704222D02*
X16586848Y-12694698D01*
X16701134Y-12608984D02*
X16701134Y-12647079D01*
X16777325Y-12608984D02*
X16777325Y-12647079D01*
X17072563Y-12885174D02*
X17063039Y-12875650D01*
X17063039Y-12875650D02*
X17043991Y-12847079D01*
X17043991Y-12847079D02*
X17034468Y-12828031D01*
X17034468Y-12828031D02*
X17024944Y-12799460D01*
X17024944Y-12799460D02*
X17015420Y-12751841D01*
X17015420Y-12751841D02*
X17015420Y-12713746D01*
X17015420Y-12713746D02*
X17024944Y-12666127D01*
X17024944Y-12666127D02*
X17034468Y-12637555D01*
X17034468Y-12637555D02*
X17043991Y-12618508D01*
X17043991Y-12618508D02*
X17063039Y-12589936D01*
X17063039Y-12589936D02*
X17072563Y-12580412D01*
X17234468Y-12608984D02*
X17196372Y-12608984D01*
X17196372Y-12608984D02*
X17177325Y-12618508D01*
X17177325Y-12618508D02*
X17167801Y-12628031D01*
X17167801Y-12628031D02*
X17148753Y-12656603D01*
X17148753Y-12656603D02*
X17139230Y-12694698D01*
X17139230Y-12694698D02*
X17139230Y-12770888D01*
X17139230Y-12770888D02*
X17148753Y-12789936D01*
X17148753Y-12789936D02*
X17158277Y-12799460D01*
X17158277Y-12799460D02*
X17177325Y-12808984D01*
X17177325Y-12808984D02*
X17215420Y-12808984D01*
X17215420Y-12808984D02*
X17234468Y-12799460D01*
X17234468Y-12799460D02*
X17243991Y-12789936D01*
X17243991Y-12789936D02*
X17253515Y-12770888D01*
X17253515Y-12770888D02*
X17253515Y-12723269D01*
X17253515Y-12723269D02*
X17243991Y-12704222D01*
X17243991Y-12704222D02*
X17234468Y-12694698D01*
X17234468Y-12694698D02*
X17215420Y-12685174D01*
X17215420Y-12685174D02*
X17177325Y-12685174D01*
X17177325Y-12685174D02*
X17158277Y-12694698D01*
X17158277Y-12694698D02*
X17148753Y-12704222D01*
X17148753Y-12704222D02*
X17139230Y-12723269D01*
X17443991Y-12808984D02*
X17329706Y-12808984D01*
X17386849Y-12808984D02*
X17386849Y-12608984D01*
X17386849Y-12608984D02*
X17367801Y-12637555D01*
X17367801Y-12637555D02*
X17348753Y-12656603D01*
X17348753Y-12656603D02*
X17329706Y-12666127D01*
X17558277Y-12694698D02*
X17539230Y-12685174D01*
X17539230Y-12685174D02*
X17529706Y-12675650D01*
X17529706Y-12675650D02*
X17520182Y-12656603D01*
X17520182Y-12656603D02*
X17520182Y-12647079D01*
X17520182Y-12647079D02*
X17529706Y-12628031D01*
X17529706Y-12628031D02*
X17539230Y-12618508D01*
X17539230Y-12618508D02*
X17558277Y-12608984D01*
X17558277Y-12608984D02*
X17596372Y-12608984D01*
X17596372Y-12608984D02*
X17615420Y-12618508D01*
X17615420Y-12618508D02*
X17624944Y-12628031D01*
X17624944Y-12628031D02*
X17634468Y-12647079D01*
X17634468Y-12647079D02*
X17634468Y-12656603D01*
X17634468Y-12656603D02*
X17624944Y-12675650D01*
X17624944Y-12675650D02*
X17615420Y-12685174D01*
X17615420Y-12685174D02*
X17596372Y-12694698D01*
X17596372Y-12694698D02*
X17558277Y-12694698D01*
X17558277Y-12694698D02*
X17539230Y-12704222D01*
X17539230Y-12704222D02*
X17529706Y-12713746D01*
X17529706Y-12713746D02*
X17520182Y-12732793D01*
X17520182Y-12732793D02*
X17520182Y-12770888D01*
X17520182Y-12770888D02*
X17529706Y-12789936D01*
X17529706Y-12789936D02*
X17539230Y-12799460D01*
X17539230Y-12799460D02*
X17558277Y-12808984D01*
X17558277Y-12808984D02*
X17596372Y-12808984D01*
X17596372Y-12808984D02*
X17615420Y-12799460D01*
X17615420Y-12799460D02*
X17624944Y-12789936D01*
X17624944Y-12789936D02*
X17634468Y-12770888D01*
X17634468Y-12770888D02*
X17634468Y-12732793D01*
X17634468Y-12732793D02*
X17624944Y-12713746D01*
X17624944Y-12713746D02*
X17615420Y-12704222D01*
X17615420Y-12704222D02*
X17596372Y-12694698D01*
X17872563Y-12808984D02*
X17872563Y-12608984D01*
X17958277Y-12808984D02*
X17958277Y-12704222D01*
X17958277Y-12704222D02*
X17948753Y-12685174D01*
X17948753Y-12685174D02*
X17929706Y-12675650D01*
X17929706Y-12675650D02*
X17901134Y-12675650D01*
X17901134Y-12675650D02*
X17882087Y-12685174D01*
X17882087Y-12685174D02*
X17872563Y-12694698D01*
X18082087Y-12808984D02*
X18063039Y-12799460D01*
X18063039Y-12799460D02*
X18053515Y-12789936D01*
X18053515Y-12789936D02*
X18043992Y-12770888D01*
X18043992Y-12770888D02*
X18043992Y-12713746D01*
X18043992Y-12713746D02*
X18053515Y-12694698D01*
X18053515Y-12694698D02*
X18063039Y-12685174D01*
X18063039Y-12685174D02*
X18082087Y-12675650D01*
X18082087Y-12675650D02*
X18110658Y-12675650D01*
X18110658Y-12675650D02*
X18129706Y-12685174D01*
X18129706Y-12685174D02*
X18139230Y-12694698D01*
X18139230Y-12694698D02*
X18148753Y-12713746D01*
X18148753Y-12713746D02*
X18148753Y-12770888D01*
X18148753Y-12770888D02*
X18139230Y-12789936D01*
X18139230Y-12789936D02*
X18129706Y-12799460D01*
X18129706Y-12799460D02*
X18110658Y-12808984D01*
X18110658Y-12808984D02*
X18082087Y-12808984D01*
X18263039Y-12808984D02*
X18243992Y-12799460D01*
X18243992Y-12799460D02*
X18234468Y-12780412D01*
X18234468Y-12780412D02*
X18234468Y-12608984D01*
X18415420Y-12799460D02*
X18396373Y-12808984D01*
X18396373Y-12808984D02*
X18358277Y-12808984D01*
X18358277Y-12808984D02*
X18339230Y-12799460D01*
X18339230Y-12799460D02*
X18329706Y-12780412D01*
X18329706Y-12780412D02*
X18329706Y-12704222D01*
X18329706Y-12704222D02*
X18339230Y-12685174D01*
X18339230Y-12685174D02*
X18358277Y-12675650D01*
X18358277Y-12675650D02*
X18396373Y-12675650D01*
X18396373Y-12675650D02*
X18415420Y-12685174D01*
X18415420Y-12685174D02*
X18424944Y-12704222D01*
X18424944Y-12704222D02*
X18424944Y-12723269D01*
X18424944Y-12723269D02*
X18329706Y-12742317D01*
X18501134Y-12799460D02*
X18520182Y-12808984D01*
X18520182Y-12808984D02*
X18558277Y-12808984D01*
X18558277Y-12808984D02*
X18577325Y-12799460D01*
X18577325Y-12799460D02*
X18586849Y-12780412D01*
X18586849Y-12780412D02*
X18586849Y-12770888D01*
X18586849Y-12770888D02*
X18577325Y-12751841D01*
X18577325Y-12751841D02*
X18558277Y-12742317D01*
X18558277Y-12742317D02*
X18529706Y-12742317D01*
X18529706Y-12742317D02*
X18510658Y-12732793D01*
X18510658Y-12732793D02*
X18501134Y-12713746D01*
X18501134Y-12713746D02*
X18501134Y-12704222D01*
X18501134Y-12704222D02*
X18510658Y-12685174D01*
X18510658Y-12685174D02*
X18529706Y-12675650D01*
X18529706Y-12675650D02*
X18558277Y-12675650D01*
X18558277Y-12675650D02*
X18577325Y-12685174D01*
X18653515Y-12885174D02*
X18663039Y-12875650D01*
X18663039Y-12875650D02*
X18682087Y-12847079D01*
X18682087Y-12847079D02*
X18691611Y-12828031D01*
X18691611Y-12828031D02*
X18701134Y-12799460D01*
X18701134Y-12799460D02*
X18710658Y-12751841D01*
X18710658Y-12751841D02*
X18710658Y-12713746D01*
X18710658Y-12713746D02*
X18701134Y-12666127D01*
X18701134Y-12666127D02*
X18691611Y-12637555D01*
X18691611Y-12637555D02*
X18682087Y-12618508D01*
X18682087Y-12618508D02*
X18663039Y-12589936D01*
X18663039Y-12589936D02*
X18653515Y-12580412D01*
D12*
X13497500Y-12981500D02*
G75*
G02*
X13467500Y-12981500I-15000J0D01*
G01*
X13467500Y-12981500D02*
G75*
G02*
X13497500Y-12981500I15000J0D01*
G01*
D11*
X13796372Y-12872984D02*
X13815420Y-12872984D01*
X13815420Y-12872984D02*
X13834467Y-12882508D01*
X13834467Y-12882508D02*
X13843991Y-12892031D01*
X13843991Y-12892031D02*
X13853515Y-12911079D01*
X13853515Y-12911079D02*
X13863039Y-12949174D01*
X13863039Y-12949174D02*
X13863039Y-12996793D01*
X13863039Y-12996793D02*
X13853515Y-13034888D01*
X13853515Y-13034888D02*
X13843991Y-13053936D01*
X13843991Y-13053936D02*
X13834467Y-13063460D01*
X13834467Y-13063460D02*
X13815420Y-13072984D01*
X13815420Y-13072984D02*
X13796372Y-13072984D01*
X13796372Y-13072984D02*
X13777324Y-13063460D01*
X13777324Y-13063460D02*
X13767801Y-13053936D01*
X13767801Y-13053936D02*
X13758277Y-13034888D01*
X13758277Y-13034888D02*
X13748753Y-12996793D01*
X13748753Y-12996793D02*
X13748753Y-12949174D01*
X13748753Y-12949174D02*
X13758277Y-12911079D01*
X13758277Y-12911079D02*
X13767801Y-12892031D01*
X13767801Y-12892031D02*
X13777324Y-12882508D01*
X13777324Y-12882508D02*
X13796372Y-12872984D01*
X13948753Y-13053936D02*
X13958277Y-13063460D01*
X13958277Y-13063460D02*
X13948753Y-13072984D01*
X13948753Y-13072984D02*
X13939229Y-13063460D01*
X13939229Y-13063460D02*
X13948753Y-13053936D01*
X13948753Y-13053936D02*
X13948753Y-13072984D01*
X14024943Y-12872984D02*
X14148753Y-12872984D01*
X14148753Y-12872984D02*
X14082086Y-12949174D01*
X14082086Y-12949174D02*
X14110658Y-12949174D01*
X14110658Y-12949174D02*
X14129705Y-12958698D01*
X14129705Y-12958698D02*
X14139229Y-12968222D01*
X14139229Y-12968222D02*
X14148753Y-12987269D01*
X14148753Y-12987269D02*
X14148753Y-13034888D01*
X14148753Y-13034888D02*
X14139229Y-13053936D01*
X14139229Y-13053936D02*
X14129705Y-13063460D01*
X14129705Y-13063460D02*
X14110658Y-13072984D01*
X14110658Y-13072984D02*
X14053515Y-13072984D01*
X14053515Y-13072984D02*
X14034467Y-13063460D01*
X14034467Y-13063460D02*
X14024943Y-13053936D01*
X14272562Y-12872984D02*
X14291610Y-12872984D01*
X14291610Y-12872984D02*
X14310658Y-12882508D01*
X14310658Y-12882508D02*
X14320182Y-12892031D01*
X14320182Y-12892031D02*
X14329705Y-12911079D01*
X14329705Y-12911079D02*
X14339229Y-12949174D01*
X14339229Y-12949174D02*
X14339229Y-12996793D01*
X14339229Y-12996793D02*
X14329705Y-13034888D01*
X14329705Y-13034888D02*
X14320182Y-13053936D01*
X14320182Y-13053936D02*
X14310658Y-13063460D01*
X14310658Y-13063460D02*
X14291610Y-13072984D01*
X14291610Y-13072984D02*
X14272562Y-13072984D01*
X14272562Y-13072984D02*
X14253515Y-13063460D01*
X14253515Y-13063460D02*
X14243991Y-13053936D01*
X14243991Y-13053936D02*
X14234467Y-13034888D01*
X14234467Y-13034888D02*
X14224943Y-12996793D01*
X14224943Y-12996793D02*
X14224943Y-12949174D01*
X14224943Y-12949174D02*
X14234467Y-12911079D01*
X14234467Y-12911079D02*
X14243991Y-12892031D01*
X14243991Y-12892031D02*
X14253515Y-12882508D01*
X14253515Y-12882508D02*
X14272562Y-12872984D01*
X14463039Y-12872984D02*
X14482086Y-12872984D01*
X14482086Y-12872984D02*
X14501134Y-12882508D01*
X14501134Y-12882508D02*
X14510658Y-12892031D01*
X14510658Y-12892031D02*
X14520182Y-12911079D01*
X14520182Y-12911079D02*
X14529705Y-12949174D01*
X14529705Y-12949174D02*
X14529705Y-12996793D01*
X14529705Y-12996793D02*
X14520182Y-13034888D01*
X14520182Y-13034888D02*
X14510658Y-13053936D01*
X14510658Y-13053936D02*
X14501134Y-13063460D01*
X14501134Y-13063460D02*
X14482086Y-13072984D01*
X14482086Y-13072984D02*
X14463039Y-13072984D01*
X14463039Y-13072984D02*
X14443991Y-13063460D01*
X14443991Y-13063460D02*
X14434467Y-13053936D01*
X14434467Y-13053936D02*
X14424943Y-13034888D01*
X14424943Y-13034888D02*
X14415420Y-12996793D01*
X14415420Y-12996793D02*
X14415420Y-12949174D01*
X14415420Y-12949174D02*
X14424943Y-12911079D01*
X14424943Y-12911079D02*
X14434467Y-12892031D01*
X14434467Y-12892031D02*
X14443991Y-12882508D01*
X14443991Y-12882508D02*
X14463039Y-12872984D01*
X14615420Y-13072984D02*
X14615420Y-12939650D01*
X14615420Y-12958698D02*
X14624943Y-12949174D01*
X14624943Y-12949174D02*
X14643991Y-12939650D01*
X14643991Y-12939650D02*
X14672563Y-12939650D01*
X14672563Y-12939650D02*
X14691610Y-12949174D01*
X14691610Y-12949174D02*
X14701134Y-12968222D01*
X14701134Y-12968222D02*
X14701134Y-13072984D01*
X14701134Y-12968222D02*
X14710658Y-12949174D01*
X14710658Y-12949174D02*
X14729705Y-12939650D01*
X14729705Y-12939650D02*
X14758277Y-12939650D01*
X14758277Y-12939650D02*
X14777324Y-12949174D01*
X14777324Y-12949174D02*
X14786848Y-12968222D01*
X14786848Y-12968222D02*
X14786848Y-13072984D01*
X14882086Y-13072984D02*
X14882086Y-12939650D01*
X14882086Y-12958698D02*
X14891610Y-12949174D01*
X14891610Y-12949174D02*
X14910658Y-12939650D01*
X14910658Y-12939650D02*
X14939229Y-12939650D01*
X14939229Y-12939650D02*
X14958277Y-12949174D01*
X14958277Y-12949174D02*
X14967801Y-12968222D01*
X14967801Y-12968222D02*
X14967801Y-13072984D01*
X14967801Y-12968222D02*
X14977324Y-12949174D01*
X14977324Y-12949174D02*
X14996372Y-12939650D01*
X14996372Y-12939650D02*
X15024943Y-12939650D01*
X15024943Y-12939650D02*
X15043991Y-12949174D01*
X15043991Y-12949174D02*
X15053515Y-12968222D01*
X15053515Y-12968222D02*
X15053515Y-13072984D01*
X15443991Y-12863460D02*
X15272563Y-13120603D01*
X15701134Y-12872984D02*
X15720182Y-12872984D01*
X15720182Y-12872984D02*
X15739229Y-12882508D01*
X15739229Y-12882508D02*
X15748753Y-12892031D01*
X15748753Y-12892031D02*
X15758277Y-12911079D01*
X15758277Y-12911079D02*
X15767801Y-12949174D01*
X15767801Y-12949174D02*
X15767801Y-12996793D01*
X15767801Y-12996793D02*
X15758277Y-13034888D01*
X15758277Y-13034888D02*
X15748753Y-13053936D01*
X15748753Y-13053936D02*
X15739229Y-13063460D01*
X15739229Y-13063460D02*
X15720182Y-13072984D01*
X15720182Y-13072984D02*
X15701134Y-13072984D01*
X15701134Y-13072984D02*
X15682086Y-13063460D01*
X15682086Y-13063460D02*
X15672563Y-13053936D01*
X15672563Y-13053936D02*
X15663039Y-13034888D01*
X15663039Y-13034888D02*
X15653515Y-12996793D01*
X15653515Y-12996793D02*
X15653515Y-12949174D01*
X15653515Y-12949174D02*
X15663039Y-12911079D01*
X15663039Y-12911079D02*
X15672563Y-12892031D01*
X15672563Y-12892031D02*
X15682086Y-12882508D01*
X15682086Y-12882508D02*
X15701134Y-12872984D01*
X15853515Y-13053936D02*
X15863039Y-13063460D01*
X15863039Y-13063460D02*
X15853515Y-13072984D01*
X15853515Y-13072984D02*
X15843991Y-13063460D01*
X15843991Y-13063460D02*
X15853515Y-13053936D01*
X15853515Y-13053936D02*
X15853515Y-13072984D01*
X15986848Y-12872984D02*
X16005896Y-12872984D01*
X16005896Y-12872984D02*
X16024944Y-12882508D01*
X16024944Y-12882508D02*
X16034467Y-12892031D01*
X16034467Y-12892031D02*
X16043991Y-12911079D01*
X16043991Y-12911079D02*
X16053515Y-12949174D01*
X16053515Y-12949174D02*
X16053515Y-12996793D01*
X16053515Y-12996793D02*
X16043991Y-13034888D01*
X16043991Y-13034888D02*
X16034467Y-13053936D01*
X16034467Y-13053936D02*
X16024944Y-13063460D01*
X16024944Y-13063460D02*
X16005896Y-13072984D01*
X16005896Y-13072984D02*
X15986848Y-13072984D01*
X15986848Y-13072984D02*
X15967801Y-13063460D01*
X15967801Y-13063460D02*
X15958277Y-13053936D01*
X15958277Y-13053936D02*
X15948753Y-13034888D01*
X15948753Y-13034888D02*
X15939229Y-12996793D01*
X15939229Y-12996793D02*
X15939229Y-12949174D01*
X15939229Y-12949174D02*
X15948753Y-12911079D01*
X15948753Y-12911079D02*
X15958277Y-12892031D01*
X15958277Y-12892031D02*
X15967801Y-12882508D01*
X15967801Y-12882508D02*
X15986848Y-12872984D01*
X16243991Y-13072984D02*
X16129706Y-13072984D01*
X16186848Y-13072984D02*
X16186848Y-12872984D01*
X16186848Y-12872984D02*
X16167801Y-12901555D01*
X16167801Y-12901555D02*
X16148753Y-12920603D01*
X16148753Y-12920603D02*
X16129706Y-12930127D01*
X16434467Y-13072984D02*
X16320182Y-13072984D01*
X16377325Y-13072984D02*
X16377325Y-12872984D01*
X16377325Y-12872984D02*
X16358277Y-12901555D01*
X16358277Y-12901555D02*
X16339229Y-12920603D01*
X16339229Y-12920603D02*
X16320182Y-12930127D01*
X16548753Y-12958698D02*
X16529706Y-12949174D01*
X16529706Y-12949174D02*
X16520182Y-12939650D01*
X16520182Y-12939650D02*
X16510658Y-12920603D01*
X16510658Y-12920603D02*
X16510658Y-12911079D01*
X16510658Y-12911079D02*
X16520182Y-12892031D01*
X16520182Y-12892031D02*
X16529706Y-12882508D01*
X16529706Y-12882508D02*
X16548753Y-12872984D01*
X16548753Y-12872984D02*
X16586848Y-12872984D01*
X16586848Y-12872984D02*
X16605896Y-12882508D01*
X16605896Y-12882508D02*
X16615420Y-12892031D01*
X16615420Y-12892031D02*
X16624944Y-12911079D01*
X16624944Y-12911079D02*
X16624944Y-12920603D01*
X16624944Y-12920603D02*
X16615420Y-12939650D01*
X16615420Y-12939650D02*
X16605896Y-12949174D01*
X16605896Y-12949174D02*
X16586848Y-12958698D01*
X16586848Y-12958698D02*
X16548753Y-12958698D01*
X16548753Y-12958698D02*
X16529706Y-12968222D01*
X16529706Y-12968222D02*
X16520182Y-12977746D01*
X16520182Y-12977746D02*
X16510658Y-12996793D01*
X16510658Y-12996793D02*
X16510658Y-13034888D01*
X16510658Y-13034888D02*
X16520182Y-13053936D01*
X16520182Y-13053936D02*
X16529706Y-13063460D01*
X16529706Y-13063460D02*
X16548753Y-13072984D01*
X16548753Y-13072984D02*
X16586848Y-13072984D01*
X16586848Y-13072984D02*
X16605896Y-13063460D01*
X16605896Y-13063460D02*
X16615420Y-13053936D01*
X16615420Y-13053936D02*
X16624944Y-13034888D01*
X16624944Y-13034888D02*
X16624944Y-12996793D01*
X16624944Y-12996793D02*
X16615420Y-12977746D01*
X16615420Y-12977746D02*
X16605896Y-12968222D01*
X16605896Y-12968222D02*
X16586848Y-12958698D01*
X16701134Y-12872984D02*
X16701134Y-12911079D01*
X16777325Y-12872984D02*
X16777325Y-12911079D01*
X17072563Y-13149174D02*
X17063039Y-13139650D01*
X17063039Y-13139650D02*
X17043991Y-13111079D01*
X17043991Y-13111079D02*
X17034468Y-13092031D01*
X17034468Y-13092031D02*
X17024944Y-13063460D01*
X17024944Y-13063460D02*
X17015420Y-13015841D01*
X17015420Y-13015841D02*
X17015420Y-12977746D01*
X17015420Y-12977746D02*
X17024944Y-12930127D01*
X17024944Y-12930127D02*
X17034468Y-12901555D01*
X17034468Y-12901555D02*
X17043991Y-12882508D01*
X17043991Y-12882508D02*
X17063039Y-12853936D01*
X17063039Y-12853936D02*
X17072563Y-12844412D01*
X17253515Y-13072984D02*
X17139230Y-13072984D01*
X17196372Y-13072984D02*
X17196372Y-12872984D01*
X17196372Y-12872984D02*
X17177325Y-12901555D01*
X17177325Y-12901555D02*
X17158277Y-12920603D01*
X17158277Y-12920603D02*
X17139230Y-12930127D01*
X17434468Y-12872984D02*
X17339230Y-12872984D01*
X17339230Y-12872984D02*
X17329706Y-12968222D01*
X17329706Y-12968222D02*
X17339230Y-12958698D01*
X17339230Y-12958698D02*
X17358277Y-12949174D01*
X17358277Y-12949174D02*
X17405896Y-12949174D01*
X17405896Y-12949174D02*
X17424944Y-12958698D01*
X17424944Y-12958698D02*
X17434468Y-12968222D01*
X17434468Y-12968222D02*
X17443991Y-12987269D01*
X17443991Y-12987269D02*
X17443991Y-13034888D01*
X17443991Y-13034888D02*
X17434468Y-13053936D01*
X17434468Y-13053936D02*
X17424944Y-13063460D01*
X17424944Y-13063460D02*
X17405896Y-13072984D01*
X17405896Y-13072984D02*
X17358277Y-13072984D01*
X17358277Y-13072984D02*
X17339230Y-13063460D01*
X17339230Y-13063460D02*
X17329706Y-13053936D01*
X17682087Y-13072984D02*
X17682087Y-12872984D01*
X17767801Y-13072984D02*
X17767801Y-12968222D01*
X17767801Y-12968222D02*
X17758277Y-12949174D01*
X17758277Y-12949174D02*
X17739230Y-12939650D01*
X17739230Y-12939650D02*
X17710658Y-12939650D01*
X17710658Y-12939650D02*
X17691611Y-12949174D01*
X17691611Y-12949174D02*
X17682087Y-12958698D01*
X17891611Y-13072984D02*
X17872563Y-13063460D01*
X17872563Y-13063460D02*
X17863039Y-13053936D01*
X17863039Y-13053936D02*
X17853515Y-13034888D01*
X17853515Y-13034888D02*
X17853515Y-12977746D01*
X17853515Y-12977746D02*
X17863039Y-12958698D01*
X17863039Y-12958698D02*
X17872563Y-12949174D01*
X17872563Y-12949174D02*
X17891611Y-12939650D01*
X17891611Y-12939650D02*
X17920182Y-12939650D01*
X17920182Y-12939650D02*
X17939230Y-12949174D01*
X17939230Y-12949174D02*
X17948753Y-12958698D01*
X17948753Y-12958698D02*
X17958277Y-12977746D01*
X17958277Y-12977746D02*
X17958277Y-13034888D01*
X17958277Y-13034888D02*
X17948753Y-13053936D01*
X17948753Y-13053936D02*
X17939230Y-13063460D01*
X17939230Y-13063460D02*
X17920182Y-13072984D01*
X17920182Y-13072984D02*
X17891611Y-13072984D01*
X18072563Y-13072984D02*
X18053515Y-13063460D01*
X18053515Y-13063460D02*
X18043992Y-13044412D01*
X18043992Y-13044412D02*
X18043992Y-12872984D01*
X18224944Y-13063460D02*
X18205896Y-13072984D01*
X18205896Y-13072984D02*
X18167801Y-13072984D01*
X18167801Y-13072984D02*
X18148753Y-13063460D01*
X18148753Y-13063460D02*
X18139230Y-13044412D01*
X18139230Y-13044412D02*
X18139230Y-12968222D01*
X18139230Y-12968222D02*
X18148753Y-12949174D01*
X18148753Y-12949174D02*
X18167801Y-12939650D01*
X18167801Y-12939650D02*
X18205896Y-12939650D01*
X18205896Y-12939650D02*
X18224944Y-12949174D01*
X18224944Y-12949174D02*
X18234468Y-12968222D01*
X18234468Y-12968222D02*
X18234468Y-12987269D01*
X18234468Y-12987269D02*
X18139230Y-13006317D01*
X18310658Y-13063460D02*
X18329706Y-13072984D01*
X18329706Y-13072984D02*
X18367801Y-13072984D01*
X18367801Y-13072984D02*
X18386849Y-13063460D01*
X18386849Y-13063460D02*
X18396373Y-13044412D01*
X18396373Y-13044412D02*
X18396373Y-13034888D01*
X18396373Y-13034888D02*
X18386849Y-13015841D01*
X18386849Y-13015841D02*
X18367801Y-13006317D01*
X18367801Y-13006317D02*
X18339230Y-13006317D01*
X18339230Y-13006317D02*
X18320182Y-12996793D01*
X18320182Y-12996793D02*
X18310658Y-12977746D01*
X18310658Y-12977746D02*
X18310658Y-12968222D01*
X18310658Y-12968222D02*
X18320182Y-12949174D01*
X18320182Y-12949174D02*
X18339230Y-12939650D01*
X18339230Y-12939650D02*
X18367801Y-12939650D01*
X18367801Y-12939650D02*
X18386849Y-12949174D01*
X18463039Y-13149174D02*
X18472563Y-13139650D01*
X18472563Y-13139650D02*
X18491611Y-13111079D01*
X18491611Y-13111079D02*
X18501134Y-13092031D01*
X18501134Y-13092031D02*
X18510658Y-13063460D01*
X18510658Y-13063460D02*
X18520182Y-13015841D01*
X18520182Y-13015841D02*
X18520182Y-12977746D01*
X18520182Y-12977746D02*
X18510658Y-12930127D01*
X18510658Y-12930127D02*
X18501134Y-12901555D01*
X18501134Y-12901555D02*
X18491611Y-12882508D01*
X18491611Y-12882508D02*
X18472563Y-12853936D01*
X18472563Y-12853936D02*
X18463039Y-12844412D01*
D12*
X13477500Y-13225500D02*
X13477500Y-13265500D01*
X13457500Y-13245500D02*
X13497500Y-13245500D01*
D11*
X13796372Y-13136984D02*
X13815420Y-13136984D01*
X13815420Y-13136984D02*
X13834467Y-13146508D01*
X13834467Y-13146508D02*
X13843991Y-13156031D01*
X13843991Y-13156031D02*
X13853515Y-13175079D01*
X13853515Y-13175079D02*
X13863039Y-13213174D01*
X13863039Y-13213174D02*
X13863039Y-13260793D01*
X13863039Y-13260793D02*
X13853515Y-13298888D01*
X13853515Y-13298888D02*
X13843991Y-13317936D01*
X13843991Y-13317936D02*
X13834467Y-13327460D01*
X13834467Y-13327460D02*
X13815420Y-13336984D01*
X13815420Y-13336984D02*
X13796372Y-13336984D01*
X13796372Y-13336984D02*
X13777324Y-13327460D01*
X13777324Y-13327460D02*
X13767801Y-13317936D01*
X13767801Y-13317936D02*
X13758277Y-13298888D01*
X13758277Y-13298888D02*
X13748753Y-13260793D01*
X13748753Y-13260793D02*
X13748753Y-13213174D01*
X13748753Y-13213174D02*
X13758277Y-13175079D01*
X13758277Y-13175079D02*
X13767801Y-13156031D01*
X13767801Y-13156031D02*
X13777324Y-13146508D01*
X13777324Y-13146508D02*
X13796372Y-13136984D01*
X13948753Y-13317936D02*
X13958277Y-13327460D01*
X13958277Y-13327460D02*
X13948753Y-13336984D01*
X13948753Y-13336984D02*
X13939229Y-13327460D01*
X13939229Y-13327460D02*
X13948753Y-13317936D01*
X13948753Y-13317936D02*
X13948753Y-13336984D01*
X14129705Y-13203650D02*
X14129705Y-13336984D01*
X14082086Y-13127460D02*
X14034467Y-13270317D01*
X14034467Y-13270317D02*
X14158277Y-13270317D01*
X14272562Y-13136984D02*
X14291610Y-13136984D01*
X14291610Y-13136984D02*
X14310658Y-13146508D01*
X14310658Y-13146508D02*
X14320182Y-13156031D01*
X14320182Y-13156031D02*
X14329705Y-13175079D01*
X14329705Y-13175079D02*
X14339229Y-13213174D01*
X14339229Y-13213174D02*
X14339229Y-13260793D01*
X14339229Y-13260793D02*
X14329705Y-13298888D01*
X14329705Y-13298888D02*
X14320182Y-13317936D01*
X14320182Y-13317936D02*
X14310658Y-13327460D01*
X14310658Y-13327460D02*
X14291610Y-13336984D01*
X14291610Y-13336984D02*
X14272562Y-13336984D01*
X14272562Y-13336984D02*
X14253515Y-13327460D01*
X14253515Y-13327460D02*
X14243991Y-13317936D01*
X14243991Y-13317936D02*
X14234467Y-13298888D01*
X14234467Y-13298888D02*
X14224943Y-13260793D01*
X14224943Y-13260793D02*
X14224943Y-13213174D01*
X14224943Y-13213174D02*
X14234467Y-13175079D01*
X14234467Y-13175079D02*
X14243991Y-13156031D01*
X14243991Y-13156031D02*
X14253515Y-13146508D01*
X14253515Y-13146508D02*
X14272562Y-13136984D01*
X14463039Y-13136984D02*
X14482086Y-13136984D01*
X14482086Y-13136984D02*
X14501134Y-13146508D01*
X14501134Y-13146508D02*
X14510658Y-13156031D01*
X14510658Y-13156031D02*
X14520182Y-13175079D01*
X14520182Y-13175079D02*
X14529705Y-13213174D01*
X14529705Y-13213174D02*
X14529705Y-13260793D01*
X14529705Y-13260793D02*
X14520182Y-13298888D01*
X14520182Y-13298888D02*
X14510658Y-13317936D01*
X14510658Y-13317936D02*
X14501134Y-13327460D01*
X14501134Y-13327460D02*
X14482086Y-13336984D01*
X14482086Y-13336984D02*
X14463039Y-13336984D01*
X14463039Y-13336984D02*
X14443991Y-13327460D01*
X14443991Y-13327460D02*
X14434467Y-13317936D01*
X14434467Y-13317936D02*
X14424943Y-13298888D01*
X14424943Y-13298888D02*
X14415420Y-13260793D01*
X14415420Y-13260793D02*
X14415420Y-13213174D01*
X14415420Y-13213174D02*
X14424943Y-13175079D01*
X14424943Y-13175079D02*
X14434467Y-13156031D01*
X14434467Y-13156031D02*
X14443991Y-13146508D01*
X14443991Y-13146508D02*
X14463039Y-13136984D01*
X14615420Y-13336984D02*
X14615420Y-13203650D01*
X14615420Y-13222698D02*
X14624943Y-13213174D01*
X14624943Y-13213174D02*
X14643991Y-13203650D01*
X14643991Y-13203650D02*
X14672563Y-13203650D01*
X14672563Y-13203650D02*
X14691610Y-13213174D01*
X14691610Y-13213174D02*
X14701134Y-13232222D01*
X14701134Y-13232222D02*
X14701134Y-13336984D01*
X14701134Y-13232222D02*
X14710658Y-13213174D01*
X14710658Y-13213174D02*
X14729705Y-13203650D01*
X14729705Y-13203650D02*
X14758277Y-13203650D01*
X14758277Y-13203650D02*
X14777324Y-13213174D01*
X14777324Y-13213174D02*
X14786848Y-13232222D01*
X14786848Y-13232222D02*
X14786848Y-13336984D01*
X14882086Y-13336984D02*
X14882086Y-13203650D01*
X14882086Y-13222698D02*
X14891610Y-13213174D01*
X14891610Y-13213174D02*
X14910658Y-13203650D01*
X14910658Y-13203650D02*
X14939229Y-13203650D01*
X14939229Y-13203650D02*
X14958277Y-13213174D01*
X14958277Y-13213174D02*
X14967801Y-13232222D01*
X14967801Y-13232222D02*
X14967801Y-13336984D01*
X14967801Y-13232222D02*
X14977324Y-13213174D01*
X14977324Y-13213174D02*
X14996372Y-13203650D01*
X14996372Y-13203650D02*
X15024943Y-13203650D01*
X15024943Y-13203650D02*
X15043991Y-13213174D01*
X15043991Y-13213174D02*
X15053515Y-13232222D01*
X15053515Y-13232222D02*
X15053515Y-13336984D01*
X15443991Y-13127460D02*
X15272563Y-13384603D01*
X15701134Y-13136984D02*
X15720182Y-13136984D01*
X15720182Y-13136984D02*
X15739229Y-13146508D01*
X15739229Y-13146508D02*
X15748753Y-13156031D01*
X15748753Y-13156031D02*
X15758277Y-13175079D01*
X15758277Y-13175079D02*
X15767801Y-13213174D01*
X15767801Y-13213174D02*
X15767801Y-13260793D01*
X15767801Y-13260793D02*
X15758277Y-13298888D01*
X15758277Y-13298888D02*
X15748753Y-13317936D01*
X15748753Y-13317936D02*
X15739229Y-13327460D01*
X15739229Y-13327460D02*
X15720182Y-13336984D01*
X15720182Y-13336984D02*
X15701134Y-13336984D01*
X15701134Y-13336984D02*
X15682086Y-13327460D01*
X15682086Y-13327460D02*
X15672563Y-13317936D01*
X15672563Y-13317936D02*
X15663039Y-13298888D01*
X15663039Y-13298888D02*
X15653515Y-13260793D01*
X15653515Y-13260793D02*
X15653515Y-13213174D01*
X15653515Y-13213174D02*
X15663039Y-13175079D01*
X15663039Y-13175079D02*
X15672563Y-13156031D01*
X15672563Y-13156031D02*
X15682086Y-13146508D01*
X15682086Y-13146508D02*
X15701134Y-13136984D01*
X15853515Y-13317936D02*
X15863039Y-13327460D01*
X15863039Y-13327460D02*
X15853515Y-13336984D01*
X15853515Y-13336984D02*
X15843991Y-13327460D01*
X15843991Y-13327460D02*
X15853515Y-13317936D01*
X15853515Y-13317936D02*
X15853515Y-13336984D01*
X15986848Y-13136984D02*
X16005896Y-13136984D01*
X16005896Y-13136984D02*
X16024944Y-13146508D01*
X16024944Y-13146508D02*
X16034467Y-13156031D01*
X16034467Y-13156031D02*
X16043991Y-13175079D01*
X16043991Y-13175079D02*
X16053515Y-13213174D01*
X16053515Y-13213174D02*
X16053515Y-13260793D01*
X16053515Y-13260793D02*
X16043991Y-13298888D01*
X16043991Y-13298888D02*
X16034467Y-13317936D01*
X16034467Y-13317936D02*
X16024944Y-13327460D01*
X16024944Y-13327460D02*
X16005896Y-13336984D01*
X16005896Y-13336984D02*
X15986848Y-13336984D01*
X15986848Y-13336984D02*
X15967801Y-13327460D01*
X15967801Y-13327460D02*
X15958277Y-13317936D01*
X15958277Y-13317936D02*
X15948753Y-13298888D01*
X15948753Y-13298888D02*
X15939229Y-13260793D01*
X15939229Y-13260793D02*
X15939229Y-13213174D01*
X15939229Y-13213174D02*
X15948753Y-13175079D01*
X15948753Y-13175079D02*
X15958277Y-13156031D01*
X15958277Y-13156031D02*
X15967801Y-13146508D01*
X15967801Y-13146508D02*
X15986848Y-13136984D01*
X16243991Y-13336984D02*
X16129706Y-13336984D01*
X16186848Y-13336984D02*
X16186848Y-13136984D01*
X16186848Y-13136984D02*
X16167801Y-13165555D01*
X16167801Y-13165555D02*
X16148753Y-13184603D01*
X16148753Y-13184603D02*
X16129706Y-13194127D01*
X16424944Y-13136984D02*
X16329706Y-13136984D01*
X16329706Y-13136984D02*
X16320182Y-13232222D01*
X16320182Y-13232222D02*
X16329706Y-13222698D01*
X16329706Y-13222698D02*
X16348753Y-13213174D01*
X16348753Y-13213174D02*
X16396372Y-13213174D01*
X16396372Y-13213174D02*
X16415420Y-13222698D01*
X16415420Y-13222698D02*
X16424944Y-13232222D01*
X16424944Y-13232222D02*
X16434467Y-13251269D01*
X16434467Y-13251269D02*
X16434467Y-13298888D01*
X16434467Y-13298888D02*
X16424944Y-13317936D01*
X16424944Y-13317936D02*
X16415420Y-13327460D01*
X16415420Y-13327460D02*
X16396372Y-13336984D01*
X16396372Y-13336984D02*
X16348753Y-13336984D01*
X16348753Y-13336984D02*
X16329706Y-13327460D01*
X16329706Y-13327460D02*
X16320182Y-13317936D01*
X16501134Y-13136984D02*
X16634467Y-13136984D01*
X16634467Y-13136984D02*
X16548753Y-13336984D01*
X16701134Y-13136984D02*
X16701134Y-13175079D01*
X16777325Y-13136984D02*
X16777325Y-13175079D01*
X17072563Y-13413174D02*
X17063039Y-13403650D01*
X17063039Y-13403650D02*
X17043991Y-13375079D01*
X17043991Y-13375079D02*
X17034468Y-13356031D01*
X17034468Y-13356031D02*
X17024944Y-13327460D01*
X17024944Y-13327460D02*
X17015420Y-13279841D01*
X17015420Y-13279841D02*
X17015420Y-13241746D01*
X17015420Y-13241746D02*
X17024944Y-13194127D01*
X17024944Y-13194127D02*
X17034468Y-13165555D01*
X17034468Y-13165555D02*
X17043991Y-13146508D01*
X17043991Y-13146508D02*
X17063039Y-13117936D01*
X17063039Y-13117936D02*
X17072563Y-13108412D01*
X17129706Y-13136984D02*
X17253515Y-13136984D01*
X17253515Y-13136984D02*
X17186849Y-13213174D01*
X17186849Y-13213174D02*
X17215420Y-13213174D01*
X17215420Y-13213174D02*
X17234468Y-13222698D01*
X17234468Y-13222698D02*
X17243991Y-13232222D01*
X17243991Y-13232222D02*
X17253515Y-13251269D01*
X17253515Y-13251269D02*
X17253515Y-13298888D01*
X17253515Y-13298888D02*
X17243991Y-13317936D01*
X17243991Y-13317936D02*
X17234468Y-13327460D01*
X17234468Y-13327460D02*
X17215420Y-13336984D01*
X17215420Y-13336984D02*
X17158277Y-13336984D01*
X17158277Y-13336984D02*
X17139230Y-13327460D01*
X17139230Y-13327460D02*
X17129706Y-13317936D01*
X17329706Y-13156031D02*
X17339230Y-13146508D01*
X17339230Y-13146508D02*
X17358277Y-13136984D01*
X17358277Y-13136984D02*
X17405896Y-13136984D01*
X17405896Y-13136984D02*
X17424944Y-13146508D01*
X17424944Y-13146508D02*
X17434468Y-13156031D01*
X17434468Y-13156031D02*
X17443991Y-13175079D01*
X17443991Y-13175079D02*
X17443991Y-13194127D01*
X17443991Y-13194127D02*
X17434468Y-13222698D01*
X17434468Y-13222698D02*
X17320182Y-13336984D01*
X17320182Y-13336984D02*
X17443991Y-13336984D01*
X17682087Y-13336984D02*
X17682087Y-13136984D01*
X17767801Y-13336984D02*
X17767801Y-13232222D01*
X17767801Y-13232222D02*
X17758277Y-13213174D01*
X17758277Y-13213174D02*
X17739230Y-13203650D01*
X17739230Y-13203650D02*
X17710658Y-13203650D01*
X17710658Y-13203650D02*
X17691611Y-13213174D01*
X17691611Y-13213174D02*
X17682087Y-13222698D01*
X17891611Y-13336984D02*
X17872563Y-13327460D01*
X17872563Y-13327460D02*
X17863039Y-13317936D01*
X17863039Y-13317936D02*
X17853515Y-13298888D01*
X17853515Y-13298888D02*
X17853515Y-13241746D01*
X17853515Y-13241746D02*
X17863039Y-13222698D01*
X17863039Y-13222698D02*
X17872563Y-13213174D01*
X17872563Y-13213174D02*
X17891611Y-13203650D01*
X17891611Y-13203650D02*
X17920182Y-13203650D01*
X17920182Y-13203650D02*
X17939230Y-13213174D01*
X17939230Y-13213174D02*
X17948753Y-13222698D01*
X17948753Y-13222698D02*
X17958277Y-13241746D01*
X17958277Y-13241746D02*
X17958277Y-13298888D01*
X17958277Y-13298888D02*
X17948753Y-13317936D01*
X17948753Y-13317936D02*
X17939230Y-13327460D01*
X17939230Y-13327460D02*
X17920182Y-13336984D01*
X17920182Y-13336984D02*
X17891611Y-13336984D01*
X18072563Y-13336984D02*
X18053515Y-13327460D01*
X18053515Y-13327460D02*
X18043992Y-13308412D01*
X18043992Y-13308412D02*
X18043992Y-13136984D01*
X18224944Y-13327460D02*
X18205896Y-13336984D01*
X18205896Y-13336984D02*
X18167801Y-13336984D01*
X18167801Y-13336984D02*
X18148753Y-13327460D01*
X18148753Y-13327460D02*
X18139230Y-13308412D01*
X18139230Y-13308412D02*
X18139230Y-13232222D01*
X18139230Y-13232222D02*
X18148753Y-13213174D01*
X18148753Y-13213174D02*
X18167801Y-13203650D01*
X18167801Y-13203650D02*
X18205896Y-13203650D01*
X18205896Y-13203650D02*
X18224944Y-13213174D01*
X18224944Y-13213174D02*
X18234468Y-13232222D01*
X18234468Y-13232222D02*
X18234468Y-13251269D01*
X18234468Y-13251269D02*
X18139230Y-13270317D01*
X18310658Y-13327460D02*
X18329706Y-13336984D01*
X18329706Y-13336984D02*
X18367801Y-13336984D01*
X18367801Y-13336984D02*
X18386849Y-13327460D01*
X18386849Y-13327460D02*
X18396373Y-13308412D01*
X18396373Y-13308412D02*
X18396373Y-13298888D01*
X18396373Y-13298888D02*
X18386849Y-13279841D01*
X18386849Y-13279841D02*
X18367801Y-13270317D01*
X18367801Y-13270317D02*
X18339230Y-13270317D01*
X18339230Y-13270317D02*
X18320182Y-13260793D01*
X18320182Y-13260793D02*
X18310658Y-13241746D01*
X18310658Y-13241746D02*
X18310658Y-13232222D01*
X18310658Y-13232222D02*
X18320182Y-13213174D01*
X18320182Y-13213174D02*
X18339230Y-13203650D01*
X18339230Y-13203650D02*
X18367801Y-13203650D01*
X18367801Y-13203650D02*
X18386849Y-13213174D01*
X18463039Y-13413174D02*
X18472563Y-13403650D01*
X18472563Y-13403650D02*
X18491611Y-13375079D01*
X18491611Y-13375079D02*
X18501134Y-13356031D01*
X18501134Y-13356031D02*
X18510658Y-13327460D01*
X18510658Y-13327460D02*
X18520182Y-13279841D01*
X18520182Y-13279841D02*
X18520182Y-13241746D01*
X18520182Y-13241746D02*
X18510658Y-13194127D01*
X18510658Y-13194127D02*
X18501134Y-13165555D01*
X18501134Y-13165555D02*
X18491611Y-13146508D01*
X18491611Y-13146508D02*
X18472563Y-13117936D01*
X18472563Y-13117936D02*
X18463039Y-13108412D01*
D12*
X13482856Y-13544856D02*
X13482856Y-13474144D01*
X13412144Y-13474144D01*
X13412144Y-13544856D01*
X13482856Y-13544856D01*
D11*
X13863039Y-13600984D02*
X13748753Y-13600984D01*
X13805896Y-13600984D02*
X13805896Y-13400984D01*
X13805896Y-13400984D02*
X13786848Y-13429555D01*
X13786848Y-13429555D02*
X13767801Y-13448603D01*
X13767801Y-13448603D02*
X13748753Y-13458127D01*
X13948753Y-13581936D02*
X13958277Y-13591460D01*
X13958277Y-13591460D02*
X13948753Y-13600984D01*
X13948753Y-13600984D02*
X13939229Y-13591460D01*
X13939229Y-13591460D02*
X13948753Y-13581936D01*
X13948753Y-13581936D02*
X13948753Y-13600984D01*
X14082086Y-13400984D02*
X14101134Y-13400984D01*
X14101134Y-13400984D02*
X14120182Y-13410508D01*
X14120182Y-13410508D02*
X14129705Y-13420031D01*
X14129705Y-13420031D02*
X14139229Y-13439079D01*
X14139229Y-13439079D02*
X14148753Y-13477174D01*
X14148753Y-13477174D02*
X14148753Y-13524793D01*
X14148753Y-13524793D02*
X14139229Y-13562888D01*
X14139229Y-13562888D02*
X14129705Y-13581936D01*
X14129705Y-13581936D02*
X14120182Y-13591460D01*
X14120182Y-13591460D02*
X14101134Y-13600984D01*
X14101134Y-13600984D02*
X14082086Y-13600984D01*
X14082086Y-13600984D02*
X14063039Y-13591460D01*
X14063039Y-13591460D02*
X14053515Y-13581936D01*
X14053515Y-13581936D02*
X14043991Y-13562888D01*
X14043991Y-13562888D02*
X14034467Y-13524793D01*
X14034467Y-13524793D02*
X14034467Y-13477174D01*
X14034467Y-13477174D02*
X14043991Y-13439079D01*
X14043991Y-13439079D02*
X14053515Y-13420031D01*
X14053515Y-13420031D02*
X14063039Y-13410508D01*
X14063039Y-13410508D02*
X14082086Y-13400984D01*
X14272562Y-13400984D02*
X14291610Y-13400984D01*
X14291610Y-13400984D02*
X14310658Y-13410508D01*
X14310658Y-13410508D02*
X14320182Y-13420031D01*
X14320182Y-13420031D02*
X14329705Y-13439079D01*
X14329705Y-13439079D02*
X14339229Y-13477174D01*
X14339229Y-13477174D02*
X14339229Y-13524793D01*
X14339229Y-13524793D02*
X14329705Y-13562888D01*
X14329705Y-13562888D02*
X14320182Y-13581936D01*
X14320182Y-13581936D02*
X14310658Y-13591460D01*
X14310658Y-13591460D02*
X14291610Y-13600984D01*
X14291610Y-13600984D02*
X14272562Y-13600984D01*
X14272562Y-13600984D02*
X14253515Y-13591460D01*
X14253515Y-13591460D02*
X14243991Y-13581936D01*
X14243991Y-13581936D02*
X14234467Y-13562888D01*
X14234467Y-13562888D02*
X14224943Y-13524793D01*
X14224943Y-13524793D02*
X14224943Y-13477174D01*
X14224943Y-13477174D02*
X14234467Y-13439079D01*
X14234467Y-13439079D02*
X14243991Y-13420031D01*
X14243991Y-13420031D02*
X14253515Y-13410508D01*
X14253515Y-13410508D02*
X14272562Y-13400984D01*
X14463039Y-13400984D02*
X14482086Y-13400984D01*
X14482086Y-13400984D02*
X14501134Y-13410508D01*
X14501134Y-13410508D02*
X14510658Y-13420031D01*
X14510658Y-13420031D02*
X14520182Y-13439079D01*
X14520182Y-13439079D02*
X14529705Y-13477174D01*
X14529705Y-13477174D02*
X14529705Y-13524793D01*
X14529705Y-13524793D02*
X14520182Y-13562888D01*
X14520182Y-13562888D02*
X14510658Y-13581936D01*
X14510658Y-13581936D02*
X14501134Y-13591460D01*
X14501134Y-13591460D02*
X14482086Y-13600984D01*
X14482086Y-13600984D02*
X14463039Y-13600984D01*
X14463039Y-13600984D02*
X14443991Y-13591460D01*
X14443991Y-13591460D02*
X14434467Y-13581936D01*
X14434467Y-13581936D02*
X14424943Y-13562888D01*
X14424943Y-13562888D02*
X14415420Y-13524793D01*
X14415420Y-13524793D02*
X14415420Y-13477174D01*
X14415420Y-13477174D02*
X14424943Y-13439079D01*
X14424943Y-13439079D02*
X14434467Y-13420031D01*
X14434467Y-13420031D02*
X14443991Y-13410508D01*
X14443991Y-13410508D02*
X14463039Y-13400984D01*
X14615420Y-13600984D02*
X14615420Y-13467650D01*
X14615420Y-13486698D02*
X14624943Y-13477174D01*
X14624943Y-13477174D02*
X14643991Y-13467650D01*
X14643991Y-13467650D02*
X14672563Y-13467650D01*
X14672563Y-13467650D02*
X14691610Y-13477174D01*
X14691610Y-13477174D02*
X14701134Y-13496222D01*
X14701134Y-13496222D02*
X14701134Y-13600984D01*
X14701134Y-13496222D02*
X14710658Y-13477174D01*
X14710658Y-13477174D02*
X14729705Y-13467650D01*
X14729705Y-13467650D02*
X14758277Y-13467650D01*
X14758277Y-13467650D02*
X14777324Y-13477174D01*
X14777324Y-13477174D02*
X14786848Y-13496222D01*
X14786848Y-13496222D02*
X14786848Y-13600984D01*
X14882086Y-13600984D02*
X14882086Y-13467650D01*
X14882086Y-13486698D02*
X14891610Y-13477174D01*
X14891610Y-13477174D02*
X14910658Y-13467650D01*
X14910658Y-13467650D02*
X14939229Y-13467650D01*
X14939229Y-13467650D02*
X14958277Y-13477174D01*
X14958277Y-13477174D02*
X14967801Y-13496222D01*
X14967801Y-13496222D02*
X14967801Y-13600984D01*
X14967801Y-13496222D02*
X14977324Y-13477174D01*
X14977324Y-13477174D02*
X14996372Y-13467650D01*
X14996372Y-13467650D02*
X15024943Y-13467650D01*
X15024943Y-13467650D02*
X15043991Y-13477174D01*
X15043991Y-13477174D02*
X15053515Y-13496222D01*
X15053515Y-13496222D02*
X15053515Y-13600984D01*
X15443991Y-13391460D02*
X15272563Y-13648603D01*
X15701134Y-13400984D02*
X15720182Y-13400984D01*
X15720182Y-13400984D02*
X15739229Y-13410508D01*
X15739229Y-13410508D02*
X15748753Y-13420031D01*
X15748753Y-13420031D02*
X15758277Y-13439079D01*
X15758277Y-13439079D02*
X15767801Y-13477174D01*
X15767801Y-13477174D02*
X15767801Y-13524793D01*
X15767801Y-13524793D02*
X15758277Y-13562888D01*
X15758277Y-13562888D02*
X15748753Y-13581936D01*
X15748753Y-13581936D02*
X15739229Y-13591460D01*
X15739229Y-13591460D02*
X15720182Y-13600984D01*
X15720182Y-13600984D02*
X15701134Y-13600984D01*
X15701134Y-13600984D02*
X15682086Y-13591460D01*
X15682086Y-13591460D02*
X15672563Y-13581936D01*
X15672563Y-13581936D02*
X15663039Y-13562888D01*
X15663039Y-13562888D02*
X15653515Y-13524793D01*
X15653515Y-13524793D02*
X15653515Y-13477174D01*
X15653515Y-13477174D02*
X15663039Y-13439079D01*
X15663039Y-13439079D02*
X15672563Y-13420031D01*
X15672563Y-13420031D02*
X15682086Y-13410508D01*
X15682086Y-13410508D02*
X15701134Y-13400984D01*
X15853515Y-13581936D02*
X15863039Y-13591460D01*
X15863039Y-13591460D02*
X15853515Y-13600984D01*
X15853515Y-13600984D02*
X15843991Y-13591460D01*
X15843991Y-13591460D02*
X15853515Y-13581936D01*
X15853515Y-13581936D02*
X15853515Y-13600984D01*
X15986848Y-13400984D02*
X16005896Y-13400984D01*
X16005896Y-13400984D02*
X16024944Y-13410508D01*
X16024944Y-13410508D02*
X16034467Y-13420031D01*
X16034467Y-13420031D02*
X16043991Y-13439079D01*
X16043991Y-13439079D02*
X16053515Y-13477174D01*
X16053515Y-13477174D02*
X16053515Y-13524793D01*
X16053515Y-13524793D02*
X16043991Y-13562888D01*
X16043991Y-13562888D02*
X16034467Y-13581936D01*
X16034467Y-13581936D02*
X16024944Y-13591460D01*
X16024944Y-13591460D02*
X16005896Y-13600984D01*
X16005896Y-13600984D02*
X15986848Y-13600984D01*
X15986848Y-13600984D02*
X15967801Y-13591460D01*
X15967801Y-13591460D02*
X15958277Y-13581936D01*
X15958277Y-13581936D02*
X15948753Y-13562888D01*
X15948753Y-13562888D02*
X15939229Y-13524793D01*
X15939229Y-13524793D02*
X15939229Y-13477174D01*
X15939229Y-13477174D02*
X15948753Y-13439079D01*
X15948753Y-13439079D02*
X15958277Y-13420031D01*
X15958277Y-13420031D02*
X15967801Y-13410508D01*
X15967801Y-13410508D02*
X15986848Y-13400984D01*
X16120182Y-13400984D02*
X16243991Y-13400984D01*
X16243991Y-13400984D02*
X16177325Y-13477174D01*
X16177325Y-13477174D02*
X16205896Y-13477174D01*
X16205896Y-13477174D02*
X16224944Y-13486698D01*
X16224944Y-13486698D02*
X16234467Y-13496222D01*
X16234467Y-13496222D02*
X16243991Y-13515269D01*
X16243991Y-13515269D02*
X16243991Y-13562888D01*
X16243991Y-13562888D02*
X16234467Y-13581936D01*
X16234467Y-13581936D02*
X16224944Y-13591460D01*
X16224944Y-13591460D02*
X16205896Y-13600984D01*
X16205896Y-13600984D02*
X16148753Y-13600984D01*
X16148753Y-13600984D02*
X16129706Y-13591460D01*
X16129706Y-13591460D02*
X16120182Y-13581936D01*
X16339229Y-13600984D02*
X16377325Y-13600984D01*
X16377325Y-13600984D02*
X16396372Y-13591460D01*
X16396372Y-13591460D02*
X16405896Y-13581936D01*
X16405896Y-13581936D02*
X16424944Y-13553365D01*
X16424944Y-13553365D02*
X16434467Y-13515269D01*
X16434467Y-13515269D02*
X16434467Y-13439079D01*
X16434467Y-13439079D02*
X16424944Y-13420031D01*
X16424944Y-13420031D02*
X16415420Y-13410508D01*
X16415420Y-13410508D02*
X16396372Y-13400984D01*
X16396372Y-13400984D02*
X16358277Y-13400984D01*
X16358277Y-13400984D02*
X16339229Y-13410508D01*
X16339229Y-13410508D02*
X16329706Y-13420031D01*
X16329706Y-13420031D02*
X16320182Y-13439079D01*
X16320182Y-13439079D02*
X16320182Y-13486698D01*
X16320182Y-13486698D02*
X16329706Y-13505746D01*
X16329706Y-13505746D02*
X16339229Y-13515269D01*
X16339229Y-13515269D02*
X16358277Y-13524793D01*
X16358277Y-13524793D02*
X16396372Y-13524793D01*
X16396372Y-13524793D02*
X16415420Y-13515269D01*
X16415420Y-13515269D02*
X16424944Y-13505746D01*
X16424944Y-13505746D02*
X16434467Y-13486698D01*
X16605896Y-13467650D02*
X16605896Y-13600984D01*
X16558277Y-13391460D02*
X16510658Y-13534317D01*
X16510658Y-13534317D02*
X16634467Y-13534317D01*
X16701134Y-13400984D02*
X16701134Y-13439079D01*
X16777325Y-13400984D02*
X16777325Y-13439079D01*
X17072563Y-13677174D02*
X17063039Y-13667650D01*
X17063039Y-13667650D02*
X17043991Y-13639079D01*
X17043991Y-13639079D02*
X17034468Y-13620031D01*
X17034468Y-13620031D02*
X17024944Y-13591460D01*
X17024944Y-13591460D02*
X17015420Y-13543841D01*
X17015420Y-13543841D02*
X17015420Y-13505746D01*
X17015420Y-13505746D02*
X17024944Y-13458127D01*
X17024944Y-13458127D02*
X17034468Y-13429555D01*
X17034468Y-13429555D02*
X17043991Y-13410508D01*
X17043991Y-13410508D02*
X17063039Y-13381936D01*
X17063039Y-13381936D02*
X17072563Y-13372412D01*
X17177325Y-13486698D02*
X17158277Y-13477174D01*
X17158277Y-13477174D02*
X17148753Y-13467650D01*
X17148753Y-13467650D02*
X17139230Y-13448603D01*
X17139230Y-13448603D02*
X17139230Y-13439079D01*
X17139230Y-13439079D02*
X17148753Y-13420031D01*
X17148753Y-13420031D02*
X17158277Y-13410508D01*
X17158277Y-13410508D02*
X17177325Y-13400984D01*
X17177325Y-13400984D02*
X17215420Y-13400984D01*
X17215420Y-13400984D02*
X17234468Y-13410508D01*
X17234468Y-13410508D02*
X17243991Y-13420031D01*
X17243991Y-13420031D02*
X17253515Y-13439079D01*
X17253515Y-13439079D02*
X17253515Y-13448603D01*
X17253515Y-13448603D02*
X17243991Y-13467650D01*
X17243991Y-13467650D02*
X17234468Y-13477174D01*
X17234468Y-13477174D02*
X17215420Y-13486698D01*
X17215420Y-13486698D02*
X17177325Y-13486698D01*
X17177325Y-13486698D02*
X17158277Y-13496222D01*
X17158277Y-13496222D02*
X17148753Y-13505746D01*
X17148753Y-13505746D02*
X17139230Y-13524793D01*
X17139230Y-13524793D02*
X17139230Y-13562888D01*
X17139230Y-13562888D02*
X17148753Y-13581936D01*
X17148753Y-13581936D02*
X17158277Y-13591460D01*
X17158277Y-13591460D02*
X17177325Y-13600984D01*
X17177325Y-13600984D02*
X17215420Y-13600984D01*
X17215420Y-13600984D02*
X17234468Y-13591460D01*
X17234468Y-13591460D02*
X17243991Y-13581936D01*
X17243991Y-13581936D02*
X17253515Y-13562888D01*
X17253515Y-13562888D02*
X17253515Y-13524793D01*
X17253515Y-13524793D02*
X17243991Y-13505746D01*
X17243991Y-13505746D02*
X17234468Y-13496222D01*
X17234468Y-13496222D02*
X17215420Y-13486698D01*
X17491611Y-13600984D02*
X17491611Y-13400984D01*
X17577325Y-13600984D02*
X17577325Y-13496222D01*
X17577325Y-13496222D02*
X17567801Y-13477174D01*
X17567801Y-13477174D02*
X17548753Y-13467650D01*
X17548753Y-13467650D02*
X17520182Y-13467650D01*
X17520182Y-13467650D02*
X17501134Y-13477174D01*
X17501134Y-13477174D02*
X17491611Y-13486698D01*
X17701134Y-13600984D02*
X17682087Y-13591460D01*
X17682087Y-13591460D02*
X17672563Y-13581936D01*
X17672563Y-13581936D02*
X17663039Y-13562888D01*
X17663039Y-13562888D02*
X17663039Y-13505746D01*
X17663039Y-13505746D02*
X17672563Y-13486698D01*
X17672563Y-13486698D02*
X17682087Y-13477174D01*
X17682087Y-13477174D02*
X17701134Y-13467650D01*
X17701134Y-13467650D02*
X17729706Y-13467650D01*
X17729706Y-13467650D02*
X17748753Y-13477174D01*
X17748753Y-13477174D02*
X17758277Y-13486698D01*
X17758277Y-13486698D02*
X17767801Y-13505746D01*
X17767801Y-13505746D02*
X17767801Y-13562888D01*
X17767801Y-13562888D02*
X17758277Y-13581936D01*
X17758277Y-13581936D02*
X17748753Y-13591460D01*
X17748753Y-13591460D02*
X17729706Y-13600984D01*
X17729706Y-13600984D02*
X17701134Y-13600984D01*
X17882087Y-13600984D02*
X17863039Y-13591460D01*
X17863039Y-13591460D02*
X17853515Y-13572412D01*
X17853515Y-13572412D02*
X17853515Y-13400984D01*
X18034468Y-13591460D02*
X18015420Y-13600984D01*
X18015420Y-13600984D02*
X17977325Y-13600984D01*
X17977325Y-13600984D02*
X17958277Y-13591460D01*
X17958277Y-13591460D02*
X17948753Y-13572412D01*
X17948753Y-13572412D02*
X17948753Y-13496222D01*
X17948753Y-13496222D02*
X17958277Y-13477174D01*
X17958277Y-13477174D02*
X17977325Y-13467650D01*
X17977325Y-13467650D02*
X18015420Y-13467650D01*
X18015420Y-13467650D02*
X18034468Y-13477174D01*
X18034468Y-13477174D02*
X18043992Y-13496222D01*
X18043992Y-13496222D02*
X18043992Y-13515269D01*
X18043992Y-13515269D02*
X17948753Y-13534317D01*
X18120182Y-13591460D02*
X18139230Y-13600984D01*
X18139230Y-13600984D02*
X18177325Y-13600984D01*
X18177325Y-13600984D02*
X18196373Y-13591460D01*
X18196373Y-13591460D02*
X18205896Y-13572412D01*
X18205896Y-13572412D02*
X18205896Y-13562888D01*
X18205896Y-13562888D02*
X18196373Y-13543841D01*
X18196373Y-13543841D02*
X18177325Y-13534317D01*
X18177325Y-13534317D02*
X18148753Y-13534317D01*
X18148753Y-13534317D02*
X18129706Y-13524793D01*
X18129706Y-13524793D02*
X18120182Y-13505746D01*
X18120182Y-13505746D02*
X18120182Y-13496222D01*
X18120182Y-13496222D02*
X18129706Y-13477174D01*
X18129706Y-13477174D02*
X18148753Y-13467650D01*
X18148753Y-13467650D02*
X18177325Y-13467650D01*
X18177325Y-13467650D02*
X18196373Y-13477174D01*
X18272563Y-13677174D02*
X18282087Y-13667650D01*
X18282087Y-13667650D02*
X18301134Y-13639079D01*
X18301134Y-13639079D02*
X18310658Y-13620031D01*
X18310658Y-13620031D02*
X18320182Y-13591460D01*
X18320182Y-13591460D02*
X18329706Y-13543841D01*
X18329706Y-13543841D02*
X18329706Y-13505746D01*
X18329706Y-13505746D02*
X18320182Y-13458127D01*
X18320182Y-13458127D02*
X18310658Y-13429555D01*
X18310658Y-13429555D02*
X18301134Y-13410508D01*
X18301134Y-13410508D02*
X18282087Y-13381936D01*
X18282087Y-13381936D02*
X18272563Y-13372412D01*
X13397500Y-13873500D02*
X13497500Y-13773500D01*
X13397500Y-13673500D01*
X13297500Y-13773500D01*
X13397500Y-13873500D01*
X13748753Y-13684031D02*
X13758277Y-13674508D01*
X13758277Y-13674508D02*
X13777324Y-13664984D01*
X13777324Y-13664984D02*
X13824943Y-13664984D01*
X13824943Y-13664984D02*
X13843991Y-13674508D01*
X13843991Y-13674508D02*
X13853515Y-13684031D01*
X13853515Y-13684031D02*
X13863039Y-13703079D01*
X13863039Y-13703079D02*
X13863039Y-13722127D01*
X13863039Y-13722127D02*
X13853515Y-13750698D01*
X13853515Y-13750698D02*
X13739229Y-13864984D01*
X13739229Y-13864984D02*
X13863039Y-13864984D01*
X13948753Y-13845936D02*
X13958277Y-13855460D01*
X13958277Y-13855460D02*
X13948753Y-13864984D01*
X13948753Y-13864984D02*
X13939229Y-13855460D01*
X13939229Y-13855460D02*
X13948753Y-13845936D01*
X13948753Y-13845936D02*
X13948753Y-13864984D01*
X14034467Y-13684031D02*
X14043991Y-13674508D01*
X14043991Y-13674508D02*
X14063039Y-13664984D01*
X14063039Y-13664984D02*
X14110658Y-13664984D01*
X14110658Y-13664984D02*
X14129705Y-13674508D01*
X14129705Y-13674508D02*
X14139229Y-13684031D01*
X14139229Y-13684031D02*
X14148753Y-13703079D01*
X14148753Y-13703079D02*
X14148753Y-13722127D01*
X14148753Y-13722127D02*
X14139229Y-13750698D01*
X14139229Y-13750698D02*
X14024943Y-13864984D01*
X14024943Y-13864984D02*
X14148753Y-13864984D01*
X14272562Y-13664984D02*
X14291610Y-13664984D01*
X14291610Y-13664984D02*
X14310658Y-13674508D01*
X14310658Y-13674508D02*
X14320182Y-13684031D01*
X14320182Y-13684031D02*
X14329705Y-13703079D01*
X14329705Y-13703079D02*
X14339229Y-13741174D01*
X14339229Y-13741174D02*
X14339229Y-13788793D01*
X14339229Y-13788793D02*
X14329705Y-13826888D01*
X14329705Y-13826888D02*
X14320182Y-13845936D01*
X14320182Y-13845936D02*
X14310658Y-13855460D01*
X14310658Y-13855460D02*
X14291610Y-13864984D01*
X14291610Y-13864984D02*
X14272562Y-13864984D01*
X14272562Y-13864984D02*
X14253515Y-13855460D01*
X14253515Y-13855460D02*
X14243991Y-13845936D01*
X14243991Y-13845936D02*
X14234467Y-13826888D01*
X14234467Y-13826888D02*
X14224943Y-13788793D01*
X14224943Y-13788793D02*
X14224943Y-13741174D01*
X14224943Y-13741174D02*
X14234467Y-13703079D01*
X14234467Y-13703079D02*
X14243991Y-13684031D01*
X14243991Y-13684031D02*
X14253515Y-13674508D01*
X14253515Y-13674508D02*
X14272562Y-13664984D01*
X14463039Y-13664984D02*
X14482086Y-13664984D01*
X14482086Y-13664984D02*
X14501134Y-13674508D01*
X14501134Y-13674508D02*
X14510658Y-13684031D01*
X14510658Y-13684031D02*
X14520182Y-13703079D01*
X14520182Y-13703079D02*
X14529705Y-13741174D01*
X14529705Y-13741174D02*
X14529705Y-13788793D01*
X14529705Y-13788793D02*
X14520182Y-13826888D01*
X14520182Y-13826888D02*
X14510658Y-13845936D01*
X14510658Y-13845936D02*
X14501134Y-13855460D01*
X14501134Y-13855460D02*
X14482086Y-13864984D01*
X14482086Y-13864984D02*
X14463039Y-13864984D01*
X14463039Y-13864984D02*
X14443991Y-13855460D01*
X14443991Y-13855460D02*
X14434467Y-13845936D01*
X14434467Y-13845936D02*
X14424943Y-13826888D01*
X14424943Y-13826888D02*
X14415420Y-13788793D01*
X14415420Y-13788793D02*
X14415420Y-13741174D01*
X14415420Y-13741174D02*
X14424943Y-13703079D01*
X14424943Y-13703079D02*
X14434467Y-13684031D01*
X14434467Y-13684031D02*
X14443991Y-13674508D01*
X14443991Y-13674508D02*
X14463039Y-13664984D01*
X14615420Y-13864984D02*
X14615420Y-13731650D01*
X14615420Y-13750698D02*
X14624943Y-13741174D01*
X14624943Y-13741174D02*
X14643991Y-13731650D01*
X14643991Y-13731650D02*
X14672563Y-13731650D01*
X14672563Y-13731650D02*
X14691610Y-13741174D01*
X14691610Y-13741174D02*
X14701134Y-13760222D01*
X14701134Y-13760222D02*
X14701134Y-13864984D01*
X14701134Y-13760222D02*
X14710658Y-13741174D01*
X14710658Y-13741174D02*
X14729705Y-13731650D01*
X14729705Y-13731650D02*
X14758277Y-13731650D01*
X14758277Y-13731650D02*
X14777324Y-13741174D01*
X14777324Y-13741174D02*
X14786848Y-13760222D01*
X14786848Y-13760222D02*
X14786848Y-13864984D01*
X14882086Y-13864984D02*
X14882086Y-13731650D01*
X14882086Y-13750698D02*
X14891610Y-13741174D01*
X14891610Y-13741174D02*
X14910658Y-13731650D01*
X14910658Y-13731650D02*
X14939229Y-13731650D01*
X14939229Y-13731650D02*
X14958277Y-13741174D01*
X14958277Y-13741174D02*
X14967801Y-13760222D01*
X14967801Y-13760222D02*
X14967801Y-13864984D01*
X14967801Y-13760222D02*
X14977324Y-13741174D01*
X14977324Y-13741174D02*
X14996372Y-13731650D01*
X14996372Y-13731650D02*
X15024943Y-13731650D01*
X15024943Y-13731650D02*
X15043991Y-13741174D01*
X15043991Y-13741174D02*
X15053515Y-13760222D01*
X15053515Y-13760222D02*
X15053515Y-13864984D01*
X15443991Y-13655460D02*
X15272563Y-13912603D01*
X15701134Y-13664984D02*
X15720182Y-13664984D01*
X15720182Y-13664984D02*
X15739229Y-13674508D01*
X15739229Y-13674508D02*
X15748753Y-13684031D01*
X15748753Y-13684031D02*
X15758277Y-13703079D01*
X15758277Y-13703079D02*
X15767801Y-13741174D01*
X15767801Y-13741174D02*
X15767801Y-13788793D01*
X15767801Y-13788793D02*
X15758277Y-13826888D01*
X15758277Y-13826888D02*
X15748753Y-13845936D01*
X15748753Y-13845936D02*
X15739229Y-13855460D01*
X15739229Y-13855460D02*
X15720182Y-13864984D01*
X15720182Y-13864984D02*
X15701134Y-13864984D01*
X15701134Y-13864984D02*
X15682086Y-13855460D01*
X15682086Y-13855460D02*
X15672563Y-13845936D01*
X15672563Y-13845936D02*
X15663039Y-13826888D01*
X15663039Y-13826888D02*
X15653515Y-13788793D01*
X15653515Y-13788793D02*
X15653515Y-13741174D01*
X15653515Y-13741174D02*
X15663039Y-13703079D01*
X15663039Y-13703079D02*
X15672563Y-13684031D01*
X15672563Y-13684031D02*
X15682086Y-13674508D01*
X15682086Y-13674508D02*
X15701134Y-13664984D01*
X15853515Y-13845936D02*
X15863039Y-13855460D01*
X15863039Y-13855460D02*
X15853515Y-13864984D01*
X15853515Y-13864984D02*
X15843991Y-13855460D01*
X15843991Y-13855460D02*
X15853515Y-13845936D01*
X15853515Y-13845936D02*
X15853515Y-13864984D01*
X15986848Y-13664984D02*
X16005896Y-13664984D01*
X16005896Y-13664984D02*
X16024944Y-13674508D01*
X16024944Y-13674508D02*
X16034467Y-13684031D01*
X16034467Y-13684031D02*
X16043991Y-13703079D01*
X16043991Y-13703079D02*
X16053515Y-13741174D01*
X16053515Y-13741174D02*
X16053515Y-13788793D01*
X16053515Y-13788793D02*
X16043991Y-13826888D01*
X16043991Y-13826888D02*
X16034467Y-13845936D01*
X16034467Y-13845936D02*
X16024944Y-13855460D01*
X16024944Y-13855460D02*
X16005896Y-13864984D01*
X16005896Y-13864984D02*
X15986848Y-13864984D01*
X15986848Y-13864984D02*
X15967801Y-13855460D01*
X15967801Y-13855460D02*
X15958277Y-13845936D01*
X15958277Y-13845936D02*
X15948753Y-13826888D01*
X15948753Y-13826888D02*
X15939229Y-13788793D01*
X15939229Y-13788793D02*
X15939229Y-13741174D01*
X15939229Y-13741174D02*
X15948753Y-13703079D01*
X15948753Y-13703079D02*
X15958277Y-13684031D01*
X15958277Y-13684031D02*
X15967801Y-13674508D01*
X15967801Y-13674508D02*
X15986848Y-13664984D01*
X16167801Y-13750698D02*
X16148753Y-13741174D01*
X16148753Y-13741174D02*
X16139229Y-13731650D01*
X16139229Y-13731650D02*
X16129706Y-13712603D01*
X16129706Y-13712603D02*
X16129706Y-13703079D01*
X16129706Y-13703079D02*
X16139229Y-13684031D01*
X16139229Y-13684031D02*
X16148753Y-13674508D01*
X16148753Y-13674508D02*
X16167801Y-13664984D01*
X16167801Y-13664984D02*
X16205896Y-13664984D01*
X16205896Y-13664984D02*
X16224944Y-13674508D01*
X16224944Y-13674508D02*
X16234467Y-13684031D01*
X16234467Y-13684031D02*
X16243991Y-13703079D01*
X16243991Y-13703079D02*
X16243991Y-13712603D01*
X16243991Y-13712603D02*
X16234467Y-13731650D01*
X16234467Y-13731650D02*
X16224944Y-13741174D01*
X16224944Y-13741174D02*
X16205896Y-13750698D01*
X16205896Y-13750698D02*
X16167801Y-13750698D01*
X16167801Y-13750698D02*
X16148753Y-13760222D01*
X16148753Y-13760222D02*
X16139229Y-13769746D01*
X16139229Y-13769746D02*
X16129706Y-13788793D01*
X16129706Y-13788793D02*
X16129706Y-13826888D01*
X16129706Y-13826888D02*
X16139229Y-13845936D01*
X16139229Y-13845936D02*
X16148753Y-13855460D01*
X16148753Y-13855460D02*
X16167801Y-13864984D01*
X16167801Y-13864984D02*
X16205896Y-13864984D01*
X16205896Y-13864984D02*
X16224944Y-13855460D01*
X16224944Y-13855460D02*
X16234467Y-13845936D01*
X16234467Y-13845936D02*
X16243991Y-13826888D01*
X16243991Y-13826888D02*
X16243991Y-13788793D01*
X16243991Y-13788793D02*
X16234467Y-13769746D01*
X16234467Y-13769746D02*
X16224944Y-13760222D01*
X16224944Y-13760222D02*
X16205896Y-13750698D01*
X16415420Y-13664984D02*
X16377325Y-13664984D01*
X16377325Y-13664984D02*
X16358277Y-13674508D01*
X16358277Y-13674508D02*
X16348753Y-13684031D01*
X16348753Y-13684031D02*
X16329706Y-13712603D01*
X16329706Y-13712603D02*
X16320182Y-13750698D01*
X16320182Y-13750698D02*
X16320182Y-13826888D01*
X16320182Y-13826888D02*
X16329706Y-13845936D01*
X16329706Y-13845936D02*
X16339229Y-13855460D01*
X16339229Y-13855460D02*
X16358277Y-13864984D01*
X16358277Y-13864984D02*
X16396372Y-13864984D01*
X16396372Y-13864984D02*
X16415420Y-13855460D01*
X16415420Y-13855460D02*
X16424944Y-13845936D01*
X16424944Y-13845936D02*
X16434467Y-13826888D01*
X16434467Y-13826888D02*
X16434467Y-13779269D01*
X16434467Y-13779269D02*
X16424944Y-13760222D01*
X16424944Y-13760222D02*
X16415420Y-13750698D01*
X16415420Y-13750698D02*
X16396372Y-13741174D01*
X16396372Y-13741174D02*
X16358277Y-13741174D01*
X16358277Y-13741174D02*
X16339229Y-13750698D01*
X16339229Y-13750698D02*
X16329706Y-13760222D01*
X16329706Y-13760222D02*
X16320182Y-13779269D01*
X16605896Y-13664984D02*
X16567801Y-13664984D01*
X16567801Y-13664984D02*
X16548753Y-13674508D01*
X16548753Y-13674508D02*
X16539229Y-13684031D01*
X16539229Y-13684031D02*
X16520182Y-13712603D01*
X16520182Y-13712603D02*
X16510658Y-13750698D01*
X16510658Y-13750698D02*
X16510658Y-13826888D01*
X16510658Y-13826888D02*
X16520182Y-13845936D01*
X16520182Y-13845936D02*
X16529706Y-13855460D01*
X16529706Y-13855460D02*
X16548753Y-13864984D01*
X16548753Y-13864984D02*
X16586848Y-13864984D01*
X16586848Y-13864984D02*
X16605896Y-13855460D01*
X16605896Y-13855460D02*
X16615420Y-13845936D01*
X16615420Y-13845936D02*
X16624944Y-13826888D01*
X16624944Y-13826888D02*
X16624944Y-13779269D01*
X16624944Y-13779269D02*
X16615420Y-13760222D01*
X16615420Y-13760222D02*
X16605896Y-13750698D01*
X16605896Y-13750698D02*
X16586848Y-13741174D01*
X16586848Y-13741174D02*
X16548753Y-13741174D01*
X16548753Y-13741174D02*
X16529706Y-13750698D01*
X16529706Y-13750698D02*
X16520182Y-13760222D01*
X16520182Y-13760222D02*
X16510658Y-13779269D01*
X16701134Y-13664984D02*
X16701134Y-13703079D01*
X16777325Y-13664984D02*
X16777325Y-13703079D01*
X17072563Y-13941174D02*
X17063039Y-13931650D01*
X17063039Y-13931650D02*
X17043991Y-13903079D01*
X17043991Y-13903079D02*
X17034468Y-13884031D01*
X17034468Y-13884031D02*
X17024944Y-13855460D01*
X17024944Y-13855460D02*
X17015420Y-13807841D01*
X17015420Y-13807841D02*
X17015420Y-13769746D01*
X17015420Y-13769746D02*
X17024944Y-13722127D01*
X17024944Y-13722127D02*
X17034468Y-13693555D01*
X17034468Y-13693555D02*
X17043991Y-13674508D01*
X17043991Y-13674508D02*
X17063039Y-13645936D01*
X17063039Y-13645936D02*
X17072563Y-13636412D01*
X17234468Y-13731650D02*
X17234468Y-13864984D01*
X17186849Y-13655460D02*
X17139230Y-13798317D01*
X17139230Y-13798317D02*
X17263039Y-13798317D01*
X17491611Y-13864984D02*
X17491611Y-13664984D01*
X17577325Y-13864984D02*
X17577325Y-13760222D01*
X17577325Y-13760222D02*
X17567801Y-13741174D01*
X17567801Y-13741174D02*
X17548753Y-13731650D01*
X17548753Y-13731650D02*
X17520182Y-13731650D01*
X17520182Y-13731650D02*
X17501134Y-13741174D01*
X17501134Y-13741174D02*
X17491611Y-13750698D01*
X17701134Y-13864984D02*
X17682087Y-13855460D01*
X17682087Y-13855460D02*
X17672563Y-13845936D01*
X17672563Y-13845936D02*
X17663039Y-13826888D01*
X17663039Y-13826888D02*
X17663039Y-13769746D01*
X17663039Y-13769746D02*
X17672563Y-13750698D01*
X17672563Y-13750698D02*
X17682087Y-13741174D01*
X17682087Y-13741174D02*
X17701134Y-13731650D01*
X17701134Y-13731650D02*
X17729706Y-13731650D01*
X17729706Y-13731650D02*
X17748753Y-13741174D01*
X17748753Y-13741174D02*
X17758277Y-13750698D01*
X17758277Y-13750698D02*
X17767801Y-13769746D01*
X17767801Y-13769746D02*
X17767801Y-13826888D01*
X17767801Y-13826888D02*
X17758277Y-13845936D01*
X17758277Y-13845936D02*
X17748753Y-13855460D01*
X17748753Y-13855460D02*
X17729706Y-13864984D01*
X17729706Y-13864984D02*
X17701134Y-13864984D01*
X17882087Y-13864984D02*
X17863039Y-13855460D01*
X17863039Y-13855460D02*
X17853515Y-13836412D01*
X17853515Y-13836412D02*
X17853515Y-13664984D01*
X18034468Y-13855460D02*
X18015420Y-13864984D01*
X18015420Y-13864984D02*
X17977325Y-13864984D01*
X17977325Y-13864984D02*
X17958277Y-13855460D01*
X17958277Y-13855460D02*
X17948753Y-13836412D01*
X17948753Y-13836412D02*
X17948753Y-13760222D01*
X17948753Y-13760222D02*
X17958277Y-13741174D01*
X17958277Y-13741174D02*
X17977325Y-13731650D01*
X17977325Y-13731650D02*
X18015420Y-13731650D01*
X18015420Y-13731650D02*
X18034468Y-13741174D01*
X18034468Y-13741174D02*
X18043992Y-13760222D01*
X18043992Y-13760222D02*
X18043992Y-13779269D01*
X18043992Y-13779269D02*
X17948753Y-13798317D01*
X18120182Y-13855460D02*
X18139230Y-13864984D01*
X18139230Y-13864984D02*
X18177325Y-13864984D01*
X18177325Y-13864984D02*
X18196373Y-13855460D01*
X18196373Y-13855460D02*
X18205896Y-13836412D01*
X18205896Y-13836412D02*
X18205896Y-13826888D01*
X18205896Y-13826888D02*
X18196373Y-13807841D01*
X18196373Y-13807841D02*
X18177325Y-13798317D01*
X18177325Y-13798317D02*
X18148753Y-13798317D01*
X18148753Y-13798317D02*
X18129706Y-13788793D01*
X18129706Y-13788793D02*
X18120182Y-13769746D01*
X18120182Y-13769746D02*
X18120182Y-13760222D01*
X18120182Y-13760222D02*
X18129706Y-13741174D01*
X18129706Y-13741174D02*
X18148753Y-13731650D01*
X18148753Y-13731650D02*
X18177325Y-13731650D01*
X18177325Y-13731650D02*
X18196373Y-13741174D01*
X18272563Y-13941174D02*
X18282087Y-13931650D01*
X18282087Y-13931650D02*
X18301134Y-13903079D01*
X18301134Y-13903079D02*
X18310658Y-13884031D01*
X18310658Y-13884031D02*
X18320182Y-13855460D01*
X18320182Y-13855460D02*
X18329706Y-13807841D01*
X18329706Y-13807841D02*
X18329706Y-13769746D01*
X18329706Y-13769746D02*
X18320182Y-13722127D01*
X18320182Y-13722127D02*
X18310658Y-13693555D01*
X18310658Y-13693555D02*
X18301134Y-13674508D01*
X18301134Y-13674508D02*
X18282087Y-13645936D01*
X18282087Y-13645936D02*
X18272563Y-13636412D01*
M02*
