%TF.GenerationSoftware,KiCad,Pcbnew,10.0.4*%
%TF.CreationDate,2026-08-16T22:18:19+02:00*%
%TF.ProjectId,LO_PCB,4c4f5f50-4342-42e6-9b69-6361645f7063,rev?*%
%TF.SameCoordinates,Original*%
%TF.FileFunction,Soldermask,Bot*%
%TF.FilePolarity,Negative*%
%FSLAX46Y46*%
G04 Gerber Fmt 4.6, Leading zero omitted, Abs format (unit mm)*
G04 Created by KiCad (PCBNEW 10.0.4) date 2026-08-16 22:18:19*
%MOMM*%
%LPD*%
G01*
G04 APERTURE LIST*
%ADD10C,0.700000*%
%ADD11C,4.400000*%
%ADD12C,0.600000*%
%ADD13R,1.700000X1.700000*%
%ADD14C,1.700000*%
%ADD15R,5.000000X1.400000*%
%ADD16C,1.016000*%
G04 APERTURE END LIST*
D10*
%TO.C,H2*%
X137100000Y-116250000D03*
X137583274Y-115083274D03*
X137583274Y-117416726D03*
X138750000Y-114600000D03*
D11*
X138750000Y-116250000D03*
D10*
X138750000Y-117900000D03*
X139916726Y-115083274D03*
X139916726Y-117416726D03*
X140400000Y-116250000D03*
%TD*%
%TO.C,H4*%
X179600000Y-116250000D03*
X180083274Y-115083274D03*
X180083274Y-117416726D03*
X181250000Y-114600000D03*
D11*
X181250000Y-116250000D03*
D10*
X181250000Y-117900000D03*
X182416726Y-115083274D03*
X182416726Y-117416726D03*
X182900000Y-116250000D03*
%TD*%
D12*
%TO.C,U1*%
X158735600Y-83195798D03*
X158735600Y-82495798D03*
X158735600Y-81795797D03*
X158135600Y-83195798D03*
X158135600Y-82495798D03*
X158135600Y-81795798D03*
%TD*%
D10*
%TO.C,H3*%
X179600000Y-81250000D03*
X180083274Y-80083274D03*
X180083274Y-82416726D03*
X181250000Y-79600000D03*
D11*
X181250000Y-81250000D03*
D10*
X181250000Y-82900000D03*
X182416726Y-80083274D03*
X182416726Y-82416726D03*
X182900000Y-81250000D03*
%TD*%
D13*
%TO.C,J2*%
X146690000Y-116760000D03*
D14*
X149230000Y-116760000D03*
X151769999Y-116760000D03*
X154310000Y-116760000D03*
X156850000Y-116760000D03*
X159390000Y-116760000D03*
%TD*%
D10*
%TO.C,H1*%
X137100000Y-81250000D03*
X137583274Y-80083274D03*
X137583274Y-82416726D03*
X138750000Y-79600000D03*
D11*
X138750000Y-81250000D03*
D10*
X138750000Y-82900000D03*
X139916726Y-80083274D03*
X139916726Y-82416726D03*
X140400000Y-81250000D03*
%TD*%
D15*
%TO.C,OSCIn*%
X137492201Y-96762200D03*
X137492201Y-102162200D03*
%TD*%
D16*
%TO.C,U2*%
X156769401Y-97701400D03*
X156769401Y-98488800D03*
X156769401Y-99276200D03*
X157556801Y-97701400D03*
X157556801Y-98488800D03*
X157556801Y-99276200D03*
X158344201Y-97701400D03*
X158344201Y-98488800D03*
X158344201Y-99276200D03*
%TD*%
D13*
%TO.C,J1*%
X143896800Y-82651600D03*
D14*
X146436800Y-82651600D03*
%TD*%
D15*
%TO.C,LO_OUT_B*%
X182500000Y-111118200D03*
X182500000Y-105718200D03*
%TD*%
%TO.C,LO_OUT_A*%
X182495798Y-99285600D03*
X182495798Y-93885600D03*
%TD*%
D12*
X151800000Y-104750000D03*
X157800000Y-94550000D03*
X158500000Y-113100000D03*
X152800000Y-112600000D03*
X156900000Y-112600000D03*
X149500000Y-111600000D03*
M02*
