%TF.GenerationSoftware,KiCad,Pcbnew,10.0.4*%
%TF.CreationDate,2026-08-16T22:18:19+02:00*%
%TF.ProjectId,LO_PCB,4c4f5f50-4342-42e6-9b69-6361645f7063,rev?*%
%TF.SameCoordinates,Original*%
%TF.FileFunction,Soldermask,Top*%
%TF.FilePolarity,Negative*%
%FSLAX46Y46*%
G04 Gerber Fmt 4.6, Leading zero omitted, Abs format (unit mm)*
G04 Created by KiCad (PCBNEW 10.0.4) date 2026-08-16 22:18:19*
%MOMM*%
%LPD*%
G01*
G04 APERTURE LIST*
G04 Aperture macros list*
%AMRoundRect*
0 Rectangle with rounded corners*
0 $1 Rounding radius*
0 $2 $3 $4 $5 $6 $7 $8 $9 X,Y pos of 4 corners*
0 Add a 4 corners polygon primitive as box body*
4,1,4,$2,$3,$4,$5,$6,$7,$8,$9,$2,$3,0*
0 Add four circle primitives for the rounded corners*
1,1,$1+$1,$2,$3*
1,1,$1+$1,$4,$5*
1,1,$1+$1,$6,$7*
1,1,$1+$1,$8,$9*
0 Add four rect primitives between the rounded corners*
20,1,$1+$1,$2,$3,$4,$5,0*
20,1,$1+$1,$4,$5,$6,$7,0*
20,1,$1+$1,$6,$7,$8,$9,0*
20,1,$1+$1,$8,$9,$2,$3,0*%
G04 Aperture macros list end*
%ADD10C,0.000000*%
%ADD11RoundRect,0.225000X-0.225000X-0.250000X0.225000X-0.250000X0.225000X0.250000X-0.225000X0.250000X0*%
%ADD12RoundRect,0.225000X-0.017678X0.335876X-0.335876X0.017678X0.017678X-0.335876X0.335876X-0.017678X0*%
%ADD13RoundRect,0.225000X0.250000X-0.225000X0.250000X0.225000X-0.250000X0.225000X-0.250000X-0.225000X0*%
%ADD14RoundRect,0.135000X0.226274X0.035355X0.035355X0.226274X-0.226274X-0.035355X-0.035355X-0.226274X0*%
%ADD15RoundRect,0.225000X-0.250000X0.225000X-0.250000X-0.225000X0.250000X-0.225000X0.250000X0.225000X0*%
%ADD16RoundRect,0.135000X-0.185000X0.135000X-0.185000X-0.135000X0.185000X-0.135000X0.185000X0.135000X0*%
%ADD17RoundRect,0.200000X-0.275000X0.200000X-0.275000X-0.200000X0.275000X-0.200000X0.275000X0.200000X0*%
%ADD18RoundRect,0.140000X-0.170000X0.140000X-0.170000X-0.140000X0.170000X-0.140000X0.170000X0.140000X0*%
%ADD19C,0.700000*%
%ADD20C,4.400000*%
%ADD21RoundRect,0.135000X0.035355X-0.226274X0.226274X-0.035355X-0.035355X0.226274X-0.226274X0.035355X0*%
%ADD22RoundRect,0.140000X0.140000X0.170000X-0.140000X0.170000X-0.140000X-0.170000X0.140000X-0.170000X0*%
%ADD23RoundRect,0.225000X0.017678X-0.335876X0.335876X-0.017678X-0.017678X0.335876X-0.335876X0.017678X0*%
%ADD24RoundRect,0.135000X0.185000X-0.135000X0.185000X0.135000X-0.185000X0.135000X-0.185000X-0.135000X0*%
%ADD25RoundRect,0.140000X0.170000X-0.140000X0.170000X0.140000X-0.170000X0.140000X-0.170000X-0.140000X0*%
%ADD26RoundRect,0.200000X0.200000X0.275000X-0.200000X0.275000X-0.200000X-0.275000X0.200000X-0.275000X0*%
%ADD27O,0.599999X0.249999*%
%ADD28C,0.600000*%
%ADD29R,1.200000X2.000001*%
%ADD30R,1.016000X0.508000*%
%ADD31R,1.700000X1.700000*%
%ADD32C,1.700000*%
%ADD33RoundRect,0.140000X0.219203X0.021213X0.021213X0.219203X-0.219203X-0.021213X-0.021213X-0.219203X0*%
%ADD34RoundRect,0.135000X-0.035355X0.226274X-0.226274X0.035355X0.035355X-0.226274X0.226274X-0.035355X0*%
%ADD35R,1.397000X1.346200*%
%ADD36RoundRect,0.135000X-0.135000X-0.185000X0.135000X-0.185000X0.135000X0.185000X-0.135000X0.185000X0*%
%ADD37RoundRect,0.135000X-0.226274X-0.035355X-0.035355X-0.226274X0.226274X0.035355X0.035355X0.226274X0*%
%ADD38RoundRect,0.225000X0.225000X0.250000X-0.225000X0.250000X-0.225000X-0.250000X0.225000X-0.250000X0*%
%ADD39RoundRect,0.140000X0.021213X-0.219203X0.219203X-0.021213X-0.021213X0.219203X-0.219203X0.021213X0*%
%ADD40RoundRect,0.147500X-0.147500X-0.172500X0.147500X-0.172500X0.147500X0.172500X-0.147500X0.172500X0*%
%ADD41RoundRect,0.200000X0.335876X0.053033X0.053033X0.335876X-0.335876X-0.053033X-0.053033X-0.335876X0*%
%ADD42RoundRect,0.140000X-0.140000X-0.170000X0.140000X-0.170000X0.140000X0.170000X-0.140000X0.170000X0*%
%ADD43RoundRect,0.200000X0.275000X-0.200000X0.275000X0.200000X-0.275000X0.200000X-0.275000X-0.200000X0*%
%ADD44RoundRect,0.147500X0.172500X-0.147500X0.172500X0.147500X-0.172500X0.147500X-0.172500X-0.147500X0*%
%ADD45RoundRect,0.225000X-0.335876X-0.017678X-0.017678X-0.335876X0.335876X0.017678X0.017678X0.335876X0*%
%ADD46RoundRect,0.140000X-0.219203X-0.021213X-0.021213X-0.219203X0.219203X0.021213X0.021213X0.219203X0*%
%ADD47R,0.900000X0.610000*%
%ADD48R,5.000000X1.400000*%
%ADD49R,0.708000X0.254800*%
%ADD50R,0.254800X0.708000*%
%ADD51C,1.016000*%
%ADD52RoundRect,0.200000X-0.200000X-0.275000X0.200000X-0.275000X0.200000X0.275000X-0.200000X0.275000X0*%
%ADD53RoundRect,0.140000X-0.021213X0.219203X-0.219203X0.021213X0.021213X-0.219203X0.219203X-0.021213X0*%
%ADD54RoundRect,0.250000X-0.475000X0.250000X-0.475000X-0.250000X0.475000X-0.250000X0.475000X0.250000X0*%
G04 APERTURE END LIST*
D10*
%TO.C,U1*%
G36*
X158235600Y-83559299D02*
G01*
X157772101Y-83559299D01*
X157772101Y-81432297D01*
X158235600Y-81432297D01*
X158235600Y-83559299D01*
G37*
G36*
X159099099Y-81902098D02*
G01*
X157772101Y-81902098D01*
X157772101Y-81432297D01*
X159099099Y-81432297D01*
X159099099Y-81902098D01*
G37*
G36*
X159099099Y-83559299D02*
G01*
X158635600Y-83559299D01*
X158635600Y-81432297D01*
X159099099Y-81432297D01*
X159099099Y-83559299D01*
G37*
G36*
X159099099Y-82689498D02*
G01*
X157772101Y-82689498D01*
X157772101Y-82302098D01*
X159099099Y-82302098D01*
X159099099Y-82689498D01*
G37*
G36*
X159099099Y-83559299D02*
G01*
X157772101Y-83559299D01*
X157772101Y-83089498D01*
X159099099Y-83089498D01*
X159099099Y-83559299D01*
G37*
%TO.C,U2*%
G36*
X156569401Y-100050900D02*
G01*
X155994701Y-100050900D01*
X155994701Y-96926700D01*
X156569401Y-96926700D01*
X156569401Y-100050900D01*
G37*
G36*
X159118901Y-97501400D02*
G01*
X155994701Y-97501400D01*
X155994701Y-96926700D01*
X159118901Y-96926700D01*
X159118901Y-97501400D01*
G37*
G36*
X159118901Y-98288800D02*
G01*
X155994701Y-98288800D01*
X155994701Y-97901400D01*
X159118901Y-97901400D01*
X159118901Y-98288800D01*
G37*
G36*
X159118901Y-99076200D02*
G01*
X155994701Y-99076200D01*
X155994701Y-98688800D01*
X159118901Y-98688800D01*
X159118901Y-99076200D01*
G37*
G36*
X159118901Y-100050900D02*
G01*
X155994701Y-100050900D01*
X155994701Y-99476200D01*
X159118901Y-99476200D01*
X159118901Y-100050900D01*
G37*
G36*
X157356801Y-100050900D02*
G01*
X156969401Y-100050900D01*
X156969401Y-96926700D01*
X157356801Y-96926700D01*
X157356801Y-100050900D01*
G37*
G36*
X158144201Y-100050900D02*
G01*
X157756801Y-100050900D01*
X157756801Y-96926700D01*
X158144201Y-96926700D01*
X158144201Y-100050900D01*
G37*
G36*
X159118901Y-100050900D02*
G01*
X158544201Y-100050900D01*
X158544201Y-96926700D01*
X159118901Y-96926700D01*
X159118901Y-100050900D01*
G37*
%TD*%
D11*
%TO.C,C40*%
X150515000Y-96340000D03*
X152065000Y-96340000D03*
%TD*%
D12*
%TO.C,C39*%
X163150000Y-92944085D03*
X162053984Y-94040101D03*
%TD*%
D13*
%TO.C,C15*%
X170261800Y-81547600D03*
X170261800Y-79997600D03*
%TD*%
D14*
%TO.C,R13*%
X163551201Y-99362448D03*
X162829953Y-98641200D03*
%TD*%
D15*
%TO.C,C42*%
X159324000Y-91840000D03*
X159324000Y-93390000D03*
%TD*%
D16*
%TO.C,R28*%
X147316001Y-101533798D03*
X147316001Y-102553798D03*
%TD*%
D17*
%TO.C,R16*%
X151800001Y-105750001D03*
X151799999Y-107399999D03*
%TD*%
D18*
%TO.C,C9*%
X174319999Y-97560000D03*
X174319999Y-98520000D03*
%TD*%
D19*
%TO.C,H2*%
X137100000Y-116250000D03*
X137583274Y-115083274D03*
X137583274Y-117416726D03*
X138750000Y-114600000D03*
D20*
X138750000Y-116250000D03*
D19*
X138750000Y-117900000D03*
X139916726Y-115083274D03*
X139916726Y-117416726D03*
X140400000Y-116250000D03*
%TD*%
D11*
%TO.C,C25*%
X167779400Y-89992200D03*
X169329400Y-89992200D03*
%TD*%
D21*
%TO.C,R11*%
X159689942Y-104860056D03*
X160411190Y-104138808D03*
%TD*%
D22*
%TO.C,C20*%
X165654201Y-100012800D03*
X164694201Y-100012800D03*
%TD*%
D13*
%TO.C,C14*%
X168229800Y-81547600D03*
X168229800Y-79997600D03*
%TD*%
D19*
%TO.C,H4*%
X179600000Y-116250000D03*
X180083274Y-115083274D03*
X180083274Y-117416726D03*
X181250000Y-114600000D03*
D20*
X181250000Y-116250000D03*
D19*
X181250000Y-117900000D03*
X182416726Y-115083274D03*
X182416726Y-117416726D03*
X182900000Y-116250000D03*
%TD*%
D18*
%TO.C,C30*%
X156650000Y-102463600D03*
X156650000Y-103423600D03*
%TD*%
D23*
%TO.C,C33*%
X150556592Y-103291008D03*
X151652608Y-102194992D03*
%TD*%
D24*
%TO.C,R15*%
X168430000Y-102830000D03*
X168430000Y-101810002D03*
%TD*%
D16*
%TO.C,R14*%
X167361201Y-102832200D03*
X167361201Y-103852198D03*
%TD*%
D24*
%TO.C,R3*%
X160612800Y-81669599D03*
X160612800Y-80649601D03*
%TD*%
D14*
%TO.C,R6*%
X163194528Y-104081824D03*
X162473280Y-103360576D03*
%TD*%
D25*
%TO.C,C10*%
X176530000Y-96585600D03*
X176530000Y-95625600D03*
%TD*%
D26*
%TO.C,R2*%
X152108000Y-85346499D03*
X150458000Y-85346499D03*
%TD*%
D25*
%TO.C,C3*%
X161612800Y-82635401D03*
X161612800Y-81675401D03*
%TD*%
D18*
%TO.C,C21*%
X161260000Y-101820000D03*
X161260000Y-102780000D03*
%TD*%
D26*
%TO.C,R20*%
X153545000Y-109530000D03*
X151895000Y-109530000D03*
%TD*%
D15*
%TO.C,C2*%
X154438400Y-83287800D03*
X154438400Y-84837800D03*
%TD*%
%TO.C,C4*%
X162362800Y-83959600D03*
X162362800Y-85509600D03*
%TD*%
D27*
%TO.C,U1*%
X159585600Y-83495801D03*
X159585600Y-82995800D03*
X159585600Y-82495801D03*
X159585600Y-81995802D03*
X159585600Y-81495800D03*
X157285600Y-81495800D03*
X157285600Y-81995802D03*
X157285600Y-82495801D03*
X157285600Y-82995800D03*
X157285600Y-83495801D03*
D28*
X158735600Y-83195798D03*
X158735600Y-82495798D03*
X158735600Y-81795797D03*
D29*
X158435600Y-82495798D03*
D28*
X158135600Y-83195798D03*
X158135600Y-82495798D03*
X158135600Y-81795798D03*
%TD*%
D21*
%TO.C,R9*%
X152139375Y-103610625D03*
X152860625Y-102889375D03*
%TD*%
D19*
%TO.C,H3*%
X179600000Y-81250000D03*
X180083274Y-80083274D03*
X180083274Y-82416726D03*
X181250000Y-79600000D03*
D20*
X181250000Y-81250000D03*
D19*
X181250000Y-82900000D03*
X182416726Y-80083274D03*
X182416726Y-82416726D03*
X182900000Y-81250000D03*
%TD*%
D30*
%TO.C,Q1*%
X152100800Y-83606600D03*
X152100800Y-81701600D03*
X149814800Y-82654100D03*
%TD*%
D11*
%TO.C,C22*%
X167792401Y-84810600D03*
X169342401Y-84810600D03*
%TD*%
D31*
%TO.C,J2*%
X146690000Y-116760000D03*
D32*
X149230000Y-116760000D03*
X151769999Y-116760000D03*
X154310000Y-116760000D03*
X156850000Y-116760000D03*
X159390000Y-116760000D03*
%TD*%
D33*
%TO.C,C27*%
X154737071Y-93107662D03*
X154058249Y-92428840D03*
%TD*%
D34*
%TO.C,R17*%
X158822201Y-109065200D03*
X158100953Y-109786448D03*
%TD*%
D12*
%TO.C,C41*%
X164273008Y-94069084D03*
X163176992Y-95165100D03*
%TD*%
D35*
%TO.C,XTAL1*%
X141785601Y-90372200D03*
X141785601Y-95452200D03*
X145798801Y-95452200D03*
X145798801Y-90372200D03*
%TD*%
D36*
%TO.C,R26*%
X147310201Y-100512200D03*
X148330201Y-100512200D03*
%TD*%
D37*
%TO.C,R7*%
X153658249Y-90583640D03*
X154379499Y-91304890D03*
%TD*%
D38*
%TO.C,C43*%
X144625000Y-88400000D03*
X143075000Y-88400000D03*
%TD*%
D22*
%TO.C,C19*%
X165656801Y-101028800D03*
X164696801Y-101028800D03*
%TD*%
D39*
%TO.C,C28*%
X164210589Y-95989411D03*
X164889411Y-95310589D03*
%TD*%
D36*
%TO.C,R25*%
X147310201Y-99462200D03*
X148330201Y-99462200D03*
%TD*%
%TO.C,R24*%
X143020000Y-99460000D03*
X144040000Y-99460000D03*
%TD*%
D34*
%TO.C,R8*%
X166735625Y-94889375D03*
X166014375Y-95610625D03*
%TD*%
D40*
%TO.C,L1*%
X172333999Y-97562474D03*
X173303999Y-97562474D03*
%TD*%
D25*
%TO.C,C8*%
X171310000Y-97555600D03*
X171310000Y-96595600D03*
%TD*%
D26*
%TO.C,R30*%
X158475000Y-114200000D03*
X156825000Y-114200000D03*
%TD*%
D15*
%TO.C,C36*%
X156276000Y-91840000D03*
X156276000Y-93390000D03*
%TD*%
D41*
%TO.C,R19*%
X152348362Y-94639562D03*
X151181638Y-93472838D03*
%TD*%
D15*
%TO.C,C5*%
X160762800Y-83959600D03*
X160762800Y-85509600D03*
%TD*%
D42*
%TO.C,C47*%
X149399201Y-100510000D03*
X150359201Y-100510000D03*
%TD*%
D19*
%TO.C,H1*%
X137100000Y-81250000D03*
X137583274Y-80083274D03*
X137583274Y-82416726D03*
X138750000Y-79600000D03*
D20*
X138750000Y-81250000D03*
D19*
X138750000Y-82900000D03*
X139916726Y-80083274D03*
X139916726Y-82416726D03*
X140400000Y-81250000D03*
%TD*%
D11*
%TO.C,C24*%
X167792397Y-88341201D03*
X169342397Y-88341201D03*
%TD*%
D17*
%TO.C,R32*%
X151765000Y-112623600D03*
X151765000Y-114273600D03*
%TD*%
D43*
%TO.C,R22*%
X147602201Y-91641200D03*
X147602201Y-89991200D03*
%TD*%
D25*
%TO.C,C17*%
X160070601Y-106967200D03*
X160070601Y-106007200D03*
%TD*%
D17*
%TO.C,R21*%
X139802201Y-88799200D03*
X139802201Y-90449200D03*
%TD*%
D13*
%TO.C,C34*%
X157800000Y-93390000D03*
X157800000Y-91840000D03*
%TD*%
D44*
%TO.C,L2*%
X175430000Y-97555000D03*
X175430000Y-96585000D03*
%TD*%
D11*
%TO.C,C23*%
X167791801Y-86436200D03*
X169341801Y-86436200D03*
%TD*%
D13*
%TO.C,C16*%
X171912800Y-81534600D03*
X171912800Y-79984600D03*
%TD*%
D45*
%TO.C,C38*%
X152299249Y-92414840D03*
X153395265Y-93510856D03*
%TD*%
D43*
%TO.C,R29*%
X155799999Y-112624999D03*
X155800001Y-110975001D03*
%TD*%
D42*
%TO.C,C45*%
X141040000Y-99462200D03*
X142000000Y-99462200D03*
%TD*%
D15*
%TO.C,C1*%
X156064000Y-83287800D03*
X156064000Y-84837800D03*
%TD*%
D46*
%TO.C,C32*%
X157471080Y-107710001D03*
X158149902Y-108388823D03*
%TD*%
D25*
%TO.C,C29*%
X153390600Y-98574800D03*
X153390600Y-97614800D03*
%TD*%
D42*
%TO.C,C12*%
X177878801Y-108420200D03*
X178838801Y-108420200D03*
%TD*%
D47*
%TO.C,OSCIn*%
X135442201Y-99462200D03*
D48*
X137492201Y-96762200D03*
X137492201Y-102162200D03*
%TD*%
D42*
%TO.C,C26*%
X164750201Y-102832200D03*
X165710201Y-102832200D03*
%TD*%
D13*
%TO.C,C13*%
X166578800Y-81547600D03*
X166578800Y-79997600D03*
%TD*%
D49*
%TO.C,U2*%
X154637401Y-96238799D03*
X154637401Y-96738801D03*
X154637401Y-97238800D03*
X154637401Y-97738799D03*
X154637401Y-98238800D03*
X154637401Y-98738800D03*
X154637401Y-99238801D03*
X154637401Y-99738800D03*
X154637401Y-100238799D03*
X154637401Y-100738801D03*
D50*
X155306800Y-101408200D03*
X155806802Y-101408200D03*
X156306801Y-101408200D03*
X156806800Y-101408200D03*
X157306801Y-101408200D03*
X157806801Y-101408200D03*
X158306802Y-101408200D03*
X158806801Y-101408200D03*
X159306800Y-101408200D03*
X159806802Y-101408200D03*
D49*
X160476201Y-100738801D03*
X160476201Y-100238799D03*
X160476201Y-99738800D03*
X160476201Y-99238801D03*
X160476201Y-98738800D03*
X160476201Y-98238800D03*
X160476201Y-97738799D03*
X160476201Y-97238800D03*
X160476201Y-96738801D03*
X160476201Y-96238799D03*
D50*
X159806802Y-95569400D03*
X159306800Y-95569400D03*
X158806801Y-95569400D03*
X158306802Y-95569400D03*
X157806801Y-95569400D03*
X157306801Y-95569400D03*
X156806800Y-95569400D03*
X156306801Y-95569400D03*
X155806802Y-95569400D03*
X155306800Y-95569400D03*
D51*
X156769401Y-97701400D03*
X156769401Y-98488800D03*
X156769401Y-99276200D03*
X157556801Y-97701400D03*
X157556801Y-98488800D03*
X157556801Y-99276200D03*
X158344201Y-97701400D03*
X158344201Y-98488800D03*
X158344201Y-99276200D03*
%TD*%
D31*
%TO.C,J1*%
X143896800Y-82651600D03*
D32*
X146436800Y-82651600D03*
%TD*%
D52*
%TO.C,R5*%
X164597600Y-84823600D03*
X166247600Y-84823600D03*
%TD*%
D15*
%TO.C,C37*%
X155320000Y-104824000D03*
X155320000Y-106374000D03*
%TD*%
D47*
%TO.C,LO_OUT_B*%
X184550000Y-108418200D03*
D48*
X182500000Y-111118200D03*
X182500000Y-105718200D03*
%TD*%
D21*
%TO.C,R18*%
X159523777Y-109770624D03*
X160245025Y-109049376D03*
%TD*%
D13*
%TO.C,C11*%
X155021800Y-81775600D03*
X155021800Y-80225600D03*
%TD*%
D11*
%TO.C,C44*%
X146100000Y-88400000D03*
X147650000Y-88400000D03*
%TD*%
D53*
%TO.C,C31*%
X154517411Y-102657589D03*
X153838589Y-103336411D03*
%TD*%
D42*
%TO.C,C46*%
X149400201Y-99462200D03*
X150360201Y-99462200D03*
%TD*%
D54*
%TO.C,C35*%
X153540001Y-106090000D03*
X153539999Y-107990000D03*
%TD*%
D25*
%TO.C,C18*%
X159054601Y-106963056D03*
X159054601Y-106003056D03*
%TD*%
D42*
%TO.C,C7*%
X177942200Y-96585600D03*
X178902200Y-96585600D03*
%TD*%
%TO.C,C6*%
X168988799Y-97556400D03*
X169948799Y-97556400D03*
%TD*%
D17*
%TO.C,R31*%
X154305000Y-112611400D03*
X154305000Y-114261400D03*
%TD*%
D16*
%TO.C,R27*%
X145090000Y-99460000D03*
X145090000Y-100479998D03*
%TD*%
D47*
%TO.C,LO_OUT_A*%
X184545798Y-96585600D03*
D48*
X182495798Y-99285600D03*
X182495798Y-93885600D03*
%TD*%
D17*
%TO.C,R33*%
X149225000Y-112623600D03*
X149225000Y-114273600D03*
%TD*%
D16*
%TO.C,R23*%
X146220000Y-98440000D03*
X146220000Y-99460000D03*
%TD*%
D43*
%TO.C,R4*%
X164673800Y-83235600D03*
X164673800Y-81585600D03*
%TD*%
D34*
%TO.C,R12*%
X163551201Y-100622400D03*
X162829953Y-101343648D03*
%TD*%
D24*
%TO.C,R1*%
X162628800Y-82644599D03*
X162628800Y-81624601D03*
%TD*%
D14*
%TO.C,R10*%
X158430000Y-104864200D03*
X157708752Y-104142952D03*
%TD*%
D28*
X151800000Y-104750000D03*
X157800000Y-94550000D03*
X158500000Y-113100000D03*
X152800000Y-112600000D03*
X156900000Y-112600000D03*
X149500000Y-111600000D03*
M02*
