%TF.GenerationSoftware,KiCad,Pcbnew,10.0.4*%
%TF.CreationDate,2026-08-17T00:35:40+02:00*%
%TF.ProjectId,LO_PCB,4c4f5f50-4342-42e6-9b69-6361645f7063,rev?*%
%TF.SameCoordinates,Original*%
%TF.FileFunction,Copper,L4,Bot*%
%TF.FilePolarity,Positive*%
%FSLAX46Y46*%
G04 Gerber Fmt 4.6, Leading zero omitted, Abs format (unit mm)*
G04 Created by KiCad (PCBNEW 10.0.4) date 2026-08-17 00:35:40*
%MOMM*%
%LPD*%
G01*
G04 APERTURE LIST*
%TA.AperFunction,ComponentPad*%
%ADD10C,0.700000*%
%TD*%
%TA.AperFunction,ComponentPad*%
%ADD11C,4.400000*%
%TD*%
%TA.AperFunction,ComponentPad*%
%ADD12C,0.600000*%
%TD*%
%TA.AperFunction,ComponentPad*%
%ADD13R,1.700000X1.700000*%
%TD*%
%TA.AperFunction,ComponentPad*%
%ADD14C,1.700000*%
%TD*%
%TA.AperFunction,SMDPad,CuDef*%
%ADD15R,5.000000X1.400000*%
%TD*%
%TA.AperFunction,ComponentPad*%
%ADD16C,1.016000*%
%TD*%
%TA.AperFunction,ViaPad*%
%ADD17C,0.600000*%
%TD*%
%TA.AperFunction,Conductor*%
%ADD18C,0.334500*%
%TD*%
%TA.AperFunction,Conductor*%
%ADD19C,0.500000*%
%TD*%
%TA.AperFunction,Conductor*%
%ADD20C,0.300000*%
%TD*%
%TA.AperFunction,Conductor*%
%ADD21C,0.200000*%
%TD*%
G04 APERTURE END LIST*
D10*
%TO.P,H2,1,1_1*%
%TO.N,GND*%
X137100000Y-117000000D03*
X137583274Y-115833274D03*
X137583274Y-118166726D03*
X138750000Y-115350000D03*
D11*
X138750000Y-117000000D03*
D10*
X138750000Y-118650000D03*
X139916726Y-115833274D03*
X139916726Y-118166726D03*
X140400000Y-117000000D03*
%TD*%
%TO.P,H4,1,1_1*%
%TO.N,GND*%
X179600000Y-117000000D03*
X180083274Y-115833274D03*
X180083274Y-118166726D03*
X181250000Y-115350000D03*
D11*
X181250000Y-117000000D03*
D10*
X181250000Y-118650000D03*
X182416726Y-115833274D03*
X182416726Y-118166726D03*
X182900000Y-117000000D03*
%TD*%
D12*
%TO.P,U1,11,PAD_11*%
%TO.N,GND*%
X158735600Y-83195798D03*
X158735600Y-82495798D03*
X158735600Y-81795797D03*
X158135600Y-83195798D03*
X158135600Y-82495798D03*
X158135600Y-81795798D03*
%TD*%
D10*
%TO.P,H3,1,1_1*%
%TO.N,GND*%
X179600000Y-80500000D03*
X180083274Y-79333274D03*
X180083274Y-81666726D03*
X181250000Y-78850000D03*
D11*
X181250000Y-80500000D03*
D10*
X181250000Y-82150000D03*
X182416726Y-79333274D03*
X182416726Y-81666726D03*
X182900000Y-80500000D03*
%TD*%
D13*
%TO.P,J2,1,Pin_1_1*%
%TO.N,/INT_OSC_ENABLE*%
X146690000Y-116760000D03*
D14*
%TO.P,J2,2,Pin_2_2*%
%TO.N,Net-(J2-Pin_2)*%
X149230000Y-116760000D03*
%TO.P,J2,3,Pin_3_3*%
%TO.N,Net-(J2-Pin_3)*%
X151769999Y-116760000D03*
%TO.P,J2,4,Pin_4_4*%
%TO.N,Net-(J2-Pin_4)*%
X154310000Y-116760000D03*
%TO.P,J2,5,Pin_5_5*%
%TO.N,Net-(J2-Pin_5)*%
X156850000Y-116760000D03*
%TO.P,J2,6,Pin_6_6*%
%TO.N,GND*%
X159390000Y-116760000D03*
%TD*%
D10*
%TO.P,H1,1,1_1*%
%TO.N,GND*%
X137100000Y-80500000D03*
X137583274Y-79333274D03*
X137583274Y-81666726D03*
X138750000Y-78850000D03*
D11*
X138750000Y-80500000D03*
D10*
X138750000Y-82150000D03*
X139916726Y-79333274D03*
X139916726Y-81666726D03*
X140400000Y-80500000D03*
%TD*%
D15*
%TO.P,OSCIn,2,Ext_2*%
%TO.N,GND*%
X137492201Y-96762200D03*
X137492201Y-102162200D03*
%TD*%
D16*
%TO.P,U2,41,EPAD_41*%
%TO.N,GND*%
X156769401Y-97701400D03*
X156769401Y-98488800D03*
X156769401Y-99276200D03*
X157556801Y-97701400D03*
X157556801Y-98488800D03*
X157556801Y-99276200D03*
X158344201Y-97701400D03*
X158344201Y-98488800D03*
X158344201Y-99276200D03*
%TD*%
D13*
%TO.P,J1,1,Pin_1_1*%
%TO.N,GND*%
X143896800Y-82651600D03*
D14*
%TO.P,J1,2,Pin_2_2*%
%TO.N,Net-(J1-Pin_2)*%
X146436800Y-82651600D03*
%TD*%
D15*
%TO.P,LO_OUT_B,2,Ext_2*%
%TO.N,GND*%
X182500000Y-111118200D03*
X182500000Y-105718200D03*
%TD*%
%TO.P,LO_OUT_A,2,Ext_2*%
%TO.N,GND*%
X182495798Y-99285600D03*
X182495798Y-93885600D03*
%TD*%
D17*
%TO.N,GND*%
X136000000Y-96750000D03*
X179550000Y-83200000D03*
X166300000Y-83150000D03*
X164450000Y-115650000D03*
X163647074Y-103124404D03*
X166650000Y-101950000D03*
X157800000Y-90925000D03*
X141800000Y-92950000D03*
X136250000Y-84000000D03*
X167680000Y-109100000D03*
X147200000Y-94700000D03*
X163800000Y-92325000D03*
X160750000Y-86475000D03*
X183900000Y-111200000D03*
X181650000Y-90100000D03*
X162236965Y-101846835D03*
X178250001Y-115650000D03*
X162475000Y-92300000D03*
X159650000Y-108500000D03*
X144400000Y-95450000D03*
X145250000Y-119500000D03*
X136250000Y-91500000D03*
X158400000Y-89550000D03*
X166000000Y-90900000D03*
X183750000Y-104000000D03*
X176520000Y-98540000D03*
X167750000Y-100300000D03*
X159325000Y-90925000D03*
X165550000Y-113950000D03*
X136250000Y-117240000D03*
X170680000Y-109100000D03*
X141150000Y-82650000D03*
X183800000Y-109400000D03*
X143750000Y-78000000D03*
X166950000Y-98240000D03*
X154760000Y-95530000D03*
X162150000Y-115650000D03*
X183750000Y-119500000D03*
X181650000Y-85500000D03*
X143150000Y-92950000D03*
X161350000Y-113950000D03*
X159200000Y-87650000D03*
X147200000Y-95450000D03*
X177450000Y-87800000D03*
X139326346Y-83673654D03*
X160750000Y-108500000D03*
X184000000Y-95670000D03*
X178700000Y-93850000D03*
X177450000Y-80500000D03*
X171400000Y-103450000D03*
X166250000Y-78000000D03*
X165400000Y-92000000D03*
X142250000Y-78000000D03*
X157927250Y-105700000D03*
X144000000Y-85600000D03*
X135900000Y-98350000D03*
X140626346Y-84923654D03*
X180550000Y-111200000D03*
X143200000Y-106350000D03*
X162440000Y-99989445D03*
X174680000Y-107720000D03*
X172850000Y-79975000D03*
X143875000Y-83900000D03*
X140000000Y-108600000D03*
X146299999Y-85600000D03*
X140000000Y-110900000D03*
X167360000Y-104490000D03*
X178300000Y-99000000D03*
X168225000Y-79200000D03*
X162662111Y-107337889D03*
X148700000Y-110950000D03*
X183900000Y-105800000D03*
X181650000Y-91900000D03*
X176520000Y-97500000D03*
X167900001Y-106600000D03*
X163200000Y-89100000D03*
X167950000Y-96875950D03*
X171399999Y-100500000D03*
X170353200Y-98700000D03*
X179550000Y-87800000D03*
X175250000Y-119500000D03*
X143196000Y-100499600D03*
X139450000Y-94500000D03*
X143150000Y-89800000D03*
X173700001Y-103450000D03*
X178250000Y-78000000D03*
X183750000Y-90000000D03*
X153425000Y-84850000D03*
X137900000Y-108600000D03*
X144950000Y-102900000D03*
X137650000Y-100132650D03*
X144400000Y-92950000D03*
X157550000Y-110300000D03*
X164600000Y-89100000D03*
X143850000Y-87550000D03*
X174680000Y-109100000D03*
X144400000Y-89800000D03*
X135900000Y-100550000D03*
X173750000Y-119500000D03*
X183750000Y-114500000D03*
X183760000Y-118380000D03*
X172250000Y-78000000D03*
X175350000Y-87800000D03*
X170750000Y-119500000D03*
X179800000Y-109110000D03*
X163855400Y-96951800D03*
X158850000Y-84350000D03*
X173649999Y-115650000D03*
X182450000Y-78000000D03*
X160075000Y-107700000D03*
X145350000Y-87550000D03*
X161445063Y-100948449D03*
X140780200Y-98399600D03*
X155900000Y-80250000D03*
X174325000Y-99325000D03*
X165600000Y-79975000D03*
X175350000Y-83200000D03*
X172275000Y-96400000D03*
X154200000Y-89550000D03*
X173250000Y-90100000D03*
X166749999Y-115650000D03*
X152050000Y-86650000D03*
X173680000Y-109100000D03*
X143200000Y-108650000D03*
X156530000Y-104230000D03*
X179350001Y-113950000D03*
X179814323Y-97270000D03*
X144246800Y-98399600D03*
X151100000Y-98550000D03*
X149410050Y-88789950D03*
X180650000Y-93900000D03*
X171680000Y-109100000D03*
X143250000Y-117150000D03*
X173700000Y-100500000D03*
X177450000Y-91900000D03*
X147073654Y-112576346D03*
X158950000Y-111250000D03*
X162153600Y-98145600D03*
X137650000Y-98791750D03*
X158000000Y-86200000D03*
X173680000Y-107720000D03*
X136250000Y-116000000D03*
X158800000Y-80650000D03*
X164950000Y-93425000D03*
X144400000Y-91500000D03*
X140780200Y-100500000D03*
X162350000Y-86475000D03*
X157250000Y-119500000D03*
X165006920Y-108893551D03*
X136250000Y-94500000D03*
X143200000Y-104050000D03*
X179500000Y-119500000D03*
X136250000Y-88500000D03*
X141550000Y-111850000D03*
X176000000Y-100500000D03*
X166950000Y-96879150D03*
X178900000Y-111950000D03*
X169350000Y-83830000D03*
X147000000Y-87550000D03*
X174325000Y-95550000D03*
X166000000Y-87600000D03*
X169140000Y-101810000D03*
X176680000Y-107720000D03*
X169050000Y-117900000D03*
X183750000Y-81000000D03*
X175350000Y-85500000D03*
X170275000Y-79175000D03*
X150495000Y-101396800D03*
X166680000Y-109110000D03*
X161750000Y-78000000D03*
X182800000Y-107730000D03*
X165650000Y-101950000D03*
X150150000Y-102400000D03*
X177580000Y-94800000D03*
X181000000Y-119500000D03*
X183750000Y-116000000D03*
X151250000Y-119500000D03*
X164516197Y-107199634D03*
X158122750Y-102303746D03*
X150400000Y-87800000D03*
X149575000Y-84750000D03*
X136800000Y-100330000D03*
X163600000Y-87600000D03*
X168430000Y-101150000D03*
X136250000Y-110000000D03*
X182450000Y-119500000D03*
X159410000Y-115510000D03*
X172450000Y-112000000D03*
X158050000Y-84350000D03*
X157050000Y-84850000D03*
X160620000Y-116800000D03*
X147200000Y-96200000D03*
X167950000Y-98240000D03*
X145300000Y-96950000D03*
X176000001Y-105050000D03*
X142250000Y-119500000D03*
X137800000Y-102200000D03*
X164400000Y-101850000D03*
X175680000Y-107720000D03*
X175849999Y-110700000D03*
X162100000Y-109150000D03*
X183760000Y-117240000D03*
X136250000Y-119500000D03*
X138650000Y-98791750D03*
X173550000Y-110700000D03*
X156529550Y-105200000D03*
X161350000Y-111400000D03*
X177100000Y-106600000D03*
X178650000Y-95550000D03*
X139650000Y-98791750D03*
X182300000Y-93900000D03*
X160800000Y-109600000D03*
X170680000Y-107720000D03*
X144950000Y-107500000D03*
X163250000Y-119500000D03*
X175950000Y-117900000D03*
X167750000Y-83150000D03*
X176680000Y-109100000D03*
X139450000Y-102200000D03*
X170200000Y-91700000D03*
X137700000Y-96750000D03*
X159060701Y-103759988D03*
X159775000Y-85525000D03*
X148386800Y-102184200D03*
X163250000Y-113950000D03*
X166575000Y-79175000D03*
X182250000Y-99350000D03*
X162875271Y-105654729D03*
X139250000Y-78000000D03*
X168680000Y-107720000D03*
X170600000Y-83200000D03*
X152600000Y-90975000D03*
X148850000Y-90100000D03*
X153325000Y-101050000D03*
X161750000Y-119500000D03*
X170150000Y-113950000D03*
X155350000Y-87650000D03*
X183750000Y-91500000D03*
X139450000Y-92200000D03*
X137750000Y-119500000D03*
X178250001Y-117900000D03*
X180550000Y-105800000D03*
X171325000Y-95800000D03*
X158750000Y-119500000D03*
X172500001Y-106600000D03*
X137900000Y-110900000D03*
X157000000Y-108500000D03*
X174800001Y-106600000D03*
X178300000Y-103450000D03*
X151250000Y-78000000D03*
X180880000Y-95908350D03*
X169250000Y-119500000D03*
X146250000Y-101250000D03*
X172680000Y-109100000D03*
X155750000Y-78000000D03*
X142087600Y-98400000D03*
X161449715Y-99029282D03*
X181749999Y-102050000D03*
X145250000Y-78000000D03*
X145100000Y-101250000D03*
X166750000Y-91750000D03*
X145300000Y-98400000D03*
X171900000Y-79175000D03*
X166750000Y-93149999D03*
X183000000Y-97270000D03*
X170353200Y-96400000D03*
X142250000Y-79750000D03*
X151900000Y-110650000D03*
X173250000Y-98700000D03*
X136250000Y-90000000D03*
X145800000Y-92950000D03*
X170290000Y-86440000D03*
X142087600Y-100500000D03*
X176000001Y-103450000D03*
X177800000Y-109500000D03*
X143250000Y-114850000D03*
X173250000Y-92400000D03*
X141800000Y-96450000D03*
X177450000Y-83200000D03*
X173250000Y-85500000D03*
X170150000Y-112000000D03*
X149150000Y-79750000D03*
X175350000Y-80500000D03*
X153330000Y-103760000D03*
X149900000Y-105550000D03*
X137900000Y-113200000D03*
X167750000Y-78000000D03*
X148400000Y-98400000D03*
X180600000Y-103450000D03*
X149900000Y-107500000D03*
X180800000Y-107730000D03*
X161932111Y-106607889D03*
X182200000Y-105800000D03*
X164750000Y-78000000D03*
X164600000Y-86400000D03*
X139350000Y-96750000D03*
X136250000Y-87000000D03*
X175400000Y-98550000D03*
X143196000Y-98399600D03*
X175950000Y-115650000D03*
X170240000Y-89990000D03*
X141800000Y-94450000D03*
X181650000Y-83800000D03*
X179449999Y-102050000D03*
X178250000Y-119500000D03*
X172549999Y-102050000D03*
X178650000Y-97500000D03*
X146800000Y-110950000D03*
X167750000Y-119500000D03*
X179500000Y-78000000D03*
X163250000Y-112000000D03*
X166650000Y-110700000D03*
X175400000Y-94800000D03*
X162050001Y-79650000D03*
X163863109Y-108465241D03*
X150600000Y-94600000D03*
X179550000Y-90100000D03*
X182800000Y-109110000D03*
X175680000Y-109100000D03*
X168900000Y-92700000D03*
X160250000Y-119500000D03*
X175250000Y-78000000D03*
X183950000Y-99350000D03*
X139250000Y-119500000D03*
X156529550Y-107200000D03*
X155750000Y-119500000D03*
X156450000Y-109700000D03*
X145300000Y-97700000D03*
X144950000Y-105200000D03*
X164600000Y-90900000D03*
X166270000Y-101040000D03*
X158750000Y-78000000D03*
X178300000Y-105050000D03*
X157550000Y-109200000D03*
X140000000Y-106300000D03*
X164950000Y-96879150D03*
X183000000Y-95910000D03*
X165650000Y-103900000D03*
X140750000Y-78000000D03*
X167849999Y-113950000D03*
X183750000Y-84000000D03*
X166000000Y-89100000D03*
X136250000Y-79500000D03*
X161232111Y-105907889D03*
X180599999Y-101000000D03*
X172450000Y-113950000D03*
X136250000Y-107000000D03*
X178000000Y-110700000D03*
X143750000Y-119500000D03*
X180600000Y-99350000D03*
X157927250Y-106520000D03*
X146750000Y-119500000D03*
X136100000Y-102200000D03*
X157100000Y-79650000D03*
X181650000Y-87800000D03*
X136250000Y-105500000D03*
X173250000Y-83200000D03*
X171400000Y-105050000D03*
X183750000Y-88500000D03*
X137700000Y-94500000D03*
X169330000Y-91000000D03*
X158000000Y-80650000D03*
X160930235Y-103564383D03*
X147200000Y-97700000D03*
X180800000Y-109110000D03*
X157000000Y-89550000D03*
X153600000Y-91975000D03*
X157909035Y-102969035D03*
X139650000Y-100132650D03*
X183800000Y-107470000D03*
X183750000Y-82500000D03*
X181000000Y-78000000D03*
X166650000Y-103850000D03*
X143200000Y-101750000D03*
X170200000Y-106600000D03*
X146253200Y-102184200D03*
X149750000Y-93450000D03*
X177050000Y-113950000D03*
X164450000Y-117900000D03*
X141600000Y-114850000D03*
X154450000Y-85800000D03*
X140750000Y-119500000D03*
X164042642Y-98390000D03*
X154150000Y-80250000D03*
X160097571Y-110361010D03*
X137900000Y-104000000D03*
X148450000Y-88400000D03*
X183750000Y-101000000D03*
X154250000Y-78000000D03*
X142300000Y-88390200D03*
X148400000Y-101400000D03*
X179800000Y-107729371D03*
X143250000Y-112550000D03*
X152750000Y-78000000D03*
X171680000Y-107720000D03*
X183750000Y-85500000D03*
X171350000Y-115650000D03*
X137900000Y-106300000D03*
X174300000Y-93650000D03*
X181800000Y-109110000D03*
X136250000Y-108500000D03*
X149750000Y-94600000D03*
X165375000Y-94850000D03*
X184000000Y-93900000D03*
X151350000Y-88700000D03*
X148250000Y-119500000D03*
X141800000Y-85600000D03*
X175400000Y-95550000D03*
X138650000Y-100132650D03*
X168752400Y-96400000D03*
X160557111Y-105232889D03*
X137700000Y-89900000D03*
X136250000Y-118380000D03*
X142675000Y-82650000D03*
X137700000Y-87600000D03*
X136250000Y-113000000D03*
X179814323Y-95908350D03*
X144272000Y-100533200D03*
X177580000Y-97500000D03*
X173250000Y-96400000D03*
X178299999Y-100500000D03*
X167680000Y-107720000D03*
X160750000Y-92900000D03*
X160200000Y-102958183D03*
X153390761Y-94611011D03*
X172680000Y-107720000D03*
X160500000Y-112200000D03*
X136250000Y-93000000D03*
X155000000Y-79250000D03*
X182200000Y-111200000D03*
X136250000Y-82500000D03*
X162100000Y-110350000D03*
X181940000Y-95910000D03*
X168680000Y-109100000D03*
X136250000Y-114500000D03*
X163590271Y-106369729D03*
X173250000Y-87800000D03*
X166250000Y-119500000D03*
X152750000Y-119500000D03*
X149900000Y-106500000D03*
X160750000Y-90300000D03*
X164600000Y-103900000D03*
X143150000Y-91500000D03*
X146800000Y-106350000D03*
X155100000Y-108250000D03*
X166270000Y-100220000D03*
X166000000Y-86400000D03*
X160750000Y-91600000D03*
X136250000Y-104000000D03*
X171250000Y-110700000D03*
X140000000Y-113200000D03*
X177580000Y-95550000D03*
X164750000Y-119500000D03*
X148250000Y-78000000D03*
X172275000Y-98700000D03*
X136250000Y-111500000D03*
X149600000Y-85500000D03*
X159800000Y-89550000D03*
X169680000Y-107720000D03*
X172250000Y-119500000D03*
X146800000Y-104050000D03*
X147200000Y-96950000D03*
X183750000Y-79500000D03*
X161100000Y-87650000D03*
X156529550Y-106200000D03*
X143150000Y-95450000D03*
X160600000Y-80000000D03*
X169680000Y-109100000D03*
X170270000Y-88340000D03*
X169050000Y-115650000D03*
X147320000Y-103310000D03*
X137700000Y-92200000D03*
X175350000Y-92400000D03*
X173649999Y-117900000D03*
X157250000Y-78000000D03*
X166749999Y-117900000D03*
X178900000Y-107290000D03*
X156075000Y-85800000D03*
X152900000Y-80250000D03*
X171350000Y-117900000D03*
X147600000Y-93150000D03*
X168949999Y-110700000D03*
X162155271Y-104934729D03*
X178900000Y-109510000D03*
X176550000Y-93600000D03*
X151449999Y-79750000D03*
X161470271Y-104249729D03*
X168080000Y-103860000D03*
X157300000Y-87650000D03*
X141250000Y-88700000D03*
X172200000Y-93650000D03*
X160250000Y-78000000D03*
X174749999Y-113950000D03*
X181940000Y-97270000D03*
X170750000Y-78000000D03*
X159600000Y-113050000D03*
X146800000Y-108650000D03*
X162996335Y-102473665D03*
X157550000Y-111500000D03*
X149750000Y-92100000D03*
X151750000Y-91800000D03*
X174850000Y-102050000D03*
X163200000Y-90900000D03*
X175350000Y-90100000D03*
X167849999Y-112000000D03*
X149750000Y-96350000D03*
X136800000Y-98577150D03*
X150360050Y-89689950D03*
X147200000Y-98400000D03*
X173700001Y-105050000D03*
X136250000Y-78000000D03*
X177050000Y-112000000D03*
X141600000Y-117150000D03*
X171050000Y-89250000D03*
X149900000Y-103950000D03*
X165950000Y-96879150D03*
X170280000Y-84810000D03*
X177150000Y-102050000D03*
X173750000Y-78000000D03*
X136250000Y-85500000D03*
X164350000Y-110700000D03*
X146250000Y-100400000D03*
X173250000Y-94600000D03*
X158650000Y-110350000D03*
X144550001Y-79750000D03*
X183750000Y-87000000D03*
X151900000Y-108400000D03*
X143150000Y-94450000D03*
X179550000Y-85500000D03*
X155325000Y-107225000D03*
X167710000Y-101810000D03*
X146850000Y-79750000D03*
X152019000Y-98552000D03*
X177450000Y-85500000D03*
X164950000Y-98240000D03*
X184000000Y-97520000D03*
X163250000Y-78000000D03*
X150600000Y-95450000D03*
X162150000Y-117900000D03*
X183750000Y-113000000D03*
X176520000Y-94790000D03*
X183750000Y-78000000D03*
X154250000Y-119500000D03*
X183750000Y-102500000D03*
X176750000Y-119500000D03*
X146750000Y-78000000D03*
X166680000Y-107719242D03*
X159399999Y-79650000D03*
X142750000Y-87550000D03*
X177804260Y-107290000D03*
X174749999Y-112000000D03*
X165950000Y-98240000D03*
X180880000Y-97270000D03*
X149750000Y-78000000D03*
X176750000Y-78000000D03*
X150875000Y-109550000D03*
X156275000Y-90925000D03*
X181800000Y-107730000D03*
X153450000Y-87650000D03*
X150105200Y-98450000D03*
X164350000Y-79650000D03*
X165550000Y-112000000D03*
X165329550Y-107589710D03*
X137750000Y-78000000D03*
X155600000Y-89550000D03*
X171050000Y-87400000D03*
X159996626Y-102292611D03*
X174325000Y-96375000D03*
X177450000Y-90100000D03*
X159050000Y-107700000D03*
X149750000Y-119500000D03*
X169250000Y-78000000D03*
X137700000Y-85300000D03*
X163070000Y-97440000D03*
X168752400Y-98704400D03*
X144950000Y-109800000D03*
X139000000Y-86550000D03*
X136250000Y-81000000D03*
X171325000Y-98700000D03*
X143925000Y-81400000D03*
X144400000Y-94450000D03*
X149250000Y-87600000D03*
X152775000Y-97250000D03*
X179550000Y-91900000D03*
%TO.N,VccRF*%
X163650000Y-109500000D03*
X165100000Y-99100000D03*
X164100000Y-104950000D03*
X169600000Y-94450000D03*
%TO.N,Net-(U2-VTUNE)*%
X151800000Y-104750000D03*
X157800000Y-94550000D03*
%TO.N,VCC*%
X149555200Y-97459800D03*
X157306801Y-102136798D03*
X153134000Y-104620000D03*
X148615400Y-104571800D03*
%TO.N,Net-(Q1-S)*%
X156551286Y-81434968D03*
X153500000Y-81860000D03*
%TO.N,/INT_OSC_ENABLE*%
X146690000Y-114630000D03*
X140350000Y-94880000D03*
%TO.N,Net-(U2-MUXOUT)*%
X159554389Y-100568859D03*
X158500000Y-113100000D03*
%TO.N,Net-(U2-SDI)*%
X152800000Y-112600000D03*
X158750000Y-100554198D03*
%TO.N,Net-(U2-CSB)*%
X156900000Y-112600000D03*
X159717658Y-99317552D03*
%TO.N,Net-(U2-SCK)*%
X157684566Y-100621399D03*
X149500000Y-111600000D03*
%TD*%
%TO.N,VccRF*%
D18*
X166000000Y-109200000D02*
X166000000Y-106250000D01*
D19*
X164150000Y-104950000D02*
X164100000Y-104950000D01*
X169600000Y-99350000D02*
X169492400Y-99457600D01*
X169492400Y-99457600D02*
X166607600Y-99457600D01*
X164800000Y-105650000D02*
X164100000Y-104950000D01*
X166607600Y-99457600D02*
X166250000Y-99100000D01*
D18*
X165600000Y-109600000D02*
X166000000Y-109200000D01*
D19*
X168750000Y-105650000D02*
X166600000Y-105650000D01*
D18*
X163650000Y-109500000D02*
X163750000Y-109600000D01*
D19*
X170020000Y-104380000D02*
X168750000Y-105650000D01*
X169600000Y-99350000D02*
X170020000Y-99770000D01*
X170020000Y-99770000D02*
X170020000Y-104380000D01*
D18*
X166000000Y-106250000D02*
X166600000Y-105650000D01*
D19*
X166600000Y-105650000D02*
X164800000Y-105650000D01*
X169600000Y-94450000D02*
X169600000Y-99350000D01*
X166250000Y-99100000D02*
X165100000Y-99100000D01*
D18*
X163750000Y-109600000D02*
X165600000Y-109600000D01*
%TO.N,Net-(U2-VTUNE)*%
D20*
X153450000Y-98510786D02*
X153450000Y-95914214D01*
X152092893Y-100282107D02*
X153157107Y-99217893D01*
X151800000Y-104750000D02*
X151800000Y-100989214D01*
X153742893Y-95207107D02*
X154107107Y-94842893D01*
X154814214Y-94550000D02*
X157800000Y-94550000D01*
X153450000Y-95914214D02*
G75*
G02*
X153742886Y-95207100I1000000J14D01*
G01*
X154814214Y-94550000D02*
G75*
G03*
X154107100Y-94842886I-14J-1000000D01*
G01*
X153450000Y-98510786D02*
G75*
G02*
X153157114Y-99217900I-1000000J-14D01*
G01*
X151800000Y-100989214D02*
G75*
G02*
X152092886Y-100282100I1000000J14D01*
G01*
%TO.N,VCC*%
D19*
X155702000Y-102489000D02*
X153924000Y-104267000D01*
X149555200Y-97459800D02*
X149352000Y-97663000D01*
X155702000Y-102488000D02*
X155702000Y-102489000D01*
X153570000Y-104620000D02*
X153134000Y-104620000D01*
X157306801Y-102136798D02*
X156053202Y-102136798D01*
X156053202Y-102136798D02*
X155702000Y-102488000D01*
X148615400Y-103352600D02*
X148615400Y-104571800D01*
X149352000Y-97663000D02*
X149352000Y-102616000D01*
X149352000Y-102616000D02*
X148615400Y-103352600D01*
X153924000Y-104267000D02*
X153923000Y-104267000D01*
X153923000Y-104267000D02*
X153570000Y-104620000D01*
%TO.N,Net-(Q1-S)*%
D21*
X156551286Y-81434968D02*
X156275032Y-81434968D01*
X156275032Y-81434968D02*
X155850000Y-81860000D01*
X155850000Y-81860000D02*
X153500000Y-81860000D01*
%TO.N,/INT_OSC_ENABLE*%
X140720000Y-95250000D02*
X140350000Y-94880000D01*
X146690000Y-113980000D02*
X141427200Y-108717200D01*
X140720000Y-97387600D02*
X140720000Y-95250000D01*
X141427200Y-108717200D02*
X141427200Y-98094800D01*
X146690000Y-114630000D02*
X146690000Y-113980000D01*
X141427200Y-98094800D02*
X140720000Y-97387600D01*
%TO.N,Net-(U2-MUXOUT)*%
X161403200Y-110196800D02*
X158500000Y-113100000D01*
X159373426Y-100726577D02*
X159373426Y-103012846D01*
X161403200Y-106932032D02*
X161403200Y-110196800D01*
X159373426Y-103012846D02*
X159953911Y-103593331D01*
X159953911Y-103593331D02*
X159953911Y-105482743D01*
X159554389Y-100568859D02*
X159531144Y-100568859D01*
X159531144Y-100568859D02*
X159373426Y-100726577D01*
X159953911Y-105482743D02*
X161403200Y-106932032D01*
%TO.N,Net-(U2-SDI)*%
X152800000Y-111812604D02*
X152800000Y-112600000D01*
X158750000Y-103011124D02*
X157162750Y-104598374D01*
X157162750Y-107449854D02*
X152800000Y-111812604D01*
X158750000Y-100554198D02*
X158750000Y-103011124D01*
X157162750Y-104598374D02*
X157162750Y-107449854D01*
%TO.N,Net-(U2-CSB)*%
X162750000Y-108430000D02*
X163650000Y-107530000D01*
X160150003Y-100821774D02*
X160154389Y-100817388D01*
X158050000Y-113800000D02*
X160050000Y-113800000D01*
X159717658Y-99609055D02*
X159717658Y-99317552D01*
X163650000Y-107163054D02*
X164270000Y-106543054D01*
X164270000Y-106543054D02*
X164270000Y-106196404D01*
X160154389Y-100320330D02*
X160150003Y-100315944D01*
X162750000Y-111100000D02*
X162750000Y-108430000D01*
X156900000Y-112600000D02*
X156900000Y-112650000D01*
X163650000Y-107530000D02*
X163650000Y-107163054D01*
X160150003Y-100900003D02*
X160150003Y-100821774D01*
X160150003Y-100315944D02*
X160150003Y-100041400D01*
X164270000Y-106196404D02*
X161533435Y-103459839D01*
X160154389Y-100817388D02*
X160154389Y-100320330D01*
X156900000Y-112650000D02*
X158050000Y-113800000D01*
X160150003Y-100041400D02*
X159717658Y-99609055D01*
X161533435Y-102283435D02*
X160150003Y-100900003D01*
X160050000Y-113800000D02*
X162750000Y-111100000D01*
X161533435Y-103459839D02*
X161533435Y-102283435D01*
%TO.N,Net-(U2-SCK)*%
X149500000Y-109330000D02*
X149500000Y-111600000D01*
X149500000Y-109330000D02*
X152534000Y-106296000D01*
X157595915Y-100621399D02*
X157564235Y-100653079D01*
X152534000Y-103702946D02*
X155615547Y-100621399D01*
X157684566Y-100621399D02*
X157595915Y-100621399D01*
X155615547Y-100621399D02*
X157684566Y-100621399D01*
X152534000Y-106296000D02*
X152534000Y-103702946D01*
%TD*%
%TA.AperFunction,Conductor*%
%TO.N,GND*%
G36*
X159882329Y-101057417D02*
G01*
X159901400Y-101080516D01*
X159902034Y-101080030D01*
X159906980Y-101086476D01*
X159906982Y-101086479D01*
X160554242Y-101733739D01*
X161193416Y-102372912D01*
X161226901Y-102434235D01*
X161229735Y-102460593D01*
X161229735Y-103499825D01*
X161250429Y-103577060D01*
X161250431Y-103577063D01*
X161290414Y-103646315D01*
X162627150Y-104983051D01*
X163926147Y-106282047D01*
X163959632Y-106343370D01*
X163954648Y-106413062D01*
X163926147Y-106457409D01*
X163406982Y-106976574D01*
X163406979Y-106976578D01*
X163366994Y-107045832D01*
X163346300Y-107123067D01*
X163346300Y-107352840D01*
X163326615Y-107419879D01*
X163309981Y-107440521D01*
X162506982Y-108243520D01*
X162506979Y-108243524D01*
X162466994Y-108312778D01*
X162446300Y-108390013D01*
X162446300Y-110922841D01*
X162426615Y-110989880D01*
X162409981Y-111010522D01*
X159960522Y-113459981D01*
X159899199Y-113493466D01*
X159872841Y-113496300D01*
X159067592Y-113496300D01*
X159000553Y-113476615D01*
X158954798Y-113423811D01*
X158944854Y-113354653D01*
X158960203Y-113310302D01*
X158969373Y-113294421D01*
X159003700Y-113166313D01*
X159003700Y-113077158D01*
X159023385Y-113010119D01*
X159040019Y-112989477D01*
X160256879Y-111772617D01*
X161646221Y-110383276D01*
X161686204Y-110314024D01*
X161706900Y-110236783D01*
X161706900Y-110156817D01*
X161706900Y-106892049D01*
X161686204Y-106814808D01*
X161646221Y-106745556D01*
X161589676Y-106689011D01*
X161585345Y-106684680D01*
X161585334Y-106684670D01*
X160293930Y-105393265D01*
X160260445Y-105331942D01*
X160257611Y-105305584D01*
X160257611Y-103553351D01*
X160257610Y-103553344D01*
X160236916Y-103476109D01*
X160236595Y-103475553D01*
X160196932Y-103406855D01*
X160140387Y-103350310D01*
X159713445Y-102923368D01*
X159679960Y-102862045D01*
X159677126Y-102835687D01*
X159677126Y-101151130D01*
X159696811Y-101084091D01*
X159749615Y-101038336D01*
X159818773Y-101028392D01*
X159882329Y-101057417D01*
G37*
%TD.AperFunction*%
%TA.AperFunction,Conductor*%
G36*
X164729780Y-106100889D02*
G01*
X164740269Y-106103700D01*
X165505050Y-106103700D01*
X165572089Y-106123385D01*
X165617844Y-106176189D01*
X165629050Y-106227700D01*
X165629050Y-108994985D01*
X165620404Y-109024428D01*
X165613882Y-109054411D01*
X165610127Y-109059426D01*
X165609365Y-109062024D01*
X165592735Y-109082661D01*
X165482665Y-109192732D01*
X165421345Y-109226216D01*
X165394986Y-109229050D01*
X164142751Y-109229050D01*
X164075712Y-109209365D01*
X164055070Y-109192731D01*
X163959280Y-109096941D01*
X163959275Y-109096937D01*
X163844423Y-109030628D01*
X163844422Y-109030627D01*
X163812394Y-109022045D01*
X163716313Y-108996300D01*
X163583687Y-108996300D01*
X163506822Y-109016896D01*
X163455577Y-109030627D01*
X163455576Y-109030628D01*
X163340724Y-109096937D01*
X163340719Y-109096941D01*
X163265381Y-109172280D01*
X163204058Y-109205765D01*
X163134366Y-109200781D01*
X163078433Y-109158909D01*
X163054016Y-109093445D01*
X163053700Y-109084599D01*
X163053700Y-108607157D01*
X163073385Y-108540118D01*
X163090015Y-108519480D01*
X163826266Y-107783228D01*
X163826271Y-107783225D01*
X163836474Y-107773021D01*
X163836476Y-107773021D01*
X163893021Y-107716476D01*
X163933004Y-107647224D01*
X163935923Y-107636332D01*
X163953699Y-107569986D01*
X163953700Y-107569983D01*
X163953700Y-107340211D01*
X163973385Y-107273172D01*
X163990015Y-107252534D01*
X164446266Y-106796282D01*
X164446271Y-106796279D01*
X164456474Y-106786075D01*
X164456476Y-106786075D01*
X164513021Y-106729530D01*
X164553004Y-106660278D01*
X164563542Y-106620950D01*
X164573700Y-106583038D01*
X164573700Y-106503071D01*
X164573700Y-106220667D01*
X164593385Y-106153628D01*
X164646189Y-106107873D01*
X164715347Y-106097929D01*
X164729780Y-106100889D01*
G37*
%TD.AperFunction*%
%TA.AperFunction,Conductor*%
G36*
X184442539Y-77270185D02*
G01*
X184488294Y-77322989D01*
X184499500Y-77374500D01*
X184499500Y-120125500D01*
X184479815Y-120192539D01*
X184427011Y-120238294D01*
X184375500Y-120249500D01*
X135624500Y-120249500D01*
X135557461Y-120229815D01*
X135511706Y-120177011D01*
X135500500Y-120125500D01*
X135500500Y-117630066D01*
X145636299Y-117630066D01*
X145648117Y-117689476D01*
X145648118Y-117689479D01*
X145650989Y-117693776D01*
X145693140Y-117756860D01*
X145760520Y-117801881D01*
X145760523Y-117801882D01*
X145819933Y-117813700D01*
X145819936Y-117813700D01*
X147560066Y-117813700D01*
X147619476Y-117801882D01*
X147619477Y-117801881D01*
X147619480Y-117801881D01*
X147686860Y-117756860D01*
X147731881Y-117689480D01*
X147743700Y-117630064D01*
X147743700Y-116656215D01*
X148176300Y-116656215D01*
X148176300Y-116863784D01*
X148216791Y-117067345D01*
X148216793Y-117067353D01*
X148296222Y-117259110D01*
X148296227Y-117259120D01*
X148411537Y-117431693D01*
X148411540Y-117431697D01*
X148558302Y-117578459D01*
X148558306Y-117578462D01*
X148730879Y-117693772D01*
X148730883Y-117693774D01*
X148730886Y-117693776D01*
X148922647Y-117773207D01*
X149066802Y-117801881D01*
X149126215Y-117813699D01*
X149126219Y-117813700D01*
X149126220Y-117813700D01*
X149333781Y-117813700D01*
X149333782Y-117813699D01*
X149537353Y-117773207D01*
X149729114Y-117693776D01*
X149901694Y-117578462D01*
X150048462Y-117431694D01*
X150163776Y-117259114D01*
X150243207Y-117067353D01*
X150283700Y-116863780D01*
X150283700Y-116656220D01*
X150283699Y-116656215D01*
X150716299Y-116656215D01*
X150716299Y-116863784D01*
X150756790Y-117067345D01*
X150756792Y-117067353D01*
X150836221Y-117259110D01*
X150836226Y-117259120D01*
X150951536Y-117431693D01*
X150951539Y-117431697D01*
X151098301Y-117578459D01*
X151098305Y-117578462D01*
X151270878Y-117693772D01*
X151270882Y-117693774D01*
X151270885Y-117693776D01*
X151462646Y-117773207D01*
X151606801Y-117801881D01*
X151666214Y-117813699D01*
X151666218Y-117813700D01*
X151666219Y-117813700D01*
X151873780Y-117813700D01*
X151873781Y-117813699D01*
X152077352Y-117773207D01*
X152269113Y-117693776D01*
X152441693Y-117578462D01*
X152588461Y-117431694D01*
X152703775Y-117259114D01*
X152783206Y-117067353D01*
X152823699Y-116863780D01*
X152823699Y-116656220D01*
X152823698Y-116656215D01*
X153256300Y-116656215D01*
X153256300Y-116863784D01*
X153296791Y-117067345D01*
X153296793Y-117067353D01*
X153376222Y-117259110D01*
X153376227Y-117259120D01*
X153491537Y-117431693D01*
X153491540Y-117431697D01*
X153638302Y-117578459D01*
X153638306Y-117578462D01*
X153810879Y-117693772D01*
X153810883Y-117693774D01*
X153810886Y-117693776D01*
X154002647Y-117773207D01*
X154146802Y-117801881D01*
X154206215Y-117813699D01*
X154206219Y-117813700D01*
X154206220Y-117813700D01*
X154413781Y-117813700D01*
X154413782Y-117813699D01*
X154617353Y-117773207D01*
X154809114Y-117693776D01*
X154981694Y-117578462D01*
X155128462Y-117431694D01*
X155243776Y-117259114D01*
X155323207Y-117067353D01*
X155363700Y-116863780D01*
X155363700Y-116656220D01*
X155363699Y-116656215D01*
X155796300Y-116656215D01*
X155796300Y-116863784D01*
X155836791Y-117067345D01*
X155836793Y-117067353D01*
X155916222Y-117259110D01*
X155916227Y-117259120D01*
X156031537Y-117431693D01*
X156031540Y-117431697D01*
X156178302Y-117578459D01*
X156178306Y-117578462D01*
X156350879Y-117693772D01*
X156350883Y-117693774D01*
X156350886Y-117693776D01*
X156542647Y-117773207D01*
X156686802Y-117801881D01*
X156746215Y-117813699D01*
X156746219Y-117813700D01*
X156746220Y-117813700D01*
X156953781Y-117813700D01*
X156953782Y-117813699D01*
X157157353Y-117773207D01*
X157349114Y-117693776D01*
X157521694Y-117578462D01*
X157668462Y-117431694D01*
X157783776Y-117259114D01*
X157863207Y-117067353D01*
X157903700Y-116863780D01*
X157903700Y-116656220D01*
X157863207Y-116452647D01*
X157783776Y-116260886D01*
X157783774Y-116260883D01*
X157783772Y-116260879D01*
X157668462Y-116088306D01*
X157668459Y-116088302D01*
X157521697Y-115941540D01*
X157521693Y-115941537D01*
X157349120Y-115826227D01*
X157349110Y-115826222D01*
X157157353Y-115746793D01*
X157157345Y-115746791D01*
X156953784Y-115706300D01*
X156953780Y-115706300D01*
X156746220Y-115706300D01*
X156746215Y-115706300D01*
X156542654Y-115746791D01*
X156542646Y-115746793D01*
X156350889Y-115826222D01*
X156350879Y-115826227D01*
X156178306Y-115941537D01*
X156178302Y-115941540D01*
X156031540Y-116088302D01*
X156031537Y-116088306D01*
X155916227Y-116260879D01*
X155916222Y-116260889D01*
X155836793Y-116452646D01*
X155836791Y-116452654D01*
X155796300Y-116656215D01*
X155363699Y-116656215D01*
X155323207Y-116452647D01*
X155243776Y-116260886D01*
X155243774Y-116260883D01*
X155243772Y-116260879D01*
X155128462Y-116088306D01*
X155128459Y-116088302D01*
X154981697Y-115941540D01*
X154981693Y-115941537D01*
X154809120Y-115826227D01*
X154809110Y-115826222D01*
X154617353Y-115746793D01*
X154617345Y-115746791D01*
X154413784Y-115706300D01*
X154413780Y-115706300D01*
X154206220Y-115706300D01*
X154206215Y-115706300D01*
X154002654Y-115746791D01*
X154002646Y-115746793D01*
X153810889Y-115826222D01*
X153810879Y-115826227D01*
X153638306Y-115941537D01*
X153638302Y-115941540D01*
X153491540Y-116088302D01*
X153491537Y-116088306D01*
X153376227Y-116260879D01*
X153376222Y-116260889D01*
X153296793Y-116452646D01*
X153296791Y-116452654D01*
X153256300Y-116656215D01*
X152823698Y-116656215D01*
X152783206Y-116452647D01*
X152703775Y-116260886D01*
X152703773Y-116260883D01*
X152703771Y-116260879D01*
X152588461Y-116088306D01*
X152588458Y-116088302D01*
X152441696Y-115941540D01*
X152441692Y-115941537D01*
X152269119Y-115826227D01*
X152269109Y-115826222D01*
X152077352Y-115746793D01*
X152077344Y-115746791D01*
X151873783Y-115706300D01*
X151873779Y-115706300D01*
X151666219Y-115706300D01*
X151666214Y-115706300D01*
X151462653Y-115746791D01*
X151462645Y-115746793D01*
X151270888Y-115826222D01*
X151270878Y-115826227D01*
X151098305Y-115941537D01*
X151098301Y-115941540D01*
X150951539Y-116088302D01*
X150951536Y-116088306D01*
X150836226Y-116260879D01*
X150836221Y-116260889D01*
X150756792Y-116452646D01*
X150756790Y-116452654D01*
X150716299Y-116656215D01*
X150283699Y-116656215D01*
X150243207Y-116452647D01*
X150163776Y-116260886D01*
X150163774Y-116260883D01*
X150163772Y-116260879D01*
X150048462Y-116088306D01*
X150048459Y-116088302D01*
X149901697Y-115941540D01*
X149901693Y-115941537D01*
X149729120Y-115826227D01*
X149729110Y-115826222D01*
X149537353Y-115746793D01*
X149537345Y-115746791D01*
X149333784Y-115706300D01*
X149333780Y-115706300D01*
X149126220Y-115706300D01*
X149126215Y-115706300D01*
X148922654Y-115746791D01*
X148922646Y-115746793D01*
X148730889Y-115826222D01*
X148730879Y-115826227D01*
X148558306Y-115941537D01*
X148558302Y-115941540D01*
X148411540Y-116088302D01*
X148411537Y-116088306D01*
X148296227Y-116260879D01*
X148296222Y-116260889D01*
X148216793Y-116452646D01*
X148216791Y-116452654D01*
X148176300Y-116656215D01*
X147743700Y-116656215D01*
X147743700Y-115889936D01*
X147743700Y-115889933D01*
X147731882Y-115830523D01*
X147731881Y-115830520D01*
X147729013Y-115826227D01*
X147686860Y-115763140D01*
X147619480Y-115718119D01*
X147619479Y-115718118D01*
X147619476Y-115718117D01*
X147560066Y-115706300D01*
X147560064Y-115706300D01*
X145819936Y-115706300D01*
X145819934Y-115706300D01*
X145760523Y-115718117D01*
X145760520Y-115718118D01*
X145693140Y-115763140D01*
X145648118Y-115830520D01*
X145648117Y-115830523D01*
X145636300Y-115889933D01*
X145636300Y-115889936D01*
X145636300Y-117630064D01*
X145636300Y-117630066D01*
X145636299Y-117630066D01*
X135500500Y-117630066D01*
X135500500Y-94946310D01*
X139846299Y-94946310D01*
X139880627Y-95074422D01*
X139880628Y-95074423D01*
X139946937Y-95189275D01*
X139946939Y-95189278D01*
X139946940Y-95189279D01*
X140040721Y-95283060D01*
X140040722Y-95283061D01*
X140040724Y-95283062D01*
X140094673Y-95314209D01*
X140155579Y-95349373D01*
X140283687Y-95383700D01*
X140292300Y-95383700D01*
X140359339Y-95403385D01*
X140405094Y-95456189D01*
X140416300Y-95507700D01*
X140416300Y-97427586D01*
X140436994Y-97504821D01*
X140436996Y-97504824D01*
X140476979Y-97574076D01*
X140476981Y-97574078D01*
X141087181Y-98184278D01*
X141120666Y-98245601D01*
X141123500Y-98271959D01*
X141123500Y-108757186D01*
X141144194Y-108834421D01*
X141144196Y-108834424D01*
X141184179Y-108903676D01*
X141184180Y-108903677D01*
X141184181Y-108903678D01*
X146349981Y-114069477D01*
X146364684Y-114096404D01*
X146381277Y-114122223D01*
X146382168Y-114128423D01*
X146383466Y-114130800D01*
X146386300Y-114157158D01*
X146386300Y-114169999D01*
X146366615Y-114237038D01*
X146349981Y-114257680D01*
X146286941Y-114320719D01*
X146286937Y-114320724D01*
X146220628Y-114435576D01*
X146220627Y-114435577D01*
X146203463Y-114499633D01*
X146186300Y-114563687D01*
X146186300Y-114563689D01*
X146186300Y-114696310D01*
X146186299Y-114696310D01*
X146220627Y-114824422D01*
X146220628Y-114824423D01*
X146286937Y-114939275D01*
X146286939Y-114939278D01*
X146286940Y-114939279D01*
X146380721Y-115033060D01*
X146495579Y-115099373D01*
X146623687Y-115133700D01*
X146623690Y-115133700D01*
X146756310Y-115133700D01*
X146756313Y-115133700D01*
X146884421Y-115099373D01*
X146999279Y-115033060D01*
X147093060Y-114939279D01*
X147159373Y-114824421D01*
X147193700Y-114696313D01*
X147193700Y-114563687D01*
X147159373Y-114435579D01*
X147093060Y-114320721D01*
X147030019Y-114257680D01*
X146996534Y-114196357D01*
X146993700Y-114169999D01*
X146993700Y-113940020D01*
X146993699Y-113940013D01*
X146973005Y-113862778D01*
X146933021Y-113793524D01*
X146872145Y-113732648D01*
X146872134Y-113732638D01*
X144805806Y-111666310D01*
X148996299Y-111666310D01*
X149030627Y-111794422D01*
X149030628Y-111794423D01*
X149096937Y-111909275D01*
X149096939Y-111909278D01*
X149096940Y-111909279D01*
X149190721Y-112003060D01*
X149305579Y-112069373D01*
X149433687Y-112103700D01*
X149433690Y-112103700D01*
X149566310Y-112103700D01*
X149566313Y-112103700D01*
X149694421Y-112069373D01*
X149809279Y-112003060D01*
X149903060Y-111909279D01*
X149969373Y-111794421D01*
X150003700Y-111666313D01*
X150003700Y-111533687D01*
X149969373Y-111405579D01*
X149903060Y-111290721D01*
X149840019Y-111227680D01*
X149806534Y-111166357D01*
X149803700Y-111139999D01*
X149803700Y-109507159D01*
X149823385Y-109440120D01*
X149840019Y-109419478D01*
X151072519Y-108186978D01*
X152777021Y-106482476D01*
X152817004Y-106413224D01*
X152817048Y-106413062D01*
X152837699Y-106335986D01*
X152837700Y-106335983D01*
X152837700Y-106256017D01*
X152837700Y-105223674D01*
X152857385Y-105156635D01*
X152910189Y-105110880D01*
X152979347Y-105100936D01*
X152993773Y-105103894D01*
X153067687Y-105123700D01*
X153067691Y-105123700D01*
X153200310Y-105123700D01*
X153200313Y-105123700D01*
X153328421Y-105089373D01*
X153328424Y-105089370D01*
X153335931Y-105086262D01*
X153336528Y-105087703D01*
X153388793Y-105073700D01*
X153629728Y-105073700D01*
X153629731Y-105073700D01*
X153745122Y-105042781D01*
X153783713Y-105020500D01*
X153848578Y-104983051D01*
X154192535Y-104639092D01*
X154200669Y-104631959D01*
X154202575Y-104630052D01*
X154202578Y-104630051D01*
X156065051Y-102767578D01*
X156065052Y-102767575D01*
X156066971Y-102765657D01*
X156074087Y-102757540D01*
X156204813Y-102626815D01*
X156266136Y-102593332D01*
X156292493Y-102590498D01*
X157052008Y-102590498D01*
X157104272Y-102604501D01*
X157104870Y-102603060D01*
X157112378Y-102606170D01*
X157112380Y-102606171D01*
X157240488Y-102640498D01*
X157240491Y-102640498D01*
X157373111Y-102640498D01*
X157373114Y-102640498D01*
X157501222Y-102606171D01*
X157616080Y-102539858D01*
X157709861Y-102446077D01*
X157776174Y-102331219D01*
X157810501Y-102203111D01*
X157810501Y-102070485D01*
X157776174Y-101942377D01*
X157709861Y-101827519D01*
X157616080Y-101733738D01*
X157616079Y-101733737D01*
X157616076Y-101733735D01*
X157501224Y-101667426D01*
X157501223Y-101667425D01*
X157469195Y-101658843D01*
X157373114Y-101633098D01*
X157240488Y-101633098D01*
X157163623Y-101653694D01*
X157112378Y-101667425D01*
X157104870Y-101670536D01*
X157104272Y-101669094D01*
X157052008Y-101683098D01*
X155993468Y-101683098D01*
X155962553Y-101691381D01*
X155962553Y-101691382D01*
X155934395Y-101698926D01*
X155878079Y-101714016D01*
X155878078Y-101714017D01*
X155774627Y-101773745D01*
X155774621Y-101773749D01*
X155337040Y-102211330D01*
X155329908Y-102219461D01*
X153654456Y-103894913D01*
X153646341Y-103902031D01*
X153433717Y-104114654D01*
X153372394Y-104148138D01*
X153313943Y-104146747D01*
X153236745Y-104126062D01*
X153200313Y-104116300D01*
X153067687Y-104116300D01*
X152993793Y-104136100D01*
X152968798Y-104135504D01*
X152944053Y-104139063D01*
X152934472Y-104134687D01*
X152923943Y-104134437D01*
X152903239Y-104120424D01*
X152880497Y-104110038D01*
X152874802Y-104101176D01*
X152866081Y-104095274D01*
X152856239Y-104072293D01*
X152842723Y-104051260D01*
X152840443Y-104035404D01*
X152838577Y-104031046D01*
X152837700Y-104016325D01*
X152837700Y-103880105D01*
X152857385Y-103813066D01*
X152874019Y-103792424D01*
X155705025Y-100961418D01*
X155766348Y-100927933D01*
X155792706Y-100925099D01*
X157224565Y-100925099D01*
X157291604Y-100944784D01*
X157312246Y-100961418D01*
X157375287Y-101024459D01*
X157375288Y-101024460D01*
X157375290Y-101024461D01*
X157399323Y-101038336D01*
X157490145Y-101090772D01*
X157618253Y-101125099D01*
X157618256Y-101125099D01*
X157750876Y-101125099D01*
X157750879Y-101125099D01*
X157878987Y-101090772D01*
X157993845Y-101024459D01*
X158087626Y-100930678D01*
X158119609Y-100875282D01*
X158129295Y-100858506D01*
X158179861Y-100810290D01*
X158248468Y-100797066D01*
X158313333Y-100823034D01*
X158328220Y-100836858D01*
X158337322Y-100846819D01*
X158346940Y-100863477D01*
X158411961Y-100928498D01*
X158413838Y-100930552D01*
X158428009Y-100959535D01*
X158443466Y-100987841D01*
X158443921Y-100992076D01*
X158444529Y-100993319D01*
X158444282Y-100995430D01*
X158446300Y-101014199D01*
X158446300Y-102833964D01*
X158426615Y-102901003D01*
X158409981Y-102921645D01*
X156919732Y-104411894D01*
X156919729Y-104411898D01*
X156879744Y-104481152D01*
X156859050Y-104558387D01*
X156859050Y-107272694D01*
X156839365Y-107339733D01*
X156822731Y-107360375D01*
X152556982Y-111626124D01*
X152556979Y-111626128D01*
X152516994Y-111695382D01*
X152496300Y-111772617D01*
X152496300Y-112139999D01*
X152476615Y-112207038D01*
X152459981Y-112227680D01*
X152396941Y-112290719D01*
X152396937Y-112290724D01*
X152330628Y-112405576D01*
X152330627Y-112405577D01*
X152313463Y-112469633D01*
X152296300Y-112533687D01*
X152296300Y-112533689D01*
X152296300Y-112666310D01*
X152296299Y-112666310D01*
X152330627Y-112794422D01*
X152330628Y-112794423D01*
X152396937Y-112909275D01*
X152396939Y-112909278D01*
X152396940Y-112909279D01*
X152490721Y-113003060D01*
X152490722Y-113003061D01*
X152490724Y-113003062D01*
X152532990Y-113027464D01*
X152605579Y-113069373D01*
X152733687Y-113103700D01*
X152733690Y-113103700D01*
X152866310Y-113103700D01*
X152866313Y-113103700D01*
X152994421Y-113069373D01*
X153109279Y-113003060D01*
X153203060Y-112909279D01*
X153269373Y-112794421D01*
X153303700Y-112666313D01*
X153303700Y-112533687D01*
X153269373Y-112405579D01*
X153203060Y-112290721D01*
X153140019Y-112227680D01*
X153125315Y-112200752D01*
X153108723Y-112174934D01*
X153107831Y-112168733D01*
X153106534Y-112166357D01*
X153103700Y-112139999D01*
X153103700Y-111989761D01*
X153123385Y-111922722D01*
X153140014Y-111902085D01*
X157339016Y-107703082D01*
X157339021Y-107703079D01*
X157349224Y-107692875D01*
X157349226Y-107692875D01*
X157405771Y-107636330D01*
X157445754Y-107567078D01*
X157466450Y-107489837D01*
X157466450Y-104775531D01*
X157486135Y-104708492D01*
X157502764Y-104687855D01*
X158936473Y-103254146D01*
X158936476Y-103254145D01*
X158973174Y-103217447D01*
X159005976Y-103199537D01*
X159034494Y-103183965D01*
X159034495Y-103183965D01*
X159034498Y-103183964D01*
X159063677Y-103186052D01*
X159104186Y-103188949D01*
X159148533Y-103217450D01*
X159613892Y-103682809D01*
X159647377Y-103744132D01*
X159650211Y-103770490D01*
X159650211Y-105522729D01*
X159670905Y-105599964D01*
X159670907Y-105599967D01*
X159710890Y-105669219D01*
X159710891Y-105669220D01*
X159710892Y-105669221D01*
X161063181Y-107021509D01*
X161096666Y-107082832D01*
X161099500Y-107109190D01*
X161099500Y-110019640D01*
X161079815Y-110086679D01*
X161063181Y-110107321D01*
X158610521Y-112559981D01*
X158549198Y-112593466D01*
X158522840Y-112596300D01*
X158433687Y-112596300D01*
X158356822Y-112616896D01*
X158305577Y-112630627D01*
X158305576Y-112630628D01*
X158190724Y-112696937D01*
X158190719Y-112696941D01*
X158096941Y-112790719D01*
X158096937Y-112790724D01*
X158030628Y-112905576D01*
X158030627Y-112905577D01*
X158029635Y-112909280D01*
X157997968Y-113027464D01*
X157996299Y-113033692D01*
X157996182Y-113034582D01*
X157995874Y-113035275D01*
X157994197Y-113041538D01*
X157993219Y-113041276D01*
X157967909Y-113098476D01*
X157909580Y-113136942D01*
X157839716Y-113137766D01*
X157785563Y-113106066D01*
X157440019Y-112760522D01*
X157406534Y-112699199D01*
X157403700Y-112672841D01*
X157403700Y-112533689D01*
X157403700Y-112533687D01*
X157369373Y-112405579D01*
X157303060Y-112290721D01*
X157209279Y-112196940D01*
X157209278Y-112196939D01*
X157209275Y-112196937D01*
X157094423Y-112130628D01*
X157094422Y-112130627D01*
X157062394Y-112122045D01*
X156966313Y-112096300D01*
X156833687Y-112096300D01*
X156756822Y-112116896D01*
X156705577Y-112130627D01*
X156705576Y-112130628D01*
X156590724Y-112196937D01*
X156590719Y-112196941D01*
X156496941Y-112290719D01*
X156496937Y-112290724D01*
X156430628Y-112405576D01*
X156430627Y-112405577D01*
X156413463Y-112469633D01*
X156396300Y-112533687D01*
X156396300Y-112533689D01*
X156396300Y-112666310D01*
X156396299Y-112666310D01*
X156430627Y-112794422D01*
X156430628Y-112794423D01*
X156496937Y-112909275D01*
X156496939Y-112909278D01*
X156496940Y-112909279D01*
X156590721Y-113003060D01*
X156590722Y-113003061D01*
X156590724Y-113003062D01*
X156632990Y-113027464D01*
X156705579Y-113069373D01*
X156833687Y-113103700D01*
X156872841Y-113103700D01*
X156939880Y-113123385D01*
X156960522Y-113140019D01*
X157863524Y-114043021D01*
X157932776Y-114083004D01*
X158010017Y-114103701D01*
X158010020Y-114103701D01*
X158097580Y-114103701D01*
X158097596Y-114103700D01*
X160089980Y-114103700D01*
X160089983Y-114103700D01*
X160128603Y-114093352D01*
X160167221Y-114083005D01*
X160167221Y-114083004D01*
X160167224Y-114083004D01*
X160236476Y-114043021D01*
X162993021Y-111286476D01*
X163033004Y-111217224D01*
X163053701Y-111139983D01*
X163053701Y-111060016D01*
X163053701Y-111052421D01*
X163053700Y-111052403D01*
X163053700Y-109915401D01*
X163073385Y-109848362D01*
X163126189Y-109802607D01*
X163195347Y-109792663D01*
X163258903Y-109821688D01*
X163265381Y-109827720D01*
X163340721Y-109903060D01*
X163455579Y-109969373D01*
X163583687Y-110003700D01*
X163583690Y-110003700D01*
X163716311Y-110003700D01*
X163716313Y-110003700D01*
X163809050Y-109978850D01*
X163822769Y-109975175D01*
X163854862Y-109970950D01*
X165648835Y-109970950D01*
X165648836Y-109970950D01*
X165648837Y-109970950D01*
X165743181Y-109945670D01*
X165827769Y-109896834D01*
X165896834Y-109827769D01*
X165896834Y-109827767D01*
X165907035Y-109817567D01*
X165907038Y-109817562D01*
X166296834Y-109427769D01*
X166345670Y-109343182D01*
X166370950Y-109248837D01*
X166370950Y-109151164D01*
X166370950Y-106455014D01*
X166390635Y-106387975D01*
X166407269Y-106367333D01*
X166634583Y-106140019D01*
X166695906Y-106106534D01*
X166722264Y-106103700D01*
X168809728Y-106103700D01*
X168809731Y-106103700D01*
X168925122Y-106072781D01*
X168962989Y-106050918D01*
X169028578Y-106013051D01*
X170383050Y-104658578D01*
X170442781Y-104555122D01*
X170473700Y-104439731D01*
X170473700Y-99710269D01*
X170442781Y-99594878D01*
X170402507Y-99525122D01*
X170383051Y-99491422D01*
X170383049Y-99491420D01*
X170383048Y-99491418D01*
X170090019Y-99198389D01*
X170056534Y-99137066D01*
X170053700Y-99110708D01*
X170053700Y-94704793D01*
X170067705Y-94652529D01*
X170066262Y-94651932D01*
X170069372Y-94644423D01*
X170069373Y-94644421D01*
X170103700Y-94516313D01*
X170103700Y-94383687D01*
X170069373Y-94255579D01*
X170003060Y-94140721D01*
X169909279Y-94046940D01*
X169909278Y-94046939D01*
X169909275Y-94046937D01*
X169794423Y-93980628D01*
X169794422Y-93980627D01*
X169762394Y-93972045D01*
X169666313Y-93946300D01*
X169533687Y-93946300D01*
X169456822Y-93966896D01*
X169405577Y-93980627D01*
X169405576Y-93980628D01*
X169290724Y-94046937D01*
X169290719Y-94046941D01*
X169196941Y-94140719D01*
X169196937Y-94140724D01*
X169130628Y-94255576D01*
X169130627Y-94255577D01*
X169127998Y-94265390D01*
X169096300Y-94383687D01*
X169096300Y-94383689D01*
X169096300Y-94516310D01*
X169096299Y-94516310D01*
X169130627Y-94644423D01*
X169133738Y-94651932D01*
X169132294Y-94652529D01*
X169146300Y-94704793D01*
X169146300Y-98879900D01*
X169126615Y-98946939D01*
X169073811Y-98992694D01*
X169022300Y-99003900D01*
X166846891Y-99003900D01*
X166779852Y-98984215D01*
X166759210Y-98967581D01*
X166528579Y-98736950D01*
X166528578Y-98736949D01*
X166459279Y-98696940D01*
X166425122Y-98677219D01*
X166309731Y-98646300D01*
X166309729Y-98646300D01*
X165354793Y-98646300D01*
X165302528Y-98632296D01*
X165301931Y-98633738D01*
X165294422Y-98630627D01*
X165262394Y-98622045D01*
X165166313Y-98596300D01*
X165033687Y-98596300D01*
X164956822Y-98616896D01*
X164905577Y-98630627D01*
X164905576Y-98630628D01*
X164790724Y-98696937D01*
X164790721Y-98696940D01*
X164696941Y-98790719D01*
X164696937Y-98790724D01*
X164630628Y-98905576D01*
X164630627Y-98905577D01*
X164628238Y-98914493D01*
X164596300Y-99033687D01*
X164596300Y-99033689D01*
X164596300Y-99166310D01*
X164596299Y-99166310D01*
X164630627Y-99294422D01*
X164630628Y-99294423D01*
X164696937Y-99409275D01*
X164696939Y-99409278D01*
X164696940Y-99409279D01*
X164790721Y-99503060D01*
X164790722Y-99503061D01*
X164790724Y-99503062D01*
X164806162Y-99511975D01*
X164905579Y-99569373D01*
X165033687Y-99603700D01*
X165033690Y-99603700D01*
X165166310Y-99603700D01*
X165166313Y-99603700D01*
X165294421Y-99569373D01*
X165294424Y-99569370D01*
X165301931Y-99566262D01*
X165302528Y-99567703D01*
X165354793Y-99553700D01*
X166010709Y-99553700D01*
X166077748Y-99573385D01*
X166098390Y-99590019D01*
X166329022Y-99820651D01*
X166394610Y-99858518D01*
X166432478Y-99880381D01*
X166547869Y-99911300D01*
X166667331Y-99911300D01*
X169432669Y-99911300D01*
X169442300Y-99911300D01*
X169509339Y-99930985D01*
X169555094Y-99983789D01*
X169566300Y-100035300D01*
X169566300Y-104140709D01*
X169546615Y-104207748D01*
X169529981Y-104228390D01*
X168598390Y-105159981D01*
X168537067Y-105193466D01*
X168510709Y-105196300D01*
X165039291Y-105196300D01*
X164972252Y-105176615D01*
X164951610Y-105159981D01*
X164600980Y-104809351D01*
X164573924Y-104762488D01*
X164572482Y-104763086D01*
X164569374Y-104755584D01*
X164569373Y-104755579D01*
X164530270Y-104687850D01*
X164503062Y-104640724D01*
X164503058Y-104640719D01*
X164409280Y-104546941D01*
X164409275Y-104546937D01*
X164294423Y-104480628D01*
X164294422Y-104480627D01*
X164262394Y-104472045D01*
X164166313Y-104446300D01*
X164033687Y-104446300D01*
X163956822Y-104466896D01*
X163905577Y-104480627D01*
X163905576Y-104480628D01*
X163790724Y-104546937D01*
X163790719Y-104546941D01*
X163696941Y-104640719D01*
X163696937Y-104640724D01*
X163630628Y-104755576D01*
X163630627Y-104755578D01*
X163630627Y-104755579D01*
X163627776Y-104766221D01*
X163607611Y-104841476D01*
X163571245Y-104901136D01*
X163508398Y-104931664D01*
X163439022Y-104923369D01*
X163400155Y-104897062D01*
X161873454Y-103370361D01*
X161839969Y-103309038D01*
X161837135Y-103282680D01*
X161837135Y-102243454D01*
X161837134Y-102243450D01*
X161830706Y-102219461D01*
X161824562Y-102196529D01*
X161816439Y-102166211D01*
X161814181Y-102162300D01*
X161776456Y-102096959D01*
X161719911Y-102040414D01*
X161719910Y-102040413D01*
X161715580Y-102036083D01*
X161715569Y-102036073D01*
X160494408Y-100814911D01*
X160460923Y-100753588D01*
X160458089Y-100727230D01*
X160458089Y-100280348D01*
X160458089Y-100280347D01*
X160457927Y-100279745D01*
X160453703Y-100247653D01*
X160453703Y-100001420D01*
X160453702Y-100001413D01*
X160433008Y-99924178D01*
X160393024Y-99854924D01*
X160332148Y-99794048D01*
X160332137Y-99794038D01*
X160204180Y-99666081D01*
X160170695Y-99604758D01*
X160175679Y-99535066D01*
X160184472Y-99516403D01*
X160187031Y-99511973D01*
X160221358Y-99383865D01*
X160221358Y-99251239D01*
X160187031Y-99123131D01*
X160120718Y-99008273D01*
X160026937Y-98914492D01*
X160026936Y-98914491D01*
X160026933Y-98914489D01*
X159912081Y-98848180D01*
X159912080Y-98848179D01*
X159880052Y-98839597D01*
X159783971Y-98813852D01*
X159651345Y-98813852D01*
X159574480Y-98834448D01*
X159523235Y-98848179D01*
X159523234Y-98848180D01*
X159408382Y-98914489D01*
X159408377Y-98914493D01*
X159314599Y-99008271D01*
X159314595Y-99008276D01*
X159248286Y-99123128D01*
X159248285Y-99123129D01*
X159244551Y-99137066D01*
X159213958Y-99251239D01*
X159213958Y-99251241D01*
X159213958Y-99383862D01*
X159213957Y-99383862D01*
X159248285Y-99511974D01*
X159248286Y-99511975D01*
X159314595Y-99626827D01*
X159314597Y-99626830D01*
X159314598Y-99626831D01*
X159408379Y-99720612D01*
X159414110Y-99723921D01*
X159446481Y-99750871D01*
X159453829Y-99759493D01*
X159474637Y-99795531D01*
X159541743Y-99862637D01*
X159544948Y-99866397D01*
X159557271Y-99893974D01*
X159571742Y-99920475D01*
X159571379Y-99925544D01*
X159573454Y-99930187D01*
X159568912Y-99960046D01*
X159566758Y-99990167D01*
X159563711Y-99994236D01*
X159562947Y-99999262D01*
X159542984Y-100021923D01*
X159524886Y-100046100D01*
X159519295Y-100048815D01*
X159516763Y-100051691D01*
X159508578Y-100054021D01*
X159482672Y-100066607D01*
X159427152Y-100081483D01*
X159359966Y-100099486D01*
X159359965Y-100099487D01*
X159245106Y-100165800D01*
X159238660Y-100170747D01*
X159237375Y-100169073D01*
X159185866Y-100197191D01*
X159116175Y-100192197D01*
X159071843Y-100163702D01*
X159059280Y-100151139D01*
X159059275Y-100151135D01*
X158944423Y-100084826D01*
X158944422Y-100084825D01*
X158912394Y-100076243D01*
X158816313Y-100050498D01*
X158683687Y-100050498D01*
X158623565Y-100066608D01*
X158555577Y-100084825D01*
X158555576Y-100084826D01*
X158440724Y-100151135D01*
X158440719Y-100151139D01*
X158346941Y-100244917D01*
X158346939Y-100244920D01*
X158305270Y-100317092D01*
X158254702Y-100365307D01*
X158186095Y-100378529D01*
X158121230Y-100352561D01*
X158090494Y-100317088D01*
X158087626Y-100312120D01*
X157993845Y-100218339D01*
X157993844Y-100218338D01*
X157993841Y-100218336D01*
X157878989Y-100152027D01*
X157878988Y-100152026D01*
X157846960Y-100143444D01*
X157750879Y-100117699D01*
X157618253Y-100117699D01*
X157541388Y-100138295D01*
X157490143Y-100152026D01*
X157490142Y-100152027D01*
X157375290Y-100218336D01*
X157375285Y-100218340D01*
X157312246Y-100281380D01*
X157250923Y-100314865D01*
X157224565Y-100317699D01*
X155663143Y-100317699D01*
X155663127Y-100317698D01*
X155655531Y-100317698D01*
X155575564Y-100317698D01*
X155498323Y-100338395D01*
X155498321Y-100338395D01*
X155498321Y-100338396D01*
X155429071Y-100378378D01*
X155429068Y-100378380D01*
X152365381Y-103442068D01*
X152304058Y-103475553D01*
X152234366Y-103470569D01*
X152178433Y-103428697D01*
X152154016Y-103363233D01*
X152153700Y-103354387D01*
X152153700Y-100995306D01*
X152154297Y-100983153D01*
X152155045Y-100975557D01*
X152164921Y-100875273D01*
X152169659Y-100851451D01*
X152199353Y-100753564D01*
X152208650Y-100731119D01*
X152256867Y-100640912D01*
X152270365Y-100620712D01*
X152339143Y-100536906D01*
X152347297Y-100527910D01*
X152382609Y-100492598D01*
X153383785Y-99491422D01*
X153407211Y-99467997D01*
X153469950Y-99405258D01*
X153577976Y-99264476D01*
X153666702Y-99110797D01*
X153734610Y-98946852D01*
X153780538Y-98775446D01*
X153803700Y-98599512D01*
X153803700Y-98510786D01*
X153803700Y-98454765D01*
X153803700Y-95920306D01*
X153804297Y-95908153D01*
X153808286Y-95867649D01*
X153814921Y-95800273D01*
X153819659Y-95776451D01*
X153849353Y-95678564D01*
X153858650Y-95656119D01*
X153906867Y-95565912D01*
X153920365Y-95545712D01*
X153989143Y-95461906D01*
X153997297Y-95452910D01*
X154032609Y-95417598D01*
X154352907Y-95097301D01*
X154361911Y-95089138D01*
X154445712Y-95020365D01*
X154465912Y-95006867D01*
X154556119Y-94958650D01*
X154578564Y-94949353D01*
X154676451Y-94919659D01*
X154700273Y-94914921D01*
X154800557Y-94905045D01*
X154808153Y-94904297D01*
X154820306Y-94903700D01*
X154870234Y-94903700D01*
X157389999Y-94903700D01*
X157457038Y-94923385D01*
X157477680Y-94940019D01*
X157490721Y-94953060D01*
X157490722Y-94953061D01*
X157490724Y-94953062D01*
X157497552Y-94957004D01*
X157605579Y-95019373D01*
X157733687Y-95053700D01*
X157733690Y-95053700D01*
X157866310Y-95053700D01*
X157866313Y-95053700D01*
X157994421Y-95019373D01*
X158109279Y-94953060D01*
X158203060Y-94859279D01*
X158269373Y-94744421D01*
X158303700Y-94616313D01*
X158303700Y-94483687D01*
X158269373Y-94355579D01*
X158211637Y-94255577D01*
X158203062Y-94240724D01*
X158203058Y-94240719D01*
X158109280Y-94146941D01*
X158109275Y-94146937D01*
X157994423Y-94080628D01*
X157994422Y-94080627D01*
X157962394Y-94072045D01*
X157866313Y-94046300D01*
X157733687Y-94046300D01*
X157656822Y-94066896D01*
X157605577Y-94080627D01*
X157605576Y-94080628D01*
X157490724Y-94146937D01*
X157490719Y-94146941D01*
X157477680Y-94159981D01*
X157416357Y-94193466D01*
X157389999Y-94196300D01*
X154870235Y-94196300D01*
X154814214Y-94196300D01*
X154725488Y-94196300D01*
X154725482Y-94196300D01*
X154725478Y-94196301D01*
X154549564Y-94219460D01*
X154549557Y-94219461D01*
X154549554Y-94219462D01*
X154414771Y-94255577D01*
X154378148Y-94265390D01*
X154378138Y-94265393D01*
X154214209Y-94333295D01*
X154214199Y-94333299D01*
X154060524Y-94422023D01*
X153919744Y-94530047D01*
X153904837Y-94544954D01*
X153889929Y-94559863D01*
X153532403Y-94917390D01*
X153532401Y-94917392D01*
X153492787Y-94957004D01*
X153430054Y-95019736D01*
X153430048Y-95019743D01*
X153322023Y-95160524D01*
X153233299Y-95314199D01*
X153233295Y-95314209D01*
X153165393Y-95478138D01*
X153165390Y-95478148D01*
X153119463Y-95649551D01*
X153119460Y-95649564D01*
X153096301Y-95825478D01*
X153096300Y-95825494D01*
X153096300Y-98504693D01*
X153095703Y-98516847D01*
X153085079Y-98624718D01*
X153080337Y-98648559D01*
X153050649Y-98746427D01*
X153041346Y-98768886D01*
X152993135Y-98859081D01*
X152979630Y-98879292D01*
X152910869Y-98963077D01*
X152902701Y-98972090D01*
X152877723Y-98997070D01*
X152877719Y-98997073D01*
X151882403Y-99992390D01*
X151882401Y-99992392D01*
X151842787Y-100032004D01*
X151780054Y-100094736D01*
X151780048Y-100094743D01*
X151672023Y-100235524D01*
X151583299Y-100389199D01*
X151583295Y-100389209D01*
X151515393Y-100553138D01*
X151515390Y-100553148D01*
X151469463Y-100724551D01*
X151469460Y-100724564D01*
X151446301Y-100900478D01*
X151446300Y-100900494D01*
X151446300Y-104339999D01*
X151426615Y-104407038D01*
X151409981Y-104427680D01*
X151396941Y-104440719D01*
X151396937Y-104440724D01*
X151330628Y-104555576D01*
X151330627Y-104555577D01*
X151313463Y-104619633D01*
X151296300Y-104683687D01*
X151296300Y-104683689D01*
X151296300Y-104816310D01*
X151296299Y-104816310D01*
X151330627Y-104944422D01*
X151330628Y-104944423D01*
X151396937Y-105059275D01*
X151396939Y-105059278D01*
X151396940Y-105059279D01*
X151490721Y-105153060D01*
X151490722Y-105153061D01*
X151490724Y-105153062D01*
X151527167Y-105174102D01*
X151605579Y-105219373D01*
X151733687Y-105253700D01*
X151733690Y-105253700D01*
X151866310Y-105253700D01*
X151866313Y-105253700D01*
X151994421Y-105219373D01*
X152044302Y-105190574D01*
X152112200Y-105174102D01*
X152178227Y-105196954D01*
X152221417Y-105251875D01*
X152230300Y-105297962D01*
X152230300Y-106118841D01*
X152210615Y-106185880D01*
X152193981Y-106206522D01*
X149256981Y-109143521D01*
X149256979Y-109143524D01*
X149216994Y-109212778D01*
X149196300Y-109290013D01*
X149196300Y-111139999D01*
X149176615Y-111207038D01*
X149159981Y-111227680D01*
X149096941Y-111290719D01*
X149096937Y-111290724D01*
X149030628Y-111405576D01*
X149030627Y-111405577D01*
X149013463Y-111469633D01*
X148996300Y-111533687D01*
X148996300Y-111533689D01*
X148996300Y-111666310D01*
X148996299Y-111666310D01*
X144805806Y-111666310D01*
X144752736Y-111613240D01*
X144279495Y-111139999D01*
X141767219Y-108627722D01*
X141733734Y-108566399D01*
X141730900Y-108540041D01*
X141730900Y-104638110D01*
X148111699Y-104638110D01*
X148146027Y-104766222D01*
X148146028Y-104766223D01*
X148212337Y-104881075D01*
X148212339Y-104881078D01*
X148212340Y-104881079D01*
X148306121Y-104974860D01*
X148306122Y-104974861D01*
X148306124Y-104974862D01*
X148320308Y-104983051D01*
X148420979Y-105041173D01*
X148549087Y-105075500D01*
X148549090Y-105075500D01*
X148681710Y-105075500D01*
X148681713Y-105075500D01*
X148809821Y-105041173D01*
X148924679Y-104974860D01*
X149018460Y-104881079D01*
X149084773Y-104766221D01*
X149119100Y-104638113D01*
X149119100Y-104505487D01*
X149084773Y-104377379D01*
X149084772Y-104377377D01*
X149081662Y-104369869D01*
X149083102Y-104369272D01*
X149069100Y-104317006D01*
X149069100Y-103591891D01*
X149088785Y-103524852D01*
X149105419Y-103504210D01*
X149410092Y-103199537D01*
X149715051Y-102894578D01*
X149754430Y-102826370D01*
X149774781Y-102791122D01*
X149805700Y-102675731D01*
X149805700Y-97968387D01*
X149825385Y-97901348D01*
X149859100Y-97869201D01*
X149858031Y-97867807D01*
X149864471Y-97862864D01*
X149864479Y-97862860D01*
X149958260Y-97769079D01*
X150024573Y-97654221D01*
X150058900Y-97526113D01*
X150058900Y-97393487D01*
X150024573Y-97265379D01*
X149958260Y-97150521D01*
X149864479Y-97056740D01*
X149864478Y-97056739D01*
X149864475Y-97056737D01*
X149749623Y-96990428D01*
X149749622Y-96990427D01*
X149717594Y-96981845D01*
X149621513Y-96956100D01*
X149488887Y-96956100D01*
X149412022Y-96976696D01*
X149360777Y-96990427D01*
X149360776Y-96990428D01*
X149245924Y-97056737D01*
X149245919Y-97056741D01*
X149152141Y-97150519D01*
X149152139Y-97150522D01*
X149085825Y-97265383D01*
X149082716Y-97272889D01*
X149081276Y-97272292D01*
X149054221Y-97319148D01*
X148988952Y-97384418D01*
X148988944Y-97384428D01*
X148951080Y-97450008D01*
X148951081Y-97450009D01*
X148929221Y-97487872D01*
X148929219Y-97487876D01*
X148929219Y-97487878D01*
X148898300Y-97603269D01*
X148898300Y-97603271D01*
X148898300Y-102376709D01*
X148878615Y-102443748D01*
X148861981Y-102464390D01*
X148252350Y-103074020D01*
X148252349Y-103074022D01*
X148220985Y-103128348D01*
X148219991Y-103130069D01*
X148219990Y-103130070D01*
X148192620Y-103177475D01*
X148192620Y-103177476D01*
X148192619Y-103177478D01*
X148161700Y-103292869D01*
X148161700Y-103292871D01*
X148161700Y-104317006D01*
X148161210Y-104318834D01*
X148157193Y-104350134D01*
X148152977Y-104365340D01*
X148146027Y-104377379D01*
X148111700Y-104505487D01*
X148111700Y-104514229D01*
X148111700Y-104638110D01*
X148111699Y-104638110D01*
X141730900Y-104638110D01*
X141730900Y-98054820D01*
X141730899Y-98054813D01*
X141710205Y-97977578D01*
X141710204Y-97977576D01*
X141670221Y-97908324D01*
X141613676Y-97851779D01*
X141060019Y-97298122D01*
X141026534Y-97236799D01*
X141023700Y-97210441D01*
X141023700Y-95210020D01*
X141023699Y-95210013D01*
X141003005Y-95132778D01*
X140980037Y-95092997D01*
X140963021Y-95063524D01*
X140906476Y-95006979D01*
X140890019Y-94990522D01*
X140856534Y-94929199D01*
X140853700Y-94902841D01*
X140853700Y-94813689D01*
X140853700Y-94813687D01*
X140819373Y-94685579D01*
X140753060Y-94570721D01*
X140659279Y-94476940D01*
X140659278Y-94476939D01*
X140659275Y-94476937D01*
X140544423Y-94410628D01*
X140544422Y-94410627D01*
X140512394Y-94402045D01*
X140416313Y-94376300D01*
X140283687Y-94376300D01*
X140206822Y-94396896D01*
X140155577Y-94410627D01*
X140155576Y-94410628D01*
X140040724Y-94476937D01*
X140040719Y-94476941D01*
X139946941Y-94570719D01*
X139946937Y-94570724D01*
X139880628Y-94685576D01*
X139880627Y-94685577D01*
X139863463Y-94749633D01*
X139846300Y-94813687D01*
X139846300Y-94813689D01*
X139846300Y-94946310D01*
X139846299Y-94946310D01*
X135500500Y-94946310D01*
X135500500Y-82547815D01*
X145383100Y-82547815D01*
X145383100Y-82755384D01*
X145423591Y-82958945D01*
X145423593Y-82958953D01*
X145503022Y-83150710D01*
X145503027Y-83150720D01*
X145618337Y-83323293D01*
X145618340Y-83323297D01*
X145765102Y-83470059D01*
X145765106Y-83470062D01*
X145937679Y-83585372D01*
X145937683Y-83585374D01*
X145937686Y-83585376D01*
X146129447Y-83664807D01*
X146333015Y-83705299D01*
X146333019Y-83705300D01*
X146333020Y-83705300D01*
X146540581Y-83705300D01*
X146540582Y-83705299D01*
X146744153Y-83664807D01*
X146935914Y-83585376D01*
X147108494Y-83470062D01*
X147255262Y-83323294D01*
X147370576Y-83150714D01*
X147450007Y-82958953D01*
X147490500Y-82755380D01*
X147490500Y-82547820D01*
X147450007Y-82344247D01*
X147370576Y-82152486D01*
X147370574Y-82152483D01*
X147370572Y-82152479D01*
X147255262Y-81979906D01*
X147255259Y-81979902D01*
X147201667Y-81926310D01*
X152996299Y-81926310D01*
X153030627Y-82054422D01*
X153030628Y-82054423D01*
X153096937Y-82169275D01*
X153096939Y-82169278D01*
X153096940Y-82169279D01*
X153190721Y-82263060D01*
X153305579Y-82329373D01*
X153433687Y-82363700D01*
X153433690Y-82363700D01*
X153566310Y-82363700D01*
X153566313Y-82363700D01*
X153694421Y-82329373D01*
X153809279Y-82263060D01*
X153872320Y-82200019D01*
X153933643Y-82166534D01*
X153960001Y-82163700D01*
X155889980Y-82163700D01*
X155889983Y-82163700D01*
X155931862Y-82152479D01*
X155967221Y-82143005D01*
X155967221Y-82143004D01*
X155967224Y-82143004D01*
X156036476Y-82103021D01*
X156212427Y-81927069D01*
X156273745Y-81893587D01*
X156343437Y-81898571D01*
X156349306Y-81901336D01*
X156349351Y-81901229D01*
X156356860Y-81904339D01*
X156356862Y-81904339D01*
X156356865Y-81904341D01*
X156484973Y-81938668D01*
X156484976Y-81938668D01*
X156617596Y-81938668D01*
X156617599Y-81938668D01*
X156745707Y-81904341D01*
X156860565Y-81838028D01*
X156954346Y-81744247D01*
X157020659Y-81629389D01*
X157054986Y-81501281D01*
X157054986Y-81368655D01*
X157020659Y-81240547D01*
X156981891Y-81173399D01*
X156954348Y-81125692D01*
X156954344Y-81125687D01*
X156860566Y-81031909D01*
X156860561Y-81031905D01*
X156745709Y-80965596D01*
X156745708Y-80965595D01*
X156713680Y-80957013D01*
X156617599Y-80931268D01*
X156484973Y-80931268D01*
X156408108Y-80951864D01*
X156356863Y-80965595D01*
X156356862Y-80965596D01*
X156242010Y-81031905D01*
X156242009Y-81031906D01*
X156148225Y-81125689D01*
X156137291Y-81144628D01*
X156094966Y-81186953D01*
X156095002Y-81187000D01*
X156094649Y-81187270D01*
X156091908Y-81190011D01*
X156090009Y-81191107D01*
X156088552Y-81191949D01*
X155760522Y-81519981D01*
X155699199Y-81553466D01*
X155672841Y-81556300D01*
X153960001Y-81556300D01*
X153892962Y-81536615D01*
X153872320Y-81519981D01*
X153809280Y-81456941D01*
X153809275Y-81456937D01*
X153694423Y-81390628D01*
X153694422Y-81390627D01*
X153662394Y-81382045D01*
X153566313Y-81356300D01*
X153433687Y-81356300D01*
X153356822Y-81376896D01*
X153305577Y-81390627D01*
X153305576Y-81390628D01*
X153190724Y-81456937D01*
X153190719Y-81456941D01*
X153096941Y-81550719D01*
X153096937Y-81550724D01*
X153030628Y-81665576D01*
X153030627Y-81665577D01*
X153016628Y-81717822D01*
X152996300Y-81793687D01*
X152996300Y-81793689D01*
X152996300Y-81926310D01*
X152996299Y-81926310D01*
X147201667Y-81926310D01*
X147108497Y-81833140D01*
X147108493Y-81833137D01*
X146935920Y-81717827D01*
X146935910Y-81717822D01*
X146744153Y-81638393D01*
X146744145Y-81638391D01*
X146540584Y-81597900D01*
X146540580Y-81597900D01*
X146333020Y-81597900D01*
X146333015Y-81597900D01*
X146129454Y-81638391D01*
X146129446Y-81638393D01*
X145937689Y-81717822D01*
X145937679Y-81717827D01*
X145765106Y-81833137D01*
X145765102Y-81833140D01*
X145618340Y-81979902D01*
X145618337Y-81979906D01*
X145503027Y-82152479D01*
X145503022Y-82152489D01*
X145423593Y-82344246D01*
X145423591Y-82344254D01*
X145383100Y-82547815D01*
X135500500Y-82547815D01*
X135500500Y-77374500D01*
X135520185Y-77307461D01*
X135572989Y-77261706D01*
X135624500Y-77250500D01*
X184375500Y-77250500D01*
X184442539Y-77270185D01*
G37*
%TD.AperFunction*%
%TD*%
M02*
