M48
; DRILL file KiCad 10.0.4 date 2026-08-23T13:42:06
; FORMAT={-:-/ absolute / metric / decimal}
; #@! TF.CreationDate,2026-08-23T13:42:06+02:00
; #@! TF.GenerationSoftware,Kicad,Pcbnew,10.0.4
; #@! TF.FileFunction,Plated,1,4,PTH
FMAT,2
METRIC
; #@! TA.AperFunction,Plated,PTH,ViaDrill
T1C0.300
; #@! TA.AperFunction,Plated,PTH,ComponentDrill
T2C0.300
; #@! TA.AperFunction,Plated,PTH,ComponentDrill
T3C0.400
; #@! TA.AperFunction,Plated,PTH,ComponentDrill
T4C1.000
; #@! TA.AperFunction,Plated,PTH,ComponentDrill
T5C2.200
%
G90
G05
T1
X135.9Y-98.35
X135.9Y-100.55
X136.0Y-96.75
X136.1Y-102.2
X136.25Y-78.0
X136.25Y-79.5
X136.25Y-81.0
X136.25Y-82.5
X136.25Y-84.0
X136.25Y-85.5
X136.25Y-87.0
X136.25Y-88.5
X136.25Y-90.0
X136.25Y-91.5
X136.25Y-93.0
X136.25Y-94.5
X136.25Y-104.0
X136.25Y-105.5
X136.25Y-107.0
X136.25Y-108.5
X136.25Y-110.0
X136.25Y-111.5
X136.25Y-113.0
X136.25Y-114.5
X136.25Y-116.0
X136.25Y-117.24
X136.25Y-118.38
X136.25Y-119.5
X136.8Y-98.577
X136.8Y-100.33
X137.65Y-98.792
X137.65Y-100.133
X137.7Y-85.3
X137.7Y-87.6
X137.7Y-89.9
X137.7Y-92.2
X137.7Y-94.5
X137.7Y-96.75
X137.75Y-78.0
X137.75Y-119.5
X137.8Y-102.2
X137.9Y-104.0
X137.9Y-106.3
X137.9Y-108.6
X137.9Y-110.9
X137.9Y-113.2
X138.65Y-98.792
X138.65Y-100.133
X139.0Y-86.55
X139.25Y-78.0
X139.25Y-119.5
X139.326Y-83.674
X139.35Y-96.75
X139.45Y-89.9
X139.45Y-92.2
X139.45Y-94.5
X139.45Y-102.2
X139.65Y-98.792
X139.65Y-100.133
X140.0Y-106.3
X140.0Y-108.6
X140.0Y-110.9
X140.0Y-113.2
X140.2Y-87.85
X140.626Y-84.924
X140.75Y-78.0
X140.75Y-119.5
X140.78Y-98.4
X140.78Y-100.5
X141.1Y-86.65
X141.15Y-82.65
X141.55Y-111.85
X141.6Y-94.875
X141.6Y-114.85
X141.6Y-117.15
X142.088Y-98.4
X142.088Y-100.5
X142.15Y-97.1
X142.2Y-85.6
X142.25Y-78.0
X142.25Y-79.75
X142.25Y-119.5
X142.3Y-87.0
X142.5Y-95.95
X142.675Y-82.65
X143.1Y-86.2
X143.196Y-98.4
X143.196Y-100.5
X143.2Y-92.55
X143.2Y-93.7
X143.2Y-101.75
X143.2Y-104.05
X143.2Y-106.35
X143.2Y-108.65
X143.25Y-112.55
X143.25Y-114.85
X143.25Y-117.15
X143.625Y-89.925
X143.75Y-78.0
X143.75Y-119.5
X143.775Y-94.9
X143.875Y-83.9
X143.9Y-97.1
X143.925Y-81.4
X144.0Y-85.6
X144.247Y-98.4
X144.272Y-100.533
X144.375Y-91.575
X144.4Y-92.55
X144.4Y-93.7
X144.55Y-79.75
X144.6Y-90.575
X144.95Y-102.9
X144.95Y-105.2
X144.95Y-107.5
X144.95Y-109.8
X145.1Y-101.25
X145.225Y-96.3
X145.225Y-97.0
X145.225Y-97.7
X145.225Y-98.4
X145.25Y-78.0
X145.25Y-119.5
X146.15Y-94.175
X146.25Y-100.4
X146.25Y-101.25
X146.253Y-102.234
X146.69Y-114.63
X146.75Y-78.0
X146.75Y-94.725
X146.75Y-119.5
X146.8Y-104.05
X146.8Y-106.35
X146.8Y-108.65
X146.8Y-110.95
X146.85Y-79.75
X147.074Y-112.576
X147.2Y-95.35
X147.2Y-97.075
X147.2Y-97.725
X147.2Y-98.4
X147.32Y-103.22
X147.65Y-84.6
X148.125Y-95.575
X148.125Y-96.85
X148.25Y-78.0
X148.25Y-119.5
X148.397Y-102.244
X148.4Y-98.4
X148.4Y-101.4
X148.425Y-85.425
X148.425Y-86.975
X148.615Y-104.572
X148.7Y-110.95
X149.15Y-79.75
X149.225Y-111.875
X149.35Y-97.225
X149.5Y-106.5
X149.5Y-108.2
X149.575Y-84.75
X149.6Y-85.5
X149.75Y-78.0
X149.75Y-92.1
X149.75Y-93.45
X149.75Y-94.6
X149.75Y-96.35
X149.75Y-119.5
X149.9Y-103.95
X150.15Y-102.4
X150.2Y-86.85
X150.22Y-98.51
X150.45Y-112.55
X150.45Y-114.2
X150.495Y-101.397
X150.5Y-105.55
X150.5Y-107.4
X150.6Y-94.6
X150.6Y-95.45
X150.6Y-97.122
X150.622Y-81.636
X150.622Y-83.693
X151.08Y-98.51
X151.1Y-109.6
X151.25Y-78.0
X151.25Y-119.5
X151.45Y-79.75
X151.75Y-91.8
X151.8Y-105.2
X151.9Y-108.7
X151.9Y-110.4
X151.999Y-98.512
X152.05Y-86.65
X152.6Y-90.975
X152.75Y-78.0
X152.75Y-119.5
X152.775Y-97.25
X152.8Y-112.6
X152.9Y-80.25
X153.05Y-114.2
X153.325Y-101.05
X153.391Y-94.611
X153.425Y-84.85
X153.45Y-87.65
X153.5Y-81.86
X153.567Y-103.563
X153.6Y-91.975
X153.707Y-104.483
X154.15Y-80.25
X154.2Y-89.55
X154.25Y-78.0
X154.25Y-119.5
X154.45Y-85.8
X154.6Y-104.8
X154.76Y-95.53
X155.0Y-79.25
X155.305Y-108.426
X155.35Y-87.65
X155.44Y-96.73
X155.45Y-97.74
X155.47Y-98.74
X155.6Y-89.55
X155.65Y-114.2
X155.75Y-78.0
X155.75Y-119.5
X155.9Y-80.25
X156.075Y-85.8
X156.08Y-96.41
X156.275Y-90.925
X156.45Y-109.7
X156.53Y-105.0
X156.53Y-106.0
X156.53Y-107.0
X156.551Y-81.435
X156.56Y-100.763
X156.6Y-104.1
X156.9Y-112.6
X157.0Y-89.55
X157.0Y-108.5
X157.05Y-84.85
X157.1Y-79.65
X157.25Y-78.0
X157.25Y-119.5
X157.3Y-87.65
X157.307Y-102.137
X157.44Y-100.44
X157.55Y-109.2
X157.55Y-110.3
X157.55Y-111.5
X157.8Y-90.925
X157.8Y-94.55
X157.909Y-102.969
X157.927Y-105.7
X157.927Y-106.52
X158.0Y-80.65
X158.0Y-86.2
X158.05Y-84.35
X158.123Y-102.304
X158.3Y-96.4
X158.4Y-89.55
X158.47Y-100.45
X158.65Y-110.35
X158.75Y-78.0
X158.75Y-119.5
X158.8Y-80.65
X158.85Y-84.35
X158.95Y-111.25
X159.05Y-107.7
X159.061Y-103.76
X159.2Y-87.65
X159.325Y-90.925
X159.355Y-112.245
X159.4Y-79.65
X159.4Y-118.0
X159.41Y-115.51
X159.44Y-100.33
X159.58Y-96.43
X159.6Y-98.5
X159.6Y-113.05
X159.65Y-108.5
X159.718Y-99.318
X159.775Y-85.525
X159.8Y-89.55
X159.997Y-102.293
X160.07Y-106.87
X160.075Y-107.7
X160.098Y-110.361
X160.2Y-102.958
X160.22Y-94.72
X160.25Y-78.0
X160.25Y-119.5
X160.5Y-112.2
X160.557Y-105.233
X160.6Y-80.0
X160.62Y-116.8
X160.75Y-86.475
X160.75Y-90.3
X160.75Y-91.6
X160.75Y-92.9
X160.75Y-108.5
X160.8Y-109.6
X160.93Y-103.564
X161.1Y-87.65
X161.232Y-105.908
X161.35Y-111.4
X161.35Y-113.95
X161.445Y-100.948
X161.45Y-99.029
X161.47Y-104.25
X161.75Y-78.0
X161.75Y-119.5
X161.932Y-106.608
X162.05Y-79.65
X162.1Y-109.15
X162.1Y-110.35
X162.15Y-115.65
X162.15Y-117.9
X162.154Y-98.146
X162.155Y-104.935
X162.237Y-101.847
X162.31Y-92.13
X162.35Y-86.475
X162.44Y-99.989
X162.662Y-107.338
X162.875Y-105.655
X162.996Y-102.474
X163.07Y-97.44
X163.2Y-89.1
X163.2Y-90.9
X163.25Y-78.0
X163.25Y-112.0
X163.25Y-113.95
X163.25Y-119.5
X163.59Y-106.37
X163.6Y-87.6
X163.635Y-92.155
X163.647Y-103.124
X163.855Y-96.952
X163.863Y-108.465
X164.043Y-98.39
X164.1Y-104.95
X164.33Y-109.6
X164.35Y-79.65
X164.35Y-110.7
X164.4Y-101.85
X164.45Y-115.65
X164.45Y-117.9
X164.516Y-107.2
X164.6Y-86.4
X164.6Y-89.1
X164.6Y-90.9
X164.6Y-103.9
X164.75Y-78.0
X164.75Y-119.5
X164.785Y-93.255
X164.875Y-99.325
X164.95Y-96.879
X164.95Y-98.24
X165.007Y-108.894
X165.1Y-94.64
X165.33Y-107.59
X165.4Y-92.0
X165.55Y-112.0
X165.55Y-113.95
X165.6Y-79.975
X165.65Y-101.95
X165.65Y-103.9
X165.95Y-96.879
X165.95Y-98.24
X166.0Y-86.4
X166.0Y-87.6
X166.0Y-89.1
X166.0Y-90.9
X166.25Y-78.0
X166.25Y-119.5
X166.27Y-100.22
X166.27Y-101.04
X166.3Y-83.15
X166.575Y-79.175
X166.65Y-101.95
X166.65Y-103.85
X166.65Y-110.7
X166.68Y-107.719
X166.68Y-109.11
X166.75Y-115.65
X166.75Y-117.9
X166.75Y-91.75
X166.75Y-93.15
X166.95Y-96.879
X166.95Y-98.24
X167.36Y-104.49
X167.4Y-95.8
X167.68Y-107.72
X167.68Y-109.1
X167.71Y-101.81
X167.75Y-78.0
X167.75Y-83.15
X167.75Y-100.3
X167.75Y-119.5
X167.85Y-112.0
X167.85Y-113.95
X167.9Y-106.6
X167.95Y-96.876
X167.95Y-98.24
X168.08Y-103.86
X168.225Y-79.2
X168.4Y-94.85
X168.43Y-101.15
X168.68Y-107.72
X168.68Y-109.1
X168.752Y-96.4
X168.752Y-98.704
X168.9Y-92.7
X168.95Y-110.7
X169.05Y-115.65
X169.05Y-117.9
X169.14Y-101.81
X169.25Y-78.0
X169.25Y-119.5
X169.33Y-91.0
X169.35Y-83.83
X169.6Y-94.45
X169.68Y-107.72
X169.68Y-109.1
X170.15Y-112.0
X170.15Y-113.95
X170.2Y-91.7
X170.2Y-106.6
X170.24Y-89.99
X170.27Y-88.34
X170.275Y-79.175
X170.28Y-84.81
X170.29Y-86.44
X170.353Y-96.4
X170.353Y-98.7
X170.6Y-83.2
X170.68Y-107.72
X170.68Y-109.1
X170.75Y-78.0
X170.75Y-119.5
X171.05Y-87.4
X171.05Y-89.25
X171.15Y-94.6
X171.25Y-110.7
X171.325Y-95.8
X171.325Y-98.7
X171.35Y-115.65
X171.35Y-117.9
X171.4Y-100.5
X171.4Y-103.45
X171.4Y-105.05
X171.68Y-107.72
X171.68Y-109.1
X171.9Y-79.175
X172.2Y-93.65
X172.25Y-78.0
X172.25Y-119.5
X172.275Y-96.4
X172.275Y-98.7
X172.45Y-112.0
X172.45Y-113.95
X172.5Y-106.6
X172.55Y-102.05
X172.68Y-107.72
X172.68Y-109.1
X172.85Y-79.975
X173.25Y-83.2
X173.25Y-85.5
X173.25Y-87.8
X173.25Y-90.1
X173.25Y-92.4
X173.25Y-94.6
X173.25Y-96.4
X173.25Y-98.7
X173.55Y-110.7
X173.65Y-115.65
X173.65Y-117.9
X173.68Y-107.72
X173.68Y-109.1
X173.7Y-100.5
X173.7Y-103.45
X173.7Y-105.05
X173.75Y-78.0
X173.75Y-119.5
X174.3Y-93.65
X174.325Y-95.55
X174.325Y-96.375
X174.325Y-99.325
X174.68Y-107.72
X174.68Y-109.1
X174.75Y-112.0
X174.75Y-113.95
X174.8Y-106.6
X174.85Y-102.05
X175.25Y-78.0
X175.25Y-119.5
X175.35Y-80.5
X175.35Y-83.2
X175.35Y-85.5
X175.35Y-87.8
X175.35Y-90.1
X175.35Y-92.4
X175.4Y-94.8
X175.4Y-95.55
X175.4Y-98.55
X175.68Y-107.72
X175.68Y-109.1
X175.85Y-110.7
X175.95Y-115.65
X175.95Y-117.9
X176.0Y-100.5
X176.0Y-103.45
X176.0Y-105.05
X176.52Y-94.79
X176.52Y-97.5
X176.52Y-98.54
X176.55Y-93.6
X176.68Y-107.72
X176.68Y-109.1
X176.75Y-78.0
X176.75Y-119.5
X177.05Y-112.0
X177.05Y-113.95
X177.1Y-106.6
X177.15Y-102.05
X177.45Y-80.5
X177.45Y-83.2
X177.45Y-85.5
X177.45Y-87.8
X177.45Y-90.1
X177.45Y-91.9
X177.58Y-94.8
X177.58Y-95.55
X177.58Y-97.5
X177.8Y-109.5
X177.804Y-107.29
X178.0Y-110.7
X178.25Y-78.0
X178.25Y-119.5
X178.25Y-115.65
X178.25Y-117.9
X178.3Y-100.5
X178.3Y-99.0
X178.3Y-103.45
X178.3Y-105.05
X178.65Y-95.55
X178.65Y-97.5
X178.7Y-93.85
X178.9Y-107.29
X178.9Y-109.51
X178.9Y-111.95
X179.35Y-113.95
X179.45Y-102.05
X179.5Y-78.0
X179.5Y-119.5
X179.55Y-83.2
X179.55Y-85.5
X179.55Y-87.8
X179.55Y-90.1
X179.55Y-91.9
X179.8Y-107.729
X179.8Y-109.11
X179.814Y-95.908
X179.814Y-97.27
X180.55Y-105.8
X180.55Y-111.2
X180.6Y-101.0
X180.6Y-99.35
X180.6Y-103.45
X180.65Y-93.9
X180.8Y-107.73
X180.8Y-109.11
X180.88Y-95.908
X180.88Y-97.27
X181.0Y-78.0
X181.0Y-119.5
X181.65Y-83.8
X181.65Y-85.5
X181.65Y-87.8
X181.65Y-90.1
X181.65Y-91.9
X181.75Y-102.05
X181.8Y-107.73
X181.8Y-109.11
X181.94Y-95.91
X181.94Y-97.27
X182.2Y-105.8
X182.2Y-111.2
X182.25Y-99.35
X182.3Y-93.9
X182.45Y-78.0
X182.45Y-119.5
X182.8Y-107.73
X182.8Y-109.11
X183.0Y-95.91
X183.0Y-97.27
X183.75Y-78.0
X183.75Y-79.5
X183.75Y-81.0
X183.75Y-82.5
X183.75Y-84.0
X183.75Y-85.5
X183.75Y-87.0
X183.75Y-88.5
X183.75Y-90.0
X183.75Y-91.5
X183.75Y-101.0
X183.75Y-102.5
X183.75Y-104.0
X183.75Y-113.0
X183.75Y-114.5
X183.75Y-116.0
X183.75Y-119.5
X183.76Y-117.24
X183.76Y-118.38
X183.8Y-107.47
X183.8Y-109.4
X183.9Y-105.8
X183.9Y-111.2
X183.95Y-99.35
X184.0Y-93.9
X184.0Y-95.67
X184.0Y-97.52
T2
X156.769Y-97.701
X156.769Y-98.489
X156.769Y-99.276
X157.557Y-97.701
X157.557Y-98.489
X157.557Y-99.276
X158.136Y-81.796
X158.136Y-82.496
X158.136Y-83.196
X158.344Y-97.701
X158.344Y-98.489
X158.344Y-99.276
X158.736Y-81.796
X158.736Y-82.496
X158.736Y-83.196
T3
X137.1Y-80.5
X137.1Y-117.0
X137.583Y-79.333
X137.583Y-81.667
X137.583Y-115.833
X137.583Y-118.167
X138.75Y-78.85
X138.75Y-82.15
X138.75Y-115.35
X138.75Y-118.65
X139.917Y-79.333
X139.917Y-81.667
X139.917Y-115.833
X139.917Y-118.167
X140.4Y-80.5
X140.4Y-117.0
X179.6Y-80.5
X179.6Y-117.0
X180.083Y-79.333
X180.083Y-81.667
X180.083Y-115.833
X180.083Y-118.167
X181.25Y-78.85
X181.25Y-82.15
X181.25Y-115.35
X181.25Y-118.65
X182.417Y-79.333
X182.417Y-81.667
X182.417Y-115.833
X182.417Y-118.167
X182.9Y-80.5
X182.9Y-117.0
T4
X143.897Y-82.652
X146.437Y-82.652
X146.69Y-116.76
X149.23Y-116.76
X151.77Y-116.76
X154.31Y-116.76
X156.85Y-116.76
X159.39Y-116.76
T5
X138.75Y-80.5
X138.75Y-117.0
X181.25Y-80.5
X181.25Y-117.0
M30
