M48
; DRILL file KiCad 10.0.4 date 2026-09-13T23:29:22
; FORMAT={-:-/ absolute / metric / decimal}
; #@! TF.CreationDate,2026-09-13T23:29:22+02:00
; #@! TF.GenerationSoftware,Kicad,Pcbnew,10.0.4
; #@! TF.FileFunction,Plated,1,4,PTH
FMAT,2
METRIC
; #@! TA.AperFunction,Plated,PTH,ViaDrill
T1C0.300
; #@! TA.AperFunction,Plated,PTH,ComponentDrill
T2C0.300
; #@! TA.AperFunction,Plated,PTH,ComponentDrill
T3C0.400
; #@! TA.AperFunction,Plated,PTH,ComponentDrill
T4C1.000
; #@! TA.AperFunction,Plated,PTH,ComponentDrill
T5C2.200
%
G90
G05
T1
X112.85Y-64.818
X112.85Y-66.843
X112.85Y-68.868
X112.85Y-70.893
X112.85Y-72.918
X112.85Y-74.943
X112.85Y-76.968
X112.85Y-78.993
X112.85Y-81.017
X112.85Y-83.042
X112.85Y-85.067
X112.85Y-87.092
X112.85Y-89.117
X112.85Y-91.142
X112.85Y-93.167
X112.85Y-95.192
X112.891Y-62.796
X112.891Y-97.214
X114.301Y-61.523
X114.301Y-98.487
X114.83Y-81.75
X116.325Y-61.51
X116.325Y-98.5
X116.51Y-71.34
X116.99Y-85.41
X117.54Y-72.4
X118.35Y-61.51
X118.35Y-98.5
X118.49Y-78.58
X119.23Y-77.17
X119.84Y-71.28
X120.375Y-61.51
X120.375Y-98.5
X120.75Y-77.17
X121.31Y-73.23
X121.49Y-72.01
X121.85Y-75.64
X125.01Y-72.52
X125.1Y-86.46
X125.96Y-85.77
X126.99Y-84.68
X127.75Y-77.91
X127.78Y-75.07
X129.25Y-75.82
X129.26Y-82.11
X129.99Y-84.7
X130.12Y-78.97
X130.25Y-61.51
X130.25Y-98.5
X130.35Y-85.41
X130.46Y-72.4
X130.74Y-75.79
X130.78Y-82.1
X131.06Y-84.64
X131.55Y-73.37
X132.34Y-82.44
X132.55Y-87.81
X133.0Y-75.73
X133.13Y-78.01
X133.17Y-77.1
X133.63Y-85.79
X134.08Y-69.98
X134.56Y-72.15
X135.795Y-81.965
X136.79Y-85.46
X136.93Y-88.4
X137.232Y-74.266
X137.24Y-78.48
X137.36Y-79.51
X137.56Y-83.31
X137.7Y-70.8
X138.03Y-86.46
X138.52Y-83.3
X139.41Y-78.32
X139.68Y-74.93
X139.76Y-86.11
X140.16Y-79.54
X140.25Y-61.51
X140.25Y-98.5
X140.58Y-73.66
X140.832Y-86.116
X141.3Y-79.195
X141.77Y-75.93
X142.16Y-82.85
X143.46Y-84.78
X145.03Y-80.17
X145.03Y-84.78
X147.385Y-75.445
X147.51Y-80.58
X149.96Y-82.58
X150.125Y-61.51
X150.125Y-98.5
X151.0Y-83.61
X152.15Y-61.51
X152.15Y-98.5
X153.5Y-82.16
X153.51Y-75.32
X154.175Y-61.51
X154.175Y-98.5
X156.199Y-61.523
X156.199Y-98.487
X157.609Y-62.796
X157.609Y-97.214
X157.65Y-64.818
X157.65Y-66.843
X157.65Y-68.868
X157.65Y-70.893
X157.65Y-72.918
X157.65Y-74.943
X157.65Y-76.968
X157.65Y-78.993
X157.65Y-81.017
X157.65Y-83.042
X157.65Y-85.067
X157.65Y-87.092
X157.65Y-89.117
X157.65Y-91.142
X157.65Y-93.167
X157.65Y-95.192
T2
X122.67Y-74.96
X122.68Y-73.51
X123.0Y-74.21
X123.33Y-73.51
X123.33Y-74.96
X134.406Y-84.022
X134.6Y-74.0
X134.6Y-74.9
X135.042Y-83.386
X135.042Y-84.022
X135.042Y-84.659
X135.05Y-74.45
X135.5Y-74.0
X135.5Y-74.9
X135.678Y-84.022
T3
X113.85Y-64.0
X113.85Y-96.0
X114.333Y-62.833
X114.333Y-65.167
X114.333Y-94.833
X114.333Y-97.167
X115.5Y-62.35
X115.5Y-65.65
X115.5Y-94.35
X115.5Y-97.65
X116.667Y-62.833
X116.667Y-65.167
X116.667Y-94.833
X116.667Y-97.167
X117.15Y-64.0
X117.15Y-96.0
X153.35Y-64.0
X153.35Y-96.0
X153.833Y-62.833
X153.833Y-65.167
X153.833Y-94.833
X153.833Y-97.167
X155.0Y-62.35
X155.0Y-65.65
X155.0Y-94.35
X155.0Y-97.65
X156.167Y-62.833
X156.167Y-65.167
X156.167Y-94.833
X156.167Y-97.167
X156.65Y-64.0
X156.65Y-96.0
T4
X116.5Y-72.4
X116.5Y-74.94
X151.0Y-77.5
X151.0Y-80.04
X151.0Y-82.58
T5
X115.5Y-64.0
X115.5Y-96.0
X155.0Y-64.0
X155.0Y-96.0
M30
