%TF.GenerationSoftware,KiCad,Pcbnew,10.0.4*%
%TF.CreationDate,2026-09-13T23:30:19+02:00*%
%TF.ProjectId,CLK_BOARD,434c4b5f-424f-4415-9244-2e6b69636164,rev?*%
%TF.SameCoordinates,Original*%
%TF.FileFunction,Copper,L4,Bot*%
%TF.FilePolarity,Positive*%
%FSLAX46Y46*%
G04 Gerber Fmt 4.6, Leading zero omitted, Abs format (unit mm)*
G04 Created by KiCad (PCBNEW 10.0.4) date 2026-09-13 23:30:19*
%MOMM*%
%LPD*%
G01*
G04 APERTURE LIST*
G04 Aperture macros list*
%AMRoundRect*
0 Rectangle with rounded corners*
0 $1 Rounding radius*
0 $2 $3 $4 $5 $6 $7 $8 $9 X,Y pos of 4 corners*
0 Add a 4 corners polygon primitive as box body*
4,1,4,$2,$3,$4,$5,$6,$7,$8,$9,$2,$3,0*
0 Add four circle primitives for the rounded corners*
1,1,$1+$1,$2,$3*
1,1,$1+$1,$4,$5*
1,1,$1+$1,$6,$7*
1,1,$1+$1,$8,$9*
0 Add four rect primitives between the rounded corners*
20,1,$1+$1,$2,$3,$4,$5,0*
20,1,$1+$1,$4,$5,$6,$7,0*
20,1,$1+$1,$6,$7,$8,$9,0*
20,1,$1+$1,$8,$9,$2,$3,0*%
G04 Aperture macros list end*
%TA.AperFunction,HeatsinkPad*%
%ADD10C,0.500000*%
%TD*%
%TA.AperFunction,ComponentPad*%
%ADD11R,1.700000X1.700000*%
%TD*%
%TA.AperFunction,ComponentPad*%
%ADD12C,1.700000*%
%TD*%
%TA.AperFunction,SMDPad,CuDef*%
%ADD13RoundRect,0.250000X-0.425000X-1.600000X0.425000X-1.600000X0.425000X1.600000X-0.425000X1.600000X0*%
%TD*%
%TA.AperFunction,SMDPad,CuDef*%
%ADD14RoundRect,0.250000X0.425000X1.600000X-0.425000X1.600000X-0.425000X-1.600000X0.425000X-1.600000X0*%
%TD*%
%TA.AperFunction,ComponentPad*%
%ADD15C,0.700000*%
%TD*%
%TA.AperFunction,ComponentPad*%
%ADD16C,4.400000*%
%TD*%
%TA.AperFunction,SMDPad,CuDef*%
%ADD17RoundRect,0.225000X0.225000X0.250000X-0.225000X0.250000X-0.225000X-0.250000X0.225000X-0.250000X0*%
%TD*%
%TA.AperFunction,SMDPad,CuDef*%
%ADD18RoundRect,0.225000X-0.017678X0.335876X-0.335876X0.017678X0.017678X-0.335876X0.335876X-0.017678X0*%
%TD*%
%TA.AperFunction,SMDPad,CuDef*%
%ADD19RoundRect,0.225000X-0.335876X-0.017678X-0.017678X-0.335876X0.335876X0.017678X0.017678X0.335876X0*%
%TD*%
%TA.AperFunction,SMDPad,CuDef*%
%ADD20RoundRect,0.225000X-0.225000X-0.250000X0.225000X-0.250000X0.225000X0.250000X-0.225000X0.250000X0*%
%TD*%
%TA.AperFunction,SMDPad,CuDef*%
%ADD21RoundRect,0.225000X0.250000X-0.225000X0.250000X0.225000X-0.250000X0.225000X-0.250000X-0.225000X0*%
%TD*%
%TA.AperFunction,ViaPad*%
%ADD22C,0.450000*%
%TD*%
%TA.AperFunction,ViaPad*%
%ADD23C,0.400000*%
%TD*%
%TA.AperFunction,Conductor*%
%ADD24C,0.800000*%
%TD*%
%TA.AperFunction,Conductor*%
%ADD25C,0.250000*%
%TD*%
%TA.AperFunction,Conductor*%
%ADD26C,0.200000*%
%TD*%
%TA.AperFunction,Conductor*%
%ADD27C,0.500000*%
%TD*%
G04 APERTURE END LIST*
D10*
%TO.P,U1,11,PAD_11*%
%TO.N,GND*%
X123330000Y-74960000D03*
X123330000Y-73510000D03*
X123000000Y-74210000D03*
X122680000Y-73510000D03*
X122670000Y-74960000D03*
%TD*%
D11*
%TO.P,J5,1,Pin_1_1*%
%TO.N,/nMUTE*%
X151000000Y-77500000D03*
D12*
%TO.P,J5,2,Pin_2_2*%
%TO.N,/nRST*%
X151000000Y-80040000D03*
%TO.P,J5,3,Pin_3_3*%
%TO.N,GND*%
X151000000Y-82580000D03*
%TD*%
D13*
%TO.P,J8,2,Ext_2*%
%TO.N,GND*%
X148075000Y-97000000D03*
X142425000Y-97000000D03*
%TD*%
D14*
%TO.P,J2,2,Ext_2*%
%TO.N,GND*%
X122425000Y-63010000D03*
X128075000Y-63010000D03*
%TD*%
D10*
%TO.P,U3,17,PAD_17*%
%TO.N,GND*%
X135678403Y-84022153D03*
X135042007Y-83385757D03*
X135042007Y-84022153D03*
X135042007Y-84658549D03*
X134405611Y-84022153D03*
%TD*%
D11*
%TO.P,J1,1,Pin_1_1*%
%TO.N,GND*%
X116500000Y-72400000D03*
D12*
%TO.P,J1,2,Pin_2_2*%
%TO.N,Net-(J1-Pin_2)*%
X116500000Y-74940000D03*
%TD*%
D15*
%TO.P,H3,1,1_1*%
%TO.N,GND*%
X153350000Y-64000000D03*
X153833274Y-62833274D03*
X153833274Y-65166726D03*
X155000000Y-62350000D03*
D16*
X155000000Y-64000000D03*
D15*
X155000000Y-65650000D03*
X156166726Y-62833274D03*
X156166726Y-65166726D03*
X156650000Y-64000000D03*
%TD*%
D13*
%TO.P,J7,2,Ext_2*%
%TO.N,GND*%
X138075000Y-97000000D03*
X132425000Y-97000000D03*
%TD*%
D15*
%TO.P,H2,1,1_1*%
%TO.N,GND*%
X113850000Y-96000000D03*
X114333274Y-94833274D03*
X114333274Y-97166726D03*
X115500000Y-94350000D03*
D16*
X115500000Y-96000000D03*
D15*
X115500000Y-97650000D03*
X116666726Y-94833274D03*
X116666726Y-97166726D03*
X117150000Y-96000000D03*
%TD*%
D14*
%TO.P,J4,2,Ext_2*%
%TO.N,GND*%
X142425000Y-63010000D03*
X148075000Y-63010000D03*
%TD*%
D13*
%TO.P,J6,2,Ext_2*%
%TO.N,GND*%
X128075000Y-97000000D03*
X122425000Y-97000000D03*
%TD*%
D15*
%TO.P,H1,1,1_1*%
%TO.N,GND*%
X113850000Y-64000000D03*
X114333274Y-62833274D03*
X114333274Y-65166726D03*
X115500000Y-62350000D03*
D16*
X115500000Y-64000000D03*
D15*
X115500000Y-65650000D03*
X116666726Y-62833274D03*
X116666726Y-65166726D03*
X117150000Y-64000000D03*
%TD*%
D10*
%TO.P,U2,17,PAD_17*%
%TO.N,GND*%
X134600000Y-74000000D03*
X134600000Y-74900000D03*
X135050000Y-74450000D03*
X135500000Y-74000000D03*
X135500000Y-74900000D03*
%TD*%
D15*
%TO.P,H4,1,1_1*%
%TO.N,GND*%
X153350000Y-96000000D03*
X153833274Y-94833274D03*
X153833274Y-97166726D03*
X155000000Y-94350000D03*
D16*
X155000000Y-96000000D03*
D15*
X155000000Y-97650000D03*
X156166726Y-94833274D03*
X156166726Y-97166726D03*
X156650000Y-96000000D03*
%TD*%
D14*
%TO.P,J3,2,Ext_2*%
%TO.N,GND*%
X132425000Y-63010000D03*
X138075000Y-63010000D03*
%TD*%
D17*
%TO.P,C14,1*%
%TO.N,Net-(U4-VCC)*%
X139555000Y-79520000D03*
%TO.P,C14,2*%
%TO.N,GND*%
X138005000Y-79520000D03*
%TD*%
D18*
%TO.P,C20,1*%
%TO.N,Net-(U3-VDD)*%
X133176826Y-86225677D03*
%TO.P,C20,2*%
%TO.N,GND*%
X132080810Y-87321693D03*
%TD*%
D19*
%TO.P,C19,1*%
%TO.N,Net-(U3-VDD)*%
X137240000Y-85910000D03*
%TO.P,C19,2*%
%TO.N,GND*%
X138336016Y-87006016D03*
%TD*%
D20*
%TO.P,C10,1*%
%TO.N,Net-(U2-VDD)*%
X138135000Y-74270000D03*
%TO.P,C10,2*%
%TO.N,GND*%
X139685000Y-74270000D03*
%TD*%
D21*
%TO.P,C9,1*%
%TO.N,Net-(U2-VDD)*%
X134750000Y-71525000D03*
%TO.P,C9,2*%
%TO.N,GND*%
X134750000Y-69975000D03*
%TD*%
D22*
%TO.N,+3V3*%
X145030000Y-80170000D03*
X130120000Y-78970000D03*
%TO.N,GND*%
X157650000Y-68867837D03*
X130740000Y-75790000D03*
X118490000Y-78580000D03*
X118350061Y-61510000D03*
X150125000Y-98500000D03*
X157650000Y-76967591D03*
X120374999Y-61510000D03*
X157650000Y-93167100D03*
X138520000Y-83300000D03*
X157650000Y-64817960D03*
X117540000Y-72400000D03*
X112850000Y-93167100D03*
X157650000Y-87092284D03*
X112850000Y-81017468D03*
X112850000Y-68867836D03*
X137360000Y-79510000D03*
X112850000Y-70892775D03*
X156199280Y-61522507D03*
X157650000Y-70892775D03*
X139680000Y-74930000D03*
X112850000Y-74942652D03*
X136930000Y-88400000D03*
X145030000Y-84780000D03*
X141770000Y-75930000D03*
X118350061Y-98500000D03*
X152149938Y-98500000D03*
X114300718Y-61522507D03*
X137560000Y-83310000D03*
X129990000Y-84700000D03*
X139410000Y-78320000D03*
X150125000Y-61510000D03*
X112850000Y-83042407D03*
X112850000Y-76967591D03*
X157650000Y-95192038D03*
X112891119Y-97213858D03*
X149960000Y-82580000D03*
X151000000Y-83610000D03*
X157650000Y-66842898D03*
X152149938Y-61510000D03*
X127780000Y-75070000D03*
X130350000Y-85410000D03*
X116510000Y-71340000D03*
X116990000Y-85410000D03*
X157650000Y-91142161D03*
X153510000Y-75320000D03*
X140249999Y-61510000D03*
X125010000Y-72520000D03*
X130780000Y-82100000D03*
X157650000Y-78992530D03*
X114300718Y-98487491D03*
X157608879Y-62796141D03*
X112850000Y-66842898D03*
X119840000Y-71280000D03*
X139760000Y-86110000D03*
X157650000Y-85067345D03*
X140580000Y-73660000D03*
X112850000Y-95192039D03*
X157650000Y-89117223D03*
X138030000Y-86460000D03*
X112850000Y-85067346D03*
X153500000Y-82160000D03*
X127750000Y-77910000D03*
X112891119Y-62796140D03*
X157650000Y-72917714D03*
X157650000Y-74942653D03*
X116325122Y-98500000D03*
X131550000Y-73370000D03*
X112850000Y-91142162D03*
X130250000Y-98500000D03*
X120750000Y-77170000D03*
X133000000Y-75730000D03*
X125100000Y-86460000D03*
X137700000Y-70800000D03*
X154174877Y-61510000D03*
X157650000Y-83042407D03*
X112850000Y-89117223D03*
X120374999Y-98500000D03*
X112850000Y-78992530D03*
X142160000Y-82850000D03*
X112850000Y-64817959D03*
X132550000Y-87810000D03*
X116325122Y-61510000D03*
X143460000Y-84780000D03*
X121490000Y-72010000D03*
X157608879Y-97213857D03*
X131060000Y-84640000D03*
X156199280Y-98487491D03*
X112850000Y-72917714D03*
X126990000Y-84680000D03*
X114830000Y-81750000D03*
X129250000Y-75820000D03*
X140832341Y-86115894D03*
X140249999Y-98500000D03*
X125960000Y-85770000D03*
X119230000Y-77170000D03*
X133170000Y-77100000D03*
X130249999Y-61510000D03*
X129260000Y-82110000D03*
X157650000Y-81017468D03*
X134080000Y-69980000D03*
X154174877Y-98500000D03*
X130460000Y-72400000D03*
X112850000Y-87092284D03*
%TO.N,Net-(J1-Pin_2)*%
X121850000Y-75640000D03*
X121310000Y-73230000D03*
%TO.N,/nMUTE*%
X135795036Y-81965000D03*
X137240000Y-78480000D03*
X147385000Y-75445000D03*
%TO.N,/nRST*%
X147510000Y-80580000D03*
D23*
X141300000Y-79195000D03*
%TO.N,Net-(U3-VDD)*%
X133630000Y-85790000D03*
D22*
X132340000Y-82440000D03*
D23*
X136790000Y-85460000D03*
%TO.N,Net-(U4-VCC)*%
X140160000Y-79540000D03*
%TO.N,Net-(U2-VDD)*%
X134560000Y-72150000D03*
D22*
X133130000Y-78010000D03*
D23*
X137232260Y-74265799D03*
%TD*%
%TO.N,+3V3*%
D24*
X131990000Y-80840000D02*
X144360000Y-80840000D01*
X144360000Y-80840000D02*
X145030000Y-80170000D01*
X130120000Y-78970000D02*
X131990000Y-80840000D01*
%TO.N,Net-(J1-Pin_2)*%
D25*
X121850000Y-73770000D02*
X121310000Y-73230000D01*
X121850000Y-75640000D02*
X121850000Y-73770000D01*
%TO.N,/nMUTE*%
D26*
X142760000Y-86050000D02*
X148430000Y-86050000D01*
X148430000Y-86050000D02*
X149190000Y-85290000D01*
X149190000Y-85290000D02*
X149190000Y-79320000D01*
X147110000Y-75170000D02*
X147385000Y-75445000D01*
X139485000Y-81965000D02*
X142370000Y-84850000D01*
X139440000Y-76280000D02*
X140530000Y-76280000D01*
X142370000Y-85660000D02*
X142760000Y-86050000D01*
X140530000Y-76280000D02*
X141640000Y-75170000D01*
X141640000Y-75170000D02*
X147110000Y-75170000D01*
X149190000Y-79320000D02*
X151000000Y-77510000D01*
X147385000Y-75445000D02*
X147390000Y-75450000D01*
X151000000Y-77510000D02*
X151000000Y-77500000D01*
X142370000Y-84850000D02*
X142370000Y-85660000D01*
X135795036Y-81965000D02*
X139485000Y-81965000D01*
X137240000Y-78480000D02*
X139440000Y-76280000D01*
%TO.N,/nRST*%
D25*
X145775000Y-79195000D02*
X147160000Y-80580000D01*
X141300000Y-79195000D02*
X145775000Y-79195000D01*
X147160000Y-80580000D02*
X147510000Y-80580000D01*
%TO.N,Net-(U3-VDD)*%
D27*
X132340000Y-82440000D02*
X132340000Y-84500000D01*
X135086200Y-82440000D02*
X132340000Y-82440000D01*
X136790000Y-85460000D02*
X136790000Y-84143800D01*
X137240000Y-85910000D02*
X136790000Y-85460000D01*
X133630000Y-85790000D02*
X133612503Y-85790000D01*
X136790000Y-84143800D02*
X135086200Y-82440000D01*
X132340000Y-84500000D02*
X133630000Y-85790000D01*
X133612503Y-85790000D02*
X133176826Y-86225677D01*
%TO.N,Net-(U4-VCC)*%
X139575000Y-79540000D02*
X139555000Y-79520000D01*
X140160000Y-79540000D02*
X139575000Y-79540000D01*
%TO.N,Net-(U2-VDD)*%
D24*
X138135000Y-73905000D02*
X135755000Y-71525000D01*
X137236461Y-74270000D02*
X137232260Y-74265799D01*
D27*
X134560000Y-71715000D02*
X134750000Y-71525000D01*
D24*
X136330000Y-78010000D02*
X138135000Y-76205000D01*
X138135000Y-74270000D02*
X138135000Y-73905000D01*
D27*
X134560000Y-72150000D02*
X134560000Y-71715000D01*
D24*
X138135000Y-74270000D02*
X137236461Y-74270000D01*
X135755000Y-71525000D02*
X134750000Y-71525000D01*
X133130000Y-78010000D02*
X136330000Y-78010000D01*
X138135000Y-76205000D02*
X138135000Y-74270000D01*
%TD*%
%TA.AperFunction,Conductor*%
%TO.N,GND*%
G36*
X156003736Y-60960726D02*
G01*
X156257638Y-60976084D01*
X156272495Y-60977888D01*
X156519000Y-61023061D01*
X156533536Y-61026644D01*
X156772791Y-61101200D01*
X156786788Y-61106508D01*
X157015319Y-61209361D01*
X157028578Y-61216320D01*
X157135808Y-61281143D01*
X157243045Y-61345970D01*
X157255356Y-61354468D01*
X157452636Y-61509027D01*
X157463844Y-61518957D01*
X157641042Y-61696155D01*
X157650972Y-61707363D01*
X157805527Y-61904637D01*
X157814033Y-61916960D01*
X157943679Y-62131421D01*
X157950638Y-62144680D01*
X158053491Y-62373211D01*
X158058800Y-62387211D01*
X158133354Y-62626461D01*
X158136938Y-62641001D01*
X158182110Y-62887500D01*
X158183915Y-62902364D01*
X158199274Y-63156263D01*
X158199500Y-63163750D01*
X158199500Y-96846249D01*
X158199274Y-96853736D01*
X158183915Y-97107635D01*
X158182110Y-97122499D01*
X158136938Y-97368998D01*
X158133354Y-97383538D01*
X158058800Y-97622788D01*
X158053491Y-97636788D01*
X157950638Y-97865319D01*
X157943679Y-97878578D01*
X157814033Y-98093039D01*
X157805527Y-98105362D01*
X157650972Y-98302636D01*
X157641042Y-98313844D01*
X157463844Y-98491042D01*
X157452636Y-98500972D01*
X157255362Y-98655527D01*
X157243039Y-98664033D01*
X157028578Y-98793679D01*
X157015319Y-98800638D01*
X156786788Y-98903491D01*
X156772788Y-98908800D01*
X156533538Y-98983354D01*
X156518998Y-98986938D01*
X156272499Y-99032110D01*
X156257635Y-99033915D01*
X156003736Y-99049274D01*
X155996249Y-99049500D01*
X114503751Y-99049500D01*
X114496264Y-99049274D01*
X114242364Y-99033915D01*
X114227500Y-99032110D01*
X113981001Y-98986938D01*
X113966461Y-98983354D01*
X113727211Y-98908800D01*
X113713211Y-98903491D01*
X113484680Y-98800638D01*
X113471421Y-98793679D01*
X113256960Y-98664033D01*
X113244637Y-98655527D01*
X113047363Y-98500972D01*
X113036155Y-98491042D01*
X112858957Y-98313844D01*
X112849027Y-98302636D01*
X112694468Y-98105356D01*
X112685970Y-98093045D01*
X112583412Y-97923394D01*
X112556320Y-97878578D01*
X112549361Y-97865319D01*
X112446508Y-97636788D01*
X112441199Y-97622788D01*
X112366645Y-97383538D01*
X112363061Y-97368998D01*
X112317889Y-97122499D01*
X112316084Y-97107635D01*
X112300726Y-96853736D01*
X112300500Y-96846249D01*
X112300500Y-78890519D01*
X129516301Y-78890519D01*
X129516301Y-79049480D01*
X129557439Y-79203017D01*
X129557440Y-79203018D01*
X129557441Y-79203020D01*
X129636919Y-79340680D01*
X131506920Y-81210680D01*
X131619320Y-81323080D01*
X131756981Y-81402559D01*
X131910521Y-81443700D01*
X131910523Y-81443700D01*
X135410701Y-81443700D01*
X135477740Y-81463385D01*
X135523495Y-81516189D01*
X135533439Y-81585347D01*
X135504414Y-81648903D01*
X135498382Y-81655381D01*
X135451993Y-81701769D01*
X135451991Y-81701772D01*
X135395551Y-81799526D01*
X135364233Y-81916411D01*
X135363663Y-81916258D01*
X135329397Y-81974664D01*
X135267073Y-82006246D01*
X135212365Y-82004101D01*
X135145931Y-81986300D01*
X132399731Y-81986300D01*
X132280269Y-81986300D01*
X132164878Y-82017219D01*
X132164876Y-82017219D01*
X132164876Y-82017220D01*
X132061422Y-82076950D01*
X132061419Y-82076952D01*
X131976952Y-82161419D01*
X131976950Y-82161422D01*
X131917219Y-82264878D01*
X131886300Y-82380269D01*
X131886300Y-84559731D01*
X131917219Y-84675122D01*
X131939081Y-84712989D01*
X131976949Y-84778578D01*
X131976951Y-84778580D01*
X132732842Y-85534471D01*
X132766327Y-85595794D01*
X132761343Y-85665486D01*
X132732842Y-85709833D01*
X132501305Y-85941370D01*
X132482741Y-85963776D01*
X132482740Y-85963778D01*
X132426669Y-86080211D01*
X132407409Y-86207998D01*
X132407409Y-86208000D01*
X132426668Y-86335787D01*
X132443695Y-86371143D01*
X132482741Y-86452223D01*
X132501301Y-86474624D01*
X132927879Y-86901202D01*
X132950280Y-86919762D01*
X133066713Y-86975833D01*
X133066715Y-86975834D01*
X133194503Y-86995094D01*
X133194504Y-86995094D01*
X133322292Y-86975834D01*
X133438727Y-86919762D01*
X133461128Y-86901202D01*
X133852351Y-86509979D01*
X133870911Y-86487578D01*
X133926983Y-86371143D01*
X133946243Y-86243355D01*
X133938810Y-86194043D01*
X133948282Y-86124822D01*
X133973743Y-86087884D01*
X133993050Y-86068578D01*
X134052781Y-85965122D01*
X134083700Y-85849731D01*
X134083700Y-85730269D01*
X134052781Y-85614878D01*
X134015411Y-85550152D01*
X134015411Y-85550151D01*
X133993052Y-85511424D01*
X133993048Y-85511419D01*
X132830019Y-84348390D01*
X132796534Y-84287067D01*
X132793700Y-84260709D01*
X132793700Y-83017700D01*
X132813385Y-82950661D01*
X132866189Y-82904906D01*
X132917700Y-82893700D01*
X134846909Y-82893700D01*
X134913948Y-82913385D01*
X134934590Y-82930019D01*
X136299981Y-84295409D01*
X136333466Y-84356732D01*
X136336300Y-84383090D01*
X136336300Y-85519731D01*
X136367219Y-85635122D01*
X136389081Y-85672989D01*
X136426949Y-85738578D01*
X136426951Y-85738580D01*
X136445372Y-85757001D01*
X136478857Y-85818324D01*
X136480306Y-85863161D01*
X136475911Y-85892323D01*
X136470583Y-85927678D01*
X136489843Y-86055466D01*
X136545915Y-86171901D01*
X136564475Y-86194302D01*
X136955698Y-86585525D01*
X136978099Y-86604085D01*
X137094534Y-86660157D01*
X137222322Y-86679417D01*
X137222323Y-86679417D01*
X137286216Y-86669787D01*
X137350111Y-86660157D01*
X137466546Y-86604085D01*
X137488947Y-86585525D01*
X137915525Y-86158947D01*
X137934085Y-86136546D01*
X137990157Y-86020111D01*
X138009417Y-85892322D01*
X137990157Y-85764534D01*
X137934085Y-85648099D01*
X137915525Y-85625698D01*
X137524302Y-85234475D01*
X137501901Y-85215915D01*
X137385466Y-85159843D01*
X137349217Y-85154379D01*
X137285860Y-85124921D01*
X137248487Y-85065887D01*
X137243700Y-85031764D01*
X137243700Y-84084071D01*
X137243700Y-84084069D01*
X137212781Y-83968678D01*
X137153050Y-83865222D01*
X137068578Y-83780750D01*
X135869310Y-82581481D01*
X135835825Y-82520158D01*
X135840809Y-82450466D01*
X135882681Y-82394533D01*
X135899213Y-82384084D01*
X135911488Y-82377619D01*
X135960508Y-82364485D01*
X136058264Y-82308045D01*
X136074572Y-82291736D01*
X136091193Y-82282984D01*
X136107770Y-82279638D01*
X136122613Y-82271534D01*
X136148971Y-82268700D01*
X139307841Y-82268700D01*
X139374880Y-82288385D01*
X139395522Y-82305019D01*
X142029981Y-84939477D01*
X142063466Y-85000800D01*
X142066300Y-85027158D01*
X142066300Y-85699986D01*
X142086994Y-85777221D01*
X142086996Y-85777224D01*
X142126979Y-85846476D01*
X142516977Y-86236473D01*
X142516979Y-86236476D01*
X142573524Y-86293021D01*
X142642390Y-86332781D01*
X142642776Y-86333004D01*
X142720016Y-86353700D01*
X142720017Y-86353700D01*
X142720018Y-86353700D01*
X148469980Y-86353700D01*
X148469983Y-86353700D01*
X148536834Y-86335788D01*
X148547221Y-86333005D01*
X148547221Y-86333004D01*
X148547224Y-86333004D01*
X148616476Y-86293021D01*
X149366266Y-85543228D01*
X149366271Y-85543225D01*
X149376474Y-85533021D01*
X149376476Y-85533021D01*
X149433021Y-85476476D01*
X149473004Y-85407224D01*
X149492007Y-85336301D01*
X149493700Y-85329984D01*
X149493700Y-85250017D01*
X149493700Y-79936215D01*
X149946300Y-79936215D01*
X149946300Y-80143784D01*
X149986791Y-80347345D01*
X149986793Y-80347353D01*
X150066222Y-80539110D01*
X150066227Y-80539120D01*
X150181537Y-80711693D01*
X150181540Y-80711697D01*
X150328302Y-80858459D01*
X150328306Y-80858462D01*
X150500879Y-80973772D01*
X150500883Y-80973774D01*
X150500886Y-80973776D01*
X150692647Y-81053207D01*
X150896215Y-81093699D01*
X150896219Y-81093700D01*
X150896220Y-81093700D01*
X151103781Y-81093700D01*
X151103782Y-81093699D01*
X151307353Y-81053207D01*
X151499114Y-80973776D01*
X151671694Y-80858462D01*
X151818462Y-80711694D01*
X151933776Y-80539114D01*
X152013207Y-80347353D01*
X152053700Y-80143780D01*
X152053700Y-79936220D01*
X152013207Y-79732647D01*
X151933776Y-79540886D01*
X151933774Y-79540883D01*
X151933772Y-79540879D01*
X151818462Y-79368306D01*
X151818459Y-79368302D01*
X151671697Y-79221540D01*
X151671693Y-79221537D01*
X151499120Y-79106227D01*
X151499110Y-79106222D01*
X151307353Y-79026793D01*
X151307345Y-79026791D01*
X151103784Y-78986300D01*
X151103780Y-78986300D01*
X150896220Y-78986300D01*
X150896215Y-78986300D01*
X150692654Y-79026791D01*
X150692646Y-79026793D01*
X150500889Y-79106222D01*
X150500879Y-79106227D01*
X150328306Y-79221537D01*
X150328302Y-79221540D01*
X150181540Y-79368302D01*
X150181537Y-79368306D01*
X150066227Y-79540879D01*
X150066222Y-79540889D01*
X149986793Y-79732646D01*
X149986791Y-79732654D01*
X149946300Y-79936215D01*
X149493700Y-79936215D01*
X149493700Y-79497159D01*
X149513385Y-79430120D01*
X149530019Y-79409478D01*
X150349478Y-78590019D01*
X150410801Y-78556534D01*
X150437159Y-78553700D01*
X151870066Y-78553700D01*
X151929476Y-78541882D01*
X151929477Y-78541881D01*
X151929480Y-78541881D01*
X151996860Y-78496860D01*
X152041881Y-78429480D01*
X152041882Y-78429476D01*
X152053700Y-78370066D01*
X152053700Y-76629933D01*
X152041882Y-76570523D01*
X152041881Y-76570520D01*
X152036859Y-76563004D01*
X151996860Y-76503140D01*
X151929480Y-76458119D01*
X151929479Y-76458118D01*
X151929476Y-76458117D01*
X151870066Y-76446300D01*
X151870064Y-76446300D01*
X150129936Y-76446300D01*
X150129934Y-76446300D01*
X150070523Y-76458117D01*
X150070520Y-76458118D01*
X150003140Y-76503140D01*
X149958118Y-76570520D01*
X149958117Y-76570523D01*
X149946300Y-76629933D01*
X149946300Y-78082841D01*
X149926615Y-78149880D01*
X149909981Y-78170522D01*
X148946981Y-79133521D01*
X148946979Y-79133524D01*
X148906994Y-79202778D01*
X148886300Y-79280013D01*
X148886300Y-85112841D01*
X148866615Y-85179880D01*
X148849981Y-85200522D01*
X148340522Y-85709981D01*
X148279199Y-85743466D01*
X148252841Y-85746300D01*
X142937158Y-85746300D01*
X142907717Y-85737655D01*
X142877731Y-85731132D01*
X142872715Y-85727377D01*
X142870119Y-85726615D01*
X142849482Y-85709985D01*
X142710017Y-85570520D01*
X142676534Y-85509199D01*
X142673700Y-85482841D01*
X142673700Y-84810020D01*
X142673699Y-84810013D01*
X142653005Y-84732778D01*
X142613021Y-84663524D01*
X142552145Y-84602648D01*
X142552134Y-84602638D01*
X139671478Y-81721981D01*
X139671477Y-81721980D01*
X139671476Y-81721979D01*
X139602224Y-81681996D01*
X139602223Y-81681995D01*
X139595185Y-81677932D01*
X139595918Y-81676661D01*
X139548463Y-81638423D01*
X139526396Y-81572129D01*
X139543673Y-81504430D01*
X139594809Y-81456818D01*
X139650317Y-81443700D01*
X144439478Y-81443700D01*
X144439479Y-81443700D01*
X144560568Y-81411253D01*
X144560573Y-81411253D01*
X144560573Y-81411252D01*
X144593013Y-81402561D01*
X144593013Y-81402560D01*
X144593020Y-81402559D01*
X144730680Y-81323081D01*
X145513080Y-80540680D01*
X145592559Y-80403020D01*
X145633699Y-80249479D01*
X145633699Y-80090521D01*
X145592559Y-79936980D01*
X145513080Y-79799320D01*
X145449141Y-79735381D01*
X145438528Y-79715944D01*
X145424028Y-79699211D01*
X145422111Y-79685879D01*
X145415656Y-79674058D01*
X145417235Y-79651971D01*
X145414084Y-79630053D01*
X145419679Y-79617801D01*
X145420640Y-79604366D01*
X145433910Y-79586639D01*
X145443109Y-79566497D01*
X145454440Y-79559214D01*
X145462512Y-79548433D01*
X145483257Y-79540695D01*
X145501887Y-79528723D01*
X145523805Y-79525571D01*
X145527976Y-79524016D01*
X145536822Y-79523700D01*
X145587486Y-79523700D01*
X145654525Y-79543385D01*
X145675167Y-79560019D01*
X146958173Y-80843025D01*
X147033127Y-80886299D01*
X147116726Y-80908700D01*
X147188700Y-80908700D01*
X147250699Y-80925312D01*
X147319751Y-80965179D01*
X147334641Y-80973777D01*
X147344528Y-80979485D01*
X147453561Y-81008700D01*
X147453563Y-81008700D01*
X147566437Y-81008700D01*
X147566439Y-81008700D01*
X147675472Y-80979485D01*
X147773228Y-80923045D01*
X147853045Y-80843228D01*
X147909485Y-80745472D01*
X147938700Y-80636439D01*
X147938700Y-80523561D01*
X147909485Y-80414528D01*
X147853045Y-80316772D01*
X147773228Y-80236955D01*
X147702265Y-80195984D01*
X147675473Y-80180515D01*
X147613131Y-80163811D01*
X147566439Y-80151300D01*
X147453561Y-80151300D01*
X147344528Y-80180515D01*
X147337018Y-80183626D01*
X147335705Y-80180458D01*
X147282859Y-80192997D01*
X147216948Y-80169813D01*
X147201702Y-80156850D01*
X145976826Y-78931974D01*
X145936511Y-78908699D01*
X145901873Y-78888701D01*
X145818274Y-78866300D01*
X145818272Y-78866300D01*
X141571302Y-78866300D01*
X141509302Y-78849687D01*
X141455825Y-78818812D01*
X141455823Y-78818811D01*
X141353148Y-78791300D01*
X141246852Y-78791300D01*
X141144177Y-78818811D01*
X141144175Y-78818812D01*
X141144174Y-78818812D01*
X141052125Y-78871957D01*
X141052119Y-78871961D01*
X140976961Y-78947119D01*
X140976957Y-78947125D01*
X140923812Y-79039174D01*
X140923812Y-79039175D01*
X140923811Y-79039177D01*
X140896300Y-79141852D01*
X140896300Y-79248148D01*
X140923811Y-79350823D01*
X140923812Y-79350824D01*
X140923812Y-79350825D01*
X140933905Y-79368306D01*
X140976959Y-79442878D01*
X141052122Y-79518041D01*
X141144177Y-79571189D01*
X141246852Y-79598700D01*
X141246854Y-79598700D01*
X141353146Y-79598700D01*
X141353148Y-79598700D01*
X141455823Y-79571189D01*
X141508304Y-79540889D01*
X141509302Y-79540313D01*
X141571302Y-79523700D01*
X144523178Y-79523700D01*
X144590217Y-79543385D01*
X144635972Y-79596189D01*
X144645916Y-79665347D01*
X144616891Y-79728903D01*
X144610860Y-79735379D01*
X144373660Y-79972579D01*
X144146258Y-80199981D01*
X144084935Y-80233466D01*
X144058577Y-80236300D01*
X140256208Y-80236300D01*
X140189169Y-80216615D01*
X140143414Y-80163811D01*
X140133470Y-80094653D01*
X140162495Y-80031097D01*
X140221273Y-79993323D01*
X140224069Y-79992537D01*
X140335122Y-79962781D01*
X140438578Y-79903050D01*
X140523050Y-79818578D01*
X140582781Y-79715122D01*
X140613700Y-79599731D01*
X140613700Y-79480269D01*
X140582781Y-79364878D01*
X140523050Y-79261422D01*
X140438578Y-79176950D01*
X140335122Y-79117219D01*
X140219731Y-79086300D01*
X140219728Y-79086300D01*
X140211880Y-79084197D01*
X140212594Y-79081529D01*
X140161020Y-79058700D01*
X140141354Y-79037681D01*
X140086560Y-78963440D01*
X140043927Y-78931975D01*
X139982581Y-78886699D01*
X139982579Y-78886698D01*
X139860607Y-78844017D01*
X139860595Y-78844015D01*
X139831640Y-78841300D01*
X139831636Y-78841300D01*
X139278364Y-78841300D01*
X139278360Y-78841300D01*
X139249404Y-78844015D01*
X139249392Y-78844017D01*
X139127420Y-78886698D01*
X139023439Y-78963439D01*
X138946698Y-79067420D01*
X138904017Y-79189392D01*
X138904015Y-79189404D01*
X138901300Y-79218359D01*
X138901300Y-79821640D01*
X138904015Y-79850595D01*
X138904017Y-79850607D01*
X138946698Y-79972579D01*
X138946699Y-79972581D01*
X138995473Y-80038666D01*
X139019444Y-80104294D01*
X139004129Y-80172465D01*
X138954389Y-80221533D01*
X138895703Y-80236300D01*
X132291422Y-80236300D01*
X132224383Y-80216615D01*
X132203741Y-80199981D01*
X131354585Y-79350825D01*
X130490680Y-78486919D01*
X130353020Y-78407441D01*
X130353019Y-78407440D01*
X130353018Y-78407440D01*
X130353017Y-78407439D01*
X130199480Y-78366301D01*
X130199479Y-78366301D01*
X130040521Y-78366301D01*
X130040519Y-78366301D01*
X129886982Y-78407439D01*
X129886981Y-78407440D01*
X129749323Y-78486917D01*
X129749317Y-78486921D01*
X129636921Y-78599317D01*
X129636917Y-78599323D01*
X129557440Y-78736981D01*
X129557439Y-78736982D01*
X129516301Y-78890519D01*
X112300500Y-78890519D01*
X112300500Y-77930521D01*
X132526300Y-77930521D01*
X132526300Y-78089479D01*
X132567441Y-78243019D01*
X132646920Y-78380680D01*
X132759320Y-78493080D01*
X132896981Y-78572559D01*
X133050521Y-78613700D01*
X133050523Y-78613700D01*
X136409478Y-78613700D01*
X136409479Y-78613700D01*
X136530572Y-78581252D01*
X136563020Y-78572559D01*
X136650787Y-78521886D01*
X136655264Y-78519760D01*
X136685051Y-78515018D01*
X136714367Y-78507906D01*
X136719206Y-78509581D01*
X136724264Y-78508776D01*
X136751886Y-78520891D01*
X136780394Y-78530758D01*
X136783560Y-78534783D01*
X136788250Y-78536841D01*
X136804938Y-78561967D01*
X136823585Y-78585679D01*
X136826498Y-78594431D01*
X136826905Y-78595043D01*
X136826914Y-78595680D01*
X136828241Y-78599667D01*
X136840515Y-78645472D01*
X136896955Y-78743228D01*
X136976772Y-78823045D01*
X137074528Y-78879485D01*
X137183561Y-78908700D01*
X137183563Y-78908700D01*
X137296437Y-78908700D01*
X137296439Y-78908700D01*
X137405472Y-78879485D01*
X137503228Y-78823045D01*
X137583045Y-78743228D01*
X137639485Y-78645472D01*
X137668700Y-78536439D01*
X137668700Y-78532159D01*
X137669721Y-78528681D01*
X137669761Y-78528379D01*
X137669808Y-78528385D01*
X137688385Y-78465120D01*
X137705019Y-78444478D01*
X139529478Y-76620019D01*
X139590801Y-76586534D01*
X139617159Y-76583700D01*
X140569980Y-76583700D01*
X140569983Y-76583700D01*
X140619173Y-76570520D01*
X140647221Y-76563005D01*
X140647221Y-76563004D01*
X140647224Y-76563004D01*
X140716476Y-76523021D01*
X141729478Y-75510019D01*
X141790801Y-75476534D01*
X141817159Y-75473700D01*
X146853719Y-75473700D01*
X146920758Y-75493385D01*
X146966513Y-75546189D01*
X146973494Y-75565607D01*
X146985515Y-75610473D01*
X146986222Y-75611697D01*
X147041955Y-75708228D01*
X147121772Y-75788045D01*
X147219528Y-75844485D01*
X147328561Y-75873700D01*
X147328563Y-75873700D01*
X147441437Y-75873700D01*
X147441439Y-75873700D01*
X147550472Y-75844485D01*
X147648228Y-75788045D01*
X147728045Y-75708228D01*
X147784485Y-75610472D01*
X147813700Y-75501439D01*
X147813700Y-75388561D01*
X147784485Y-75279528D01*
X147728045Y-75181772D01*
X147648228Y-75101955D01*
X147599350Y-75073735D01*
X147550473Y-75045515D01*
X147495955Y-75030907D01*
X147441439Y-75016300D01*
X147441438Y-75016300D01*
X147437159Y-75016300D01*
X147433681Y-75015278D01*
X147433379Y-75015239D01*
X147433385Y-75015191D01*
X147370120Y-74996615D01*
X147349478Y-74979981D01*
X147296478Y-74926981D01*
X147296476Y-74926979D01*
X147227224Y-74886996D01*
X147227221Y-74886994D01*
X147149986Y-74866300D01*
X147149983Y-74866300D01*
X141679983Y-74866300D01*
X141600017Y-74866300D01*
X141600013Y-74866300D01*
X141522778Y-74886994D01*
X141453524Y-74926979D01*
X141453521Y-74926981D01*
X140440522Y-75939981D01*
X140379199Y-75973466D01*
X140352841Y-75976300D01*
X139400013Y-75976300D01*
X139322778Y-75996994D01*
X139253524Y-76036979D01*
X139253521Y-76036981D01*
X138950381Y-76340122D01*
X138889058Y-76373607D01*
X138819366Y-76368623D01*
X138763433Y-76326751D01*
X138739016Y-76261287D01*
X138738700Y-76252441D01*
X138738700Y-74756797D01*
X138745659Y-74715842D01*
X138785982Y-74600607D01*
X138785982Y-74600604D01*
X138785984Y-74600600D01*
X138788700Y-74571636D01*
X138788700Y-73968364D01*
X138785984Y-73939400D01*
X138785982Y-73939396D01*
X138785982Y-73939392D01*
X138761641Y-73869833D01*
X138743301Y-73817419D01*
X138743299Y-73817416D01*
X138738959Y-73809203D01*
X138740180Y-73808557D01*
X138726597Y-73780354D01*
X138697559Y-73671981D01*
X138618080Y-73534320D01*
X138505680Y-73421920D01*
X136125680Y-71041919D01*
X135988020Y-70962441D01*
X135988019Y-70962440D01*
X135988018Y-70962440D01*
X135988016Y-70962439D01*
X135955574Y-70953747D01*
X135955573Y-70953746D01*
X135955573Y-70953747D01*
X135895025Y-70937523D01*
X135834479Y-70921300D01*
X135834478Y-70921300D01*
X135236798Y-70921300D01*
X135195843Y-70914341D01*
X135080607Y-70874017D01*
X135080595Y-70874015D01*
X135051640Y-70871300D01*
X135051636Y-70871300D01*
X134448364Y-70871300D01*
X134448360Y-70871300D01*
X134419404Y-70874015D01*
X134419392Y-70874017D01*
X134297420Y-70916698D01*
X134193439Y-70993439D01*
X134116698Y-71097420D01*
X134074017Y-71219392D01*
X134074015Y-71219404D01*
X134071300Y-71248359D01*
X134071300Y-71801640D01*
X134074015Y-71830595D01*
X134074017Y-71830604D01*
X134099341Y-71902973D01*
X134106300Y-71943929D01*
X134106300Y-72209731D01*
X134137219Y-72325122D01*
X134196950Y-72428578D01*
X134281422Y-72513050D01*
X134384878Y-72572781D01*
X134500269Y-72603700D01*
X134500271Y-72603700D01*
X134619728Y-72603700D01*
X134619731Y-72603700D01*
X134735122Y-72572781D01*
X134838578Y-72513050D01*
X134923050Y-72428578D01*
X134982781Y-72325122D01*
X134999795Y-72261624D01*
X135003620Y-72255347D01*
X135004295Y-72248025D01*
X135021558Y-72225917D01*
X135036157Y-72201967D01*
X135043831Y-72197395D01*
X135047298Y-72192957D01*
X135078614Y-72176678D01*
X135080596Y-72175984D01*
X135080600Y-72175984D01*
X135195846Y-72135657D01*
X135236798Y-72128700D01*
X135453577Y-72128700D01*
X135520616Y-72148385D01*
X135541258Y-72165019D01*
X136263196Y-72886957D01*
X136935841Y-73559601D01*
X136969326Y-73620924D01*
X136964342Y-73690616D01*
X136922470Y-73746549D01*
X136910162Y-73754668D01*
X136861583Y-73782716D01*
X136861577Y-73782720D01*
X136749181Y-73895116D01*
X136749177Y-73895122D01*
X136669700Y-74032780D01*
X136669699Y-74032781D01*
X136628561Y-74186318D01*
X136628561Y-74345279D01*
X136669699Y-74498816D01*
X136669700Y-74498817D01*
X136746970Y-74632654D01*
X136749179Y-74636479D01*
X136865781Y-74753080D01*
X137003441Y-74832559D01*
X137035885Y-74841251D01*
X137035887Y-74841252D01*
X137035888Y-74841252D01*
X137156982Y-74873700D01*
X137407300Y-74873700D01*
X137474339Y-74893385D01*
X137520094Y-74946189D01*
X137531300Y-74997700D01*
X137531300Y-75903577D01*
X137511615Y-75970616D01*
X137494981Y-75991258D01*
X136116258Y-77369981D01*
X136054935Y-77403466D01*
X136028577Y-77406300D01*
X133050521Y-77406300D01*
X132896981Y-77447441D01*
X132896979Y-77447441D01*
X132896979Y-77447442D01*
X132759320Y-77526920D01*
X132759317Y-77526922D01*
X132646922Y-77639317D01*
X132646920Y-77639320D01*
X132567441Y-77776981D01*
X132526300Y-77930521D01*
X112300500Y-77930521D01*
X112300500Y-74836215D01*
X115446300Y-74836215D01*
X115446300Y-75043784D01*
X115486791Y-75247345D01*
X115486793Y-75247353D01*
X115566222Y-75439110D01*
X115566227Y-75439120D01*
X115681537Y-75611693D01*
X115681540Y-75611697D01*
X115828302Y-75758459D01*
X115828306Y-75758462D01*
X116000879Y-75873772D01*
X116000883Y-75873774D01*
X116000886Y-75873776D01*
X116192647Y-75953207D01*
X116383943Y-75991258D01*
X116396215Y-75993699D01*
X116396219Y-75993700D01*
X116396220Y-75993700D01*
X116603781Y-75993700D01*
X116603782Y-75993699D01*
X116807353Y-75953207D01*
X116999114Y-75873776D01*
X117171694Y-75758462D01*
X117318462Y-75611694D01*
X117433776Y-75439114D01*
X117513207Y-75247353D01*
X117553700Y-75043780D01*
X117553700Y-74836220D01*
X117513207Y-74632647D01*
X117433776Y-74440886D01*
X117433774Y-74440883D01*
X117433772Y-74440879D01*
X117318462Y-74268306D01*
X117318459Y-74268302D01*
X117171697Y-74121540D01*
X117171693Y-74121537D01*
X116999120Y-74006227D01*
X116999110Y-74006222D01*
X116807353Y-73926793D01*
X116807345Y-73926791D01*
X116603784Y-73886300D01*
X116603780Y-73886300D01*
X116396220Y-73886300D01*
X116396215Y-73886300D01*
X116192654Y-73926791D01*
X116192646Y-73926793D01*
X116000889Y-74006222D01*
X116000879Y-74006227D01*
X115828306Y-74121537D01*
X115828302Y-74121540D01*
X115681540Y-74268302D01*
X115681537Y-74268306D01*
X115566227Y-74440879D01*
X115566222Y-74440889D01*
X115486793Y-74632646D01*
X115486791Y-74632654D01*
X115446300Y-74836215D01*
X112300500Y-74836215D01*
X112300500Y-73173561D01*
X120881300Y-73173561D01*
X120881300Y-73286438D01*
X120910515Y-73395473D01*
X120925785Y-73421920D01*
X120966955Y-73493228D01*
X121046772Y-73573045D01*
X121144528Y-73629485D01*
X121249181Y-73657526D01*
X121304767Y-73689619D01*
X121484981Y-73869833D01*
X121518466Y-73931156D01*
X121521300Y-73957514D01*
X121521300Y-75318700D01*
X121504687Y-75380699D01*
X121489958Y-75406211D01*
X121450515Y-75474526D01*
X121443304Y-75501439D01*
X121421300Y-75583561D01*
X121421300Y-75696439D01*
X121435907Y-75750955D01*
X121450515Y-75805473D01*
X121473039Y-75844484D01*
X121506955Y-75903228D01*
X121586772Y-75983045D01*
X121671428Y-76031922D01*
X121680187Y-76036979D01*
X121684528Y-76039485D01*
X121793561Y-76068700D01*
X121793563Y-76068700D01*
X121906437Y-76068700D01*
X121906439Y-76068700D01*
X122015472Y-76039485D01*
X122113228Y-75983045D01*
X122193045Y-75903228D01*
X122249485Y-75805472D01*
X122278700Y-75696439D01*
X122278700Y-75583561D01*
X122249485Y-75474528D01*
X122195312Y-75380699D01*
X122178700Y-75318700D01*
X122178700Y-73726727D01*
X122156299Y-73643126D01*
X122156299Y-73643125D01*
X122113027Y-73568176D01*
X122113023Y-73568171D01*
X121769619Y-73224767D01*
X121737526Y-73169181D01*
X121709485Y-73064528D01*
X121653045Y-72966772D01*
X121573228Y-72886955D01*
X121524350Y-72858735D01*
X121475473Y-72830515D01*
X121420955Y-72815907D01*
X121366439Y-72801300D01*
X121253561Y-72801300D01*
X121144526Y-72830515D01*
X121046772Y-72886955D01*
X121046769Y-72886957D01*
X120966957Y-72966769D01*
X120966955Y-72966772D01*
X120910515Y-73064526D01*
X120881300Y-73173561D01*
X112300500Y-73173561D01*
X112300500Y-63163750D01*
X112300726Y-63156263D01*
X112316084Y-62902364D01*
X112317889Y-62887500D01*
X112354053Y-62690160D01*
X112363062Y-62640995D01*
X112366645Y-62626461D01*
X112441202Y-62387202D01*
X112446504Y-62373219D01*
X112549361Y-62144679D01*
X112556320Y-62131421D01*
X112583412Y-62086606D01*
X112685975Y-61916946D01*
X112694462Y-61904650D01*
X112849034Y-61707354D01*
X112858949Y-61696163D01*
X113036163Y-61518949D01*
X113047354Y-61509034D01*
X113244650Y-61354462D01*
X113256946Y-61345975D01*
X113471421Y-61216319D01*
X113484680Y-61209361D01*
X113713219Y-61106504D01*
X113727202Y-61101202D01*
X113966467Y-61026643D01*
X113980995Y-61023062D01*
X114227506Y-60977888D01*
X114242359Y-60976084D01*
X114496264Y-60960726D01*
X114503751Y-60960500D01*
X114547595Y-60960500D01*
X155952405Y-60960500D01*
X155996249Y-60960500D01*
X156003736Y-60960726D01*
G37*
%TD.AperFunction*%
%TD*%
M02*
