M48
; DRILL file KiCad 10.0.4 date 2026-09-15T15:33:04
; FORMAT={-:-/ absolute / metric / decimal}
; #@! TF.CreationDate,2026-09-15T15:33:04+02:00
; #@! TF.GenerationSoftware,Kicad,Pcbnew,10.0.4
; #@! TF.FileFunction,Plated,1,4,PTH
FMAT,2
METRIC
; #@! TA.AperFunction,Plated,PTH,ViaDrill
T1C0.300
; #@! TA.AperFunction,Plated,PTH,ComponentDrill
T2C0.300
; #@! TA.AperFunction,Plated,PTH,ComponentDrill
T3C0.400
; #@! TA.AperFunction,Plated,PTH,ComponentDrill
T4C1.000
; #@! TA.AperFunction,Plated,PTH,ComponentDrill
T5C2.200
%
G90
G05
T1
X112.85Y-64.818
X112.85Y-66.843
X112.85Y-68.868
X112.85Y-70.893
X112.85Y-72.918
X112.85Y-74.943
X112.85Y-76.968
X112.85Y-78.993
X112.85Y-81.017
X112.85Y-83.042
X112.85Y-85.067
X112.85Y-87.092
X112.85Y-89.117
X112.85Y-91.142
X112.85Y-93.167
X112.85Y-95.192
X112.891Y-62.796
X112.891Y-97.214
X114.075Y-68.736
X114.075Y-74.736
X114.075Y-80.736
X114.075Y-86.736
X114.075Y-92.736
X114.301Y-61.523
X114.301Y-98.487
X114.83Y-81.75
X115.575Y-77.736
X115.575Y-83.736
X115.575Y-89.736
X116.325Y-61.51
X116.325Y-98.5
X116.51Y-71.34
X116.545Y-80.205
X116.99Y-85.41
X117.075Y-68.736
X117.075Y-86.736
X117.075Y-92.736
X117.54Y-72.4
X118.35Y-61.51
X118.35Y-98.5
X118.49Y-78.58
X118.575Y-65.736
X118.575Y-77.736
X118.575Y-89.736
X118.575Y-95.736
X119.23Y-77.17
X119.84Y-71.28
X120.0Y-79.4
X120.075Y-62.735
X120.075Y-68.736
X120.075Y-92.736
X120.375Y-61.51
X120.375Y-98.5
X120.475Y-84.475
X120.75Y-77.17
X121.31Y-73.23
X121.575Y-77.736
X121.575Y-89.736
X121.85Y-75.64
X122.106Y-66.266
X122.175Y-71.125
X122.395Y-61.797
X122.395Y-64.072
X122.395Y-96.047
X122.395Y-98.322
X122.42Y-62.947
X122.42Y-97.197
X122.9Y-76.425
X123.075Y-68.736
X123.075Y-92.736
X123.5Y-84.475
X124.045Y-66.266
X124.125Y-96.3
X124.125Y-97.325
X124.125Y-98.3
X124.15Y-61.65
X124.15Y-62.675
X124.15Y-63.65
X124.25Y-64.525
X124.35Y-95.395
X124.575Y-89.736
X124.64Y-65.315
X124.733Y-94.474
X124.748Y-66.015
X124.775Y-76.025
X124.875Y-78.725
X124.9Y-82.1
X124.968Y-93.579
X125.01Y-72.52
X125.1Y-86.46
X125.2Y-66.9
X125.49Y-92.512
X125.849Y-67.511
X125.86Y-65.285
X125.93Y-94.592
X125.96Y-85.77
X126.075Y-68.736
X126.075Y-80.736
X126.172Y-93.792
X126.18Y-95.42
X126.222Y-66.16
X126.225Y-64.55
X126.23Y-91.582
X126.35Y-96.3
X126.35Y-97.325
X126.35Y-98.3
X126.375Y-61.65
X126.375Y-62.675
X126.375Y-63.65
X126.567Y-93.055
X126.632Y-68.029
X126.8Y-66.7
X126.825Y-86.736
X126.825Y-89.736
X126.99Y-84.68
X127.0Y-82.375
X127.062Y-90.75
X127.099Y-92.41
X127.575Y-71.736
X127.6Y-66.99
X127.6Y-68.21
X127.75Y-77.91
X127.773Y-74.37
X127.78Y-75.07
X127.883Y-89.928
X127.91Y-91.598
X128.075Y-61.8
X128.075Y-64.075
X128.075Y-96.05
X128.075Y-98.325
X128.1Y-62.95
X128.1Y-97.2
X128.106Y-66.266
X128.35Y-76.5
X128.477Y-68.572
X128.525Y-84.05
X128.544Y-67.174
X128.545Y-87.266
X128.705Y-89.107
X128.732Y-90.777
X129.076Y-74.736
X129.076Y-92.736
X129.101Y-69.196
X129.25Y-75.82
X129.26Y-82.11
X129.319Y-67.689
X129.553Y-89.955
X129.6Y-85.75
X129.735Y-69.83
X129.825Y-87.65
X129.826Y-62.735
X129.963Y-68.333
X129.99Y-84.7
X130.12Y-78.97
X130.25Y-61.51
X130.25Y-98.5
X130.369Y-72.971
X130.576Y-65.736
X130.576Y-95.736
X130.597Y-68.967
X130.74Y-75.79
X130.78Y-82.1
X130.975Y-88.775
X131.106Y-90.266
X131.25Y-83.9
X131.425Y-73.335
X132.076Y-68.736
X132.076Y-92.736
X132.34Y-82.44
X132.395Y-61.772
X132.395Y-64.047
X132.42Y-62.922
X132.42Y-96.022
X132.42Y-98.297
X132.445Y-97.172
X132.58Y-87.8
X132.93Y-74.7
X133.0Y-75.73
X133.1Y-66.975
X133.13Y-78.01
X133.17Y-77.1
X133.175Y-67.825
X133.25Y-93.9
X133.275Y-84.25
X133.35Y-94.9
X133.525Y-66.275
X133.55Y-92.975
X133.576Y-89.736
X133.625Y-79.525
X133.63Y-85.79
X133.65Y-73.3
X133.7Y-68.35
X134.075Y-95.525
X134.08Y-69.98
X134.15Y-96.415
X134.15Y-61.675
X134.15Y-62.7
X134.15Y-63.675
X134.15Y-97.4
X134.15Y-98.425
X134.275Y-64.575
X134.375Y-87.875
X134.375Y-89.025
X134.425Y-66.05
X134.525Y-92.675
X134.525Y-94.1
X134.55Y-68.475
X134.56Y-91.277
X134.56Y-72.15
X134.675Y-65.375
X134.9Y-92.0
X135.15Y-76.575
X135.2Y-67.275
X135.225Y-66.025
X135.3Y-85.8
X135.425Y-92.675
X135.45Y-93.925
X135.6Y-94.6
X135.795Y-81.965
X135.8Y-67.75
X135.85Y-79.525
X135.95Y-91.05
X135.961Y-92.389
X135.975Y-64.825
X136.0Y-89.65
X136.025Y-68.475
X136.125Y-73.125
X136.125Y-95.325
X136.25Y-67.3
X136.275Y-87.125
X136.35Y-96.415
X136.35Y-61.675
X136.35Y-62.7
X136.35Y-63.675
X136.35Y-97.4
X136.35Y-98.425
X136.425Y-75.6
X136.475Y-93.875
X136.79Y-85.46
X136.825Y-91.325
X136.95Y-64.95
X136.95Y-83.225
X137.106Y-90.266
X137.11Y-88.35
X137.15Y-67.1
X137.176Y-93.133
X137.213Y-92.143
X137.232Y-74.266
X137.24Y-78.48
X137.36Y-79.51
X137.446Y-69.344
X137.55Y-65.55
X137.56Y-83.31
X137.6Y-66.45
X137.6Y-88.85
X137.85Y-87.475
X138.075Y-61.775
X138.075Y-64.05
X138.076Y-92.736
X138.1Y-62.925
X138.1Y-96.025
X138.1Y-98.3
X138.125Y-97.175
X138.52Y-83.3
X138.826Y-68.736
X138.95Y-86.525
X139.189Y-88.949
X139.41Y-78.32
X139.515Y-68.953
X139.576Y-90.486
X139.649Y-73.04
X139.68Y-74.93
X140.151Y-68.316
X140.16Y-79.54
X140.245Y-63.266
X140.25Y-61.51
X140.25Y-98.5
X140.25Y-65.736
X140.326Y-95.736
X140.377Y-69.815
X140.474Y-89.909
X140.775Y-84.2
X140.799Y-67.669
X141.014Y-69.179
X141.076Y-74.736
X141.076Y-92.736
X141.125Y-86.425
X141.175Y-85.5
X141.209Y-90.643
X141.3Y-79.195
X141.323Y-89.06
X141.37Y-67.25
X141.64Y-68.552
X141.77Y-75.93
X141.943Y-91.377
X142.057Y-89.794
X142.125Y-81.675
X142.13Y-66.999
X142.16Y-82.85
X142.3Y-68.2
X142.325Y-76.425
X142.325Y-87.525
X142.42Y-61.797
X142.42Y-64.072
X142.42Y-95.972
X142.42Y-98.247
X142.445Y-62.947
X142.445Y-97.122
X142.576Y-71.736
X142.677Y-92.111
X142.791Y-90.529
X143.0Y-66.97
X143.1Y-68.19
X143.106Y-66.266
X143.326Y-77.736
X143.326Y-89.736
X143.394Y-92.842
X143.46Y-84.78
X143.526Y-91.263
X143.63Y-66.608
X143.9Y-67.9
X143.925Y-93.486
X144.075Y-74.05
X144.076Y-68.736
X144.076Y-86.736
X144.125Y-61.625
X144.125Y-62.65
X144.125Y-63.625
X144.149Y-96.742
X144.15Y-97.6
X144.15Y-98.475
X144.16Y-95.85
X144.2Y-64.45
X144.278Y-92.001
X144.278Y-65.96
X144.319Y-94.221
X144.375Y-75.85
X144.471Y-67.491
X144.56Y-95.02
X144.64Y-65.085
X144.826Y-92.647
X145.03Y-80.17
X145.03Y-84.78
X145.161Y-66.801
X145.267Y-93.37
X145.576Y-71.736
X145.576Y-77.736
X145.576Y-89.736
X145.592Y-94.153
X145.676Y-66.026
X145.791Y-94.976
X145.86Y-65.115
X146.275Y-64.425
X146.326Y-83.736
X146.34Y-95.82
X146.349Y-96.742
X146.35Y-61.625
X146.35Y-62.65
X146.35Y-63.625
X146.35Y-97.6
X146.35Y-98.475
X147.076Y-68.736
X147.076Y-86.736
X147.076Y-92.736
X147.385Y-75.445
X147.51Y-80.58
X148.1Y-61.8
X148.1Y-64.075
X148.1Y-95.975
X148.1Y-98.25
X148.125Y-62.95
X148.125Y-97.125
X148.576Y-71.736
X148.576Y-83.736
X148.576Y-89.736
X149.106Y-66.266
X149.96Y-82.58
X150.076Y-62.735
X150.076Y-68.736
X150.076Y-74.736
X150.076Y-86.736
X150.076Y-92.736
X150.125Y-61.51
X150.125Y-98.5
X151.0Y-83.61
X151.576Y-65.736
X151.576Y-71.736
X151.576Y-89.736
X151.576Y-95.736
X152.15Y-61.51
X152.15Y-98.5
X153.076Y-68.736
X153.076Y-74.736
X153.076Y-86.736
X153.076Y-92.736
X153.5Y-82.16
X154.15Y-75.975
X154.175Y-61.51
X154.175Y-98.5
X154.576Y-71.736
X154.576Y-83.736
X154.576Y-89.736
X155.326Y-77.736
X156.076Y-68.736
X156.076Y-74.736
X156.076Y-80.736
X156.076Y-86.736
X156.076Y-92.736
X156.199Y-61.523
X156.199Y-98.487
X157.609Y-62.796
X157.609Y-97.214
X157.65Y-64.818
X157.65Y-66.843
X157.65Y-68.868
X157.65Y-70.893
X157.65Y-72.918
X157.65Y-74.943
X157.65Y-76.968
X157.65Y-78.993
X157.65Y-81.017
X157.65Y-83.042
X157.65Y-85.067
X157.65Y-87.092
X157.65Y-89.117
X157.65Y-91.142
X157.65Y-93.167
X157.65Y-95.192
T2
X122.67Y-74.96
X122.68Y-73.51
X123.0Y-74.21
X123.33Y-73.51
X123.33Y-74.96
X134.406Y-84.022
X134.6Y-74.0
X134.6Y-74.9
X135.042Y-83.386
X135.042Y-84.022
X135.042Y-84.659
X135.05Y-74.45
X135.5Y-74.0
X135.5Y-74.9
X135.678Y-84.022
T3
X113.85Y-64.0
X113.85Y-96.0
X114.333Y-62.833
X114.333Y-65.167
X114.333Y-94.833
X114.333Y-97.167
X115.5Y-62.35
X115.5Y-65.65
X115.5Y-94.35
X115.5Y-97.65
X116.667Y-62.833
X116.667Y-65.167
X116.667Y-94.833
X116.667Y-97.167
X117.15Y-64.0
X117.15Y-96.0
X153.35Y-64.0
X153.35Y-96.0
X153.833Y-62.833
X153.833Y-65.167
X153.833Y-94.833
X153.833Y-97.167
X155.0Y-62.35
X155.0Y-65.65
X155.0Y-94.35
X155.0Y-97.65
X156.167Y-62.833
X156.167Y-65.167
X156.167Y-94.833
X156.167Y-97.167
X156.65Y-64.0
X156.65Y-96.0
T4
X116.5Y-72.4
X116.5Y-74.94
X151.0Y-77.5
X151.0Y-80.04
X151.0Y-82.58
T5
X115.5Y-64.0
X115.5Y-96.0
X155.0Y-64.0
X155.0Y-96.0
M30
