%TF.GenerationSoftware,KiCad,Pcbnew,10.0.4*%
%TF.CreationDate,2026-09-13T23:30:19+02:00*%
%TF.ProjectId,CLK_BOARD,434c4b5f-424f-4415-9244-2e6b69636164,rev?*%
%TF.SameCoordinates,Original*%
%TF.FileFunction,Soldermask,Bot*%
%TF.FilePolarity,Negative*%
%FSLAX46Y46*%
G04 Gerber Fmt 4.6, Leading zero omitted, Abs format (unit mm)*
G04 Created by KiCad (PCBNEW 10.0.4) date 2026-09-13 23:30:19*
%MOMM*%
%LPD*%
G01*
G04 APERTURE LIST*
G04 Aperture macros list*
%AMRoundRect*
0 Rectangle with rounded corners*
0 $1 Rounding radius*
0 $2 $3 $4 $5 $6 $7 $8 $9 X,Y pos of 4 corners*
0 Add a 4 corners polygon primitive as box body*
4,1,4,$2,$3,$4,$5,$6,$7,$8,$9,$2,$3,0*
0 Add four circle primitives for the rounded corners*
1,1,$1+$1,$2,$3*
1,1,$1+$1,$4,$5*
1,1,$1+$1,$6,$7*
1,1,$1+$1,$8,$9*
0 Add four rect primitives between the rounded corners*
20,1,$1+$1,$2,$3,$4,$5,0*
20,1,$1+$1,$4,$5,$6,$7,0*
20,1,$1+$1,$6,$7,$8,$9,0*
20,1,$1+$1,$8,$9,$2,$3,0*%
G04 Aperture macros list end*
%ADD10C,0.000000*%
%ADD11C,0.500000*%
%ADD12R,1.700000X1.700000*%
%ADD13C,1.700000*%
%ADD14RoundRect,0.250000X-0.425000X-1.600000X0.425000X-1.600000X0.425000X1.600000X-0.425000X1.600000X0*%
%ADD15RoundRect,0.250000X0.425000X1.600000X-0.425000X1.600000X-0.425000X-1.600000X0.425000X-1.600000X0*%
%ADD16C,0.700000*%
%ADD17C,4.400000*%
%ADD18RoundRect,0.225000X0.225000X0.250000X-0.225000X0.250000X-0.225000X-0.250000X0.225000X-0.250000X0*%
%ADD19RoundRect,0.225000X-0.017678X0.335876X-0.335876X0.017678X0.017678X-0.335876X0.335876X-0.017678X0*%
%ADD20RoundRect,0.225000X-0.335876X-0.017678X-0.017678X-0.335876X0.335876X0.017678X0.017678X0.335876X0*%
%ADD21RoundRect,0.225000X-0.225000X-0.250000X0.225000X-0.250000X0.225000X0.250000X-0.225000X0.250000X0*%
%ADD22RoundRect,0.225000X0.250000X-0.225000X0.250000X0.225000X-0.250000X0.225000X-0.250000X-0.225000X0*%
%ADD23C,0.450000*%
G04 APERTURE END LIST*
D10*
G36*
X156003736Y-60960726D02*
G01*
X156257638Y-60976084D01*
X156272495Y-60977888D01*
X156519000Y-61023061D01*
X156533536Y-61026644D01*
X156772791Y-61101200D01*
X156786788Y-61106508D01*
X157015319Y-61209361D01*
X157028578Y-61216320D01*
X157135808Y-61281143D01*
X157243045Y-61345970D01*
X157255356Y-61354468D01*
X157452636Y-61509027D01*
X157463844Y-61518957D01*
X157641042Y-61696155D01*
X157650972Y-61707363D01*
X157805527Y-61904637D01*
X157814033Y-61916960D01*
X157943679Y-62131421D01*
X157950638Y-62144680D01*
X158053491Y-62373211D01*
X158058800Y-62387211D01*
X158133354Y-62626461D01*
X158136938Y-62641001D01*
X158182110Y-62887500D01*
X158183915Y-62902364D01*
X158199274Y-63156263D01*
X158199500Y-63163750D01*
X158199500Y-96846249D01*
X158199274Y-96853736D01*
X158183915Y-97107635D01*
X158182110Y-97122499D01*
X158136938Y-97368998D01*
X158133354Y-97383538D01*
X158058800Y-97622788D01*
X158053491Y-97636788D01*
X157950638Y-97865319D01*
X157943679Y-97878578D01*
X157814033Y-98093039D01*
X157805527Y-98105362D01*
X157650972Y-98302636D01*
X157641042Y-98313844D01*
X157463844Y-98491042D01*
X157452636Y-98500972D01*
X157255362Y-98655527D01*
X157243039Y-98664033D01*
X157028578Y-98793679D01*
X157015319Y-98800638D01*
X156786788Y-98903491D01*
X156772788Y-98908800D01*
X156533538Y-98983354D01*
X156518998Y-98986938D01*
X156272499Y-99032110D01*
X156257635Y-99033915D01*
X156003736Y-99049274D01*
X155996249Y-99049500D01*
X114503751Y-99049500D01*
X114496264Y-99049274D01*
X114242364Y-99033915D01*
X114227500Y-99032110D01*
X113981001Y-98986938D01*
X113966461Y-98983354D01*
X113727211Y-98908800D01*
X113713211Y-98903491D01*
X113484680Y-98800638D01*
X113471421Y-98793679D01*
X113256960Y-98664033D01*
X113244637Y-98655527D01*
X113047363Y-98500972D01*
X113036155Y-98491042D01*
X112858957Y-98313844D01*
X112849027Y-98302636D01*
X112694468Y-98105356D01*
X112685970Y-98093045D01*
X112583412Y-97923394D01*
X112556320Y-97878578D01*
X112549361Y-97865319D01*
X112446508Y-97636788D01*
X112441199Y-97622788D01*
X112366645Y-97383538D01*
X112363061Y-97368998D01*
X112317889Y-97122499D01*
X112316084Y-97107635D01*
X112300726Y-96853736D01*
X112300500Y-96846249D01*
X112300500Y-93825305D01*
X113400000Y-93825305D01*
X113403943Y-93887972D01*
X113415708Y-93949650D01*
X113435112Y-94009367D01*
X113461847Y-94066182D01*
X113495492Y-94119198D01*
X113535516Y-94167579D01*
X113581288Y-94210562D01*
X113632087Y-94247469D01*
X113687110Y-94277719D01*
X113745492Y-94300833D01*
X113806309Y-94316449D01*
X113868605Y-94324318D01*
X113931395Y-94324318D01*
X113993691Y-94316449D01*
X114054508Y-94300833D01*
X114112890Y-94277719D01*
X114167913Y-94247469D01*
X114189331Y-94232759D01*
X114189461Y-94232943D01*
X114272729Y-94174298D01*
X114282930Y-94167482D01*
X114363787Y-94116280D01*
X114374316Y-94109970D01*
X114457593Y-94062794D01*
X114468400Y-94057017D01*
X114553908Y-94013976D01*
X114564977Y-94008740D01*
X114652487Y-93969951D01*
X114663829Y-93965253D01*
X114753114Y-93930812D01*
X114764655Y-93926682D01*
X114855567Y-93896648D01*
X114867273Y-93893098D01*
X114959521Y-93867569D01*
X114971434Y-93864585D01*
X115064838Y-93843610D01*
X115076811Y-93841229D01*
X115171170Y-93824855D01*
X115183264Y-93823062D01*
X115278273Y-93811343D01*
X115290485Y-93810141D01*
X115385940Y-93803099D01*
X115398164Y-93802498D01*
X115493887Y-93800150D01*
X115506113Y-93800150D01*
X115601834Y-93802498D01*
X115614058Y-93803099D01*
X115709513Y-93810141D01*
X115721725Y-93811343D01*
X115816734Y-93823062D01*
X115828828Y-93824855D01*
X115923187Y-93841229D01*
X115935160Y-93843610D01*
X116028564Y-93864585D01*
X116040477Y-93867569D01*
X116132725Y-93893098D01*
X116144431Y-93896648D01*
X116235343Y-93926682D01*
X116246884Y-93930812D01*
X116336169Y-93965253D01*
X116347511Y-93969951D01*
X116435021Y-94008740D01*
X116446090Y-94013976D01*
X116531598Y-94057017D01*
X116542405Y-94062794D01*
X116625682Y-94109970D01*
X116636211Y-94116280D01*
X116717068Y-94167482D01*
X116727269Y-94174298D01*
X116805513Y-94229404D01*
X116815386Y-94236726D01*
X116890833Y-94295606D01*
X116900302Y-94303377D01*
X116972790Y-94365905D01*
X116981866Y-94374132D01*
X117051209Y-94440152D01*
X117059846Y-94448789D01*
X117125866Y-94518132D01*
X117134093Y-94527208D01*
X117196621Y-94599696D01*
X117204392Y-94609165D01*
X117263272Y-94684612D01*
X117270594Y-94694485D01*
X117325700Y-94772729D01*
X117332516Y-94782930D01*
X117383718Y-94863787D01*
X117390028Y-94874316D01*
X117437204Y-94957593D01*
X117442981Y-94968400D01*
X117486022Y-95053908D01*
X117491258Y-95064977D01*
X117530047Y-95152487D01*
X117534745Y-95163829D01*
X117569186Y-95253114D01*
X117573316Y-95264655D01*
X117603350Y-95355567D01*
X117606900Y-95367273D01*
X117632429Y-95459521D01*
X117635413Y-95471434D01*
X117656388Y-95564838D01*
X117658769Y-95576811D01*
X117675143Y-95671170D01*
X117676936Y-95683264D01*
X117688655Y-95778273D01*
X117689857Y-95790485D01*
X117696897Y-95885922D01*
X117697500Y-95898200D01*
X117699849Y-95993848D01*
X117699849Y-96006150D01*
X117697500Y-96101798D01*
X117696897Y-96114076D01*
X117689857Y-96209513D01*
X117688655Y-96221725D01*
X117676936Y-96316734D01*
X117675143Y-96328828D01*
X117658769Y-96423187D01*
X117656388Y-96435160D01*
X117635413Y-96528564D01*
X117632429Y-96540477D01*
X117606900Y-96632725D01*
X117603350Y-96644431D01*
X117573316Y-96735343D01*
X117569186Y-96746884D01*
X117534745Y-96836169D01*
X117530047Y-96847511D01*
X117491258Y-96935021D01*
X117486022Y-96946090D01*
X117442981Y-97031598D01*
X117437204Y-97042405D01*
X117390028Y-97125682D01*
X117383706Y-97136230D01*
X117354405Y-97182504D01*
X117324209Y-97237557D01*
X117301152Y-97295961D01*
X117285597Y-97356795D01*
X117277789Y-97419098D01*
X117277851Y-97481888D01*
X117285782Y-97544176D01*
X117301458Y-97604978D01*
X117324630Y-97663337D01*
X117354934Y-97718330D01*
X117391891Y-97769092D01*
X117434920Y-97814822D01*
X117483340Y-97854799D01*
X117536389Y-97888391D01*
X117593230Y-97915070D01*
X117652967Y-97934414D01*
X117714657Y-97946119D01*
X117776833Y-97950000D01*
X152723166Y-97950000D01*
X152785833Y-97946057D01*
X152847511Y-97934292D01*
X152907228Y-97914888D01*
X152964043Y-97888153D01*
X153017059Y-97854508D01*
X153065440Y-97814484D01*
X153108423Y-97768712D01*
X153145330Y-97717913D01*
X153175580Y-97662890D01*
X153198694Y-97604508D01*
X153214310Y-97543691D01*
X153222179Y-97481395D01*
X153222179Y-97418605D01*
X153214310Y-97356309D01*
X153198694Y-97295492D01*
X153175580Y-97237110D01*
X153145594Y-97182504D01*
X153116292Y-97136230D01*
X153109970Y-97125682D01*
X153062794Y-97042405D01*
X153057017Y-97031598D01*
X153013976Y-96946090D01*
X153008740Y-96935021D01*
X152969951Y-96847511D01*
X152965253Y-96836169D01*
X152930812Y-96746884D01*
X152926682Y-96735343D01*
X152896648Y-96644431D01*
X152893098Y-96632725D01*
X152867569Y-96540477D01*
X152864585Y-96528564D01*
X152843610Y-96435160D01*
X152841229Y-96423187D01*
X152824855Y-96328828D01*
X152823062Y-96316734D01*
X152811343Y-96221725D01*
X152810141Y-96209513D01*
X152803099Y-96114058D01*
X152802498Y-96101834D01*
X152800150Y-96006112D01*
X152800150Y-95993887D01*
X152802498Y-95898164D01*
X152803099Y-95885940D01*
X152810141Y-95790485D01*
X152811343Y-95778273D01*
X152823062Y-95683264D01*
X152824855Y-95671170D01*
X152841229Y-95576811D01*
X152843610Y-95564838D01*
X152864585Y-95471434D01*
X152867569Y-95459521D01*
X152893098Y-95367273D01*
X152896648Y-95355567D01*
X152926682Y-95264655D01*
X152930812Y-95253114D01*
X152965253Y-95163829D01*
X152969951Y-95152487D01*
X153008740Y-95064977D01*
X153013976Y-95053908D01*
X153057017Y-94968400D01*
X153062794Y-94957593D01*
X153109970Y-94874316D01*
X153116280Y-94863787D01*
X153167482Y-94782930D01*
X153174298Y-94772729D01*
X153229404Y-94694485D01*
X153236726Y-94684612D01*
X153295606Y-94609165D01*
X153303377Y-94599696D01*
X153365905Y-94527208D01*
X153374132Y-94518132D01*
X153440152Y-94448789D01*
X153448789Y-94440152D01*
X153518132Y-94374132D01*
X153527208Y-94365905D01*
X153599696Y-94303377D01*
X153609165Y-94295606D01*
X153684612Y-94236726D01*
X153694485Y-94229404D01*
X153772729Y-94174298D01*
X153782930Y-94167482D01*
X153863787Y-94116280D01*
X153874316Y-94109970D01*
X153957593Y-94062794D01*
X153968400Y-94057017D01*
X154053908Y-94013976D01*
X154064977Y-94008740D01*
X154152487Y-93969951D01*
X154163829Y-93965253D01*
X154253114Y-93930812D01*
X154264655Y-93926682D01*
X154355567Y-93896648D01*
X154367273Y-93893098D01*
X154459521Y-93867569D01*
X154471434Y-93864585D01*
X154564838Y-93843610D01*
X154576811Y-93841229D01*
X154671170Y-93824855D01*
X154683264Y-93823062D01*
X154778273Y-93811343D01*
X154790485Y-93810141D01*
X154885940Y-93803099D01*
X154898164Y-93802498D01*
X154993887Y-93800150D01*
X155006113Y-93800150D01*
X155101834Y-93802498D01*
X155114058Y-93803099D01*
X155209513Y-93810141D01*
X155221725Y-93811343D01*
X155316734Y-93823062D01*
X155328828Y-93824855D01*
X155423187Y-93841229D01*
X155435160Y-93843610D01*
X155528564Y-93864585D01*
X155540477Y-93867569D01*
X155632725Y-93893098D01*
X155644431Y-93896648D01*
X155735343Y-93926682D01*
X155746884Y-93930812D01*
X155836169Y-93965253D01*
X155847511Y-93969951D01*
X155935021Y-94008740D01*
X155946090Y-94013976D01*
X156031598Y-94057017D01*
X156042405Y-94062794D01*
X156125682Y-94109970D01*
X156136211Y-94116280D01*
X156217068Y-94167482D01*
X156227269Y-94174298D01*
X156310538Y-94232943D01*
X156310821Y-94232539D01*
X156354969Y-94261149D01*
X156411527Y-94288422D01*
X156471057Y-94308393D01*
X156532620Y-94320744D01*
X156595247Y-94325282D01*
X156657948Y-94321936D01*
X156719735Y-94310757D01*
X156779634Y-94291922D01*
X156836701Y-94265728D01*
X156890034Y-94232589D01*
X156938793Y-94193027D01*
X156982209Y-94147665D01*
X157019598Y-94097220D01*
X157050369Y-94042486D01*
X157074038Y-93984327D01*
X157090231Y-93923661D01*
X157098692Y-93861443D01*
X157100000Y-93825305D01*
X157100000Y-66174693D01*
X157096057Y-66112026D01*
X157084292Y-66050348D01*
X157064888Y-65990631D01*
X157038153Y-65933816D01*
X157004508Y-65880800D01*
X156964484Y-65832419D01*
X156918712Y-65789436D01*
X156867913Y-65752529D01*
X156812890Y-65722279D01*
X156754508Y-65699165D01*
X156693691Y-65683549D01*
X156631395Y-65675680D01*
X156568605Y-65675680D01*
X156506309Y-65683549D01*
X156445492Y-65699165D01*
X156387110Y-65722279D01*
X156332087Y-65752529D01*
X156310668Y-65767240D01*
X156310538Y-65767056D01*
X156227269Y-65825700D01*
X156217068Y-65832516D01*
X156136211Y-65883718D01*
X156125682Y-65890028D01*
X156042405Y-65937204D01*
X156031598Y-65942981D01*
X155946090Y-65986022D01*
X155935021Y-65991258D01*
X155847511Y-66030047D01*
X155836169Y-66034745D01*
X155746884Y-66069186D01*
X155735343Y-66073316D01*
X155644431Y-66103350D01*
X155632725Y-66106900D01*
X155540477Y-66132429D01*
X155528564Y-66135413D01*
X155435160Y-66156388D01*
X155423187Y-66158769D01*
X155328828Y-66175143D01*
X155316734Y-66176936D01*
X155221725Y-66188655D01*
X155209513Y-66189857D01*
X155114076Y-66196897D01*
X155101798Y-66197500D01*
X155006151Y-66199849D01*
X154993849Y-66199849D01*
X154898200Y-66197500D01*
X154885922Y-66196897D01*
X154790485Y-66189857D01*
X154778273Y-66188655D01*
X154683264Y-66176936D01*
X154671170Y-66175143D01*
X154576811Y-66158769D01*
X154564838Y-66156388D01*
X154471434Y-66135413D01*
X154459521Y-66132429D01*
X154367273Y-66106900D01*
X154355567Y-66103350D01*
X154264655Y-66073316D01*
X154253114Y-66069186D01*
X154163829Y-66034745D01*
X154152487Y-66030047D01*
X154064977Y-65991258D01*
X154053908Y-65986022D01*
X153968400Y-65942981D01*
X153957593Y-65937204D01*
X153874316Y-65890028D01*
X153863787Y-65883718D01*
X153782930Y-65832516D01*
X153772729Y-65825700D01*
X153694485Y-65770594D01*
X153684612Y-65763272D01*
X153609165Y-65704392D01*
X153599696Y-65696621D01*
X153527208Y-65634093D01*
X153518132Y-65625866D01*
X153448789Y-65559846D01*
X153440152Y-65551209D01*
X153374132Y-65481866D01*
X153365905Y-65472790D01*
X153303377Y-65400302D01*
X153295606Y-65390833D01*
X153236726Y-65315386D01*
X153229404Y-65305513D01*
X153174298Y-65227269D01*
X153167482Y-65217068D01*
X153116280Y-65136211D01*
X153109970Y-65125682D01*
X153062794Y-65042405D01*
X153057017Y-65031598D01*
X153013976Y-64946090D01*
X153008740Y-64935021D01*
X152969951Y-64847511D01*
X152965253Y-64836169D01*
X152930812Y-64746884D01*
X152926682Y-64735343D01*
X152896648Y-64644431D01*
X152893098Y-64632725D01*
X152867569Y-64540477D01*
X152864585Y-64528564D01*
X152843610Y-64435160D01*
X152841229Y-64423187D01*
X152824855Y-64328828D01*
X152823062Y-64316734D01*
X152811343Y-64221725D01*
X152810141Y-64209513D01*
X152803099Y-64114058D01*
X152802498Y-64101834D01*
X152800150Y-64006112D01*
X152800150Y-63993887D01*
X152802498Y-63898164D01*
X152803099Y-63885940D01*
X152810141Y-63790485D01*
X152811343Y-63778273D01*
X152823062Y-63683264D01*
X152824855Y-63671170D01*
X152841229Y-63576811D01*
X152843610Y-63564838D01*
X152864585Y-63471434D01*
X152867569Y-63459521D01*
X152893098Y-63367273D01*
X152896648Y-63355567D01*
X152926682Y-63264655D01*
X152930812Y-63253114D01*
X152965253Y-63163829D01*
X152969951Y-63152487D01*
X153008740Y-63064977D01*
X153013976Y-63053908D01*
X153057017Y-62968400D01*
X153062794Y-62957593D01*
X153109970Y-62874316D01*
X153116274Y-62863797D01*
X153139262Y-62827496D01*
X153169457Y-62772442D01*
X153192514Y-62714038D01*
X153208069Y-62653205D01*
X153215877Y-62590902D01*
X153215815Y-62528112D01*
X153207884Y-62465824D01*
X153192208Y-62405022D01*
X153169036Y-62346663D01*
X153138732Y-62291669D01*
X153101774Y-62240907D01*
X153058746Y-62195178D01*
X153010326Y-62155201D01*
X152957277Y-62121609D01*
X152900436Y-62094930D01*
X152840699Y-62075586D01*
X152779009Y-62063881D01*
X152716833Y-62060000D01*
X117783166Y-62060000D01*
X117720499Y-62063943D01*
X117658821Y-62075708D01*
X117599104Y-62095112D01*
X117542289Y-62121847D01*
X117489273Y-62155492D01*
X117440892Y-62195516D01*
X117397909Y-62241288D01*
X117361002Y-62292087D01*
X117330752Y-62347110D01*
X117307638Y-62405492D01*
X117292022Y-62466309D01*
X117284153Y-62528605D01*
X117284153Y-62591395D01*
X117292022Y-62653691D01*
X117307638Y-62714508D01*
X117330752Y-62772890D01*
X117360737Y-62827496D01*
X117383724Y-62863797D01*
X117390028Y-62874316D01*
X117437204Y-62957593D01*
X117442981Y-62968400D01*
X117486022Y-63053908D01*
X117491258Y-63064977D01*
X117530047Y-63152487D01*
X117534745Y-63163829D01*
X117569186Y-63253114D01*
X117573316Y-63264655D01*
X117603350Y-63355567D01*
X117606900Y-63367273D01*
X117632429Y-63459521D01*
X117635413Y-63471434D01*
X117656388Y-63564838D01*
X117658769Y-63576811D01*
X117675143Y-63671170D01*
X117676936Y-63683264D01*
X117688655Y-63778273D01*
X117689857Y-63790485D01*
X117696897Y-63885922D01*
X117697500Y-63898200D01*
X117699849Y-63993848D01*
X117699849Y-64006150D01*
X117697500Y-64101798D01*
X117696897Y-64114076D01*
X117689857Y-64209513D01*
X117688655Y-64221725D01*
X117676936Y-64316734D01*
X117675143Y-64328828D01*
X117658769Y-64423187D01*
X117656388Y-64435160D01*
X117635413Y-64528564D01*
X117632429Y-64540477D01*
X117606900Y-64632725D01*
X117603350Y-64644431D01*
X117573316Y-64735343D01*
X117569186Y-64746884D01*
X117534745Y-64836169D01*
X117530047Y-64847511D01*
X117491258Y-64935021D01*
X117486022Y-64946090D01*
X117442981Y-65031598D01*
X117437204Y-65042405D01*
X117390028Y-65125682D01*
X117383718Y-65136211D01*
X117332516Y-65217068D01*
X117325700Y-65227269D01*
X117270594Y-65305513D01*
X117263272Y-65315386D01*
X117204392Y-65390833D01*
X117196621Y-65400302D01*
X117134093Y-65472790D01*
X117125866Y-65481866D01*
X117059846Y-65551209D01*
X117051209Y-65559846D01*
X116981866Y-65625866D01*
X116972790Y-65634093D01*
X116900302Y-65696621D01*
X116890833Y-65704392D01*
X116815386Y-65763272D01*
X116805513Y-65770594D01*
X116727269Y-65825700D01*
X116717068Y-65832516D01*
X116636211Y-65883718D01*
X116625682Y-65890028D01*
X116542405Y-65937204D01*
X116531598Y-65942981D01*
X116446090Y-65986022D01*
X116435021Y-65991258D01*
X116347511Y-66030047D01*
X116336169Y-66034745D01*
X116246884Y-66069186D01*
X116235343Y-66073316D01*
X116144431Y-66103350D01*
X116132725Y-66106900D01*
X116040477Y-66132429D01*
X116028564Y-66135413D01*
X115935160Y-66156388D01*
X115923187Y-66158769D01*
X115828828Y-66175143D01*
X115816734Y-66176936D01*
X115721725Y-66188655D01*
X115709513Y-66189857D01*
X115614076Y-66196897D01*
X115601798Y-66197500D01*
X115506151Y-66199849D01*
X115493849Y-66199849D01*
X115398200Y-66197500D01*
X115385922Y-66196897D01*
X115290485Y-66189857D01*
X115278273Y-66188655D01*
X115183264Y-66176936D01*
X115171170Y-66175143D01*
X115076811Y-66158769D01*
X115064838Y-66156388D01*
X114971434Y-66135413D01*
X114959521Y-66132429D01*
X114867273Y-66106900D01*
X114855567Y-66103350D01*
X114764655Y-66073316D01*
X114753114Y-66069186D01*
X114663829Y-66034745D01*
X114652487Y-66030047D01*
X114564977Y-65991258D01*
X114553908Y-65986022D01*
X114468400Y-65942981D01*
X114457593Y-65937204D01*
X114374316Y-65890028D01*
X114363787Y-65883718D01*
X114282930Y-65832516D01*
X114272729Y-65825700D01*
X114189461Y-65767056D01*
X114189169Y-65767470D01*
X114145346Y-65739026D01*
X114088808Y-65711712D01*
X114029292Y-65691699D01*
X113967737Y-65679303D01*
X113905114Y-65674719D01*
X113842411Y-65678021D01*
X113780615Y-65689155D01*
X113720702Y-65707946D01*
X113663617Y-65734099D01*
X113610260Y-65767200D01*
X113561472Y-65806727D01*
X113518023Y-65852057D01*
X113480598Y-65902476D01*
X113449788Y-65957187D01*
X113426077Y-66015329D01*
X113409840Y-66075984D01*
X113401334Y-66138195D01*
X113400000Y-66174693D01*
X113400000Y-93825305D01*
X112300500Y-93825305D01*
X112300500Y-78890519D01*
X112300500Y-77930521D01*
X112300500Y-74836215D01*
X112300500Y-73173561D01*
X112300500Y-66174693D01*
X112300500Y-63163750D01*
X112300726Y-63156263D01*
X112316084Y-62902364D01*
X112317889Y-62887500D01*
X112354053Y-62690160D01*
X112363062Y-62640995D01*
X112366645Y-62626461D01*
X112441202Y-62387202D01*
X112446504Y-62373219D01*
X112549361Y-62144679D01*
X112556320Y-62131421D01*
X112583412Y-62086606D01*
X112685975Y-61916946D01*
X112694462Y-61904650D01*
X112849034Y-61707354D01*
X112858949Y-61696163D01*
X113036163Y-61518949D01*
X113047354Y-61509034D01*
X113244650Y-61354462D01*
X113256946Y-61345975D01*
X113471421Y-61216319D01*
X113484680Y-61209361D01*
X113713219Y-61106504D01*
X113727202Y-61101202D01*
X113966467Y-61026643D01*
X113980995Y-61023062D01*
X114227506Y-60977888D01*
X114242359Y-60976084D01*
X114496264Y-60960726D01*
X114503751Y-60960500D01*
X114547595Y-60960500D01*
X155952405Y-60960500D01*
X155996249Y-60960500D01*
X156003736Y-60960726D01*
G37*
D11*
%TO.C,U1*%
X123330000Y-74960000D03*
X123330000Y-73510000D03*
X123000000Y-74210000D03*
X122680000Y-73510000D03*
X122670000Y-74960000D03*
%TD*%
D12*
%TO.C,J5*%
X151000000Y-77500000D03*
D13*
X151000000Y-80040000D03*
X151000000Y-82580000D03*
%TD*%
D14*
%TO.C,J8*%
X148075000Y-97000000D03*
X142425000Y-97000000D03*
%TD*%
D15*
%TO.C,J2*%
X122425000Y-63010000D03*
X128075000Y-63010000D03*
%TD*%
D11*
%TO.C,U3*%
X135678403Y-84022153D03*
X135042007Y-83385757D03*
X135042007Y-84022153D03*
X135042007Y-84658549D03*
X134405611Y-84022153D03*
%TD*%
D12*
%TO.C,J1*%
X116500000Y-72400000D03*
D13*
X116500000Y-74940000D03*
%TD*%
D16*
%TO.C,H3*%
X153350000Y-64000000D03*
X153833274Y-62833274D03*
X153833274Y-65166726D03*
X155000000Y-62350000D03*
D17*
X155000000Y-64000000D03*
D16*
X155000000Y-65650000D03*
X156166726Y-62833274D03*
X156166726Y-65166726D03*
X156650000Y-64000000D03*
%TD*%
D14*
%TO.C,J7*%
X138075000Y-97000000D03*
X132425000Y-97000000D03*
%TD*%
D16*
%TO.C,H2*%
X113850000Y-96000000D03*
X114333274Y-94833274D03*
X114333274Y-97166726D03*
X115500000Y-94350000D03*
D17*
X115500000Y-96000000D03*
D16*
X115500000Y-97650000D03*
X116666726Y-94833274D03*
X116666726Y-97166726D03*
X117150000Y-96000000D03*
%TD*%
D15*
%TO.C,J4*%
X142425000Y-63010000D03*
X148075000Y-63010000D03*
%TD*%
D14*
%TO.C,J6*%
X128075000Y-97000000D03*
X122425000Y-97000000D03*
%TD*%
D16*
%TO.C,H1*%
X113850000Y-64000000D03*
X114333274Y-62833274D03*
X114333274Y-65166726D03*
X115500000Y-62350000D03*
D17*
X115500000Y-64000000D03*
D16*
X115500000Y-65650000D03*
X116666726Y-62833274D03*
X116666726Y-65166726D03*
X117150000Y-64000000D03*
%TD*%
D11*
%TO.C,U2*%
X134600000Y-74000000D03*
X134600000Y-74900000D03*
X135050000Y-74450000D03*
X135500000Y-74000000D03*
X135500000Y-74900000D03*
%TD*%
D16*
%TO.C,H4*%
X153350000Y-96000000D03*
X153833274Y-94833274D03*
X153833274Y-97166726D03*
X155000000Y-94350000D03*
D17*
X155000000Y-96000000D03*
D16*
X155000000Y-97650000D03*
X156166726Y-94833274D03*
X156166726Y-97166726D03*
X156650000Y-96000000D03*
%TD*%
D15*
%TO.C,J3*%
X132425000Y-63010000D03*
X138075000Y-63010000D03*
%TD*%
D18*
%TO.C,C14*%
X139555000Y-79520000D03*
X138005000Y-79520000D03*
%TD*%
D19*
%TO.C,C20*%
X133176826Y-86225677D03*
X132080810Y-87321693D03*
%TD*%
D20*
%TO.C,C19*%
X137240000Y-85910000D03*
X138336016Y-87006016D03*
%TD*%
D21*
%TO.C,C10*%
X138135000Y-74270000D03*
X139685000Y-74270000D03*
%TD*%
D22*
%TO.C,C9*%
X134750000Y-71525000D03*
X134750000Y-69975000D03*
%TD*%
D23*
X157650000Y-68867837D03*
X118350061Y-61510000D03*
X150125000Y-98500000D03*
X157650000Y-76967591D03*
X120374999Y-61510000D03*
X157650000Y-93167100D03*
X157650000Y-64817960D03*
X112850000Y-93167100D03*
X157650000Y-87092284D03*
X112850000Y-81017468D03*
X112850000Y-68867836D03*
X112850000Y-70892775D03*
X156199280Y-61522507D03*
X157650000Y-70892775D03*
X112850000Y-74942652D03*
X118350061Y-98500000D03*
X152149938Y-98500000D03*
X114300718Y-61522507D03*
X150125000Y-61510000D03*
X112850000Y-83042407D03*
X112850000Y-76967591D03*
X157650000Y-95192038D03*
X112891119Y-97213858D03*
X157650000Y-66842898D03*
X152149938Y-61510000D03*
X157650000Y-91142161D03*
X140249999Y-61510000D03*
X157650000Y-78992530D03*
X114300718Y-98487491D03*
X157608879Y-62796141D03*
X112850000Y-66842898D03*
X157650000Y-85067345D03*
X112850000Y-95192039D03*
X157650000Y-89117223D03*
X112850000Y-85067346D03*
X112891119Y-62796140D03*
X157650000Y-72917714D03*
X157650000Y-74942653D03*
X116325122Y-98500000D03*
X112850000Y-91142162D03*
X130250000Y-98500000D03*
X154174877Y-61510000D03*
X157650000Y-83042407D03*
X112850000Y-89117223D03*
X120374999Y-98500000D03*
X112850000Y-78992530D03*
X112850000Y-64817959D03*
X116325122Y-61510000D03*
X157608879Y-97213857D03*
X156199280Y-98487491D03*
X112850000Y-72917714D03*
X140249999Y-98500000D03*
X130249999Y-61510000D03*
X157650000Y-81017468D03*
X154174877Y-98500000D03*
X112850000Y-87092284D03*
M02*
