%TF.GenerationSoftware,KiCad,Pcbnew,10.0.4*%
%TF.CreationDate,2026-09-15T15:31:32+02:00*%
%TF.ProjectId,CLK_BOARD,434c4b5f-424f-4415-9244-2e6b69636164,rev?*%
%TF.SameCoordinates,Original*%
%TF.FileFunction,Paste,Top*%
%TF.FilePolarity,Positive*%
%FSLAX46Y46*%
G04 Gerber Fmt 4.6, Leading zero omitted, Abs format (unit mm)*
G04 Created by KiCad (PCBNEW 10.0.4) date 2026-09-15 15:31:32*
%MOMM*%
%LPD*%
G01*
G04 APERTURE LIST*
G04 Aperture macros list*
%AMRoundRect*
0 Rectangle with rounded corners*
0 $1 Rounding radius*
0 $2 $3 $4 $5 $6 $7 $8 $9 X,Y pos of 4 corners*
0 Add a 4 corners polygon primitive as box body*
4,1,4,$2,$3,$4,$5,$6,$7,$8,$9,$2,$3,0*
0 Add four circle primitives for the rounded corners*
1,1,$1+$1,$2,$3*
1,1,$1+$1,$4,$5*
1,1,$1+$1,$6,$7*
1,1,$1+$1,$8,$9*
0 Add four rect primitives between the rounded corners*
20,1,$1+$1,$2,$3,$4,$5,0*
20,1,$1+$1,$4,$5,$6,$7,0*
20,1,$1+$1,$6,$7,$8,$9,0*
20,1,$1+$1,$8,$9,$2,$3,0*%
%AMRotRect*
0 Rectangle, with rotation*
0 The origin of the aperture is its center*
0 $1 length*
0 $2 width*
0 $3 Rotation angle, in degrees counterclockwise*
0 Add horizontal line*
21,1,$1,$2,0,0,$3*%
G04 Aperture macros list end*
%ADD10C,0.000000*%
%ADD11RoundRect,0.225000X-0.250000X0.225000X-0.250000X-0.225000X0.250000X-0.225000X0.250000X0.225000X0*%
%ADD12RoundRect,0.140000X-0.219203X-0.021213X-0.021213X-0.219203X0.219203X0.021213X0.021213X0.219203X0*%
%ADD13RoundRect,0.140000X-0.170000X0.140000X-0.170000X-0.140000X0.170000X-0.140000X0.170000X0.140000X0*%
%ADD14O,0.599999X0.249999*%
%ADD15R,1.200000X2.000001*%
%ADD16RoundRect,0.140000X-0.140000X-0.170000X0.140000X-0.170000X0.140000X0.170000X-0.140000X0.170000X0*%
%ADD17RoundRect,0.140000X0.170000X-0.140000X0.170000X0.140000X-0.170000X0.140000X-0.170000X-0.140000X0*%
%ADD18RoundRect,0.135000X-0.035355X0.226274X-0.226274X0.035355X0.035355X-0.226274X0.226274X-0.035355X0*%
%ADD19RoundRect,0.225000X0.225000X0.250000X-0.225000X0.250000X-0.225000X-0.250000X0.225000X-0.250000X0*%
%ADD20RoundRect,0.200000X0.200000X0.275000X-0.200000X0.275000X-0.200000X-0.275000X0.200000X-0.275000X0*%
%ADD21RotRect,0.254000X0.609600X315.000000*%
%ADD22RotRect,0.254000X0.609600X225.000000*%
%ADD23RoundRect,0.200000X-0.200000X-0.275000X0.200000X-0.275000X0.200000X0.275000X-0.200000X0.275000X0*%
%ADD24RoundRect,0.225000X-0.225000X-0.250000X0.225000X-0.250000X0.225000X0.250000X-0.225000X0.250000X0*%
%ADD25RoundRect,0.225000X0.250000X-0.225000X0.250000X0.225000X-0.250000X0.225000X-0.250000X-0.225000X0*%
%ADD26RoundRect,0.135000X-0.135000X-0.185000X0.135000X-0.185000X0.135000X0.185000X-0.135000X0.185000X0*%
%ADD27RoundRect,0.225000X-0.335876X-0.017678X-0.017678X-0.335876X0.335876X0.017678X0.017678X0.335876X0*%
%ADD28RoundRect,0.135000X0.226274X0.035355X0.035355X0.226274X-0.226274X-0.035355X-0.035355X-0.226274X0*%
%ADD29RoundRect,0.135000X0.035355X-0.226274X0.226274X-0.035355X-0.035355X0.226274X-0.226274X0.035355X0*%
%ADD30RoundRect,0.135000X0.185000X-0.135000X0.185000X0.135000X-0.185000X0.135000X-0.185000X-0.135000X0*%
%ADD31RoundRect,0.140000X0.219203X0.021213X0.021213X0.219203X-0.219203X-0.021213X-0.021213X-0.219203X0*%
%ADD32RoundRect,0.140000X0.021213X-0.219203X0.219203X-0.021213X-0.021213X0.219203X-0.219203X0.021213X0*%
%ADD33O,0.249999X0.599999*%
%ADD34R,0.762000X1.295400*%
%ADD35R,1.295400X0.939800*%
%ADD36RoundRect,0.140000X-0.021213X0.219203X-0.219203X0.021213X0.021213X-0.219203X0.219203X-0.021213X0*%
%ADD37RoundRect,0.135000X-0.185000X0.135000X-0.185000X-0.135000X0.185000X-0.135000X0.185000X0.135000X0*%
%ADD38RoundRect,0.200000X0.275000X-0.200000X0.275000X0.200000X-0.275000X0.200000X-0.275000X-0.200000X0*%
%ADD39R,0.609600X0.254000*%
%ADD40R,0.254000X0.609600*%
%ADD41RoundRect,0.200000X-0.275000X0.200000X-0.275000X-0.200000X0.275000X-0.200000X0.275000X0.200000X0*%
%ADD42RoundRect,0.135000X0.135000X0.185000X-0.135000X0.185000X-0.135000X-0.185000X0.135000X-0.185000X0*%
%ADD43RoundRect,0.135000X-0.226274X-0.035355X-0.035355X-0.226274X0.226274X0.035355X0.035355X0.226274X0*%
G04 APERTURE END LIST*
D10*
%TO.C,U1*%
G36*
X123562999Y-75124502D02*
G01*
X122436999Y-75124502D01*
X122436999Y-73335501D01*
X123562999Y-73335501D01*
X123562999Y-75124502D01*
G37*
%TD*%
D11*
%TO.C,C12*%
X145020000Y-82595000D03*
X145020000Y-84145000D03*
%TD*%
D12*
%TO.C,C15*%
X130800000Y-70032391D03*
X131478822Y-70711213D03*
%TD*%
D13*
%TO.C,C41*%
X129990000Y-83240000D03*
X129990000Y-84200000D03*
%TD*%
D14*
%TO.C,U1*%
X124150000Y-75230003D03*
X124150000Y-74730002D03*
X124150000Y-74230003D03*
X124150000Y-73730004D03*
X124150000Y-73230002D03*
X121850000Y-73230002D03*
X121850000Y-73730004D03*
X121850000Y-74230003D03*
X121850000Y-74730002D03*
X121850000Y-75230003D03*
D15*
X123000000Y-74230000D03*
%TD*%
D16*
%TO.C,C25*%
X140760000Y-82820000D03*
X141720000Y-82820000D03*
%TD*%
D17*
%TO.C,C3*%
X127000000Y-74460000D03*
X127000000Y-73500000D03*
%TD*%
D18*
%TO.C,R14*%
X131970000Y-86670000D03*
X131248752Y-87391248D03*
%TD*%
D19*
%TO.C,C18*%
X132335000Y-81435000D03*
X130785000Y-81435000D03*
%TD*%
D20*
%TO.C,R5*%
X145030000Y-81130000D03*
X143380000Y-81130000D03*
%TD*%
D16*
%TO.C,C24*%
X140210000Y-84980000D03*
X141170000Y-84980000D03*
%TD*%
D11*
%TO.C,C1*%
X119230000Y-74975000D03*
X119230000Y-76525000D03*
%TD*%
D13*
%TO.C,C40*%
X126990000Y-83240000D03*
X126990000Y-84200000D03*
%TD*%
D21*
%TO.C,U3*%
X136564160Y-83564160D03*
X136209440Y-83209440D03*
X135854720Y-82854720D03*
X135500000Y-82500000D03*
D22*
X134584014Y-82500000D03*
X134229294Y-82854720D03*
X133874574Y-83209440D03*
X133519854Y-83564160D03*
D21*
X133519854Y-84480146D03*
X133874574Y-84834866D03*
X134229294Y-85189586D03*
X134584014Y-85544306D03*
D22*
X135500000Y-85544306D03*
X135854720Y-85189586D03*
X136209440Y-84834866D03*
X136564160Y-84480146D03*
%TD*%
D23*
%TO.C,R7*%
X130685000Y-79915000D03*
X132335000Y-79915000D03*
%TD*%
D24*
%TO.C,C4*%
X126225000Y-75750000D03*
X127775000Y-75750000D03*
%TD*%
D25*
%TO.C,C6*%
X119840000Y-73475000D03*
X119840000Y-71925000D03*
%TD*%
D11*
%TO.C,C39*%
X153500000Y-79975000D03*
X153500000Y-81525000D03*
%TD*%
D25*
%TO.C,C38*%
X153500000Y-77525000D03*
X153500000Y-75975000D03*
%TD*%
%TO.C,C7*%
X129250000Y-78025000D03*
X129250000Y-76475000D03*
%TD*%
D26*
%TO.C,R12*%
X143140000Y-79720000D03*
X144160000Y-79720000D03*
%TD*%
D27*
%TO.C,C21*%
X136941992Y-81771992D03*
X138038008Y-82868008D03*
%TD*%
D26*
%TO.C,R20*%
X127980000Y-83240000D03*
X129000000Y-83240000D03*
%TD*%
D16*
%TO.C,C33*%
X136170000Y-88850001D03*
X137130000Y-88850001D03*
%TD*%
D12*
%TO.C,C37*%
X139485589Y-88071178D03*
X140164411Y-88750000D03*
%TD*%
D23*
%TO.C,R3*%
X122175000Y-72100000D03*
X123825000Y-72100000D03*
%TD*%
D28*
%TO.C,R6*%
X132850624Y-72051837D03*
X132129376Y-71330589D03*
%TD*%
D29*
%TO.C,R11*%
X137268457Y-72060953D03*
X137989705Y-71339705D03*
%TD*%
D30*
%TO.C,R1*%
X126000000Y-74519998D03*
X126000000Y-73500000D03*
%TD*%
D31*
%TO.C,C32*%
X130608787Y-86750035D03*
X129929965Y-86071213D03*
%TD*%
D32*
%TO.C,C34*%
X140135589Y-87430000D03*
X140814411Y-86751178D03*
%TD*%
D24*
%TO.C,C5*%
X126200000Y-77250000D03*
X127750000Y-77250000D03*
%TD*%
D33*
%TO.C,U4*%
X140260001Y-81580000D03*
X140760000Y-81580000D03*
X141260002Y-81580000D03*
X141760000Y-81580000D03*
X141760000Y-78580000D03*
X141260002Y-78580000D03*
X140760000Y-78580000D03*
X140260001Y-78580000D03*
%TD*%
D23*
%TO.C,R4*%
X130645000Y-78020000D03*
X132295000Y-78020000D03*
%TD*%
D34*
%TO.C,X1*%
X120720000Y-86589998D03*
X121990000Y-86589998D03*
X123260000Y-86589998D03*
D35*
X125095000Y-85770000D03*
X125095000Y-83230000D03*
D34*
X123260000Y-82410002D03*
X121990000Y-82410002D03*
X120720000Y-82410002D03*
D35*
X118885000Y-83230000D03*
X118885000Y-85770000D03*
%TD*%
D36*
%TO.C,C28*%
X139298492Y-70020918D03*
X138619670Y-70699740D03*
%TD*%
D12*
%TO.C,C29*%
X138650294Y-72020294D03*
X139329116Y-72699116D03*
%TD*%
D29*
%TO.C,R9*%
X139159965Y-84430624D03*
X139881213Y-83709376D03*
%TD*%
D19*
%TO.C,C43*%
X117040000Y-81750000D03*
X115490000Y-81750000D03*
%TD*%
D36*
%TO.C,C16*%
X131418822Y-71991178D03*
X130740000Y-72670000D03*
%TD*%
D32*
%TO.C,C23*%
X136421178Y-70368822D03*
X137100000Y-69690000D03*
%TD*%
D37*
%TO.C,R15*%
X135230000Y-87830002D03*
X135230000Y-88850000D03*
%TD*%
D30*
%TO.C,R2*%
X125000000Y-74019998D03*
X125000000Y-73000000D03*
%TD*%
D13*
%TO.C,C36*%
X135230000Y-89700001D03*
X135230000Y-90660001D03*
%TD*%
D20*
%TO.C,R19*%
X121565000Y-80750000D03*
X119915000Y-80750000D03*
%TD*%
D38*
%TO.C,R18*%
X148500000Y-80575000D03*
X148500000Y-78925000D03*
%TD*%
D17*
%TO.C,C26*%
X141770002Y-77380000D03*
X141770002Y-76420000D03*
%TD*%
D30*
%TO.C,R8*%
X135300000Y-71809999D03*
X135300000Y-70790001D03*
%TD*%
D13*
%TO.C,C22*%
X135300000Y-68940000D03*
X135300000Y-69900000D03*
%TD*%
D19*
%TO.C,C8*%
X132295000Y-76460000D03*
X130745000Y-76460000D03*
%TD*%
D36*
%TO.C,C35*%
X130629376Y-88030624D03*
X129950554Y-88709446D03*
%TD*%
D25*
%TO.C,C42*%
X118490000Y-80775000D03*
X118490000Y-79225000D03*
%TD*%
D13*
%TO.C,C27*%
X138890002Y-77360000D03*
X138890002Y-78320000D03*
%TD*%
D11*
%TO.C,C2*%
X120750000Y-74975000D03*
X120750000Y-76525000D03*
%TD*%
%TO.C,C17*%
X129260000Y-79910000D03*
X129260000Y-81460000D03*
%TD*%
D39*
%TO.C,U2*%
X133649825Y-73697525D03*
X133649825Y-74199175D03*
X133649825Y-74700825D03*
X133649825Y-75202475D03*
D40*
X134297525Y-75850175D03*
X134799175Y-75850175D03*
X135300825Y-75850175D03*
X135802475Y-75850175D03*
D39*
X136450175Y-75202475D03*
X136450175Y-74700825D03*
X136450175Y-74199175D03*
X136450175Y-73697525D03*
D40*
X135802475Y-73049825D03*
X135300825Y-73049825D03*
X134799175Y-73049825D03*
X134297525Y-73049825D03*
%TD*%
D41*
%TO.C,R17*%
X148500000Y-75925000D03*
X148500000Y-77575000D03*
%TD*%
D42*
%TO.C,R10*%
X140840001Y-77390000D03*
X139820003Y-77390000D03*
%TD*%
D43*
%TO.C,R16*%
X138133180Y-86719376D03*
X138854428Y-87440624D03*
%TD*%
D11*
%TO.C,C13*%
X143450000Y-82590000D03*
X143450000Y-84140000D03*
%TD*%
%TO.C,C44*%
X116990000Y-83225000D03*
X116990000Y-84775000D03*
%TD*%
M02*
