%TF.GenerationSoftware,KiCad,Pcbnew,10.0.4*%
%TF.CreationDate,2026-09-13T23:30:18+02:00*%
%TF.ProjectId,CLK_BOARD,434c4b5f-424f-4415-9244-2e6b69636164,rev?*%
%TF.SameCoordinates,Original*%
%TF.FileFunction,Copper,L2,Inr*%
%TF.FilePolarity,Positive*%
%FSLAX46Y46*%
G04 Gerber Fmt 4.6, Leading zero omitted, Abs format (unit mm)*
G04 Created by KiCad (PCBNEW 10.0.4) date 2026-09-13 23:30:18*
%MOMM*%
%LPD*%
G01*
G04 APERTURE LIST*
%TA.AperFunction,HeatsinkPad*%
%ADD10C,0.500000*%
%TD*%
%TA.AperFunction,ComponentPad*%
%ADD11R,1.700000X1.700000*%
%TD*%
%TA.AperFunction,ComponentPad*%
%ADD12C,1.700000*%
%TD*%
%TA.AperFunction,ComponentPad*%
%ADD13C,0.700000*%
%TD*%
%TA.AperFunction,ComponentPad*%
%ADD14C,4.400000*%
%TD*%
%TA.AperFunction,ViaPad*%
%ADD15C,0.450000*%
%TD*%
%TA.AperFunction,ViaPad*%
%ADD16C,0.400000*%
%TD*%
G04 APERTURE END LIST*
D10*
%TO.N,GND*%
%TO.C,U1*%
X123330000Y-74960000D03*
X123330000Y-73510000D03*
X123000000Y-74210000D03*
X122680000Y-73510000D03*
X122670000Y-74960000D03*
%TD*%
D11*
%TO.N,/nMUTE*%
%TO.C,J5*%
X151000000Y-77500000D03*
D12*
%TO.N,/nRST*%
X151000000Y-80040000D03*
%TO.N,GND*%
X151000000Y-82580000D03*
%TD*%
D10*
%TO.N,GND*%
%TO.C,U3*%
X135678403Y-84022153D03*
X135042007Y-83385757D03*
X135042007Y-84022153D03*
X135042007Y-84658549D03*
X134405611Y-84022153D03*
%TD*%
D11*
%TO.N,GND*%
%TO.C,J1*%
X116500000Y-72400000D03*
D12*
%TO.N,Net-(J1-Pin_2)*%
X116500000Y-74940000D03*
%TD*%
D13*
%TO.N,GND*%
%TO.C,H3*%
X153350000Y-64000000D03*
X153833274Y-62833274D03*
X153833274Y-65166726D03*
X155000000Y-62350000D03*
D14*
X155000000Y-64000000D03*
D13*
X155000000Y-65650000D03*
X156166726Y-62833274D03*
X156166726Y-65166726D03*
X156650000Y-64000000D03*
%TD*%
%TO.N,GND*%
%TO.C,H2*%
X113850000Y-96000000D03*
X114333274Y-94833274D03*
X114333274Y-97166726D03*
X115500000Y-94350000D03*
D14*
X115500000Y-96000000D03*
D13*
X115500000Y-97650000D03*
X116666726Y-94833274D03*
X116666726Y-97166726D03*
X117150000Y-96000000D03*
%TD*%
%TO.N,GND*%
%TO.C,H1*%
X113850000Y-64000000D03*
X114333274Y-62833274D03*
X114333274Y-65166726D03*
X115500000Y-62350000D03*
D14*
X115500000Y-64000000D03*
D13*
X115500000Y-65650000D03*
X116666726Y-62833274D03*
X116666726Y-65166726D03*
X117150000Y-64000000D03*
%TD*%
D10*
%TO.N,GND*%
%TO.C,U2*%
X134600000Y-74000000D03*
X134600000Y-74900000D03*
X135050000Y-74450000D03*
X135500000Y-74000000D03*
X135500000Y-74900000D03*
%TD*%
D13*
%TO.N,GND*%
%TO.C,H4*%
X153350000Y-96000000D03*
X153833274Y-94833274D03*
X153833274Y-97166726D03*
X155000000Y-94350000D03*
D14*
X155000000Y-96000000D03*
D13*
X155000000Y-97650000D03*
X156166726Y-94833274D03*
X156166726Y-97166726D03*
X156650000Y-96000000D03*
%TD*%
D15*
%TO.N,+3V3*%
X145030000Y-80170000D03*
X130120000Y-78970000D03*
%TO.N,GND*%
X157650000Y-68867837D03*
X130740000Y-75790000D03*
X118490000Y-78580000D03*
X118350061Y-61510000D03*
X150125000Y-98500000D03*
X157650000Y-76967591D03*
X120374999Y-61510000D03*
X157650000Y-93167100D03*
X138520000Y-83300000D03*
X157650000Y-64817960D03*
X117540000Y-72400000D03*
X112850000Y-93167100D03*
X157650000Y-87092284D03*
X112850000Y-81017468D03*
X112850000Y-68867836D03*
X137360000Y-79510000D03*
X112850000Y-70892775D03*
X156199280Y-61522507D03*
X157650000Y-70892775D03*
X139680000Y-74930000D03*
X112850000Y-74942652D03*
X136930000Y-88400000D03*
X145030000Y-84780000D03*
X141770000Y-75930000D03*
X118350061Y-98500000D03*
X152149938Y-98500000D03*
X114300718Y-61522507D03*
X137560000Y-83310000D03*
X129990000Y-84700000D03*
X139410000Y-78320000D03*
X150125000Y-61510000D03*
X112850000Y-83042407D03*
X112850000Y-76967591D03*
X157650000Y-95192038D03*
X112891119Y-97213858D03*
X149960000Y-82580000D03*
X151000000Y-83610000D03*
X157650000Y-66842898D03*
X152149938Y-61510000D03*
X127780000Y-75070000D03*
X130350000Y-85410000D03*
X116510000Y-71340000D03*
X116990000Y-85410000D03*
X157650000Y-91142161D03*
X153510000Y-75320000D03*
X140249999Y-61510000D03*
X125010000Y-72520000D03*
X130780000Y-82100000D03*
X157650000Y-78992530D03*
X114300718Y-98487491D03*
X157608879Y-62796141D03*
X112850000Y-66842898D03*
X119840000Y-71280000D03*
X139760000Y-86110000D03*
X157650000Y-85067345D03*
X140580000Y-73660000D03*
X112850000Y-95192039D03*
X157650000Y-89117223D03*
X138030000Y-86460000D03*
X112850000Y-85067346D03*
X153500000Y-82160000D03*
X127750000Y-77910000D03*
X112891119Y-62796140D03*
X157650000Y-72917714D03*
X157650000Y-74942653D03*
X116325122Y-98500000D03*
X131550000Y-73370000D03*
X112850000Y-91142162D03*
X130250000Y-98500000D03*
X120750000Y-77170000D03*
X133000000Y-75730000D03*
X125100000Y-86460000D03*
X137700000Y-70800000D03*
X154174877Y-61510000D03*
X157650000Y-83042407D03*
X112850000Y-89117223D03*
X120374999Y-98500000D03*
X112850000Y-78992530D03*
X142160000Y-82850000D03*
X112850000Y-64817959D03*
X132550000Y-87810000D03*
X116325122Y-61510000D03*
X143460000Y-84780000D03*
X121490000Y-72010000D03*
X157608879Y-97213857D03*
X131060000Y-84640000D03*
X156199280Y-98487491D03*
X112850000Y-72917714D03*
X126990000Y-84680000D03*
X114830000Y-81750000D03*
X129250000Y-75820000D03*
X140832341Y-86115894D03*
X140249999Y-98500000D03*
X125960000Y-85770000D03*
X119230000Y-77170000D03*
X133170000Y-77100000D03*
X130249999Y-61510000D03*
X129260000Y-82110000D03*
X157650000Y-81017468D03*
X134080000Y-69980000D03*
X154174877Y-98500000D03*
X130460000Y-72400000D03*
X112850000Y-87092284D03*
%TO.N,Net-(J1-Pin_2)*%
X121850000Y-75640000D03*
X121310000Y-73230000D03*
%TO.N,/nMUTE*%
X135795036Y-81965000D03*
X137240000Y-78480000D03*
X147385000Y-75445000D03*
%TO.N,/nRST*%
X147510000Y-80580000D03*
D16*
X141300000Y-79195000D03*
%TO.N,Net-(U3-VDD)*%
X133630000Y-85790000D03*
D15*
X132340000Y-82440000D03*
D16*
X136790000Y-85460000D03*
%TO.N,Net-(U4-VCC)*%
X140160000Y-79540000D03*
%TO.N,Net-(U2-VDD)*%
X134560000Y-72150000D03*
D15*
X133130000Y-78010000D03*
D16*
X137232260Y-74265799D03*
%TD*%
%TA.AperFunction,Conductor*%
%TO.N,GND*%
G36*
X156003736Y-60960726D02*
G01*
X156257638Y-60976084D01*
X156272495Y-60977888D01*
X156519000Y-61023061D01*
X156533536Y-61026644D01*
X156772791Y-61101200D01*
X156786788Y-61106508D01*
X157015319Y-61209361D01*
X157028578Y-61216320D01*
X157135808Y-61281143D01*
X157243045Y-61345970D01*
X157255356Y-61354468D01*
X157452636Y-61509027D01*
X157463844Y-61518957D01*
X157641042Y-61696155D01*
X157650972Y-61707363D01*
X157805527Y-61904637D01*
X157814033Y-61916960D01*
X157943679Y-62131421D01*
X157950638Y-62144680D01*
X158053491Y-62373211D01*
X158058800Y-62387211D01*
X158133354Y-62626461D01*
X158136938Y-62641001D01*
X158182110Y-62887500D01*
X158183915Y-62902364D01*
X158199274Y-63156263D01*
X158199500Y-63163750D01*
X158199500Y-96846249D01*
X158199274Y-96853736D01*
X158183915Y-97107635D01*
X158182110Y-97122499D01*
X158136938Y-97368998D01*
X158133354Y-97383538D01*
X158058800Y-97622788D01*
X158053491Y-97636788D01*
X157950638Y-97865319D01*
X157943679Y-97878578D01*
X157814033Y-98093039D01*
X157805527Y-98105362D01*
X157650972Y-98302636D01*
X157641042Y-98313844D01*
X157463844Y-98491042D01*
X157452636Y-98500972D01*
X157255362Y-98655527D01*
X157243039Y-98664033D01*
X157028578Y-98793679D01*
X157015319Y-98800638D01*
X156786788Y-98903491D01*
X156772788Y-98908800D01*
X156533538Y-98983354D01*
X156518998Y-98986938D01*
X156272499Y-99032110D01*
X156257635Y-99033915D01*
X156003736Y-99049274D01*
X155996249Y-99049500D01*
X114503751Y-99049500D01*
X114496264Y-99049274D01*
X114242364Y-99033915D01*
X114227500Y-99032110D01*
X113981001Y-98986938D01*
X113966461Y-98983354D01*
X113727211Y-98908800D01*
X113713211Y-98903491D01*
X113484680Y-98800638D01*
X113471421Y-98793679D01*
X113256960Y-98664033D01*
X113244637Y-98655527D01*
X113047363Y-98500972D01*
X113036155Y-98491042D01*
X112858957Y-98313844D01*
X112849027Y-98302636D01*
X112694468Y-98105356D01*
X112685970Y-98093045D01*
X112583412Y-97923394D01*
X112556320Y-97878578D01*
X112549361Y-97865319D01*
X112446508Y-97636788D01*
X112441199Y-97622788D01*
X112366645Y-97383538D01*
X112363061Y-97368998D01*
X112317889Y-97122499D01*
X112316084Y-97107635D01*
X112300726Y-96853736D01*
X112300500Y-96846249D01*
X112300500Y-85736852D01*
X133226300Y-85736852D01*
X133226300Y-85843148D01*
X133253811Y-85945823D01*
X133306959Y-86037878D01*
X133382122Y-86113041D01*
X133474177Y-86166189D01*
X133576852Y-86193700D01*
X133576854Y-86193700D01*
X133683146Y-86193700D01*
X133683148Y-86193700D01*
X133785823Y-86166189D01*
X133877878Y-86113041D01*
X133953041Y-86037878D01*
X134006189Y-85945823D01*
X134033700Y-85843148D01*
X134033700Y-85736852D01*
X134006189Y-85634177D01*
X133953041Y-85542122D01*
X133877878Y-85466959D01*
X133785823Y-85413811D01*
X133759851Y-85406852D01*
X136386300Y-85406852D01*
X136386300Y-85513148D01*
X136413811Y-85615823D01*
X136413812Y-85615824D01*
X136413812Y-85615825D01*
X136424408Y-85634177D01*
X136466959Y-85707878D01*
X136542122Y-85783041D01*
X136634177Y-85836189D01*
X136736852Y-85863700D01*
X136736854Y-85863700D01*
X136843146Y-85863700D01*
X136843148Y-85863700D01*
X136945823Y-85836189D01*
X137037878Y-85783041D01*
X137113041Y-85707878D01*
X137166189Y-85615823D01*
X137193700Y-85513148D01*
X137193700Y-85406852D01*
X137166189Y-85304177D01*
X137113041Y-85212122D01*
X137037878Y-85136959D01*
X136945823Y-85083811D01*
X136843148Y-85056300D01*
X136736852Y-85056300D01*
X136634177Y-85083811D01*
X136634175Y-85083812D01*
X136634174Y-85083812D01*
X136542125Y-85136957D01*
X136542119Y-85136961D01*
X136466961Y-85212119D01*
X136466957Y-85212125D01*
X136413812Y-85304174D01*
X136413812Y-85304175D01*
X136413811Y-85304177D01*
X136386300Y-85406852D01*
X133759851Y-85406852D01*
X133683148Y-85386300D01*
X133576852Y-85386300D01*
X133474177Y-85413811D01*
X133474175Y-85413812D01*
X133474174Y-85413812D01*
X133382125Y-85466957D01*
X133382119Y-85466961D01*
X133306961Y-85542119D01*
X133306957Y-85542125D01*
X133253812Y-85634174D01*
X133253812Y-85634175D01*
X133253811Y-85634177D01*
X133226300Y-85736852D01*
X112300500Y-85736852D01*
X112300500Y-82383561D01*
X131911300Y-82383561D01*
X131911300Y-82496438D01*
X131940515Y-82605473D01*
X131968735Y-82654350D01*
X131996955Y-82703228D01*
X132076772Y-82783045D01*
X132174528Y-82839485D01*
X132283561Y-82868700D01*
X132283563Y-82868700D01*
X132396437Y-82868700D01*
X132396439Y-82868700D01*
X132505472Y-82839485D01*
X132603228Y-82783045D01*
X132683045Y-82703228D01*
X132739485Y-82605472D01*
X132768700Y-82496439D01*
X132768700Y-82383561D01*
X132739485Y-82274528D01*
X132683045Y-82176772D01*
X132603228Y-82096955D01*
X132505472Y-82040515D01*
X132396439Y-82011300D01*
X132283561Y-82011300D01*
X132174526Y-82040515D01*
X132076772Y-82096955D01*
X132076769Y-82096957D01*
X131996957Y-82176769D01*
X131996955Y-82176772D01*
X131940515Y-82274526D01*
X131911300Y-82383561D01*
X112300500Y-82383561D01*
X112300500Y-81908561D01*
X135366336Y-81908561D01*
X135366336Y-82021439D01*
X135380943Y-82075955D01*
X135395551Y-82130473D01*
X135422281Y-82176769D01*
X135451991Y-82228228D01*
X135531808Y-82308045D01*
X135629564Y-82364485D01*
X135738597Y-82393700D01*
X135738599Y-82393700D01*
X135851473Y-82393700D01*
X135851475Y-82393700D01*
X135960508Y-82364485D01*
X136058264Y-82308045D01*
X136138081Y-82228228D01*
X136194521Y-82130472D01*
X136223736Y-82021439D01*
X136223736Y-81908561D01*
X136194521Y-81799528D01*
X136138081Y-81701772D01*
X136058264Y-81621955D01*
X136009386Y-81593735D01*
X135960509Y-81565515D01*
X135905991Y-81550907D01*
X135851475Y-81536300D01*
X135738597Y-81536300D01*
X135629562Y-81565515D01*
X135531808Y-81621955D01*
X135531805Y-81621957D01*
X135451993Y-81701769D01*
X135451991Y-81701772D01*
X135395551Y-81799526D01*
X135366336Y-81908561D01*
X112300500Y-81908561D01*
X112300500Y-80113561D01*
X144601300Y-80113561D01*
X144601300Y-80226438D01*
X144630515Y-80335473D01*
X144658735Y-80384350D01*
X144686955Y-80433228D01*
X144766772Y-80513045D01*
X144864528Y-80569485D01*
X144973561Y-80598700D01*
X144973563Y-80598700D01*
X145086437Y-80598700D01*
X145086439Y-80598700D01*
X145195472Y-80569485D01*
X145275014Y-80523561D01*
X147081300Y-80523561D01*
X147081300Y-80636438D01*
X147110515Y-80745473D01*
X147138735Y-80794350D01*
X147166955Y-80843228D01*
X147246772Y-80923045D01*
X147331428Y-80971922D01*
X147334641Y-80973777D01*
X147344528Y-80979485D01*
X147453561Y-81008700D01*
X147453563Y-81008700D01*
X147566437Y-81008700D01*
X147566439Y-81008700D01*
X147675472Y-80979485D01*
X147773228Y-80923045D01*
X147853045Y-80843228D01*
X147909485Y-80745472D01*
X147938700Y-80636439D01*
X147938700Y-80523561D01*
X147909485Y-80414528D01*
X147853045Y-80316772D01*
X147773228Y-80236955D01*
X147724350Y-80208735D01*
X147675473Y-80180515D01*
X147620955Y-80165907D01*
X147566439Y-80151300D01*
X147453561Y-80151300D01*
X147344526Y-80180515D01*
X147246772Y-80236955D01*
X147246769Y-80236957D01*
X147166957Y-80316769D01*
X147166955Y-80316772D01*
X147110515Y-80414526D01*
X147081300Y-80523561D01*
X145275014Y-80523561D01*
X145293228Y-80513045D01*
X145373045Y-80433228D01*
X145429485Y-80335472D01*
X145458700Y-80226439D01*
X145458700Y-80113561D01*
X145429485Y-80004528D01*
X145429484Y-80004526D01*
X145429484Y-80004525D01*
X145422327Y-79992130D01*
X145422326Y-79992129D01*
X145390044Y-79936215D01*
X149946300Y-79936215D01*
X149946300Y-80143784D01*
X149986791Y-80347345D01*
X149986793Y-80347353D01*
X150066222Y-80539110D01*
X150066227Y-80539120D01*
X150181537Y-80711693D01*
X150181540Y-80711697D01*
X150328302Y-80858459D01*
X150328306Y-80858462D01*
X150500879Y-80973772D01*
X150500883Y-80973774D01*
X150500886Y-80973776D01*
X150692647Y-81053207D01*
X150896215Y-81093699D01*
X150896219Y-81093700D01*
X150896220Y-81093700D01*
X151103781Y-81093700D01*
X151103782Y-81093699D01*
X151307353Y-81053207D01*
X151499114Y-80973776D01*
X151671694Y-80858462D01*
X151818462Y-80711694D01*
X151933776Y-80539114D01*
X152013207Y-80347353D01*
X152053700Y-80143780D01*
X152053700Y-79936220D01*
X152013207Y-79732647D01*
X151933776Y-79540886D01*
X151933774Y-79540883D01*
X151933772Y-79540879D01*
X151818462Y-79368306D01*
X151818459Y-79368302D01*
X151671697Y-79221540D01*
X151671693Y-79221537D01*
X151499120Y-79106227D01*
X151499110Y-79106222D01*
X151307353Y-79026793D01*
X151307345Y-79026791D01*
X151103784Y-78986300D01*
X151103780Y-78986300D01*
X150896220Y-78986300D01*
X150896215Y-78986300D01*
X150692654Y-79026791D01*
X150692646Y-79026793D01*
X150500889Y-79106222D01*
X150500879Y-79106227D01*
X150328306Y-79221537D01*
X150328302Y-79221540D01*
X150181540Y-79368302D01*
X150181537Y-79368306D01*
X150066227Y-79540879D01*
X150066222Y-79540889D01*
X149986793Y-79732646D01*
X149986791Y-79732654D01*
X149946300Y-79936215D01*
X145390044Y-79936215D01*
X145373045Y-79906772D01*
X145293228Y-79826955D01*
X145225549Y-79787880D01*
X145195473Y-79770515D01*
X145140955Y-79755907D01*
X145086439Y-79741300D01*
X144973561Y-79741300D01*
X144864526Y-79770515D01*
X144766772Y-79826955D01*
X144766769Y-79826957D01*
X144686957Y-79906769D01*
X144686955Y-79906772D01*
X144630515Y-80004526D01*
X144601300Y-80113561D01*
X112300500Y-80113561D01*
X112300500Y-79486852D01*
X139756300Y-79486852D01*
X139756300Y-79593148D01*
X139783811Y-79695823D01*
X139836959Y-79787878D01*
X139912122Y-79863041D01*
X140004177Y-79916189D01*
X140106852Y-79943700D01*
X140106854Y-79943700D01*
X140213146Y-79943700D01*
X140213148Y-79943700D01*
X140315823Y-79916189D01*
X140407878Y-79863041D01*
X140483041Y-79787878D01*
X140536189Y-79695823D01*
X140563700Y-79593148D01*
X140563700Y-79486852D01*
X140536189Y-79384177D01*
X140483041Y-79292122D01*
X140407878Y-79216959D01*
X140315823Y-79163811D01*
X140233869Y-79141852D01*
X140896300Y-79141852D01*
X140896300Y-79248148D01*
X140923811Y-79350823D01*
X140923812Y-79350824D01*
X140923812Y-79350825D01*
X140941527Y-79381508D01*
X140976959Y-79442878D01*
X141052122Y-79518041D01*
X141144177Y-79571189D01*
X141246852Y-79598700D01*
X141246854Y-79598700D01*
X141353146Y-79598700D01*
X141353148Y-79598700D01*
X141455823Y-79571189D01*
X141547878Y-79518041D01*
X141623041Y-79442878D01*
X141676189Y-79350823D01*
X141703700Y-79248148D01*
X141703700Y-79141852D01*
X141676189Y-79039177D01*
X141623041Y-78947122D01*
X141547878Y-78871959D01*
X141463155Y-78823044D01*
X141455825Y-78818812D01*
X141455824Y-78818811D01*
X141455823Y-78818811D01*
X141353148Y-78791300D01*
X141246852Y-78791300D01*
X141144177Y-78818811D01*
X141144175Y-78818812D01*
X141144174Y-78818812D01*
X141052125Y-78871957D01*
X141052119Y-78871961D01*
X140976961Y-78947119D01*
X140976957Y-78947125D01*
X140923812Y-79039174D01*
X140923812Y-79039175D01*
X140923811Y-79039177D01*
X140896300Y-79141852D01*
X140233869Y-79141852D01*
X140213148Y-79136300D01*
X140106852Y-79136300D01*
X140004177Y-79163811D01*
X140004175Y-79163812D01*
X140004174Y-79163812D01*
X139912125Y-79216957D01*
X139912119Y-79216961D01*
X139836961Y-79292119D01*
X139836957Y-79292125D01*
X139783812Y-79384174D01*
X139783812Y-79384175D01*
X139783811Y-79384177D01*
X139756300Y-79486852D01*
X112300500Y-79486852D01*
X112300500Y-78913561D01*
X129691300Y-78913561D01*
X129691300Y-79026439D01*
X129694713Y-79039175D01*
X129720515Y-79135473D01*
X129736877Y-79163812D01*
X129776955Y-79233228D01*
X129856772Y-79313045D01*
X129954528Y-79369485D01*
X130063561Y-79398700D01*
X130063563Y-79398700D01*
X130176437Y-79398700D01*
X130176439Y-79398700D01*
X130285472Y-79369485D01*
X130383228Y-79313045D01*
X130463045Y-79233228D01*
X130519485Y-79135472D01*
X130548700Y-79026439D01*
X130548700Y-78913561D01*
X130519485Y-78804528D01*
X130463045Y-78706772D01*
X130383228Y-78626955D01*
X130334350Y-78598735D01*
X130285473Y-78570515D01*
X130222717Y-78553700D01*
X130176439Y-78541300D01*
X130063561Y-78541300D01*
X129954526Y-78570515D01*
X129856772Y-78626955D01*
X129856769Y-78626957D01*
X129776957Y-78706769D01*
X129776955Y-78706772D01*
X129720515Y-78804526D01*
X129692603Y-78908699D01*
X129691300Y-78913561D01*
X112300500Y-78913561D01*
X112300500Y-77953561D01*
X132701300Y-77953561D01*
X132701300Y-78066438D01*
X132730515Y-78175473D01*
X132754358Y-78216769D01*
X132786955Y-78273228D01*
X132866772Y-78353045D01*
X132964528Y-78409485D01*
X133073561Y-78438700D01*
X133073563Y-78438700D01*
X133186437Y-78438700D01*
X133186439Y-78438700D01*
X133242939Y-78423561D01*
X136811300Y-78423561D01*
X136811300Y-78536439D01*
X136815925Y-78553700D01*
X136840515Y-78645473D01*
X136868735Y-78694350D01*
X136896955Y-78743228D01*
X136976772Y-78823045D01*
X137074528Y-78879485D01*
X137183561Y-78908700D01*
X137183563Y-78908700D01*
X137296437Y-78908700D01*
X137296439Y-78908700D01*
X137405472Y-78879485D01*
X137503228Y-78823045D01*
X137583045Y-78743228D01*
X137639485Y-78645472D01*
X137668700Y-78536439D01*
X137668700Y-78423561D01*
X137654366Y-78370066D01*
X149946299Y-78370066D01*
X149958117Y-78429476D01*
X149958118Y-78429479D01*
X149958119Y-78429480D01*
X150003140Y-78496860D01*
X150062374Y-78536438D01*
X150070520Y-78541881D01*
X150070523Y-78541882D01*
X150129933Y-78553700D01*
X150129936Y-78553700D01*
X151870066Y-78553700D01*
X151929476Y-78541882D01*
X151929477Y-78541881D01*
X151929480Y-78541881D01*
X151996860Y-78496860D01*
X152041881Y-78429480D01*
X152043058Y-78423563D01*
X152053700Y-78370066D01*
X152053700Y-76629933D01*
X152041882Y-76570523D01*
X152041881Y-76570520D01*
X151996860Y-76503140D01*
X151929480Y-76458119D01*
X151929479Y-76458118D01*
X151929476Y-76458117D01*
X151870066Y-76446300D01*
X151870064Y-76446300D01*
X150129936Y-76446300D01*
X150129934Y-76446300D01*
X150070523Y-76458117D01*
X150070520Y-76458118D01*
X150003140Y-76503140D01*
X149958118Y-76570520D01*
X149958117Y-76570523D01*
X149946300Y-76629933D01*
X149946300Y-76629936D01*
X149946300Y-78370064D01*
X149946300Y-78370066D01*
X149946299Y-78370066D01*
X137654366Y-78370066D01*
X137639485Y-78314528D01*
X137583045Y-78216772D01*
X137503228Y-78136955D01*
X137454350Y-78108735D01*
X137405473Y-78080515D01*
X137350955Y-78065907D01*
X137296439Y-78051300D01*
X137183561Y-78051300D01*
X137074526Y-78080515D01*
X136976772Y-78136955D01*
X136976769Y-78136957D01*
X136896957Y-78216769D01*
X136896955Y-78216772D01*
X136840515Y-78314526D01*
X136825634Y-78370064D01*
X136811300Y-78423561D01*
X133242939Y-78423561D01*
X133295472Y-78409485D01*
X133393228Y-78353045D01*
X133473045Y-78273228D01*
X133529485Y-78175472D01*
X133558700Y-78066439D01*
X133558700Y-77953561D01*
X133529485Y-77844528D01*
X133473045Y-77746772D01*
X133393228Y-77666955D01*
X133344350Y-77638735D01*
X133295473Y-77610515D01*
X133240955Y-77595907D01*
X133186439Y-77581300D01*
X133073561Y-77581300D01*
X132964526Y-77610515D01*
X132866772Y-77666955D01*
X132866769Y-77666957D01*
X132786957Y-77746769D01*
X132786955Y-77746772D01*
X132730515Y-77844526D01*
X132701300Y-77953561D01*
X112300500Y-77953561D01*
X112300500Y-74836215D01*
X115446300Y-74836215D01*
X115446300Y-75043784D01*
X115486791Y-75247345D01*
X115486793Y-75247353D01*
X115566222Y-75439110D01*
X115566227Y-75439120D01*
X115681537Y-75611693D01*
X115681540Y-75611697D01*
X115828302Y-75758459D01*
X115828306Y-75758462D01*
X116000879Y-75873772D01*
X116000883Y-75873774D01*
X116000886Y-75873776D01*
X116192647Y-75953207D01*
X116396215Y-75993699D01*
X116396219Y-75993700D01*
X116396220Y-75993700D01*
X116603781Y-75993700D01*
X116603782Y-75993699D01*
X116807353Y-75953207D01*
X116999114Y-75873776D01*
X117171694Y-75758462D01*
X117318462Y-75611694D01*
X117337259Y-75583561D01*
X121421300Y-75583561D01*
X121421300Y-75696439D01*
X121435907Y-75750955D01*
X121450515Y-75805473D01*
X121473039Y-75844484D01*
X121506955Y-75903228D01*
X121586772Y-75983045D01*
X121684528Y-76039485D01*
X121793561Y-76068700D01*
X121793563Y-76068700D01*
X121906437Y-76068700D01*
X121906439Y-76068700D01*
X122015472Y-76039485D01*
X122113228Y-75983045D01*
X122193045Y-75903228D01*
X122249485Y-75805472D01*
X122278700Y-75696439D01*
X122278700Y-75583561D01*
X122249485Y-75474528D01*
X122249483Y-75474524D01*
X122230956Y-75442434D01*
X122230955Y-75442432D01*
X122206814Y-75400621D01*
X122199851Y-75388561D01*
X146956300Y-75388561D01*
X146956300Y-75501438D01*
X146985515Y-75610473D01*
X146986222Y-75611697D01*
X147041955Y-75708228D01*
X147121772Y-75788045D01*
X147219528Y-75844485D01*
X147328561Y-75873700D01*
X147328563Y-75873700D01*
X147441437Y-75873700D01*
X147441439Y-75873700D01*
X147550472Y-75844485D01*
X147648228Y-75788045D01*
X147728045Y-75708228D01*
X147784485Y-75610472D01*
X147813700Y-75501439D01*
X147813700Y-75388561D01*
X147784485Y-75279528D01*
X147728045Y-75181772D01*
X147648228Y-75101955D01*
X147599350Y-75073735D01*
X147550473Y-75045515D01*
X147495955Y-75030907D01*
X147441439Y-75016300D01*
X147328561Y-75016300D01*
X147219526Y-75045515D01*
X147121772Y-75101955D01*
X147121769Y-75101957D01*
X147041957Y-75181769D01*
X147041955Y-75181772D01*
X146985515Y-75279526D01*
X146956300Y-75388561D01*
X122199851Y-75388561D01*
X122193045Y-75376772D01*
X122113228Y-75296955D01*
X122027316Y-75247353D01*
X122015473Y-75240515D01*
X121960955Y-75225907D01*
X121906439Y-75211300D01*
X121793561Y-75211300D01*
X121684526Y-75240515D01*
X121586772Y-75296955D01*
X121586769Y-75296957D01*
X121506957Y-75376769D01*
X121506955Y-75376772D01*
X121450515Y-75474526D01*
X121421300Y-75583561D01*
X117337259Y-75583561D01*
X117358235Y-75552167D01*
X117388722Y-75506543D01*
X117433772Y-75439120D01*
X117433772Y-75439119D01*
X117433776Y-75439114D01*
X117513207Y-75247353D01*
X117553700Y-75043780D01*
X117553700Y-74836220D01*
X117513207Y-74632647D01*
X117433776Y-74440886D01*
X117433774Y-74440883D01*
X117433772Y-74440879D01*
X117321876Y-74273415D01*
X117321875Y-74273413D01*
X117318465Y-74268310D01*
X117318459Y-74268302D01*
X117262808Y-74212651D01*
X136828560Y-74212651D01*
X136828560Y-74318947D01*
X136856071Y-74421622D01*
X136909219Y-74513677D01*
X136984382Y-74588840D01*
X137076437Y-74641988D01*
X137179112Y-74669499D01*
X137179114Y-74669499D01*
X137285406Y-74669499D01*
X137285408Y-74669499D01*
X137388083Y-74641988D01*
X137480138Y-74588840D01*
X137555301Y-74513677D01*
X137608449Y-74421622D01*
X137635960Y-74318947D01*
X137635960Y-74212651D01*
X137608449Y-74109976D01*
X137555301Y-74017921D01*
X137480138Y-73942758D01*
X137388083Y-73889610D01*
X137285408Y-73862099D01*
X137179112Y-73862099D01*
X137076437Y-73889610D01*
X137076435Y-73889611D01*
X137076434Y-73889611D01*
X136984385Y-73942756D01*
X136984379Y-73942760D01*
X136909221Y-74017918D01*
X136909217Y-74017924D01*
X136856072Y-74109973D01*
X136856072Y-74109974D01*
X136856071Y-74109976D01*
X136828560Y-74212651D01*
X117262808Y-74212651D01*
X117171697Y-74121540D01*
X117171693Y-74121537D01*
X116999120Y-74006227D01*
X116999110Y-74006222D01*
X116807353Y-73926793D01*
X116807345Y-73926791D01*
X116603784Y-73886300D01*
X116603780Y-73886300D01*
X116396220Y-73886300D01*
X116396215Y-73886300D01*
X116192654Y-73926791D01*
X116192646Y-73926793D01*
X116000889Y-74006222D01*
X116000879Y-74006227D01*
X115828306Y-74121537D01*
X115828302Y-74121540D01*
X115681540Y-74268302D01*
X115681537Y-74268306D01*
X115566227Y-74440879D01*
X115566222Y-74440889D01*
X115486793Y-74632646D01*
X115486791Y-74632654D01*
X115446300Y-74836215D01*
X112300500Y-74836215D01*
X112300500Y-73173561D01*
X120881300Y-73173561D01*
X120881300Y-73286438D01*
X120910515Y-73395473D01*
X120938735Y-73444350D01*
X120966955Y-73493228D01*
X121046772Y-73573045D01*
X121144528Y-73629485D01*
X121253561Y-73658700D01*
X121253563Y-73658700D01*
X121366437Y-73658700D01*
X121366439Y-73658700D01*
X121475472Y-73629485D01*
X121573228Y-73573045D01*
X121653045Y-73493228D01*
X121709485Y-73395472D01*
X121738700Y-73286439D01*
X121738700Y-73173561D01*
X121709485Y-73064528D01*
X121653045Y-72966772D01*
X121573228Y-72886955D01*
X121524350Y-72858735D01*
X121475473Y-72830515D01*
X121420955Y-72815907D01*
X121366439Y-72801300D01*
X121253561Y-72801300D01*
X121144526Y-72830515D01*
X121046772Y-72886955D01*
X121046769Y-72886957D01*
X120966957Y-72966769D01*
X120966955Y-72966772D01*
X120910515Y-73064526D01*
X120881300Y-73173561D01*
X112300500Y-73173561D01*
X112300500Y-72096852D01*
X134156300Y-72096852D01*
X134156300Y-72203148D01*
X134183811Y-72305823D01*
X134236959Y-72397878D01*
X134312122Y-72473041D01*
X134404177Y-72526189D01*
X134506852Y-72553700D01*
X134506854Y-72553700D01*
X134613146Y-72553700D01*
X134613148Y-72553700D01*
X134715823Y-72526189D01*
X134807878Y-72473041D01*
X134883041Y-72397878D01*
X134936189Y-72305823D01*
X134963700Y-72203148D01*
X134963700Y-72096852D01*
X134936189Y-71994177D01*
X134883041Y-71902122D01*
X134807878Y-71826959D01*
X134715823Y-71773811D01*
X134613148Y-71746300D01*
X134506852Y-71746300D01*
X134404177Y-71773811D01*
X134404175Y-71773812D01*
X134404174Y-71773812D01*
X134312125Y-71826957D01*
X134312119Y-71826961D01*
X134236961Y-71902119D01*
X134236957Y-71902125D01*
X134183812Y-71994174D01*
X134183812Y-71994175D01*
X134183811Y-71994177D01*
X134156300Y-72096852D01*
X112300500Y-72096852D01*
X112300500Y-63163750D01*
X112300726Y-63156263D01*
X112316084Y-62902364D01*
X112317889Y-62887500D01*
X112354053Y-62690160D01*
X112363062Y-62640995D01*
X112366645Y-62626461D01*
X112441202Y-62387202D01*
X112446504Y-62373219D01*
X112549361Y-62144679D01*
X112556320Y-62131421D01*
X112583412Y-62086606D01*
X112685975Y-61916946D01*
X112694462Y-61904650D01*
X112849034Y-61707354D01*
X112858949Y-61696163D01*
X113036163Y-61518949D01*
X113047354Y-61509034D01*
X113244650Y-61354462D01*
X113256946Y-61345975D01*
X113471421Y-61216319D01*
X113484680Y-61209361D01*
X113713219Y-61106504D01*
X113727202Y-61101202D01*
X113966467Y-61026643D01*
X113980995Y-61023062D01*
X114227506Y-60977888D01*
X114242359Y-60976084D01*
X114496264Y-60960726D01*
X114503751Y-60960500D01*
X114547595Y-60960500D01*
X155952405Y-60960500D01*
X155996249Y-60960500D01*
X156003736Y-60960726D01*
G37*
%TD.AperFunction*%
%TD*%
M02*
