%TF.GenerationSoftware,KiCad,Pcbnew,10.0.4*%
%TF.CreationDate,2026-09-15T15:31:32+02:00*%
%TF.ProjectId,CLK_BOARD,434c4b5f-424f-4415-9244-2e6b69636164,rev?*%
%TF.SameCoordinates,Original*%
%TF.FileFunction,Soldermask,Top*%
%TF.FilePolarity,Negative*%
%FSLAX46Y46*%
G04 Gerber Fmt 4.6, Leading zero omitted, Abs format (unit mm)*
G04 Created by KiCad (PCBNEW 10.0.4) date 2026-09-15 15:31:32*
%MOMM*%
%LPD*%
G01*
G04 APERTURE LIST*
G04 Aperture macros list*
%AMRoundRect*
0 Rectangle with rounded corners*
0 $1 Rounding radius*
0 $2 $3 $4 $5 $6 $7 $8 $9 X,Y pos of 4 corners*
0 Add a 4 corners polygon primitive as box body*
4,1,4,$2,$3,$4,$5,$6,$7,$8,$9,$2,$3,0*
0 Add four circle primitives for the rounded corners*
1,1,$1+$1,$2,$3*
1,1,$1+$1,$4,$5*
1,1,$1+$1,$6,$7*
1,1,$1+$1,$8,$9*
0 Add four rect primitives between the rounded corners*
20,1,$1+$1,$2,$3,$4,$5,0*
20,1,$1+$1,$4,$5,$6,$7,0*
20,1,$1+$1,$6,$7,$8,$9,0*
20,1,$1+$1,$8,$9,$2,$3,0*%
%AMRotRect*
0 Rectangle, with rotation*
0 The origin of the aperture is its center*
0 $1 length*
0 $2 width*
0 $3 Rotation angle, in degrees counterclockwise*
0 Add horizontal line*
21,1,$1,$2,0,0,$3*%
G04 Aperture macros list end*
%ADD10C,0.000000*%
%ADD11C,0.734500*%
%ADD12RoundRect,0.225000X-0.250000X0.225000X-0.250000X-0.225000X0.250000X-0.225000X0.250000X0.225000X0*%
%ADD13RoundRect,0.140000X-0.219203X-0.021213X-0.021213X-0.219203X0.219203X0.021213X0.021213X0.219203X0*%
%ADD14RoundRect,0.140000X-0.170000X0.140000X-0.170000X-0.140000X0.170000X-0.140000X0.170000X0.140000X0*%
%ADD15O,0.599999X0.249999*%
%ADD16C,0.500000*%
%ADD17R,1.200000X2.000001*%
%ADD18RoundRect,0.140000X-0.140000X-0.170000X0.140000X-0.170000X0.140000X0.170000X-0.140000X0.170000X0*%
%ADD19RoundRect,0.140000X0.170000X-0.140000X0.170000X0.140000X-0.170000X0.140000X-0.170000X-0.140000X0*%
%ADD20R,1.700000X1.700000*%
%ADD21C,1.700000*%
%ADD22RoundRect,0.135000X-0.035355X0.226274X-0.226274X0.035355X0.035355X-0.226274X0.226274X-0.035355X0*%
%ADD23RoundRect,0.250000X-0.385000X-1.350000X0.385000X-1.350000X0.385000X1.350000X-0.385000X1.350000X0*%
%ADD24RoundRect,0.250000X-0.425000X-1.600000X0.425000X-1.600000X0.425000X1.600000X-0.425000X1.600000X0*%
%ADD25RoundRect,0.225000X0.225000X0.250000X-0.225000X0.250000X-0.225000X-0.250000X0.225000X-0.250000X0*%
%ADD26RoundRect,0.200000X0.200000X0.275000X-0.200000X0.275000X-0.200000X-0.275000X0.200000X-0.275000X0*%
%ADD27RoundRect,0.250000X0.385000X1.350000X-0.385000X1.350000X-0.385000X-1.350000X0.385000X-1.350000X0*%
%ADD28RoundRect,0.250000X0.425000X1.600000X-0.425000X1.600000X-0.425000X-1.600000X0.425000X-1.600000X0*%
%ADD29RotRect,0.254000X0.609600X315.000000*%
%ADD30RotRect,0.254000X0.609600X225.000000*%
%ADD31RotRect,1.651000X1.651000X225.000000*%
%ADD32RoundRect,0.200000X-0.200000X-0.275000X0.200000X-0.275000X0.200000X0.275000X-0.200000X0.275000X0*%
%ADD33RoundRect,0.225000X-0.225000X-0.250000X0.225000X-0.250000X0.225000X0.250000X-0.225000X0.250000X0*%
%ADD34RoundRect,0.225000X0.250000X-0.225000X0.250000X0.225000X-0.250000X0.225000X-0.250000X-0.225000X0*%
%ADD35C,0.700000*%
%ADD36C,4.400000*%
%ADD37RoundRect,0.135000X-0.135000X-0.185000X0.135000X-0.185000X0.135000X0.185000X-0.135000X0.185000X0*%
%ADD38RoundRect,0.225000X-0.335876X-0.017678X-0.017678X-0.335876X0.335876X0.017678X0.017678X0.335876X0*%
%ADD39RoundRect,0.135000X0.226274X0.035355X0.035355X0.226274X-0.226274X-0.035355X-0.035355X-0.226274X0*%
%ADD40RoundRect,0.135000X0.035355X-0.226274X0.226274X-0.035355X-0.035355X0.226274X-0.226274X0.035355X0*%
%ADD41RoundRect,0.135000X0.185000X-0.135000X0.185000X0.135000X-0.185000X0.135000X-0.185000X-0.135000X0*%
%ADD42RoundRect,0.140000X0.219203X0.021213X0.021213X0.219203X-0.219203X-0.021213X-0.021213X-0.219203X0*%
%ADD43RoundRect,0.140000X0.021213X-0.219203X0.219203X-0.021213X-0.021213X0.219203X-0.219203X0.021213X0*%
%ADD44O,0.249999X0.599999*%
%ADD45R,0.762000X1.295400*%
%ADD46R,1.295400X0.939800*%
%ADD47RoundRect,0.140000X-0.021213X0.219203X-0.219203X0.021213X0.021213X-0.219203X0.219203X-0.021213X0*%
%ADD48RoundRect,0.135000X-0.185000X0.135000X-0.185000X-0.135000X0.185000X-0.135000X0.185000X0.135000X0*%
%ADD49RoundRect,0.200000X0.275000X-0.200000X0.275000X0.200000X-0.275000X0.200000X-0.275000X-0.200000X0*%
%ADD50R,0.609600X0.254000*%
%ADD51R,0.254000X0.609600*%
%ADD52R,1.651000X1.651000*%
%ADD53RoundRect,0.200000X-0.275000X0.200000X-0.275000X-0.200000X0.275000X-0.200000X0.275000X0.200000X0*%
%ADD54RoundRect,0.135000X0.135000X0.185000X-0.135000X0.185000X-0.135000X-0.185000X0.135000X-0.185000X0*%
%ADD55RoundRect,0.135000X-0.226274X-0.035355X-0.035355X-0.226274X0.226274X0.035355X0.035355X0.226274X0*%
%ADD56C,0.450000*%
G04 APERTURE END LIST*
D10*
G36*
X133100000Y-62060000D02*
G01*
X127400000Y-62060000D01*
X127400000Y-60960500D01*
X133100000Y-60960500D01*
X133100000Y-62060000D01*
G37*
G36*
X133100000Y-99049500D02*
G01*
X127400000Y-99049500D01*
X127400000Y-97950000D01*
X133100000Y-97950000D01*
X133100000Y-99049500D01*
G37*
G36*
X143100000Y-62060000D02*
G01*
X137400000Y-62060000D01*
X137400000Y-60960500D01*
X143100000Y-60960500D01*
X143100000Y-62060000D01*
G37*
G36*
X143100000Y-99049500D02*
G01*
X137400000Y-99049500D01*
X137400000Y-97950000D01*
X143100000Y-97950000D01*
X143100000Y-99049500D01*
G37*
G36*
X155998084Y-60960556D02*
G01*
X156001848Y-60960669D01*
X156005575Y-60960837D01*
X156253926Y-60975859D01*
X156261326Y-60976531D01*
X156268809Y-60977440D01*
X156276160Y-60978559D01*
X156515326Y-61022387D01*
X156522603Y-61023949D01*
X156529935Y-61025756D01*
X156537088Y-61027750D01*
X156769224Y-61100088D01*
X156776293Y-61102528D01*
X156783278Y-61105177D01*
X156790192Y-61108040D01*
X156933370Y-61172479D01*
X157011904Y-61207824D01*
X157018623Y-61211095D01*
X157025275Y-61214586D01*
X157031770Y-61218250D01*
X157135808Y-61281143D01*
X157239846Y-61344036D01*
X157246129Y-61348099D01*
X157252277Y-61352343D01*
X157258306Y-61356779D01*
X157449684Y-61506715D01*
X157455433Y-61511506D01*
X157461038Y-61516471D01*
X157466497Y-61521610D01*
X157638388Y-61693501D01*
X157643519Y-61698951D01*
X157648485Y-61704556D01*
X157653284Y-61710314D01*
X157803217Y-61901689D01*
X157807659Y-61907727D01*
X157811905Y-61913879D01*
X157815969Y-61920164D01*
X157941741Y-62128215D01*
X157945424Y-62134745D01*
X157948898Y-62141365D01*
X157952174Y-62148094D01*
X158051957Y-62369804D01*
X158054821Y-62376719D01*
X158057467Y-62383695D01*
X158059912Y-62390780D01*
X158132240Y-62622886D01*
X158134253Y-62630109D01*
X158136041Y-62637365D01*
X158137612Y-62644681D01*
X158181434Y-62883810D01*
X158182561Y-62891218D01*
X158183463Y-62898648D01*
X158184141Y-62906105D01*
X158199160Y-63154384D01*
X158199329Y-63158117D01*
X158199443Y-63161881D01*
X158199500Y-63165635D01*
X158199500Y-96844363D01*
X158199443Y-96848117D01*
X158199329Y-96851881D01*
X158199160Y-96855614D01*
X158184141Y-97103893D01*
X158183463Y-97111350D01*
X158182561Y-97118780D01*
X158181434Y-97126188D01*
X158137612Y-97365317D01*
X158136041Y-97372633D01*
X158134253Y-97379889D01*
X158132240Y-97387112D01*
X158059912Y-97619218D01*
X158057467Y-97626303D01*
X158054821Y-97633279D01*
X158051957Y-97640194D01*
X157952174Y-97861904D01*
X157948898Y-97868633D01*
X157945424Y-97875253D01*
X157941741Y-97881783D01*
X157815969Y-98089834D01*
X157811905Y-98096119D01*
X157807659Y-98102271D01*
X157803217Y-98108309D01*
X157653284Y-98299684D01*
X157648485Y-98305442D01*
X157643519Y-98311047D01*
X157638388Y-98316497D01*
X157466497Y-98488388D01*
X157461047Y-98493519D01*
X157455442Y-98498485D01*
X157449684Y-98503284D01*
X157258309Y-98653217D01*
X157252271Y-98657659D01*
X157246119Y-98661905D01*
X157239834Y-98665969D01*
X157031783Y-98791741D01*
X157025253Y-98795424D01*
X157018633Y-98798898D01*
X157011904Y-98802174D01*
X156790194Y-98901957D01*
X156783279Y-98904821D01*
X156776303Y-98907467D01*
X156769218Y-98909912D01*
X156537112Y-98982240D01*
X156529889Y-98984253D01*
X156522633Y-98986041D01*
X156515317Y-98987612D01*
X156276188Y-99031434D01*
X156268780Y-99032561D01*
X156261350Y-99033463D01*
X156253893Y-99034141D01*
X156005614Y-99049160D01*
X156001881Y-99049329D01*
X155998117Y-99049443D01*
X155994363Y-99049500D01*
X147400000Y-99049500D01*
X147400000Y-97950000D01*
X152723166Y-97950000D01*
X152785833Y-97946057D01*
X152847511Y-97934292D01*
X152907228Y-97914888D01*
X152964043Y-97888153D01*
X153017059Y-97854508D01*
X153065440Y-97814484D01*
X153108423Y-97768712D01*
X153145330Y-97717913D01*
X153175580Y-97662890D01*
X153198694Y-97604508D01*
X153214310Y-97543691D01*
X153222179Y-97481395D01*
X153222179Y-97418605D01*
X153214310Y-97356309D01*
X153198694Y-97295492D01*
X153175580Y-97237110D01*
X153145594Y-97182504D01*
X153116292Y-97136230D01*
X153109970Y-97125682D01*
X153062794Y-97042405D01*
X153057017Y-97031598D01*
X153013976Y-96946090D01*
X153008740Y-96935021D01*
X152969951Y-96847511D01*
X152965253Y-96836169D01*
X152930812Y-96746884D01*
X152926682Y-96735343D01*
X152896648Y-96644431D01*
X152893098Y-96632725D01*
X152867569Y-96540477D01*
X152864585Y-96528564D01*
X152843610Y-96435160D01*
X152841229Y-96423187D01*
X152824855Y-96328828D01*
X152823062Y-96316734D01*
X152811343Y-96221725D01*
X152810141Y-96209513D01*
X152803099Y-96114058D01*
X152802498Y-96101834D01*
X152800150Y-96006112D01*
X152800150Y-95993887D01*
X152802498Y-95898164D01*
X152803099Y-95885940D01*
X152810141Y-95790485D01*
X152811343Y-95778273D01*
X152823062Y-95683264D01*
X152824855Y-95671170D01*
X152841229Y-95576811D01*
X152843610Y-95564838D01*
X152864585Y-95471434D01*
X152867569Y-95459521D01*
X152893098Y-95367273D01*
X152896648Y-95355567D01*
X152926682Y-95264655D01*
X152930812Y-95253114D01*
X152965253Y-95163829D01*
X152969951Y-95152487D01*
X153008740Y-95064977D01*
X153013976Y-95053908D01*
X153057017Y-94968400D01*
X153062794Y-94957593D01*
X153109970Y-94874316D01*
X153116280Y-94863787D01*
X153167482Y-94782930D01*
X153174298Y-94772729D01*
X153229404Y-94694485D01*
X153236726Y-94684612D01*
X153295606Y-94609165D01*
X153303377Y-94599696D01*
X153365905Y-94527208D01*
X153374132Y-94518132D01*
X153440152Y-94448789D01*
X153448789Y-94440152D01*
X153518132Y-94374132D01*
X153527208Y-94365905D01*
X153599696Y-94303377D01*
X153609165Y-94295606D01*
X153684612Y-94236726D01*
X153694485Y-94229404D01*
X153772729Y-94174298D01*
X153782930Y-94167482D01*
X153863787Y-94116280D01*
X153874316Y-94109970D01*
X153957593Y-94062794D01*
X153968400Y-94057017D01*
X154053908Y-94013976D01*
X154064977Y-94008740D01*
X154152487Y-93969951D01*
X154163829Y-93965253D01*
X154253114Y-93930812D01*
X154264655Y-93926682D01*
X154355567Y-93896648D01*
X154367273Y-93893098D01*
X154459521Y-93867569D01*
X154471434Y-93864585D01*
X154564838Y-93843610D01*
X154576811Y-93841229D01*
X154671170Y-93824855D01*
X154683264Y-93823062D01*
X154778273Y-93811343D01*
X154790485Y-93810141D01*
X154885940Y-93803099D01*
X154898164Y-93802498D01*
X154993887Y-93800150D01*
X155006113Y-93800150D01*
X155101834Y-93802498D01*
X155114058Y-93803099D01*
X155209513Y-93810141D01*
X155221725Y-93811343D01*
X155316734Y-93823062D01*
X155328828Y-93824855D01*
X155423187Y-93841229D01*
X155435160Y-93843610D01*
X155528564Y-93864585D01*
X155540477Y-93867569D01*
X155632725Y-93893098D01*
X155644431Y-93896648D01*
X155735343Y-93926682D01*
X155746884Y-93930812D01*
X155836169Y-93965253D01*
X155847511Y-93969951D01*
X155935021Y-94008740D01*
X155946090Y-94013976D01*
X156031598Y-94057017D01*
X156042405Y-94062794D01*
X156125682Y-94109970D01*
X156136211Y-94116280D01*
X156217068Y-94167482D01*
X156227269Y-94174298D01*
X156310538Y-94232943D01*
X156310821Y-94232539D01*
X156354969Y-94261149D01*
X156411527Y-94288422D01*
X156471057Y-94308393D01*
X156532620Y-94320744D01*
X156595247Y-94325282D01*
X156657948Y-94321936D01*
X156719735Y-94310757D01*
X156779634Y-94291922D01*
X156836701Y-94265728D01*
X156890034Y-94232589D01*
X156938793Y-94193027D01*
X156982209Y-94147665D01*
X157019598Y-94097220D01*
X157050369Y-94042486D01*
X157074038Y-93984327D01*
X157090231Y-93923661D01*
X157098692Y-93861443D01*
X157100000Y-93825305D01*
X157100000Y-66174693D01*
X157096057Y-66112026D01*
X157084292Y-66050348D01*
X157064888Y-65990631D01*
X157038153Y-65933816D01*
X157004508Y-65880800D01*
X156964484Y-65832419D01*
X156918712Y-65789436D01*
X156867913Y-65752529D01*
X156812890Y-65722279D01*
X156754508Y-65699165D01*
X156693691Y-65683549D01*
X156631395Y-65675680D01*
X156568605Y-65675680D01*
X156506309Y-65683549D01*
X156445492Y-65699165D01*
X156387110Y-65722279D01*
X156332087Y-65752529D01*
X156310668Y-65767240D01*
X156310538Y-65767056D01*
X156227269Y-65825700D01*
X156217068Y-65832516D01*
X156136211Y-65883718D01*
X156125682Y-65890028D01*
X156042405Y-65937204D01*
X156031598Y-65942981D01*
X155946090Y-65986022D01*
X155935021Y-65991258D01*
X155847511Y-66030047D01*
X155836169Y-66034745D01*
X155746884Y-66069186D01*
X155735343Y-66073316D01*
X155644431Y-66103350D01*
X155632725Y-66106900D01*
X155540477Y-66132429D01*
X155528564Y-66135413D01*
X155435160Y-66156388D01*
X155423187Y-66158769D01*
X155328828Y-66175143D01*
X155316734Y-66176936D01*
X155221725Y-66188655D01*
X155209513Y-66189857D01*
X155114076Y-66196897D01*
X155101798Y-66197500D01*
X155006151Y-66199849D01*
X154993849Y-66199849D01*
X154898200Y-66197500D01*
X154885922Y-66196897D01*
X154790485Y-66189857D01*
X154778273Y-66188655D01*
X154683264Y-66176936D01*
X154671170Y-66175143D01*
X154576811Y-66158769D01*
X154564838Y-66156388D01*
X154471434Y-66135413D01*
X154459521Y-66132429D01*
X154367273Y-66106900D01*
X154355567Y-66103350D01*
X154264655Y-66073316D01*
X154253114Y-66069186D01*
X154163829Y-66034745D01*
X154152487Y-66030047D01*
X154064977Y-65991258D01*
X154053908Y-65986022D01*
X153968400Y-65942981D01*
X153957593Y-65937204D01*
X153874316Y-65890028D01*
X153863787Y-65883718D01*
X153782930Y-65832516D01*
X153772729Y-65825700D01*
X153694485Y-65770594D01*
X153684612Y-65763272D01*
X153609165Y-65704392D01*
X153599696Y-65696621D01*
X153527208Y-65634093D01*
X153518132Y-65625866D01*
X153448789Y-65559846D01*
X153440152Y-65551209D01*
X153374132Y-65481866D01*
X153365905Y-65472790D01*
X153303377Y-65400302D01*
X153295606Y-65390833D01*
X153236726Y-65315386D01*
X153229404Y-65305513D01*
X153174298Y-65227269D01*
X153167482Y-65217068D01*
X153116280Y-65136211D01*
X153109970Y-65125682D01*
X153062794Y-65042405D01*
X153057017Y-65031598D01*
X153013976Y-64946090D01*
X153008740Y-64935021D01*
X152969951Y-64847511D01*
X152965253Y-64836169D01*
X152930812Y-64746884D01*
X152926682Y-64735343D01*
X152896648Y-64644431D01*
X152893098Y-64632725D01*
X152867569Y-64540477D01*
X152864585Y-64528564D01*
X152843610Y-64435160D01*
X152841229Y-64423187D01*
X152824855Y-64328828D01*
X152823062Y-64316734D01*
X152811343Y-64221725D01*
X152810141Y-64209513D01*
X152803099Y-64114058D01*
X152802498Y-64101834D01*
X152800150Y-64006112D01*
X152800150Y-63993887D01*
X152802498Y-63898164D01*
X152803099Y-63885940D01*
X152810141Y-63790485D01*
X152811343Y-63778273D01*
X152823062Y-63683264D01*
X152824855Y-63671170D01*
X152841229Y-63576811D01*
X152843610Y-63564838D01*
X152864585Y-63471434D01*
X152867569Y-63459521D01*
X152893098Y-63367273D01*
X152896648Y-63355567D01*
X152926682Y-63264655D01*
X152930812Y-63253114D01*
X152965253Y-63163829D01*
X152969951Y-63152487D01*
X153008740Y-63064977D01*
X153013976Y-63053908D01*
X153057017Y-62968400D01*
X153062794Y-62957593D01*
X153109970Y-62874316D01*
X153116274Y-62863797D01*
X153139262Y-62827496D01*
X153169457Y-62772442D01*
X153192514Y-62714038D01*
X153208069Y-62653205D01*
X153215877Y-62590902D01*
X153215815Y-62528112D01*
X153207884Y-62465824D01*
X153192208Y-62405022D01*
X153169036Y-62346663D01*
X153138732Y-62291669D01*
X153101774Y-62240907D01*
X153058746Y-62195178D01*
X153010326Y-62155201D01*
X152957277Y-62121609D01*
X152900436Y-62094930D01*
X152840699Y-62075586D01*
X152779009Y-62063881D01*
X152716833Y-62060000D01*
X147400000Y-62060000D01*
X147400000Y-60960500D01*
X155994363Y-60960500D01*
X155998084Y-60960556D01*
G37*
G36*
X123100000Y-62060000D02*
G01*
X117783166Y-62060000D01*
X117720499Y-62063943D01*
X117658821Y-62075708D01*
X117599104Y-62095112D01*
X117542289Y-62121847D01*
X117489273Y-62155492D01*
X117440892Y-62195516D01*
X117397909Y-62241288D01*
X117361002Y-62292087D01*
X117330752Y-62347110D01*
X117307638Y-62405492D01*
X117292022Y-62466309D01*
X117284153Y-62528605D01*
X117284153Y-62591395D01*
X117292022Y-62653691D01*
X117307638Y-62714508D01*
X117330752Y-62772890D01*
X117360737Y-62827496D01*
X117383724Y-62863797D01*
X117390028Y-62874316D01*
X117437204Y-62957593D01*
X117442981Y-62968400D01*
X117486022Y-63053908D01*
X117491258Y-63064977D01*
X117530047Y-63152487D01*
X117534745Y-63163829D01*
X117569186Y-63253114D01*
X117573316Y-63264655D01*
X117603350Y-63355567D01*
X117606900Y-63367273D01*
X117632429Y-63459521D01*
X117635413Y-63471434D01*
X117656388Y-63564838D01*
X117658769Y-63576811D01*
X117675143Y-63671170D01*
X117676936Y-63683264D01*
X117688655Y-63778273D01*
X117689857Y-63790485D01*
X117696897Y-63885922D01*
X117697500Y-63898200D01*
X117699849Y-63993848D01*
X117699849Y-64006150D01*
X117697500Y-64101798D01*
X117696897Y-64114076D01*
X117689857Y-64209513D01*
X117688655Y-64221725D01*
X117676936Y-64316734D01*
X117675143Y-64328828D01*
X117658769Y-64423187D01*
X117656388Y-64435160D01*
X117635413Y-64528564D01*
X117632429Y-64540477D01*
X117606900Y-64632725D01*
X117603350Y-64644431D01*
X117573316Y-64735343D01*
X117569186Y-64746884D01*
X117534745Y-64836169D01*
X117530047Y-64847511D01*
X117491258Y-64935021D01*
X117486022Y-64946090D01*
X117442981Y-65031598D01*
X117437204Y-65042405D01*
X117390028Y-65125682D01*
X117383718Y-65136211D01*
X117332516Y-65217068D01*
X117325700Y-65227269D01*
X117270594Y-65305513D01*
X117263272Y-65315386D01*
X117204392Y-65390833D01*
X117196621Y-65400302D01*
X117134093Y-65472790D01*
X117125866Y-65481866D01*
X117059846Y-65551209D01*
X117051209Y-65559846D01*
X116981866Y-65625866D01*
X116972790Y-65634093D01*
X116900302Y-65696621D01*
X116890833Y-65704392D01*
X116815386Y-65763272D01*
X116805513Y-65770594D01*
X116727269Y-65825700D01*
X116717068Y-65832516D01*
X116636211Y-65883718D01*
X116625682Y-65890028D01*
X116542405Y-65937204D01*
X116531598Y-65942981D01*
X116446090Y-65986022D01*
X116435021Y-65991258D01*
X116347511Y-66030047D01*
X116336169Y-66034745D01*
X116246884Y-66069186D01*
X116235343Y-66073316D01*
X116144431Y-66103350D01*
X116132725Y-66106900D01*
X116040477Y-66132429D01*
X116028564Y-66135413D01*
X115935160Y-66156388D01*
X115923187Y-66158769D01*
X115828828Y-66175143D01*
X115816734Y-66176936D01*
X115721725Y-66188655D01*
X115709513Y-66189857D01*
X115614076Y-66196897D01*
X115601798Y-66197500D01*
X115506151Y-66199849D01*
X115493849Y-66199849D01*
X115398200Y-66197500D01*
X115385922Y-66196897D01*
X115290485Y-66189857D01*
X115278273Y-66188655D01*
X115183264Y-66176936D01*
X115171170Y-66175143D01*
X115076811Y-66158769D01*
X115064838Y-66156388D01*
X114971434Y-66135413D01*
X114959521Y-66132429D01*
X114867273Y-66106900D01*
X114855567Y-66103350D01*
X114764655Y-66073316D01*
X114753114Y-66069186D01*
X114663829Y-66034745D01*
X114652487Y-66030047D01*
X114564977Y-65991258D01*
X114553908Y-65986022D01*
X114468400Y-65942981D01*
X114457593Y-65937204D01*
X114374316Y-65890028D01*
X114363787Y-65883718D01*
X114282930Y-65832516D01*
X114272729Y-65825700D01*
X114189461Y-65767056D01*
X114189169Y-65767470D01*
X114145346Y-65739026D01*
X114088808Y-65711712D01*
X114029292Y-65691699D01*
X113967737Y-65679303D01*
X113905114Y-65674719D01*
X113842411Y-65678021D01*
X113780615Y-65689155D01*
X113720702Y-65707946D01*
X113663617Y-65734099D01*
X113610260Y-65767200D01*
X113561472Y-65806727D01*
X113518023Y-65852057D01*
X113480598Y-65902476D01*
X113449788Y-65957187D01*
X113426077Y-66015329D01*
X113409840Y-66075984D01*
X113401334Y-66138195D01*
X113400000Y-66174693D01*
X113400000Y-93825305D01*
X113403943Y-93887972D01*
X113415708Y-93949650D01*
X113435112Y-94009367D01*
X113461847Y-94066182D01*
X113495492Y-94119198D01*
X113535516Y-94167579D01*
X113581288Y-94210562D01*
X113632087Y-94247469D01*
X113687110Y-94277719D01*
X113745492Y-94300833D01*
X113806309Y-94316449D01*
X113868605Y-94324318D01*
X113931395Y-94324318D01*
X113993691Y-94316449D01*
X114054508Y-94300833D01*
X114112890Y-94277719D01*
X114167913Y-94247469D01*
X114189331Y-94232759D01*
X114189461Y-94232943D01*
X114272729Y-94174298D01*
X114282930Y-94167482D01*
X114363787Y-94116280D01*
X114374316Y-94109970D01*
X114457593Y-94062794D01*
X114468400Y-94057017D01*
X114553908Y-94013976D01*
X114564977Y-94008740D01*
X114652487Y-93969951D01*
X114663829Y-93965253D01*
X114753114Y-93930812D01*
X114764655Y-93926682D01*
X114855567Y-93896648D01*
X114867273Y-93893098D01*
X114959521Y-93867569D01*
X114971434Y-93864585D01*
X115064838Y-93843610D01*
X115076811Y-93841229D01*
X115171170Y-93824855D01*
X115183264Y-93823062D01*
X115278273Y-93811343D01*
X115290485Y-93810141D01*
X115385940Y-93803099D01*
X115398164Y-93802498D01*
X115493887Y-93800150D01*
X115506113Y-93800150D01*
X115601834Y-93802498D01*
X115614058Y-93803099D01*
X115709513Y-93810141D01*
X115721725Y-93811343D01*
X115816734Y-93823062D01*
X115828828Y-93824855D01*
X115923187Y-93841229D01*
X115935160Y-93843610D01*
X116028564Y-93864585D01*
X116040477Y-93867569D01*
X116132725Y-93893098D01*
X116144431Y-93896648D01*
X116235343Y-93926682D01*
X116246884Y-93930812D01*
X116336169Y-93965253D01*
X116347511Y-93969951D01*
X116435021Y-94008740D01*
X116446090Y-94013976D01*
X116531598Y-94057017D01*
X116542405Y-94062794D01*
X116625682Y-94109970D01*
X116636211Y-94116280D01*
X116717068Y-94167482D01*
X116727269Y-94174298D01*
X116805513Y-94229404D01*
X116815386Y-94236726D01*
X116890833Y-94295606D01*
X116900302Y-94303377D01*
X116972790Y-94365905D01*
X116981866Y-94374132D01*
X117051209Y-94440152D01*
X117059846Y-94448789D01*
X117125866Y-94518132D01*
X117134093Y-94527208D01*
X117196621Y-94599696D01*
X117204392Y-94609165D01*
X117263272Y-94684612D01*
X117270594Y-94694485D01*
X117325700Y-94772729D01*
X117332516Y-94782930D01*
X117383718Y-94863787D01*
X117390028Y-94874316D01*
X117437204Y-94957593D01*
X117442981Y-94968400D01*
X117486022Y-95053908D01*
X117491258Y-95064977D01*
X117530047Y-95152487D01*
X117534745Y-95163829D01*
X117569186Y-95253114D01*
X117573316Y-95264655D01*
X117603350Y-95355567D01*
X117606900Y-95367273D01*
X117632429Y-95459521D01*
X117635413Y-95471434D01*
X117656388Y-95564838D01*
X117658769Y-95576811D01*
X117675143Y-95671170D01*
X117676936Y-95683264D01*
X117688655Y-95778273D01*
X117689857Y-95790485D01*
X117696897Y-95885922D01*
X117697500Y-95898200D01*
X117699849Y-95993848D01*
X117699849Y-96006150D01*
X117697500Y-96101798D01*
X117696897Y-96114076D01*
X117689857Y-96209513D01*
X117688655Y-96221725D01*
X117676936Y-96316734D01*
X117675143Y-96328828D01*
X117658769Y-96423187D01*
X117656388Y-96435160D01*
X117635413Y-96528564D01*
X117632429Y-96540477D01*
X117606900Y-96632725D01*
X117603350Y-96644431D01*
X117573316Y-96735343D01*
X117569186Y-96746884D01*
X117534745Y-96836169D01*
X117530047Y-96847511D01*
X117491258Y-96935021D01*
X117486022Y-96946090D01*
X117442981Y-97031598D01*
X117437204Y-97042405D01*
X117390028Y-97125682D01*
X117383706Y-97136230D01*
X117354405Y-97182504D01*
X117324209Y-97237557D01*
X117301152Y-97295961D01*
X117285597Y-97356795D01*
X117277789Y-97419098D01*
X117277851Y-97481888D01*
X117285782Y-97544176D01*
X117301458Y-97604978D01*
X117324630Y-97663337D01*
X117354934Y-97718330D01*
X117391891Y-97769092D01*
X117434920Y-97814822D01*
X117483340Y-97854799D01*
X117536389Y-97888391D01*
X117593230Y-97915070D01*
X117652967Y-97934414D01*
X117714657Y-97946119D01*
X117776833Y-97950000D01*
X123100000Y-97950000D01*
X123100000Y-99049500D01*
X114505637Y-99049500D01*
X114501884Y-99049443D01*
X114498119Y-99049329D01*
X114494385Y-99049160D01*
X114246105Y-99034141D01*
X114238648Y-99033463D01*
X114231218Y-99032561D01*
X114223816Y-99031435D01*
X114138521Y-99015804D01*
X113984681Y-98987612D01*
X113977365Y-98986041D01*
X113970109Y-98984253D01*
X113962886Y-98982240D01*
X113730780Y-98909912D01*
X113723704Y-98907470D01*
X113720011Y-98906069D01*
X113716719Y-98904821D01*
X113709804Y-98901957D01*
X113488094Y-98802174D01*
X113481365Y-98798898D01*
X113479834Y-98798095D01*
X113474734Y-98795418D01*
X113468215Y-98791741D01*
X113260164Y-98665969D01*
X113253879Y-98661906D01*
X113249953Y-98659196D01*
X113247719Y-98657654D01*
X113241686Y-98653215D01*
X113050314Y-98503284D01*
X113044556Y-98498485D01*
X113038951Y-98493519D01*
X113033501Y-98488388D01*
X112861610Y-98316497D01*
X112856471Y-98311038D01*
X112851506Y-98305433D01*
X112846715Y-98299684D01*
X112725623Y-98145122D01*
X112696776Y-98108302D01*
X112692343Y-98102277D01*
X112688099Y-98096129D01*
X112684029Y-98089835D01*
X112684028Y-98089834D01*
X112583412Y-97923394D01*
X112564478Y-97892073D01*
X112558257Y-97881782D01*
X112554582Y-97875266D01*
X112551107Y-97868646D01*
X112547824Y-97861904D01*
X112448041Y-97640194D01*
X112445177Y-97633279D01*
X112442521Y-97626275D01*
X112440091Y-97619233D01*
X112367751Y-97387090D01*
X112365749Y-97379906D01*
X112363957Y-97372633D01*
X112362386Y-97365317D01*
X112318558Y-97126155D01*
X112317437Y-97118780D01*
X112316535Y-97111350D01*
X112315858Y-97103914D01*
X112300837Y-96855575D01*
X112300669Y-96851848D01*
X112300556Y-96848084D01*
X112300500Y-96844363D01*
X112300500Y-87587005D01*
X112300500Y-87231315D01*
X112300500Y-86233517D01*
X112300500Y-82948354D01*
X112300500Y-80498353D01*
X112300500Y-73827100D01*
X112300500Y-69421787D01*
X112300500Y-63165635D01*
X112300556Y-63161914D01*
X112300669Y-63158150D01*
X112300837Y-63154426D01*
X112315859Y-62906081D01*
X112316532Y-62898673D01*
X112317441Y-62891186D01*
X112318560Y-62883834D01*
X112354053Y-62690160D01*
X112362393Y-62644644D01*
X112363952Y-62637384D01*
X112365756Y-62630065D01*
X112367758Y-62622888D01*
X112367759Y-62622886D01*
X112440097Y-62390747D01*
X112442514Y-62383741D01*
X112445186Y-62376694D01*
X112448023Y-62369842D01*
X112547841Y-62148054D01*
X112551100Y-62141365D01*
X112554589Y-62134718D01*
X112558241Y-62128242D01*
X112583412Y-62086606D01*
X112684052Y-61920126D01*
X112688092Y-61913879D01*
X112692348Y-61907712D01*
X112696748Y-61901731D01*
X112846738Y-61710284D01*
X112851491Y-61704580D01*
X112856499Y-61698927D01*
X112861585Y-61693526D01*
X113033526Y-61521585D01*
X113038927Y-61516499D01*
X113044580Y-61511491D01*
X113050284Y-61506738D01*
X113241731Y-61356748D01*
X113247720Y-61352343D01*
X113253883Y-61348088D01*
X113260111Y-61344061D01*
X113468260Y-61218229D01*
X113474712Y-61214591D01*
X113481391Y-61211086D01*
X113488057Y-61207840D01*
X113709830Y-61108028D01*
X113716692Y-61105186D01*
X113723743Y-61102513D01*
X113730747Y-61100097D01*
X113962928Y-61027745D01*
X113970066Y-61025755D01*
X113977391Y-61023950D01*
X113984659Y-61022390D01*
X114223860Y-60978556D01*
X114231214Y-60977437D01*
X114238642Y-60976535D01*
X114246082Y-60975858D01*
X114494427Y-60960837D01*
X114498152Y-60960669D01*
X114501917Y-60960556D01*
X114505637Y-60960500D01*
X123100000Y-60960500D01*
X123100000Y-62060000D01*
G37*
D11*
X125250000Y-65300000D02*
X125250000Y-62760000D01*
X125250000Y-95410000D02*
X125250000Y-97250000D01*
X125250000Y-95410000D02*
G75*
G02*
X126664219Y-91995792I4828400J0D01*
G01*
X125780330Y-66580330D02*
G75*
G02*
X125250012Y-65300000I1280370J1280330D01*
G01*
X125780330Y-66580330D02*
X126269669Y-67069669D01*
X126664213Y-91995786D02*
X129950554Y-88709446D01*
X127550000Y-67600000D02*
G75*
G02*
X126269660Y-67069677I0J1810700D01*
G01*
X127617609Y-67599999D02*
G75*
G02*
X128897943Y-68130326I-9J-1810701D01*
G01*
X128897939Y-68130330D02*
X130800000Y-70032391D01*
X133700000Y-67170000D02*
G75*
G02*
X134200000Y-66670000I500000J0D01*
G01*
X133700000Y-67325000D02*
X133700000Y-67170000D01*
X133870000Y-93790000D02*
G75*
G02*
X134370000Y-93290000I500000J0D01*
G01*
X133870000Y-94390000D02*
X133870000Y-93790000D01*
X134200000Y-66670000D02*
X136500000Y-66670000D01*
X134200000Y-67825000D02*
G75*
G02*
X133700000Y-67325000I0J500000D01*
G01*
X134370000Y-93290000D02*
X136090000Y-93290000D01*
X134370000Y-94890000D02*
G75*
G02*
X133870000Y-94390000I0J500000D01*
G01*
X134750000Y-94890000D02*
X134370000Y-94890000D01*
X134750000Y-94890000D02*
G75*
G02*
X135250000Y-95390000I0J-500000D01*
G01*
X134800000Y-67825000D02*
X134200000Y-67825000D01*
X134800000Y-67825000D02*
G75*
G02*
X135300000Y-68325000I0J-500000D01*
G01*
X135230000Y-91190000D02*
X135230000Y-90660001D01*
X135250000Y-65000000D02*
X135250000Y-62760000D01*
X135250000Y-95390000D02*
X135250000Y-97250000D01*
X135300000Y-68325000D02*
X135300000Y-68940000D01*
X135730000Y-91690000D02*
G75*
G02*
X135230000Y-91190000I0J500000D01*
G01*
X135750000Y-65500000D02*
G75*
G02*
X135250000Y-65000000I0J500000D01*
G01*
X136090000Y-91690000D02*
X135730000Y-91690000D01*
X136090000Y-91690000D02*
G75*
G02*
X136590000Y-92190000I0J-500000D01*
G01*
X136500000Y-65500000D02*
X135750000Y-65500000D01*
X136500000Y-65500000D02*
G75*
G02*
X137000000Y-66000000I0J-500000D01*
G01*
X136590000Y-92790000D02*
G75*
G02*
X136090000Y-93290000I-500000J0D01*
G01*
X136590000Y-92790000D02*
X136590000Y-92190000D01*
X137000000Y-66170000D02*
G75*
G02*
X136500000Y-66670000I-500000J0D01*
G01*
X137000000Y-66170000D02*
X137000000Y-66000000D01*
X141219669Y-68110330D02*
X139309082Y-70020918D01*
X141219669Y-68110330D02*
G75*
G02*
X142500000Y-67579982I1280331J-1280270D01*
G01*
X142770000Y-67580000D02*
X142500000Y-67580000D01*
X143835786Y-92421375D02*
X140164411Y-88750000D01*
X143835786Y-92421374D02*
G75*
G02*
X145249975Y-95835589I-3414086J-3414126D01*
G01*
X144050329Y-67049668D02*
G75*
G02*
X142770000Y-67580028I-1280429J1280468D01*
G01*
X144719669Y-66380329D02*
X144050330Y-67049669D01*
X145249999Y-65100000D02*
G75*
G02*
X144719657Y-66380317I-1810599J0D01*
G01*
X145250000Y-65100000D02*
X145250000Y-62760000D01*
X145250000Y-95835589D02*
X145250000Y-97250000D01*
D10*
%TO.C,U1*%
G36*
X122800000Y-75293501D02*
G01*
X122336501Y-75293501D01*
X122336501Y-73166499D01*
X122800000Y-73166499D01*
X122800000Y-75293501D01*
G37*
G36*
X123663499Y-73636300D02*
G01*
X122336501Y-73636300D01*
X122336501Y-73166499D01*
X123663499Y-73166499D01*
X123663499Y-73636300D01*
G37*
G36*
X123663499Y-75293501D02*
G01*
X123200000Y-75293501D01*
X123200000Y-73166499D01*
X123663499Y-73166499D01*
X123663499Y-75293501D01*
G37*
G36*
X123663499Y-74423700D02*
G01*
X122336501Y-74423700D01*
X122336501Y-74036300D01*
X123663499Y-74036300D01*
X123663499Y-74423700D01*
G37*
G36*
X123663499Y-75293501D02*
G01*
X122336501Y-75293501D01*
X122336501Y-74823700D01*
X123663499Y-74823700D01*
X123663499Y-75293501D01*
G37*
%TD*%
D12*
%TO.C,C12*%
X145020000Y-82595000D03*
X145020000Y-84145000D03*
%TD*%
D13*
%TO.C,C15*%
X130800000Y-70032391D03*
X131478822Y-70711213D03*
%TD*%
D14*
%TO.C,C41*%
X129990000Y-83240000D03*
X129990000Y-84200000D03*
%TD*%
D15*
%TO.C,U1*%
X124150000Y-75230003D03*
X124150000Y-74730002D03*
X124150000Y-74230003D03*
X124150000Y-73730004D03*
X124150000Y-73230002D03*
X121850000Y-73230002D03*
X121850000Y-73730004D03*
X121850000Y-74230003D03*
X121850000Y-74730002D03*
X121850000Y-75230003D03*
D16*
X123330000Y-74960000D03*
X123330000Y-73510000D03*
D17*
X123000000Y-74230000D03*
D16*
X123000000Y-74210000D03*
X122680000Y-73510000D03*
X122670000Y-74960000D03*
%TD*%
D18*
%TO.C,C25*%
X140760000Y-82820000D03*
X141720000Y-82820000D03*
%TD*%
D19*
%TO.C,C3*%
X127000000Y-74460000D03*
X127000000Y-73500000D03*
%TD*%
D20*
%TO.C,J5*%
X151000000Y-77500000D03*
D21*
X151000000Y-80040000D03*
X151000000Y-82580000D03*
%TD*%
D22*
%TO.C,R14*%
X131970000Y-86670000D03*
X131248752Y-87391248D03*
%TD*%
D23*
%TO.C,J8*%
X145250000Y-97250000D03*
D24*
X148075000Y-97000000D03*
X142425000Y-97000000D03*
%TD*%
D25*
%TO.C,C18*%
X132335000Y-81435000D03*
X130785000Y-81435000D03*
%TD*%
D26*
%TO.C,R5*%
X145030000Y-81130000D03*
X143380000Y-81130000D03*
%TD*%
D18*
%TO.C,C24*%
X140210000Y-84980000D03*
X141170000Y-84980000D03*
%TD*%
D12*
%TO.C,C1*%
X119230000Y-74975000D03*
X119230000Y-76525000D03*
%TD*%
D27*
%TO.C,J2*%
X125250000Y-62760000D03*
D28*
X122425000Y-63010000D03*
X128075000Y-63010000D03*
%TD*%
D14*
%TO.C,C40*%
X126990000Y-83240000D03*
X126990000Y-84200000D03*
%TD*%
D29*
%TO.C,U3*%
X136564160Y-83564160D03*
X136209440Y-83209440D03*
X135854720Y-82854720D03*
X135500000Y-82500000D03*
D30*
X134584014Y-82500000D03*
X134229294Y-82854720D03*
X133874574Y-83209440D03*
X133519854Y-83564160D03*
D29*
X133519854Y-84480146D03*
X133874574Y-84834866D03*
X134229294Y-85189586D03*
X134584014Y-85544306D03*
D30*
X135500000Y-85544306D03*
X135854720Y-85189586D03*
X136209440Y-84834866D03*
X136564160Y-84480146D03*
D16*
X135678403Y-84022153D03*
X135042007Y-83385757D03*
X135042007Y-84022153D03*
D31*
X135042007Y-84022153D03*
D16*
X135042007Y-84658549D03*
X134405611Y-84022153D03*
%TD*%
D32*
%TO.C,R7*%
X130685000Y-79915000D03*
X132335000Y-79915000D03*
%TD*%
D33*
%TO.C,C4*%
X126225000Y-75750000D03*
X127775000Y-75750000D03*
%TD*%
D34*
%TO.C,C6*%
X119840000Y-73475000D03*
X119840000Y-71925000D03*
%TD*%
D12*
%TO.C,C39*%
X153500000Y-79975000D03*
X153500000Y-81525000D03*
%TD*%
D20*
%TO.C,J1*%
X116500000Y-72400000D03*
D21*
X116500000Y-74940000D03*
%TD*%
D16*
%TO.C,TP1*%
X123750000Y-70500000D03*
%TD*%
D34*
%TO.C,C38*%
X153500000Y-77525000D03*
X153500000Y-75975000D03*
%TD*%
D35*
%TO.C,H3*%
X153350000Y-64000000D03*
X153833274Y-62833274D03*
X153833274Y-65166726D03*
X155000000Y-62350000D03*
D36*
X155000000Y-64000000D03*
D35*
X155000000Y-65650000D03*
X156166726Y-62833274D03*
X156166726Y-65166726D03*
X156650000Y-64000000D03*
%TD*%
D34*
%TO.C,C7*%
X129250000Y-78025000D03*
X129250000Y-76475000D03*
%TD*%
D37*
%TO.C,R12*%
X143140000Y-79720000D03*
X144160000Y-79720000D03*
%TD*%
D38*
%TO.C,C21*%
X136941992Y-81771992D03*
X138038008Y-82868008D03*
%TD*%
D37*
%TO.C,R20*%
X127980000Y-83240000D03*
X129000000Y-83240000D03*
%TD*%
D18*
%TO.C,C33*%
X136170000Y-88850001D03*
X137130000Y-88850001D03*
%TD*%
D23*
%TO.C,J7*%
X135250000Y-97250000D03*
D24*
X138075000Y-97000000D03*
X132425000Y-97000000D03*
%TD*%
D13*
%TO.C,C37*%
X139485589Y-88071178D03*
X140164411Y-88750000D03*
%TD*%
D32*
%TO.C,R3*%
X122175000Y-72100000D03*
X123825000Y-72100000D03*
%TD*%
D39*
%TO.C,R6*%
X132850624Y-72051837D03*
X132129376Y-71330589D03*
%TD*%
D40*
%TO.C,R11*%
X137268457Y-72060953D03*
X137989705Y-71339705D03*
%TD*%
D41*
%TO.C,R1*%
X126000000Y-74519998D03*
X126000000Y-73500000D03*
%TD*%
D42*
%TO.C,C32*%
X130608787Y-86750035D03*
X129929965Y-86071213D03*
%TD*%
D43*
%TO.C,C34*%
X140135589Y-87430000D03*
X140814411Y-86751178D03*
%TD*%
D33*
%TO.C,C5*%
X126200000Y-77250000D03*
X127750000Y-77250000D03*
%TD*%
D44*
%TO.C,U4*%
X140260001Y-81580000D03*
X140760000Y-81580000D03*
X141260002Y-81580000D03*
X141760000Y-81580000D03*
X141760000Y-78580000D03*
X141260002Y-78580000D03*
X140760000Y-78580000D03*
X140260001Y-78580000D03*
%TD*%
D32*
%TO.C,R4*%
X130645000Y-78020000D03*
X132295000Y-78020000D03*
%TD*%
D35*
%TO.C,H2*%
X113850000Y-96000000D03*
X114333274Y-94833274D03*
X114333274Y-97166726D03*
X115500000Y-94350000D03*
D36*
X115500000Y-96000000D03*
D35*
X115500000Y-97650000D03*
X116666726Y-94833274D03*
X116666726Y-97166726D03*
X117150000Y-96000000D03*
%TD*%
D45*
%TO.C,X1*%
X120720000Y-86589998D03*
X121990000Y-86589998D03*
X123260000Y-86589998D03*
D46*
X125095000Y-85770000D03*
X125095000Y-83230000D03*
D45*
X123260000Y-82410002D03*
X121990000Y-82410002D03*
X120720000Y-82410002D03*
D46*
X118885000Y-83230000D03*
X118885000Y-85770000D03*
%TD*%
D47*
%TO.C,C28*%
X139298492Y-70020918D03*
X138619670Y-70699740D03*
%TD*%
D13*
%TO.C,C29*%
X138650294Y-72020294D03*
X139329116Y-72699116D03*
%TD*%
D40*
%TO.C,R9*%
X139159965Y-84430624D03*
X139881213Y-83709376D03*
%TD*%
D25*
%TO.C,C43*%
X117040000Y-81750000D03*
X115490000Y-81750000D03*
%TD*%
D47*
%TO.C,C16*%
X131418822Y-71991178D03*
X130740000Y-72670000D03*
%TD*%
D43*
%TO.C,C23*%
X136421178Y-70368822D03*
X137100000Y-69690000D03*
%TD*%
D48*
%TO.C,R15*%
X135230000Y-87830002D03*
X135230000Y-88850000D03*
%TD*%
D27*
%TO.C,J4*%
X145250000Y-62760000D03*
D28*
X142425000Y-63010000D03*
X148075000Y-63010000D03*
%TD*%
D41*
%TO.C,R2*%
X125000000Y-74019998D03*
X125000000Y-73000000D03*
%TD*%
D23*
%TO.C,J6*%
X125250000Y-97250000D03*
D24*
X128075000Y-97000000D03*
X122425000Y-97000000D03*
%TD*%
D14*
%TO.C,C36*%
X135230000Y-89700001D03*
X135230000Y-90660001D03*
%TD*%
D26*
%TO.C,R19*%
X121565000Y-80750000D03*
X119915000Y-80750000D03*
%TD*%
D49*
%TO.C,R18*%
X148500000Y-80575000D03*
X148500000Y-78925000D03*
%TD*%
D19*
%TO.C,C26*%
X141770002Y-77380000D03*
X141770002Y-76420000D03*
%TD*%
D41*
%TO.C,R8*%
X135300000Y-71809999D03*
X135300000Y-70790001D03*
%TD*%
D35*
%TO.C,H1*%
X113850000Y-64000000D03*
X114333274Y-62833274D03*
X114333274Y-65166726D03*
X115500000Y-62350000D03*
D36*
X115500000Y-64000000D03*
D35*
X115500000Y-65650000D03*
X116666726Y-62833274D03*
X116666726Y-65166726D03*
X117150000Y-64000000D03*
%TD*%
D14*
%TO.C,C22*%
X135300000Y-68940000D03*
X135300000Y-69900000D03*
%TD*%
D25*
%TO.C,C8*%
X132295000Y-76460000D03*
X130745000Y-76460000D03*
%TD*%
D47*
%TO.C,C35*%
X130629376Y-88030624D03*
X129950554Y-88709446D03*
%TD*%
D34*
%TO.C,C42*%
X118490000Y-80775000D03*
X118490000Y-79225000D03*
%TD*%
D14*
%TO.C,C27*%
X138890002Y-77360000D03*
X138890002Y-78320000D03*
%TD*%
D12*
%TO.C,C2*%
X120750000Y-74975000D03*
X120750000Y-76525000D03*
%TD*%
%TO.C,C17*%
X129260000Y-79910000D03*
X129260000Y-81460000D03*
%TD*%
D50*
%TO.C,U2*%
X133649825Y-73697525D03*
X133649825Y-74199175D03*
X133649825Y-74700825D03*
X133649825Y-75202475D03*
D51*
X134297525Y-75850175D03*
X134799175Y-75850175D03*
X135300825Y-75850175D03*
X135802475Y-75850175D03*
D50*
X136450175Y-75202475D03*
X136450175Y-74700825D03*
X136450175Y-74199175D03*
X136450175Y-73697525D03*
D51*
X135802475Y-73049825D03*
X135300825Y-73049825D03*
X134799175Y-73049825D03*
X134297525Y-73049825D03*
D16*
X134600000Y-74000000D03*
X134600000Y-74900000D03*
X135050000Y-74450000D03*
D52*
X135050000Y-74450000D03*
D16*
X135500000Y-74000000D03*
X135500000Y-74900000D03*
%TD*%
D53*
%TO.C,R17*%
X148500000Y-75925000D03*
X148500000Y-77575000D03*
%TD*%
D54*
%TO.C,R10*%
X140840001Y-77390000D03*
X139820003Y-77390000D03*
%TD*%
D55*
%TO.C,R16*%
X138133180Y-86719376D03*
X138854428Y-87440624D03*
%TD*%
D12*
%TO.C,C13*%
X143450000Y-82590000D03*
X143450000Y-84140000D03*
%TD*%
D35*
%TO.C,H4*%
X153350000Y-96000000D03*
X153833274Y-94833274D03*
X153833274Y-97166726D03*
X155000000Y-94350000D03*
D36*
X155000000Y-96000000D03*
D35*
X155000000Y-97650000D03*
X156166726Y-94833274D03*
X156166726Y-97166726D03*
X156650000Y-96000000D03*
%TD*%
D12*
%TO.C,C44*%
X116990000Y-83225000D03*
X116990000Y-84775000D03*
%TD*%
D27*
%TO.C,J3*%
X135250000Y-62760000D03*
D28*
X132425000Y-63010000D03*
X138075000Y-63010000D03*
%TD*%
D56*
X157650000Y-68867837D03*
X118350061Y-61510000D03*
X150125000Y-98500000D03*
X157650000Y-76967591D03*
X120374999Y-61510000D03*
X157650000Y-93167100D03*
X157650000Y-64817960D03*
X112850000Y-93167100D03*
X157650000Y-87092284D03*
X112850000Y-81017468D03*
X112850000Y-68867836D03*
X112850000Y-70892775D03*
X156199280Y-61522507D03*
X157650000Y-70892775D03*
X112850000Y-74942652D03*
X118350061Y-98500000D03*
X152149938Y-98500000D03*
X114300718Y-61522507D03*
X150125000Y-61510000D03*
X112850000Y-83042407D03*
X112850000Y-76967591D03*
X157650000Y-95192038D03*
X112891119Y-97213858D03*
X157650000Y-66842898D03*
X152149938Y-61510000D03*
X157650000Y-91142161D03*
X140249999Y-61510000D03*
X157650000Y-78992530D03*
X114300718Y-98487491D03*
X157608879Y-62796141D03*
X112850000Y-66842898D03*
X157650000Y-85067345D03*
X112850000Y-95192039D03*
X157650000Y-89117223D03*
X112850000Y-85067346D03*
X112891119Y-62796140D03*
X157650000Y-72917714D03*
X157650000Y-74942653D03*
X116325122Y-98500000D03*
X112850000Y-91142162D03*
X130250000Y-98500000D03*
X154174877Y-61510000D03*
X157650000Y-83042407D03*
X112850000Y-89117223D03*
X120374999Y-98500000D03*
X112850000Y-78992530D03*
X112850000Y-64817959D03*
X116325122Y-61510000D03*
X157608879Y-97213857D03*
X156199280Y-98487491D03*
X112850000Y-72917714D03*
X140249999Y-98500000D03*
X130249999Y-61510000D03*
X157650000Y-81017468D03*
X154174877Y-98500000D03*
X112850000Y-87092284D03*
M02*
